<svg xmlns="http://www.w3.org/2000/svg" role="img" viewBox="0 0 24 24" width="1em" height="1em"><defs></defs><path fill="#06C" fill-rule="evenodd" d="M12.015 0l2.325 2.18c.15.148.358.208.537.148l3.13-.716.925 3.075c.06.179.208.328.387.388L22.39 6l-.715 3.134c-.03.18 0 .388.149.538L24 12.03l-2.176 2.328c-.12.15-.18.358-.15.508L22.39 18l-3.07.925a.626.626 0 00-.388.388l-.925 3.075-3.13-.716a.606.606 0 00-.537.149L12.015 24l-2.326-2.18a.712.712 0 00-.417-.148c-.06 0-.12.03-.149.03l-3.13.716-.925-3.075a.626.626 0 00-.387-.388L1.61 18.03l.715-3.134c.03-.18 0-.389-.149-.538L0 12.03l2.206-2.358c.15-.15.209-.329.15-.538L1.64 6l3.07-.925a.626.626 0 00.388-.388l.924-3.075 3.13.716c.18.03.388 0 .537-.149L12.015 0zm3.851 9.28l-4.878 4.88-2.293-2.294A1 1 0 007.28 13.28l3 3a1 1 0 001.414 0l5.585-5.585a1 1 0 00-1.414-1.414z"></path></svg>
