<svg xmlns="http://www.w3.org/2000/svg" xmlns:xlink="http://www.w3.org/1999/xlink" version="1.1" x="0px" y="0px" viewBox="0 0 100 125" enable-background="new 0 0 100 100" xml:space="preserve"><circle fill="#000000" cx="50" cy="50" r="5.477"/><path fill="#000000" d="M76.211,49.999c1.864-1.67,3.563-3.342,5.056-4.994c6.189-6.846,8.254-12.556,5.97-16.511  c-1.059-1.833-3.564-4.018-9.491-4.018c-4.014,0-9.07,1.014-14.635,2.839c-0.515-2.456-1.115-4.769-1.8-6.892  C58.478,11.642,54.566,7,50,7c-4.568,0-8.479,4.642-11.312,13.425c-0.685,2.123-1.285,4.436-1.799,6.892  c-5.565-1.826-10.622-2.839-14.635-2.839c-5.926,0-8.432,2.185-9.49,4.018c-2.285,3.956-0.22,9.665,5.969,16.511  c1.493,1.652,3.191,3.324,5.054,4.994c-1.863,1.67-3.562,3.342-5.054,4.993c-6.189,6.846-8.253,12.555-5.969,16.509  c1.059,1.833,3.564,4.02,9.491,4.02c4.014,0,9.069-1.014,14.634-2.84c0.516,2.456,1.115,4.769,1.8,6.893  C41.522,88.357,45.433,93,50,93c4.566,0,8.478-4.643,11.311-13.426c0.685-2.124,1.285-4.437,1.8-6.893  c5.565,1.825,10.621,2.839,14.633,2.839c0.001,0,0.001,0,0.001,0c5.926,0,8.433-2.186,9.492-4.02  c2.283-3.955,0.218-9.664-5.97-16.509C79.774,53.341,78.075,51.669,76.211,49.999z M22.254,71.367c-3.077,0-5.17-0.69-5.893-1.943  c-0.957-1.656-0.026-5.584,5.453-11.645c1.508-1.669,3.245-3.364,5.162-5.059c2.471,2.012,5.167,4.002,8.039,5.932  c0.235,3.451,0.61,6.78,1.117,9.925C30.806,70.37,26.005,71.367,22.254,71.367z M34.771,53.436  c-1.591-1.133-3.117-2.281-4.561-3.437c1.444-1.155,2.969-2.304,4.561-3.437c-0.03,1.138-0.048,2.284-0.048,3.438  C34.722,51.154,34.741,52.298,34.771,53.436z M35.015,41.347c-2.872,1.93-5.567,3.92-8.039,5.932  c-1.916-1.694-3.653-3.389-5.162-5.059c-5.479-6.062-6.41-9.991-5.453-11.647c0.723-1.252,2.816-1.941,5.893-1.941  c3.751,0,8.553,0.997,13.877,2.789C35.625,34.566,35.25,37.895,35.015,41.347z M60.596,38.532c-0.971-0.596-1.955-1.186-2.955-1.763  c-0.997-0.576-1.997-1.129-2.996-1.671c1.781-0.813,3.537-1.559,5.255-2.231C60.174,34.658,60.408,36.548,60.596,38.532z M50,11.154  c3.049,0,6.889,6.37,9.167,17.556c-2.976,1.132-6.055,2.47-9.168,3.992c-3.113-1.521-6.191-2.86-9.166-3.991  C43.111,17.524,46.951,11.154,50,11.154z M40.101,32.867c1.717,0.672,3.473,1.418,5.254,2.231c-1,0.542-1.999,1.095-2.996,1.671  c-1,0.577-1.983,1.167-2.954,1.762C39.593,36.547,39.827,34.658,40.101,32.867z M39.405,61.468c0.97,0.595,1.954,1.185,2.954,1.762  c0.997,0.576,1.997,1.128,2.996,1.67c-1.781,0.813-3.536,1.558-5.254,2.23C39.827,65.34,39.593,63.451,39.405,61.468z M50,88.846  c-3.05,0-6.89-6.371-9.168-17.558c2.976-1.132,6.054-2.471,9.167-3.992c3.114,1.521,6.193,2.86,9.168,3.992  C56.89,82.475,53.049,88.846,50,88.846z M59.901,67.132c-1.719-0.672-3.475-1.418-5.256-2.231c0.999-0.542,1.999-1.095,2.996-1.67  c1-0.578,1.984-1.167,2.955-1.763C60.408,63.451,60.174,65.34,59.901,67.132z M60.968,56.326c-1.745,1.129-3.548,2.235-5.405,3.307  c-1.855,1.071-3.715,2.074-5.563,3.019c-1.849-0.945-3.708-1.948-5.563-3.019c-1.856-1.072-3.659-2.177-5.404-3.306  c-0.101-2.03-0.156-4.139-0.156-6.327c0-2.188,0.055-4.298,0.156-6.328c1.745-1.128,3.547-2.234,5.404-3.306  c1.855-1.071,3.714-2.075,5.564-3.02c1.849,0.945,3.707,1.948,5.562,3.02c1.896,1.095,3.696,2.198,5.404,3.301  c0.101,2.032,0.156,4.143,0.156,6.333C61.124,52.188,61.068,54.296,60.968,56.326z M77.746,28.632c3.077,0,5.17,0.689,5.893,1.941  c0.957,1.656,0.026,5.585-5.454,11.646c-1.51,1.67-3.246,3.365-5.164,5.059c-2.47-2.011-5.165-4.001-8.036-5.93  c-0.235-3.452-0.611-6.781-1.118-9.928C69.193,29.629,73.995,28.632,77.746,28.632z M65.23,46.558  c1.625,1.157,3.146,2.306,4.563,3.439c-1.445,1.156-2.971,2.304-4.563,3.438c0.03-1.138,0.049-2.282,0.049-3.436  C65.279,48.844,65.259,47.697,65.23,46.558z M83.639,69.424c-0.723,1.253-2.816,1.943-5.894,1.943c0,0,0,0-0.001,0  c-3.75,0-8.551-0.997-13.875-2.79c0.507-3.146,0.883-6.475,1.118-9.926c2.874-1.931,5.571-3.923,8.043-5.937  C81.57,60.277,85.163,66.784,83.639,69.424z"/><text x="0" y="115" fill="#000000" font-size="5px" font-weight="bold" font-family="'Helvetica Neue', Helvetica, Arial-Unicode, Arial, Sans-serif">Created by Erin Agnoli</text><text x="0" y="120" fill="#000000" font-size="5px" font-weight="bold" font-family="'Helvetica Neue', Helvetica, Arial-Unicode, Arial, Sans-serif">from the Noun Project</text></svg>
