<?xml version="1.0" encoding="utf-8"?>
<!-- Generator: Adobe Illustrator 24.2.1, SVG Export Plug-In . SVG Version: 6.00 Build 0)  -->
<svg version="1.1" id="Layer_1" xmlns="http://www.w3.org/2000/svg" xmlns:xlink="http://www.w3.org/1999/xlink" x="0px" y="0px"
	 viewBox="0 0 80 80" style="enable-background:new 0 0 80 80;" xml:space="preserve">
<path d="M73.8,19.2L41.1,0.3c-0.7-0.4-1.5-0.4-2.2,0L6.2,19.2c-0.7,0.4-1.1,1.1-1.1,1.9v37.8c0,0.8,0.4,1.5,1.1,1.9l32.7,18.9
	c0.7,0.4,1.5,0.4,2.2,0l32.7-18.9c0.7-0.4,1.1-1.1,1.1-1.9V21.1C74.9,20.3,74.5,19.6,73.8,19.2z M70.5,57.6L40,75.2L9.5,57.6V22.4
	L40,4.8l30.5,17.6V57.6z"/>
<path d="M19.1,26.9c-0.7,0.1-1.3,0.7-1.2,1.5c0.1,0.7,0.6,1.2,1.2,1.2h0.6c0.2,1.3,0.7,2.6,1.5,3.7l-0.4,0.4c-0.5,0.5-0.5,1.4,0,1.9
	c0,0,0,0,0,0c0.5,0.5,1.4,0.5,1.9,0c0,0,0,0,0,0l0.4-0.4c1.1,0.8,2.3,1.3,3.6,1.5v0.6c-0.1,0.7,0.5,1.4,1.2,1.5
	c0.7,0.1,1.4-0.5,1.5-1.2c0-0.1,0-0.2,0-0.2v-0.6c1.3-0.2,2.6-0.7,3.7-1.5l0.4,0.4c0.5,0.5,1.4,0.5,1.9,0c0.5-0.5,0.5-1.4,0-1.9l0,0
	l-0.4-0.4c0.8-1.1,1.3-2.3,1.5-3.7h0.6c0.7,0.1,1.4-0.5,1.5-1.2c0.1-0.7-0.5-1.4-1.2-1.5c-0.1,0-0.2,0-0.2,0h-0.6
	c-0.2-1.3-0.7-2.6-1.5-3.7l0.4-0.4c0.5-0.5,0.5-1.4,0-1.9c-0.5-0.5-1.4-0.5-1.9,0l-0.4,0.4c-1.1-0.8-2.3-1.3-3.7-1.5v-0.6
	c-0.1-0.7-0.7-1.3-1.5-1.2c-0.7,0.1-1.2,0.6-1.2,1.2v0.6c-1.3,0.2-2.6,0.7-3.6,1.5l-0.4-0.4c-0.5-0.5-1.4-0.5-1.9,0
	c-0.5,0.5-0.5,1.4,0,1.9l0.4,0.4c-0.8,1.1-1.3,2.3-1.5,3.7L19.1,26.9z M28.1,22.4c3.2,0,5.9,2.6,5.9,5.9s-2.6,5.9-5.9,5.9
	s-5.9-2.6-5.9-5.9C22.3,25,24.9,22.4,28.1,22.4C28.2,22.4,28.2,22.4,28.1,22.4L28.1,22.4z"/>
<path d="M41.7,33.9c-0.8,0-1.4,0.6-1.4,1.4l0,0v1.9c-2,0.2-3.8,1-5.3,2.2L33.7,38c-0.6-0.5-1.4-0.5-2,0c-0.5,0.6-0.5,1.4,0,2
	l1.4,1.4c-1.2,1.5-2,3.4-2.2,5.3H29c-0.7,0-1.4,0.6-1.4,1.3c0,0.7,0.6,1.4,1.4,1.4h1.9c0.2,1.9,1,3.8,2.2,5.3l-1.4,1.4
	c-0.5,0.5-0.5,1.4,0,1.9c0.5,0.5,1.4,0.5,1.9,0c0,0,0,0,0,0l1.4-1.4c1.5,1.2,3.4,2,5.3,2.2v1.9c0.1,0.7,0.7,1.3,1.5,1.2
	c0.7-0.1,1.2-0.6,1.2-1.2v-1.9c1.9-0.2,3.8-1,5.3-2.2l1.4,1.4c0.5,0.5,1.4,0.5,1.9,0c0,0,0,0,0,0c0.5-0.5,0.5-1.4,0-1.9c0,0,0,0,0,0
	l-1.4-1.4c1.2-1.5,2-3.4,2.2-5.3h1.9c0.7,0,1.3-0.6,1.3-1.3c0-0.7-0.6-1.4-1.3-1.4h-1.9c-0.2-1.9-1-3.8-2.2-5.3l1.4-1.3
	c0.6-0.5,0.6-1.4,0-2c-0.5-0.6-1.4-0.6-2,0l-1.4,1.4c-1.5-1.2-3.4-2-5.3-2.2v-1.9C43.1,34.5,42.5,33.9,41.7,33.9
	C41.7,33.9,41.7,33.9,41.7,33.9z M49.9,48c0,4.5-3.7,8.2-8.2,8.2c-4.5,0-8.2-3.7-8.2-8.2c0-4.5,3.7-8.2,8.2-8.2l0,0
	C46.2,39.8,49.9,43.5,49.9,48z"/>
<path d="M36.2,48c0,3,2.5,5.5,5.5,5.5s5.5-2.5,5.5-5.5s-2.5-5.5-5.5-5.5C38.7,42.5,36.2,45,36.2,48z M44.5,48c0,1.5-1.2,2.8-2.8,2.8
	c-1.5,0-2.8-1.2-2.8-2.8c0-1.5,1.2-2.8,2.8-2.8S44.5,46.5,44.5,48C44.5,48,44.5,48,44.5,48z"/>
<path d="M48,28.7c-0.7,0-1.3,0.6-1.3,1.4s0.6,1.4,1.3,1.4h0.7c0.1,0.3,0.2,0.7,0.4,1l-0.5,0.5c-0.5,0.5-0.5,1.4,0,1.9
	c0.5,0.5,1.4,0.5,1.9,0l0,0l0.5-0.5c0.3,0.2,0.7,0.3,1,0.4v0.7c0.1,0.7,0.7,1.3,1.5,1.2c0.7-0.1,1.2-0.6,1.2-1.2v-0.7
	c0.4-0.1,0.7-0.2,1-0.4l0.5,0.5c0.6,0.5,1.4,0.4,1.9-0.1c0.5-0.5,0.5-1.3,0-1.8l-0.5-0.5c0.2-0.3,0.3-0.7,0.4-1h0.7
	c0.7,0,1.3-0.6,1.3-1.4s-0.6-1.4-1.3-1.4h-0.6c-0.1-0.3-0.3-0.7-0.4-1l0.5-0.5c0.5-0.6,0.4-1.4-0.1-1.9c-0.5-0.5-1.3-0.5-1.8,0
	l-0.5,0.5c-0.3-0.2-0.7-0.3-1-0.4v-0.7c0.1-0.7-0.5-1.4-1.2-1.5c-0.7-0.1-1.4,0.5-1.5,1.2c0,0.1,0,0.2,0,0.2v0.7
	c-0.4,0.1-0.7,0.2-1,0.4l-0.5-0.5c-0.5-0.5-1.4-0.5-1.9,0c-0.5,0.5-0.5,1.4,0,1.9l0.5,0.5c-0.2,0.3-0.3,0.6-0.4,1L48,28.7z
	 M53.4,27.8c1.2,0,2.3,1,2.3,2.2c0,1.2-1,2.3-2.2,2.3c-1.2,0-2.3-1-2.3-2.2c0,0,0,0,0,0C51.2,28.8,52.2,27.8,53.4,27.8
	C53.4,27.8,53.4,27.8,53.4,27.8L53.4,27.8z"/>
</svg>