<?xml version="1.0" encoding="utf-8"?>
<!-- Generator: Adobe Illustrator 24.2.1, SVG Export Plug-In . SVG Version: 6.00 Build 0)  -->
<svg version="1.1" id="Layer_1" xmlns="http://www.w3.org/2000/svg" xmlns:xlink="http://www.w3.org/1999/xlink" x="0px" y="0px"
	 viewBox="0 0 80 80" style="enable-background:new 0 0 80 80;" xml:space="preserve">
<path d="M73.8,19.2L41.1,0.3c-0.7-0.4-1.5-0.4-2.2,0L6.2,19.2c-0.7,0.4-1.1,1.1-1.1,1.9v37.8c0,0.8,0.4,1.5,1.1,1.9l32.7,18.9
	c0.7,0.4,1.5,0.4,2.2,0l32.7-18.9c0.7-0.4,1.1-1.1,1.1-1.9V21.1C74.9,20.3,74.5,19.6,73.8,19.2z M70.5,57.6L40,75.2L9.5,57.6V22.4
	L40,4.8l30.5,17.6V57.6z"/>
<path d="M32.5,32.6c-0.9-0.9-2.3-0.9-3.1,0l-5.9,5.9c-0.9,0.9-0.9,2.3,0,3.1c0,0,0,0,0,0l5.9,5.9c0.9,0.9,2.3,0.9,3.1,0
	c0.9-0.9,0.9-2.3,0-3.1l-4.3-4.3l4.3-4.3C33.4,34.9,33.4,33.5,32.5,32.6C32.5,32.6,32.5,32.6,32.5,32.6z"/>
<path d="M46.3,47.6c0.4,0.4,1,0.6,1.6,0.7c0.6,0,1.2-0.2,1.6-0.7l5.9-5.9c0.9-0.9,0.9-2.3,0-3.1c0,0,0,0,0,0l-5.9-5.9
	c-0.9-0.9-2.3-0.9-3.1,0c-0.9,0.9-0.9,2.3,0,3.1l4.3,4.3l-4.3,4.3C45.5,45.3,45.4,46.7,46.3,47.6C46.3,47.6,46.3,47.6,46.3,47.6z"/>
<path d="M39.6,30.2l-4.8,19.2c-0.3,1.2,0.4,2.4,1.6,2.7c0.2,0,0.4,0.1,0.5,0.1c1,0,1.9-0.7,2.2-1.7l4.8-19.2
	c0.3-1.2-0.4-2.4-1.6-2.7C41.1,28.3,39.9,29,39.6,30.2C39.6,30.2,39.6,30.2,39.6,30.2z"/>
</svg>