<?xml version="1.0" encoding="utf-8"?>
<!-- Generator: Adobe Illustrator 24.2.1, SVG Export Plug-In . SVG Version: 6.00 Build 0)  -->
<svg version="1.1" id="Layer_1" xmlns="http://www.w3.org/2000/svg" xmlns:xlink="http://www.w3.org/1999/xlink" x="0px" y="0px"
	 viewBox="0 0 80 80" style="enable-background:new 0 0 80 80;" xml:space="preserve">
<path d="M68.7,37.9c-1-0.4-2.1-0.1-2.8,0.6c-0.2,0.2-0.4,0.5-0.5,0.8c-0.1,0.3-0.2,0.7-0.2,1c0,0.7,0.3,1.3,0.8,1.8
	c0.2,0.2,0.5,0.4,0.8,0.5c0.3,0.1,0.7,0.2,1,0.2c1.4,0,2.6-1.2,2.6-2.6c0-0.3-0.1-0.7-0.2-1c-0.1-0.3-0.3-0.6-0.5-0.8
	C69.3,38.2,69,38,68.7,37.9z"/>
<path d="M58.7,23c0.3,0.1,0.7,0.2,1,0.2c1.4,0,2.5-1.1,2.5-2.4c0,0,0-0.1,0-0.1c0-0.3-0.1-0.6-0.2-1c-0.1-0.3-0.3-0.6-0.5-0.9
	c-1-1-2.6-1-3.6,0c-0.2,0.2-0.4,0.5-0.5,0.9c-0.1,0.3-0.2,0.6-0.2,1c0,0.7,0.3,1.3,0.8,1.8C58.1,22.7,58.4,22.9,58.7,23z"/>
<path d="M57.8,61.7c0.5,0.5,1.1,0.7,1.8,0.7c0.7,0,1.3-0.3,1.8-0.7c0.5-0.5,0.8-1.1,0.8-1.8c0-0.7-0.3-1.3-0.8-1.8
	c-0.2-0.2-0.5-0.4-0.8-0.5c-1-0.4-2-0.2-2.8,0.5c-0.5,0.5-0.8,1.1-0.8,1.8C57.1,60.5,57.3,61.2,57.8,61.7z"/>
<path d="M39,65.7c-0.3,0.1-0.6,0.3-0.8,0.5c-0.2,0.2-0.4,0.5-0.5,0.8c-0.3,0.6-0.3,1.4,0,2c0.1,0.3,0.3,0.6,0.5,0.8
	c0.5,0.5,1.1,0.8,1.8,0.8c0.7,0,1.3-0.3,1.8-0.8c0.2-0.2,0.4-0.5,0.5-0.8c0.1-0.3,0.2-0.7,0.2-1c0-1.4-1.1-2.6-2.5-2.6
	C39.7,65.4,39.3,65.5,39,65.7z"/>
<path d="M21.4,57.5c-0.9-0.4-2-0.1-2.8,0.5c-0.5,0.5-0.8,1.1-0.8,1.8c0,0.7,0.3,1.3,0.8,1.8c0.5,0.5,1.1,0.7,1.8,0.7
	c0.7,0,1.3-0.3,1.8-0.7c0.5-0.5,0.8-1.1,0.8-1.8c0-0.7-0.3-1.3-0.8-1.8C22,57.8,21.7,57.6,21.4,57.5z"/>
<path d="M10.4,38.5c-0.2,0.2-0.4,0.5-0.6,0.8c-0.1,0.3-0.2,0.7-0.2,1c0,0.7,0.3,1.3,0.8,1.8c0.2,0.2,0.5,0.4,0.8,0.5
	c0.3,0.1,0.7,0.2,1,0.2c0.7,0,1.3-0.3,1.8-0.8c0.5-0.5,0.7-1.1,0.8-1.8c0-0.3-0.1-0.7-0.2-1c-0.1-0.3-0.3-0.6-0.6-0.8
	C13.1,37.5,11.5,37.5,10.4,38.5z"/>
<path d="M22.7,19.7c-0.1-0.3-0.3-0.6-0.5-0.9c-0.7-0.7-1.8-0.9-2.8-0.5c-0.6,0.3-1.1,0.8-1.4,1.4c-0.1,0.3-0.2,0.6-0.2,1
	c0,0.7,0.3,1.3,0.8,1.8c0.5,0.5,1.1,0.8,1.8,0.8c0.3,0,0.7-0.1,1-0.2c0.3-0.2,0.6-0.3,0.9-0.6c0.5-0.5,0.7-1.1,0.8-1.8
	C22.9,20.3,22.9,20,22.7,19.7z"/>
<path d="M40,80c22.1,0,40-17.9,40-40c-0.1-1.4-1.3-2.5-2.7-2.4C76,37.7,75,38.7,74.9,40c0,19.3-15.6,34.9-34.9,34.9
	S5.1,59.3,5.1,40.1c0-18.3,14.1-33.5,32.3-34.8V33c-3.9,1.4-5.9,5.6-4.5,9.5s5.6,5.9,9.5,4.5c0.3-0.1,0.5-0.2,0.8-0.3l6,6
	c1,1,2.6,1,3.6,0s1-2.6,0-3.6l-6-6c1.7-3.7,0-8.1-3.7-9.8c-0.2-0.1-0.4-0.2-0.6-0.2V2.5C42.6,1.1,41.4,0,40,0c0,0,0,0,0,0
	C17.9,0,0,17.9,0,40S17.9,80,40,80z M40,37.7c1.3,0,2.3,1,2.3,2.3c0,1.3-1,2.3-2.3,2.3s-2.3-1-2.3-2.3c0,0,0,0,0,0
	C37.7,38.7,38.7,37.7,40,37.7C40,37.7,40,37.7,40,37.7z"/>
</svg>