<?xml version="1.0" encoding="utf-8"?>
<!-- Generator: Adobe Illustrator 24.2.1, SVG Export Plug-In . SVG Version: 6.00 Build 0)  -->
<svg version="1.1" id="Layer_1" xmlns="http://www.w3.org/2000/svg" xmlns:xlink="http://www.w3.org/1999/xlink" x="0px" y="0px"
	 viewBox="0 0 80 80" style="enable-background:new 0 0 80 80;" xml:space="preserve">
<path d="M46.3,23.5c1.3,0,2.4-1.1,2.4-2.4v-3.9h3.1c1.3,0,2.4-1.1,2.4-2.3s-1.1-2.4-2.3-2.4c0,0,0,0,0,0h-3.1V8.6
	c0.1-1.3-0.9-2.4-2.2-2.5C45.1,6,44,7,43.9,8.3c0,0.1,0,0.2,0,0.3v12.5C43.9,22.5,45,23.5,46.3,23.5z M34.9,37.7
	c-1.3,0-2.3,1.1-2.3,2.3c0,1.3,1.1,2.4,2.3,2.4h10.4c1.3,0,2.4-1.1,2.4-2.4c0-1.3-1.1-2.3-2.4-2.3H34.9z M73.1,33.8
	c-0.8,1-0.6,2.5,0.4,3.3c0.4,0.3,0.9,0.5,1.5,0.5c0.7,0,1.4-0.3,1.8-0.9c2.1-2.6,3.2-5.9,3.2-9.3c0-0.8-0.1-1.5-0.2-2.3
	c-0.1-1.3-1.3-2.2-2.6-2.1c-1.3,0.1-2.2,1.3-2.1,2.6c0,0.1,0,0.1,0,0.2C75.6,28.7,74.8,31.6,73.1,33.8z M53.3,40
	c0,1.3,1.1,2.3,2.3,2.3h9.5c0.4,0,0.7,0,1.1,0c1.3-0.1,2.3-1.2,2.2-2.5c-0.1-1.3-1.2-2.3-2.5-2.2c-0.2,0-0.5,0-0.7,0h-9.5
	C54.3,37.7,53.3,38.7,53.3,40z M62.1,17.3h3c2,0,4,0.6,5.6,1.8c0.4,0.3,0.8,0.4,1.3,0.4c1.3,0,2.4-1.1,2.4-2.4c0-0.8-0.4-1.5-1-1.9
	c-2.5-1.6-5.3-2.5-8.3-2.5h-3c-1.3,0-2.3,1.1-2.3,2.4S60.8,17.3,62.1,17.3L62.1,17.3z M7,46.1c0.8-1,0.7-2.5-0.3-3.3
	s-2.5-0.7-3.3,0.3l0,0c-2.2,2.7-3.4,6-3.3,9.4c0,0.7,0,1.4,0.2,2.1c0.2,1.1,1.2,2,2.3,2c0.1,0,0.2,0,0.3,0c1.3-0.2,2.2-1.4,2-2.7
	c-0.1-0.5-0.1-1-0.1-1.5C4.7,50.2,5.5,47.9,7,46.1z M33.7,56.5c-1.3,0-2.4,1.1-2.4,2.3v3.9h-3.1c-1.3,0-2.4,1-2.4,2.3
	c0,1.3,1,2.4,2.3,2.4c0,0,0,0,0,0h3.1v3.9c-0.1,1.3,0.9,2.4,2.2,2.5c1.3,0.1,2.4-0.9,2.5-2.2c0-0.1,0-0.2,0-0.3V58.8
	C36.1,57.5,35,56.5,33.7,56.5z M2.3,23.5h34.5c1.3,0,2.4-1.1,2.4-2.4V8.6c0-1.3-1.1-2.4-2.4-2.4l0,0H2.3C1.1,6.3,0,7.3,0,8.6v12.5
	C0,22.5,1.1,23.5,2.3,23.5C2.3,23.5,2.3,23.5,2.3,23.5z M4.7,11h29.8v7.8H4.7V11z M77.7,56.5H43.1c-1.3,0-2.4,1.1-2.4,2.3v12.6
	c0,1.3,1.1,2.4,2.4,2.4l0,0h34.5c1.3,0,2.4-1.1,2.3-2.4V58.8C80,57.5,78.9,56.5,77.7,56.5z M75.3,69H45.5v-7.8h29.8V69z M26.9,40
	c0-1.3-1.1-2.4-2.4-2.3h-9.6c-0.3,0-0.6,0-0.9,0c-1.3,0-2.3,1.1-2.3,2.4c0,1.3,1.1,2.3,2.4,2.3h0.1h0.6h9.6
	C25.8,42.4,26.9,41.3,26.9,40z M17.7,62.8h-2.8c-2.1,0-4.1-0.6-5.8-1.8c-1.1-0.7-2.5-0.5-3.3,0.6s-0.5,2.5,0.6,3.3
	c2.5,1.7,5.4,2.6,8.4,2.6h2.8c1.3,0,2.4-1.1,2.4-2.3C20.1,63.8,19,62.8,17.7,62.8L17.7,62.8z"/>
</svg>