<svg id="Layer_1" data-name="Layer 1" xmlns="http://www.w3.org/2000/svg" viewBox="0 0 48.5 36"><path d="M15.5,0a8,8,0,1,0,8,8A8,8,0,0,0,15.5,0Zm0,13a5,5,0,1,1,5-5A5,5,0,0,1,15.5,13Z"/><path d="M0,1.17V14.73A1.66,1.66,0,0,0,1.5,16,1.66,1.66,0,0,0,3,14.73V1.17A1.59,1.59,0,0,0,1.5,0,1.59,1.59,0,0,0,0,1.17Z"/><path d="M40.5,0a8,8,0,1,0,8,8A8,8,0,0,0,40.5,0Zm0,13a5,5,0,1,1,5-5A5,5,0,0,1,40.5,13Z"/><path d="M26,1.17V14.73a1.52,1.52,0,0,0,3,0V1.17a1.55,1.55,0,0,0-3,0Z"/><path d="M23.5,20a8,8,0,1,0,8,8A8,8,0,0,0,23.5,20Zm0,13a5,5,0,1,1,5-5A5,5,0,0,1,23.5,33Z"/><path d="M0,21.17V34.73A1.66,1.66,0,0,0,1.5,36,1.66,1.66,0,0,0,3,34.73V21.17A1.59,1.59,0,0,0,1.5,20,1.59,1.59,0,0,0,0,21.17Z"/><path d="M9,21.17V34.73A1.66,1.66,0,0,0,10.5,36,1.66,1.66,0,0,0,12,34.73V21.17a1.55,1.55,0,0,0-3,0Z"/><path d="M35,21.17V34.73a1.52,1.52,0,0,0,3,0V21.17a1.55,1.55,0,0,0-3,0Z"/><path d="M44,21.17V34.73a1.52,1.52,0,0,0,3,0V21.17a1.55,1.55,0,0,0-3,0Z"/></svg>
