<?xml version="1.0" encoding="utf-8"?>
<!-- Generator: Adobe Illustrator 24.2.1, SVG Export Plug-In . SVG Version: 6.00 Build 0)  -->
<svg version="1.1" id="Layer_1" xmlns="http://www.w3.org/2000/svg" xmlns:xlink="http://www.w3.org/1999/xlink" x="0px" y="0px"
	 viewBox="0 0 80 80" style="enable-background:new 0 0 80 80;" xml:space="preserve">
<path d="M79.3,38.3l-7.7-7.7c-0.9-1-2.5-1.1-3.5-0.2c-1,0.9-1.1,2.5-0.2,3.5c0.1,0.1,0.1,0.1,0.2,0.2l3.5,3.5h-7.1
	c-25.6-0.1-35.2-10.1-38.8-19.1c4.4-2.4,5.9-7.9,3.6-12.2s-7.9-5.9-12.2-3.6s-5.9,7.9-3.6,12.2c1.5,2.7,4.3,4.5,7.4,4.7
	C23.3,26,28.1,33,38,37.6H17.6c-1.4-4.8-6.3-7.6-11.1-6.2c-4.8,1.4-7.6,6.3-6.2,11.1s6.3,7.6,11.1,6.2c3-0.9,5.4-3.2,6.2-6.2H38
	C28.1,47,23.3,54,20.9,60.5c-5,0.3-8.8,4.5-8.5,9.5s4.5,8.8,9.5,8.5s8.8-4.5,8.5-9.5c-0.2-3.1-1.9-5.9-4.7-7.4
	c3.5-9.1,13.2-19,38.8-19.1h7.1l-3.5,3.5c-1,0.9-1.1,2.5-0.2,3.5c0.9,1,2.5,1.1,3.5,0.2c0.1-0.1,0.1-0.1,0.2-0.2l7.7-7.7
	C80.2,40.8,80.2,39.2,79.3,38.3C79.3,38.3,79.3,38.3,79.3,38.3z M21.4,14.7c-2.3,0-4.1-1.8-4.1-4.1s1.8-4.1,4.1-4.1s4.1,1.8,4.1,4.1
	S23.7,14.7,21.4,14.7L21.4,14.7z M9,44.1c-2.3,0-4.1-1.8-4.1-4.1s1.8-4.1,4.1-4.1c2.3,0,4.1,1.8,4.1,4.1c0,0,0,0,0,0
	C13.1,42.3,11.2,44.1,9,44.1z M21.4,73.5c-2.3,0-4.1-1.8-4.1-4.1c0-2.3,1.8-4.1,4.1-4.1s4.1,1.8,4.1,4.1S23.7,73.5,21.4,73.5
	L21.4,73.5z"/>
</svg>