<svg width="112px" height="39px" viewBox="0 0 112 39" version="1.1" xmlns="http://www.w3.org/2000/svg" xmlns:xlink="http://www.w3.org/1999/xlink">
    <g id="event-pub-sub" stroke="none" stroke-width="1" fill="none" fill-rule="evenodd">
        <g id="I0I0" transform="translate(3.000000, 1.000000)" fill="#000000" fill-rule="nonzero">
            <path d="M15.5,0 C11.081722,0 7.5,3.581722 7.5,8 C7.5,12.418278 11.081722,16 15.5,16 C19.918278,16 23.5,12.418278 23.5,8 C23.5,5.87826808 22.6571453,3.84343678 21.1568542,2.34314575 C19.6565632,0.842854723 17.6217319,0 15.5,0 Z M15.5,13 C12.7385763,13 10.5,10.7614237 10.5,8 C10.5,5.23857625 12.7385763,3 15.5,3 C18.2614237,3 20.5,5.23857625 20.5,8 C20.5,9.32608245 19.9732158,10.597852 19.0355339,11.5355339 C18.097852,12.4732158 16.8260824,13 15.5,13 Z" id="Shape"></path>
            <path d="M0,1.17 L0,14.73 C0.168730807,15.4356483 0.776186684,15.949961 1.5,16 C2.22381332,15.949961 2.83126919,15.4356483 3,14.73 L3,1.17 C2.81418203,0.490914046 2.20389232,0.0148880753 1.5,0 C0.79610768,0.0148880753 0.185817974,0.490914046 0,1.17 Z" id="Path"></path>
            <path d="M40.5,0 C36.081722,0 32.5,3.581722 32.5,8 C32.5,12.418278 36.081722,16 40.5,16 C44.918278,16 48.5,12.418278 48.5,8 C48.5,5.87826808 47.6571453,3.84343678 46.1568542,2.34314575 C44.6565632,0.842854723 42.6217319,0 40.5,0 Z M40.5,13 C37.7385763,13 35.5,10.7614237 35.5,8 C35.5,5.23857625 37.7385763,3 40.5,3 C43.2614237,3 45.5,5.23857625 45.5,8 C45.5,9.32608245 44.9732158,10.597852 44.0355339,11.5355339 C43.097852,12.4732158 41.8260824,13 40.5,13 Z" id="Shape"></path>
            <path d="M26,1.17 L26,14.73 C26.1203946,15.4648183 26.7553841,16.0042359 27.5,16.0042359 C28.2446159,16.0042359 28.8796054,15.4648183 29,14.73 L29,1.17 C28.8222189,0.4871237 28.2056388,0.0105124838 27.5,0.0105124838 C26.7943612,0.0105124838 26.1777811,0.4871237 26,1.17 L26,1.17 Z" id="Path"></path>
            <path d="M23.5,20 C19.081722,20 15.5,23.581722 15.5,28 C15.5,32.418278 19.081722,36 23.5,36 C27.918278,36 31.5,32.418278 31.5,28 C31.5,25.8782681 30.6571453,23.8434368 29.1568542,22.3431458 C27.6565632,20.8428547 25.6217319,20 23.5,20 Z M23.5,33 C20.7385763,33 18.5,30.7614237 18.5,28 C18.5,25.2385763 20.7385763,23 23.5,23 C26.2614237,23 28.5,25.2385763 28.5,28 C28.5,30.7614237 26.2614237,33 23.5,33 L23.5,33 Z" id="Shape"></path>
            <path d="M0,21.17 L0,34.73 C0.168730807,35.4356483 0.776186684,35.949961 1.5,36 C2.22381332,35.949961 2.83126919,35.4356483 3,34.73 L3,21.17 C2.81418203,20.490914 2.20389232,20.0148881 1.5,20 C0.79610768,20.0148881 0.185817974,20.490914 0,21.17 Z" id="Path"></path>
            <path d="M9,21.17 L9,34.73 C9.16873081,35.4356483 9.77618668,35.949961 10.5,36 C11.2238133,35.949961 11.8312692,35.4356483 12,34.73 L12,21.17 C11.8222189,20.4871237 11.2056388,20.0105125 10.5,20.0105125 C9.79436116,20.0105125 9.17778115,20.4871237 9,21.17 L9,21.17 Z" id="Path"></path>
            <path d="M35,21.17 L35,34.73 C35.1203946,35.4648183 35.7553841,36.0042359 36.5,36.0042359 C37.2446159,36.0042359 37.8796054,35.4648183 38,34.73 L38,21.17 C37.8222189,20.4871237 37.2056388,20.0105125 36.5,20.0105125 C35.7943612,20.0105125 35.1777811,20.4871237 35,21.17 Z" id="Path"></path>
            <path d="M44,21.17 L44,34.73 C44.1203946,35.4648183 44.7553841,36.0042359 45.5,36.0042359 C46.2446159,36.0042359 46.8796054,35.4648183 47,34.73 L47,21.17 C46.8222189,20.4871237 46.2056388,20.0105125 45.5,20.0105125 C44.7943612,20.0105125 44.1777811,20.4871237 44,21.17 Z" id="Path"></path>
        </g>
        <g id="I0I0" transform="translate(61.000000, 1.000000)" fill="#000000" fill-rule="nonzero">
            <path d="M15.5,0 C11.081722,0 7.5,3.581722 7.5,8 C7.5,12.418278 11.081722,16 15.5,16 C19.918278,16 23.5,12.418278 23.5,8 C23.5,5.87826808 22.6571453,3.84343678 21.1568542,2.34314575 C19.6565632,0.842854723 17.6217319,0 15.5,0 Z M15.5,13 C12.7385763,13 10.5,10.7614237 10.5,8 C10.5,5.23857625 12.7385763,3 15.5,3 C18.2614237,3 20.5,5.23857625 20.5,8 C20.5,9.32608245 19.9732158,10.597852 19.0355339,11.5355339 C18.097852,12.4732158 16.8260824,13 15.5,13 Z" id="Shape"></path>
            <path d="M0,1.17 L0,14.73 C0.168730807,15.4356483 0.776186684,15.949961 1.5,16 C2.22381332,15.949961 2.83126919,15.4356483 3,14.73 L3,1.17 C2.81418203,0.490914046 2.20389232,0.0148880753 1.5,0 C0.79610768,0.0148880753 0.185817974,0.490914046 0,1.17 Z" id="Path"></path>
            <path d="M40.5,0 C36.081722,0 32.5,3.581722 32.5,8 C32.5,12.418278 36.081722,16 40.5,16 C44.918278,16 48.5,12.418278 48.5,8 C48.5,5.87826808 47.6571453,3.84343678 46.1568542,2.34314575 C44.6565632,0.842854723 42.6217319,0 40.5,0 Z M40.5,13 C37.7385763,13 35.5,10.7614237 35.5,8 C35.5,5.23857625 37.7385763,3 40.5,3 C43.2614237,3 45.5,5.23857625 45.5,8 C45.5,9.32608245 44.9732158,10.597852 44.0355339,11.5355339 C43.097852,12.4732158 41.8260824,13 40.5,13 Z" id="Shape"></path>
            <path d="M26,1.17 L26,14.73 C26.1203946,15.4648183 26.7553841,16.0042359 27.5,16.0042359 C28.2446159,16.0042359 28.8796054,15.4648183 29,14.73 L29,1.17 C28.8222189,0.4871237 28.2056388,0.0105124838 27.5,0.0105124838 C26.7943612,0.0105124838 26.1777811,0.4871237 26,1.17 L26,1.17 Z" id="Path"></path>
            <path d="M23.5,20 C19.081722,20 15.5,23.581722 15.5,28 C15.5,32.418278 19.081722,36 23.5,36 C27.918278,36 31.5,32.418278 31.5,28 C31.5,25.8782681 30.6571453,23.8434368 29.1568542,22.3431458 C27.6565632,20.8428547 25.6217319,20 23.5,20 Z M23.5,33 C20.7385763,33 18.5,30.7614237 18.5,28 C18.5,25.2385763 20.7385763,23 23.5,23 C26.2614237,23 28.5,25.2385763 28.5,28 C28.5,30.7614237 26.2614237,33 23.5,33 L23.5,33 Z" id="Shape"></path>
            <path d="M0,21.17 L0,34.73 C0.168730807,35.4356483 0.776186684,35.949961 1.5,36 C2.22381332,35.949961 2.83126919,35.4356483 3,34.73 L3,21.17 C2.81418203,20.490914 2.20389232,20.0148881 1.5,20 C0.79610768,20.0148881 0.185817974,20.490914 0,21.17 Z" id="Path"></path>
            <path d="M9,21.17 L9,34.73 C9.16873081,35.4356483 9.77618668,35.949961 10.5,36 C11.2238133,35.949961 11.8312692,35.4356483 12,34.73 L12,21.17 C11.8222189,20.4871237 11.2056388,20.0105125 10.5,20.0105125 C9.79436116,20.0105125 9.17778115,20.4871237 9,21.17 L9,21.17 Z" id="Path"></path>
            <path d="M35,21.17 L35,34.73 C35.1203946,35.4648183 35.7553841,36.0042359 36.5,36.0042359 C37.2446159,36.0042359 37.8796054,35.4648183 38,34.73 L38,21.17 C37.8222189,20.4871237 37.2056388,20.0105125 36.5,20.0105125 C35.7943612,20.0105125 35.1777811,20.4871237 35,21.17 Z" id="Path"></path>
            <path d="M44,21.17 L44,34.73 C44.1203946,35.4648183 44.7553841,36.0042359 45.5,36.0042359 C46.2446159,36.0042359 46.8796054,35.4648183 47,34.73 L47,21.17 C46.8222189,20.4871237 46.2056388,20.0105125 45.5,20.0105125 C44.7943612,20.0105125 44.1777811,20.4871237 44,21.17 Z" id="Path"></path>
        </g>
    </g>
</svg>
