<svg id="Layer_1" data-name="Layer 1" xmlns="http://www.w3.org/2000/svg" viewBox="0 0 448 640"><title>event-source</title><path d="M421.12,570.91c163.87-177.17,163.81-452.72,0-629.82a15.89,15.89,0,0,0-23-.35L364.17-25a16.24,16.24,0,0,0-.38,22.4c133.68,145.92,133.71,371.3,0,517.25a16.25,16.25,0,0,0,.38,22.4l34,34.24a15.9,15.9,0,0,0,23-.36ZM224,256a64,64,0,1,0-64,64A64,64,0,0,0,224,256Zm83.59,202.67c101.93-115.26,101.82-290.21,0-405.34a15.81,15.81,0,0,0-23.15-.57l-34,34.44a16.32,16.32,0,0,0-.8,22c72.57,83.95,72.41,209.74,0,293.49a16.31,16.31,0,0,0,.8,22.05l34,34.44A15.81,15.81,0,0,0,307.59,458.67Z" transform="translate(-96 64)"/></svg>