<?xml version="1.0" encoding="UTF-8"?>
<svg width="16px" height="16px" viewBox="0 0 16 16" version="1.1" xmlns="http://www.w3.org/2000/svg" xmlns:xlink="http://www.w3.org/1999/xlink">
    <!-- Generator: Sketch 42 (36781) - http://www.bohemiancoding.com/sketch -->
    <title>Shape</title>
    <desc>Created with Sketch.</desc>
    <defs></defs>
    <g id="Page-1" stroke="none" stroke-width="1" fill="none" fill-rule="evenodd">
        <path d="M7.92792793,0 C10.0900901,0 11.963964,0.864864865 13.5495495,2.30630631 C15.1351351,3.74774775 15.8558559,5.76576577 15.8558559,7.92792793 C15.8558559,10.0900901 14.990991,11.963964 13.5495495,13.6936937 C11.963964,15.1351351 10.0900901,16 7.92792793,16 C5.76576577,16 4.03603604,15.1351351 2.30630631,13.6936937 C0.864864865,11.963964 0,9.94594595 0,7.78378378 C0,5.62162162 0.864864865,3.74774775 2.30630631,2.16216216 C3.74774775,0.576576577 5.90990991,0 7.92792793,0 Z M2.88288288,7.92792793 C2.88288288,9.36936937 3.31531532,10.5225225 4.32432432,11.6756757 C5.33333333,12.6846847 6.48648649,13.2612613 7.92792793,13.2612613 C9.22522523,13.2612613 10.5225225,12.8288288 11.5315315,11.6756757 C12.5405405,10.6666667 12.972973,9.36936937 12.972973,7.92792793 C12.972973,6.48648649 12.5405405,5.18918919 11.5315315,4.18018018 C10.6666667,3.02702703 9.51351351,2.59459459 7.92792793,2.59459459 C6.63063063,2.59459459 5.47747748,3.02702703 4.46846847,4.18018018 C3.45945946,5.18918919 2.88288288,6.48648649 2.88288288,7.92792793 Z" id="Shape" fill="#000000" fill-rule="nonzero"></path>
    </g>
</svg>