<?xml version="1.0" encoding="UTF-8" standalone="no"?>
<svg width="280px" height="187px" viewBox="0 0 280 187" version="1.1" xmlns="http://www.w3.org/2000/svg" xmlns:xlink="http://www.w3.org/1999/xlink" style="background: #FFFFFF;">
    <!-- Generator: Sketch 46.2 (44496) - http://www.bohemiancoding.com/sketch -->
    <title>diagram__2</title>
    <desc>Created with Sketch.</desc>
    <defs>
        <rect id="path-1" x="0" y="0" width="76" height="15" rx="7.5"></rect>
        <rect id="path-2" x="0" y="0" width="65" height="15" rx="7.5"></rect>
        <rect id="path-3" x="0" y="0" width="56" height="15" rx="7.5"></rect>
    </defs>
    <g id="Page-1" stroke="none" stroke-width="1" fill="none" fill-rule="evenodd">
        <g id="diagram__2">
            <rect id="Rectangle-3" fill="#FFFFFF" x="0" y="0" width="280" height="187"></rect>
            <path d="M47.834,178.599 L48.879,178.599 L48.967,179.325 L49.011,179.325 C49.2530012,179.090332 49.5151653,178.888668 49.7975,178.72 C50.0798347,178.551332 50.4079981,178.467 50.782,178.467 C51.3613362,178.467 51.7829987,178.652165 52.047,179.0225 C52.3110013,179.392835 52.443,179.922663 52.443,180.612 L52.443,184 L51.178,184 L51.178,180.777 C51.178,180.329664 51.1120007,180.014334 50.98,179.831 C50.8479993,179.647666 50.6316682,179.556 50.331,179.556 C50.0963322,179.556 49.8891676,179.612833 49.7095,179.7265 C49.5298324,179.840167 49.3263345,180.006999 49.099,180.227 L49.099,184 L47.834,184 L47.834,178.599 Z M53.763,182.548 C53.763,181.968664 54.0159975,181.521335 54.522,181.206 C55.0280025,180.890665 55.8346611,180.670667 56.942,180.546 C56.942,180.406666 56.9236669,180.272834 56.887,180.1445 C56.8503332,180.016166 56.7935004,179.9025 56.7165,179.8035 C56.6394996,179.7045 56.5405006,179.6275 56.4195,179.5725 C56.2984994,179.5175 56.1463343,179.49 55.963,179.49 C55.6916653,179.49 55.4295013,179.541333 55.1765,179.644 C54.9234987,179.746667 54.6796678,179.871333 54.445,180.018 L53.983,179.171 C54.2836682,178.980332 54.6191648,178.815334 54.9895,178.676 C55.3598352,178.536666 55.7613312,178.467 56.194,178.467 C56.8760034,178.467 57.3819984,178.666831 57.712,179.0665 C58.0420017,179.466169 58.207,180.043663 58.207,180.799 L58.207,184 L57.173,184 L57.074,183.406 L57.041,183.406 C56.7989988,183.611334 56.5405014,183.783666 56.2655,183.923 C55.9904986,184.062334 55.6916683,184.132 55.369,184.132 C54.892331,184.132 54.5055015,183.987168 54.2085,183.6975 C53.9114985,183.407832 53.763,183.024669 53.763,182.548 Z M54.995,182.449 C54.995,182.691001 55.0664993,182.866999 55.2095,182.977 C55.3525007,183.087001 55.5376655,183.142 55.765,183.142 C55.9850011,183.142 56.1866658,183.090667 56.37,182.988 C56.5533343,182.885333 56.743999,182.738668 56.942,182.548 L56.942,181.338 C56.5753315,181.382 56.2673346,181.440666 56.018,181.514 C55.7686654,181.587334 55.5688341,181.669833 55.4185,181.7615 C55.2681659,181.853167 55.1600003,181.957666 55.094,182.075 C55.0279997,182.192334 54.995,182.316999 54.995,182.449 Z M59.747,178.599 L60.792,178.599 L60.88,179.336 L60.924,179.336 C61.1513345,179.093999 61.398832,178.888668 61.6665,178.72 C61.934168,178.551332 62.236665,178.467 62.574,178.467 C62.970002,178.467 63.2871655,178.551332 63.5255,178.72 C63.7638345,178.888668 63.9453327,179.126998 64.07,179.435 C64.326668,179.156332 64.5943319,178.925334 64.873,178.742 C65.1516681,178.558666 65.4633316,178.467 65.808,178.467 C66.3800029,178.467 66.8016653,178.652165 67.073,179.0225 C67.3443347,179.392835 67.48,179.922663 67.48,180.612 L67.48,184 L66.204,184 L66.204,180.777 C66.204,180.329664 66.1361673,180.014334 66.0005,179.831 C65.8648327,179.647666 65.6576681,179.556 65.379,179.556 C65.041665,179.556 64.6640021,179.779664 64.246,180.227 L64.246,184 L62.981,184 L62.981,180.777 C62.981,180.329664 62.9131673,180.014334 62.7775,179.831 C62.6418327,179.647666 62.4310014,179.556 62.145,179.556 C61.807665,179.556 61.4300021,179.779664 61.012,180.227 L61.012,184 L59.747,184 L59.747,178.599 Z M68.668,181.305 C68.668,180.864998 68.737666,180.469002 68.877,180.117 C69.016334,179.764998 69.2014988,179.468001 69.4325,179.226 C69.6635012,178.983999 69.9293318,178.797001 70.23,178.665 C70.5306682,178.532999 70.8386651,178.467 71.154,178.467 C71.5206685,178.467 71.8433319,178.529333 72.122,178.654 C72.4006681,178.778667 72.6334991,178.954666 72.8205,179.182 C73.0075009,179.409334 73.1486662,179.680665 73.244,179.996 C73.3393338,180.311335 73.387,180.655998 73.387,181.03 C73.387,181.279335 73.3686669,181.477333 73.332,181.624 L69.9,181.624 C69.958667,182.115336 70.1291653,182.492999 70.4115,182.757 C70.6938347,183.021001 71.0549978,183.153 71.495,183.153 C71.7296678,183.153 71.9478323,183.118167 72.1495,183.0485 C72.3511677,182.978833 72.550999,182.881667 72.749,182.757 L73.178,183.549 C72.9213321,183.717668 72.6353349,183.856999 72.32,183.967 C72.0046651,184.077001 71.6746684,184.132 71.33,184.132 C70.9559981,184.132 70.6076683,184.067834 70.285,183.9395 C69.9623317,183.811166 69.6800012,183.626001 69.438,183.384 C69.1959988,183.141999 69.0071673,182.846835 68.8715,182.4985 C68.7358327,182.150165 68.668,181.752336 68.668,181.305 Z M72.287,180.821 C72.287,180.388331 72.1971676,180.051001 72.0175,179.809 C71.8378324,179.566999 71.5610019,179.446 71.187,179.446 C70.8643317,179.446 70.5820012,179.561499 70.34,179.7925 C70.0979988,180.023501 69.947667,180.366331 69.889,180.821 L72.287,180.821 Z M74.652,182.57 C74.8940012,182.760668 75.1341655,182.909166 75.3725,183.0155 C75.6108345,183.121834 75.8693319,183.175 76.148,183.175 C76.4413348,183.175 76.657666,183.114501 76.797,182.9935 C76.936334,182.872499 77.006,182.716668 77.006,182.526 C77.006,182.415999 76.9730003,182.318834 76.907,182.2345 C76.8409997,182.150166 76.7530005,182.075 76.643,182.009 C76.5329995,181.943 76.408334,181.8825 76.269,181.8275 C76.129666,181.7725 75.990334,181.715667 75.851,181.657 C75.6749991,181.591 75.4953342,181.514 75.312,181.426 C75.1286658,181.338 74.9655007,181.231667 74.8225,181.107 C74.6794993,180.982333 74.5621671,180.837501 74.4705,180.6725 C74.3788329,180.507499 74.333,180.311334 74.333,180.084 C74.333,179.607331 74.5089982,179.218668 74.861,178.918 C75.2130018,178.617332 75.6933303,178.467 76.302,178.467 C76.6760019,178.467 77.0133318,178.532999 77.314,178.665 C77.6146682,178.797001 77.8749989,178.947332 78.095,179.116 L77.512,179.886 C77.3213324,179.746666 77.1288343,179.634834 76.9345,179.5505 C76.7401657,179.466166 76.5366677,179.424 76.324,179.424 C76.0526653,179.424 75.852834,179.480833 75.7245,179.5945 C75.596166,179.708167 75.532,179.849332 75.532,180.018 C75.532,180.128001 75.5631664,180.2215 75.6255,180.2985 C75.6878336,180.3755 75.7703328,180.443333 75.873,180.502 C75.9756672,180.560667 76.0948327,180.615666 76.2305,180.667 C76.3661673,180.718334 76.5073326,180.769666 76.654,180.821 C76.8373342,180.887 77.0206658,180.962166 77.204,181.0465 C77.3873343,181.130834 77.5541659,181.235333 77.7045,181.36 C77.8548341,181.484667 77.9758329,181.636832 78.0675,181.8165 C78.1591671,181.996168 78.205,182.210665 78.205,182.46 C78.205,182.694668 78.1591671,182.912832 78.0675,183.1145 C77.9758329,183.316168 77.8420009,183.492166 77.666,183.6425 C77.4899991,183.792834 77.2700013,183.912 77.006,184 C76.7419987,184.088 76.441335,184.132 76.104,184.132 C75.7299981,184.132 75.3615018,184.060501 74.9985,183.9175 C74.6354982,183.774499 74.3220013,183.596668 74.058,183.384 L74.652,182.57 Z M80.603,184.44 L80.603,186.134 L79.338,186.134 L79.338,178.599 L80.383,178.599 L80.471,179.171 L80.515,179.171 C80.7423345,178.980332 80.9953319,178.815334 81.274,178.676 C81.5526681,178.536666 81.8423318,178.467 82.143,178.467 C82.480335,178.467 82.7791654,178.531166 83.0395,178.6595 C83.2998346,178.787834 83.5216658,178.972999 83.705,179.215 C83.8883343,179.457001 84.0276662,179.746665 84.123,180.084 C84.2183338,180.421335 84.266,180.798998 84.266,181.217 C84.266,181.679002 84.201834,182.091498 84.0735,182.4545 C83.945166,182.817502 83.7746677,183.121832 83.562,183.3675 C83.3493323,183.613168 83.1036681,183.801999 82.825,183.934 C82.5463319,184.066001 82.2566682,184.132 81.956,184.132 C81.7213322,184.132 81.4866678,184.080667 81.252,183.978 C81.0173322,183.875333 80.7900011,183.728668 80.57,183.538 L80.603,184.44 Z M80.603,182.636 C80.801001,182.804668 80.9916658,182.922 81.175,182.988 C81.3583342,183.054 81.5306659,183.087 81.692,183.087 C82.0513351,183.087 82.3519988,182.931168 82.594,182.6195 C82.8360012,182.307832 82.957,181.844003 82.957,181.228 C82.957,180.685331 82.8653343,180.263668 82.682,179.963 C82.4986658,179.662332 82.2016687,179.512 81.791,179.512 C81.4096648,179.512 81.0136687,179.713665 80.603,180.117 L80.603,182.636 Z M85.179,182.548 C85.179,181.968664 85.4319975,181.521335 85.938,181.206 C86.4440025,180.890665 87.2506611,180.670667 88.358,180.546 C88.358,180.406666 88.3396669,180.272834 88.303,180.1445 C88.2663332,180.016166 88.2095004,179.9025 88.1325,179.8035 C88.0554996,179.7045 87.9565006,179.6275 87.8355,179.5725 C87.7144994,179.5175 87.5623343,179.49 87.379,179.49 C87.1076653,179.49 86.8455013,179.541333 86.5925,179.644 C86.3394987,179.746667 86.0956678,179.871333 85.861,180.018 L85.399,179.171 C85.6996682,178.980332 86.0351648,178.815334 86.4055,178.676 C86.7758352,178.536666 87.1773312,178.467 87.61,178.467 C88.2920034,178.467 88.7979984,178.666831 89.128,179.0665 C89.4580016,179.466169 89.623,180.043663 89.623,180.799 L89.623,184 L88.589,184 L88.49,183.406 L88.457,183.406 C88.2149988,183.611334 87.9565014,183.783666 87.6815,183.923 C87.4064986,184.062334 87.1076683,184.132 86.785,184.132 C86.3083309,184.132 85.9215015,183.987168 85.6245,183.6975 C85.3274985,183.407832 85.179,183.024669 85.179,182.548 Z M86.411,182.449 C86.411,182.691001 86.4824993,182.866999 86.6255,182.977 C86.7685007,183.087001 86.9536655,183.142 87.181,183.142 C87.4010011,183.142 87.6026657,183.090667 87.786,182.988 C87.9693343,182.885333 88.159999,182.738668 88.358,182.548 L88.358,181.338 C87.9913315,181.382 87.6833346,181.440666 87.434,181.514 C87.1846654,181.587334 86.9848341,181.669833 86.8345,181.7615 C86.6841659,181.853167 86.5760003,181.957666 86.51,182.075 C86.4439997,182.192334 86.411,182.316999 86.411,182.449 Z M90.811,181.305 C90.811,180.857664 90.8843326,180.458002 91.031,180.106 C91.1776674,179.753998 91.3756654,179.457001 91.625,179.215 C91.8743346,178.972999 92.162165,178.787834 92.4885,178.6595 C92.814835,178.531166 93.1576649,178.467 93.517,178.467 C93.8690018,178.467 94.1751654,178.527499 94.4355,178.6485 C94.6958346,178.769501 94.9176657,178.917999 95.101,179.094 L94.496,179.897 C94.3493326,179.772333 94.2026674,179.675167 94.056,179.6055 C93.9093326,179.535833 93.7516675,179.501 93.583,179.501 C93.1429978,179.501 92.7873347,179.664165 92.516,179.9905 C92.2446653,180.316835 92.109,180.754997 92.109,181.305 C92.109,181.847669 92.242832,182.282165 92.5105,182.6085 C92.778168,182.934835 93.1246645,183.098 93.55,183.098 C93.7700011,183.098 93.9734991,183.052167 94.1605,182.9605 C94.3475009,182.868833 94.5143326,182.760667 94.661,182.636 L95.189,183.439 C94.9323321,183.666334 94.6500015,183.838666 94.342,183.956 C94.0339985,184.073334 93.7260015,184.132 93.418,184.132 C93.0513315,184.132 92.7085016,184.069667 92.3895,183.945 C92.0704984,183.820333 91.7936678,183.637001 91.559,183.395 C91.3243322,183.152999 91.1410007,182.856002 91.009,182.504 C90.8769993,182.151998 90.811,181.752336 90.811,181.305 Z M95.629,181.305 C95.629,180.864998 95.698666,180.469002 95.838,180.117 C95.977334,179.764998 96.1624988,179.468001 96.3935,179.226 C96.6245012,178.983999 96.8903318,178.797001 97.191,178.665 C97.4916682,178.532999 97.7996651,178.467 98.115,178.467 C98.4816685,178.467 98.8043319,178.529333 99.083,178.654 C99.3616681,178.778667 99.5944991,178.954666 99.7815,179.182 C99.9685009,179.409334 100.109666,179.680665 100.205,179.996 C100.300334,180.311335 100.348,180.655998 100.348,181.03 C100.348,181.279335 100.329667,181.477333 100.293,181.624 L96.861,181.624 C96.919667,182.115336 97.0901653,182.492999 97.3725,182.757 C97.6548347,183.021001 98.0159978,183.153 98.456,183.153 C98.6906678,183.153 98.9088323,183.118167 99.1105,183.0485 C99.3121677,182.978833 99.511999,182.881667 99.71,182.757 L100.139,183.549 C99.8823321,183.717668 99.5963349,183.856999 99.281,183.967 C98.9656651,184.077001 98.6356684,184.132 98.291,184.132 C97.9169981,184.132 97.5686683,184.067834 97.246,183.9395 C96.9233317,183.811166 96.6410012,183.626001 96.399,183.384 C96.1569988,183.141999 95.9681673,182.846835 95.8325,182.4985 C95.6968327,182.150165 95.629,181.752336 95.629,181.305 Z M99.248,180.821 C99.248,180.388331 99.1581676,180.051001 98.9785,179.809 C98.7988324,179.566999 98.5220019,179.446 98.148,179.446 C97.8253317,179.446 97.5430012,179.561499 97.301,179.7925 C97.0589988,180.023501 96.908667,180.366331 96.85,180.821 L99.248,180.821 Z M101.448,179.512 C101.448,179.262665 101.526833,179.057334 101.6845,178.896 C101.842167,178.734666 102.038332,178.654 102.273,178.654 C102.507668,178.654 102.701999,178.734666 102.856,178.896 C103.010001,179.057334 103.087,179.262665 103.087,179.512 C103.087,179.761335 103.010001,179.966666 102.856,180.128 C102.701999,180.289334 102.507668,180.37 102.273,180.37 C102.038332,180.37 101.842167,180.289334 101.6845,180.128 C101.526833,179.966666 101.448,179.761335 101.448,179.512 Z M101.448,183.274 C101.448,183.024665 101.526833,182.819334 101.6845,182.658 C101.842167,182.496666 102.038332,182.416 102.273,182.416 C102.507668,182.416 102.701999,182.496666 102.856,182.658 C103.010001,182.819334 103.087,183.024665 103.087,183.274 C103.087,183.523335 103.010001,183.728666 102.856,183.89 C102.701999,184.051334 102.507668,184.132 102.273,184.132 C102.038332,184.132 101.842167,184.051334 101.6845,183.89 C101.526833,183.728666 101.448,183.523335 101.448,183.274 Z M107.377,179.534 L106.618,179.534 L106.794,178.654 L107.619,178.599 L108.048,177.147 L109.038,177.147 L108.752,178.599 L110.05,178.599 L109.863,179.534 L108.543,179.534 L107.993,182.218 C107.971,182.350001 107.96,182.478333 107.96,182.603 C107.96,182.801001 108.007666,182.9495 108.103,183.0485 C108.198334,183.1475 108.359666,183.197 108.587,183.197 C108.682334,183.197 108.770333,183.182333 108.851,183.153 C108.931667,183.123667 109.012333,183.090667 109.093,183.054 L109.313,183.89 C109.180999,183.948667 109.019668,184.003666 108.829,184.055 C108.638332,184.106334 108.418335,184.132 108.169,184.132 C107.662997,184.132 107.301834,184.005501 107.0855,183.7525 C106.869166,183.499499 106.761,183.186002 106.761,182.812 C106.761,182.701999 106.768333,182.595667 106.783,182.493 C106.797667,182.390333 106.812333,182.284001 106.827,182.174 L107.377,179.534 Z M110.094,182.163 C110.094,181.649664 110.174666,181.167502 110.336,180.7165 C110.497334,180.265498 110.713665,179.873168 110.985,179.5395 C111.256335,179.205832 111.566165,178.943668 111.9145,178.753 C112.262835,178.562332 112.623998,178.467 112.998,178.467 C113.262001,178.467 113.503999,178.534833 113.724,178.6705 C113.944001,178.806167 114.116333,178.991332 114.241,179.226 L114.263,179.226 L114.494,178.599 L115.44,178.599 L114.362,184 L113.394,184 L113.449,183.252 L113.416,183.252 C113.159332,183.516001 112.875168,183.728666 112.5635,183.89 C112.251832,184.051334 111.942002,184.132 111.634,184.132 C111.157331,184.132 110.781501,183.963335 110.5065,183.626 C110.231499,183.288665 110.094,182.801003 110.094,182.163 Z M112.118,183.164 C112.352668,183.164 112.592832,183.094334 112.8385,182.955 C113.084168,182.815666 113.316999,182.581002 113.537,182.251 L113.977,180.095 C113.852333,179.860332 113.711167,179.691667 113.5535,179.589 C113.395833,179.486333 113.232668,179.435 113.064,179.435 C112.836666,179.435 112.616668,179.502833 112.404,179.6385 C112.191332,179.774167 112.004334,179.959332 111.843,180.194 C111.681666,180.428668 111.553334,180.701832 111.458,181.0135 C111.362666,181.325168 111.315,181.653332 111.315,181.998 C111.315,182.394002 111.386499,182.687332 111.5295,182.878 C111.672501,183.068668 111.868665,183.164 112.118,183.164 Z M117.013,178.599 L117.97,178.599 L117.871,179.644 L117.915,179.644 C118.127668,179.306665 118.376999,179.026168 118.663,178.8025 C118.949001,178.578832 119.256998,178.467 119.587,178.467 C119.799668,178.467 119.979333,178.5 120.126,178.566 L119.73,179.6 C119.664,179.563333 119.587,179.5395 119.499,179.5285 C119.411,179.5175 119.319334,179.512 119.224,179.512 C118.967332,179.512 118.714335,179.610999 118.465,179.809 C118.215665,180.007001 117.981001,180.314998 117.761,180.733 L117.123,184 L115.935,184 L117.013,178.599 Z M125.241,178.599 L124.141,184.077 C123.986999,184.83967 123.679002,185.417165 123.217,185.8095 C122.754998,186.201835 122.16467,186.398 121.446,186.398 C121.101332,186.398 120.762168,186.332001 120.4285,186.2 C120.094832,186.067999 119.785001,185.884668 119.499,185.65 L120.027,184.858 C120.232334,185.026668 120.455999,185.167833 120.698,185.2815 C120.940001,185.395167 121.200332,185.452 121.479,185.452 C121.889669,185.452 122.219665,185.332835 122.469,185.0945 C122.718335,184.856165 122.901666,184.520669 123.019,184.088 L123.283,183.087 L123.25,183.087 C122.993332,183.329001 122.723835,183.523333 122.4415,183.67 C122.159165,183.816667 121.856668,183.89 121.534,183.89 C121.079331,183.89 120.703501,183.730502 120.4065,183.4115 C120.109499,183.092498 119.961,182.61767 119.961,181.987 C119.961,181.495664 120.039833,181.037335 120.1975,180.612 C120.355167,180.186665 120.565999,179.814502 120.83,179.4955 C121.094001,179.176498 121.396498,178.925334 121.7375,178.742 C122.078502,178.558666 122.432331,178.467 122.799,178.467 C123.063001,178.467 123.303166,178.534833 123.5195,178.6705 C123.735834,178.806167 123.902666,178.991332 124.02,179.226 L124.053,179.226 L124.284,178.599 L125.241,178.599 Z M121.963,182.911 C122.175668,182.911 122.408499,182.846834 122.6615,182.7185 C122.914501,182.590166 123.147332,182.383001 123.36,182.097 L123.767,180.095 C123.642333,179.860332 123.503001,179.691667 123.349,179.589 C123.194999,179.486333 123.033668,179.435 122.865,179.435 C122.644999,179.435 122.434168,179.499166 122.2325,179.6275 C122.030832,179.755834 121.851167,179.929999 121.6935,180.15 C121.535833,180.370001 121.411167,180.624832 121.3195,180.9145 C121.227833,181.204168 121.182,181.510332 121.182,181.833 C121.182,182.199669 121.253499,182.470999 121.3965,182.647 C121.539501,182.823001 121.728332,182.911 121.963,182.911 Z M125.857,181.844 C125.857,181.337997 125.943166,180.877835 126.1155,180.4635 C126.287834,180.049165 126.515165,179.693501 126.7975,179.3965 C127.079835,179.099499 127.396998,178.870334 127.749,178.709 C128.101002,178.547666 128.452998,178.467 128.805,178.467 C129.120335,178.467 129.386166,178.518333 129.6025,178.621 C129.818834,178.723667 129.994833,178.864832 130.1305,179.0445 C130.266167,179.224168 130.365166,179.434999 130.4275,179.677 C130.489834,179.919001 130.521,180.179332 130.521,180.458 C130.521,180.692668 130.491667,180.919999 130.433,181.14 C130.374333,181.360001 130.326667,181.514 130.29,181.602 L127.001,181.602 C126.971667,181.888001 126.986333,182.133666 127.045,182.339 C127.103667,182.544334 127.193499,182.712999 127.3145,182.845 C127.435501,182.977001 127.583999,183.074166 127.76,183.1365 C127.936001,183.198834 128.126666,183.23 128.332,183.23 C128.522668,183.23 128.716999,183.186 128.915,183.098 C129.113001,183.01 129.285333,182.911001 129.432,182.801 L129.872,183.56 C129.651999,183.714001 129.386168,183.847833 129.0745,183.9615 C128.762832,184.075167 128.412669,184.132 128.024,184.132 C127.701332,184.132 127.408001,184.080667 127.144,183.978 C126.879999,183.875333 126.652668,183.726834 126.462,183.5325 C126.271332,183.338166 126.122834,183.099835 126.0165,182.8175 C125.910166,182.535165 125.857,182.210668 125.857,181.844 Z M129.487,180.854 C129.501667,180.780666 129.5145,180.7055 129.5255,180.6285 C129.5365,180.5515 129.542,180.469 129.542,180.381 C129.542,180.116999 129.477834,179.884168 129.3495,179.6825 C129.221166,179.480832 128.992002,179.38 128.662,179.38 C128.331998,179.38 128.022168,179.510165 127.7325,179.7705 C127.442832,180.030835 127.232001,180.391998 127.1,180.854 L129.487,180.854 Z M132.006,179.534 L131.247,179.534 L131.423,178.654 L132.248,178.599 L132.677,177.147 L133.667,177.147 L133.381,178.599 L134.679,178.599 L134.492,179.534 L133.172,179.534 L132.622,182.218 C132.6,182.350001 132.589,182.478333 132.589,182.603 C132.589,182.801001 132.636666,182.9495 132.732,183.0485 C132.827334,183.1475 132.988666,183.197 133.216,183.197 C133.311334,183.197 133.399333,183.182333 133.48,183.153 C133.560667,183.123667 133.641333,183.090667 133.722,183.054 L133.942,183.89 C133.809999,183.948667 133.648668,184.003666 133.458,184.055 C133.267332,184.106334 133.047335,184.132 132.798,184.132 C132.291997,184.132 131.930834,184.005501 131.7145,183.7525 C131.498166,183.499499 131.39,183.186002 131.39,182.812 C131.39,182.701999 131.397333,182.595667 131.412,182.493 C131.426667,182.390333 131.441333,182.284001 131.456,182.174 L132.006,179.534 Z M134.668,180.788 L137.165,180.788 L136.978,181.657 L134.492,181.657 L134.668,180.788 Z M138.848,178.599 L139.805,178.599 L139.75,179.358 L139.794,179.358 C140.080001,179.115999 140.375165,178.907001 140.6795,178.731 C140.983835,178.554999 141.308332,178.467 141.653,178.467 C142.107669,178.467 142.433999,178.584332 142.632,178.819 C142.830001,179.053668 142.929,179.390998 142.929,179.831 C142.929,179.955667 142.9235,180.076666 142.9125,180.194 C142.9015,180.311334 142.877667,180.443333 142.841,180.59 L142.159,184 L140.982,184 L141.642,180.744 C141.664,180.619333 141.684167,180.513 141.7025,180.425 C141.720833,180.337 141.73,180.252667 141.73,180.172 C141.73,179.709998 141.502669,179.479 141.048,179.479 C140.857332,179.479 140.653834,179.544999 140.4375,179.677 C140.221166,179.809001 139.970001,180.021665 139.684,180.315 L138.958,184 L137.77,184 L138.848,178.599 Z M144.095,182.526 C144.271001,182.760668 144.467166,182.940333 144.6835,183.065 C144.899834,183.189667 145.128999,183.252 145.371,183.252 C145.627668,183.252 145.849499,183.184167 146.0365,183.0485 C146.223501,182.912833 146.317,182.746001 146.317,182.548 C146.317,182.379332 146.240001,182.234501 146.086,182.1135 C145.931999,181.992499 145.686335,181.836668 145.349,181.646 C144.989665,181.447999 144.707334,181.231668 144.502,180.997 C144.296666,180.762332 144.194,180.480002 144.194,180.15 C144.194,179.907999 144.245333,179.682501 144.348,179.4735 C144.450667,179.264499 144.591832,179.086667 144.7715,178.94 C144.951168,178.793333 145.160165,178.677834 145.3985,178.5935 C145.636835,178.509166 145.891665,178.467 146.163,178.467 C146.515002,178.467 146.832165,178.540333 147.1145,178.687 C147.396835,178.833667 147.644332,179.016999 147.857,179.237 L147.197,179.864 C147.057666,179.724666 146.903668,179.6055 146.735,179.5065 C146.566332,179.4075 146.375668,179.358 146.163,179.358 C145.913665,179.358 145.708334,179.423999 145.547,179.556 C145.385666,179.688001 145.305,179.849332 145.305,180.04 C145.305,180.142667 145.330666,180.230666 145.382,180.304 C145.433334,180.377334 145.503,180.447 145.591,180.513 C145.679,180.579 145.777999,180.641333 145.888,180.7 C145.998001,180.758667 146.111666,180.821 146.229,180.887 C146.632335,181.099668 146.932999,181.323332 147.131,181.558 C147.329001,181.792668 147.428,182.074998 147.428,182.405 C147.428,182.669001 147.374834,182.907332 147.2685,183.12 C147.162166,183.332668 147.013668,183.514166 146.823,183.6645 C146.632332,183.814834 146.405001,183.930333 146.141,184.011 C145.876999,184.091667 145.591002,184.132 145.283,184.132 C145.114332,184.132 144.940168,184.106334 144.7605,184.055 C144.580832,184.003666 144.406668,183.934 144.238,183.846 C144.069332,183.758 143.911667,183.649834 143.765,183.5215 C143.618333,183.393166 143.493667,183.252001 143.391,183.098 L144.095,182.526 Z" id="namespace:-target-ns" fill="#872C6C"></path>
            <g id="Group-8" transform="translate(34.000000, 0.000000)">
                <g id="Group-Copy-6">
                    <circle id="Oval-1-Copy-31" fill="#999999" cx="9" cy="9.763" r="9"></circle>
                    <path d="M6.079,5.524 L8.939,5.524 C9.40700234,5.524 9.83816469,5.5673329 10.2325,5.654 C10.6268353,5.7406671 10.9669986,5.88799896 11.253,6.096 C11.5390014,6.30400104 11.7643325,6.57483167 11.929,6.9085 C12.0936675,7.24216834 12.176,7.65599753 12.176,8.15 C12.176,8.61800234 12.0936675,9.0253316 11.929,9.372 C11.7643325,9.7186684 11.5368348,10.0068322 11.2465,10.2365 C10.9561652,10.4661678 10.6138353,10.6351661 10.2195,10.7435 C9.82516469,10.8518339 9.39833563,10.906 8.939,10.906 L7.587,10.906 L7.587,14.026 L6.079,14.026 L6.079,5.524 Z M8.822,9.697 C10.0700062,9.697 10.694,9.18133849 10.694,8.15 C10.694,7.61266398 10.5380016,7.24216769 10.226,7.0385 C9.91399844,6.83483232 9.44600312,6.733 8.822,6.733 L7.587,6.733 L7.587,9.697 L8.822,9.697 Z" id="P-Copy-29" fill="#FFFFFF"></path>
                </g>
                <g id="Group-13" transform="translate(23.000000, 2.000000)">
                    <g id="Rectangle-2">
                        <use fill="#F5F5F5" fill-rule="evenodd" xlink:href="#path-1"></use>
                        <rect stroke="#E5E5E5" stroke-width="1" x="0.5" y="0.5" width="75" height="14" rx="7"></rect>
                    </g>
                    <path d="M6.696,8.988 C6.696,8.3479968 6.98199714,7.8580017 7.554,7.518 C8.12600286,7.1779983 9.03599376,6.94000068 10.284,6.804 C10.284,6.61999908 10.2660002,6.44000088 10.23,6.264 C10.1939998,6.08799912 10.1300005,5.93200068 10.038,5.796 C9.94599954,5.65999932 9.82400076,5.55000042 9.672,5.466 C9.51999924,5.38199958 9.3240012,5.34 9.084,5.34 C8.73999828,5.34 8.42200146,5.40399936 8.13,5.532 C7.83799854,5.66000064 7.57600116,5.8039992 7.344,5.964 L6.948,5.28 C7.22000136,5.10399912 7.55199804,4.93400082 7.944,4.77 C8.33600196,4.60599918 8.76799764,4.524 9.24,4.524 C9.95200356,4.524 10.4679984,4.74199782 10.788,5.178 C11.1080016,5.61400218 11.268,6.19599636 11.268,6.924 L11.268,10.5 L10.452,10.5 L10.368,9.804 L10.344,9.804 C10.0639986,10.0360012 9.76200162,10.2339992 9.438,10.398 C9.11399838,10.5620008 8.7720018,10.644 8.412,10.644 C7.91599752,10.644 7.50600162,10.5000014 7.182,10.212 C6.85799838,9.92399856 6.696,9.51600264 6.696,8.988 Z M7.668,8.916 C7.668,9.25200168 7.76599902,9.49199928 7.962,9.636 C8.15800098,9.78000072 8.39999856,9.852 8.688,9.852 C8.9680014,9.852 9.23399874,9.78600066 9.486,9.654 C9.73800126,9.52199934 10.0039986,9.32800128 10.284,9.072 L10.284,7.452 C9.79599756,7.51600032 9.38400168,7.59199956 9.048,7.68 C8.71199832,7.76800044 8.44200102,7.8719994 8.238,7.992 C8.03399898,8.1120006 7.88800044,8.24999922 7.8,8.406 C7.71199956,8.56200078 7.668,8.73199908 7.668,8.916 Z M14.112,10.992 L14.112,12.96 L13.128,12.96 L13.128,4.668 L13.944,4.668 L14.028,5.34 L14.064,5.34 C14.3280013,5.11599888 14.6179984,4.9240008 14.934,4.764 C15.2500016,4.6039992 15.5799983,4.524 15.924,4.524 C16.3000019,4.524 16.6319986,4.5939993 16.92,4.734 C17.2080014,4.8740007 17.447999,5.0739987 17.64,5.334 C17.832001,5.5940013 17.9779995,5.90599818 18.078,6.27 C18.1780005,6.63400182 18.228,7.04399772 18.228,7.5 C18.228,7.99600248 18.1600007,8.43799806 18.024,8.826 C17.8879993,9.21400194 17.7040012,9.54399864 17.472,9.816 C17.2399988,10.0880014 16.9720015,10.2939993 16.668,10.434 C16.3639985,10.5740007 16.0440017,10.644 15.708,10.644 C15.4359986,10.644 15.1660013,10.5840006 14.898,10.464 C14.6299987,10.3439994 14.3600014,10.180001 14.088,9.972 L14.112,10.992 Z M14.112,9.204 C14.3760013,9.42800112 14.6319988,9.58599954 14.88,9.678 C15.1280012,9.77000046 15.347999,9.816 15.54,9.816 C15.7800012,9.816 16.001999,9.76200054 16.206,9.654 C16.410001,9.54599946 16.5859993,9.39400098 16.734,9.198 C16.8820007,9.00199902 16.9979996,8.76000144 17.082,8.472 C17.1660004,8.18399856 17.208,7.8600018 17.208,7.5 C17.208,7.1799984 17.1800003,6.88800132 17.124,6.624 C17.0679997,6.35999868 16.9780006,6.13400094 16.854,5.946 C16.7299994,5.75799906 16.570001,5.61200052 16.374,5.508 C16.177999,5.40399948 15.9440014,5.352 15.672,5.352 C15.4239988,5.352 15.1740013,5.41999932 14.922,5.556 C14.6699987,5.69200068 14.4000014,5.88799872 14.112,6.144 L14.112,9.204 Z M20.772,10.992 L20.772,12.96 L19.788,12.96 L19.788,4.668 L20.604,4.668 L20.688,5.34 L20.724,5.34 C20.9880013,5.11599888 21.2779984,4.9240008 21.594,4.764 C21.9100016,4.6039992 22.2399983,4.524 22.584,4.524 C22.9600019,4.524 23.2919986,4.5939993 23.58,4.734 C23.8680014,4.8740007 24.107999,5.0739987 24.3,5.334 C24.492001,5.5940013 24.6379995,5.90599818 24.738,6.27 C24.8380005,6.63400182 24.888,7.04399772 24.888,7.5 C24.888,7.99600248 24.8200007,8.43799806 24.684,8.826 C24.5479993,9.21400194 24.3640012,9.54399864 24.132,9.816 C23.8999988,10.0880014 23.6320015,10.2939993 23.328,10.434 C23.0239985,10.5740007 22.7040017,10.644 22.368,10.644 C22.0959986,10.644 21.8260013,10.5840006 21.558,10.464 C21.2899987,10.3439994 21.0200014,10.180001 20.748,9.972 L20.772,10.992 Z M20.772,9.204 C21.0360013,9.42800112 21.2919988,9.58599954 21.54,9.678 C21.7880012,9.77000046 22.007999,9.816 22.2,9.816 C22.4400012,9.816 22.661999,9.76200054 22.866,9.654 C23.070001,9.54599946 23.2459993,9.39400098 23.394,9.198 C23.5420007,9.00199902 23.6579996,8.76000144 23.742,8.472 C23.8260004,8.18399856 23.868,7.8600018 23.868,7.5 C23.868,7.1799984 23.8400003,6.88800132 23.784,6.624 C23.7279997,6.35999868 23.6380006,6.13400094 23.514,5.946 C23.3899994,5.75799906 23.230001,5.61200052 23.034,5.508 C22.837999,5.40399948 22.6040014,5.352 22.332,5.352 C22.0839988,5.352 21.8340013,5.41999932 21.582,5.556 C21.3299987,5.69200068 21.0600014,5.88799872 20.772,6.144 L20.772,9.204 Z M28.368,4.524 L33.888,4.524 L33.888,5.772 L28.368,5.772 L28.368,4.524 Z M28.368,7.296 L33.888,7.296 L33.888,8.544 L28.368,8.544 L28.368,7.296 Z M40.404,2.76 C40.1879989,2.66399952 39.9680011,2.616 39.744,2.616 C39.1999973,2.616 38.928,2.99199624 38.928,3.744 L38.928,4.668 L40.164,4.668 L40.164,5.472 L38.928,5.472 L38.928,10.5 L37.944,10.5 L37.944,5.472 L37.152,5.472 L37.152,4.728 L37.944,4.668 L37.944,3.744 C37.944,3.143997 38.0819986,2.67200172 38.358,2.328 C38.6340014,1.98399828 39.0639971,1.812 39.648,1.812 C39.8320009,1.812 40.0059992,1.82999982 40.17,1.866 C40.3340008,1.90200018 40.4839993,1.94799972 40.62,2.004 L40.404,2.76 Z M40.848,7.596 C40.848,7.10799756 40.9219993,6.6740019 41.07,6.294 C41.2180007,5.9139981 41.4159988,5.59200132 41.664,5.328 C41.9120012,5.06399868 42.1979984,4.86400068 42.522,4.728 C42.8460016,4.59199932 43.1879982,4.524 43.548,4.524 C43.9080018,4.524 44.2499984,4.59199932 44.574,4.728 C44.8980016,4.86400068 45.1839988,5.06399868 45.432,5.328 C45.6800012,5.59200132 45.8779993,5.9139981 46.026,6.294 C46.1740007,6.6740019 46.248,7.10799756 46.248,7.596 C46.248,8.0760024 46.1740007,8.5059981 46.026,8.886 C45.8779993,9.2660019 45.6800012,9.5859987 45.432,9.846 C45.1839988,10.1060013 44.8980016,10.3039993 44.574,10.44 C44.2499984,10.5760007 43.9080018,10.644 43.548,10.644 C43.1879982,10.644 42.8460016,10.5760007 42.522,10.44 C42.1979984,10.3039993 41.9120012,10.1060013 41.664,9.846 C41.4159988,9.5859987 41.2180007,9.2660019 41.07,8.886 C40.9219993,8.5059981 40.848,8.0760024 40.848,7.596 Z M41.868,7.596 C41.868,7.93200168 41.9079996,8.23599864 41.988,8.508 C42.0680004,8.78000136 42.1819993,9.01399902 42.33,9.21 C42.4780007,9.40600098 42.655999,9.55799946 42.864,9.666 C43.072001,9.77400054 43.2999988,9.828 43.548,9.828 C43.7960012,9.828 44.023999,9.77400054 44.232,9.666 C44.440001,9.55799946 44.6179993,9.40600098 44.766,9.21 C44.9140007,9.01399902 45.0279996,8.78000136 45.108,8.508 C45.1880004,8.23599864 45.228,7.93200168 45.228,7.596 C45.228,7.25999832 45.1880004,6.95400138 45.108,6.678 C45.0279996,6.40199862 44.9140007,6.164001 44.766,5.964 C44.6179993,5.763999 44.440001,5.61000054 44.232,5.502 C44.023999,5.39399946 43.7960012,5.34 43.548,5.34 C43.2999988,5.34 43.072001,5.39399946 42.864,5.502 C42.655999,5.61000054 42.4780007,5.763999 42.33,5.964 C42.1819993,6.164001 42.0680004,6.40199862 41.988,6.678 C41.9079996,6.95400138 41.868,7.25999832 41.868,7.596 Z M47.352,7.596 C47.352,7.10799756 47.4259993,6.6740019 47.574,6.294 C47.7220007,5.9139981 47.9199988,5.59200132 48.168,5.328 C48.4160012,5.06399868 48.7019984,4.86400068 49.026,4.728 C49.3500016,4.59199932 49.6919982,4.524 50.052,4.524 C50.4120018,4.524 50.7539984,4.59199932 51.078,4.728 C51.4020016,4.86400068 51.6879988,5.06399868 51.936,5.328 C52.1840012,5.59200132 52.3819993,5.9139981 52.53,6.294 C52.6780007,6.6740019 52.752,7.10799756 52.752,7.596 C52.752,8.0760024 52.6780007,8.5059981 52.53,8.886 C52.3819993,9.2660019 52.1840012,9.5859987 51.936,9.846 C51.6879988,10.1060013 51.4020016,10.3039993 51.078,10.44 C50.7539984,10.5760007 50.4120018,10.644 50.052,10.644 C49.6919982,10.644 49.3500016,10.5760007 49.026,10.44 C48.7019984,10.3039993 48.4160012,10.1060013 48.168,9.846 C47.9199988,9.5859987 47.7220007,9.2660019 47.574,8.886 C47.4259993,8.5059981 47.352,8.0760024 47.352,7.596 Z M48.372,7.596 C48.372,7.93200168 48.4119996,8.23599864 48.492,8.508 C48.5720004,8.78000136 48.6859993,9.01399902 48.834,9.21 C48.9820007,9.40600098 49.159999,9.55799946 49.368,9.666 C49.576001,9.77400054 49.8039988,9.828 50.052,9.828 C50.3000012,9.828 50.527999,9.77400054 50.736,9.666 C50.944001,9.55799946 51.1219993,9.40600098 51.27,9.21 C51.4180007,9.01399902 51.5319996,8.78000136 51.612,8.508 C51.6920004,8.23599864 51.732,7.93200168 51.732,7.596 C51.732,7.25999832 51.6920004,6.95400138 51.612,6.678 C51.5319996,6.40199862 51.4180007,6.164001 51.27,5.964 C51.1219993,5.763999 50.944001,5.61000054 50.736,5.502 C50.527999,5.39399946 50.3000012,5.34 50.052,5.34 C49.8039988,5.34 49.576001,5.39399946 49.368,5.502 C49.159999,5.61000054 48.9820007,5.763999 48.834,5.964 C48.6859993,6.164001 48.5720004,6.40199862 48.492,6.678 C48.4119996,6.95400138 48.372,7.25999832 48.372,7.596 Z M54.288,1.956 L55.272,1.956 L55.272,4.284 L55.248,5.34 C55.5120013,5.10799884 55.7999984,4.91400078 56.112,4.758 C56.4240016,4.60199922 56.7439984,4.524 57.072,4.524 C57.4480019,4.524 57.7799986,4.5939993 58.068,4.734 C58.3560014,4.8740007 58.597999,5.0739987 58.794,5.334 C58.990001,5.5940013 59.1379995,5.90599818 59.238,6.27 C59.3380005,6.63400182 59.388,7.03999776 59.388,7.488 C59.388,7.98400248 59.3200007,8.42799804 59.184,8.82 C59.0479993,9.21200196 58.8640012,9.54399864 58.632,9.816 C58.3999988,10.0880014 58.1320015,10.2939993 57.828,10.434 C57.5239985,10.5740007 57.2040017,10.644 56.868,10.644 C56.5959986,10.644 56.3140015,10.5820006 56.022,10.458 C55.7299985,10.3339994 55.4560013,10.1560012 55.2,9.924 L55.164,9.924 L55.08,10.5 L54.288,10.5 L54.288,1.956 Z M55.272,9.204 C55.5280013,9.42800112 55.7819987,9.58599954 56.034,9.678 C56.2860013,9.77000046 56.507999,9.816 56.7,9.816 C56.9400012,9.816 57.161999,9.76200054 57.366,9.654 C57.570001,9.54599946 57.7459993,9.39400098 57.894,9.198 C58.0420007,9.00199902 58.1579996,8.76000144 58.242,8.472 C58.3260004,8.18399856 58.368,7.8600018 58.368,7.5 C58.368,7.1799984 58.3400003,6.88800132 58.284,6.624 C58.2279997,6.35999868 58.1380006,6.13400094 58.014,5.946 C57.8899994,5.75799906 57.730001,5.61200052 57.534,5.508 C57.337999,5.40399948 57.1040014,5.352 56.832,5.352 C56.3599976,5.352 55.8400028,5.61599736 55.272,6.144 L55.272,9.204 Z M60.66,8.988 C60.66,8.3479968 60.9459971,7.8580017 61.518,7.518 C62.0900029,7.1779983 62.9999938,6.94000068 64.248,6.804 C64.248,6.61999908 64.2300002,6.44000088 64.194,6.264 C64.1579998,6.08799912 64.0940005,5.93200068 64.002,5.796 C63.9099995,5.65999932 63.7880008,5.55000042 63.636,5.466 C63.4839992,5.38199958 63.2880012,5.34 63.048,5.34 C62.7039983,5.34 62.3860015,5.40399936 62.094,5.532 C61.8019985,5.66000064 61.5400012,5.8039992 61.308,5.964 L60.912,5.28 C61.1840014,5.10399912 61.515998,4.93400082 61.908,4.77 C62.300002,4.60599918 62.7319976,4.524 63.204,4.524 C63.9160036,4.524 64.4319984,4.74199782 64.752,5.178 C65.0720016,5.61400218 65.232,6.19599636 65.232,6.924 L65.232,10.5 L64.416,10.5 L64.332,9.804 L64.308,9.804 C64.0279986,10.0360012 63.7260016,10.2339992 63.402,10.398 C63.0779984,10.5620008 62.7360018,10.644 62.376,10.644 C61.8799975,10.644 61.4700016,10.5000014 61.146,10.212 C60.8219984,9.92399856 60.66,9.51600264 60.66,8.988 Z M61.632,8.916 C61.632,9.25200168 61.729999,9.49199928 61.926,9.636 C62.122001,9.78000072 62.3639986,9.852 62.652,9.852 C62.9320014,9.852 63.1979987,9.78600066 63.45,9.654 C63.7020013,9.52199934 63.9679986,9.32800128 64.248,9.072 L64.248,7.452 C63.7599976,7.51600032 63.3480017,7.59199956 63.012,7.68 C62.6759983,7.76800044 62.406001,7.8719994 62.202,7.992 C61.997999,8.1120006 61.8520004,8.24999922 61.764,8.406 C61.6759996,8.56200078 61.632,8.73199908 61.632,8.916 Z M67.092,4.668 L67.908,4.668 L67.992,5.724 L68.028,5.724 C68.228001,5.35599816 68.4699986,5.06400108 68.754,4.848 C69.0380014,4.63199892 69.3479983,4.524 69.684,4.524 C69.9160012,4.524 70.1239991,4.5639996 70.308,4.644 L70.116,5.508 C70.0199995,5.47599984 69.9320004,5.45200008 69.852,5.436 C69.7719996,5.41999992 69.6720006,5.412 69.552,5.412 C69.3039988,5.412 69.0460013,5.511999 68.778,5.712 C68.5099987,5.912001 68.276001,6.25999752 68.076,6.756 L68.076,10.5 L67.092,10.5 L67.092,4.668 Z" id="app-=-foobar" fill="#999999"></path>
                </g>
            </g>
            <g id="Group-27" transform="translate(71.500000, 111.500000) scale(1, -1) translate(-71.500000, -111.500000) translate(69.000000, 90.000000)" fill-rule="nonzero" fill="#2FC98E">
                <path d="M3.25,37 L3.25,0.25 L1.75,0.25 L1.75,37 L0.5,37 L2.5,43 L4.5,37 L3.25,37 Z" id="Combined-Shape"></path>
            </g>
            <g id="Group-8" transform="translate(34.000000, 135.000000)">
                <g id="Group-Copy-6">
                    <circle id="Oval-1-Copy-31" fill="#999999" cx="9" cy="9.763" r="9"></circle>
                    <path d="M6.079,5.524 L8.939,5.524 C9.40700234,5.524 9.83816469,5.5673329 10.2325,5.654 C10.6268353,5.7406671 10.9669986,5.88799896 11.253,6.096 C11.5390014,6.30400104 11.7643325,6.57483167 11.929,6.9085 C12.0936675,7.24216834 12.176,7.65599753 12.176,8.15 C12.176,8.61800234 12.0936675,9.0253316 11.929,9.372 C11.7643325,9.7186684 11.5368348,10.0068322 11.2465,10.2365 C10.9561652,10.4661678 10.6138353,10.6351661 10.2195,10.7435 C9.82516469,10.8518339 9.39833563,10.906 8.939,10.906 L7.587,10.906 L7.587,14.026 L6.079,14.026 L6.079,5.524 Z M8.822,9.697 C10.0700062,9.697 10.694,9.18133849 10.694,8.15 C10.694,7.61266398 10.5380016,7.24216769 10.226,7.0385 C9.91399844,6.83483232 9.44600312,6.733 8.822,6.733 L7.587,6.733 L7.587,9.697 L8.822,9.697 Z" id="P-Copy-29" fill="#FFFFFF"></path>
                </g>
                <g id="Group-13" transform="translate(23.000000, 2.000000)">
                    <g id="Rectangle-2">
                        <use fill="#F5F5F5" fill-rule="evenodd" xlink:href="#path-2"></use>
                        <rect stroke="#E5E5E5" stroke-width="1" x="0.5" y="0.5" width="64" height="14" rx="7"></rect>
                    </g>
                    <path d="M6.624,8.916 C6.624,8.28399684 6.89999724,7.79600172 7.452,7.452 C8.00400276,7.10799828 8.88399396,6.86800068 10.092,6.732 C10.092,6.57999924 10.0720002,6.4340007 10.032,6.294 C9.9919998,6.1539993 9.93000042,6.03000054 9.846,5.922 C9.76199958,5.81399946 9.65400066,5.7300003 9.522,5.67 C9.38999934,5.6099997 9.224001,5.58 9.024,5.58 C8.72799852,5.58 8.44200138,5.63599944 8.166,5.748 C7.88999862,5.86000056 7.62400128,5.9959992 7.368,6.156 L6.864,5.232 C7.19200164,5.02399896 7.55799798,4.84400076 7.962,4.692 C8.36600202,4.53999924 8.80399764,4.464 9.276,4.464 C10.0200037,4.464 10.5719982,4.68199782 10.932,5.118 C11.2920018,5.55400218 11.472,6.18399588 11.472,7.008 L11.472,10.5 L10.344,10.5 L10.236,9.852 L10.2,9.852 C9.93599868,10.0760011 9.6540015,10.2639992 9.354,10.416 C9.0539985,10.5680008 8.72800176,10.644 8.376,10.644 C7.8559974,10.644 7.43400162,10.4860016 7.11,10.17 C6.78599838,9.85399842 6.624,9.4360026 6.624,8.916 Z M7.968,8.808 C7.968,9.07200132 8.04599922,9.2639994 8.202,9.384 C8.35800078,9.5040006 8.55999876,9.564 8.808,9.564 C9.0480012,9.564 9.267999,9.50800056 9.468,9.396 C9.668001,9.28399944 9.87599892,9.12400104 10.092,8.916 L10.092,7.596 C9.691998,7.64400024 9.35600136,7.7079996 9.084,7.788 C8.81199864,7.8680004 8.59400082,7.9579995 8.43,8.058 C8.26599918,8.1580005 8.14800036,8.27199936 8.076,8.4 C8.00399964,8.52800064 7.968,8.66399928 7.968,8.808 Z M14.532,10.98 L14.532,12.828 L13.152,12.828 L13.152,4.608 L14.292,4.608 L14.388,5.232 L14.436,5.232 C14.6840012,5.02399896 14.9599985,4.84400076 15.264,4.692 C15.5680015,4.53999924 15.8839984,4.464 16.212,4.464 C16.5800018,4.464 16.9059986,4.5339993 17.19,4.674 C17.4740014,4.8140007 17.715999,5.01599868 17.916,5.28 C18.116001,5.54400132 18.2679995,5.85999816 18.372,6.228 C18.4760005,6.59600184 18.528,7.00799772 18.528,7.464 C18.528,7.96800252 18.4580007,8.41799802 18.318,8.814 C18.1779993,9.21000198 17.9920012,9.54199866 17.76,9.81 C17.5279988,10.0780013 17.2600015,10.2839993 16.956,10.428 C16.6519985,10.5720007 16.3360016,10.644 16.008,10.644 C15.7519987,10.644 15.4960013,10.5880006 15.24,10.476 C14.9839987,10.3639994 14.7360012,10.204001 14.496,9.996 L14.532,10.98 Z M14.532,9.012 C14.7480011,9.19600092 14.955999,9.32399964 15.156,9.396 C15.356001,9.46800036 15.5439991,9.504 15.72,9.504 C16.112002,9.504 16.4399987,9.3340017 16.704,8.994 C16.9680013,8.6539983 17.1,8.14800336 17.1,7.476 C17.1,6.88399704 17.000001,6.42400164 16.8,6.096 C16.599999,5.76799836 16.2760022,5.604 15.828,5.604 C15.4119979,5.604 14.9800022,5.8239978 14.532,6.264 L14.532,9.012 Z M21.3,10.98 L21.3,12.828 L19.92,12.828 L19.92,4.608 L21.06,4.608 L21.156,5.232 L21.204,5.232 C21.4520012,5.02399896 21.7279985,4.84400076 22.032,4.692 C22.3360015,4.53999924 22.6519984,4.464 22.98,4.464 C23.3480018,4.464 23.6739986,4.5339993 23.958,4.674 C24.2420014,4.8140007 24.483999,5.01599868 24.684,5.28 C24.884001,5.54400132 25.0359995,5.85999816 25.14,6.228 C25.2440005,6.59600184 25.296,7.00799772 25.296,7.464 C25.296,7.96800252 25.2260007,8.41799802 25.086,8.814 C24.9459993,9.21000198 24.7600012,9.54199866 24.528,9.81 C24.2959988,10.0780013 24.0280015,10.2839993 23.724,10.428 C23.4199985,10.5720007 23.1040016,10.644 22.776,10.644 C22.5199987,10.644 22.2640013,10.5880006 22.008,10.476 C21.7519987,10.3639994 21.5040012,10.204001 21.264,9.996 L21.3,10.98 Z M21.3,9.012 C21.5160011,9.19600092 21.723999,9.32399964 21.924,9.396 C22.124001,9.46800036 22.3119991,9.504 22.488,9.504 C22.880002,9.504 23.2079987,9.3340017 23.472,8.994 C23.7360013,8.6539983 23.868,8.14800336 23.868,7.476 C23.868,6.88399704 23.768001,6.42400164 23.568,6.096 C23.367999,5.76799836 23.0440022,5.604 22.596,5.604 C22.1799979,5.604 21.7480022,5.8239978 21.3,6.264 L21.3,9.012 Z M28.68,4.692 L34.02,4.692 L34.02,5.7 L28.68,5.7 L28.68,4.692 Z M28.68,7.368 L34.02,7.368 L34.02,8.376 L28.68,8.376 L28.68,7.368 Z M37.764,4.608 L38.904,4.608 L39,5.412 L39.048,5.412 C39.2960012,5.14799868 39.5659985,4.92400092 39.858,4.74 C40.1500015,4.55599908 40.4799982,4.464 40.848,4.464 C41.2800022,4.464 41.6259987,4.55599908 41.886,4.74 C42.1460013,4.92400092 42.3439993,5.18399832 42.48,5.52 C42.7600014,5.21599848 43.0519985,4.964001 43.356,4.764 C43.6600015,4.563999 43.9999981,4.464 44.376,4.464 C45.0000031,4.464 45.4599985,4.66599798 45.756,5.07 C46.0520015,5.47400202 46.2,6.05199624 46.2,6.804 L46.2,10.5 L44.808,10.5 L44.808,6.984 C44.808,6.49599756 44.7340007,6.152001 44.586,5.952 C44.4379993,5.751999 44.2120015,5.652 43.908,5.652 C43.5399982,5.652 43.1280023,5.89599756 42.672,6.384 L42.672,10.5 L41.292,10.5 L41.292,6.984 C41.292,6.49599756 41.2180007,6.152001 41.07,5.952 C40.9219993,5.751999 40.6920016,5.652 40.38,5.652 C40.0119982,5.652 39.6000023,5.89599756 39.144,6.384 L39.144,10.5 L37.764,10.5 L37.764,4.608 Z M47.628,8.916 C47.628,8.28399684 47.9039972,7.79600172 48.456,7.452 C49.0080028,7.10799828 49.887994,6.86800068 51.096,6.732 C51.096,6.57999924 51.0760002,6.4340007 51.036,6.294 C50.9959998,6.1539993 50.9340004,6.03000054 50.85,5.922 C50.7659996,5.81399946 50.6580007,5.7300003 50.526,5.67 C50.3939993,5.6099997 50.228001,5.58 50.028,5.58 C49.7319985,5.58 49.4460014,5.63599944 49.17,5.748 C48.8939986,5.86000056 48.6280013,5.9959992 48.372,6.156 L47.868,5.232 C48.1960016,5.02399896 48.561998,4.84400076 48.966,4.692 C49.370002,4.53999924 49.8079976,4.464 50.28,4.464 C51.0240037,4.464 51.5759982,4.68199782 51.936,5.118 C52.2960018,5.55400218 52.476,6.18399588 52.476,7.008 L52.476,10.5 L51.348,10.5 L51.24,9.852 L51.204,9.852 C50.9399987,10.0760011 50.6580015,10.2639992 50.358,10.416 C50.0579985,10.5680008 49.7320018,10.644 49.38,10.644 C48.8599974,10.644 48.4380016,10.4860016 48.114,10.17 C47.7899984,9.85399842 47.628,9.4360026 47.628,8.916 Z M48.972,8.808 C48.972,9.07200132 49.0499992,9.2639994 49.206,9.384 C49.3620008,9.5040006 49.5639988,9.564 49.812,9.564 C50.0520012,9.564 50.271999,9.50800056 50.472,9.396 C50.672001,9.28399944 50.8799989,9.12400104 51.096,8.916 L51.096,7.596 C50.695998,7.64400024 50.3600014,7.7079996 50.088,7.788 C49.8159986,7.8680004 49.5980008,7.9579995 49.434,8.058 C49.2699992,8.1580005 49.1520004,8.27199936 49.08,8.4 C49.0079996,8.52800064 48.972,8.66399928 48.972,8.808 Z M54.852,3.576 C54.6039988,3.576 54.4000008,3.50400072 54.24,3.36 C54.0799992,3.21599928 54,3.02800116 54,2.796 C54,2.56399884 54.0799992,2.37400074 54.24,2.226 C54.4000008,2.07799926 54.6039988,2.004 54.852,2.004 C55.1000012,2.004 55.3039992,2.07799926 55.464,2.226 C55.6240008,2.37400074 55.704,2.56399884 55.704,2.796 C55.704,3.02800116 55.6240008,3.21599928 55.464,3.36 C55.3039992,3.50400072 55.1000012,3.576 54.852,3.576 Z M54.156,4.608 L55.536,4.608 L55.536,10.5 L54.156,10.5 L54.156,4.608 Z M57.3,2.028 L58.68,2.028 L58.68,9.06 C58.68,9.22800084 58.7119997,9.34599966 58.776,9.414 C58.8400003,9.48200034 58.9079996,9.516 58.98,9.516 L59.07,9.516 C59.0980001,9.516 59.1399997,9.50800008 59.196,9.492 L59.376,10.524 C59.1919991,10.6040004 58.9480015,10.644 58.644,10.644 C58.1479975,10.644 57.800001,10.4960015 57.6,10.2 C57.399999,9.90399852 57.3,9.50000256 57.3,8.988 L57.3,2.028 Z" id="app-=-mail" fill="#333333"></path>
                </g>
            </g>
            <g id="Group-3" transform="translate(34.000000, 68.000000)">
                <g id="Group-Copy-6">
                    <circle id="Oval-1-Copy-31" fill="#30C2B6" cx="9" cy="9.763" r="9"></circle>
                    <path d="M6.079,5.524 L8.939,5.524 C9.40700234,5.524 9.83816469,5.5673329 10.2325,5.654 C10.6268353,5.7406671 10.9669986,5.88799896 11.253,6.096 C11.5390014,6.30400104 11.7643325,6.57483167 11.929,6.9085 C12.0936675,7.24216834 12.176,7.65599753 12.176,8.15 C12.176,8.61800234 12.0936675,9.0253316 11.929,9.372 C11.7643325,9.7186684 11.5368348,10.0068322 11.2465,10.2365 C10.9561652,10.4661678 10.6138353,10.6351661 10.2195,10.7435 C9.82516469,10.8518339 9.39833563,10.906 8.939,10.906 L7.587,10.906 L7.587,14.026 L6.079,14.026 L6.079,5.524 Z M8.822,9.697 C10.0700062,9.697 10.694,9.18133849 10.694,8.15 C10.694,7.61266398 10.5380016,7.24216769 10.226,7.0385 C9.91399844,6.83483232 9.44600312,6.733 8.822,6.733 L7.587,6.733 L7.587,9.697 L8.822,9.697 Z" id="P-Copy-29" fill="#FFFFFF"></path>
                </g>
                <g id="Group-13" transform="translate(23.000000, 2.000000)">
                    <g id="Rectangle-2">
                        <use fill="#F5F5F5" fill-rule="evenodd" xlink:href="#path-3"></use>
                        <rect stroke="#E5E5E5" stroke-width="1" x="0.5" y="0.5" width="55" height="14" rx="7"></rect>
                    </g>
                    <path d="M6.876,5.608 L8.016,5.608 L8.112,6.652 L8.16,6.652 C8.36800104,6.26799808 8.61999852,5.97400102 8.916,5.77 C9.21200148,5.56599898 9.51599844,5.464 9.828,5.464 C10.1080014,5.464 10.3319992,5.5039996 10.5,5.584 L10.26,6.784 C10.1559995,6.75199984 10.0600004,6.72800008 9.972,6.712 C9.88399956,6.69599992 9.77600064,6.688 9.648,6.688 C9.41599884,6.688 9.17200128,6.7779991 8.916,6.958 C8.65999872,7.1380009 8.44000092,7.45199776 8.256,7.9 L8.256,11.5 L6.876,11.5 L6.876,5.608 Z M10.968,8.56 C10.968,8.07199756 11.0439992,7.63600192 11.196,7.252 C11.3480008,6.86799808 11.5539987,6.54400132 11.814,6.28 C12.0740013,6.01599868 12.3719983,5.8140007 12.708,5.674 C13.0440017,5.5339993 13.3959982,5.464 13.764,5.464 C14.1320018,5.464 14.4859983,5.5339993 14.826,5.674 C15.1660017,5.8140007 15.4639987,6.01599868 15.72,6.28 C15.9760013,6.54400132 16.1819992,6.86799808 16.338,7.252 C16.4940008,7.63600192 16.572,8.07199756 16.572,8.56 C16.572,9.04800244 16.4940008,9.48399808 16.338,9.868 C16.1819992,10.2520019 15.9760013,10.5759987 15.72,10.84 C15.4639987,11.1040013 15.1660017,11.3039993 14.826,11.44 C14.4859983,11.5760007 14.1320018,11.644 13.764,11.644 C13.3959982,11.644 13.0440017,11.5760007 12.708,11.44 C12.3719983,11.3039993 12.0740013,11.1040013 11.814,10.84 C11.5539987,10.5759987 11.3480008,10.2520019 11.196,9.868 C11.0439992,9.48399808 10.968,9.04800244 10.968,8.56 Z M12.384,8.56 C12.384,9.15200296 12.5059988,9.62599822 12.75,9.982 C12.9940012,10.3380018 13.3319978,10.516 13.764,10.516 C14.1960022,10.516 14.5359988,10.3380018 14.784,9.982 C15.0320012,9.62599822 15.156,9.15200296 15.156,8.56 C15.156,7.959997 15.0320012,7.48200178 14.784,7.126 C14.5359988,6.76999822 14.1960022,6.592 13.764,6.592 C13.3319978,6.592 12.9940012,6.76999822 12.75,7.126 C12.5059988,7.48200178 12.384,7.959997 12.384,8.56 Z M17.94,3.028 L19.32,3.028 L19.32,10.06 C19.32,10.2280008 19.3519997,10.3459997 19.416,10.414 C19.4800003,10.4820003 19.5479996,10.516 19.62,10.516 L19.71,10.516 C19.7380001,10.516 19.7799997,10.5080001 19.836,10.492 L20.016,11.524 C19.8319991,11.6040004 19.5880015,11.644 19.284,11.644 C18.7879975,11.644 18.440001,11.4960015 18.24,11.2 C18.039999,10.9039985 17.94,10.5000026 17.94,9.988 L17.94,3.028 Z M20.808,8.56 C20.808,8.0799976 20.8839992,7.64800192 21.036,7.264 C21.1880008,6.87999808 21.3899987,6.55600132 21.642,6.292 C21.8940013,6.02799868 22.1839984,5.82400072 22.512,5.68 C22.8400016,5.53599928 23.1759983,5.464 23.52,5.464 C23.920002,5.464 24.2719985,5.53199932 24.576,5.668 C24.8800015,5.80400068 25.133999,5.99599876 25.338,6.244 C25.542001,6.49200124 25.6959995,6.78799828 25.8,7.132 C25.9040005,7.47600172 25.956,7.85199796 25.956,8.26 C25.956,8.53200136 25.9360002,8.7479992 25.896,8.908 L22.152,8.908 C22.2160003,9.44400268 22.4019985,9.85599856 22.71,10.144 C23.0180015,10.4320014 23.4119976,10.576 23.892,10.576 C24.1480013,10.576 24.3859989,10.5380004 24.606,10.462 C24.8260011,10.3859996 25.0439989,10.2800007 25.26,10.144 L25.728,11.008 C25.4479986,11.1920009 25.1360017,11.3439994 24.792,11.464 C24.4479983,11.5840006 24.0880019,11.644 23.712,11.644 C23.303998,11.644 22.9240018,11.5740007 22.572,11.434 C22.2199982,11.2939993 21.9120013,11.0920013 21.648,10.828 C21.3839987,10.5639987 21.1780007,10.2420019 21.03,9.862 C20.8819993,9.4819981 20.808,9.04800244 20.808,8.56 Z M24.756,8.032 C24.756,7.55999764 24.658001,7.19200132 24.462,6.928 C24.265999,6.66399868 23.964002,6.532 23.556,6.532 C23.2039982,6.532 22.8960013,6.65799874 22.632,6.91 C22.3679987,7.16200126 22.2040003,7.53599752 22.14,8.032 L24.756,8.032 Z M29.268,5.692 L34.608,5.692 L34.608,6.7 L29.268,6.7 L29.268,5.692 Z M29.268,8.368 L34.608,8.368 L34.608,9.376 L29.268,9.376 L29.268,8.368 Z M37.992,8.56 C37.992,8.0799976 38.0619993,7.64800192 38.202,7.264 C38.3420007,6.87999808 38.5279988,6.55600132 38.76,6.292 C38.9920012,6.02799868 39.2579985,5.82400072 39.558,5.68 C39.8580015,5.53599928 40.1679984,5.464 40.488,5.464 C40.8240017,5.464 41.1079988,5.52199942 41.34,5.638 C41.5720012,5.75400058 41.8039988,5.911999 42.036,6.112 L41.988,5.164 L41.988,3.028 L43.368,3.028 L43.368,11.5 L42.228,11.5 L42.132,10.864 L42.084,10.864 C41.8679989,11.0800011 41.6160014,11.2639992 41.328,11.416 C41.0399986,11.5680008 40.7360016,11.644 40.416,11.644 C39.6719963,11.644 39.0820022,11.3740027 38.646,10.834 C38.2099978,10.2939973 37.992,9.53600488 37.992,8.56 Z M39.42,8.548 C39.42,9.1880032 39.5339989,9.67399834 39.762,10.006 C39.9900011,10.3380017 40.3199978,10.504 40.752,10.504 C41.1920022,10.504 41.6039981,10.2840022 41.988,9.844 L41.988,7.096 C41.779999,6.91199908 41.578001,6.78400036 41.382,6.712 C41.185999,6.63999964 40.988001,6.604 40.788,6.604 C40.4039981,6.604 40.0800013,6.77199832 39.816,7.108 C39.5519987,7.44400168 39.42,7.92399688 39.42,8.548 Z M45.12,3.028 L46.5,3.028 L46.5,5.212 L46.464,6.196 C46.7120012,5.97999892 46.9819985,5.80400068 47.274,5.668 C47.5660015,5.53199932 47.8639985,5.464 48.168,5.464 C48.5360018,5.464 48.8639986,5.5339993 49.152,5.674 C49.4400014,5.8140007 49.683999,6.0139987 49.884,6.274 C50.084001,6.5340013 50.2359995,6.84799816 50.34,7.216 C50.4440005,7.58400184 50.496,7.99599772 50.496,8.452 C50.496,8.95600252 50.4260007,9.40599802 50.286,9.802 C50.1459993,10.198002 49.9600012,10.5319986 49.728,10.804 C49.4959988,11.0760014 49.2280015,11.2839993 48.924,11.428 C48.6199985,11.5720007 48.3040016,11.644 47.976,11.644 C47.7039986,11.644 47.4300014,11.5800006 47.154,11.452 C46.8779986,11.3239994 46.6160012,11.1400012 46.368,10.9 L46.332,10.9 L46.212,11.5 L45.12,11.5 L45.12,3.028 Z M46.5,10.012 C46.708001,10.1960009 46.913999,10.3239996 47.118,10.396 C47.322001,10.4680004 47.5119991,10.504 47.688,10.504 C48.080002,10.504 48.4079987,10.3340017 48.672,9.994 C48.9360013,9.6539983 49.068,9.14800336 49.068,8.476 C49.068,7.88399704 48.968001,7.42400164 48.768,7.096 C48.567999,6.76799836 48.2440022,6.604 47.796,6.604 C47.3799979,6.604 46.9480022,6.8239978 46.5,7.264 L46.5,10.012 Z" id="role-=-db" fill="#30C2B6"></path>
                </g>
            </g>
            <path d="M163,0 L163,187" id="Line-2" stroke="#CCCCCC" stroke-width="0.5" stroke-linecap="square"></path>
            <path d="M178.451,181.305 C178.451,180.857664 178.520666,180.458002 178.66,180.106 C178.799334,179.753998 178.988165,179.457001 179.2265,179.215 C179.464835,178.972999 179.737998,178.787834 180.046,178.6595 C180.354002,178.531166 180.676665,178.467 181.014,178.467 C181.351335,178.467 181.675832,178.531166 181.9875,178.6595 C182.299168,178.787834 182.572332,178.972999 182.807,179.215 C183.041668,179.457001 183.230499,179.753998 183.3735,180.106 C183.516501,180.458002 183.588,180.857664 183.588,181.305 C183.588,181.752336 183.516501,182.151998 183.3735,182.504 C183.230499,182.856002 183.041668,183.152999 182.807,183.395 C182.572332,183.637001 182.299168,183.820333 181.9875,183.945 C181.675832,184.069667 181.351335,184.132 181.014,184.132 C180.676665,184.132 180.354002,184.069667 180.046,183.945 C179.737998,183.820333 179.464835,183.637001 179.2265,183.395 C178.988165,183.152999 178.799334,182.856002 178.66,182.504 C178.520666,182.151998 178.451,181.752336 178.451,181.305 Z M179.749,181.305 C179.749,181.847669 179.860832,182.282165 180.0845,182.6085 C180.308168,182.934835 180.617998,183.098 181.014,183.098 C181.410002,183.098 181.721666,182.934835 181.949,182.6085 C182.176334,182.282165 182.29,181.847669 182.29,181.305 C182.29,180.754997 182.176334,180.316835 181.949,179.9905 C181.721666,179.664165 181.410002,179.501 181.014,179.501 C180.617998,179.501 180.308168,179.664165 180.0845,179.9905 C179.860832,180.316835 179.749,180.754997 179.749,181.305 Z M185.029,179.6 L184.259,179.6 L184.259,178.654 L185.095,178.599 L185.249,177.125 L186.305,177.125 L186.305,178.599 L187.68,178.599 L187.68,179.6 L186.305,179.6 L186.305,182.174 C186.305,182.80467 186.557997,183.12 187.064,183.12 C187.159334,183.12 187.2565,183.109 187.3555,183.087 C187.4545,183.065 187.544333,183.035667 187.625,182.999 L187.845,183.934 C187.698333,183.985334 187.531501,184.031166 187.3445,184.0715 C187.157499,184.111834 186.957668,184.132 186.745,184.132 C186.429665,184.132 186.163834,184.084334 185.9475,183.989 C185.731166,183.893666 185.555167,183.759834 185.4195,183.5875 C185.283833,183.415166 185.184834,183.209835 185.1225,182.9715 C185.060166,182.733165 185.029,182.467335 185.029,182.174 L185.029,179.6 Z M188.813,176.234 L190.078,176.234 L190.078,178.236 L190.034,179.281 C190.261334,179.068332 190.512499,178.879501 190.7875,178.7145 C191.062501,178.549499 191.386998,178.467 191.761,178.467 C192.340336,178.467 192.761999,178.652165 193.026,179.0225 C193.290001,179.392835 193.422,179.922663 193.422,180.612 L193.422,184 L192.157,184 L192.157,180.777 C192.157,180.329664 192.091001,180.014334 191.959,179.831 C191.826999,179.647666 191.610668,179.556 191.31,179.556 C191.075332,179.556 190.868168,179.612833 190.6885,179.7265 C190.508832,179.840167 190.305334,180.006999 190.078,180.227 L190.078,184 L188.813,184 L188.813,176.234 Z M194.599,181.305 C194.599,180.864998 194.668666,180.469002 194.808,180.117 C194.947334,179.764998 195.132499,179.468001 195.3635,179.226 C195.594501,178.983999 195.860332,178.797001 196.161,178.665 C196.461668,178.532999 196.769665,178.467 197.085,178.467 C197.451669,178.467 197.774332,178.529333 198.053,178.654 C198.331668,178.778667 198.564499,178.954666 198.7515,179.182 C198.938501,179.409334 199.079666,179.680665 199.175,179.996 C199.270334,180.311335 199.318,180.655998 199.318,181.03 C199.318,181.279335 199.299667,181.477333 199.263,181.624 L195.831,181.624 C195.889667,182.115336 196.060165,182.492999 196.3425,182.757 C196.624835,183.021001 196.985998,183.153 197.426,183.153 C197.660668,183.153 197.878832,183.118167 198.0805,183.0485 C198.282168,182.978833 198.481999,182.881667 198.68,182.757 L199.109,183.549 C198.852332,183.717668 198.566335,183.856999 198.251,183.967 C197.935665,184.077001 197.605668,184.132 197.261,184.132 C196.886998,184.132 196.538668,184.067834 196.216,183.9395 C195.893332,183.811166 195.611001,183.626001 195.369,183.384 C195.126999,183.141999 194.938167,182.846835 194.8025,182.4985 C194.666833,182.150165 194.599,181.752336 194.599,181.305 Z M198.218,180.821 C198.218,180.388331 198.128168,180.051001 197.9485,179.809 C197.768832,179.566999 197.492002,179.446 197.118,179.446 C196.795332,179.446 196.513001,179.561499 196.271,179.7925 C196.028999,180.023501 195.878667,180.366331 195.82,180.821 L198.218,180.821 Z M200.528,178.599 L201.573,178.599 L201.661,179.556 L201.705,179.556 C201.895668,179.203998 202.126665,178.934501 202.398,178.7475 C202.669335,178.560499 202.947999,178.467 203.234,178.467 C203.490668,178.467 203.695999,178.503666 203.85,178.577 L203.63,179.677 C203.534666,179.647667 203.446667,179.625667 203.366,179.611 C203.285333,179.596333 203.186334,179.589 203.069,179.589 C202.856332,179.589 202.632668,179.671499 202.398,179.8365 C202.163332,180.001501 201.961668,180.289331 201.793,180.7 L201.793,184 L200.528,184 L200.528,178.599 Z M206.886,178.599 L207.931,178.599 L208.019,179.325 L208.063,179.325 C208.305001,179.090332 208.567165,178.888668 208.8495,178.72 C209.131835,178.551332 209.459998,178.467 209.834,178.467 C210.413336,178.467 210.834999,178.652165 211.099,179.0225 C211.363001,179.392835 211.495,179.922663 211.495,180.612 L211.495,184 L210.23,184 L210.23,180.777 C210.23,180.329664 210.164001,180.014334 210.032,179.831 C209.899999,179.647666 209.683668,179.556 209.383,179.556 C209.148332,179.556 208.941168,179.612833 208.7615,179.7265 C208.581832,179.840167 208.378334,180.006999 208.151,180.227 L208.151,184 L206.886,184 L206.886,178.599 Z M212.815,182.548 C212.815,181.968664 213.067997,181.521335 213.574,181.206 C214.080003,180.890665 214.886661,180.670667 215.994,180.546 C215.994,180.406666 215.975667,180.272834 215.939,180.1445 C215.902333,180.016166 215.8455,179.9025 215.7685,179.8035 C215.6915,179.7045 215.592501,179.6275 215.4715,179.5725 C215.350499,179.5175 215.198334,179.49 215.015,179.49 C214.743665,179.49 214.481501,179.541333 214.2285,179.644 C213.975499,179.746667 213.731668,179.871333 213.497,180.018 L213.035,179.171 C213.335668,178.980332 213.671165,178.815334 214.0415,178.676 C214.411835,178.536666 214.813331,178.467 215.246,178.467 C215.928003,178.467 216.433998,178.666831 216.764,179.0665 C217.094002,179.466169 217.259,180.043663 217.259,180.799 L217.259,184 L216.225,184 L216.126,183.406 L216.093,183.406 C215.850999,183.611334 215.592501,183.783666 215.3175,183.923 C215.042499,184.062334 214.743668,184.132 214.421,184.132 C213.944331,184.132 213.557501,183.987168 213.2605,183.6975 C212.963499,183.407832 212.815,183.024669 212.815,182.548 Z M214.047,182.449 C214.047,182.691001 214.118499,182.866999 214.2615,182.977 C214.404501,183.087001 214.589666,183.142 214.817,183.142 C215.037001,183.142 215.238666,183.090667 215.422,182.988 C215.605334,182.885333 215.795999,182.738668 215.994,182.548 L215.994,181.338 C215.627331,181.382 215.319335,181.440666 215.07,181.514 C214.820665,181.587334 214.620834,181.669833 214.4705,181.7615 C214.320166,181.853167 214.212,181.957666 214.146,182.075 C214.08,182.192334 214.047,182.316999 214.047,182.449 Z M218.799,178.599 L219.844,178.599 L219.932,179.336 L219.976,179.336 C220.203334,179.093999 220.450832,178.888668 220.7185,178.72 C220.986168,178.551332 221.288665,178.467 221.626,178.467 C222.022002,178.467 222.339165,178.551332 222.5775,178.72 C222.815835,178.888668 222.997333,179.126998 223.122,179.435 C223.378668,179.156332 223.646332,178.925334 223.925,178.742 C224.203668,178.558666 224.515332,178.467 224.86,178.467 C225.432003,178.467 225.853665,178.652165 226.125,179.0225 C226.396335,179.392835 226.532,179.922663 226.532,180.612 L226.532,184 L225.256,184 L225.256,180.777 C225.256,180.329664 225.188167,180.014334 225.0525,179.831 C224.916833,179.647666 224.709668,179.556 224.431,179.556 C224.093665,179.556 223.716002,179.779664 223.298,180.227 L223.298,184 L222.033,184 L222.033,180.777 C222.033,180.329664 221.965167,180.014334 221.8295,179.831 C221.693833,179.647666 221.483001,179.556 221.197,179.556 C220.859665,179.556 220.482002,179.779664 220.064,180.227 L220.064,184 L218.799,184 L218.799,178.599 Z M227.72,181.305 C227.72,180.864998 227.789666,180.469002 227.929,180.117 C228.068334,179.764998 228.253499,179.468001 228.4845,179.226 C228.715501,178.983999 228.981332,178.797001 229.282,178.665 C229.582668,178.532999 229.890665,178.467 230.206,178.467 C230.572669,178.467 230.895332,178.529333 231.174,178.654 C231.452668,178.778667 231.685499,178.954666 231.8725,179.182 C232.059501,179.409334 232.200666,179.680665 232.296,179.996 C232.391334,180.311335 232.439,180.655998 232.439,181.03 C232.439,181.279335 232.420667,181.477333 232.384,181.624 L228.952,181.624 C229.010667,182.115336 229.181165,182.492999 229.4635,182.757 C229.745835,183.021001 230.106998,183.153 230.547,183.153 C230.781668,183.153 230.999832,183.118167 231.2015,183.0485 C231.403168,182.978833 231.602999,182.881667 231.801,182.757 L232.23,183.549 C231.973332,183.717668 231.687335,183.856999 231.372,183.967 C231.056665,184.077001 230.726668,184.132 230.382,184.132 C230.007998,184.132 229.659668,184.067834 229.337,183.9395 C229.014332,183.811166 228.732001,183.626001 228.49,183.384 C228.247999,183.141999 228.059167,182.846835 227.9235,182.4985 C227.787833,182.150165 227.72,181.752336 227.72,181.305 Z M231.339,180.821 C231.339,180.388331 231.249168,180.051001 231.0695,179.809 C230.889832,179.566999 230.613002,179.446 230.239,179.446 C229.916332,179.446 229.634001,179.561499 229.392,179.7925 C229.149999,180.023501 228.999667,180.366331 228.941,180.821 L231.339,180.821 Z M233.704,182.57 C233.946001,182.760668 234.186165,182.909166 234.4245,183.0155 C234.662835,183.121834 234.921332,183.175 235.2,183.175 C235.493335,183.175 235.709666,183.114501 235.849,182.9935 C235.988334,182.872499 236.058,182.716668 236.058,182.526 C236.058,182.415999 236.025,182.318834 235.959,182.2345 C235.893,182.150166 235.805001,182.075 235.695,182.009 C235.584999,181.943 235.460334,181.8825 235.321,181.8275 C235.181666,181.7725 235.042334,181.715667 234.903,181.657 C234.726999,181.591 234.547334,181.514 234.364,181.426 C234.180666,181.338 234.017501,181.231667 233.8745,181.107 C233.731499,180.982333 233.614167,180.837501 233.5225,180.6725 C233.430833,180.507499 233.385,180.311334 233.385,180.084 C233.385,179.607331 233.560998,179.218668 233.913,178.918 C234.265002,178.617332 234.74533,178.467 235.354,178.467 C235.728002,178.467 236.065332,178.532999 236.366,178.665 C236.666668,178.797001 236.926999,178.947332 237.147,179.116 L236.564,179.886 C236.373332,179.746666 236.180834,179.634834 235.9865,179.5505 C235.792166,179.466166 235.588668,179.424 235.376,179.424 C235.104665,179.424 234.904834,179.480833 234.7765,179.5945 C234.648166,179.708167 234.584,179.849332 234.584,180.018 C234.584,180.128001 234.615166,180.2215 234.6775,180.2985 C234.739834,180.3755 234.822333,180.443333 234.925,180.502 C235.027667,180.560667 235.146833,180.615666 235.2825,180.667 C235.418167,180.718334 235.559333,180.769666 235.706,180.821 C235.889334,180.887 236.072666,180.962166 236.256,181.0465 C236.439334,181.130834 236.606166,181.235333 236.7565,181.36 C236.906834,181.484667 237.027833,181.636832 237.1195,181.8165 C237.211167,181.996168 237.257,182.210665 237.257,182.46 C237.257,182.694668 237.211167,182.912832 237.1195,183.1145 C237.027833,183.316168 236.894001,183.492166 236.718,183.6425 C236.541999,183.792834 236.322001,183.912 236.058,184 C235.793999,184.088 235.493335,184.132 235.156,184.132 C234.781998,184.132 234.413502,184.060501 234.0505,183.9175 C233.687498,183.774499 233.374001,183.596668 233.11,183.384 L233.704,182.57 Z M239.655,184.44 L239.655,186.134 L238.39,186.134 L238.39,178.599 L239.435,178.599 L239.523,179.171 L239.567,179.171 C239.794334,178.980332 240.047332,178.815334 240.326,178.676 C240.604668,178.536666 240.894332,178.467 241.195,178.467 C241.532335,178.467 241.831165,178.531166 242.0915,178.6595 C242.351835,178.787834 242.573666,178.972999 242.757,179.215 C242.940334,179.457001 243.079666,179.746665 243.175,180.084 C243.270334,180.421335 243.318,180.798998 243.318,181.217 C243.318,181.679002 243.253834,182.091498 243.1255,182.4545 C242.997166,182.817502 242.826668,183.121832 242.614,183.3675 C242.401332,183.613168 242.155668,183.801999 241.877,183.934 C241.598332,184.066001 241.308668,184.132 241.008,184.132 C240.773332,184.132 240.538668,184.080667 240.304,183.978 C240.069332,183.875333 239.842001,183.728668 239.622,183.538 L239.655,184.44 Z M239.655,182.636 C239.853001,182.804668 240.043666,182.922 240.227,182.988 C240.410334,183.054 240.582666,183.087 240.744,183.087 C241.103335,183.087 241.403999,182.931168 241.646,182.6195 C241.888001,182.307832 242.009,181.844003 242.009,181.228 C242.009,180.685331 241.917334,180.263668 241.734,179.963 C241.550666,179.662332 241.253669,179.512 240.843,179.512 C240.461665,179.512 240.065669,179.713665 239.655,180.117 L239.655,182.636 Z M244.231,182.548 C244.231,181.968664 244.483997,181.521335 244.99,181.206 C245.496003,180.890665 246.302661,180.670667 247.41,180.546 C247.41,180.406666 247.391667,180.272834 247.355,180.1445 C247.318333,180.016166 247.2615,179.9025 247.1845,179.8035 C247.1075,179.7045 247.008501,179.6275 246.8875,179.5725 C246.766499,179.5175 246.614334,179.49 246.431,179.49 C246.159665,179.49 245.897501,179.541333 245.6445,179.644 C245.391499,179.746667 245.147668,179.871333 244.913,180.018 L244.451,179.171 C244.751668,178.980332 245.087165,178.815334 245.4575,178.676 C245.827835,178.536666 246.229331,178.467 246.662,178.467 C247.344003,178.467 247.849998,178.666831 248.18,179.0665 C248.510002,179.466169 248.675,180.043663 248.675,180.799 L248.675,184 L247.641,184 L247.542,183.406 L247.509,183.406 C247.266999,183.611334 247.008501,183.783666 246.7335,183.923 C246.458499,184.062334 246.159668,184.132 245.837,184.132 C245.360331,184.132 244.973501,183.987168 244.6765,183.6975 C244.379499,183.407832 244.231,183.024669 244.231,182.548 Z M245.463,182.449 C245.463,182.691001 245.534499,182.866999 245.6775,182.977 C245.820501,183.087001 246.005666,183.142 246.233,183.142 C246.453001,183.142 246.654666,183.090667 246.838,182.988 C247.021334,182.885333 247.211999,182.738668 247.41,182.548 L247.41,181.338 C247.043332,181.382 246.735335,181.440666 246.486,181.514 C246.236665,181.587334 246.036834,181.669833 245.8865,181.7615 C245.736166,181.853167 245.628,181.957666 245.562,182.075 C245.496,182.192334 245.463,182.316999 245.463,182.449 Z M249.863,181.305 C249.863,180.857664 249.936333,180.458002 250.083,180.106 C250.229667,179.753998 250.427665,179.457001 250.677,179.215 C250.926335,178.972999 251.214165,178.787834 251.5405,178.6595 C251.866835,178.531166 252.209665,178.467 252.569,178.467 C252.921002,178.467 253.227165,178.527499 253.4875,178.6485 C253.747835,178.769501 253.969666,178.917999 254.153,179.094 L253.548,179.897 C253.401333,179.772333 253.254667,179.675167 253.108,179.6055 C252.961333,179.535833 252.803668,179.501 252.635,179.501 C252.194998,179.501 251.839335,179.664165 251.568,179.9905 C251.296665,180.316835 251.161,180.754997 251.161,181.305 C251.161,181.847669 251.294832,182.282165 251.5625,182.6085 C251.830168,182.934835 252.176665,183.098 252.602,183.098 C252.822001,183.098 253.025499,183.052167 253.2125,182.9605 C253.399501,182.868833 253.566333,182.760667 253.713,182.636 L254.241,183.439 C253.984332,183.666334 253.702002,183.838666 253.394,183.956 C253.085998,184.073334 252.778002,184.132 252.47,184.132 C252.103331,184.132 251.760502,184.069667 251.4415,183.945 C251.122498,183.820333 250.845668,183.637001 250.611,183.395 C250.376332,183.152999 250.193001,182.856002 250.061,182.504 C249.928999,182.151998 249.863,181.752336 249.863,181.305 Z M254.681,181.305 C254.681,180.864998 254.750666,180.469002 254.89,180.117 C255.029334,179.764998 255.214499,179.468001 255.4455,179.226 C255.676501,178.983999 255.942332,178.797001 256.243,178.665 C256.543668,178.532999 256.851665,178.467 257.167,178.467 C257.533668,178.467 257.856332,178.529333 258.135,178.654 C258.413668,178.778667 258.646499,178.954666 258.8335,179.182 C259.020501,179.409334 259.161666,179.680665 259.257,179.996 C259.352334,180.311335 259.4,180.655998 259.4,181.03 C259.4,181.279335 259.381667,181.477333 259.345,181.624 L255.913,181.624 C255.971667,182.115336 256.142165,182.492999 256.4245,182.757 C256.706835,183.021001 257.067998,183.153 257.508,183.153 C257.742668,183.153 257.960832,183.118167 258.1625,183.0485 C258.364168,182.978833 258.563999,182.881667 258.762,182.757 L259.191,183.549 C258.934332,183.717668 258.648335,183.856999 258.333,183.967 C258.017665,184.077001 257.687668,184.132 257.343,184.132 C256.968998,184.132 256.620668,184.067834 256.298,183.9395 C255.975332,183.811166 255.693001,183.626001 255.451,183.384 C255.208999,183.141999 255.020167,182.846835 254.8845,182.4985 C254.748833,182.150165 254.681,181.752336 254.681,181.305 Z M258.3,180.821 C258.3,180.388331 258.210168,180.051001 258.0305,179.809 C257.850832,179.566999 257.574002,179.446 257.2,179.446 C256.877332,179.446 256.595001,179.561499 256.353,179.7925 C256.110999,180.023501 255.960667,180.366331 255.902,180.821 L258.3,180.821 Z M260.665,182.57 C260.907001,182.760668 261.147165,182.909166 261.3855,183.0155 C261.623835,183.121834 261.882332,183.175 262.161,183.175 C262.454335,183.175 262.670666,183.114501 262.81,182.9935 C262.949334,182.872499 263.019,182.716668 263.019,182.526 C263.019,182.415999 262.986,182.318834 262.92,182.2345 C262.854,182.150166 262.766001,182.075 262.656,182.009 C262.545999,181.943 262.421334,181.8825 262.282,181.8275 C262.142666,181.7725 262.003334,181.715667 261.864,181.657 C261.687999,181.591 261.508334,181.514 261.325,181.426 C261.141666,181.338 260.978501,181.231667 260.8355,181.107 C260.692499,180.982333 260.575167,180.837501 260.4835,180.6725 C260.391833,180.507499 260.346,180.311334 260.346,180.084 C260.346,179.607331 260.521998,179.218668 260.874,178.918 C261.226002,178.617332 261.70633,178.467 262.315,178.467 C262.689002,178.467 263.026332,178.532999 263.327,178.665 C263.627668,178.797001 263.887999,178.947332 264.108,179.116 L263.525,179.886 C263.334332,179.746666 263.141834,179.634834 262.9475,179.5505 C262.753166,179.466166 262.549668,179.424 262.337,179.424 C262.065665,179.424 261.865834,179.480833 261.7375,179.5945 C261.609166,179.708167 261.545,179.849332 261.545,180.018 C261.545,180.128001 261.576166,180.2215 261.6385,180.2985 C261.700834,180.3755 261.783333,180.443333 261.886,180.502 C261.988667,180.560667 262.107833,180.615666 262.2435,180.667 C262.379167,180.718334 262.520333,180.769666 262.667,180.821 C262.850334,180.887 263.033666,180.962166 263.217,181.0465 C263.400334,181.130834 263.567166,181.235333 263.7175,181.36 C263.867834,181.484667 263.988833,181.636832 264.0805,181.8165 C264.172167,181.996168 264.218,182.210665 264.218,182.46 C264.218,182.694668 264.172167,182.912832 264.0805,183.1145 C263.988833,183.316168 263.855001,183.492166 263.679,183.6425 C263.502999,183.792834 263.283001,183.912 263.019,184 C262.754999,184.088 262.454335,184.132 262.117,184.132 C261.742998,184.132 261.374502,184.060501 261.0115,183.9175 C260.648498,183.774499 260.335001,183.596668 260.071,183.384 L260.665,182.57 Z" id="other-namespaces" fill="#999999"></path>
            <g id="Group-4" transform="translate(117.000000, 68.000000)">
                <g id="Group-2" transform="translate(66.000000, 0.000000)">
                    <g id="Group-Copy-6">
                        <circle id="Oval-1-Copy-31" fill="#999999" cx="9" cy="9.763" r="9"></circle>
                        <path d="M6.079,5.524 L8.939,5.524 C9.40700234,5.524 9.83816469,5.5673329 10.2325,5.654 C10.6268353,5.7406671 10.9669986,5.88799896 11.253,6.096 C11.5390014,6.30400104 11.7643325,6.57483167 11.929,6.9085 C12.0936675,7.24216834 12.176,7.65599753 12.176,8.15 C12.176,8.61800234 12.0936675,9.0253316 11.929,9.372 C11.7643325,9.7186684 11.5368348,10.0068322 11.2465,10.2365 C10.9561652,10.4661678 10.6138353,10.6351661 10.2195,10.7435 C9.82516469,10.8518339 9.39833563,10.906 8.939,10.906 L7.587,10.906 L7.587,14.026 L6.079,14.026 L6.079,5.524 Z M8.822,9.697 C10.0700062,9.697 10.694,9.18133849 10.694,8.15 C10.694,7.61266398 10.5380016,7.24216769 10.226,7.0385 C9.91399844,6.83483232 9.44600312,6.733 8.822,6.733 L7.587,6.733 L7.587,9.697 L8.822,9.697 Z" id="P-Copy-29" fill="#FFFFFF"></path>
                    </g>
                    <path d="M27.428,9.796 L27.056,8.596 C26.9119993,8.1559978 26.7760006,7.71800218 26.648,7.282 C26.5199994,6.84599782 26.3920006,6.40000228 26.264,5.944 L26.216,5.944 C26.0959994,6.40000228 25.9720006,6.84599782 25.844,7.282 C25.7159994,7.71800218 25.5800007,8.1559978 25.436,8.596 L25.064,9.796 L27.428,9.796 Z M27.68,10.6 L24.812,10.6 L24.056,13 L23.036,13 L25.7,5.128 L26.828,5.128 L29.492,13 L28.424,13 L27.68,10.6 Z M30.512,7.168 L31.328,7.168 L31.412,8.008 L31.448,8.008 C31.7280014,7.7279986 32.0219985,7.49400094 32.33,7.306 C32.6380015,7.11799906 32.995998,7.024 33.404,7.024 C34.0200031,7.024 34.4699986,7.21599808 34.754,7.6 C35.0380014,7.98400192 35.18,8.55199624 35.18,9.304 L35.18,13 L34.196,13 L34.196,9.436 C34.196,8.88399724 34.1080009,8.48600122 33.932,8.242 C33.7559991,7.99799878 33.4760019,7.876 33.092,7.876 C32.7879985,7.876 32.5200012,7.95199924 32.288,8.104 C32.0559988,8.25600076 31.7920015,8.47999852 31.496,8.776 L31.496,13 L30.512,13 L30.512,7.168 Z M36.68,14.608 L36.896,14.662 C36.9760004,14.6820001 37.0519996,14.692 37.124,14.692 C37.4600017,14.692 37.7339989,14.5740012 37.946,14.338 C38.1580011,14.1019988 38.3239994,13.8040018 38.444,13.444 L38.576,13.012 L36.236,7.168 L37.256,7.168 L38.444,10.396 C38.5320004,10.6520013 38.6259995,10.9219986 38.726,11.206 C38.8260005,11.4900014 38.9199996,11.7679986 39.008,12.04 L39.056,12.04 C39.1440004,11.7759987 39.2279996,11.5000014 39.308,11.212 C39.3880004,10.9239986 39.4679996,10.6520013 39.548,10.396 L40.592,7.168 L41.552,7.168 L39.356,13.48 C39.2519995,13.7680014 39.1360006,14.0359988 39.008,14.284 C38.8799994,14.5320012 38.7280009,14.7459991 38.552,14.926 C38.3759991,15.1060009 38.1760011,15.2479995 37.952,15.352 C37.7279989,15.4560005 37.4680015,15.508 37.172,15.508 C37.0359993,15.508 36.9120006,15.4980001 36.8,15.478 C36.6879994,15.4579999 36.5840005,15.4280002 36.488,15.388 L36.68,14.608 Z M46.088,13.492 L46.088,15.46 L45.104,15.46 L45.104,7.168 L45.92,7.168 L46.004,7.84 L46.04,7.84 C46.3040013,7.61599888 46.5939984,7.4240008 46.91,7.264 C47.2260016,7.1039992 47.5559983,7.024 47.9,7.024 C48.2760019,7.024 48.6079986,7.0939993 48.896,7.234 C49.1840014,7.3740007 49.423999,7.5739987 49.616,7.834 C49.808001,8.0940013 49.9539995,8.40599818 50.054,8.77 C50.1540005,9.13400182 50.204,9.54399772 50.204,10 C50.204,10.4960025 50.1360007,10.9379981 50,11.326 C49.8639993,11.7140019 49.6800012,12.0439986 49.448,12.316 C49.2159988,12.5880014 48.9480015,12.7939993 48.644,12.934 C48.3399985,13.0740007 48.0200017,13.144 47.684,13.144 C47.4119986,13.144 47.1420013,13.0840006 46.874,12.964 C46.6059987,12.8439994 46.3360014,12.680001 46.064,12.472 L46.088,13.492 Z M46.088,11.704 C46.3520013,11.9280011 46.6079988,12.0859995 46.856,12.178 C47.1040012,12.2700005 47.323999,12.316 47.516,12.316 C47.7560012,12.316 47.977999,12.2620005 48.182,12.154 C48.386001,12.0459995 48.5619993,11.894001 48.71,11.698 C48.8580007,11.501999 48.9739996,11.2600014 49.058,10.972 C49.1420004,10.6839986 49.184,10.3600018 49.184,10 C49.184,9.6799984 49.1560003,9.38800132 49.1,9.124 C49.0439997,8.85999868 48.9540006,8.63400094 48.83,8.446 C48.7059994,8.25799906 48.546001,8.11200052 48.35,8.008 C48.153999,7.90399948 47.9200014,7.852 47.648,7.852 C47.3999988,7.852 47.1500013,7.91999932 46.898,8.056 C46.6459987,8.19200068 46.3760014,8.38799872 46.088,8.644 L46.088,11.704 Z M51.332,10.096 C51.332,9.60799756 51.4059993,9.1740019 51.554,8.794 C51.7020007,8.4139981 51.8999988,8.09200132 52.148,7.828 C52.3960012,7.56399868 52.6819984,7.36400068 53.006,7.228 C53.3300016,7.09199932 53.6719982,7.024 54.032,7.024 C54.3920018,7.024 54.7339984,7.09199932 55.058,7.228 C55.3820016,7.36400068 55.6679988,7.56399868 55.916,7.828 C56.1640012,8.09200132 56.3619993,8.4139981 56.51,8.794 C56.6580007,9.1740019 56.732,9.60799756 56.732,10.096 C56.732,10.5760024 56.6580007,11.0059981 56.51,11.386 C56.3619993,11.7660019 56.1640012,12.0859987 55.916,12.346 C55.6679988,12.6060013 55.3820016,12.8039993 55.058,12.94 C54.7339984,13.0760007 54.3920018,13.144 54.032,13.144 C53.6719982,13.144 53.3300016,13.0760007 53.006,12.94 C52.6819984,12.8039993 52.3960012,12.6060013 52.148,12.346 C51.8999988,12.0859987 51.7020007,11.7660019 51.554,11.386 C51.4059993,11.0059981 51.332,10.5760024 51.332,10.096 Z M52.352,10.096 C52.352,10.4320017 52.3919996,10.7359986 52.472,11.008 C52.5520004,11.2800014 52.6659993,11.513999 52.814,11.71 C52.9620007,11.906001 53.139999,12.0579995 53.348,12.166 C53.556001,12.2740005 53.7839988,12.328 54.032,12.328 C54.2800012,12.328 54.507999,12.2740005 54.716,12.166 C54.924001,12.0579995 55.1019993,11.906001 55.25,11.71 C55.3980007,11.513999 55.5119996,11.2800014 55.592,11.008 C55.6720004,10.7359986 55.712,10.4320017 55.712,10.096 C55.712,9.75999832 55.6720004,9.45400138 55.592,9.178 C55.5119996,8.90199862 55.3980007,8.664001 55.25,8.464 C55.1019993,8.263999 54.924001,8.11000054 54.716,8.002 C54.507999,7.89399946 54.2800012,7.84 54.032,7.84 C53.7839988,7.84 53.556001,7.89399946 53.348,8.002 C53.139999,8.11000054 52.9620007,8.263999 52.814,8.464 C52.6659993,8.664001 52.5520004,8.90199862 52.472,9.178 C52.3919996,9.45400138 52.352,9.75999832 52.352,10.096 Z M57.848,10.096 C57.848,9.62399764 57.9179993,9.1980019 58.058,8.818 C58.1980007,8.4379981 58.3839988,8.11600132 58.616,7.852 C58.8480012,7.58799868 59.1159985,7.38400072 59.42,7.24 C59.7240015,7.09599928 60.0439983,7.024 60.38,7.024 C60.7160017,7.024 61.0079988,7.0839994 61.256,7.204 C61.5040012,7.3240006 61.7559987,7.48799896 62.012,7.696 L61.964,6.7 L61.964,4.456 L62.96,4.456 L62.96,13 L62.144,13 L62.06,12.316 L62.024,12.316 C61.7919988,12.5400011 61.5260015,12.7339992 61.226,12.898 C60.9259985,13.0620008 60.6040017,13.144 60.26,13.144 C59.5239963,13.144 58.9380022,12.8800026 58.502,12.352 C58.0659978,11.8239974 57.848,11.0720049 57.848,10.096 Z M58.868,10.084 C58.868,10.7880035 59.0079986,11.335998 59.288,11.728 C59.5680014,12.120002 59.9639974,12.316 60.476,12.316 C60.7480014,12.316 61.0039988,12.2500007 61.244,12.118 C61.4840012,11.9859993 61.7239988,11.7840014 61.964,11.512 L61.964,8.464 C61.7159988,8.23999888 61.4780011,8.08200046 61.25,7.99 C61.0219989,7.89799954 60.7880012,7.852 60.548,7.852 C60.3159988,7.852 60.098001,7.90599946 59.894,8.014 C59.689999,8.12200054 59.5120008,8.27399902 59.36,8.47 C59.2079992,8.66600098 59.0880004,8.89999864 59,9.172 C58.9119996,9.44400136 58.868,9.74799832 58.868,10.084 Z M64.772,11.68 C65.0280013,11.888001 65.2899987,12.0559994 65.558,12.184 C65.8260013,12.3120006 66.1359982,12.376 66.488,12.376 C66.8720019,12.376 67.159999,12.2880009 67.352,12.112 C67.544001,11.9359991 67.64,11.7200013 67.64,11.464 C67.64,11.3119992 67.6000004,11.1800006 67.52,11.068 C67.4399996,10.9559994 67.3380006,10.8580004 67.214,10.774 C67.0899994,10.6899996 66.9480008,10.6160003 66.788,10.552 L66.308,10.36 C66.099999,10.2879996 65.892001,10.2060005 65.684,10.114 C65.475999,10.0219995 65.2900008,9.91000066 65.126,9.778 C64.9619992,9.64599934 64.8280005,9.49200088 64.724,9.316 C64.6199995,9.13999912 64.568,8.92800124 64.568,8.68 C64.568,8.44799884 64.6139995,8.23000102 64.706,8.026 C64.7980005,7.82199898 64.9299991,7.64600074 65.102,7.498 C65.2740009,7.34999926 65.4839988,7.23400042 65.732,7.15 C65.9800012,7.06599958 66.2599984,7.024 66.572,7.024 C66.9400018,7.024 67.2779985,7.08799936 67.586,7.216 C67.8940015,7.34400064 68.1599989,7.49999908 68.384,7.684 L67.916,8.308 C67.715999,8.15599924 67.5080011,8.03200048 67.292,7.936 C67.0759989,7.83999952 66.8400013,7.792 66.584,7.792 C66.2159982,7.792 65.9460009,7.87599916 65.774,8.044 C65.6019991,8.21200084 65.516,8.40799888 65.516,8.632 C65.516,8.76800068 65.5519996,8.8859995 65.624,8.986 C65.6960004,9.0860005 65.7919994,9.17399962 65.912,9.25 C66.0320006,9.32600038 66.1699992,9.3939997 66.326,9.454 C66.4820008,9.5140003 66.6439992,9.57599968 66.812,9.64 C67.020001,9.7200004 67.2299989,9.80399956 67.442,9.892 C67.6540011,9.98000044 67.8439992,10.0899993 68.012,10.222 C68.1800008,10.3540007 68.3179995,10.515999 68.426,10.708 C68.5340005,10.900001 68.588,11.1319986 68.588,11.404 C68.588,11.6440012 68.5420005,11.867999 68.45,12.076 C68.3579995,12.284001 68.2220009,12.4679992 68.042,12.628 C67.8619991,12.7880008 67.6380013,12.9139995 67.37,13.006 C67.1019987,13.0980005 66.7960017,13.144 66.452,13.144 C66.0359979,13.144 65.6400019,13.0680008 65.264,12.916 C64.8879981,12.7639992 64.5600014,12.5720012 64.28,12.34 L64.772,11.68 Z" id="Any-pods" fill="#999999"></path>
                </g>
                <g id="Group" transform="translate(0.000000, 8.000000)" fill="#AAAAAA">
                    <path d="M6.5320386,1.625 L6.5320386,0.267949192 L0.532038601,2 L6.5320386,3.73205081 L6.5320386,2.375 L8,2.375 L8,1.625 L6.5320386,1.625 Z M11,2.375 L11,1.625 L14,1.625 L14,2.375 L11,2.375 Z M17,2.375 L17,1.625 L20,1.625 L20,2.375 L17,2.375 Z M23,2.375 L23,1.625 L26,1.625 L26,2.375 L23,2.375 Z M29,2.375 L29,1.625 L32,1.625 L32,2.375 L29,2.375 Z M35,2.375 L35,1.625 L38,1.625 L38,2.375 L35,2.375 Z M41,2.375 L41,1.625 L44,1.625 L44,2.375 L41,2.375 Z M47,2.375 L47,1.625 L50,1.625 L50,2.375 L47,2.375 Z M53,2.375 L53,1.625 L56,1.625 L56,2.375 L53,2.375 Z M59,2.375 L59,1.625 L62,1.625 L62,2.375 L59,2.375 Z" id="Combined-Shape"></path>
                </g>
                <path d="M49.7857143,10.15625 C49.7857143,9.43749641 49.5915198,8.77902085 49.203125,8.18080357 L44.1540179,13.2232143 C44.7656281,13.6205377 45.4285679,13.8191964 46.1428571,13.8191964 C46.6383953,13.8191964 47.1104888,13.7220992 47.5591518,13.5279018 C48.0078147,13.3337044 48.3950877,13.0736623 48.7209821,12.7477679 C49.0468766,12.4218734 49.3058026,12.0323683 49.4977679,11.5792411 C49.6897331,11.1261138 49.7857143,10.6517882 49.7857143,10.15625 Z M43.0959821,12.1584821 L48.1517857,7.109375 C47.5491041,6.70312297 46.879468,6.5 46.1428571,6.5 C45.4821396,6.5 44.8727706,6.6629448 44.3147321,6.98883929 C43.7566936,7.31473377 43.3147338,7.75892576 42.9888393,8.32142857 C42.6629448,8.88393138 42.5,9.49553241 42.5,10.15625 C42.5,10.8794679 42.6986587,11.5468719 43.0959821,12.1584821 Z M51.2857143,10.15625 C51.2857143,10.8571464 51.1495549,11.5267825 50.8772321,12.1651786 C50.6049094,12.8035746 50.2399576,13.3526763 49.7823661,13.8125 C49.3247745,14.2723237 48.777905,14.6383915 48.1417411,14.9107143 C47.5055772,15.1830371 46.8392892,15.3191964 46.1428571,15.3191964 C45.4464251,15.3191964 44.7801371,15.1830371 44.1439732,14.9107143 C43.5078093,14.6383915 42.9609398,14.2723237 42.5033482,13.8125 C42.0457566,13.3526763 41.6808049,12.8035746 41.4084821,12.1651786 C41.1361594,11.5267825 41,10.8571464 41,10.15625 C41,9.45535364 41.1361594,8.78683354 41.4084821,8.15066964 C41.6808049,7.51450575 42.0457566,6.96652016 42.5033482,6.50669643 C42.9609398,6.0468727 43.5078093,5.68080493 44.1439732,5.40848214 C44.7801371,5.13615935 45.4464251,5 46.1428571,5 C46.8392892,5 47.5055772,5.13615935 48.1417411,5.40848214 C48.777905,5.68080493 49.3247745,6.0468727 49.7823661,6.50669643 C50.2399576,6.96652016 50.6049094,7.51450575 50.8772321,8.15066964 C51.1495549,8.78683354 51.2857143,9.45535364 51.2857143,10.15625 Z" id="" fill="#D64456"></path>
            </g>
            <g id="Group-47" transform="translate(66.000000, 21.000000)">
                <g id="Group-27" transform="translate(3.000000, 0.000000)" fill-rule="nonzero" fill="#AAAAAA">
                    <path d="M2,0.625 L2,4.375 L2.75,4.375 L2.75,0.625 L2,0.625 Z M2,6.625 L2,10.375 L2.75,10.375 L2.75,6.625 L2,6.625 Z M2,12.625 L2,16.375 L2.75,16.375 L2.75,12.625 L2,12.625 Z M2,18.625 L2,22.375 L2.75,22.375 L2.75,18.625 L2,18.625 Z M2,24.625 L2,28.375 L2.75,28.375 L2.75,24.625 L2,24.625 Z M2,30.625 L2,34.375 L2.75,34.375 L2.75,30.625 L2,30.625 Z M2.75,38 L2.75,36.625 L2,36.625 L2,38 L0.767949192,38 L2.5,44 L4.23205081,38 L2.75,38 Z" id="Combined-Shape"></path>
                </g>
                <path d="M8.78571429,22.15625 C8.78571429,21.4374964 8.5915198,20.7790208 8.203125,20.1808036 L3.15401786,25.2232143 C3.76562806,25.6205377 4.42856786,25.8191964 5.14285714,25.8191964 C5.63839533,25.8191964 6.11048883,25.7220992 6.55915179,25.5279018 C7.00781474,25.3337044 7.39508766,25.0736623 7.72098214,24.7477679 C8.04687663,24.4218734 8.30580261,24.0323683 8.49776786,23.5792411 C8.6897331,23.1261138 8.78571429,22.6517882 8.78571429,22.15625 Z M2.09598214,24.1584821 L7.15178571,19.109375 C6.54910413,18.703123 5.87946797,18.5 5.14285714,18.5 C4.48213955,18.5 3.87277065,18.6629448 3.31473214,18.9888393 C2.75669364,19.3147338 2.31473377,19.7589258 1.98883929,20.3214286 C1.6629448,20.8839314 1.5,21.4955324 1.5,22.15625 C1.5,22.8794679 1.69865873,23.5468719 2.09598214,24.1584821 Z M10.2857143,22.15625 C10.2857143,22.8571464 10.1495549,23.5267825 9.87723214,24.1651786 C9.60490935,24.8035746 9.23995765,25.3526763 8.78236607,25.8125 C8.3247745,26.2723237 7.77790497,26.6383915 7.14174107,26.9107143 C6.50557718,27.1830371 5.8392892,27.3191964 5.14285714,27.3191964 C4.44642509,27.3191964 3.78013711,27.1830371 3.14397321,26.9107143 C2.50780932,26.6383915 1.96093979,26.2723237 1.50334821,25.8125 C1.04575664,25.3526763 0.680804933,24.8035746 0.408482143,24.1651786 C0.136159353,23.5267825 0,22.8571464 0,22.15625 C0,21.4553536 0.136159353,20.7868335 0.408482143,20.1506696 C0.680804933,19.5145057 1.04575664,18.9665202 1.50334821,18.5066964 C1.96093979,18.0468727 2.50780932,17.6808049 3.14397321,17.4084821 C3.78013711,17.1361594 4.44642509,17 5.14285714,17 C5.8392892,17 6.50557718,17.1361594 7.14174107,17.4084821 C7.77790497,17.6808049 8.3247745,18.0468727 8.78236607,18.5066964 C9.23995765,18.9665202 9.60490935,19.5145057 9.87723214,20.1506696 C10.1495549,20.7868335 10.2857143,21.4553536 10.2857143,22.15625 Z" id="" fill="#D64456"></path>
            </g>
        </g>
    </g>
</svg>