<?xml version="1.0" encoding="UTF-8" standalone="no"?>
<svg width="280px" height="130px" viewBox="0 0 280 130" version="1.1" xmlns="http://www.w3.org/2000/svg" xmlns:xlink="http://www.w3.org/1999/xlink" style="background: #FFFFFF;">
    <!-- Generator: Sketch 46.2 (44496) - http://www.bohemiancoding.com/sketch -->
    <title>diagram__6</title>
    <desc>Created with Sketch.</desc>
    <defs>
        <rect id="path-1" x="0" y="0" width="44" height="10" rx="5"></rect>
        <rect id="path-2" x="0" y="0" width="44" height="10" rx="5"></rect>
        <rect id="path-3" x="0" y="0" width="57" height="10" rx="5"></rect>
    </defs>
    <g id="Page-1" stroke="none" stroke-width="1" fill="none" fill-rule="evenodd">
        <g id="diagram__6">
            <g id="diagram_6">
                <rect id="Rectangle-3" fill="#FFFFFF" x="0" y="0" width="280" height="130"></rect>
                <text id="namespace:-target-ns" font-family="SourceSansPro-Semibold, Source Sans Pro" font-size="8" font-weight="500" fill="#872C6C">
                    <tspan x="52.568" y="128">namespace: </tspan>
                    <tspan x="95.48" y="128" font-family="SourceSansPro-SemiboldIt, Source Sans Pro" font-style="italic">target-ns</tspan>
                </text>
                <text id="other-namespaces" font-family="SourceSansPro-Semibold, Source Sans Pro" font-size="8" font-weight="500" fill="#999999">
                    <tspan x="155.056" y="128">other namespaces</tspan>
                </text>
                <g id="Group-Copy-6" opacity="0" transform="translate(199.799988, 20.000000)">
                    <circle id="Oval-1-Copy-32" stroke="#FFFFFF" fill="#6EC654" cx="21" cy="9.763" r="9"></circle>
                    <text id="P-Copy-27" font-family="SourceSansPro-Semibold, Source Sans Pro" font-size="13" font-weight="500" fill="#FFFFFF">
                        <tspan x="5" y="13.026">P</tspan>
                    </text>
                    <circle id="Oval-1-Copy-30" stroke="#FFFFFF" fill="#6EC654" cx="15" cy="9.763" r="9"></circle>
                    <circle id="Oval-1-Copy-31" stroke="#FFFFFF" fill="#6EC654" cx="9" cy="9.763" r="9"></circle>
                    <text id="P-Copy-29" font-family="SourceSansPro-Semibold, Source Sans Pro" font-size="13" font-weight="500" fill="#FFFFFF">
                        <tspan x="6" y="14.026">P</tspan>
                    </text>
                </g>
                <g id="Group-Copy-6" opacity="0" transform="translate(199.799988, 90.000000)">
                    <circle id="Oval-1-Copy-32" stroke="#FFFFFF" fill="#F35D6B" cx="21" cy="9.763" r="9"></circle>
                    <text id="P-Copy-27" font-family="SourceSansPro-Semibold, Source Sans Pro" font-size="13" font-weight="500" fill="#FFFFFF">
                        <tspan x="5" y="13.026">P</tspan>
                    </text>
                    <circle id="Oval-1-Copy-30" stroke="#FFFFFF" fill="#F35D6B" cx="15" cy="9.763" r="9"></circle>
                    <circle id="Oval-1-Copy-31" stroke="#FFFFFF" fill="#F35D6B" cx="9" cy="9.763" r="9"></circle>
                    <text id="P-Copy-29" font-family="SourceSansPro-Semibold, Source Sans Pro" font-size="13" font-weight="500" fill="#FFFFFF">
                        <tspan x="6" y="14.026">P</tspan>
                    </text>
                </g>
                <g id="Group-Copy-6" transform="translate(34.000000, 17.000000)">
                    <text id="P-Copy-27" font-family="SourceSansPro-Semibold, Source Sans Pro" font-size="13" font-weight="500" fill="#FFFFFF">
                        <tspan x="5" y="13.026">P</tspan>
                    </text>
                    <circle id="Oval-1-Copy-31" fill="#999999" cx="9" cy="9.763" r="9"></circle>
                    <text id="P-Copy-29" font-family="SourceSansPro-Semibold, Source Sans Pro" font-size="13" font-weight="500" fill="#FFFFFF">
                        <tspan x="5" y="14.026">P</tspan>
                    </text>
                </g>
                <g id="Group-13" transform="translate(56.799988, 22.000000)">
                    <g id="Rectangle-2">
                        <use fill="#F5F5F5" fill-rule="evenodd" xlink:href="#path-1"></use>
                        <rect stroke="#E5E5E5" stroke-width="1" x="0.5" y="0.5" width="43" height="9" rx="4.5"></rect>
                    </g>
                    <text id="app-=-foo" font-family="SourceSansPro-Regular, Source Sans Pro" font-size="8" font-weight="normal" line-spacing="9" fill="#999999">
                        <tspan x="6" y="8.17602539">app</tspan>
                        <tspan x="18.664" y="8" font-family="SourceSansPro-Bold, Source Sans Pro" font-weight="bold"> = </tspan>
                        <tspan x="26.528" y="8.17602539">foo</tspan>
                    </text>
                </g>
                <g id="Group-43" transform="translate(66.000000, 36.000000)">
                    <path d="M2.29998779,2 L2.29998779,15" id="Line" stroke="#2FC98E" stroke-width="1.5" stroke-linecap="square"></path>
                    <polygon id="Polygon-5-Copy-25" points="2.29998779 0 4.0320386 6 0.567936985 6"></polygon>
                    <polygon id="Polygon-5-Copy-25" fill="#2FC98E" points="2.29998779 19 0.299987793 13 4.29998779 13"></polygon>
                </g>
                <g id="Group-44" transform="translate(66.000000, 75.000000)">
                    <path d="M2.29998779,4 L2.29998779,17" id="Line" stroke="#2FC98E" stroke-width="1.5" stroke-linecap="square"></path>
                    <polygon id="Polygon-5-Copy-25" fill="#2FC98E" points="2.29998779 0 4.29998779 6 0.299987793 6"></polygon>
                    <polygon id="Polygon-5-Copy-25" fill-opacity="0" fill="#2FC98E" points="2.29998779 19 0.567936985 13 4.0320386 13"></polygon>
                </g>
                <g id="Group-Copy-6" transform="translate(34.000000, 93.000000)">
                    <text id="P-Copy-27" font-family="SourceSansPro-Semibold, Source Sans Pro" font-size="13" font-weight="500" fill="#FFFFFF">
                        <tspan x="5" y="13.026">P</tspan>
                    </text>
                    <circle id="Oval-1-Copy-31" fill="#999999" cx="9" cy="9.763" r="9"></circle>
                    <text id="P-Copy-29" font-family="SourceSansPro-Semibold, Source Sans Pro" font-size="13" font-weight="500" fill="#FFFFFF">
                        <tspan x="5" y="14.026">P</tspan>
                    </text>
                </g>
                <g id="Group-13" transform="translate(56.799988, 98.000000)">
                    <g id="Rectangle-2">
                        <use fill="#F5F5F5" fill-rule="evenodd" xlink:href="#path-2"></use>
                        <rect stroke="#E5E5E5" stroke-width="1" x="0.5" y="0.5" width="43" height="9" rx="4.5"></rect>
                    </g>
                    <text id="app-=-bar" font-family="SourceSansPro-Regular, Source Sans Pro" font-size="8" font-weight="normal" line-spacing="9" fill="#999999">
                        <tspan x="6" y="8.17602539">app</tspan>
                        <tspan x="18.664" y="8" font-family="SourceSansPro-Bold, Source Sans Pro" font-weight="bold"> = </tspan>
                        <tspan x="26.528" y="8.17602539">bar</tspan>
                    </text>
                </g>
                <g id="Group-Copy-6" transform="translate(33.799988, 55.000000)">
                    <text id="P-Copy-27" font-family="SourceSansPro-Semibold, Source Sans Pro" font-size="13" font-weight="500" fill="#FFFFFF">
                        <tspan x="5" y="13.026">P</tspan>
                    </text>
                    <circle id="Oval-1-Copy-31" fill="#30C2B6" cx="9" cy="9.763" r="9"></circle>
                    <text id="P-Copy-29" font-family="SourceSansPro-Semibold, Source Sans Pro" font-size="13" font-weight="500" fill="#FFFFFF">
                        <tspan x="5" y="14.026">P</tspan>
                    </text>
                </g>
                <g id="Group-13" transform="translate(56.799988, 60.000000)">
                    <g id="Rectangle-2">
                        <use fill="#F5F5F5" fill-rule="evenodd" xlink:href="#path-3"></use>
                        <rect stroke="#E5E5E5" stroke-width="1" x="0.5" y="0.5" width="56" height="9" rx="4.5"></rect>
                    </g>
                    <text id="role-=-web-db" font-family="SourceSansPro-Semibold, Source Sans Pro" font-size="8" font-weight="500" line-spacing="9">
                        <tspan x="6" y="8" fill="#30C2B6">role</tspan>
                        <tspan x="19.6" y="8" fill="#999999"> = </tspan>
                        <tspan x="26.984" y="8" fill="#30C2B6">web-db</tspan>
                    </text>
                </g>
                <path d="M139.999988,0 L140,130" id="Line-2" stroke="#CCCCCC" stroke-width="0.5" stroke-linecap="square"></path>
                <g id="Group" transform="translate(182.000000, 55.000000)">
                    <g id="Group-Copy-6" transform="translate(0.799988, 0.000000)">
                        <text id="P-Copy-27" font-family="SourceSansPro-Semibold, Source Sans Pro" font-size="13" font-weight="500" fill="#FFFFFF">
                            <tspan x="5" y="13.026">P</tspan>
                        </text>
                        <circle id="Oval-1-Copy-31" fill="#999999" cx="9" cy="9.763" r="9"></circle>
                        <text id="P-Copy-29" font-family="SourceSansPro-Semibold, Source Sans Pro" font-size="13" font-weight="500" fill="#FFFFFF">
                            <tspan x="5" y="14.026">P</tspan>
                        </text>
                    </g>
                    <text id="Any-pods" font-family="SourceSansPro-Semibold, Source Sans Pro" font-size="8" font-weight="500" line-spacing="9" fill="#333333">
                        <tspan x="23.7999878" y="13">Any pods</tspan>
                    </text>
                </g>
                <polygon id="Polygon-5-Copy-25" fill="#2FC98E" transform="translate(121.799988, 65.000000) scale(-1, 1) rotate(-270.000000) translate(-121.799988, -65.000000) " points="121.799988 62 123.799988 68 119.799988 68"></polygon>
                <path d="M122.799988,65 L177.799988,65" id="Line-Copy-10" stroke="#2FC98E" stroke-width="1.5"></path>
                <path d="M208.919998,27.0595238 C193.56207,27.0595238 179.293631,27 160.508399,27 C138.802302,27 110,34.8791728 110,51" id="Baseline" stroke="#AAAAAA" stroke-width="0.75" stroke-dasharray="3" transform="translate(159.459999, 39.000000) scale(-1, 1) translate(-159.459999, -39.000000) "></path>
                <path d="M209.919998,79.0595238 C194.398549,79.0595238 180.031425,79 161.04618,79 C139.10897,79 110,86.8791728 110,103" id="Baseline" stroke="#AAAAAA" stroke-width="0.75" stroke-dasharray="3" transform="translate(159.959999, 91.000000) scale(-1, -1) translate(-159.959999, -91.000000) "></path>
                <polygon id="Polygon-5-Copy-25" fill="#AAAAAA" transform="translate(108.529988, 27.000000) scale(-1, 1) rotate(-270.000000) translate(-108.529988, -27.000000) " points="108.529988 24 110.259988 30 106.799988 30"></polygon>
                <polygon id="Polygon-5-Copy-25" fill="#AAAAAA" transform="translate(108.529988, 103.000000) scale(-1, 1) rotate(-270.000000) translate(-108.529988, -103.000000) " points="108.529988 100 110.259988 106 106.799988 106"></polygon>
            </g>
            <path d="M143.785714,27.6941964 C143.785714,26.9754428 143.59152,26.3169673 143.203125,25.71875 L138.154018,30.7611607 C138.765628,31.1584841 139.428568,31.3571429 140.142857,31.3571429 C140.638395,31.3571429 141.110489,31.2600456 141.559152,31.0658482 C142.007815,30.8716508 142.395088,30.6116088 142.720982,30.2857143 C143.046877,29.9598198 143.305803,29.5703148 143.497768,29.1171875 C143.689733,28.6640602 143.785714,28.1897346 143.785714,27.6941964 Z M137.095982,29.6964286 L142.151786,24.6473214 C141.549104,24.2410694 140.879468,24.0379464 140.142857,24.0379464 C139.48214,24.0379464 138.872771,24.2008912 138.314732,24.5267857 C137.756694,24.8526802 137.314734,25.2968722 136.988839,25.859375 C136.662945,26.4218778 136.5,27.0334788 136.5,27.6941964 C136.5,28.4174143 136.698659,29.0848184 137.095982,29.6964286 Z M145.285714,27.6941964 C145.285714,28.3950928 145.149555,29.064729 144.877232,29.703125 C144.604909,30.341521 144.239958,30.8906227 143.782366,31.3504464 C143.324774,31.8102702 142.777905,32.1763379 142.141741,32.4486607 C141.505577,32.7209835 140.839289,32.8571429 140.142857,32.8571429 C139.446425,32.8571429 138.780137,32.7209835 138.143973,32.4486607 C137.507809,32.1763379 136.96094,31.8102702 136.503348,31.3504464 C136.045757,30.8906227 135.680805,30.341521 135.408482,29.703125 C135.136159,29.064729 135,28.3950928 135,27.6941964 C135,26.9933001 135.136159,26.32478 135.408482,25.6886161 C135.680805,25.0524522 136.045757,24.5044666 136.503348,24.0446429 C136.96094,23.5848191 137.507809,23.2187514 138.143973,22.9464286 C138.780137,22.6741058 139.446425,22.5379464 140.142857,22.5379464 C140.839289,22.5379464 141.505577,22.6741058 142.141741,22.9464286 C142.777905,23.2187514 143.324774,23.5848191 143.782366,24.0446429 C144.239958,24.5044666 144.604909,25.0524522 144.877232,25.6886161 C145.149555,26.32478 145.285714,26.9933001 145.285714,27.6941964 Z" id="" fill="#D64456"></path>
            <path d="M143.785714,102.694196 C143.785714,101.975443 143.59152,101.316967 143.203125,100.71875 L138.154018,105.761161 C138.765628,106.158484 139.428568,106.357143 140.142857,106.357143 C140.638395,106.357143 141.110489,106.260046 141.559152,106.065848 C142.007815,105.871651 142.395088,105.611609 142.720982,105.285714 C143.046877,104.95982 143.305803,104.570315 143.497768,104.117188 C143.689733,103.66406 143.785714,103.189735 143.785714,102.694196 Z M137.095982,104.696429 L142.151786,99.6473214 C141.549104,99.2410694 140.879468,99.0379464 140.142857,99.0379464 C139.48214,99.0379464 138.872771,99.2008912 138.314732,99.5267857 C137.756694,99.8526802 137.314734,100.296872 136.988839,100.859375 C136.662945,101.421878 136.5,102.033479 136.5,102.694196 C136.5,103.417414 136.698659,104.084818 137.095982,104.696429 Z M145.285714,102.694196 C145.285714,103.395093 145.149555,104.064729 144.877232,104.703125 C144.604909,105.341521 144.239958,105.890623 143.782366,106.350446 C143.324774,106.81027 142.777905,107.176338 142.141741,107.448661 C141.505577,107.720984 140.839289,107.857143 140.142857,107.857143 C139.446425,107.857143 138.780137,107.720984 138.143973,107.448661 C137.507809,107.176338 136.96094,106.81027 136.503348,106.350446 C136.045757,105.890623 135.680805,105.341521 135.408482,104.703125 C135.136159,104.064729 135,103.395093 135,102.694196 C135,101.9933 135.136159,101.32478 135.408482,100.688616 C135.680805,100.052452 136.045757,99.5044666 136.503348,99.0446429 C136.96094,98.5848191 137.507809,98.2187514 138.143973,97.9464286 C138.780137,97.6741058 139.446425,97.5379464 140.142857,97.5379464 C140.839289,97.5379464 141.505577,97.6741058 142.141741,97.9464286 C142.777905,98.2187514 143.324774,98.5848191 143.782366,99.0446429 C144.239958,99.5044666 144.604909,100.052452 144.877232,100.688616 C145.149555,101.32478 145.285714,101.9933 145.285714,102.694196 Z" id="" fill="#D64456"></path>
        </g>
    </g>
</svg>