<?xml version="1.0" encoding="UTF-8" standalone="no"?>
<svg width="280px" height="187px" viewBox="0 0 280 187" version="1.1" xmlns="http://www.w3.org/2000/svg" xmlns:xlink="http://www.w3.org/1999/xlink" style="background: #FFFFFF;">
    <!-- Generator: Sketch 46.2 (44496) - http://www.bohemiancoding.com/sketch -->
    <title>diagram__7</title>
    <desc>Created with Sketch.</desc>
    <defs>
        <rect id="path-1" x="0" y="0" width="56" height="13" rx="6.5"></rect>
        <rect id="path-2" x="0" y="0" width="64" height="15" rx="7.5"></rect>
    </defs>
    <g id="Page-1" stroke="none" stroke-width="1" fill="none" fill-rule="evenodd">
        <g id="diagram__7">
            <g id="diagram_7" transform="translate(-1.000000, 0.000000)">
                <rect id="Rectangle-3" fill="#FFFFFF" x="0" y="0" width="280" height="187"></rect>
                <path d="M35.94,180.09 L36.89,180.09 L36.97,180.75 L37.01,180.75 C37.2300011,180.536666 37.468332,180.353334 37.725,180.2 C37.9816679,180.046666 38.2799983,179.97 38.62,179.97 C39.1466693,179.97 39.5299988,180.138332 39.77,180.475 C40.0100012,180.811668 40.13,181.29333 40.13,181.92 L40.13,185 L38.98,185 L38.98,182.07 C38.98,181.663331 38.9200006,181.376667 38.8,181.21 C38.6799994,181.043332 38.4833347,180.96 38.21,180.96 C37.9966656,180.96 37.8083341,181.011666 37.645,181.115 C37.4816658,181.218334 37.2966677,181.369999 37.09,181.57 L37.09,185 L35.94,185 L35.94,180.09 Z M41.33,183.68 C41.33,183.153331 41.5599977,182.746668 42.02,182.46 C42.4800023,182.173332 43.2133283,181.973334 44.22,181.86 C44.22,181.733333 44.2033335,181.611667 44.17,181.495 C44.1366665,181.378333 44.0850003,181.275 44.015,181.185 C43.9449996,181.095 43.8550005,181.025 43.745,180.975 C43.6349994,180.925 43.4966675,180.9 43.33,180.9 C43.0833321,180.9 42.8450011,180.946666 42.615,181.04 C42.3849988,181.133334 42.1633344,181.246666 41.95,181.38 L41.53,180.61 C41.8033347,180.436666 42.1083316,180.286667 42.445,180.16 C42.7816683,180.033333 43.1466647,179.97 43.54,179.97 C44.1600031,179.97 44.6199985,180.151665 44.92,180.515 C45.2200015,180.878335 45.37,181.40333 45.37,182.09 L45.37,185 L44.43,185 L44.34,184.46 L44.31,184.46 C44.0899989,184.646668 43.8550012,184.803333 43.605,184.93 C43.3549987,185.056667 43.0833348,185.12 42.79,185.12 C42.3566645,185.12 42.0050013,184.988335 41.735,184.725 C41.4649986,184.461665 41.33,184.113336 41.33,183.68 Z M42.45,183.59 C42.45,183.810001 42.5149993,183.97 42.645,184.07 C42.7750006,184.170001 42.9433323,184.22 43.15,184.22 C43.350001,184.22 43.5333325,184.173334 43.7,184.08 C43.8666675,183.986666 44.0399991,183.853334 44.22,183.68 L44.22,182.58 C43.886665,182.62 43.6066678,182.673333 43.38,182.74 C43.1533322,182.806667 42.9716673,182.881666 42.835,182.965 C42.6983326,183.048334 42.6000003,183.143333 42.54,183.25 C42.4799997,183.356667 42.45,183.469999 42.45,183.59 Z M46.77,180.09 L47.72,180.09 L47.8,180.76 L47.84,180.76 C48.0466677,180.539999 48.2716654,180.353334 48.515,180.2 C48.7583345,180.046666 49.0333318,179.97 49.34,179.97 C49.7000018,179.97 49.9883322,180.046666 50.205,180.2 C50.4216677,180.353334 50.5866661,180.569999 50.7,180.85 C50.9333345,180.596665 51.1766654,180.386667 51.43,180.22 C51.6833346,180.053333 51.9666651,179.97 52.28,179.97 C52.8000026,179.97 53.1833321,180.138332 53.43,180.475 C53.6766679,180.811668 53.8,181.29333 53.8,181.92 L53.8,185 L52.64,185 L52.64,182.07 C52.64,181.663331 52.578334,181.376667 52.455,181.21 C52.331666,181.043332 52.1433346,180.96 51.89,180.96 C51.5833318,180.96 51.2400019,181.163331 50.86,181.57 L50.86,185 L49.71,185 L49.71,182.07 C49.71,181.663331 49.6483339,181.376667 49.525,181.21 C49.401666,181.043332 49.2100013,180.96 48.95,180.96 C48.6433318,180.96 48.3000019,181.163331 47.92,181.57 L47.92,185 L46.77,185 L46.77,180.09 Z M54.88,182.55 C54.88,182.149998 54.9433327,181.790002 55.07,181.47 C55.1966673,181.149998 55.364999,180.880001 55.575,180.66 C55.785001,180.439999 56.0266653,180.270001 56.3,180.15 C56.5733347,180.029999 56.8533319,179.97 57.14,179.97 C57.473335,179.97 57.7666654,180.026666 58.02,180.14 C58.2733346,180.253334 58.4849991,180.413332 58.655,180.62 C58.8250008,180.826668 58.9533329,181.073332 59.04,181.36 C59.1266671,181.646668 59.17,181.959998 59.17,182.3 C59.17,182.526668 59.1533335,182.706666 59.12,182.84 L56,182.84 C56.0533336,183.286669 56.208332,183.629999 56.465,183.87 C56.7216679,184.110001 57.049998,184.23 57.45,184.23 C57.6633344,184.23 57.8616657,184.198334 58.045,184.135 C58.2283342,184.071666 58.4099991,183.983334 58.59,183.87 L58.98,184.59 C58.7466655,184.743334 58.4866681,184.87 58.2,184.97 C57.9133319,185.07 57.6133349,185.12 57.3,185.12 C56.9599983,185.12 56.6433348,185.061667 56.35,184.945 C56.0566652,184.828333 55.8000011,184.660001 55.58,184.44 C55.3599989,184.219999 55.1883339,183.951668 55.065,183.635 C54.941666,183.318332 54.88,182.956669 54.88,182.55 Z M58.17,182.11 C58.17,181.716665 58.0883341,181.410001 57.925,181.19 C57.7616658,180.969999 57.5100017,180.86 57.17,180.86 C56.8766652,180.86 56.6200011,180.964999 56.4,181.175 C56.1799989,181.385001 56.0433336,181.696665 55.99,182.11 L58.17,182.11 Z M60.32,183.7 C60.5400011,183.873334 60.7583322,184.008333 60.975,184.105 C61.1916677,184.201667 61.4266654,184.25 61.68,184.25 C61.946668,184.25 62.1433327,184.195001 62.27,184.085 C62.3966673,183.974999 62.46,183.833334 62.46,183.66 C62.46,183.56 62.4300003,183.471667 62.37,183.395 C62.3099997,183.318333 62.2300005,183.25 62.13,183.19 C62.0299995,183.13 61.9166673,183.075 61.79,183.025 C61.6633327,182.975 61.5366673,182.923334 61.41,182.87 C61.2499992,182.81 61.0866675,182.74 60.92,182.66 C60.7533325,182.58 60.6050006,182.483334 60.475,182.37 C60.3449993,182.256666 60.2383337,182.125001 60.155,181.975 C60.0716662,181.824999 60.03,181.646668 60.03,181.44 C60.03,181.006664 60.1899984,180.653335 60.51,180.38 C60.8300016,180.106665 61.2666639,179.97 61.82,179.97 C62.1600017,179.97 62.4666653,180.029999 62.74,180.15 C63.0133347,180.270001 63.249999,180.406666 63.45,180.56 L62.92,181.26 C62.7466658,181.133333 62.5716676,181.031667 62.395,180.955 C62.2183324,180.878333 62.0333343,180.84 61.84,180.84 C61.5933321,180.84 61.4116672,180.891666 61.295,180.995 C61.1783327,181.098334 61.12,181.226666 61.12,181.38 C61.12,181.48 61.148333,181.565 61.205,181.635 C61.2616669,181.705 61.3366662,181.766666 61.43,181.82 C61.5233338,181.873334 61.631666,181.923333 61.755,181.97 C61.8783339,182.016667 62.006666,182.063333 62.14,182.11 C62.3066675,182.17 62.4733325,182.238333 62.64,182.315 C62.8066675,182.391667 62.9583326,182.486666 63.095,182.6 C63.2316673,182.713334 63.3416662,182.851666 63.425,183.015 C63.5083337,183.178334 63.55,183.373332 63.55,183.6 C63.55,183.813334 63.5083337,184.011666 63.425,184.195 C63.3416662,184.378334 63.2200008,184.538333 63.06,184.675 C62.8999992,184.811667 62.7000012,184.92 62.46,185 C62.2199988,185.08 61.9466682,185.12 61.64,185.12 C61.2999983,185.12 60.9650016,185.055001 60.635,184.925 C60.3049983,184.794999 60.0200012,184.633334 59.78,184.44 L60.32,183.7 Z M65.73,185.4 L65.73,186.94 L64.58,186.94 L64.58,180.09 L65.53,180.09 L65.61,180.61 L65.65,180.61 C65.8566677,180.436666 66.0866654,180.286667 66.34,180.16 C66.5933346,180.033333 66.8566653,179.97 67.13,179.97 C67.4366682,179.97 67.7083321,180.028333 67.945,180.145 C68.1816678,180.261667 68.3833325,180.429999 68.55,180.65 C68.7166675,180.870001 68.8433329,181.133332 68.93,181.44 C69.0166671,181.746668 69.06,182.089998 69.06,182.47 C69.06,182.890002 69.0016672,183.264998 68.885,183.595 C68.7683327,183.925002 68.6133343,184.201666 68.42,184.425 C68.2266657,184.648334 68.0033346,184.819999 67.75,184.94 C67.4966654,185.060001 67.2333347,185.12 66.96,185.12 C66.7466656,185.12 66.5333344,185.073334 66.32,184.98 C66.1066656,184.886666 65.900001,184.753334 65.7,184.58 L65.73,185.4 Z M65.73,183.76 C65.9100009,183.913334 66.0833325,184.02 66.25,184.08 C66.4166675,184.14 66.5733326,184.17 66.72,184.17 C67.0466683,184.17 67.3199989,184.028335 67.54,183.745 C67.7600011,183.461665 67.87,183.040003 67.87,182.48 C67.87,181.986664 67.7866675,181.603335 67.62,181.33 C67.4533325,181.056665 67.1833352,180.92 66.81,180.92 C66.4633316,180.92 66.1033352,181.103331 65.73,181.47 L65.73,183.76 Z M69.89,183.68 C69.89,183.153331 70.1199977,182.746668 70.58,182.46 C71.0400023,182.173332 71.7733283,181.973334 72.78,181.86 C72.78,181.733333 72.7633335,181.611667 72.73,181.495 C72.6966665,181.378333 72.6450003,181.275 72.575,181.185 C72.5049996,181.095 72.4150005,181.025 72.305,180.975 C72.1949994,180.925 72.0566675,180.9 71.89,180.9 C71.6433321,180.9 71.4050011,180.946666 71.175,181.04 C70.9449988,181.133334 70.7233344,181.246666 70.51,181.38 L70.09,180.61 C70.3633347,180.436666 70.6683316,180.286667 71.005,180.16 C71.3416683,180.033333 71.7066647,179.97 72.1,179.97 C72.7200031,179.97 73.1799985,180.151665 73.48,180.515 C73.7800015,180.878335 73.93,181.40333 73.93,182.09 L73.93,185 L72.99,185 L72.9,184.46 L72.87,184.46 C72.6499989,184.646668 72.4150012,184.803333 72.165,184.93 C71.9149987,185.056667 71.6433348,185.12 71.35,185.12 C70.9166645,185.12 70.5650013,184.988335 70.295,184.725 C70.0249986,184.461665 69.89,184.113336 69.89,183.68 Z M71.01,183.59 C71.01,183.810001 71.0749993,183.97 71.205,184.07 C71.3350006,184.170001 71.5033323,184.22 71.71,184.22 C71.910001,184.22 72.0933325,184.173334 72.26,184.08 C72.4266675,183.986666 72.5999991,183.853334 72.78,183.68 L72.78,182.58 C72.446665,182.62 72.1666678,182.673333 71.94,182.74 C71.7133322,182.806667 71.5316673,182.881666 71.395,182.965 C71.2583326,183.048334 71.1600003,183.143333 71.1,183.25 C71.0399997,183.356667 71.01,183.469999 71.01,183.59 Z M75.01,182.55 C75.01,182.143331 75.076666,181.780002 75.21,181.46 C75.343334,181.139998 75.5233322,180.870001 75.75,180.65 C75.9766678,180.429999 76.2383318,180.261667 76.535,180.145 C76.8316681,180.028333 77.1433317,179.97 77.47,179.97 C77.7900016,179.97 78.0683322,180.024999 78.305,180.135 C78.5416678,180.245001 78.7433325,180.379999 78.91,180.54 L78.36,181.27 C78.226666,181.156666 78.093334,181.068334 77.96,181.005 C77.826666,180.941666 77.6833341,180.91 77.53,180.91 C77.129998,180.91 76.8066679,181.058332 76.56,181.355 C76.3133321,181.651668 76.19,182.049997 76.19,182.55 C76.19,183.043336 76.3116654,183.438332 76.555,183.735 C76.7983345,184.031668 77.1133314,184.18 77.5,184.18 C77.700001,184.18 77.8849991,184.138334 78.055,184.055 C78.2250008,183.971666 78.376666,183.873334 78.51,183.76 L78.99,184.49 C78.7566655,184.696668 78.5000014,184.853333 78.22,184.96 C77.9399986,185.066667 77.6600014,185.12 77.38,185.12 C77.046665,185.12 76.7350014,185.063334 76.445,184.95 C76.1549985,184.836666 75.9033344,184.670001 75.69,184.45 C75.4766656,184.229999 75.3100006,183.960002 75.19,183.64 C75.0699994,183.319998 75.01,182.956669 75.01,182.55 Z M79.39,182.55 C79.39,182.149998 79.4533327,181.790002 79.58,181.47 C79.7066673,181.149998 79.8749989,180.880001 80.085,180.66 C80.295001,180.439999 80.5366653,180.270001 80.81,180.15 C81.0833347,180.029999 81.3633319,179.97 81.65,179.97 C81.983335,179.97 82.2766654,180.026666 82.53,180.14 C82.7833346,180.253334 82.9949991,180.413332 83.165,180.62 C83.3350009,180.826668 83.4633329,181.073332 83.55,181.36 C83.6366671,181.646668 83.68,181.959998 83.68,182.3 C83.68,182.526668 83.6633335,182.706666 83.63,182.84 L80.51,182.84 C80.5633336,183.286669 80.7183321,183.629999 80.975,183.87 C81.231668,184.110001 81.559998,184.23 81.96,184.23 C82.1733344,184.23 82.3716657,184.198334 82.555,184.135 C82.7383342,184.071666 82.9199991,183.983334 83.1,183.87 L83.49,184.59 C83.2566655,184.743334 82.9966681,184.87 82.71,184.97 C82.4233319,185.07 82.1233349,185.12 81.81,185.12 C81.4699983,185.12 81.1533348,185.061667 80.86,184.945 C80.5666652,184.828333 80.3100011,184.660001 80.09,184.44 C79.8699989,184.219999 79.698334,183.951668 79.575,183.635 C79.4516661,183.318332 79.39,182.956669 79.39,182.55 Z M82.68,182.11 C82.68,181.716665 82.5983341,181.410001 82.435,181.19 C82.2716659,180.969999 82.0200017,180.86 81.68,180.86 C81.3866652,180.86 81.1300011,180.964999 80.91,181.175 C80.6899989,181.385001 80.5533336,181.696665 80.5,182.11 L82.68,182.11 Z M84.68,180.92 C84.68,180.693332 84.751666,180.506667 84.895,180.36 C85.0383341,180.213333 85.2166656,180.14 85.43,180.14 C85.6433344,180.14 85.8199993,180.213333 85.96,180.36 C86.1000007,180.506667 86.17,180.693332 86.17,180.92 C86.17,181.146668 86.1000007,181.333333 85.96,181.48 C85.8199993,181.626667 85.6433344,181.7 85.43,181.7 C85.2166656,181.7 85.0383341,181.626667 84.895,181.48 C84.751666,181.333333 84.68,181.146668 84.68,180.92 Z M84.68,184.34 C84.68,184.113332 84.751666,183.926667 84.895,183.78 C85.0383341,183.633333 85.2166656,183.56 85.43,183.56 C85.6433344,183.56 85.8199993,183.633333 85.96,183.78 C86.1000007,183.926667 86.17,184.113332 86.17,184.34 C86.17,184.566668 86.1000007,184.753333 85.96,184.9 C85.8199993,185.046667 85.6433344,185.12 85.43,185.12 C85.2166656,185.12 85.0383341,185.046667 84.895,184.9 C84.751666,184.753333 84.68,184.566668 84.68,184.34 Z M90.07,180.94 L89.38,180.94 L89.54,180.14 L90.29,180.09 L90.68,178.77 L91.58,178.77 L91.32,180.09 L92.5,180.09 L92.33,180.94 L91.13,180.94 L90.63,183.38 C90.6099999,183.500001 90.6,183.616666 90.6,183.73 C90.6,183.910001 90.6433329,184.045 90.73,184.135 C90.8166671,184.225 90.9633323,184.27 91.17,184.27 C91.2566671,184.27 91.3366663,184.256667 91.41,184.23 C91.4833337,184.203333 91.5566663,184.173334 91.63,184.14 L91.83,184.9 C91.7099994,184.953334 91.5633342,185.003333 91.39,185.05 C91.2166658,185.096667 91.0166678,185.12 90.79,185.12 C90.3299977,185.12 90.0016677,185.005001 89.805,184.775 C89.6083324,184.544999 89.51,184.260002 89.51,183.92 C89.51,183.819999 89.5166666,183.723334 89.53,183.63 C89.5433334,183.536666 89.5566666,183.44 89.57,183.34 L90.07,180.94 Z M92.54,183.33 C92.54,182.863331 92.6133326,182.425002 92.76,182.015 C92.9066674,181.604998 93.1033321,181.248335 93.35,180.945 C93.5966679,180.641665 93.8783318,180.403334 94.195,180.23 C94.5116683,180.056666 94.8399983,179.97 95.18,179.97 C95.4200012,179.97 95.639999,180.031666 95.84,180.155 C96.040001,180.278334 96.1966661,180.446666 96.31,180.66 L96.33,180.66 L96.54,180.09 L97.4,180.09 L96.42,185 L95.54,185 L95.59,184.32 L95.56,184.32 C95.3266655,184.560001 95.0683348,184.753333 94.785,184.9 C94.5016653,185.046667 94.2200014,185.12 93.94,185.12 C93.5066645,185.12 93.1650012,184.966668 92.915,184.66 C92.6649987,184.353332 92.54,183.910003 92.54,183.33 Z M94.38,184.24 C94.5933344,184.24 94.8116656,184.176667 95.035,184.05 C95.2583345,183.923333 95.469999,183.710002 95.67,183.41 L96.07,181.45 C95.9566661,181.236666 95.828334,181.083334 95.685,180.99 C95.541666,180.896666 95.3933341,180.85 95.24,180.85 C95.0333323,180.85 94.8333343,180.911666 94.64,181.035 C94.4466657,181.158334 94.2766674,181.326666 94.13,181.54 C93.9833326,181.753334 93.8666671,182.001665 93.78,182.285 C93.6933329,182.568335 93.65,182.866665 93.65,183.18 C93.65,183.540002 93.7149993,183.806666 93.845,183.98 C93.9750006,184.153334 94.1533322,184.24 94.38,184.24 Z M98.83,180.09 L99.7,180.09 L99.61,181.04 L99.65,181.04 C99.8433343,180.733332 100.069999,180.478334 100.33,180.275 C100.590001,180.071666 100.869999,179.97 101.17,179.97 C101.363334,179.97 101.526666,180 101.66,180.06 L101.3,181 C101.24,180.966667 101.17,180.945 101.09,180.935 C101.01,180.925 100.926667,180.92 100.84,180.92 C100.606665,180.92 100.376668,181.009999 100.15,181.19 C99.9233322,181.370001 99.710001,181.649998 99.51,182.03 L98.93,185 L97.85,185 L98.83,180.09 Z M106.31,180.09 L105.31,185.07 C105.169999,185.763337 104.890002,186.288332 104.47,186.645 C104.049998,187.001668 103.513337,187.18 102.86,187.18 C102.546665,187.18 102.238335,187.120001 101.935,187 C101.631665,186.879999 101.350001,186.713334 101.09,186.5 L101.57,185.78 C101.756668,185.933334 101.959999,186.061666 102.18,186.165 C102.400001,186.268334 102.636665,186.32 102.89,186.32 C103.263335,186.32 103.563332,186.211668 103.79,185.995 C104.016668,185.778332 104.183333,185.473335 104.29,185.08 L104.53,184.17 L104.5,184.17 C104.266665,184.390001 104.021668,184.566666 103.765,184.7 C103.508332,184.833334 103.233335,184.9 102.94,184.9 C102.526665,184.9 102.185001,184.755001 101.915,184.465 C101.644999,184.174999 101.51,183.743336 101.51,183.17 C101.51,182.723331 101.581666,182.306669 101.725,181.92 C101.868334,181.533331 102.059999,181.195001 102.3,180.905 C102.540001,180.614999 102.814998,180.386667 103.125,180.22 C103.435002,180.053333 103.756665,179.97 104.09,179.97 C104.330001,179.97 104.548332,180.031666 104.745,180.155 C104.941668,180.278334 105.093333,180.446666 105.2,180.66 L105.23,180.66 L105.44,180.09 L106.31,180.09 Z M103.33,184.01 C103.523334,184.01 103.734999,183.951667 103.965,183.835 C104.195001,183.718333 104.406666,183.530001 104.6,183.27 L104.97,181.45 C104.856666,181.236666 104.730001,181.083334 104.59,180.99 C104.449999,180.896666 104.303334,180.85 104.15,180.85 C103.949999,180.85 103.758334,180.908333 103.575,181.025 C103.391666,181.141667 103.228334,181.299999 103.085,181.5 C102.941666,181.700001 102.828334,181.931665 102.745,182.195 C102.661666,182.458335 102.62,182.736665 102.62,183.03 C102.62,183.363335 102.684999,183.609999 102.815,183.77 C102.945001,183.930001 103.116666,184.01 103.33,184.01 Z M106.87,183.04 C106.87,182.579998 106.948333,182.161669 107.105,181.785 C107.261667,181.408331 107.468332,181.085001 107.725,180.815 C107.981668,180.544999 108.269998,180.336667 108.59,180.19 C108.910002,180.043333 109.229998,179.97 109.55,179.97 C109.836668,179.97 110.078332,180.016666 110.275,180.11 C110.471668,180.203334 110.631666,180.331666 110.755,180.495 C110.878334,180.658334 110.968333,180.849999 111.025,181.07 C111.081667,181.290001 111.11,181.526665 111.11,181.78 C111.11,181.993334 111.083334,182.199999 111.03,182.4 C110.976666,182.600001 110.933334,182.74 110.9,182.82 L107.91,182.82 C107.883333,183.080001 107.896666,183.303332 107.95,183.49 C108.003334,183.676668 108.084999,183.829999 108.195,183.95 C108.305001,184.070001 108.439999,184.158333 108.6,184.215 C108.760001,184.271667 108.933332,184.3 109.12,184.3 C109.293334,184.3 109.469999,184.26 109.65,184.18 C109.830001,184.1 109.986666,184.01 110.12,183.91 L110.52,184.6 C110.319999,184.740001 110.078335,184.861666 109.795,184.965 C109.511665,185.068334 109.193335,185.12 108.84,185.12 C108.546665,185.12 108.280001,185.073334 108.04,184.98 C107.799999,184.886666 107.593334,184.751668 107.42,184.575 C107.246666,184.398332 107.111667,184.181668 107.015,183.925 C106.918333,183.668332 106.87,183.373335 106.87,183.04 Z M110.17,182.14 C110.183333,182.073333 110.195,182.005 110.205,181.935 C110.215,181.865 110.22,181.79 110.22,181.71 C110.22,181.469999 110.161667,181.258334 110.045,181.075 C109.928333,180.891666 109.720001,180.8 109.42,180.8 C109.119999,180.8 108.838335,180.918332 108.575,181.155 C108.311665,181.391668 108.120001,181.719998 108,182.14 L110.17,182.14 Z M112.46,180.94 L111.77,180.94 L111.93,180.14 L112.68,180.09 L113.07,178.77 L113.97,178.77 L113.71,180.09 L114.89,180.09 L114.72,180.94 L113.52,180.94 L113.02,183.38 C113,183.500001 112.99,183.616666 112.99,183.73 C112.99,183.910001 113.033333,184.045 113.12,184.135 C113.206667,184.225 113.353332,184.27 113.56,184.27 C113.646667,184.27 113.726666,184.256667 113.8,184.23 C113.873334,184.203333 113.946666,184.173334 114.02,184.14 L114.22,184.9 C114.099999,184.953334 113.953334,185.003333 113.78,185.05 C113.606666,185.096667 113.406668,185.12 113.18,185.12 C112.719998,185.12 112.391668,185.005001 112.195,184.775 C111.998332,184.544999 111.9,184.260002 111.9,183.92 C111.9,183.819999 111.906667,183.723334 111.92,183.63 C111.933333,183.536666 111.946667,183.44 111.96,183.34 L112.46,180.94 Z M114.88,182.08 L117.15,182.08 L116.98,182.87 L114.72,182.87 L114.88,182.08 Z M118.68,180.09 L119.55,180.09 L119.5,180.78 L119.54,180.78 C119.800001,180.559999 120.068332,180.370001 120.345,180.21 C120.621668,180.049999 120.916665,179.97 121.23,179.97 C121.643335,179.97 121.939999,180.076666 122.12,180.29 C122.300001,180.503334 122.39,180.809998 122.39,181.21 C122.39,181.323334 122.385,181.433333 122.375,181.54 C122.365,181.646667 122.343333,181.766666 122.31,181.9 L121.69,185 L120.62,185 L121.22,182.04 C121.24,181.926666 121.258333,181.83 121.275,181.75 C121.291667,181.67 121.3,181.593334 121.3,181.52 C121.3,181.099998 121.093335,180.89 120.68,180.89 C120.506666,180.89 120.321668,180.949999 120.125,181.07 C119.928332,181.190001 119.700001,181.383332 119.44,181.65 L118.78,185 L117.7,185 L118.68,180.09 Z M123.45,183.66 C123.610001,183.873334 123.788332,184.036666 123.985,184.15 C124.181668,184.263334 124.389999,184.32 124.61,184.32 C124.843334,184.32 125.044999,184.258334 125.215,184.135 C125.385001,184.011666 125.47,183.860001 125.47,183.68 C125.47,183.526666 125.400001,183.395001 125.26,183.285 C125.119999,183.174999 124.896668,183.033334 124.59,182.86 C124.263332,182.679999 124.006668,182.483334 123.82,182.27 C123.633332,182.056666 123.54,181.800002 123.54,181.5 C123.54,181.279999 123.586666,181.075001 123.68,180.885 C123.773334,180.694999 123.901666,180.533334 124.065,180.4 C124.228334,180.266666 124.418332,180.161667 124.635,180.085 C124.851668,180.008333 125.083332,179.97 125.33,179.97 C125.650002,179.97 125.938332,180.036666 126.195,180.17 C126.451668,180.303334 126.676666,180.469999 126.87,180.67 L126.27,181.24 C126.143333,181.113333 126.003334,181.005 125.85,180.915 C125.696666,180.825 125.523334,180.78 125.33,180.78 C125.103332,180.78 124.916667,180.839999 124.77,180.96 C124.623333,181.080001 124.55,181.226666 124.55,181.4 C124.55,181.493334 124.573333,181.573333 124.62,181.64 C124.666667,181.706667 124.73,181.77 124.81,181.83 C124.89,181.89 124.979999,181.946666 125.08,182 C125.180001,182.053334 125.283333,182.11 125.39,182.17 C125.756668,182.363334 126.029999,182.566666 126.21,182.78 C126.390001,182.993334 126.48,183.249999 126.48,183.55 C126.48,183.790001 126.431667,184.006666 126.335,184.2 C126.238333,184.393334 126.103334,184.558333 125.93,184.695 C125.756666,184.831667 125.550001,184.936666 125.31,185.01 C125.069999,185.083334 124.810001,185.12 124.53,185.12 C124.376666,185.12 124.218334,185.096667 124.055,185.05 C123.891666,185.003333 123.733334,184.94 123.58,184.86 C123.426666,184.78 123.283334,184.681667 123.15,184.565 C123.016666,184.448333 122.903334,184.320001 122.81,184.18 L123.45,183.66 Z" id="namespace:-target-ns" fill="#872C6C"></path>
                <g id="Group-Copy-6" opacity="0" transform="translate(199.799988, 20.000000)">
                    <circle id="Oval-1-Copy-32" stroke="#FFFFFF" fill="#6EC654" cx="21" cy="9.763" r="9"></circle>
                    <text id="P-Copy-27" font-family="SourceSansPro-Semibold, Source Sans Pro" font-size="13" font-weight="500" fill="#FFFFFF">
                        <tspan x="5" y="13.026">P</tspan>
                    </text>
                    <circle id="Oval-1-Copy-30" stroke="#FFFFFF" fill="#6EC654" cx="15" cy="9.763" r="9"></circle>
                    <circle id="Oval-1-Copy-31" stroke="#FFFFFF" fill="#6EC654" cx="9" cy="9.763" r="9"></circle>
                    <text id="P-Copy-29" font-family="SourceSansPro-Semibold, Source Sans Pro" font-size="13" font-weight="500" fill="#FFFFFF">
                        <tspan x="6" y="14.026">P</tspan>
                    </text>
                </g>
                <g id="Group-Copy-6" opacity="0" transform="translate(199.799988, 90.000000)">
                    <circle id="Oval-1-Copy-32" stroke="#FFFFFF" fill="#F35D6B" cx="21" cy="9.763" r="9"></circle>
                    <text id="P-Copy-27" font-family="SourceSansPro-Semibold, Source Sans Pro" font-size="13" font-weight="500" fill="#FFFFFF">
                        <tspan x="5" y="13.026">P</tspan>
                    </text>
                    <circle id="Oval-1-Copy-30" stroke="#FFFFFF" fill="#F35D6B" cx="15" cy="9.763" r="9"></circle>
                    <circle id="Oval-1-Copy-31" stroke="#FFFFFF" fill="#F35D6B" cx="9" cy="9.763" r="9"></circle>
                    <text id="P-Copy-29" font-family="SourceSansPro-Semibold, Source Sans Pro" font-size="13" font-weight="500" fill="#FFFFFF">
                        <tspan x="6" y="14.026">P</tspan>
                    </text>
                </g>
                <text id="P-Copy-27" font-family="SourceSansPro-Semibold, Source Sans Pro" font-size="13" font-weight="500" fill="#FFFFFF">
                    <tspan x="39.7999878" y="68.026">P</tspan>
                </text>
                <path d="M141,0 L141.000018,187" id="Line-2" stroke="#CCCCCC" stroke-width="0.5" stroke-linecap="square"></path>
                <path d="M156.41,182.55 C156.41,182.143331 156.473333,181.780002 156.6,181.46 C156.726667,181.139998 156.898332,180.870001 157.115,180.65 C157.331668,180.429999 157.579999,180.261667 157.86,180.145 C158.140001,180.028333 158.433332,179.97 158.74,179.97 C159.046668,179.97 159.341665,180.028333 159.625,180.145 C159.908335,180.261667 160.156666,180.429999 160.37,180.65 C160.583334,180.870001 160.754999,181.139998 160.885,181.46 C161.015001,181.780002 161.08,182.143331 161.08,182.55 C161.08,182.956669 161.015001,183.319998 160.885,183.64 C160.754999,183.960002 160.583334,184.229999 160.37,184.45 C160.156666,184.670001 159.908335,184.836666 159.625,184.95 C159.341665,185.063334 159.046668,185.12 158.74,185.12 C158.433332,185.12 158.140001,185.063334 157.86,184.95 C157.579999,184.836666 157.331668,184.670001 157.115,184.45 C156.898332,184.229999 156.726667,183.960002 156.6,183.64 C156.473333,183.319998 156.41,182.956669 156.41,182.55 Z M157.59,182.55 C157.59,183.043336 157.691666,183.438332 157.895,183.735 C158.098334,184.031668 158.379998,184.18 158.74,184.18 C159.100002,184.18 159.383332,184.031668 159.59,183.735 C159.796668,183.438332 159.9,183.043336 159.9,182.55 C159.9,182.049997 159.796668,181.651668 159.59,181.355 C159.383332,181.058332 159.100002,180.91 158.74,180.91 C158.379998,180.91 158.098334,181.058332 157.895,181.355 C157.691666,181.651668 157.59,182.049997 157.59,182.55 Z M162.39,181 L161.69,181 L161.69,180.14 L162.45,180.09 L162.59,178.75 L163.55,178.75 L163.55,180.09 L164.8,180.09 L164.8,181 L163.55,181 L163.55,183.34 C163.55,183.913336 163.779998,184.2 164.24,184.2 C164.326667,184.2 164.415,184.19 164.505,184.17 C164.595,184.15 164.676666,184.123334 164.75,184.09 L164.95,184.94 C164.816666,184.986667 164.665001,185.028333 164.495,185.065 C164.324999,185.101667 164.143334,185.12 163.95,185.12 C163.663332,185.12 163.421668,185.076667 163.225,184.99 C163.028332,184.903333 162.868334,184.781667 162.745,184.625 C162.621666,184.468333 162.531667,184.281668 162.475,184.065 C162.418333,183.848332 162.39,183.606668 162.39,183.34 L162.39,181 Z M165.83,177.94 L166.98,177.94 L166.98,179.76 L166.94,180.71 C167.146668,180.516666 167.374999,180.345001 167.625,180.195 C167.875001,180.044999 168.169998,179.97 168.51,179.97 C169.036669,179.97 169.419999,180.138332 169.66,180.475 C169.900001,180.811668 170.02,181.29333 170.02,181.92 L170.02,185 L168.87,185 L168.87,182.07 C168.87,181.663331 168.810001,181.376667 168.69,181.21 C168.569999,181.043332 168.373335,180.96 168.1,180.96 C167.886666,180.96 167.698334,181.011666 167.535,181.115 C167.371666,181.218334 167.186668,181.369999 166.98,181.57 L166.98,185 L165.83,185 L165.83,177.94 Z M171.09,182.55 C171.09,182.149998 171.153333,181.790002 171.28,181.47 C171.406667,181.149998 171.574999,180.880001 171.785,180.66 C171.995001,180.439999 172.236665,180.270001 172.51,180.15 C172.783335,180.029999 173.063332,179.97 173.35,179.97 C173.683335,179.97 173.976665,180.026666 174.23,180.14 C174.483335,180.253334 174.694999,180.413332 174.865,180.62 C175.035001,180.826668 175.163333,181.073332 175.25,181.36 C175.336667,181.646668 175.38,181.959998 175.38,182.3 C175.38,182.526668 175.363334,182.706666 175.33,182.84 L172.21,182.84 C172.263334,183.286669 172.418332,183.629999 172.675,183.87 C172.931668,184.110001 173.259998,184.23 173.66,184.23 C173.873334,184.23 174.071666,184.198334 174.255,184.135 C174.438334,184.071666 174.619999,183.983334 174.8,183.87 L175.19,184.59 C174.956665,184.743334 174.696668,184.87 174.41,184.97 C174.123332,185.07 173.823335,185.12 173.51,185.12 C173.169998,185.12 172.853335,185.061667 172.56,184.945 C172.266665,184.828333 172.010001,184.660001 171.79,184.44 C171.569999,184.219999 171.398334,183.951668 171.275,183.635 C171.151666,183.318332 171.09,182.956669 171.09,182.55 Z M174.38,182.11 C174.38,181.716665 174.298334,181.410001 174.135,181.19 C173.971666,180.969999 173.720002,180.86 173.38,180.86 C173.086665,180.86 172.830001,180.964999 172.61,181.175 C172.389999,181.385001 172.253334,181.696665 172.2,182.11 L174.38,182.11 Z M176.48,180.09 L177.43,180.09 L177.51,180.96 L177.55,180.96 C177.723334,180.639998 177.933332,180.395001 178.18,180.225 C178.426668,180.054999 178.679999,179.97 178.94,179.97 C179.173335,179.97 179.359999,180.003333 179.5,180.07 L179.3,181.07 C179.213333,181.043333 179.133334,181.023333 179.06,181.01 C178.986666,180.996667 178.896667,180.99 178.79,180.99 C178.596666,180.99 178.393334,181.064999 178.18,181.215 C177.966666,181.365001 177.783334,181.626665 177.63,182 L177.63,185 L176.48,185 L176.48,180.09 Z M182.26,180.09 L183.21,180.09 L183.29,180.75 L183.33,180.75 C183.550001,180.536666 183.788332,180.353334 184.045,180.2 C184.301668,180.046666 184.599998,179.97 184.94,179.97 C185.466669,179.97 185.849999,180.138332 186.09,180.475 C186.330001,180.811668 186.45,181.29333 186.45,181.92 L186.45,185 L185.3,185 L185.3,182.07 C185.3,181.663331 185.240001,181.376667 185.12,181.21 C184.999999,181.043332 184.803335,180.96 184.53,180.96 C184.316666,180.96 184.128334,181.011666 183.965,181.115 C183.801666,181.218334 183.616668,181.369999 183.41,181.57 L183.41,185 L182.26,185 L182.26,180.09 Z M187.65,183.68 C187.65,183.153331 187.879998,182.746668 188.34,182.46 C188.800002,182.173332 189.533328,181.973334 190.54,181.86 C190.54,181.733333 190.523334,181.611667 190.49,181.495 C190.456667,181.378333 190.405,181.275 190.335,181.185 C190.265,181.095 190.175001,181.025 190.065,180.975 C189.954999,180.925 189.816667,180.9 189.65,180.9 C189.403332,180.9 189.165001,180.946666 188.935,181.04 C188.704999,181.133334 188.483334,181.246666 188.27,181.38 L187.85,180.61 C188.123335,180.436666 188.428332,180.286667 188.765,180.16 C189.101668,180.033333 189.466665,179.97 189.86,179.97 C190.480003,179.97 190.939999,180.151665 191.24,180.515 C191.540002,180.878335 191.69,181.40333 191.69,182.09 L191.69,185 L190.75,185 L190.66,184.46 L190.63,184.46 C190.409999,184.646668 190.175001,184.803333 189.925,184.93 C189.674999,185.056667 189.403335,185.12 189.11,185.12 C188.676665,185.12 188.325001,184.988335 188.055,184.725 C187.784999,184.461665 187.65,184.113336 187.65,183.68 Z M188.77,183.59 C188.77,183.810001 188.834999,183.97 188.965,184.07 C189.095001,184.170001 189.263332,184.22 189.47,184.22 C189.670001,184.22 189.853332,184.173334 190.02,184.08 C190.186667,183.986666 190.359999,183.853334 190.54,183.68 L190.54,182.58 C190.206665,182.62 189.926668,182.673333 189.7,182.74 C189.473332,182.806667 189.291667,182.881666 189.155,182.965 C189.018333,183.048334 188.92,183.143333 188.86,183.25 C188.8,183.356667 188.77,183.469999 188.77,183.59 Z M193.09,180.09 L194.04,180.09 L194.12,180.76 L194.16,180.76 C194.366668,180.539999 194.591665,180.353334 194.835,180.2 C195.078335,180.046666 195.353332,179.97 195.66,179.97 C196.020002,179.97 196.308332,180.046666 196.525,180.2 C196.741668,180.353334 196.906666,180.569999 197.02,180.85 C197.253334,180.596665 197.496665,180.386667 197.75,180.22 C198.003335,180.053333 198.286665,179.97 198.6,179.97 C199.120003,179.97 199.503332,180.138332 199.75,180.475 C199.996668,180.811668 200.12,181.29333 200.12,181.92 L200.12,185 L198.96,185 L198.96,182.07 C198.96,181.663331 198.898334,181.376667 198.775,181.21 C198.651666,181.043332 198.463335,180.96 198.21,180.96 C197.903332,180.96 197.560002,181.163331 197.18,181.57 L197.18,185 L196.03,185 L196.03,182.07 C196.03,181.663331 195.968334,181.376667 195.845,181.21 C195.721666,181.043332 195.530001,180.96 195.27,180.96 C194.963332,180.96 194.620002,181.163331 194.24,181.57 L194.24,185 L193.09,185 L193.09,180.09 Z M201.2,182.55 C201.2,182.149998 201.263333,181.790002 201.39,181.47 C201.516667,181.149998 201.684999,180.880001 201.895,180.66 C202.105001,180.439999 202.346665,180.270001 202.62,180.15 C202.893335,180.029999 203.173332,179.97 203.46,179.97 C203.793335,179.97 204.086665,180.026666 204.34,180.14 C204.593335,180.253334 204.804999,180.413332 204.975,180.62 C205.145001,180.826668 205.273333,181.073332 205.36,181.36 C205.446667,181.646668 205.49,181.959998 205.49,182.3 C205.49,182.526668 205.473333,182.706666 205.44,182.84 L202.32,182.84 C202.373334,183.286669 202.528332,183.629999 202.785,183.87 C203.041668,184.110001 203.369998,184.23 203.77,184.23 C203.983334,184.23 204.181666,184.198334 204.365,184.135 C204.548334,184.071666 204.729999,183.983334 204.91,183.87 L205.3,184.59 C205.066665,184.743334 204.806668,184.87 204.52,184.97 C204.233332,185.07 203.933335,185.12 203.62,185.12 C203.279998,185.12 202.963335,185.061667 202.67,184.945 C202.376665,184.828333 202.120001,184.660001 201.9,184.44 C201.679999,184.219999 201.508334,183.951668 201.385,183.635 C201.261666,183.318332 201.2,182.956669 201.2,182.55 Z M204.49,182.11 C204.49,181.716665 204.408334,181.410001 204.245,181.19 C204.081666,180.969999 203.830002,180.86 203.49,180.86 C203.196665,180.86 202.940001,180.964999 202.72,181.175 C202.499999,181.385001 202.363334,181.696665 202.31,182.11 L204.49,182.11 Z M206.64,183.7 C206.860001,183.873334 207.078332,184.008333 207.295,184.105 C207.511668,184.201667 207.746665,184.25 208,184.25 C208.266668,184.25 208.463333,184.195001 208.59,184.085 C208.716667,183.974999 208.78,183.833334 208.78,183.66 C208.78,183.56 208.75,183.471667 208.69,183.395 C208.63,183.318333 208.550001,183.25 208.45,183.19 C208.349999,183.13 208.236667,183.075 208.11,183.025 C207.983333,182.975 207.856667,182.923334 207.73,182.87 C207.569999,182.81 207.406667,182.74 207.24,182.66 C207.073332,182.58 206.925001,182.483334 206.795,182.37 C206.664999,182.256666 206.558334,182.125001 206.475,181.975 C206.391666,181.824999 206.35,181.646668 206.35,181.44 C206.35,181.006664 206.509998,180.653335 206.83,180.38 C207.150002,180.106665 207.586664,179.97 208.14,179.97 C208.480002,179.97 208.786665,180.029999 209.06,180.15 C209.333335,180.270001 209.569999,180.406666 209.77,180.56 L209.24,181.26 C209.066666,181.133333 208.891668,181.031667 208.715,180.955 C208.538332,180.878333 208.353334,180.84 208.16,180.84 C207.913332,180.84 207.731667,180.891666 207.615,180.995 C207.498333,181.098334 207.44,181.226666 207.44,181.38 C207.44,181.48 207.468333,181.565 207.525,181.635 C207.581667,181.705 207.656666,181.766666 207.75,181.82 C207.843334,181.873334 207.951666,181.923333 208.075,181.97 C208.198334,182.016667 208.326666,182.063333 208.46,182.11 C208.626667,182.17 208.793333,182.238333 208.96,182.315 C209.126667,182.391667 209.278333,182.486666 209.415,182.6 C209.551667,182.713334 209.661666,182.851666 209.745,183.015 C209.828334,183.178334 209.87,183.373332 209.87,183.6 C209.87,183.813334 209.828334,184.011666 209.745,184.195 C209.661666,184.378334 209.540001,184.538333 209.38,184.675 C209.219999,184.811667 209.020001,184.92 208.78,185 C208.539999,185.08 208.266668,185.12 207.96,185.12 C207.619998,185.12 207.285002,185.055001 206.955,184.925 C206.624998,184.794999 206.340001,184.633334 206.1,184.44 L206.64,183.7 Z M212.05,185.4 L212.05,186.94 L210.9,186.94 L210.9,180.09 L211.85,180.09 L211.93,180.61 L211.97,180.61 C212.176668,180.436666 212.406665,180.286667 212.66,180.16 C212.913335,180.033333 213.176665,179.97 213.45,179.97 C213.756668,179.97 214.028332,180.028333 214.265,180.145 C214.501668,180.261667 214.703332,180.429999 214.87,180.65 C215.036667,180.870001 215.163333,181.133332 215.25,181.44 C215.336667,181.746668 215.38,182.089998 215.38,182.47 C215.38,182.890002 215.321667,183.264998 215.205,183.595 C215.088333,183.925002 214.933334,184.201666 214.74,184.425 C214.546666,184.648334 214.323335,184.819999 214.07,184.94 C213.816665,185.060001 213.553335,185.12 213.28,185.12 C213.066666,185.12 212.853334,185.073334 212.64,184.98 C212.426666,184.886666 212.220001,184.753334 212.02,184.58 L212.05,185.4 Z M212.05,183.76 C212.230001,183.913334 212.403333,184.02 212.57,184.08 C212.736668,184.14 212.893333,184.17 213.04,184.17 C213.366668,184.17 213.639999,184.028335 213.86,183.745 C214.080001,183.461665 214.19,183.040003 214.19,182.48 C214.19,181.986664 214.106668,181.603335 213.94,181.33 C213.773333,181.056665 213.503335,180.92 213.13,180.92 C212.783332,180.92 212.423335,181.103331 212.05,181.47 L212.05,183.76 Z M216.21,183.68 C216.21,183.153331 216.439998,182.746668 216.9,182.46 C217.360002,182.173332 218.093328,181.973334 219.1,181.86 C219.1,181.733333 219.083333,181.611667 219.05,181.495 C219.016666,181.378333 218.965,181.275 218.895,181.185 C218.825,181.095 218.735001,181.025 218.625,180.975 C218.514999,180.925 218.376667,180.9 218.21,180.9 C217.963332,180.9 217.725001,180.946666 217.495,181.04 C217.264999,181.133334 217.043334,181.246666 216.83,181.38 L216.41,180.61 C216.683335,180.436666 216.988332,180.286667 217.325,180.16 C217.661668,180.033333 218.026665,179.97 218.42,179.97 C219.040003,179.97 219.499999,180.151665 219.8,180.515 C220.100002,180.878335 220.25,181.40333 220.25,182.09 L220.25,185 L219.31,185 L219.22,184.46 L219.19,184.46 C218.969999,184.646668 218.735001,184.803333 218.485,184.93 C218.234999,185.056667 217.963335,185.12 217.67,185.12 C217.236664,185.12 216.885001,184.988335 216.615,184.725 C216.344999,184.461665 216.21,184.113336 216.21,183.68 Z M217.33,183.59 C217.33,183.810001 217.394999,183.97 217.525,184.07 C217.655001,184.170001 217.823332,184.22 218.03,184.22 C218.230001,184.22 218.413332,184.173334 218.58,184.08 C218.746668,183.986666 218.919999,183.853334 219.1,183.68 L219.1,182.58 C218.766665,182.62 218.486668,182.673333 218.26,182.74 C218.033332,182.806667 217.851667,182.881666 217.715,182.965 C217.578333,183.048334 217.48,183.143333 217.42,183.25 C217.36,183.356667 217.33,183.469999 217.33,183.59 Z M221.33,182.55 C221.33,182.143331 221.396666,181.780002 221.53,181.46 C221.663334,181.139998 221.843332,180.870001 222.07,180.65 C222.296668,180.429999 222.558332,180.261667 222.855,180.145 C223.151668,180.028333 223.463332,179.97 223.79,179.97 C224.110002,179.97 224.388332,180.024999 224.625,180.135 C224.861668,180.245001 225.063333,180.379999 225.23,180.54 L224.68,181.27 C224.546666,181.156666 224.413334,181.068334 224.28,181.005 C224.146666,180.941666 224.003334,180.91 223.85,180.91 C223.449998,180.91 223.126668,181.058332 222.88,181.355 C222.633332,181.651668 222.51,182.049997 222.51,182.55 C222.51,183.043336 222.631665,183.438332 222.875,183.735 C223.118335,184.031668 223.433331,184.18 223.82,184.18 C224.020001,184.18 224.204999,184.138334 224.375,184.055 C224.545001,183.971666 224.696666,183.873334 224.83,183.76 L225.31,184.49 C225.076665,184.696668 224.820001,184.853333 224.54,184.96 C224.259999,185.066667 223.980001,185.12 223.7,185.12 C223.366665,185.12 223.055001,185.063334 222.765,184.95 C222.474999,184.836666 222.223334,184.670001 222.01,184.45 C221.796666,184.229999 221.630001,183.960002 221.51,183.64 C221.389999,183.319998 221.33,182.956669 221.33,182.55 Z M225.71,182.55 C225.71,182.149998 225.773333,181.790002 225.9,181.47 C226.026667,181.149998 226.194999,180.880001 226.405,180.66 C226.615001,180.439999 226.856665,180.270001 227.13,180.15 C227.403335,180.029999 227.683332,179.97 227.97,179.97 C228.303335,179.97 228.596665,180.026666 228.85,180.14 C229.103335,180.253334 229.314999,180.413332 229.485,180.62 C229.655001,180.826668 229.783333,181.073332 229.87,181.36 C229.956667,181.646668 230,181.959998 230,182.3 C230,182.526668 229.983334,182.706666 229.95,182.84 L226.83,182.84 C226.883334,183.286669 227.038332,183.629999 227.295,183.87 C227.551668,184.110001 227.879998,184.23 228.28,184.23 C228.493334,184.23 228.691666,184.198334 228.875,184.135 C229.058334,184.071666 229.239999,183.983334 229.42,183.87 L229.81,184.59 C229.576665,184.743334 229.316668,184.87 229.03,184.97 C228.743332,185.07 228.443335,185.12 228.13,185.12 C227.789998,185.12 227.473335,185.061667 227.18,184.945 C226.886665,184.828333 226.630001,184.660001 226.41,184.44 C226.189999,184.219999 226.018334,183.951668 225.895,183.635 C225.771666,183.318332 225.71,182.956669 225.71,182.55 Z M229,182.11 C229,181.716665 228.918334,181.410001 228.755,181.19 C228.591666,180.969999 228.340002,180.86 228,180.86 C227.706665,180.86 227.450001,180.964999 227.23,181.175 C227.009999,181.385001 226.873334,181.696665 226.82,182.11 L229,182.11 Z M231.15,183.7 C231.370001,183.873334 231.588332,184.008333 231.805,184.105 C232.021668,184.201667 232.256665,184.25 232.51,184.25 C232.776668,184.25 232.973333,184.195001 233.1,184.085 C233.226667,183.974999 233.29,183.833334 233.29,183.66 C233.29,183.56 233.26,183.471667 233.2,183.395 C233.14,183.318333 233.060001,183.25 232.96,183.19 C232.86,183.13 232.746667,183.075 232.62,183.025 C232.493333,182.975 232.366667,182.923334 232.24,182.87 C232.079999,182.81 231.916668,182.74 231.75,182.66 C231.583332,182.58 231.435001,182.483334 231.305,182.37 C231.174999,182.256666 231.068334,182.125001 230.985,181.975 C230.901666,181.824999 230.86,181.646668 230.86,181.44 C230.86,181.006664 231.019998,180.653335 231.34,180.38 C231.660002,180.106665 232.096664,179.97 232.65,179.97 C232.990002,179.97 233.296665,180.029999 233.57,180.15 C233.843335,180.270001 234.079999,180.406666 234.28,180.56 L233.75,181.26 C233.576666,181.133333 233.401668,181.031667 233.225,180.955 C233.048332,180.878333 232.863334,180.84 232.67,180.84 C232.423332,180.84 232.241667,180.891666 232.125,180.995 C232.008333,181.098334 231.95,181.226666 231.95,181.38 C231.95,181.48 231.978333,181.565 232.035,181.635 C232.091667,181.705 232.166666,181.766666 232.26,181.82 C232.353334,181.873334 232.461666,181.923333 232.585,181.97 C232.708334,182.016667 232.836666,182.063333 232.97,182.11 C233.136667,182.17 233.303333,182.238333 233.47,182.315 C233.636667,182.391667 233.788333,182.486666 233.925,182.6 C234.061667,182.713334 234.171666,182.851666 234.255,183.015 C234.338334,183.178334 234.38,183.373332 234.38,183.6 C234.38,183.813334 234.338334,184.011666 234.255,184.195 C234.171666,184.378334 234.050001,184.538333 233.89,184.675 C233.729999,184.811667 233.530001,184.92 233.29,185 C233.049999,185.08 232.776668,185.12 232.47,185.12 C232.129998,185.12 231.795002,185.055001 231.465,184.925 C231.134998,184.794999 230.850001,184.633334 230.61,184.44 L231.15,183.7 Z" id="other-namespaces" fill="#999999"></path>
                <g id="Group-3" transform="translate(34.000000, 37.000000)">
                    <g id="Group-5" transform="translate(122.000000, 39.000000)">
                        <path d="M0.803,4.599 L1.848,4.599 L1.936,5.325 L1.98,5.325 C2.22200121,5.09033216 2.48416525,4.88866751 2.7665,4.72 C3.04883474,4.55133249 3.37699813,4.467 3.751,4.467 C4.33033623,4.467 4.75199868,4.65216481 5.016,5.0225 C5.28000132,5.39283518 5.412,5.92266322 5.412,6.612 L5.412,10 L4.147,10 L4.147,6.777 C4.147,6.32966443 4.08100066,6.01433425 3.949,5.831 C3.81699934,5.64766575 3.60066817,5.556 3.3,5.556 C3.06533216,5.556 2.85816756,5.61283276 2.6785,5.7265 C2.49883243,5.84016723 2.29533447,6.0069989 2.068,6.227 L2.068,10 L0.803,10 L0.803,4.599 Z M6.732,8.548 C6.732,7.96866377 6.98499747,7.52133491 7.491,7.206 C7.99700253,6.89066509 8.80366113,6.67066729 9.911,6.546 C9.911,6.40666597 9.89266685,6.27283397 9.856,6.1445 C9.81933315,6.01616602 9.76250038,5.90250049 9.6855,5.8035 C9.60849961,5.7044995 9.5095006,5.62750027 9.3885,5.5725 C9.26749939,5.51749972 9.11533425,5.49 8.932,5.49 C8.66066531,5.49 8.39850126,5.54133282 8.1455,5.644 C7.89249873,5.74666718 7.64866784,5.8713326 7.414,6.018 L6.952,5.171 C7.25266817,4.98033238 7.58816481,4.81533403 7.9585,4.676 C8.32883518,4.53666597 8.73033117,4.467 9.163,4.467 C9.84500341,4.467 10.3509983,4.66683133 10.681,5.0665 C11.0110016,5.46616866 11.176,6.04366289 11.176,6.799 L11.176,10 L10.142,10 L10.043,9.406 L10.01,9.406 C9.76799879,9.61133436 9.50950137,9.78366597 9.2345,9.923 C8.95949862,10.062334 8.66066828,10.132 8.338,10.132 C7.86133095,10.132 7.47450148,9.98716811 7.1775,9.6975 C6.88049851,9.40783188 6.732,9.02466905 6.732,8.548 Z M7.964,8.449 C7.964,8.69100121 8.03549928,8.86699945 8.1785,8.977 C8.32150071,9.08700055 8.50666553,9.142 8.734,9.142 C8.9540011,9.142 9.15566575,9.09066718 9.339,8.988 C9.52233425,8.88533282 9.71299901,8.73866762 9.911,8.548 L9.911,7.338 C9.5443315,7.38200022 9.23633458,7.4406663 8.987,7.514 C8.73766542,7.5873337 8.53783409,7.66983287 8.3875,7.7615 C8.23716591,7.85316712 8.12900033,7.95766608 8.063,8.075 C7.99699967,8.19233392 7.964,8.31699934 7.964,8.449 Z M12.716,4.599 L13.761,4.599 L13.849,5.336 L13.893,5.336 C14.1203345,5.09399879 14.367832,4.88866751 14.6355,4.72 C14.903168,4.55133249 15.205665,4.467 15.543,4.467 C15.939002,4.467 16.2561655,4.55133249 16.4945,4.72 C16.7328345,4.88866751 16.9143327,5.12699846 17.039,5.435 C17.2956679,5.15633194 17.5633319,4.92533425 17.842,4.742 C18.1206681,4.55866575 18.4323316,4.467 18.777,4.467 C19.3490029,4.467 19.7706653,4.65216481 20.042,5.0225 C20.3133347,5.39283518 20.449,5.92266322 20.449,6.612 L20.449,10 L19.173,10 L19.173,6.777 C19.173,6.32966443 19.1051673,6.01433425 18.9695,5.831 C18.8338327,5.64766575 18.6266681,5.556 18.348,5.556 C18.010665,5.556 17.6330021,5.77966443 17.215,6.227 L17.215,10 L15.95,10 L15.95,6.777 C15.95,6.32966443 15.8821673,6.01433425 15.7465,5.831 C15.6108327,5.64766575 15.4000014,5.556 15.114,5.556 C14.776665,5.556 14.3990021,5.77966443 13.981,6.227 L13.981,10 L12.716,10 L12.716,4.599 Z M21.637,7.305 C21.637,6.8649978 21.706666,6.46900176 21.846,6.117 C21.985334,5.76499824 22.1704988,5.46800121 22.4015,5.226 C22.6325012,4.98399879 22.8983318,4.79700066 23.199,4.665 C23.4996682,4.53299934 23.8076651,4.467 24.123,4.467 C24.4896685,4.467 24.8123319,4.52933271 25.091,4.654 C25.3696681,4.77866729 25.6024991,4.95466553 25.7895,5.182 C25.9765009,5.40933447 26.1176662,5.68066509 26.213,5.996 C26.3083338,6.31133491 26.356,6.65599813 26.356,7.03 C26.356,7.27933458 26.3376668,7.4773326 26.301,7.624 L22.869,7.624 C22.927667,8.11533579 23.0981653,8.49299868 23.3805,8.757 C23.6628347,9.02100132 24.0239978,9.153 24.464,9.153 C24.6986678,9.153 24.9168323,9.11816701 25.1185,9.0485 C25.3201677,8.97883298 25.519999,8.88166729 25.718,8.757 L26.147,9.549 C25.890332,9.71766751 25.6043349,9.85699945 25.289,9.967 C24.9736651,10.0770005 24.6436684,10.132 24.299,10.132 C23.9249981,10.132 23.5766683,10.067834 23.254,9.9395 C22.9313317,9.81116602 22.6490012,9.62600121 22.407,9.384 C22.1649988,9.14199879 21.9761673,8.84683507 21.8405,8.4985 C21.7048327,8.15016492 21.637,7.75233557 21.637,7.305 Z M25.256,6.821 C25.256,6.38833117 25.1661676,6.05100121 24.9865,5.809 C24.8068324,5.56699879 24.5300019,5.446 24.156,5.446 C23.8333317,5.446 23.5510012,5.56149884 23.309,5.7925 C23.0669988,6.02350115 22.916667,6.36633106 22.858,6.821 L25.256,6.821 Z M27.621,8.57 C27.8630012,8.76066762 28.1031655,8.90916613 28.3415,9.0155 C28.5798345,9.12183386 28.8383319,9.175 29.117,9.175 C29.4103348,9.175 29.626666,9.1145006 29.766,8.9935 C29.905334,8.87249939 29.975,8.71666762 29.975,8.526 C29.975,8.41599945 29.9420003,8.31883375 29.876,8.2345 C29.8099997,8.15016624 29.7220005,8.07500033 29.612,8.009 C29.5019994,7.94299967 29.377334,7.88250027 29.238,7.8275 C29.098666,7.77249972 28.959334,7.71566696 28.82,7.657 C28.6439991,7.59099967 28.4643342,7.51400044 28.281,7.426 C28.0976657,7.33799956 27.9345007,7.23166729 27.7915,7.107 C27.6484993,6.98233271 27.5311671,6.83750082 27.4395,6.6725 C27.3478329,6.50749917 27.302,6.31133447 27.302,6.084 C27.302,5.60733095 27.4779982,5.21866817 27.83,4.918 C28.1820018,4.61733183 28.6623303,4.467 29.271,4.467 C29.6450019,4.467 29.9823318,4.53299934 30.283,4.665 C30.5836682,4.79700066 30.8439989,4.94733249 31.064,5.116 L30.481,5.886 C30.2903324,5.74666597 30.0978343,5.63483375 29.9035,5.5505 C29.7091657,5.46616624 29.5056677,5.424 29.293,5.424 C29.0216653,5.424 28.821834,5.48083276 28.6935,5.5945 C28.565166,5.70816723 28.501,5.84933249 28.501,6.018 C28.501,6.12800055 28.5321664,6.22149961 28.5945,6.2985 C28.6568336,6.37550038 28.7393328,6.44333304 28.842,6.502 C28.9446672,6.56066696 29.0638327,6.61566641 29.1995,6.667 C29.3351673,6.71833359 29.4763326,6.76966641 29.623,6.821 C29.8063342,6.88700033 29.9896657,6.96216624 30.173,7.0465 C30.3563342,7.13083375 30.5231659,7.23533271 30.6735,7.36 C30.8238341,7.48466729 30.9448329,7.63683243 31.0365,7.8165 C31.1281671,7.99616756 31.174,8.21066542 31.174,8.46 C31.174,8.69466784 31.1281671,8.91283232 31.0365,9.1145 C30.9448329,9.31616767 30.8110009,9.49216591 30.635,9.6425 C30.4589991,9.79283408 30.2390013,9.91199956 29.975,10 C29.7109987,10.0880004 29.410335,10.132 29.073,10.132 C28.6989981,10.132 28.3305018,10.0605007 27.9675,9.9175 C27.6044982,9.77449928 27.2910013,9.59666773 27.027,9.384 L27.621,8.57 Z M33.572,10.44 L33.572,12.134 L32.307,12.134 L32.307,4.599 L33.352,4.599 L33.44,5.171 L33.484,5.171 C33.7113345,4.98033238 33.9643319,4.81533403 34.243,4.676 C34.5216681,4.53666597 34.8113318,4.467 35.112,4.467 C35.449335,4.467 35.7481654,4.53116602 36.0085,4.6595 C36.2688346,4.78783397 36.4906658,4.97299879 36.674,5.215 C36.8573342,5.45700121 36.9966662,5.74666498 37.092,6.084 C37.1873338,6.42133502 37.235,6.79899791 37.235,7.217 C37.235,7.67900231 37.170834,8.09149818 37.0425,8.4545 C36.914166,8.81750181 36.7436677,9.1218321 36.531,9.3675 C36.3183323,9.61316789 36.0726681,9.80199934 35.794,9.934 C35.5153319,10.0660007 35.2256682,10.132 34.925,10.132 C34.6903322,10.132 34.4556678,10.0806672 34.221,9.978 C33.9863322,9.87533282 33.7590011,9.72866762 33.539,9.538 L33.572,10.44 Z M33.572,8.636 C33.770001,8.80466751 33.9606657,8.92199967 34.144,8.988 C34.3273342,9.05400033 34.4996659,9.087 34.661,9.087 C35.0203351,9.087 35.3209988,8.93116822 35.563,8.6195 C35.8050012,8.30783177 35.926,7.84400308 35.926,7.228 C35.926,6.68533062 35.8343342,6.26366817 35.651,5.963 C35.4676657,5.66233183 35.1706687,5.512 34.76,5.512 C34.3786648,5.512 33.9826687,5.71366465 33.572,6.117 L33.572,8.636 Z M38.148,8.548 C38.148,7.96866377 38.4009975,7.52133491 38.907,7.206 C39.4130025,6.89066509 40.2196611,6.67066729 41.327,6.546 C41.327,6.40666597 41.3086669,6.27283397 41.272,6.1445 C41.2353331,6.01616602 41.1785004,5.90250049 41.1015,5.8035 C41.0244996,5.7044995 40.9255006,5.62750027 40.8045,5.5725 C40.6834994,5.51749972 40.5313343,5.49 40.348,5.49 C40.0766653,5.49 39.8145013,5.54133282 39.5615,5.644 C39.3084987,5.74666718 39.0646678,5.8713326 38.83,6.018 L38.368,5.171 C38.6686682,4.98033238 39.0041648,4.81533403 39.3745,4.676 C39.7448352,4.53666597 40.1463312,4.467 40.579,4.467 C41.2610034,4.467 41.7669984,4.66683133 42.097,5.0665 C42.4270016,5.46616866 42.592,6.04366289 42.592,6.799 L42.592,10 L41.558,10 L41.459,9.406 L41.426,9.406 C41.1839988,9.61133436 40.9255014,9.78366597 40.6505,9.923 C40.3754986,10.062334 40.0766683,10.132 39.754,10.132 C39.2773309,10.132 38.8905015,9.98716811 38.5935,9.6975 C38.2964985,9.40783188 38.148,9.02466905 38.148,8.548 Z M39.38,8.449 C39.38,8.69100121 39.4514993,8.86699945 39.5945,8.977 C39.7375007,9.08700055 39.9226655,9.142 40.15,9.142 C40.3700011,9.142 40.5716658,9.09066718 40.755,8.988 C40.9383342,8.88533282 41.128999,8.73866762 41.327,8.548 L41.327,7.338 C40.9603315,7.38200022 40.6523346,7.4406663 40.403,7.514 C40.1536654,7.5873337 39.9538341,7.66983287 39.8035,7.7615 C39.6531659,7.85316712 39.5450003,7.95766608 39.479,8.075 C39.4129997,8.19233392 39.38,8.31699934 39.38,8.449 Z M43.78,7.305 C43.78,6.85766443 43.8533326,6.45800176 44,6.106 C44.1466674,5.75399824 44.3446654,5.45700121 44.594,5.215 C44.8433346,4.97299879 45.131165,4.78783397 45.4575,4.6595 C45.783835,4.53116602 46.1266649,4.467 46.486,4.467 C46.8380018,4.467 47.1441654,4.52749939 47.4045,4.6485 C47.6648346,4.7695006 47.8866658,4.91799912 48.07,5.094 L47.465,5.897 C47.3183326,5.77233271 47.1716674,5.67516701 47.025,5.6055 C46.8783326,5.53583298 46.7206675,5.501 46.552,5.501 C46.1119978,5.501 45.7563347,5.66416503 45.485,5.9905 C45.2136653,6.31683496 45.078,6.75499725 45.078,7.305 C45.078,7.84766938 45.211832,8.28216503 45.4795,8.6085 C45.747168,8.93483496 46.0936645,9.098 46.519,9.098 C46.7390011,9.098 46.9424991,9.05216712 47.1295,8.9605 C47.3165009,8.86883287 47.4833326,8.76066729 47.63,8.636 L48.158,9.439 C47.9013321,9.66633447 47.6190015,9.83866608 47.311,9.956 C47.0029985,10.0733339 46.6950015,10.132 46.387,10.132 C46.0203315,10.132 45.6775016,10.0696673 45.3585,9.945 C45.0394984,9.82033271 44.7626678,9.63700121 44.528,9.395 C44.2933322,9.15299879 44.1100007,8.85600176 43.978,8.504 C43.8459993,8.15199824 43.78,7.75233557 43.78,7.305 Z M48.598,7.305 C48.598,6.8649978 48.667666,6.46900176 48.807,6.117 C48.946334,5.76499824 49.1314988,5.46800121 49.3625,5.226 C49.5935012,4.98399879 49.8593318,4.79700066 50.16,4.665 C50.4606682,4.53299934 50.7686651,4.467 51.084,4.467 C51.4506685,4.467 51.7733319,4.52933271 52.052,4.654 C52.3306681,4.77866729 52.5634991,4.95466553 52.7505,5.182 C52.9375009,5.40933447 53.0786662,5.68066509 53.174,5.996 C53.2693338,6.31133491 53.317,6.65599813 53.317,7.03 C53.317,7.27933458 53.2986669,7.4773326 53.262,7.624 L49.83,7.624 C49.888667,8.11533579 50.0591653,8.49299868 50.3415,8.757 C50.6238347,9.02100132 50.9849978,9.153 51.425,9.153 C51.6596678,9.153 51.8778323,9.11816701 52.0795,9.0485 C52.2811677,8.97883298 52.480999,8.88166729 52.679,8.757 L53.108,9.549 C52.851332,9.71766751 52.5653349,9.85699945 52.25,9.967 C51.9346651,10.0770005 51.6046684,10.132 51.26,10.132 C50.8859981,10.132 50.5376683,10.067834 50.215,9.9395 C49.8923317,9.81116602 49.6100012,9.62600121 49.368,9.384 C49.1259988,9.14199879 48.9371673,8.84683507 48.8015,8.4985 C48.6658327,8.15016492 48.598,7.75233557 48.598,7.305 Z M52.217,6.821 C52.217,6.38833117 52.1271676,6.05100121 51.9475,5.809 C51.7678324,5.56699879 51.4910019,5.446 51.117,5.446 C50.7943317,5.446 50.5120012,5.56149884 50.27,5.7925 C50.0279988,6.02350115 49.877667,6.36633106 49.819,6.821 L52.217,6.821 Z M54.417,5.512 C54.417,5.26266542 54.4958325,5.05733414 54.6535,4.896 C54.8111675,4.73466586 55.0073322,4.654 55.242,4.654 C55.4766678,4.654 55.6709992,4.73466586 55.825,4.896 C55.9790008,5.05733414 56.056,5.26266542 56.056,5.512 C56.056,5.76133458 55.9790008,5.96666586 55.825,6.128 C55.6709992,6.28933414 55.4766678,6.37 55.242,6.37 C55.0073322,6.37 54.8111675,6.28933414 54.6535,6.128 C54.4958325,5.96666586 54.417,5.76133458 54.417,5.512 Z M54.417,9.274 C54.417,9.02466542 54.4958325,8.81933414 54.6535,8.658 C54.8111675,8.49666586 55.0073322,8.416 55.242,8.416 C55.4766678,8.416 55.6709992,8.49666586 55.825,8.658 C55.9790008,8.81933414 56.056,9.02466542 56.056,9.274 C56.056,9.52333458 55.9790008,9.72866586 55.825,9.89 C55.6709992,10.0513341 55.4766678,10.132 55.242,10.132 C55.0073322,10.132 54.8111675,10.0513341 54.6535,9.89 C54.4958325,9.72866586 54.417,9.52333458 54.417,9.274 Z" id="namespace:" fill="#999999"></path>
                        <g id="Group-13" transform="translate(61.000000, 0.000000)">
                            <g id="Rectangle-2">
                                <use fill="#F5F5F5" fill-rule="evenodd" xlink:href="#path-1"></use>
                                <rect stroke="#E5E5E5" stroke-width="1" x="0.5" y="0.5" width="55" height="12" rx="6"></rect>
                            </g>
                            <path d="M5.41,7.05 C5.41,6.649998 5.4733327,6.2900016 5.6,5.97 C5.7266673,5.6499984 5.89499895,5.3800011 6.105,5.16 C6.31500105,4.9399989 6.5566653,4.7700006 6.83,4.65 C7.1033347,4.5299994 7.3833319,4.47 7.67,4.47 C8.003335,4.47 8.2966654,4.5266661 8.55,4.64 C8.8033346,4.7533339 9.01499915,4.9133323 9.185,5.12 C9.35500085,5.3266677 9.4833329,5.5733319 9.57,5.86 C9.6566671,6.1466681 9.7,6.4599983 9.7,6.8 C9.7,7.0266678 9.6833335,7.206666 9.65,7.34 L6.53,7.34 C6.5833336,7.7866689 6.73833205,8.1299988 6.995,8.37 C7.25166795,8.6100012 7.579998,8.73 7.98,8.73 C8.1933344,8.73 8.39166575,8.69833365 8.575,8.635 C8.75833425,8.57166635 8.9399991,8.4833339 9.12,8.37 L9.51,9.09 C9.2766655,9.2433341 9.0166681,9.3699995 8.73,9.47 C8.4433319,9.5700005 8.1433349,9.62 7.83,9.62 C7.4899983,9.62 7.1733348,9.56166725 6.88,9.445 C6.5866652,9.32833275 6.3300011,9.1600011 6.11,8.94 C5.8899989,8.7199989 5.71833395,8.45166825 5.595,8.135 C5.47166605,7.81833175 5.41,7.4566687 5.41,7.05 Z M8.7,6.61 C8.7,6.2166647 8.61833415,5.9100011 8.455,5.69 C8.29166585,5.4699989 8.0400017,5.36 7.7,5.36 C7.4066652,5.36 7.1500011,5.46499895 6.93,5.675 C6.7099989,5.88500105 6.5733336,6.1966646 6.52,6.61 L8.7,6.61 Z M10.8,4.59 L11.75,4.59 L11.83,5.25 L11.87,5.25 C12.0900011,5.0366656 12.3283321,4.8533341 12.585,4.7 C12.841668,4.5466659 13.1399983,4.47 13.48,4.47 C14.0066693,4.47 14.3899988,4.63833165 14.63,4.975 C14.8700012,5.31166835 14.99,5.7933302 14.99,6.42 L14.99,9.5 L13.84,9.5 L13.84,6.57 C13.84,6.1633313 13.7800006,5.8766675 13.66,5.71 C13.5399994,5.5433325 13.3433347,5.46 13.07,5.46 C12.8566656,5.46 12.6683341,5.51166615 12.505,5.615 C12.3416659,5.71833385 12.1566677,5.869999 11.95,6.07 L11.95,9.5 L10.8,9.5 L10.8,4.59 Z M15.79,4.59 L16.96,4.59 L17.74,7.14 C17.806667,7.3800012 17.8749997,7.6233321 17.945,7.87 C18.0150004,8.1166679 18.083333,8.3666654 18.15,8.62 L18.19,8.62 C18.2633337,8.3666654 18.333333,8.1166679 18.4,7.87 C18.466667,7.6233321 18.5366663,7.3800012 18.61,7.14 L19.39,4.59 L20.5,4.59 L18.83,9.5 L17.5,9.5 L15.79,4.59 Z M23.01,4.66 L27.46,4.66 L27.46,5.5 L23.01,5.5 L23.01,4.66 Z M23.01,6.89 L27.46,6.89 L27.46,7.73 L23.01,7.73 L23.01,6.89 Z M31.73,9.9 L31.73,11.44 L30.58,11.44 L30.58,4.59 L31.53,4.59 L31.61,5.11 L31.65,5.11 C31.8566677,4.9366658 32.0866654,4.7866673 32.34,4.66 C32.5933346,4.5333327 32.8566653,4.47 33.13,4.47 C33.4366682,4.47 33.7083322,4.52833275 33.945,4.645 C34.1816678,4.76166725 34.3833325,4.9299989 34.55,5.15 C34.7166675,5.3700011 34.8433329,5.6333318 34.93,5.94 C35.0166671,6.2466682 35.06,6.5899981 35.06,6.97 C35.06,7.3900021 35.0016673,7.76499835 34.885,8.095 C34.7683327,8.42500165 34.6133343,8.70166555 34.42,8.925 C34.2266657,9.14833445 34.0033346,9.3199994 33.75,9.44 C33.4966654,9.5600006 33.2333347,9.62 32.96,9.62 C32.7466656,9.62 32.5333344,9.5733338 32.32,9.48 C32.1066656,9.3866662 31.900001,9.2533342 31.7,9.08 L31.73,9.9 Z M31.73,8.26 C31.9100009,8.4133341 32.0833325,8.5199997 32.25,8.58 C32.4166675,8.6400003 32.5733326,8.67 32.72,8.67 C33.0466683,8.67 33.3199989,8.52833475 33.54,8.245 C33.7600011,7.96166525 33.87,7.5400028 33.87,6.98 C33.87,6.4866642 33.7866675,6.1033347 33.62,5.83 C33.4533325,5.5566653 33.1833352,5.42 32.81,5.42 C32.4633316,5.42 32.1033352,5.6033315 31.73,5.97 L31.73,8.26 Z M36.22,4.59 L37.17,4.59 L37.25,5.46 L37.29,5.46 C37.4633342,5.1399984 37.6733321,4.89500085 37.92,4.725 C38.1666679,4.55499915 38.4199987,4.47 38.68,4.47 C38.9133345,4.47 39.0999993,4.503333 39.24,4.57 L39.04,5.57 C38.9533329,5.5433332 38.8733337,5.5233334 38.8,5.51 C38.7266663,5.4966666 38.6366672,5.49 38.53,5.49 C38.3366657,5.49 38.1333344,5.56499925 37.92,5.715 C37.7066656,5.86500075 37.5233341,6.1266648 37.37,6.5 L37.37,9.5 L36.22,9.5 L36.22,4.59 Z M39.63,7.05 C39.63,6.6433313 39.6933327,6.2800016 39.82,5.96 C39.9466673,5.6399984 40.1183322,5.3700011 40.335,5.15 C40.5516677,4.9299989 40.7999986,4.76166725 41.08,4.645 C41.3600014,4.52833275 41.6533318,4.47 41.96,4.47 C42.2666682,4.47 42.5616653,4.52833275 42.845,4.645 C43.1283347,4.76166725 43.3766656,4.9299989 43.59,5.15 C43.8033344,5.3700011 43.9749993,5.6399984 44.105,5.96 C44.2350006,6.2800016 44.3,6.6433313 44.3,7.05 C44.3,7.4566687 44.2350006,7.8199984 44.105,8.14 C43.9749993,8.4600016 43.8033344,8.7299989 43.59,8.95 C43.3766656,9.1700011 43.1283347,9.3366661 42.845,9.45 C42.5616653,9.5633339 42.2666682,9.62 41.96,9.62 C41.6533318,9.62 41.3600014,9.5633339 41.08,9.45 C40.7999986,9.3366661 40.5516677,9.1700011 40.335,8.95 C40.1183322,8.7299989 39.9466673,8.4600016 39.82,8.14 C39.6933327,7.8199984 39.63,7.4566687 39.63,7.05 Z M40.81,7.05 C40.81,7.5433358 40.9116657,7.93833185 41.115,8.235 C41.3183344,8.53166815 41.5999982,8.68 41.96,8.68 C42.3200018,8.68 42.6033323,8.53166815 42.81,8.235 C43.0166677,7.93833185 43.12,7.5433358 43.12,7.05 C43.12,6.5499975 43.0166677,6.15166815 42.81,5.855 C42.6033323,5.55833185 42.3200018,5.41 41.96,5.41 C41.5999982,5.41 41.3183344,5.55833185 41.115,5.855 C40.9116657,6.15166815 40.81,6.5499975 40.81,7.05 Z M45.14,7.05 C45.14,6.649998 45.1983328,6.2900016 45.315,5.97 C45.4316673,5.6499984 45.5866657,5.3800011 45.78,5.16 C45.9733343,4.9399989 46.1949988,4.7700006 46.445,4.65 C46.6950013,4.5299994 46.953332,4.47 47.22,4.47 C47.5000014,4.47 47.7366657,4.51833285 47.93,4.615 C48.1233343,4.71166715 48.3166657,4.8433325 48.51,5.01 L48.47,4.22 L48.47,2.44 L49.62,2.44 L49.62,9.5 L48.67,9.5 L48.59,8.97 L48.55,8.97 C48.3699991,9.1500009 48.1600012,9.3033327 47.92,9.43 C47.6799988,9.5566673 47.426668,9.62 47.16,9.62 C46.5399969,9.62 46.0483352,9.39500225 45.685,8.945 C45.3216649,8.49499775 45.14,7.8633374 45.14,7.05 Z M46.33,7.04 C46.33,7.573336 46.4249991,7.97833195 46.615,8.255 C46.805001,8.53166805 47.0799982,8.67 47.44,8.67 C47.8066685,8.67 48.1499984,8.4866685 48.47,8.12 L48.47,5.83 C48.2966658,5.6766659 48.1283342,5.5700003 47.965,5.51 C47.8016659,5.4499997 47.6366675,5.42 47.47,5.42 C47.1499984,5.42 46.8800011,5.5599986 46.66,5.84 C46.4399989,6.1200014 46.33,6.5199974 46.33,7.04 Z" id="env-=-prod" fill="#128E72"></path>
                        </g>
                    </g>
                    <g id="Group-2" transform="translate(0.000000, 47.000000)">
                        <circle id="Oval-1-Copy-31" fill="#30C2B6" cx="9.79998779" cy="9.763" r="9"></circle>
                        <path d="M7.079,5.498 L9.939,5.498 C10.4070023,5.498 10.8381647,5.5413329 11.2325,5.628 C11.6268353,5.7146671 11.9669986,5.86199896 12.253,6.07 C12.5390014,6.27800104 12.7643325,6.54883166 12.929,6.8825 C13.0936675,7.21616833 13.176,7.62999753 13.176,8.124 C13.176,8.59200234 13.0936675,8.9993316 12.929,9.346 C12.7643325,9.6926684 12.5368348,9.98083218 12.2465,10.2105 C11.9561652,10.4401678 11.6138353,10.6091661 11.2195,10.7175 C10.8251647,10.8258339 10.3983356,10.88 9.939,10.88 L8.587,10.88 L8.587,14 L7.079,14 L7.079,5.498 Z M9.822,9.671 C11.0700062,9.671 11.694,9.15533849 11.694,8.124 C11.694,7.58666398 11.5380016,7.21616769 11.226,7.0125 C10.9139984,6.80883232 10.4460031,6.707 9.822,6.707 L8.587,6.707 L8.587,9.671 L9.822,9.671 Z" id="P-Copy-29" fill="#FFFFFF"></path>
                        <g id="Group-6" transform="translate(24.000000, 2.000000)">
                            <g id="Rectangle-2">
                                <use fill="#F5F5F5" fill-rule="evenodd" xlink:href="#path-2"></use>
                                <rect stroke="#E5E5E5" stroke-width="1" x="0.5" y="0.5" width="63" height="14" rx="7"></rect>
                            </g>
                            <path d="M6.624,9.416 C6.624,8.78399684 6.89999724,8.29600172 7.452,7.952 C8.00400276,7.60799828 8.88399396,7.36800068 10.092,7.232 C10.092,7.07999924 10.0720002,6.9340007 10.032,6.794 C9.9919998,6.6539993 9.93000042,6.53000054 9.846,6.422 C9.76199958,6.31399946 9.65400066,6.2300003 9.522,6.17 C9.38999934,6.1099997 9.224001,6.08 9.024,6.08 C8.72799852,6.08 8.44200138,6.13599944 8.166,6.248 C7.88999862,6.36000056 7.62400128,6.4959992 7.368,6.656 L6.864,5.732 C7.19200164,5.52399896 7.55799798,5.34400076 7.962,5.192 C8.36600202,5.03999924 8.80399764,4.964 9.276,4.964 C10.0200037,4.964 10.5719982,5.18199782 10.932,5.618 C11.2920018,6.05400218 11.472,6.68399588 11.472,7.508 L11.472,11 L10.344,11 L10.236,10.352 L10.2,10.352 C9.93599868,10.5760011 9.6540015,10.7639992 9.354,10.916 C9.0539985,11.0680008 8.72800176,11.144 8.376,11.144 C7.8559974,11.144 7.43400162,10.9860016 7.11,10.67 C6.78599838,10.3539984 6.624,9.9360026 6.624,9.416 Z M7.968,9.308 C7.968,9.57200132 8.04599922,9.7639994 8.202,9.884 C8.35800078,10.0040006 8.55999876,10.064 8.808,10.064 C9.0480012,10.064 9.267999,10.0080006 9.468,9.896 C9.668001,9.78399944 9.87599892,9.62400104 10.092,9.416 L10.092,8.096 C9.691998,8.14400024 9.35600136,8.2079996 9.084,8.288 C8.81199864,8.3680004 8.59400082,8.4579995 8.43,8.558 C8.26599918,8.6580005 8.14800036,8.77199936 8.076,8.9 C8.00399964,9.02800064 7.968,9.16399928 7.968,9.308 Z M14.532,11.48 L14.532,13.328 L13.152,13.328 L13.152,5.108 L14.292,5.108 L14.388,5.732 L14.436,5.732 C14.6840012,5.52399896 14.9599985,5.34400076 15.264,5.192 C15.5680015,5.03999924 15.8839984,4.964 16.212,4.964 C16.5800018,4.964 16.9059986,5.0339993 17.19,5.174 C17.4740014,5.3140007 17.715999,5.51599868 17.916,5.78 C18.116001,6.04400132 18.2679995,6.35999816 18.372,6.728 C18.4760005,7.09600184 18.528,7.50799772 18.528,7.964 C18.528,8.46800252 18.4580007,8.91799802 18.318,9.314 C18.1779993,9.71000198 17.9920012,10.0419987 17.76,10.31 C17.5279988,10.5780013 17.2600015,10.7839993 16.956,10.928 C16.6519985,11.0720007 16.3360016,11.144 16.008,11.144 C15.7519987,11.144 15.4960013,11.0880006 15.24,10.976 C14.9839987,10.8639994 14.7360012,10.704001 14.496,10.496 L14.532,11.48 Z M14.532,9.512 C14.7480011,9.69600092 14.955999,9.82399964 15.156,9.896 C15.356001,9.96800036 15.5439991,10.004 15.72,10.004 C16.112002,10.004 16.4399987,9.8340017 16.704,9.494 C16.9680013,9.1539983 17.1,8.64800336 17.1,7.976 C17.1,7.38399704 17.000001,6.92400164 16.8,6.596 C16.599999,6.26799836 16.2760022,6.104 15.828,6.104 C15.4119979,6.104 14.9800022,6.3239978 14.532,6.764 L14.532,9.512 Z M21.3,11.48 L21.3,13.328 L19.92,13.328 L19.92,5.108 L21.06,5.108 L21.156,5.732 L21.204,5.732 C21.4520012,5.52399896 21.7279985,5.34400076 22.032,5.192 C22.3360015,5.03999924 22.6519984,4.964 22.98,4.964 C23.3480018,4.964 23.6739986,5.0339993 23.958,5.174 C24.2420014,5.3140007 24.483999,5.51599868 24.684,5.78 C24.884001,6.04400132 25.0359995,6.35999816 25.14,6.728 C25.2440005,7.09600184 25.296,7.50799772 25.296,7.964 C25.296,8.46800252 25.2260007,8.91799802 25.086,9.314 C24.9459993,9.71000198 24.7600012,10.0419987 24.528,10.31 C24.2959988,10.5780013 24.0280015,10.7839993 23.724,10.928 C23.4199985,11.0720007 23.1040016,11.144 22.776,11.144 C22.5199987,11.144 22.2640013,11.0880006 22.008,10.976 C21.7519987,10.8639994 21.5040012,10.704001 21.264,10.496 L21.3,11.48 Z M21.3,9.512 C21.5160011,9.69600092 21.723999,9.82399964 21.924,9.896 C22.124001,9.96800036 22.3119991,10.004 22.488,10.004 C22.880002,10.004 23.2079987,9.8340017 23.472,9.494 C23.7360013,9.1539983 23.868,8.64800336 23.868,7.976 C23.868,7.38399704 23.768001,6.92400164 23.568,6.596 C23.367999,6.26799836 23.0440022,6.104 22.596,6.104 C22.1799979,6.104 21.7480022,6.3239978 21.3,6.764 L21.3,9.512 Z M28.68,5.192 L34.02,5.192 L34.02,6.2 L28.68,6.2 L28.68,5.192 Z M28.68,7.868 L34.02,7.868 L34.02,8.876 L28.68,8.876 L28.68,7.868 Z M37.176,5.108 L38.568,5.108 L39.276,8.168 C39.3400003,8.4480014 39.3939998,8.7279986 39.438,9.008 C39.4820002,9.2880014 39.5319997,9.57199856 39.588,9.86 L39.636,9.86 C39.6920003,9.57199856 39.7499997,9.2880014 39.81,9.008 C39.8700003,8.7279986 39.9359996,8.4480014 40.008,8.168 L40.776,5.108 L42.036,5.108 L42.816,8.168 C42.8880004,8.4480014 42.9559997,8.7279986 43.02,9.008 C43.0840003,9.2880014 43.1479997,9.57199856 43.212,9.86 L43.26,9.86 C43.3160003,9.57199856 43.3679998,9.2880014 43.416,9.008 C43.4640002,8.7279986 43.5159997,8.4480014 43.572,8.168 L44.28,5.108 L45.576,5.108 L44.076,11 L42.432,11 L41.748,8.252 C41.6839997,7.9719986 41.6240003,7.69400138 41.568,7.418 C41.5119997,7.14199862 41.4520003,6.84800156 41.388,6.536 L41.34,6.536 C41.2839997,6.84800156 41.2280003,7.1439986 41.172,7.424 C41.1159997,7.7040014 41.0560003,7.9839986 40.992,8.264 L40.32,11 L38.736,11 L37.176,5.108 Z M46.356,8.06 C46.356,7.5799976 46.4319992,7.14800192 46.584,6.764 C46.7360008,6.37999808 46.9379987,6.05600132 47.19,5.792 C47.4420013,5.52799868 47.7319984,5.32400072 48.06,5.18 C48.3880016,5.03599928 48.7239983,4.964 49.068,4.964 C49.468002,4.964 49.8199985,5.03199932 50.124,5.168 C50.4280015,5.30400068 50.681999,5.49599876 50.886,5.744 C51.090001,5.99200124 51.2439995,6.28799828 51.348,6.632 C51.4520005,6.97600172 51.504,7.35199796 51.504,7.76 C51.504,8.03200136 51.4840002,8.2479992 51.444,8.408 L47.7,8.408 C47.7640003,8.94400268 47.9499985,9.35599856 48.258,9.644 C48.5660015,9.93200144 48.9599976,10.076 49.44,10.076 C49.6960013,10.076 49.9339989,10.0380004 50.154,9.962 C50.3740011,9.88599962 50.5919989,9.78000068 50.808,9.644 L51.276,10.508 C50.9959986,10.6920009 50.6840017,10.8439994 50.34,10.964 C49.9959983,11.0840006 49.6360019,11.144 49.26,11.144 C48.851998,11.144 48.4720018,11.0740007 48.12,10.934 C47.7679982,10.7939993 47.4600013,10.5920013 47.196,10.328 C46.9319987,10.0639987 46.7260007,9.7420019 46.578,9.362 C46.4299993,8.9819981 46.356,8.54800244 46.356,8.06 Z M50.304,7.532 C50.304,7.05999764 50.206001,6.69200132 50.01,6.428 C49.813999,6.16399868 49.512002,6.032 49.104,6.032 C48.7519982,6.032 48.4440013,6.15799874 48.18,6.41 C47.9159987,6.66200126 47.7520003,7.03599752 47.688,7.532 L50.304,7.532 Z M52.824,2.528 L54.204,2.528 L54.204,4.712 L54.168,5.696 C54.4160012,5.47999892 54.6859985,5.30400068 54.978,5.168 C55.2700015,5.03199932 55.5679985,4.964 55.872,4.964 C56.2400018,4.964 56.5679986,5.0339993 56.856,5.174 C57.1440014,5.3140007 57.387999,5.5139987 57.588,5.774 C57.788001,6.0340013 57.9399995,6.34799816 58.044,6.716 C58.1480005,7.08400184 58.2,7.49599772 58.2,7.952 C58.2,8.45600252 58.1300007,8.90599802 57.99,9.302 C57.8499993,9.69800198 57.6640012,10.0319986 57.432,10.304 C57.1999988,10.5760014 56.9320015,10.7839993 56.628,10.928 C56.3239985,11.0720007 56.0080016,11.144 55.68,11.144 C55.4079986,11.144 55.1340014,11.0800006 54.858,10.952 C54.5819986,10.8239994 54.3200012,10.6400012 54.072,10.4 L54.036,10.4 L53.916,11 L52.824,11 L52.824,2.528 Z M54.204,9.512 C54.412001,9.69600092 54.617999,9.82399964 54.822,9.896 C55.026001,9.96800036 55.2159991,10.004 55.392,10.004 C55.784002,10.004 56.1119987,9.8340017 56.376,9.494 C56.6400013,9.1539983 56.772,8.64800336 56.772,7.976 C56.772,7.38399704 56.672001,6.92400164 56.472,6.596 C56.271999,6.26799836 55.9480022,6.104 55.5,6.104 C55.0839979,6.104 54.6520022,6.3239978 54.204,6.764 L54.204,9.512 Z" id="app-=-web" fill="#30C2B6"></path>
                        </g>
                    </g>
                    <path d="M107,57 L247.5,57" id="Line-3" stroke="#CCCCCC" stroke-width="0.5" stroke-linecap="square"></path>
                    <g id="Group" transform="translate(150.000000, 0.500000)">
                        <g id="Group-Copy-6">
                            <circle id="Oval-1-Copy-31" fill="#999999" cx="9" cy="9.763" r="9"></circle>
                            <path d="M6.079,5.524 L8.939,5.524 C9.40700234,5.524 9.83816469,5.5673329 10.2325,5.654 C10.6268353,5.7406671 10.9669986,5.88799896 11.253,6.096 C11.5390014,6.30400104 11.7643325,6.57483167 11.929,6.9085 C12.0936675,7.24216834 12.176,7.65599753 12.176,8.15 C12.176,8.61800234 12.0936675,9.0253316 11.929,9.372 C11.7643325,9.7186684 11.5368348,10.0068322 11.2465,10.2365 C10.9561652,10.4661678 10.6138353,10.6351661 10.2195,10.7435 C9.82516469,10.8518339 9.39833563,10.906 8.939,10.906 L7.587,10.906 L7.587,14.026 L6.079,14.026 L6.079,5.524 Z M8.822,9.697 C10.0700062,9.697 10.694,9.18133849 10.694,8.15 C10.694,7.61266398 10.5380016,7.24216769 10.226,7.0385 C9.91399844,6.83483232 9.44600312,6.733 8.822,6.733 L7.587,6.733 L7.587,9.697 L8.822,9.697 Z" id="P-Copy-29" fill="#FFFFFF"></path>
                        </g>
                        <path d="M27.797,9.529 L27.394,8.229 C27.2379992,7.75233095 27.0906674,7.27783569 26.952,6.8055 C26.8133326,6.3331643 26.6746674,5.85000247 26.536,5.356 L26.484,5.356 C26.3539993,5.85000247 26.2196674,6.3331643 26.081,6.8055 C25.9423326,7.27783569 25.7950008,7.75233095 25.639,8.229 L25.236,9.529 L27.797,9.529 Z M28.07,10.4 L24.963,10.4 L24.144,13 L23.039,13 L25.925,4.472 L27.147,4.472 L30.033,13 L28.876,13 L28.07,10.4 Z M31.138,6.682 L32.022,6.682 L32.113,7.592 L32.152,7.592 C32.4553348,7.28866515 32.7738317,7.03516768 33.1075,6.8315 C33.4411683,6.62783231 33.8289978,6.526 34.271,6.526 C34.9383367,6.526 35.4258318,6.73399792 35.7335,7.15 C36.0411682,7.56600208 36.195,8.18132926 36.195,8.996 L36.195,13 L35.129,13 L35.129,9.139 C35.129,8.54099701 35.0336676,8.10983466 34.843,7.8455 C34.6523324,7.58116535 34.3490021,7.449 33.933,7.449 C33.603665,7.449 33.3133346,7.53133251 33.062,7.696 C32.8106654,7.86066749 32.5246683,8.10333173 32.204,8.424 L32.204,13 L31.138,13 L31.138,6.682 Z M37.82,14.742 L38.054,14.8005 C38.1406671,14.8221668 38.2229996,14.833 38.301,14.833 C38.6650018,14.833 38.9618322,14.7051679 39.1915,14.4495 C39.4211678,14.1938321 39.6009994,13.871002 39.731,13.481 L39.874,13.013 L37.339,6.682 L38.444,6.682 L39.731,10.179 C39.8263338,10.4563347 39.9281661,10.7488318 40.0365,11.0565 C40.1448339,11.3641682 40.2466662,11.6653319 40.342,11.96 L40.394,11.96 C40.4893338,11.6739986 40.5803329,11.3750016 40.667,11.063 C40.7536671,10.7509984 40.8403329,10.4563347 40.927,10.179 L42.058,6.682 L43.098,6.682 L40.719,13.52 C40.6063328,13.8320016 40.4806674,14.122332 40.342,14.391 C40.2033326,14.659668 40.0386676,14.891499 39.848,15.0865 C39.6573324,15.281501 39.4406679,15.4353328 39.198,15.548 C38.9553321,15.6606672 38.6736683,15.717 38.353,15.717 C38.2056659,15.717 38.0713339,15.7061668 37.95,15.6845 C37.8286661,15.6628332 37.7160005,15.6303335 37.612,15.587 L37.82,14.742 Z M48.012,13.533 L48.012,15.665 L46.946,15.665 L46.946,6.682 L47.83,6.682 L47.921,7.41 L47.96,7.41 C48.2460014,7.16733212 48.560165,6.9593342 48.9025,6.786 C49.244835,6.6126658 49.6023315,6.526 49.975,6.526 C50.3823354,6.526 50.7419984,6.60183257 51.054,6.7535 C51.3660016,6.90516742 51.625999,7.12183192 51.834,7.4035 C52.042001,7.68516807 52.2001661,8.02316469 52.3085,8.4175 C52.4168339,8.8118353 52.471,9.25599753 52.471,9.75 C52.471,10.287336 52.3973341,10.7661646 52.25,11.1865 C52.1026659,11.6068354 51.9033346,11.9643319 51.652,12.259 C51.4006654,12.5536681 51.110335,12.7768326 50.781,12.9285 C50.451665,13.0801674 50.1050018,13.156 49.741,13.156 C49.4463319,13.156 49.1538348,13.0910006 48.8635,12.961 C48.5731652,12.8309993 48.2806681,12.6533345 47.986,12.428 L48.012,13.533 Z M48.012,11.596 C48.2980014,11.8386679 48.575332,12.0098328 48.844,12.1095 C49.112668,12.2091672 49.350999,12.259 49.559,12.259 C49.8190013,12.259 50.0594989,12.2005006 50.2805,12.0835 C50.5015011,11.9664994 50.6921659,11.8018344 50.8525,11.5895 C51.0128341,11.3771656 51.1384995,11.1150016 51.2295,10.803 C51.3205005,10.4909984 51.366,10.140002 51.366,9.75 C51.366,9.4033316 51.335667,9.08700143 51.275,8.801 C51.214333,8.51499857 51.116834,8.27016769 50.9825,8.0665 C50.848166,7.86283231 50.6748344,7.70466723 50.4625,7.592 C50.2501656,7.47933277 49.9966681,7.423 49.702,7.423 C49.433332,7.423 49.1625014,7.49666593 48.8895,7.644 C48.6164986,7.79133407 48.3240016,8.00366528 48.012,8.281 L48.012,11.596 Z M53.693,9.854 C53.693,9.32533069 53.7731659,8.85516873 53.9335,8.4435 C54.0938341,8.03183127 54.308332,7.68300143 54.577,7.397 C54.845668,7.11099857 55.1554982,6.89433407 55.5065,6.747 C55.8575018,6.59966593 56.227998,6.526 56.618,6.526 C57.0080019,6.526 57.3784982,6.59966593 57.7295,6.747 C58.0805018,6.89433407 58.390332,7.11099857 58.659,7.397 C58.927668,7.68300143 59.1421659,8.03183127 59.3025,8.4435 C59.4628341,8.85516873 59.543,9.32533069 59.543,9.854 C59.543,10.3740026 59.4628341,10.8398313 59.3025,11.2515 C59.1421659,11.6631687 58.927668,12.0098319 58.659,12.2915 C58.390332,12.5731681 58.0805018,12.7876659 57.7295,12.935 C57.3784982,13.0823341 57.0080019,13.156 56.618,13.156 C56.227998,13.156 55.8575018,13.0823341 55.5065,12.935 C55.1554982,12.7876659 54.845668,12.5731681 54.577,12.2915 C54.308332,12.0098319 54.0938341,11.6631687 53.9335,11.2515 C53.7731659,10.8398313 53.693,10.3740026 53.693,9.854 Z M54.798,9.854 C54.798,10.2180018 54.8413329,10.5473319 54.928,10.842 C55.0146671,11.1366681 55.1381659,11.3901656 55.2985,11.6025 C55.4588341,11.8148344 55.6516655,11.9794994 55.877,12.0965 C56.1023345,12.2135006 56.349332,12.272 56.618,12.272 C56.886668,12.272 57.1336655,12.2135006 57.359,12.0965 C57.5843345,11.9794994 57.7771659,11.8148344 57.9375,11.6025 C58.0978341,11.3901656 58.2213329,11.1366681 58.308,10.842 C58.3946671,10.5473319 58.438,10.2180018 58.438,9.854 C58.438,9.48999818 58.3946671,9.15850149 58.308,8.8595 C58.2213329,8.5604985 58.0978341,8.30266775 57.9375,8.086 C57.7771659,7.86933225 57.5843345,7.70250058 57.359,7.5855 C57.1336655,7.46849941 56.886668,7.41 56.618,7.41 C56.349332,7.41 56.1023345,7.46849941 55.877,7.5855 C55.6516655,7.70250058 55.4588341,7.86933225 55.2985,8.086 C55.1381659,8.30266775 55.0146671,8.5604985 54.928,8.8595 C54.8413329,9.15850149 54.798,9.48999818 54.798,9.854 Z M60.752,9.854 C60.752,9.34266411 60.8278326,8.88116873 60.9795,8.4695 C61.1311674,8.05783127 61.3326654,7.70900143 61.584,7.423 C61.8353346,7.13699857 62.125665,6.91600078 62.455,6.76 C62.784335,6.60399922 63.1309982,6.526 63.495,6.526 C63.8590018,6.526 64.175332,6.59099935 64.444,6.721 C64.712668,6.85100065 64.9856653,7.02866554 65.263,7.254 L65.211,6.175 L65.211,3.744 L66.29,3.744 L66.29,13 L65.406,13 L65.315,12.259 L65.276,12.259 C65.0246654,12.5016679 64.7365016,12.7118324 64.4115,12.8895 C64.0864984,13.0671676 63.7376685,13.156 63.365,13.156 C62.5676627,13.156 61.9328357,12.8700029 61.4605,12.298 C60.9881643,11.7259971 60.752,10.9113386 60.752,9.854 Z M61.857,9.841 C61.857,10.6036705 62.0086651,11.1973312 62.312,11.622 C62.6153348,12.0466688 63.0443306,12.259 63.599,12.259 C63.8936681,12.259 64.1709987,12.1875007 64.431,12.0445 C64.6910013,11.9014993 64.9509987,11.6826681 65.211,11.388 L65.211,8.086 C64.942332,7.84333212 64.6845012,7.67216716 64.4375,7.5725 C64.1904988,7.47283283 63.9370013,7.423 63.677,7.423 C63.4256654,7.423 63.1895011,7.48149941 62.9685,7.5985 C62.7474989,7.71550058 62.5546675,7.8801656 62.39,8.0925 C62.2253325,8.3048344 62.0953338,8.55833186 62,8.853 C61.9046662,9.14766814 61.857,9.47699818 61.857,9.841 Z M68.253,11.57 C68.5303347,11.7953345 68.8141652,11.9773326 69.1045,12.116 C69.3948348,12.2546674 69.7306648,12.324 70.112,12.324 C70.5280021,12.324 70.839999,12.2286676 71.048,12.038 C71.256001,11.8473324 71.36,11.6133347 71.36,11.336 C71.36,11.1713325 71.3166671,11.0283339 71.23,10.907 C71.1433329,10.7856661 71.032834,10.6795005 70.8985,10.5885 C70.764166,10.4974995 70.6103342,10.4173337 70.437,10.348 L69.917,10.14 C69.6916655,10.0619996 69.4663345,9.97316716 69.241,9.8735 C69.0156655,9.77383284 68.8141676,9.65250072 68.6365,9.5095 C68.4588324,9.36649928 68.3136672,9.19966762 68.201,9.009 C68.0883328,8.81833238 68.032,8.58866801 68.032,8.32 C68.032,8.06866541 68.0818328,7.8325011 68.1815,7.6115 C68.2811672,7.39049889 68.4241657,7.19983413 68.6105,7.0395 C68.7968343,6.87916586 69.024332,6.75350045 69.293,6.6625 C69.561668,6.57149954 69.8649983,6.526 70.203,6.526 C70.6016687,6.526 70.9678317,6.59533264 71.3015,6.734 C71.6351683,6.87266736 71.9233321,7.04166567 72.166,7.241 L71.659,7.917 C71.4423322,7.75233251 71.2170012,7.61800052 70.983,7.514 C70.7489988,7.40999948 70.4933347,7.358 70.216,7.358 C69.8173313,7.358 69.5248343,7.44899909 69.3385,7.631 C69.1521657,7.81300091 69.059,8.02533212 69.059,8.268 C69.059,8.41533407 69.0979996,8.54316612 69.176,8.6515 C69.2540004,8.75983387 69.3579994,8.85516626 69.488,8.9375 C69.6180006,9.01983374 69.7674992,9.09349968 69.9365,9.1585 C70.1055008,9.22350032 70.2809991,9.29066632 70.463,9.36 C70.6883345,9.4466671 70.9158322,9.53766619 71.1455,9.633 C71.3751678,9.72833381 71.5809991,9.84749928 71.763,9.9905 C71.9450009,10.1335007 72.0944994,10.308999 72.2115,10.517 C72.3285006,10.725001 72.387,10.9763319 72.387,11.271 C72.387,11.5310013 72.3371672,11.7736655 72.2375,11.999 C72.1378328,12.2243345 71.990501,12.4236658 71.7955,12.597 C71.600499,12.7703342 71.3578348,12.9068328 71.0675,13.0065 C70.7771652,13.1061672 70.4456685,13.156 70.073,13.156 C69.6223311,13.156 69.1933354,13.0736675 68.786,12.909 C68.3786646,12.7443325 68.0233348,12.5363346 67.72,12.285 L68.253,11.57 Z" id="Any-pods" fill="#999999"></path>
                    </g>
                    <g id="Group-4" transform="translate(150.000000, 93.500000)">
                        <g id="Group-Copy-6">
                            <circle id="Oval-1-Copy-31" fill="#999999" cx="9" cy="9.763" r="9"></circle>
                            <path d="M6.079,5.524 L8.939,5.524 C9.40700234,5.524 9.83816469,5.5673329 10.2325,5.654 C10.6268353,5.7406671 10.9669986,5.88799896 11.253,6.096 C11.5390014,6.30400104 11.7643325,6.57483167 11.929,6.9085 C12.0936675,7.24216834 12.176,7.65599753 12.176,8.15 C12.176,8.61800234 12.0936675,9.0253316 11.929,9.372 C11.7643325,9.7186684 11.5368348,10.0068322 11.2465,10.2365 C10.9561652,10.4661678 10.6138353,10.6351661 10.2195,10.7435 C9.82516469,10.8518339 9.39833563,10.906 8.939,10.906 L7.587,10.906 L7.587,14.026 L6.079,14.026 L6.079,5.524 Z M8.822,9.697 C10.0700062,9.697 10.694,9.18133849 10.694,8.15 C10.694,7.61266398 10.5380016,7.24216769 10.226,7.0385 C9.91399844,6.83483232 9.44600312,6.733 8.822,6.733 L7.587,6.733 L7.587,9.697 L8.822,9.697 Z" id="P-Copy-29" fill="#FFFFFF"></path>
                        </g>
                        <path d="M27.797,10.529 L27.394,9.229 C27.2379992,8.75233095 27.0906674,8.27783569 26.952,7.8055 C26.8133326,7.3331643 26.6746674,6.85000247 26.536,6.356 L26.484,6.356 C26.3539993,6.85000247 26.2196674,7.3331643 26.081,7.8055 C25.9423326,8.27783569 25.7950008,8.75233095 25.639,9.229 L25.236,10.529 L27.797,10.529 Z M28.07,11.4 L24.963,11.4 L24.144,14 L23.039,14 L25.925,5.472 L27.147,5.472 L30.033,14 L28.876,14 L28.07,11.4 Z M31.138,7.682 L32.022,7.682 L32.113,8.592 L32.152,8.592 C32.4553348,8.28866515 32.7738317,8.03516768 33.1075,7.8315 C33.4411683,7.62783231 33.8289978,7.526 34.271,7.526 C34.9383367,7.526 35.4258318,7.73399792 35.7335,8.15 C36.0411682,8.56600208 36.195,9.18132926 36.195,9.996 L36.195,14 L35.129,14 L35.129,10.139 C35.129,9.54099701 35.0336676,9.10983466 34.843,8.8455 C34.6523324,8.58116534 34.3490021,8.449 33.933,8.449 C33.603665,8.449 33.3133346,8.53133251 33.062,8.696 C32.8106654,8.86066749 32.5246683,9.10333173 32.204,9.424 L32.204,14 L31.138,14 L31.138,7.682 Z M37.82,15.742 L38.054,15.8005 C38.1406671,15.8221668 38.2229996,15.833 38.301,15.833 C38.6650018,15.833 38.9618322,15.7051679 39.1915,15.4495 C39.4211678,15.1938321 39.6009994,14.871002 39.731,14.481 L39.874,14.013 L37.339,7.682 L38.444,7.682 L39.731,11.179 C39.8263338,11.4563347 39.9281661,11.7488318 40.0365,12.0565 C40.1448339,12.3641682 40.2466662,12.6653319 40.342,12.96 L40.394,12.96 C40.4893338,12.6739986 40.5803329,12.3750016 40.667,12.063 C40.7536671,11.7509984 40.8403329,11.4563347 40.927,11.179 L42.058,7.682 L43.098,7.682 L40.719,14.52 C40.6063328,14.8320016 40.4806674,15.122332 40.342,15.391 C40.2033326,15.659668 40.0386676,15.891499 39.848,16.0865 C39.6573324,16.281501 39.4406679,16.4353328 39.198,16.548 C38.9553321,16.6606672 38.6736683,16.717 38.353,16.717 C38.2056659,16.717 38.0713339,16.7061668 37.95,16.6845 C37.8286661,16.6628332 37.7160005,16.6303335 37.612,16.587 L37.82,15.742 Z M48.012,14.533 L48.012,16.665 L46.946,16.665 L46.946,7.682 L47.83,7.682 L47.921,8.41 L47.96,8.41 C48.2460014,8.16733212 48.560165,7.9593342 48.9025,7.786 C49.244835,7.6126658 49.6023315,7.526 49.975,7.526 C50.3823354,7.526 50.7419984,7.60183257 51.054,7.7535 C51.3660016,7.90516742 51.625999,8.12183192 51.834,8.4035 C52.042001,8.68516807 52.2001661,9.02316469 52.3085,9.4175 C52.4168339,9.8118353 52.471,10.2559975 52.471,10.75 C52.471,11.287336 52.3973341,11.7661646 52.25,12.1865 C52.1026659,12.6068354 51.9033346,12.9643319 51.652,13.259 C51.4006654,13.5536681 51.110335,13.7768326 50.781,13.9285 C50.451665,14.0801674 50.1050018,14.156 49.741,14.156 C49.4463319,14.156 49.1538348,14.0910006 48.8635,13.961 C48.5731652,13.8309993 48.2806681,13.6533345 47.986,13.428 L48.012,14.533 Z M48.012,12.596 C48.2980014,12.8386679 48.575332,13.0098328 48.844,13.1095 C49.112668,13.2091672 49.350999,13.259 49.559,13.259 C49.8190013,13.259 50.0594989,13.2005006 50.2805,13.0835 C50.5015011,12.9664994 50.6921659,12.8018344 50.8525,12.5895 C51.0128341,12.3771656 51.1384995,12.1150016 51.2295,11.803 C51.3205005,11.4909984 51.366,11.140002 51.366,10.75 C51.366,10.4033316 51.335667,10.0870014 51.275,9.801 C51.214333,9.51499857 51.116834,9.27016769 50.9825,9.0665 C50.848166,8.86283231 50.6748344,8.70466723 50.4625,8.592 C50.2501656,8.47933277 49.9966681,8.423 49.702,8.423 C49.433332,8.423 49.1625014,8.49666593 48.8895,8.644 C48.6164986,8.79133407 48.3240016,9.00366528 48.012,9.281 L48.012,12.596 Z M53.693,10.854 C53.693,10.3253307 53.7731659,9.85516872 53.9335,9.4435 C54.0938341,9.03183127 54.308332,8.68300143 54.577,8.397 C54.845668,8.11099857 55.1554982,7.89433407 55.5065,7.747 C55.8575018,7.59966593 56.227998,7.526 56.618,7.526 C57.0080019,7.526 57.3784982,7.59966593 57.7295,7.747 C58.0805018,7.89433407 58.390332,8.11099857 58.659,8.397 C58.927668,8.68300143 59.1421659,9.03183127 59.3025,9.4435 C59.4628341,9.85516872 59.543,10.3253307 59.543,10.854 C59.543,11.3740026 59.4628341,11.8398313 59.3025,12.2515 C59.1421659,12.6631687 58.927668,13.0098319 58.659,13.2915 C58.390332,13.5731681 58.0805018,13.7876659 57.7295,13.935 C57.3784982,14.0823341 57.0080019,14.156 56.618,14.156 C56.227998,14.156 55.8575018,14.0823341 55.5065,13.935 C55.1554982,13.7876659 54.845668,13.5731681 54.577,13.2915 C54.308332,13.0098319 54.0938341,12.6631687 53.9335,12.2515 C53.7731659,11.8398313 53.693,11.3740026 53.693,10.854 Z M54.798,10.854 C54.798,11.2180018 54.8413329,11.5473319 54.928,11.842 C55.0146671,12.1366681 55.1381659,12.3901656 55.2985,12.6025 C55.4588341,12.8148344 55.6516655,12.9794994 55.877,13.0965 C56.1023345,13.2135006 56.349332,13.272 56.618,13.272 C56.886668,13.272 57.1336655,13.2135006 57.359,13.0965 C57.5843345,12.9794994 57.7771659,12.8148344 57.9375,12.6025 C58.0978341,12.3901656 58.2213329,12.1366681 58.308,11.842 C58.3946671,11.5473319 58.438,11.2180018 58.438,10.854 C58.438,10.4899982 58.3946671,10.1585015 58.308,9.8595 C58.2213329,9.5604985 58.0978341,9.30266775 57.9375,9.086 C57.7771659,8.86933225 57.5843345,8.70250058 57.359,8.5855 C57.1336655,8.46849942 56.886668,8.41 56.618,8.41 C56.349332,8.41 56.1023345,8.46849942 55.877,8.5855 C55.6516655,8.70250058 55.4588341,8.86933225 55.2985,9.086 C55.1381659,9.30266775 55.0146671,9.5604985 54.928,9.8595 C54.8413329,10.1585015 54.798,10.4899982 54.798,10.854 Z M60.752,10.854 C60.752,10.3426641 60.8278326,9.88116873 60.9795,9.4695 C61.1311674,9.05783127 61.3326654,8.70900143 61.584,8.423 C61.8353346,8.13699857 62.125665,7.91600078 62.455,7.76 C62.784335,7.60399922 63.1309982,7.526 63.495,7.526 C63.8590018,7.526 64.175332,7.59099935 64.444,7.721 C64.712668,7.85100065 64.9856653,8.02866554 65.263,8.254 L65.211,7.175 L65.211,4.744 L66.29,4.744 L66.29,14 L65.406,14 L65.315,13.259 L65.276,13.259 C65.0246654,13.5016679 64.7365016,13.7118324 64.4115,13.8895 C64.0864984,14.0671676 63.7376685,14.156 63.365,14.156 C62.5676627,14.156 61.9328357,13.8700029 61.4605,13.298 C60.9881643,12.7259971 60.752,11.9113386 60.752,10.854 Z M61.857,10.841 C61.857,11.6036705 62.0086651,12.1973312 62.312,12.622 C62.6153348,13.0466688 63.0443306,13.259 63.599,13.259 C63.8936681,13.259 64.1709987,13.1875007 64.431,13.0445 C64.6910013,12.9014993 64.9509987,12.6826681 65.211,12.388 L65.211,9.086 C64.942332,8.84333212 64.6845012,8.67216716 64.4375,8.5725 C64.1904988,8.47283283 63.9370013,8.423 63.677,8.423 C63.4256654,8.423 63.1895011,8.48149941 62.9685,8.5985 C62.7474989,8.71550058 62.5546675,8.8801656 62.39,9.0925 C62.2253325,9.3048344 62.0953338,9.55833186 62,9.853 C61.9046662,10.1476681 61.857,10.4769982 61.857,10.841 Z M68.253,12.57 C68.5303347,12.7953345 68.8141652,12.9773326 69.1045,13.116 C69.3948348,13.2546674 69.7306648,13.324 70.112,13.324 C70.5280021,13.324 70.839999,13.2286676 71.048,13.038 C71.256001,12.8473324 71.36,12.6133347 71.36,12.336 C71.36,12.1713325 71.3166671,12.0283339 71.23,11.907 C71.1433329,11.7856661 71.032834,11.6795005 70.8985,11.5885 C70.764166,11.4974995 70.6103342,11.4173337 70.437,11.348 L69.917,11.14 C69.6916655,11.0619996 69.4663345,10.9731672 69.241,10.8735 C69.0156655,10.7738328 68.8141676,10.6525007 68.6365,10.5095 C68.4588324,10.3664993 68.3136672,10.1996676 68.201,10.009 C68.0883328,9.81833238 68.032,9.58866801 68.032,9.32 C68.032,9.06866541 68.0818328,8.8325011 68.1815,8.6115 C68.2811672,8.3904989 68.4241657,8.19983413 68.6105,8.0395 C68.7968343,7.87916586 69.024332,7.75350045 69.293,7.6625 C69.561668,7.57149954 69.8649983,7.526 70.203,7.526 C70.6016687,7.526 70.9678317,7.59533264 71.3015,7.734 C71.6351683,7.87266736 71.9233321,8.04166567 72.166,8.241 L71.659,8.917 C71.4423322,8.75233251 71.2170012,8.61800052 70.983,8.514 C70.7489988,8.40999948 70.4933347,8.358 70.216,8.358 C69.8173313,8.358 69.5248343,8.44899909 69.3385,8.631 C69.1521657,8.81300091 69.059,9.02533212 69.059,9.268 C69.059,9.41533407 69.0979996,9.54316612 69.176,9.6515 C69.2540004,9.75983387 69.3579994,9.85516626 69.488,9.9375 C69.6180006,10.0198337 69.7674992,10.0934997 69.9365,10.1585 C70.1055008,10.2235003 70.2809991,10.2906663 70.463,10.36 C70.6883345,10.4466671 70.9158322,10.5376662 71.1455,10.633 C71.3751678,10.7283338 71.5809991,10.8474993 71.763,10.9905 C71.9450009,11.1335007 72.0944994,11.308999 72.2115,11.517 C72.3285006,11.725001 72.387,11.9763319 72.387,12.271 C72.387,12.5310013 72.3371672,12.7736655 72.2375,12.999 C72.1378328,13.2243345 71.990501,13.4236658 71.7955,13.597 C71.600499,13.7703342 71.3578348,13.9068328 71.0675,14.0065 C70.7771652,14.1061672 70.4456685,14.156 70.073,14.156 C69.6223311,14.156 69.1933354,14.0736675 68.786,13.909 C68.3786646,13.7443325 68.0233348,13.5363346 67.72,13.285 L68.253,12.57 Z" id="Any-pods" fill="#999999"></path>
                    </g>
                    <path d="M41.8273736,39 C43.1930025,21.5567209 62.5504248,10.75 93.1001956,10.75 C93.9142821,10.7500259 93.9142821,10.7500259 94.7284632,10.7501526 C102.008826,10.7515033 108.455257,10.7597167 120.306536,10.7797608 C134.333526,10.8034848 138.807221,10.8095238 145,10.8095238 L145,9.30952381 C138.808413,9.30952381 134.335097,9.30348532 120.309073,9.27976298 C108.457074,9.25971758 102.010077,9.25150347 94.7287415,9.25015261 C93.9144241,9.25002595 93.9144241,9.25002595 93.1001956,9.25 C61.7939761,9.25 41.6689721,20.5308575 40.3221065,39 L38.7999878,39 L40.7999878,45 L42.7999878,39 L41.8273736,39 Z" id="Combined-Shape" fill="#2FC98E" fill-rule="nonzero"></path>
                    <path d="M145,101.740142 C144.031259,101.740142 143.032569,101.740389 141.999654,101.740877 L141.9993,100.990877 C143.03233,100.990389 144.031138,100.990142 145,100.990142 L145,101.740142 Z M139.001758,101.742873 C138.035964,101.743689 137.038765,101.744686 136.002502,101.745864 L136.00165,100.995864 C137.037983,100.994686 138.035255,100.993689 139.001125,100.992873 L139.001758,101.742873 Z M133.001125,101.749625 C132.045549,101.750923 131.052206,101.752359 130.002265,101.753953 L130.001126,101.003954 C131.051105,101.00236 132.044488,101.000924 133.000106,100.999626 L133.001125,101.749625 Z M127.001899,101.758682 C126.089304,101.760165 125.508467,101.761129 124.001332,101.763655 L124.000071,101.013656 C125.507221,101.01113 126.088069,101.010166 127.000681,101.008683 L127.001899,101.758682 Z M121.001924,101.768729 C119.507014,101.77126 119.507014,101.77126 118.001674,101.77378 L118.000425,101.023781 C119.505749,101.021261 119.505749,101.021261 121.000653,101.01873 L121.001924,101.768729 Z M115.001904,101.778682 C113.955154,101.780354 112.963375,101.78189 112.002334,101.783323 L112.001216,101.033324 C112.962229,101.031891 113.953981,101.030355 115.000706,101.028683 L115.001904,101.778682 Z M109.000614,101.787595 C107.975124,101.788979 106.977786,101.790241 106.000971,101.791385 L106.000092,101.041386 C106.976862,101.040241 107.974156,101.03898 108.999602,101.037596 L109.000614,101.787595 Z M103.001233,101.794589 C101.982866,101.795566 100.983977,101.796404 100.000971,101.797102 L100.000438,101.047102 C100.983381,101.046404 101.982208,101.045566 103.000514,101.04459 L103.001233,101.794589 Z M97.0001782,101.798815 C95.9851753,101.799247 94.9858231,101.799516 94.0000881,101.799619 L94.0000102,101.049619 C94.9856636,101.049516 95.9849354,101.049247 96.999859,101.048815 L97.0001782,101.798815 Z M90.9914648,101.782341 C89.9782874,101.765576 88.9760673,101.736655 87.9851657,101.695621 L88.016197,100.946263 C89.0008639,100.987039 89.9968764,101.015781 91.0038731,101.032443 L90.9914648,101.782341 Z M84.9785761,101.531609 C83.9657139,101.462732 82.9659017,101.38064 81.979557,101.285402 L82.051639,100.538874 C83.0308876,100.633426 84.023634,100.714938 85.0294605,100.783337 L84.9785761,101.531609 Z M78.9788431,100.949833 C77.9695845,100.821108 76.9760092,100.67791 75.9986026,100.520342 L76.1179687,99.779902 C77.0871843,99.9361489 78.0726006,100.078171 79.0737325,100.20586 L78.9788431,100.949833 Z M73.0316959,99.9880947 C72.0311516,99.7897615 71.0496466,99.5754509 70.0877465,99.3453178 L70.2622578,98.6159031 C71.2145692,98.8437422 72.1865139,99.0559652 73.1775274,99.2524092 L73.0316959,99.9880947 Z M67.1562599,98.577674 C66.1723628,98.2967839 65.2118669,97.9980986 64.2754341,97.6818469 L64.5154082,96.971275 C65.4404687,97.2836861 66.3896016,97.5788378 67.3621494,97.8564878 L67.1562599,98.577674 Z M61.434384,96.6391136 C60.4804016,96.2594164 59.5555088,95.8597639 58.6604775,95.4404924 L58.9786322,94.7613182 C59.8601089,95.1742401 60.7713955,95.5680133 61.7117328,95.9422796 L61.434384,96.6391136 Z M55.9670276,94.0697934 C55.0655478,93.5717779 54.2004703,93.0513741 53.3726836,92.5090729 L53.7836811,91.8817125 C54.5955651,92.4135955 55.4445211,92.9243012 56.3296969,93.4133096 L55.9670276,94.0697934 Z M50.8883769,90.7280665 C50.0770281,90.0909112 49.3110438,89.4289805 48.5914079,88.7429813 L49.1088992,88.2001159 C49.8110306,88.8694289 50.5588948,89.515701 51.3515934,90.1382101 L50.8883769,90.7280665 Z M46.4760075,86.4997593 C45.8126063,85.7137624 45.2037194,84.9016853 44.6503259,84.0644921 L45.2759922,83.6509202 C45.8131453,84.4635445 46.404478,85.2522094 47.0491484,86.0160139 L46.4760075,86.4997593 Z M43.1554401,81.4741772 C42.7014821,80.5620871 42.3076512,79.6251386 41.9747237,78.6644665 L42.683375,78.4188786 C43.0057865,79.3492067 43.3871803,80.2565664 43.8268739,81.1399966 L43.1554401,81.4741772 Z M40.864248,74 C40.9427045,74.573982 41.0404021,75.1413913 41.1572596,75.702032 L41.8914799,75.5489944 C41.7850798,75.0385242 41.6950423,74.5221471 41.6214388,74 L42.2640894,74 L40.5320386,68 L38.7999878,74 L40.8642485,74 Z" id="Combined-Shape" fill="#AAAAAA" fill-rule="nonzero"></path>
                </g>
            </g>
            <path d="M143.785714,141.694196 C143.785714,140.975443 143.59152,140.316967 143.203125,139.71875 L138.154018,144.761161 C138.765628,145.158484 139.428568,145.357143 140.142857,145.357143 C140.638395,145.357143 141.110489,145.260046 141.559152,145.065848 C142.007815,144.871651 142.395088,144.611609 142.720982,144.285714 C143.046877,143.95982 143.305803,143.570315 143.497768,143.117188 C143.689733,142.66406 143.785714,142.189735 143.785714,141.694196 Z M137.095982,143.696429 L142.151786,138.647321 C141.549104,138.241069 140.879468,138.037946 140.142857,138.037946 C139.48214,138.037946 138.872771,138.200891 138.314732,138.526786 C137.756694,138.85268 137.314734,139.296872 136.988839,139.859375 C136.662945,140.421878 136.5,141.033479 136.5,141.694196 C136.5,142.417414 136.698659,143.084818 137.095982,143.696429 Z M145.285714,141.694196 C145.285714,142.395093 145.149555,143.064729 144.877232,143.703125 C144.604909,144.341521 144.239958,144.890623 143.782366,145.350446 C143.324774,145.81027 142.777905,146.176338 142.141741,146.448661 C141.505577,146.720984 140.839289,146.857143 140.142857,146.857143 C139.446425,146.857143 138.780137,146.720984 138.143973,146.448661 C137.507809,146.176338 136.96094,145.81027 136.503348,145.350446 C136.045757,144.890623 135.680805,144.341521 135.408482,143.703125 C135.136159,143.064729 135,142.395093 135,141.694196 C135,140.9933 135.136159,140.32478 135.408482,139.688616 C135.680805,139.052452 136.045757,138.504467 136.503348,138.044643 C136.96094,137.584819 137.507809,137.218751 138.143973,136.946429 C138.780137,136.674106 139.446425,136.537946 140.142857,136.537946 C140.839289,136.537946 141.505577,136.674106 142.141741,136.946429 C142.777905,137.218751 143.324774,137.584819 143.782366,138.044643 C144.239958,138.504467 144.604909,139.052452 144.877232,139.688616 C145.149555,140.32478 145.285714,140.9933 145.285714,141.694196 Z" id="" fill="#D64456"></path>
        </g>
    </g>
</svg>