<?xml version="1.0" encoding="utf-8"?>
<!-- Generator: Adobe Illustrator 20.1.0, SVG Export Plug-In . SVG Version: 6.00 Build 0)  -->
<svg version="1.1" id="Layer_1" xmlns="http://www.w3.org/2000/svg" xmlns:xlink="http://www.w3.org/1999/xlink" x="0px" y="0px"
	 viewBox="0 0 32 32" style="enable-background:new 0 0 32 32;" xml:space="preserve">
<style type="text/css">
	.st0{fill:#EB6852;}
	.st1{fill:#F89883;}
	.st2{fill:#4296B4;}
</style>
<path class="st0" d="M32,12.78l-0.56-2.72c-0.02-0.1-0.06-0.2-0.12-0.28s-0.14-0.14-0.22-0.16l-1.5-0.28
	c-0.19-0.42-0.41-0.8-0.66-1.16c-0.25-0.35-0.52-0.7-0.81-1.03l0.31-1.53c0.02-0.08,0.01-0.17-0.03-0.27
	c-0.04-0.09-0.11-0.17-0.22-0.23l-2.28-1.56c-0.08-0.04-0.18-0.07-0.28-0.08c-0.1-0.01-0.2,0.01-0.28,0.05L24,4.41
	c-0.4-0.13-0.79-0.22-1.19-0.3s-0.8-0.13-1.22-0.17l-0.97-1.41c-0.04-0.06-0.11-0.11-0.2-0.14c-0.09-0.03-0.19-0.04-0.3-0.02
	l-2.72,0.53c-0.1,0.02-0.2,0.06-0.28,0.12s-0.14,0.14-0.16,0.22l-0.34,1.69c-0.35,0.19-0.69,0.39-1.02,0.61
	c-0.32,0.22-0.63,0.45-0.92,0.7l-1.75-0.34c-0.08-0.02-0.17-0.01-0.27,0.05C12.58,6,12.5,6.07,12.44,6.16l-1.56,2.31
	c-0.04,0.08-0.07,0.18-0.08,0.28S10.8,8.94,10.84,9l1,1.5c-0.13,0.35-0.22,0.71-0.3,1.08c-0.07,0.36-0.13,0.75-0.17,1.14l-1.56,1.03
	c-0.08,0.04-0.14,0.11-0.17,0.2c-0.03,0.09-0.04,0.19-0.02,0.3L10.15,17c0.02,0.1,0.06,0.19,0.12,0.27s0.14,0.12,0.22,0.14
	l1.84,0.41c0.17,0.33,0.35,0.66,0.56,0.97c0.21,0.31,0.43,0.6,0.66,0.88l-0.38,1.81c-0.02,0.1-0.01,0.2,0.05,0.28
	c0.05,0.08,0.12,0.16,0.2,0.22l2.31,1.56c0.08,0.06,0.18,0.1,0.28,0.11c0.1,0.01,0.19-0.02,0.25-0.08l1.5-0.97
	c0.5,0.19,1.02,0.32,1.56,0.41c0.54,0.08,1.08,0.12,1.62,0.12c-1.58-0.25-2.98-0.94-4.2-2.08s-1.99-2.54-2.33-4.2
	c-0.23-1.08-0.24-2.14-0.03-3.17c0.21-1.03,0.6-1.97,1.17-2.83c0.57-0.85,1.29-1.59,2.16-2.2c0.86-0.61,1.84-1.04,2.92-1.27
	c1.08-0.21,2.14-0.21,3.17,0c1.03,0.21,1.98,0.59,2.84,1.16s1.6,1.28,2.2,2.16s1.02,1.85,1.25,2.94c0.08,0.38,0.14,0.76,0.16,1.14
	c0.02,0.39,0.01,0.77-0.03,1.14c0.08-0.27,0.15-0.55,0.19-0.84c0.04-0.29,0.07-0.58,0.09-0.88l1.28-0.88
	c0.08-0.06,0.14-0.14,0.17-0.23C32.02,12.99,32.02,12.89,32,12.78L32,12.78L32,12.78z"/>
<path class="st1" d="M27.47,15.91c-0.1,0-0.18-0.03-0.23-0.09s-0.08-0.14-0.08-0.22c0-0.94-0.32-1.68-0.95-2.23
	s-1.32-0.93-2.05-1.14c-0.21-0.04-0.42-0.08-0.62-0.11c-0.21-0.03-0.42-0.04-0.62-0.02c-0.9,0.04-1.68,0.34-2.36,0.91
	s-1.13,1.29-1.36,2.19c-0.17,0.58-0.22,1.15-0.16,1.7c0.06,0.55,0.23,1.06,0.5,1.52c0.27,0.48,0.62,0.88,1.05,1.2
	s0.91,0.56,1.45,0.7c0.21,0.06,0.43,0.1,0.66,0.12c0.23,0.02,0.46,0.03,0.69,0.03c0.33-0.02,0.72-0.1,1.17-0.25s0.87-0.42,1.27-0.81
	l-4-1.06c-0.08-0.02-0.15-0.07-0.2-0.16c-0.05-0.08-0.07-0.17-0.05-0.25l0.47-1.72c0.02-0.08,0.07-0.15,0.16-0.2
	c0.08-0.05,0.17-0.07,0.25-0.05l6.5,1.75c0.06-0.27,0.11-0.55,0.14-0.84c0.03-0.29,0.05-0.57,0.05-0.84L27.47,15.91z"/>
<path class="st2" d="M12.09,22.44v-0.03c-0.02-0.17-0.05-0.33-0.08-0.5c-0.03-0.17-0.07-0.33-0.11-0.5c0-0.02-0.01-0.03-0.02-0.03
	c-0.01,0-0.02-0.01-0.02-0.03l0.69-1.03c0.04-0.04,0.06-0.09,0.05-0.16c-0.01-0.06-0.03-0.11-0.05-0.16l-0.91-1.38
	c-0.04-0.06-0.09-0.11-0.14-0.14s-0.1-0.04-0.14-0.02l-1.22,0.22c-0.02,0-0.03-0.01-0.03-0.02v-0.02c-0.13-0.1-0.26-0.2-0.39-0.3
	c-0.14-0.09-0.28-0.18-0.42-0.27H9.25L9,16.84c0-0.04-0.02-0.08-0.06-0.12s-0.09-0.07-0.16-0.09l-1.62-0.31
	c-0.06-0.02-0.12-0.02-0.17,0c-0.05,0.02-0.1,0.05-0.14,0.09l-0.69,1.03H6.12c-0.17,0.02-0.34,0.05-0.52,0.08
	c-0.18,0.03-0.34,0.07-0.48,0.11H5.06l-1.03-0.69c-0.04-0.02-0.09-0.03-0.16-0.02c-0.06,0.01-0.11,0.03-0.16,0.05L2.34,17.9
	c-0.04,0.02-0.08,0.06-0.11,0.12c-0.03,0.06-0.05,0.11-0.05,0.16l0.22,1.19v0.03c-0.13,0.15-0.23,0.29-0.33,0.44
	c-0.09,0.15-0.19,0.29-0.3,0.44v0.03l-1.22,0.25c-0.06,0.02-0.11,0.05-0.14,0.09s-0.06,0.09-0.08,0.16L0,22.44
	C0,22.5,0,22.56,0.01,22.62s0.04,0.1,0.08,0.12l1.03,0.72v0.03c0.02,0.19,0.05,0.36,0.08,0.53c0.03,0.17,0.07,0.33,0.11,0.5
	c0,0.02,0.01,0.03,0.02,0.03c0.01,0,0.02,0.01,0.02,0.03l-0.69,1.03c-0.04,0.04-0.06,0.09-0.05,0.16s0.03,0.11,0.05,0.16l0.91,1.38
	c0.04,0.06,0.09,0.1,0.14,0.12s0.11,0.03,0.17,0.03l1.19-0.22h0.02c0,0,0.01,0.01,0.02,0.03l0.44,0.31c0,0,0.15,0.09,0.44,0.28h0.06
	l0.22,1.22c0.02,0.06,0.05,0.11,0.09,0.14s0.09,0.06,0.16,0.08l1.59,0.31c0.06,0.02,0.13,0.02,0.19,0s0.1-0.05,0.12-0.09l0.72-1.03
	h0.03c0.13,0,0.25-0.01,0.36-0.03c0.11-0.02,0.22-0.05,0.33-0.09c-0.17,0.02-0.33,0.03-0.5,0.03s-0.33-0.01-0.5-0.03
	c-1.13-0.17-2.03-0.7-2.7-1.61c-0.68-0.91-0.93-1.91-0.77-3.02c0.15-1.13,0.67-2.03,1.58-2.7c0.91-0.68,1.92-0.94,3.05-0.8
	c1.13,0.17,2.03,0.7,2.7,1.61c0.68,0.91,0.93,1.92,0.77,3.05c-0.04,0.25-0.1,0.49-0.19,0.73c-0.08,0.24-0.18,0.46-0.28,0.67
	c0.08-0.1,0.16-0.21,0.23-0.33c0.07-0.11,0.14-0.23,0.2-0.36l0.03-0.03l1.19-0.28c0.06,0,0.11-0.03,0.16-0.08
	c0.04-0.05,0.06-0.11,0.06-0.17l0.34-1.62c0-0.06-0.01-0.12-0.03-0.17c-0.02-0.05-0.05-0.1-0.09-0.14L12.09,22.44L12.09,22.44z"/>
</svg>
