<svg xmlns="http://www.w3.org/2000/svg" viewBox="0 0 100 100"><defs><style>.cls-1{fill:#d71e00;}.cls-2{fill:#c21a00;}.cls-3{fill:#eaeaea;}.cls-4{fill:#fff;}</style></defs><title>producticons_1017_RGB_Messaging final color</title><g id="Layer_1" data-name="Layer 1"><circle class="cls-1" cx="50" cy="50" r="50"/><path class="cls-2" d="M85.36,14.64A50,50,0,0,1,14.64,85.36Z"/><path class="cls-1" d="M28.25,42.52A5.74,5.74,0,1,0,34,48.26,5.74,5.74,0,0,0,28.25,42.52ZM12.06,60.81a4.39,4.39,0,1,0,4.38,4.38A4.38,4.38,0,0,0,12.06,60.81Zm47-52.48a9.13,9.13,0,1,0,9.13,9.13A9.13,9.13,0,0,0,59.05,8.33ZM46.24,23.05a7.22,7.22,0,1,0,7.21,7.22A7.22,7.22,0,0,0,46.24,23.05Z"/><path class="cls-3" d="M75.63,7.1l-7.82,7.82a9.1,9.1,0,0,1-8.76,11.67,8.81,8.81,0,0,1-2.54-.37l-3.12,3.12a7,7,0,0,1,.06.93,7.22,7.22,0,0,1-7.21,7.22,7,7,0,0,1-.93-.07L34,48.76A5.74,5.74,0,0,1,28.75,54L16.22,66.5a4.34,4.34,0,0,1-2.85,2.86L7.1,75.63a51,51,0,0,0,3.84,5.57L81.2,10.94A51,51,0,0,0,75.63,7.1Z"/><path class="cls-4" d="M12.06,69.58a4.39,4.39,0,1,1,4.38-4.39,4.33,4.33,0,0,1-.22,1.31L28.75,54l-.5,0A5.74,5.74,0,1,1,34,48.26a4.07,4.07,0,0,1,0,.5L45.31,37.42a7.21,7.21,0,1,1,8.08-8.08l3.12-3.12a9.12,9.12,0,1,1,11.3-11.3L75.63,7.1A49.59,49.59,0,0,0,59.73,1L1,59.73A49.59,49.59,0,0,0,7.1,75.63l6.27-6.27A4.39,4.39,0,0,1,12.06,69.58Z"/><path class="cls-1" d="M54,61.06a7.22,7.22,0,1,0,7.22,7.21A7.21,7.21,0,0,0,54,61.06ZM41.16,72a9.13,9.13,0,1,0,9.13,9.13A9.13,9.13,0,0,0,41.16,72ZM88.38,29.48a4.39,4.39,0,1,0,4.38,4.38A4.38,4.38,0,0,0,88.38,29.48ZM72,44.54a5.75,5.75,0,1,0,5.75,5.74A5.74,5.74,0,0,0,72,44.54Z"/><path class="cls-3" d="M94.73,27.66l-3.18,3.18A4.38,4.38,0,0,1,85.36,37L76.09,46.3a5.69,5.69,0,0,1,1.62,4A5.76,5.76,0,0,1,72,56a5.69,5.69,0,0,1-4-1.62l-8.84,8.84a7.21,7.21,0,0,1-10.2,10.2L47.69,74.7A9.13,9.13,0,0,1,34.78,87.61l-7.12,7.12a49.94,49.94,0,0,0,11.41,4.06L98.79,39.07A49.94,49.94,0,0,0,94.73,27.66Z"/><path class="cls-4" d="M32,81.08A9.13,9.13,0,0,1,47.69,74.7l1.25-1.25a7.21,7.21,0,1,1,10.2-10.2L68,54.41a5.67,5.67,0,0,1-1.76-4.13,5.74,5.74,0,0,1,9.87-4L85.36,37a4.38,4.38,0,1,1,6.19-6.19l3.18-3.18A49.89,49.89,0,0,0,88.4,18L18,88.4a49.89,49.89,0,0,0,9.67,6.33l7.12-7.12A9.13,9.13,0,0,1,32,81.08Z"/></g></svg>