<?xml version="1.0" encoding="UTF-8"?><svg id="uuid-8859c3ea-013f-4d91-be09-aaff99928b50" xmlns="http://www.w3.org/2000/svg" viewBox="0 0 38 38"><title>Red Hat AMQ icon</title>
<desc>RHAMQ, application services</desc>
<metadata><?xpacket begin="﻿" id="W5M0MpCehiHzreSzNTczkc9d"?>
<x:xmpmeta xmlns:x="adobe:ns:meta/" x:xmptk="Adobe XMP Core 8.0-c001 1.000000, 0000/00/00-00:00:00        ">
   <rdf:RDF xmlns:rdf="http://www.w3.org/1999/02/22-rdf-syntax-ns#">
      <rdf:Description rdf:about=""
            xmlns:xmp="http://ns.adobe.com/xap/1.0/"
            xmlns:dc="http://purl.org/dc/elements/1.1/"
            xmlns:cq="http://www.day.com/jcr/cq/1.0"
            xmlns:xmpRights="http://ns.adobe.com/xap/1.0/rights/">
         <xmp:rhcc-effective-on>2024-03-01T15:26:28.388Z</xmp:rhcc-effective-on>
         <xmp:rhcc-metadata-complete-moderator>pending</xmp:rhcc-metadata-complete-moderator>
         <xmp:rhcc-translation-id>TRA3c0b8021-8f1c-4aea-b01b-7e178823b076</xmp:rhcc-translation-id>
         <xmp:brand-content-type>Icon</xmp:brand-content-type>
         <xmp:CreateDate>2024-03-01T15:26:28.388Z</xmp:CreateDate>
         <xmp:rhcc-effective-on-set-on-upload>true</xmp:rhcc-effective-on-set-on-upload>
         <xmp:rhcc-metadata-complete-uploader>pending</xmp:rhcc-metadata-complete-uploader>
         <xmp:rhcc-file-last-modified>2024-03-21T00:39:44.913Z</xmp:rhcc-file-last-modified>
         <xmp:rhcc-audience>rhcc-audience:internal</xmp:rhcc-audience>
         <xmp:brand-content-subtype>Technology icon</xmp:brand-content-subtype>
         <xmp:rhcc-rights-restricted>no</xmp:rhcc-rights-restricted>
         <xmp:rhcc-derivative-id>DER3c0b8021-8f1c-4aea-b01b-7e178823b076</xmp:rhcc-derivative-id>
         <xmp:brand-logo-color>Standard</xmp:brand-logo-color>
         <xmp:rhcc-notify-portal-subscribers-on-change>yes</xmp:rhcc-notify-portal-subscribers-on-change>
         <xmp:rhcc-product>
            <rdf:Bag>
               <rdf:li>rhcc-product:red-hat-amq</rdf:li>
            </rdf:Bag>
         </xmp:rhcc-product>
         <xmp:brand-subtype>
            <rdf:Bag>
               <rdf:li>Technology icon</rdf:li>
            </rdf:Bag>
         </xmp:brand-subtype>
         <dc:format>image/svg+xml</dc:format>
         <dc:modified>2024-05-10T14:03:08.705Z</dc:modified>
         <dc:title>
            <rdf:Alt>
               <rdf:li xml:lang="x-default">Red Hat AMQ icon</rdf:li>
            </rdf:Alt>
         </dc:title>
         <dc:description>
            <rdf:Alt>
               <rdf:li xml:lang="x-default">RHAMQ, application services</rdf:li>
            </rdf:Alt>
         </dc:description>
         <cq:lastReplicationAction_scene7>Activate</cq:lastReplicationAction_scene7>
         <cq:lastReplicationAction_publish>Activate</cq:lastReplicationAction_publish>
         <cq:lastReplicated_publish>2024-05-10T14:03:10.441Z</cq:lastReplicated_publish>
         <cq:lastReplicatedBy>workflow-process-service</cq:lastReplicatedBy>
         <cq:lastReplicationAction>Activate</cq:lastReplicationAction>
         <cq:lastReplicatedBy_publish>workflow-process-service</cq:lastReplicatedBy_publish>
         <cq:isDelivered>false</cq:isDelivered>
         <cq:lastReplicated>2024-05-10T14:03:10.441Z</cq:lastReplicated>
         <cq:lastReplicatedBy_scene7>workflow-process-service</cq:lastReplicatedBy_scene7>
         <cq:lastReplicated_scene7>2024-05-10T14:03:10.441Z</cq:lastReplicated_scene7>
         <xmpRights:UsageTerms>
            <rdf:Alt>
               <rdf:li xml:lang="x-default">Use technology icons to represent Red Hat products and components. Do not remove the icon from the bounding shape.</rdf:li>
            </rdf:Alt>
         </xmpRights:UsageTerms>
      </rdf:Description>
   </rdf:RDF>
</x:xmpmeta>
                                                                                                    
                                                                                                    
                                                                                                    
                                                                                                    
                                                                                                    
                                                                                                    
                                                                                                    
                                                                                                    
                                                                                                    
                                                                                                    
                                                                                                    
                                                                                                    
                                                                                                    
                                                                                                    
                                                                                                    
                                                                                                    
                                                                                                    
                                                                                                    
                                                                                                    
                                                                                                    
                           
<?xpacket end="w"?></metadata>
<defs><style>.uuid-13c9460c-d7de-47ac-98d5-91ba2aa5c5df{fill:#e00;}.uuid-cbba1d34-eccc-418b-8741-7580ad1d2cc9{fill:#fff;}.uuid-d1fe5f48-f683-41f8-885f-c3c2d96a2ce4{fill:#4d4d4d;}</style></defs><rect x="1" y="1" width="36" height="36" rx="9" ry="9"/><path class="uuid-d1fe5f48-f683-41f8-885f-c3c2d96a2ce4" d="m28,2.25c4.27338,0,7.75,3.47664,7.75,7.75v18c0,4.27336-3.47662,7.75-7.75,7.75H10c-4.27338,0-7.75-3.47664-7.75-7.75V10c0-4.27336,3.47662-7.75,7.75-7.75h18m0-1.25H10C5.02942,1,1,5.02944,1,10v18c0,4.97056,4.02942,9,9,9h18c4.97058,0,9-4.02944,9-9V10c0-4.97056-4.02942-9-9-9h0Z"/><path class="uuid-cbba1d34-eccc-418b-8741-7580ad1d2cc9" d="m21.375,27.9375c-1.6543,0-3-1.3457-3-3v-4.75c0-.34473.28027-.625.625-.625s.625.28027.625.625v4.75c0,.96484.78516,1.75,1.75,1.75s1.75-.78516,1.75-1.75v-4.75c0-1.6543,1.3457-3,3-3s3,1.3457,3,3v2.375c0,.34473-.28027.625-.625.625s-.625-.28027-.625-.625v-2.375c0-.96484-.78516-1.75-1.75-1.75s-1.75.78516-1.75,1.75v4.75c0,1.6543-1.3457,3-3,3Z"/><path class="uuid-13c9460c-d7de-47ac-98d5-91ba2aa5c5df" d="m11.875,20.8125c-1.6543,0-3-1.3457-3-3v-2.375c0-.34473.28027-.625.625-.625s.625.28027.625.625v2.375c0,.96484.78516,1.75,1.75,1.75s1.75-.78516,1.75-1.75v-4.75c0-1.6543,1.3457-3,3-3s3,1.3457,3,3v3.5625c0,.34473-.28027.625-.625.625s-.625-.28027-.625-.625v-3.5625c0-.96484-.78516-1.75-1.75-1.75s-1.75.78516-1.75,1.75v4.75c0,1.6543-1.3457,3-3,3Z"/></svg>