<svg xmlns="http://www.w3.org/2000/svg" viewBox="0 0 100 100"><defs><style>.cls-1{fill:#d71e00;}.cls-2{fill:#c21a00;}.cls-3{fill:#cdcdcd;}.cls-4{fill:#fff;}.cls-5{fill:#b7b7b7;}.cls-6{fill:#eaeaea;}</style></defs><title>Logo</title><g id="Layer_1" data-name="Layer 1"><circle class="cls-1" cx="50" cy="50" r="50" transform="translate(-20.71 50) rotate(-45)"/><path class="cls-2" d="M85.36,14.64A50,50,0,0,1,14.64,85.36Z"/><circle class="cls-3" cx="40.01" cy="29.72" r="1.78"/><path class="cls-4" d="M34.09,24.38V35.07a1,1,0,0,0,1,1H53.3l12.6-12.6H35A1,1,0,0,0,34.09,24.38Zm11.57,3.56a1.78,1.78,0,1,1-1.78,1.78A1.78,1.78,0,0,1,45.66,27.94Zm-5.64,0a1.78,1.78,0,1,1-1.78,1.78A1.78,1.78,0,0,1,40,27.94Z"/><circle class="cls-5" cx="45.66" cy="29.72" r="1.78"/><rect class="cls-5" x="67.3" y="26.78" width="2.34" height="5.89" rx="0.39" ry="0.39"/><rect class="cls-5" x="71.68" y="26.78" width="2.34" height="5.89" rx="0.39" ry="0.39"/><path class="cls-6" d="M76.81,23.42H65.9L53.3,36H63.71v6.78a.57.57,0,0,0,1,.41L71.86,36l0,0h5a1,1,0,0,0,1-1V24.38A1,1,0,0,0,76.81,23.42Zm-7.17,8.86a.39.39,0,0,1-.39.39H67.69a.39.39,0,0,1-.39-.39V27.17a.39.39,0,0,1,.39-.39h1.56a.39.39,0,0,1,.39.39Zm4.38,0a.39.39,0,0,1-.39.39H72.07a.39.39,0,0,1-.39-.39V27.17a.39.39,0,0,1,.39-.39h1.56a.39.39,0,0,1,.39.39Z"/><circle class="cls-3" cx="40.01" cy="68.1" r="1.78"/><path class="cls-4" d="M34.09,62.75V73.45a1,1,0,0,0,1,1H53.3L65.9,61.8H35A1,1,0,0,0,34.09,62.75Zm11.57,3.56a1.78,1.78,0,1,1-1.78,1.78A1.78,1.78,0,0,1,45.66,66.32Zm-5.64,0a1.78,1.78,0,1,1-1.78,1.78A1.78,1.78,0,0,1,40,66.32Z"/><circle class="cls-5" cx="45.66" cy="68.1" r="1.78"/><rect class="cls-5" x="67.3" y="65.15" width="2.34" height="5.89" rx="0.39" ry="0.39"/><rect class="cls-5" x="71.68" y="65.15" width="2.34" height="5.89" rx="0.39" ry="0.39"/><path class="cls-6" d="M76.81,61.8H65.9L53.3,74.4H63.71v6.78a.57.57,0,0,0,1,.41l7.17-7.17,0,0h5a1,1,0,0,0,1-1V62.75A1,1,0,0,0,76.81,61.8Zm-7.17,8.86a.39.39,0,0,1-.39.39H67.69a.39.39,0,0,1-.39-.39V65.54a.39.39,0,0,1,.39-.39h1.56a.39.39,0,0,1,.39.39Zm4.38,0a.39.39,0,0,1-.39.39H72.07a.39.39,0,0,1-.39-.39V65.54a.39.39,0,0,1,.39-.39h1.56a.39.39,0,0,1,.39.39Z"/><circle class="cls-3" cx="19.51" cy="48.97" r="1.78"/><path class="cls-4" d="M14.55,42.67a1,1,0,0,0-1,1V54.32a1,1,0,0,0,1,1h5l0,0,7.17,7.17a.57.57,0,0,0,1-.41V55.28H32.8l12.6-12.6Zm5,8.09A1.78,1.78,0,1,1,21.3,49,1.78,1.78,0,0,1,19.51,50.76Zm5.64,0A1.78,1.78,0,1,1,26.94,49,1.78,1.78,0,0,1,25.16,50.76Z"/><circle class="cls-5" cx="25.16" cy="48.97" r="1.78"/><rect class="cls-5" x="46.8" y="46.03" width="2.34" height="5.89" rx="0.39" ry="0.39"/><rect class="cls-5" x="51.18" y="46.03" width="2.34" height="5.89" rx="0.39" ry="0.39"/><path class="cls-6" d="M56.31,42.67H45.4L32.8,55.28H56.31a1,1,0,0,0,1-1V43.63A1,1,0,0,0,56.31,42.67Zm-7.17,8.86a.39.39,0,0,1-.39.39H47.19a.39.39,0,0,1-.39-.39V46.42a.39.39,0,0,1,.39-.39h1.56a.39.39,0,0,1,.39.39Zm4.38,0a.39.39,0,0,1-.39.39H51.57a.39.39,0,0,1-.39-.39V46.42a.39.39,0,0,1,.39-.39h1.56a.39.39,0,0,1,.39.39Z"/></g></svg>