<?xml version="1.0" encoding="utf-8"?>
<!-- Generator: Adobe Illustrator 20.1.0, SVG Export Plug-In . SVG Version: 6.00 Build 0)  -->
<svg version="1.1" id="Layer_1" xmlns="http://www.w3.org/2000/svg" xmlns:xlink="http://www.w3.org/1999/xlink" x="0px" y="0px"
	 viewBox="0 0 32 32" style="enable-background:new 0 0 32 32;" xml:space="preserve">
<style type="text/css">
	.st0{fill:#DD0031;}
	.st1{fill:#C3002F;}
	.st2{fill:#FFFFFF;}
</style>
<g>
	<polygon class="st0" points="15.98,0 15.98,0 15.98,0 1.11,5.3 3.38,24.97 15.98,31.95 15.98,31.95 15.98,31.95 28.59,24.97 
		30.86,5.3 	"/>
	<polygon class="st1" points="15.98,0 15.98,3.55 15.98,3.53 15.98,19.72 15.98,19.72 15.98,31.95 15.98,31.95 28.59,24.97 
		30.86,5.3 	"/>
	<path class="st2" d="M15.98,3.53l-9.3,20.85l0,0h3.47l0,0l1.87-4.67h7.89l1.87,4.67l0,0h3.47l0,0L15.98,3.53L15.98,3.53L15.98,3.53
		L15.98,3.53L15.98,3.53z M18.7,16.84h-5.43l2.72-6.53L18.7,16.84z"/>
</g>
</svg>
