<?xml version="1.0" encoding="utf-8"?>
<!-- Generator: Adobe Illustrator 20.1.0, SVG Export Plug-In . SVG Version: 6.00 Build 0)  -->
<svg version="1.1" id="Layer_1" xmlns="http://www.w3.org/2000/svg" xmlns:xlink="http://www.w3.org/1999/xlink" x="0px" y="0px"
	 viewBox="0 0 32 32" style="enable-background:new 0 0 32 32;" xml:space="preserve">
<path d="M16,0c-2.21,0-4.29,0.42-6.23,1.25S6.12,3.22,4.67,4.67S2.08,7.82,1.25,9.77S0,13.79,0,16s0.42,4.29,1.25,6.23
	s1.97,3.65,3.42,5.09c1.45,1.45,3.15,2.59,5.09,3.42S13.79,32,16,32s4.29-0.42,6.23-1.25s3.65-1.97,5.09-3.42
	c1.45-1.45,2.59-3.15,3.42-5.09S32,18.21,32,16c0-2.21-0.42-4.29-1.25-6.23s-1.97-3.65-3.42-5.09c-1.45-1.45-3.15-2.59-5.09-3.42
	S18.21,0,16,0C16,0,16,0,16,0z M22.56,23.97c-0.15,0-0.29-0.03-0.42-0.09s-0.29-0.17-0.45-0.31l-8.25-6.66l-2.78,6.94H8.28
	l6.97-16.81c0.1-0.23,0.24-0.4,0.42-0.52c0.18-0.11,0.38-0.17,0.61-0.17c0.21,0,0.4,0.06,0.58,0.17c0.18,0.11,0.31,0.29,0.39,0.52
	l6.38,15.31c0.04,0.1,0.07,0.2,0.08,0.28c0.01,0.08,0.02,0.15,0.02,0.19c0,0.33-0.11,0.61-0.34,0.83S22.88,23.97,22.56,23.97
	C22.56,23.97,22.56,23.97,22.56,23.97z M14.16,15.06L20.41,20L16.28,9.78L14.16,15.06z"/>
</svg>
