<?xml version="1.0" encoding="utf-8"?>
<!-- Generator: Adobe Illustrator 20.1.0, SVG Export Plug-In . SVG Version: 6.00 Build 0)  -->
<svg version="1.1" id="Layer_1" xmlns="http://www.w3.org/2000/svg" xmlns:xlink="http://www.w3.org/1999/xlink" x="0px" y="0px"
	 viewBox="0 0 32 32" style="enable-background:new 0 0 32 32;" xml:space="preserve">
<style type="text/css">
	.st0{fill:url(#SVGID_1_);}
	.st1{fill:none;}
	.st2{fill:#BE202E;}
	.st3{opacity:0.35;fill:#BE202E;enable-background:new    ;}
	.st4{fill:url(#SVGID_2_);}
	.st5{fill:url(#SVGID_3_);}
	.st6{fill:url(#SVGID_4_);}
	.st7{fill:url(#SVGID_5_);}
	.st8{fill:url(#SVGID_6_);}
	.st9{fill:url(#SVGID_7_);}
	.st10{fill:url(#SVGID_8_);}
	.st11{fill:url(#SVGID_9_);}
	.st12{fill:url(#SVGID_10_);}
</style>
<linearGradient id="SVGID_1_" gradientUnits="userSpaceOnUse" x1="-6020.1592" y1="869.6842" x2="-6015.6606" y2="864.4237" gradientTransform="matrix(0.4226 -0.9063 -0.9063 -0.4226 3352.2441 -5085.6851)">
	<stop  offset="0" style="stop-color:#F69923"/>
	<stop  offset="0.3123" style="stop-color:#F79A23"/>
	<stop  offset="0.8383" style="stop-color:#E97826"/>
</linearGradient>
<path class="st0" d="M21.48,0.31c-0.5,0.29-1.33,1.13-2.32,2.34l0.91,1.72c0.64-0.91,1.29-1.74,1.94-2.44
	c0.05-0.06,0.08-0.08,0.08-0.08c-0.03,0.03-0.05,0.06-0.08,0.08c-0.21,0.23-0.85,0.98-1.82,2.47c0.93-0.05,2.37-0.24,3.54-0.44
	c0.35-1.95-0.34-2.84-0.34-2.84S22.51-0.3,21.48,0.31z"/>
<path class="st1" d="M19.94,10.11c0.01,0,0.01,0,0.02,0l-0.13,0.01c-0.01,0-0.02,0.01-0.02,0.01
	C19.85,10.12,19.89,10.12,19.94,10.11z"/>
<path class="st1" d="M19.01,13.19c-0.07,0.02-0.15,0.03-0.23,0.04C18.86,13.22,18.93,13.2,19.01,13.19z"/>
<path class="st1" d="M12.69,20.09c0.01-0.03,0.02-0.05,0.03-0.08c0.2-0.53,0.4-1.04,0.6-1.54c0.22-0.56,0.44-1.11,0.65-1.63
	c0.23-0.56,0.45-1.09,0.67-1.61c0.23-0.54,0.46-1.07,0.68-1.57c0.18-0.41,0.36-0.81,0.54-1.19c0.06-0.13,0.12-0.26,0.18-0.38
	c0.12-0.25,0.23-0.49,0.34-0.73c0.1-0.22,0.21-0.44,0.31-0.65c0.03-0.07,0.07-0.14,0.1-0.21c0.01-0.01,0.01-0.02,0.02-0.03
	l-0.11,0.01l-0.09-0.17c-0.01,0.02-0.02,0.03-0.03,0.05c-0.16,0.32-0.32,0.64-0.47,0.96c-0.09,0.19-0.18,0.37-0.27,0.56
	c-0.25,0.52-0.49,1.05-0.73,1.58c-0.24,0.54-0.48,1.07-0.72,1.61c-0.23,0.53-0.45,1.06-0.68,1.59c-0.22,0.53-0.43,1.06-0.65,1.58
	c-0.22,0.55-0.43,1.09-0.64,1.62c-0.05,0.12-0.09,0.24-0.14,0.36c-0.17,0.43-0.33,0.86-0.48,1.28l0.14,0.28l0.13-0.01
	c0-0.01,0.01-0.03,0.01-0.04C12.29,21.15,12.49,20.62,12.69,20.09z"/>
<path class="st1" d="M18.72,13.24L18.72,13.24C18.72,13.24,18.72,13.24,18.72,13.24C18.72,13.24,18.72,13.24,18.72,13.24z"/>
<path class="st2" d="M18.42,14.74c-0.12,0.02-0.24,0.04-0.36,0.06c0,0,0,0,0,0c0.06-0.01,0.12-0.02,0.18-0.03
	C18.3,14.76,18.36,14.75,18.42,14.74z"/>
<path class="st3" d="M18.42,14.74c-0.12,0.02-0.24,0.04-0.36,0.06c0,0,0,0,0,0c0.06-0.01,0.12-0.02,0.18-0.03
	C18.3,14.76,18.36,14.75,18.42,14.74z"/>
<path class="st2" d="M18.73,13.23C18.73,13.23,18.73,13.23,18.73,13.23C18.72,13.24,18.72,13.24,18.73,13.23
	c0.02,0,0.04,0,0.06-0.01c0.08-0.01,0.15-0.02,0.23-0.04C18.92,13.2,18.82,13.22,18.73,13.23L18.73,13.23L18.73,13.23z"/>
<path class="st3" d="M18.73,13.23C18.73,13.23,18.73,13.23,18.73,13.23C18.72,13.24,18.72,13.24,18.73,13.23
	c0.02,0,0.04,0,0.06-0.01c0.08-0.01,0.15-0.02,0.23-0.04C18.92,13.2,18.82,13.22,18.73,13.23L18.73,13.23L18.73,13.23z"/>
<linearGradient id="SVGID_2_" gradientUnits="userSpaceOnUse" x1="-6053.4546" y1="870.2653" x2="-6021.3589" y2="870.2653" gradientTransform="matrix(0.4226 -0.9063 -0.9063 -0.4226 3352.2441 -5085.6851)">
	<stop  offset="0.3233" style="stop-color:#9E2064"/>
	<stop  offset="0.6302" style="stop-color:#C92037"/>
	<stop  offset="0.7514" style="stop-color:#CD2335"/>
	<stop  offset="1" style="stop-color:#E97826"/>
</linearGradient>
<path class="st4" d="M17.39,8.8c0.28-0.52,0.56-1.02,0.84-1.51c0.29-0.51,0.59-1.01,0.89-1.48c0.02-0.03,0.04-0.06,0.05-0.09
	c0.3-0.47,0.6-0.92,0.9-1.35l-0.91-1.72c-0.07,0.08-0.14,0.17-0.21,0.26c-0.26,0.33-0.54,0.68-0.81,1.05
	c-0.31,0.42-0.64,0.87-0.97,1.34c-0.3,0.44-0.61,0.89-0.92,1.36c-0.26,0.4-0.53,0.82-0.79,1.24c-0.01,0.02-0.02,0.03-0.03,0.05
	l1.18,2.34C16.87,9.78,17.13,9.29,17.39,8.8z"/>
<linearGradient id="SVGID_3_" gradientUnits="userSpaceOnUse" x1="-6049.5806" y1="867.0455" x2="-6030.4541" y2="867.0455" gradientTransform="matrix(0.4226 -0.9063 -0.9063 -0.4226 3352.2441 -5085.6851)">
	<stop  offset="0" style="stop-color:#282662"/>
	<stop  offset="0.0955" style="stop-color:#662E8D"/>
	<stop  offset="0.7882" style="stop-color:#9F2064"/>
	<stop  offset="0.9487" style="stop-color:#CD2032"/>
</linearGradient>
<path class="st5" d="M11.99,21.99c-0.16,0.43-0.31,0.87-0.47,1.32c0,0.01,0,0.01-0.01,0.02c-0.02,0.06-0.04,0.13-0.07,0.19
	c-0.11,0.3-0.2,0.57-0.41,1.19c0.35,0.16,0.63,0.58,0.89,1.05c-0.03-0.49-0.23-0.95-0.62-1.31c1.72,0.08,3.2-0.36,3.97-1.61
	c0.07-0.11,0.13-0.23,0.19-0.36c-0.35,0.44-0.78,0.63-1.59,0.58c0,0,0,0-0.01,0c0,0,0,0,0.01,0c1.2-0.54,1.8-1.05,2.33-1.9
	c0.13-0.2,0.25-0.42,0.37-0.67c-1.05,1.07-2.26,1.38-3.54,1.15l-0.96,0.1C12.05,21.83,12.02,21.91,11.99,21.99z"/>
<linearGradient id="SVGID_4_" gradientUnits="userSpaceOnUse" x1="-6051.6523" y1="870.5653" x2="-6019.5562" y2="870.5653" gradientTransform="matrix(0.4226 -0.9063 -0.9063 -0.4226 3352.2441 -5085.6851)">
	<stop  offset="0.3233" style="stop-color:#9E2064"/>
	<stop  offset="0.6302" style="stop-color:#C92037"/>
	<stop  offset="0.7514" style="stop-color:#CD2335"/>
	<stop  offset="1" style="stop-color:#E97826"/>
</linearGradient>
<path class="st6" d="M12.44,19.84c0.21-0.54,0.42-1.08,0.64-1.62c0.21-0.52,0.43-1.05,0.65-1.58c0.22-0.53,0.45-1.06,0.68-1.59
	c0.23-0.54,0.47-1.08,0.72-1.61c0.24-0.53,0.49-1.06,0.73-1.58c0.09-0.19,0.18-0.38,0.27-0.56c0.16-0.32,0.31-0.64,0.47-0.96
	c0.01-0.02,0.02-0.03,0.03-0.05l-1.18-2.34c-0.02,0.03-0.04,0.06-0.06,0.09c-0.28,0.45-0.55,0.91-0.82,1.38
	c-0.27,0.48-0.54,0.96-0.8,1.45c-0.22,0.41-0.44,0.83-0.65,1.25c-0.04,0.09-0.08,0.17-0.13,0.26c-0.26,0.53-0.49,1.04-0.7,1.54
	c-0.24,0.56-0.45,1.09-0.63,1.6c-0.12,0.33-0.23,0.65-0.33,0.96c-0.08,0.26-0.16,0.53-0.24,0.79c-0.18,0.62-0.33,1.24-0.45,1.86
	l1.19,2.35c0.16-0.42,0.32-0.85,0.48-1.28C12.34,20.08,12.39,19.96,12.44,19.84z"/>
<linearGradient id="SVGID_5_" gradientUnits="userSpaceOnUse" x1="-6049.3115" y1="870.13" x2="-6032.4438" y2="870.13" gradientTransform="matrix(0.4226 -0.9063 -0.9063 -0.4226 3352.2441 -5085.6851)">
	<stop  offset="0" style="stop-color:#282662"/>
	<stop  offset="0.0955" style="stop-color:#662E8D"/>
	<stop  offset="0.7882" style="stop-color:#9F2064"/>
	<stop  offset="0.9487" style="stop-color:#CD2032"/>
</linearGradient>
<path class="st7" d="M10.61,19.22c-0.15,0.75-0.26,1.5-0.31,2.25c0,0.03,0,0.05-0.01,0.08c-0.37-0.6-1.37-1.18-1.36-1.17
	c0.71,1.03,1.25,2.06,1.33,3.06c-0.38,0.08-0.9-0.03-1.51-0.26c0.63,0.58,1.1,0.74,1.29,0.78c-0.58,0.04-1.18,0.43-1.79,0.89
	c0.89-0.36,1.6-0.5,2.12-0.39c-0.81,2.3-1.63,4.85-2.45,7.55c0.25-0.07,0.4-0.24,0.48-0.47c0.15-0.49,1.11-3.7,2.62-7.92
	c0.04-0.12,0.09-0.24,0.13-0.36c0.01-0.03,0.02-0.07,0.04-0.1c0.16-0.44,0.33-0.89,0.5-1.35c0.04-0.1,0.08-0.21,0.12-0.31
	c0,0,0,0,0-0.01l-1.19-2.35C10.62,19.16,10.61,19.19,10.61,19.22z"/>
<linearGradient id="SVGID_6_" gradientUnits="userSpaceOnUse" x1="-6051.6523" y1="867.2421" x2="-6019.5562" y2="867.2421" gradientTransform="matrix(0.4226 -0.9063 -0.9063 -0.4226 3352.2441 -5085.6851)">
	<stop  offset="0.3233" style="stop-color:#9E2064"/>
	<stop  offset="0.6302" style="stop-color:#C92037"/>
	<stop  offset="0.7514" style="stop-color:#CD2335"/>
	<stop  offset="1" style="stop-color:#E97826"/>
</linearGradient>
<path class="st8" d="M16.8,10.48c-0.03,0.07-0.07,0.14-0.1,0.21c-0.1,0.21-0.21,0.43-0.31,0.65c-0.11,0.24-0.23,0.48-0.34,0.73
	c-0.06,0.13-0.12,0.25-0.18,0.38c-0.18,0.39-0.36,0.78-0.54,1.19c-0.22,0.5-0.45,1.03-0.68,1.57c-0.22,0.52-0.44,1.06-0.67,1.61
	c-0.22,0.53-0.43,1.07-0.65,1.63c-0.2,0.5-0.39,1.02-0.6,1.54c-0.01,0.03-0.02,0.05-0.03,0.08c-0.2,0.53-0.4,1.06-0.6,1.62
	c0,0.01-0.01,0.03-0.01,0.04l0.96-0.1c-0.02,0-0.04-0.01-0.06-0.01c1.15-0.14,2.67-1,3.65-2.06c0.45-0.49,0.87-1.06,1.25-1.73
	c0.28-0.5,0.55-1.06,0.8-1.67c0.22-0.54,0.43-1.12,0.64-1.75c-0.26,0.14-0.56,0.24-0.9,0.31c-0.06,0.01-0.12,0.02-0.18,0.03
	c-0.06,0.01-0.12,0.02-0.18,0.03l0,0l0,0c0,0,0,0,0,0c1.07-0.41,1.74-1.2,2.23-2.18c-0.28,0.19-0.74,0.44-1.28,0.56
	c-0.07,0.02-0.15,0.03-0.23,0.04c-0.02,0-0.04,0.01-0.06,0.01l0,0l0,0c0,0,0,0,0,0c0,0,0,0,0,0l0,0c0.37-0.16,0.68-0.33,0.95-0.53
	c0.06-0.04,0.11-0.09,0.17-0.14c0.08-0.07,0.16-0.15,0.24-0.23c0.05-0.05,0.09-0.1,0.14-0.16c0.11-0.13,0.21-0.26,0.3-0.41
	c0.03-0.05,0.06-0.09,0.08-0.14c0.04-0.07,0.07-0.14,0.1-0.2c0.15-0.3,0.27-0.57,0.36-0.8c0.05-0.12,0.09-0.23,0.12-0.33
	c0.01-0.04,0.03-0.08,0.04-0.12c0.04-0.11,0.07-0.21,0.09-0.3c0.04-0.13,0.06-0.24,0.07-0.31l0,0l0,0
	c-0.04,0.03-0.08,0.06-0.12,0.09c-0.32,0.19-0.88,0.37-1.32,0.45l0.88-0.1l-0.88,0.1c-0.01,0-0.01,0-0.02,0
	c-0.04,0.01-0.09,0.01-0.13,0.02c0.01,0,0.02-0.01,0.02-0.01l-3.01,0.33C16.81,10.46,16.81,10.47,16.8,10.48z"/>
<linearGradient id="SVGID_7_" gradientUnits="userSpaceOnUse" x1="-6053.6431" y1="867.4062" x2="-6021.5469" y2="867.4062" gradientTransform="matrix(0.4226 -0.9063 -0.9063 -0.4226 3352.2441 -5085.6851)">
	<stop  offset="0.3233" style="stop-color:#9E2064"/>
	<stop  offset="0.6302" style="stop-color:#C92037"/>
	<stop  offset="0.7514" style="stop-color:#CD2335"/>
	<stop  offset="1" style="stop-color:#E97826"/>
</linearGradient>
<path class="st9" d="M20.19,4.4c-0.27,0.41-0.56,0.88-0.87,1.41c-0.02,0.03-0.03,0.06-0.05,0.08C18.99,6.35,18.7,6.85,18.4,7.4
	c-0.26,0.47-0.54,0.98-0.82,1.53c-0.25,0.48-0.5,0.98-0.76,1.52l3.01-0.33c0.88-0.4,1.27-0.77,1.65-1.3c0.1-0.15,0.2-0.3,0.3-0.46
	c0.31-0.48,0.61-1.01,0.88-1.54c0.26-0.51,0.49-1.02,0.67-1.47c0.11-0.29,0.2-0.56,0.27-0.8c0.06-0.21,0.1-0.41,0.13-0.6
	C22.56,4.16,21.12,4.35,20.19,4.4z"/>
<path class="st2" d="M18.24,14.77c-0.06,0.01-0.12,0.02-0.18,0.03l0,0C18.12,14.79,18.18,14.78,18.24,14.77z"/>
<path class="st3" d="M18.24,14.77c-0.06,0.01-0.12,0.02-0.18,0.03l0,0C18.12,14.79,18.18,14.78,18.24,14.77z"/>
<linearGradient id="SVGID_8_" gradientUnits="userSpaceOnUse" x1="-6051.6523" y1="866.2543" x2="-6019.5562" y2="866.2543" gradientTransform="matrix(0.4226 -0.9063 -0.9063 -0.4226 3352.2441 -5085.6851)">
	<stop  offset="0.3233" style="stop-color:#9E2064"/>
	<stop  offset="0.6302" style="stop-color:#C92037"/>
	<stop  offset="0.7514" style="stop-color:#CD2335"/>
	<stop  offset="1" style="stop-color:#E97826"/>
</linearGradient>
<path class="st10" d="M18.24,14.77c-0.06,0.01-0.12,0.02-0.18,0.03l0,0C18.12,14.79,18.18,14.78,18.24,14.77z"/>
<path class="st2" d="M18.72,13.24c0.02,0,0.04-0.01,0.06-0.01C18.76,13.23,18.74,13.23,18.72,13.24L18.72,13.24z"/>
<path class="st3" d="M18.72,13.24c0.02,0,0.04-0.01,0.06-0.01C18.76,13.23,18.74,13.23,18.72,13.24L18.72,13.24z"/>
<linearGradient id="SVGID_9_" gradientUnits="userSpaceOnUse" x1="-6051.6523" y1="866.3674" x2="-6019.5562" y2="866.3674" gradientTransform="matrix(0.4226 -0.9063 -0.9063 -0.4226 3352.2441 -5085.6851)">
	<stop  offset="0.3233" style="stop-color:#9E2064"/>
	<stop  offset="0.6302" style="stop-color:#C92037"/>
	<stop  offset="0.7514" style="stop-color:#CD2335"/>
	<stop  offset="1" style="stop-color:#E97826"/>
</linearGradient>
<path class="st11" d="M18.72,13.24c0.02,0,0.04-0.01,0.06-0.01C18.76,13.23,18.74,13.23,18.72,13.24L18.72,13.24z"/>
<path class="st2" d="M18.73,13.24C18.73,13.24,18.73,13.24,18.73,13.24L18.73,13.24L18.73,13.24L18.73,13.24
	C18.73,13.23,18.73,13.23,18.73,13.24z"/>
<path class="st3" d="M18.73,13.24C18.73,13.24,18.73,13.24,18.73,13.24L18.73,13.24L18.73,13.24L18.73,13.24
	C18.73,13.23,18.73,13.23,18.73,13.24z"/>
<linearGradient id="SVGID_10_" gradientUnits="userSpaceOnUse" x1="-6033.6211" y1="866.3898" x2="-6026.5269" y2="866.3898" gradientTransform="matrix(0.4226 -0.9063 -0.9063 -0.4226 3352.2441 -5085.6851)">
	<stop  offset="0.3233" style="stop-color:#9E2064"/>
	<stop  offset="0.6302" style="stop-color:#C92037"/>
	<stop  offset="0.7514" style="stop-color:#CD2335"/>
	<stop  offset="1" style="stop-color:#E97826"/>
</linearGradient>
<path class="st12" d="M18.73,13.24C18.73,13.24,18.73,13.24,18.73,13.24L18.73,13.24L18.73,13.24L18.73,13.24
	C18.73,13.23,18.73,13.23,18.73,13.24z"/>
</svg>
