<?xml version="1.0" encoding="utf-8"?>
<!-- Generator: Adobe Illustrator 20.1.0, SVG Export Plug-In . SVG Version: 6.00 Build 0)  -->
<svg version="1.1" id="Layer_1" xmlns="http://www.w3.org/2000/svg" xmlns:xlink="http://www.w3.org/1999/xlink" x="0px" y="0px"
	 viewBox="0 0 32 32" style="enable-background:new 0 0 32 32;" xml:space="preserve">
<style type="text/css">
	.st0{fill:url(#SVGID_1_);}
	.st1{fill:#FFFFFF;}
</style>
<linearGradient id="SVGID_1_" gradientUnits="userSpaceOnUse" x1="1.2487" y1="15.9968" x2="30.4393" y2="15.9968">
	<stop  offset="0" style="stop-color:#345E96"/>
	<stop  offset="0.1005" style="stop-color:#3865A1"/>
	<stop  offset="0.3371" style="stop-color:#3F72B6"/>
	<stop  offset="0.4922" style="stop-color:#4277BE"/>
	<stop  offset="0.6542" style="stop-color:#3F72B6"/>
	<stop  offset="0.9058" style="stop-color:#3864A0"/>
	<stop  offset="1" style="stop-color:#345E96"/>
</linearGradient>
<path class="st0" d="M30.44,0.48L30.44,0.48c0-0.27-0.22-0.48-0.48-0.48H1.73C1.47,0,1.25,0.22,1.25,0.48v0
	c1.25,0.6,1.74,1.84,1.74,1.84v25.81c0,2.13,1.74,3.87,3.87,3.87h17.78c2.13,0,3.87-1.74,3.87-3.87V2.32
	C28.51,2.32,28.31,1.35,30.44,0.48z"/>
<polygon class="st1" points="12.68,6.42 2.95,6.42 2.95,4.24 13.46,4.24 "/>
<rect x="2.95" y="9.56" class="st1" width="5.98" height="2.18"/>
<rect x="2.95" y="14.96" class="st1" width="5.98" height="2.18"/>
<rect x="2.95" y="20.37" class="st1" width="5.98" height="2.18"/>
<rect x="2.95" y="25.77" class="st1" width="5.98" height="2.18"/>
<g>
	<path class="st1" d="M21.12,27.95h-7.15c-0.81,0-1.39-0.24-1.73-0.71c-0.35-0.47-0.52-1.22-0.52-2.25V7.12
		c0-1.05,0.18-1.8,0.53-2.26c0.35-0.46,0.93-0.69,1.72-0.69h5.21c0.88,0,1.63,0.07,2.28,0.21c0.64,0.14,1.22,0.41,1.73,0.81
		c0.43,0.34,0.82,0.76,1.15,1.27c0.33,0.51,0.59,1.08,0.76,1.7c0.18,0.62,0.26,1.28,0.26,1.97c0,2.38-1.01,3.72-2.84,4.82
		c4,0.41,5.98,3.33,5.98,6.2c0,1.33-0.26,2.53-0.79,3.59c-0.53,1.07-1.23,1.85-2.13,2.36c-0.56,0.3-1.2,0.52-1.93,0.64
		C22.93,27.88,22.08,27.95,21.12,27.95z M15.43,7.43v5.41h2.11c0.81,0,1.44-0.1,1.89-0.3c0.44-0.2,0.78-0.58,1.02-1.14
		c0.18-0.4,0.27-0.85,0.27-1.34c0-1.06-0.29-1.76-0.87-2.1c-0.58-0.35-1.46-0.52-2.65-0.52H15.43z M19.51,17.82h-4.08v6.11h4.87
		c2.21,0,3.31-1.03,3.31-3.1c0-1.06-0.48-1.63-1.06-2.11C21.98,18.24,20.64,17.82,19.51,17.82z"/>
</g>
</svg>
