<?xml version="1.0" encoding="UTF-8"?>
<svg width="24px" height="24px" viewBox="0 0 24 24" version="1.1" xmlns="http://www.w3.org/2000/svg" xmlns:xlink="http://www.w3.org/1999/xlink">
    <title></title>
    <g id="Icons" stroke="none" stroke-width="1" fill="none" fill-rule="evenodd">
        <g id="Icons/1.-Size-md/Object/pficon-build" fill="#151515">
            <path d="M19.5683924,6.67937815 L12.4458924,4.08094065 C12.3032748,4.02753995 12.1522422,4.00012757 11.9999549,4.00000104 C11.841739,3.99980552 11.6847,4.0271948 11.5358924,4.08094065 L4.43229868,6.6776594 C4.17226478,6.77241459 3.99962712,7.02012024 4.00072561,7.29687815 L4.00072561,7.89062815 C4.00306002,8.17347752 4.18161128,8.42483429 4.44792368,8.5201594 L5.33136118,8.83594065 C5.48452327,8.89079756 5.65479845,8.8677071 5.78781995,8.77404182 C5.92084145,8.68037652 5.99997527,8.52784899 5.99995492,8.3651594 L5.99995492,7.66531565 L11.9999549,5.48437815 L17.9871424,7.6745344 L17.9871424,8.6151594 C17.9871701,8.72036006 18.0383358,8.81898141 18.1243278,8.87958296 C18.2103199,8.94018451 18.3204043,8.95520165 18.4194862,8.9198469 L19.5543299,8.5198469 C19.8218041,8.42453632 20.0002902,8.17113854 19.9999559,7.88719065 L19.9999559,7.2948469 C19.9996055,7.01966282 19.8276067,6.7739234 19.5691737,6.67937815 M12.3382362,9.4120344 L11.9999549,9.5214094 L11.6497987,9.43875315 C11.4977187,9.38897209 11.3309878,9.4151854 11.2015202,9.5092312 C11.0720525,9.60327699 10.9955722,9.75373321 10.9958904,9.91375315 L10.9958904,10.5246906 C10.9957142,10.7356499 11.1282018,10.9239349 11.3268299,10.9950031 L11.8058924,11.1590656 C11.9246457,11.2018683 12.0552251,11.1979587 12.1712049,11.1481281 L12.6613612,10.9667219 C12.8598122,10.8954211 12.9921982,10.7072805 12.9923031,10.4964094 L12.9923031,9.8870344 C12.9927745,9.72692457 12.9163065,9.57633312 12.7867552,9.48224899 C12.6572038,9.38816485 12.4903422,9.36204307 12.3382362,9.4120344 M9.49589242,9.6229719 L9.49589242,8.9807844 C9.49573311,8.76449745 9.35652442,8.57283332 9.15089242,8.5057844 L8.15182992,8.17937815 C7.99977933,8.12967965 7.83311858,8.15590559 7.70367959,8.24989962 C7.57424061,8.34389366 7.49772291,8.49425538 7.49792289,8.6542219 L7.49792289,9.26562815 C7.49803705,9.47618338 7.63004461,9.6641052 7.82807992,9.73562815 L8.82714242,10.0950031 C8.98045644,10.1497428 9.15082105,10.126417 9.28377905,10.032482 C9.41673703,9.93854702 9.49564033,9.78576463 9.49526742,9.6229719 M19.4877674,10.9062531 L17.3799549,10.1664094 C17.3256217,10.1459357 17.2656944,10.1459357 17.2113612,10.1664094 L16.4699549,10.4304719 C16.2482362,10.5085969 16.2482362,10.8226594 16.4699549,10.9007844 L18.2680799,11.5468781 L11.9999549,14.1059406 L5.71057992,11.5434406 L7.49792367,10.9028156 C7.71792367,10.8232844 7.71792367,10.5107844 7.49792367,10.4326594 L6.75948617,10.1684406 C6.70488014,10.1498446 6.64565472,10.1498446 6.59104867,10.1684406 L4.51807993,10.9120344 C4.20381321,11.0241324 3.9957938,11.3238789 4.00073618,11.6575031 L4.00073618,11.8606281 C3.98676129,12.1830013 4.17280748,12.4806752 4.46870493,12.6093781 L11.4438612,15.6762531 C11.782987,15.825131 12.1688745,15.8256408 12.5083924,15.6776594 L16.5396424,13.9135969 L19.5357362,12.5926594 C19.8289103,12.4643491 20.0126436,12.1685862 19.9977675,11.8489094 L19.9977675,11.6473469 C20.0056867,11.3160889 19.7999959,11.0171944 19.4877674,10.9062531 M19.5551112,14.5000031 L18.3071424,14.0595344 C18.2472013,14.0380286 18.1813125,14.0402081 18.1229237,14.0656281 L17.4579237,14.3564094 C17.2504237,14.4470344 17.2613612,14.7439094 17.4735487,14.8203156 L18.2343299,15.0937531 L11.9999549,18.3151594 L5.73870492,15.0917219 L6.38182992,14.8606281 C6.59104867,14.7856281 6.60495492,14.4934406 6.40370492,14.3996906 L5.76307992,14.0995344 C5.70326452,14.071568 5.63484784,14.0682566 5.57261117,14.0903156 L4.43745493,14.4979719 C4.17730193,14.5915359 4.00300633,14.8372958 4.00073618,15.1137531 L4.00073618,15.4075031 C4.00098898,15.6469705 4.13165877,15.8672886 4.34167368,15.9823469 L11.3547987,19.835472 C11.5527565,19.9432806 11.7745442,19.9998421 11.9999549,20.0000032 C12.2204973,19.9997599 12.4373137,19.943122 12.6297987,19.835472 L19.65933,15.9823469 C19.8692241,15.8672064 19.9997647,15.6469042 19.999955,15.4075031 L19.999955,15.1323469 C19.999955,14.8488186 19.8219622,14.5958094 19.5551112,14.5000031 M16.4887107,9.25750315 L16.4887107,8.64812815 C16.4892504,8.48799235 16.4127991,8.33735259 16.2832265,8.24325306 C16.153654,8.14915354 15.9867516,8.12306252 15.8346424,8.17312815 L14.8357362,8.50000315 C14.6301589,8.56703418 14.4909631,8.75861754 14.4907362,8.9748469 L14.4907362,9.6154719 C14.49089,9.77794966 14.5699823,9.93022143 14.7028187,10.0237818 C14.8356551,10.1173421 15.0056696,10.1405231 15.1587049,10.0859406 L16.1577674,9.72969065 C16.3565514,9.65792557 16.4889393,9.46915713 16.4887107,9.25781565" id="pficon-build"></path>
        </g>
    </g>
</svg>