<?xml version="1.0" encoding="utf-8"?>
<!-- Generator: Adobe Illustrator 20.1.0, SVG Export Plug-In . SVG Version: 6.00 Build 0)  -->
<svg version="1.1" id="Layer_1" xmlns="http://www.w3.org/2000/svg" xmlns:xlink="http://www.w3.org/1999/xlink" x="0px" y="0px"
	 viewBox="0 0 32 32" style="enable-background:new 0 0 32 32;" xml:space="preserve">
<style type="text/css">
	.st0{fill:#2D485E;}
	.st1{fill:#5D7E95;}
	.st2{fill:#FFFFFF;}
	.st3{fill:#92C37E;}
	.st4{fill:#4A5D75;}
</style>
<g>
	<g>
		<path class="st0" d="M31.71,26.06c-8.45,2.37-13.15,2.33-13.61,2.27c-0.57,0.07-5.26,0.06-13.59-2.27c0,0,2.56-21.17,13.55-23.77
			V2.27c0.02,0,0.03,0.01,0.04,0.01c0.02,0,0.04-0.01,0.05-0.01v0.03C29.16,4.89,31.71,26.06,31.71,26.06z"/>
		<path class="st1" d="M17.61,28.63c-0.83,0-5.35-0.11-13.18-2.3c-0.14-0.04-0.22-0.17-0.21-0.31c0.11-0.87,2.7-21.3,13.69-23.99
			c0.06-0.04,0.12-0.05,0.19-0.05c0.08-0.02,0.17,0.01,0.24,0.06C29.31,4.77,31.89,25.15,32,26.03c0.02,0.14-0.07,0.27-0.21,0.31
			c-7.81,2.19-12.38,2.3-13.22,2.3c-0.2,0-0.37-0.01-0.47-0.02C17.99,28.63,17.82,28.63,17.61,28.63z M4.83,25.85
			c7.6,2.11,11.98,2.21,12.79,2.21c0.24,0,0.4-0.01,0.46-0.02c0.02,0,0.05,0,0.07,0c0.05,0.01,0.2,0.01,0.44,0.01
			c0.81,0,5.23-0.11,12.82-2.21C31.07,23.5,28.15,4.96,18.11,2.57C8.08,4.97,5.16,23.5,4.83,25.85z"/>
	</g>
	<g>
		<g>
			<rect x="11.57" y="22.11" class="st1" width="5.35" height="6.29"/>
			<g>
				<g>
					<path class="st1" d="M16.92,28.68h-5.35c-0.16,0-0.28-0.13-0.28-0.29v-6.29c0-0.16,0.13-0.28,0.28-0.28h5.35
						c0.16,0,0.29,0.13,0.29,0.28v6.29C17.21,28.56,17.08,28.68,16.92,28.68z M11.85,28.11h4.78v-5.72h-4.78V28.11z"/>
				</g>
			</g>
		</g>
	</g>
	<g>
		<g>
			<rect x="19.17" y="22.07" class="st1" width="5.35" height="6.29"/>
			<g>
				<g>
					<path class="st1" d="M24.53,28.65h-5.35c-0.16,0-0.28-0.13-0.28-0.29v-6.29c0-0.16,0.13-0.29,0.28-0.29h5.35
						c0.16,0,0.29,0.13,0.29,0.29v6.29C24.81,28.52,24.68,28.65,24.53,28.65z M19.46,28.08h4.78v-5.72h-4.78V28.08z"/>
				</g>
			</g>
		</g>
	</g>
	<g>
		<path class="st2" d="M29.19,23.49c-6.88,1.93-10.71,1.9-11.08,1.85c-0.46,0.05-4.28,0.05-11.07-1.85c0,0,2.08-17.24,11.04-19.36
			V4.11c0.01,0,0.02,0.01,0.04,0.01c0.02,0,0.03-0.01,0.04-0.01v0.02C27.11,6.25,29.19,23.49,29.19,23.49z"/>
	</g>
	<g>
		<path class="st3" d="M25.21,6.7c0,0,1.32,2.97,1.32,5.29l-0.82-0.66c0,0,1.13,1.32,1.29,3.14l-1.29-0.33c0,0,1.02,0.52,1.24,2.51
			c0.01,0.08,0.04,0.72-0.24,1.63c-0.31,0.17,0.01-0.79-1.2-1.31c-0.34,0.03,0.91,1.36,0.5,2.88c-0.19,0.32-0.12-0.81-1.22-0.85
			c-0.24-0.01,0.48,1,0.04,2.39c-0.23,0.24-0.06-0.49-0.99-0.7c-0.2-0.04,0.38,0.96-0.27,1.8c-0.16,0.12-0.18-0.59-0.67-0.63
			c-0.25,0.17,0.19,1.04-0.66,1.5c-0.24,0.14-0.13-0.45-0.81-0.39c-0.29,0.03,0.1,0.8-0.78,1.19c-0.3,0.13-0.43-0.44-0.75-0.32
			c-0.43,0.16-0.28,0.81-1.54,1.16l-0.92,0.19l0.36-12.71c0,0,1.96-1.49,3.77-0.33c1.82,1.16,2.48,0.17,2.48,0.17
			s-0.33,1.82-1.82,1.82c0,0,1.65,1.15,2.48-1.16c0.83-2.31-0.99-6.11-0.99-6.11"/>
	</g>
	<g>
		<g>
			<g>
				<g>
					<path class="st3" d="M10.84,6.7c0,0-1.32,2.97-1.32,5.29l0.83-0.66c0,0-1.13,1.32-1.29,3.14l1.29-0.33c0,0-1.32,1.49-1.32,4.13
						l0.83-0.5l0.33,1.82l8.07-7.1c0,0-1.96-1.49-3.77-0.33c-1.82,1.16-2.48,0.17-2.48,0.17s0.33,1.82,1.82,1.82
						c0,0-1.65,1.15-2.48-1.16c-0.83-2.31,0.99-6.11,0.99-6.11"/>
				</g>
			</g>
		</g>
	</g>
	<g>
		<g>
			<path class="st4" d="M18.23,11.39c4.56-0.14,7.96-2.02,7.96-2.02C24.47,2,18.71,0.43,18,0.26l0-0.02c0,0-0.02,0.01-0.04,0.01
				c-0.01,0-0.04-0.01-0.04-0.01v0.02C17.22,0.43,11.45,2,9.73,9.37c0,0,3.41,1.88,7.96,2.02l0,0.01c0.09,0,0.18,0,0.27,0
				c0.09,0,0.18,0,0.27,0L18.23,11.39z"/>
		</g>
	</g>
	<g>
		<g>
			<path class="st4" d="M12.83,7.52c0,0-3.82,0.79-4.21-0.79c-0.39-1.58-0.26-2.5,0.39-6.31c0,0,1.05,1.05,0.79,2.5
				c-0.26,1.45,0,3.03,3.95,2.5C13.75,5.42,15.46,5.55,12.83,7.52z"/>
		</g>
		<g>
			<path class="st4" d="M10.87,8C9.39,8,8.54,7.6,8.34,6.8C7.93,5.16,8.07,4.2,8.73,0.37c0.02-0.1,0.09-0.19,0.2-0.22
				c0.1-0.03,1.76,0.15,1.41,2.2c-0.13,0.77,0.06,1.87,0.36,2.22c0.48,0.58,1.29,0.8,3.06,0.56c0.02,0,0,0,0.02,0
				c0.07,0.01,0.65,0.06,0.79,0.54C14.7,6.18,14.21,6.84,13,7.75c-0.03,0.03-0.07,0.04-0.11,0.05C12.84,7.81,11.89,8,10.87,8z
				 M9.18,1.13c-0.55,3.19-0.64,4.1-0.29,5.54c0.16,0.64,1.16,0.77,1.98,0.77c0.82,0,1.61-0.14,1.84-0.18
				c1.39-1.05,1.3-1.41,1.3-1.43c-0.02-0.06-0.16-0.11-0.25-0.12c-1.99,0.26-3.25,0.03-3.88-0.73C9.33,4.33,9.41,3.46,9.52,2.86
				C9.65,2.15,9.41,1.53,9.18,1.13z"/>
		</g>
	</g>
	<g>
		<g>
			<path class="st4" d="M23.18,7.52c0,0,3.82,0.79,4.21-0.79c0.4-1.58,0.26-2.5-0.4-6.31c0,0-1.05,1.05-0.79,2.5
				c0.26,1.45,0,3.03-3.95,2.5C22.26,5.42,20.55,5.55,23.18,7.52z"/>
		</g>
		<g>
			<path class="st4" d="M23.13,7.8c-0.04-0.01-0.08-0.03-0.11-0.05c-1.21-0.91-1.71-1.57-1.56-2.08c0.14-0.47,0.72-0.53,0.78-0.54
				c0.02,0,0.07,0,0.09,0c1.76,0.23,2.51,0.01,2.99-0.57c0.3-0.35,0.49-1.45,0.36-2.22c-0.34-2.05,1.31-2.23,1.41-2.2
				c0.1,0.03,0.18,0.12,0.2,0.22c0.66,3.83,0.8,4.79,0.39,6.43C27.47,7.6,26.62,8,25.14,8C24.12,8,23.17,7.81,23.13,7.8z
				 M26.49,2.86c0.11,0.6,0.19,1.46-0.35,2.11c-0.63,0.75-1.89,0.99-3.88,0.73c-0.09,0.01-0.24,0.06-0.25,0.12
				c0,0.01-0.09,0.37,1.3,1.43c0.22,0.04,1.02,0.18,1.84,0.18c0.81,0,1.82-0.13,1.98-0.77c0.36-1.43,0.26-2.35-0.28-5.54
				C26.6,1.53,26.36,2.15,26.49,2.86z"/>
		</g>
	</g>
	<g>
		<g>
			<path class="st2" d="M10.31,31.7c-0.04,0-0.08-0.01-0.12-0.02C2.24,29.71,0.38,14.51,0.3,13.87c-0.02-0.14,0.07-0.28,0.21-0.32
				c5.61-1.62,8.86-1.7,9.45-1.7c0.15,0,0.27,0,0.35,0.01c0.08-0.01,0.19-0.01,0.34-0.01c0.6,0,3.88,0.08,9.47,1.7
				c0.14,0.04,0.23,0.17,0.21,0.32c-0.08,0.65-1.94,15.84-9.89,17.81c-0.03,0.01-0.08,0.02-0.13,0.02
				C10.31,31.7,10.31,31.7,10.31,31.7z"/>
		</g>
		<g>
			<path class="st1" d="M9.96,12.14c0.17,0,0.29,0.01,0.35,0.01c0.05,0,0.16-0.01,0.34-0.01c1.03,0,4.24,0.2,9.39,1.69
				c0,0-1.83,15.64-9.69,17.56c0,0-0.02,0.01-0.03,0.01c0,0,0,0,0,0c0,0,0,0,0,0c-0.01,0-0.03-0.01-0.03-0.01
				c-7.86-1.92-9.69-17.56-9.69-17.56C5.71,12.35,8.9,12.14,9.96,12.14 M9.96,11.55L9.96,11.55c-0.6,0-3.89,0.08-9.53,1.72
				C0.15,13.35-0.03,13.62,0,13.9c0.08,0.65,1.97,16.03,10.1,18.06C10.16,31.98,10.23,32,10.3,32c0.01,0,0.02,0,0.02,0
				c0.08,0,0.15-0.02,0.21-0.04c8.13-2.03,10.02-17.41,10.1-18.06c0.03-0.29-0.15-0.56-0.42-0.64c-5.49-1.59-8.71-1.71-9.56-1.71
				c-0.1,0-0.23,0-0.34,0.01C10.2,11.55,10.06,11.55,9.96,11.55L9.96,11.55z"/>
		</g>
	</g>
	<g>
		<path class="st1" d="M27.73,11.99c0,0,1.18-0.1,1.88,1.68c0.69,1.77,2.47,6.51,2.17,7.6c-0.3,1.09-0.79,0.89-0.79,0.89
			L27.73,11.99z"/>
	</g>
	<g>
		<path class="st2" d="M18.22,10.12c-3.12,0-5.47-0.73-5.62-0.78l0.45-1.41c0.05,0.02,5.08,1.57,9.96,0l0.45,1.41
			C21.65,9.92,19.83,10.12,18.22,10.12z"/>
	</g>
	<g>
		<circle class="st0" cx="20.76" cy="9.19" r="0.67"/>
	</g>
	<g>
		<circle class="st0" cx="15.19" cy="9.15" r="0.67"/>
	</g>
</g>
</svg>
