<?xml version="1.0" encoding="utf-8"?>
<!-- Generator: Adobe Illustrator 20.1.0, SVG Export Plug-In . SVG Version: 6.00 Build 0)  -->
<svg version="1.1" id="Layer_1" xmlns="http://www.w3.org/2000/svg" xmlns:xlink="http://www.w3.org/1999/xlink" x="0px" y="0px"
	 viewBox="0 0 32 32" style="enable-background:new 0 0 32 32;" xml:space="preserve">
<style type="text/css">
	.st0{fill:#BBE6FB;}
	.st1{fill:none;}
	.st2{opacity:0.35;}
	.st3{fill:#FFFFFF;}
	.st4{fill:#373535;}
	.st5{fill:#1287B1;}
	.st6{opacity:0.35;clip-path:url(#SVGID_2_);}
</style>
<g id="g2830">
	<g id="g2836" transform="translate(210.8784,690.4834)">
		<path id="path2838" class="st0" d="M-185.31-677.03c0.24,2.74-4.07,5.34-9.62,5.82c-5.55,0.48-10.24-1.36-10.48-4.1
			c-0.24-2.74,4.07-5.34,9.62-5.82C-190.23-681.61-185.54-679.77-185.31-677.03"/>
	</g>
</g>
<g id="g2842">
	<g id="g2848">
		<rect x="8.53" y="9.67" class="st1" width="13.1" height="9.23"/>
		<g id="g2858" class="st2">
			<g id="g2860" transform="translate(141.3843,715.9233)">
				<path id="path2862" class="st3" d="M-126.12-706.25c-2.12-0.03-4.59,0.81-6.44,1.59c-0.19,0.55-0.3,1.14-0.3,1.75
					c0,3.25,2.93,5.88,6.55,5.88c3.62,0,6.55-2.63,6.55-5.88c0-1.03-0.29-1.99-0.81-2.83
					C-122.04-705.97-124.07-706.22-126.12-706.25"/>
			</g>
		</g>
	</g>
</g>
<g id="g2866">
	<g id="g2872" transform="translate(140.1528,715.9277)">
		<path id="path2874" class="st3" d="M-125.07-706.25c-1.17-0.07-3.19,0.54-4.88,1.15c-0.26,0.6-0.4,1.27-0.4,1.96
			c0,2.85,2.58,5.15,5.31,5.15c2.71,0,5.11-2.31,5.31-5.15c0.06-0.93-0.25-1.8-0.7-2.55C-122.17-706-124.03-706.19-125.07-706.25"/>
	</g>
</g>
<g id="g2878">
	<g id="g2884" transform="translate(119.8818,697.4946)">
		<path id="path2886" class="st4" d="M-107.81-685.09c0.14-0.32,0.36-0.47,0.57-0.74c-0.02-0.06-0.07-0.27-0.07-0.34
			c0-0.32,0.26-0.58,0.58-0.58c0.08,0,0.15,0.02,0.21,0.04c0.96-0.73,2.22-1.05,3.49-0.77c0.12,0.03,0.23,0.06,0.34,0.09
			c-1.25-0.17-2.67,0.27-3.63,1.05c0.03,0.07,0.11,0.27,0.11,0.35c0,0.32-0.21,0.4-0.53,0.4c-0.07,0-0.14-0.01-0.21-0.04
			c-0.22,0.29-0.48,0.85-0.61,1.19c0.53,0.48,1.01,0.65,1.64,0.88c0-0.03,0.02-0.06,0.02-0.09c0-0.97,0.85-1.75,1.81-1.75
			c0.86,0,1.58,0.63,1.72,1.45c0.43-0.27,0.85-0.48,1.17-0.89c-0.07-0.09-0.15-0.35-0.15-0.47c0-0.29,0.24-0.53,0.53-0.53
			c0.04,0,0.08,0.01,0.12,0.01c0.16-0.33,0.28-0.68,0.36-1.05c-1.51-1.12-4.43-0.96-4.43-0.96s-2.32-0.12-3.9,0.65
			C-108.56-686.42-108.26-685.7-107.81-685.09"/>
	</g>
	<g id="g2888" transform="translate(168.4907,700.4282)">
		<path id="path2890" class="st4" d="M-149.21-688.45c0.11,0.1,0.16,0.18,0.21,0.26c0.14,0.25-0.14,0.49-0.43,0.49
			c-0.03,0-0.06,0-0.09-0.01c-0.33,0.51-0.9,1.17-1.41,1.5c0.78,0.13,1.52,0.44,2.1,0.92c0.43-0.76,0.75-1.87,0.75-2.81
			c0-0.71-0.32-1.24-0.79-1.62C-148.88-689.34-149.09-688.8-149.21-688.45"/>
	</g>
	<g id="g2892" transform="translate(125.7842,667.8032)">
		<path id="path2894" class="st4" d="M-112.84-650.99c0.26-0.72,0.9-1.28,1.51-1.76c-0.09-0.12-0.22-0.42-0.28-0.56
			c-0.74-0.22-1.39-0.64-1.9-1.2c0,0.02-0.01,0.03-0.01,0.05c-0.1,0.43-0.11,0.86-0.07,1.27c0.35,0.07,0.62,0.38,0.62,0.75
			c0,0.22-0.19,0.54-0.34,0.68C-113.15-651.41-113.03-651.24-112.84-650.99"/>
	</g>
	<g id="g2896" transform="translate(125.4756,663.7393)">
		<path id="path2898" class="st4" d="M-112.58-646.32c-0.31-0.31-0.52-0.92-0.73-1.31c-0.04,0.01-0.08,0.01-0.12,0.01
			c-0.42,0-0.86-0.35-0.76-0.76c0.06-0.23,0.21-0.37,0.47-0.5c-0.06-0.47-0.07-1.14,0.04-1.63c0.03-0.14,0.1-0.2,0.14-0.34
			c-0.46-0.68-0.76-1.57-0.76-2.46c0-0.03,0-0.06,0-0.1c-0.78,0.39-1.37,1.01-1.37,1.99c0,2.16,1.24,4.28,3.09,5.11
			C-112.58-646.31-112.58-646.32-112.58-646.32"/>
	</g>
	<g id="g2900" transform="translate(156.1313,683.8511)">
		<path id="path2902" class="st4" d="M-138.68-669.42c-0.24,0.68-0.89,1.17-1.65,1.17c-0.41,0-0.78-0.14-1.08-0.37
			c-0.61,0.48-1.17,1.31-1.45,2.04c0.13,0.14,0.22,0.25,0.36,0.37c0.43,0.11,1.02,0,1.48,0c1.87,0,3.52-0.83,4.46-2.28
			C-137.18-668.93-137.93-669.35-138.68-669.42"/>
	</g>
</g>
<g id="g2906">
	<g id="g2912" transform="translate(119.5596,695.7944)">
		<path id="path2914" class="st5" d="M-107.54-683.13c0.14-0.32,0.32-0.61,0.53-0.88c-0.02-0.06-0.04-0.13-0.04-0.2
			c0-0.32,0.26-0.58,0.58-0.58c0.08,0,0.15,0.02,0.21,0.04c0.96-0.73,2.22-1.05,3.49-0.77c0.12,0.03,0.23,0.06,0.34,0.09
			c-1.25-0.17-2.55,0.21-3.51,0.99c0.03,0.07,0.05,0.15,0.05,0.23c0,0.32-0.26,0.58-0.58,0.58c-0.07,0-0.14-0.01-0.21-0.04
			c-0.22,0.29-0.39,0.61-0.53,0.96c0.46,0.49,1.02,0.88,1.64,1.12c0-0.03,0-0.06,0-0.09c0-0.96,0.78-1.75,1.75-1.75
			c0.86,0,1.58,0.63,1.72,1.45c0.43-0.27,0.81-0.63,1.13-1.03c-0.07-0.09-0.12-0.2-0.12-0.33c0-0.29,0.24-0.53,0.53-0.53
			c0.04,0,0.08,0.01,0.12,0.01c0.16-0.33,0.28-0.68,0.36-1.05c-1.51-1.12-4.43-0.96-4.43-0.96s-2.32-0.12-3.9,0.65
			C-108.29-684.46-107.98-683.74-107.54-683.13"/>
	</g>
	<g id="g2916" transform="translate(169.0396,699.8481)">
		<path id="path2918" class="st5" d="M-149.68-687.79c0.11,0.1,0.18,0.23,0.18,0.39c0,0.29-0.24,0.53-0.53,0.53
			c-0.03,0-0.06,0-0.09-0.01c-0.33,0.51-0.76,0.95-1.27,1.28c0.75,0.12,1.46,0.44,2.05,0.92c0.43-0.76,0.67-1.64,0.67-2.58
			c0-0.71-0.32-1.24-0.79-1.62C-149.48-688.51-149.56-688.14-149.68-687.79"/>
	</g>
	<g id="g2920" transform="translate(126.3252,666.6401)">
		<path id="path2922" class="st5" d="M-113.3-649.65c0.26-0.72,0.71-1.36,1.32-1.85c-0.09-0.12-0.16-0.25-0.22-0.4
			c-0.74-0.22-1.39-0.64-1.9-1.2c0,0.02-0.01,0.03-0.01,0.05c-0.1,0.43-0.11,0.86-0.07,1.27c0.35,0.07,0.62,0.38,0.62,0.75
			c0,0.22-0.09,0.42-0.25,0.56C-113.66-650.18-113.49-649.91-113.3-649.65"/>
	</g>
	<g id="g2924" transform="translate(125.4619,663.7983)">
		<path id="path2926" class="st5" d="M-112.56-646.39c-0.31-0.31-0.57-0.66-0.77-1.05c-0.04,0.01-0.08,0.01-0.12,0.01
			c-0.42,0-0.76-0.34-0.76-0.76c0-0.3,0.18-0.56,0.43-0.68c-0.06-0.47-0.04-0.95,0.07-1.44c0.03-0.14,0.07-0.28,0.11-0.41
			c-0.46-0.68-0.74-1.5-0.74-2.39c0-0.03,0-0.06,0-0.1c-0.78,0.39-1.37,1.01-1.37,1.99c0,2.16,1.29,4.02,3.14,4.85
			C-112.57-646.38-112.57-646.38-112.56-646.39"/>
	</g>
	<g id="g2928" transform="translate(155.8091,682.1509)">
		<path id="path2930" class="st5" d="M-138.41-667.47c-0.24,0.68-0.89,1.17-1.65,1.17c-0.41,0-0.78-0.14-1.08-0.37
			c-0.61,0.48-1.07,1.13-1.36,1.85c0.13,0.14,0.26,0.26,0.4,0.39c0.43,0.11,0.88,0.17,1.34,0.17c1.87,0,3.51-0.96,4.45-2.42
			C-136.92-667.11-137.65-667.4-138.41-667.47"/>
	</g>
</g>
<g id="g2940">
	<rect x="12.27" y="10.79" class="st1" width="6.81" height="6.81"/>
	<g id="g2950">
		<g id="g2952" transform="translate(156.2222,685.187)">
			<path id="path2954" class="st3" d="M-138.76-670.95l1.61-0.39l-1.62-0.08l1.32-1.01l-1.5,0.54l1.02-1.41l-1.4,0.93l0.49-1.65
				l-0.96,1.36l-0.02-1.72l-0.63,1.53l-0.53-1.55l0.03,1.82l-0.91-1.64l0.49,1.74l-1.48-1.08l1.16,1.46l-1.84-0.68l1.45,1.08
				l-1.86,0.06l1.91,0.49l-1.91,0.41l1.88,0.14l-1.59,1.02l1.63-0.59l-1.13,1.44l1.43-1.16l-0.52,1.93l1.11-1.57l-0.16,1.85
				l0.63-1.68l0.53,1.77l0.13-1.77l0.79,1.51l-0.47-1.73l1.45,1.13l-0.94-1.44l1.59,0.62l-1.22-1.2l1.63,0.13L-138.76-670.95z"/>
		</g>
	</g>
</g>
<g id="g2958">
	<g id="g2964">
		<rect x="0.28" y="8.15" class="st1" width="31.52" height="9.17"/>
		<g id="g2974" class="st2">
			<g id="g2976" transform="translate(40.4033,664.3701)">
				<path id="path2978" class="st4" d="M-40.13-647.05c5.01-5.01,9.01-6.55,12.63-7.26c0.48-0.09,0.57-1.14,0.57-1.14
					s0.07,0.77,0.4,0.87c0.34,0.1,0.77-1.21,0.77-1.21s-0.4,1.18,0,1.24c0.4,0.07,1.14-1.14,1.14-1.14s-0.3,1.04-0.1,1.11
					c0.2,0.07,1.21-1.51,1.21-1.51s-0.6,1.04-0.03,1.14c0.57,0.1,1.4-0.71,1.4-0.71s-0.66,0.74-0.36,0.85
					c1.24,0.44,2.25-1.18,2.25-1.18s-0.23,0.71-0.84,1.48c1.31,0.34,2.28-1.64,2.28-1.64l-0.97,1.97c0.5,0.27,2.52-2.05,2.52-2.05
					s-1.04,1.81-1.65,2.18c0.34,0.27,1.55-0.81,1.55-0.81s-0.97,1.21-0.6,1.28c0.54,0.44,2.52-2.25,2.52-2.25s-0.77,1.58-1.92,2.82
					c0.95,0.48,3.33-2.59,3.33-2.59s-0.07,0.97-1.78,2.52c1.28-0.17,2.92-2.59,2.92-2.59s-0.6,1.81-2.05,3.09
					c1.25-0.13,3.26-3.23,3.26-3.23s-0.77,2.15-2.35,3.39c1.75,0.39,4.27-2.22,4.27-2.22s-0.99,1.85-2.29,2.6
					c1.45,0.55,3.43-1.73,3.43-1.73s-1.98,3.06-5.14,2.92c-1.04-0.04-4.17-3.14-10.89-2.89C-33.51-653.36-35.39-649.6-40.13-647.05"
					/>
			</g>
		</g>
	</g>
	<g id="g2980" transform="translate(41.7861,666.9326)">
		<path id="path2982" class="st4" d="M-41.31-649.99c5.01-5.01,9.01-6.55,12.63-7.26c0.48-0.09,0.57-1.14,0.57-1.14
			s0.07,0.77,0.4,0.87c0.34,0.1,0.77-1.21,0.77-1.21s-0.4,1.18,0,1.24c0.4,0.07,1.14-1.14,1.14-1.14s-0.3,1.04-0.1,1.11
			c0.2,0.07,1.21-1.51,1.21-1.51s-0.6,1.04-0.03,1.14c0.57,0.1,1.4-0.71,1.4-0.71s-0.66,0.74-0.36,0.85
			c1.24,0.44,2.25-1.18,2.25-1.18s-0.23,0.71-0.84,1.48c1.31,0.34,2.28-1.64,2.28-1.64l-0.97,1.97c0.5,0.27,2.52-2.05,2.52-2.05
			s-1.04,1.81-1.65,2.18c0.34,0.27,1.55-0.81,1.55-0.81s-0.97,1.21-0.6,1.28c0.54,0.44,2.52-2.25,2.52-2.25s-0.77,1.58-1.92,2.82
			c0.95,0.48,3.33-2.59,3.33-2.59s-0.07,0.97-1.78,2.52c1.28-0.17,2.92-2.59,2.92-2.59s-0.6,1.81-2.05,3.09
			c1.25-0.13,3.26-3.23,3.26-3.23s-0.77,2.15-2.35,3.39c1.75,0.39,4.27-2.22,4.27-2.22s-0.99,1.85-2.29,2.6
			c1.45,0.55,3.43-1.73,3.43-1.73s-1.98,3.06-5.14,2.92c-1.04-0.04-4.17-3.14-10.89-2.89C-34.69-656.31-36.57-652.54-41.31-649.99"
			/>
	</g>
</g>
<g id="g2986">
	<g id="g2992">
		<g id="g3000">
			<defs>
				<rect id="SVGID_1_" x="0.14" y="13.72" width="29.59" height="10.95"/>
			</defs>
			<clipPath id="SVGID_2_">
				<use xlink:href="#SVGID_1_"  style="overflow:visible;"/>
			</clipPath>
			<g id="g3002" class="st6">
				<g id="g3004" transform="translate(39.5195,660.6802)">
					<path id="path3006" class="st4" d="M-39.38-642.81c2.65,1.33,5.07-0.2,8.12,0.66c2.32,0.65,5.14,1.46,8.97,0.9
						c3.83-0.55,7.11-2.22,8.67-5.19c0.49-1.33,2.47,0.3,2.47,0.3s-1.44-0.6-1.41-0.32c0.03,0.29,2.17,1.28,2.17,1.28
						s-1.93-0.6-1.81-0.15c0.12,0.45,2.42,2.27,2.42,2.27s-2.6-1.98-2.82-1.71c-0.22,0.27,1.11,1.36,1.11,1.36s-2.2-1.36-2.97-0.96
						c-0.56,0.29,2.29,2.15,2.29,2.15s-1.85-1.41-2.29-1.04c-0.44,0.37,2.08,3.39,2.08,3.39s-2.86-3.09-3.14-2.94
						c-0.29,0.15,0.79,1.63,0.79,1.63s-1.41-1.55-1.8-1.28c-0.39,0.27,2.02,4.28,2.02,4.28s-2.6-4.12-3.68-3.43
						c1.69,3.7,1.06,4.23,1.06,4.23s-0.22-3.78-2.32-3.68c-1.06,0.05,0.5,2.82,0.5,2.82s-1.44-2.53-2.4-2.48
						c1.77,3.34,1.14,4.7,1.14,4.7s0.29-2.85-2.1-4.44c0.91,0.81-0.57,4.44-0.57,4.44s1.3-5.36-0.96-4.33
						c-0.36,0.16-0.03,2.67-0.03,2.67s-0.45-2.87-1.13-2.72c-0.4,0.09-2.52,3.98-2.52,3.98s1.74-4.21,1.21-4.03
						c-0.39,0.13-1.11,1.86-1.11,1.86s0.35-1.71,0-1.81c-0.35-0.1-2.32,1.81-2.32,1.81s1.46-1.71,1.21-2.07
						c-0.38-0.53-0.83-0.56-1.36-0.35c-0.77,0.3-1.81,1.71-1.81,1.71s1.04-1.43,0.86-1.97c-0.29-0.86-3.28,1.66-3.28,1.66
						s1.76-1.66,1.36-2.02c-0.4-0.35-2.59-0.24-3.28-0.25C-38.06-641.85-38.76-642.32-39.38-642.81"/>
				</g>
			</g>
		</g>
	</g>
	<g id="g3008" transform="translate(38.8408,662.7183)">
		<path id="path3010" class="st4" d="M-38.8-645.15c2.65,1.33,5.07-0.2,8.11,0.66c2.32,0.65,5.14,1.46,8.97,0.9
			c3.83-0.55,7.11-2.22,8.67-5.19c0.49-1.33,2.47,0.3,2.47,0.3s-1.44-0.6-1.41-0.32c0.03,0.29,2.17,1.28,2.17,1.28
			s-1.93-0.6-1.81-0.15c0.12,0.45,2.42,2.27,2.42,2.27s-2.6-1.98-2.82-1.71c-0.22,0.27,1.11,1.36,1.11,1.36s-2.2-1.36-2.97-0.96
			c-0.56,0.29,2.28,2.15,2.28,2.15s-1.85-1.41-2.28-1.04c-0.44,0.37,2.08,3.39,2.08,3.39s-2.86-3.09-3.14-2.94
			c-0.29,0.15,0.79,1.63,0.79,1.63s-1.41-1.55-1.8-1.28c-0.39,0.27,2.02,4.28,2.02,4.28s-2.6-4.12-3.68-3.43
			c1.69,3.7,1.06,4.23,1.06,4.23s-0.22-3.78-2.32-3.68c-1.06,0.05,0.5,2.82,0.5,2.82s-1.44-2.53-2.4-2.48
			c1.77,3.34,1.14,4.7,1.14,4.7s0.29-2.85-2.1-4.44c0.91,0.81-0.57,4.44-0.57,4.44s1.3-5.36-0.96-4.33
			c-0.36,0.16-0.03,2.67-0.03,2.67s-0.45-2.87-1.13-2.72c-0.4,0.09-2.52,3.98-2.52,3.98s1.74-4.21,1.21-4.03
			c-0.39,0.13-1.11,1.86-1.11,1.86s0.35-1.71,0-1.81c-0.35-0.1-2.32,1.81-2.32,1.81s1.46-1.71,1.21-2.07
			c-0.38-0.53-0.83-0.56-1.36-0.35c-0.77,0.3-1.81,1.71-1.81,1.71s1.04-1.43,0.86-1.97c-0.29-0.86-3.28,1.66-3.28,1.66
			s1.76-1.66,1.36-2.02c-0.4-0.35-2.59-0.24-3.28-0.25C-37.49-644.19-38.19-644.66-38.8-645.15"/>
	</g>
</g>
</svg>
