<svg xmlns="http://www.w3.org/2000/svg" viewBox="0 0 258.51 259"><defs><style>.cls-1{fill:none;}.cls-2{fill:#8d8d8f;}.cls-3{fill:#d1d1d1;}</style></defs><title>Asset 2</title><g id="Layer_2" data-name="Layer 2"><g id="Layer_1-2" data-name="Layer 1"><path class="cls-1" d="M174.81,20H29.19A9.18,9.18,0,0,0,20,29.19V174.81A9.18,9.18,0,0,0,29.19,184H174.81a9.18,9.18,0,0,0,9.19-9.19V29.19A9.18,9.18,0,0,0,174.81,20Z"/><path class="cls-2" d="M240.91,55H214V186.4A27.63,27.63,0,0,1,186.4,214H54.51v27.4A17.65,17.65,0,0,0,72.12,259H240.91a17.65,17.65,0,0,0,17.6-17.6V72.61A17.65,17.65,0,0,0,240.91,55Z"/><path class="cls-2" d="M174,174V55H72.12A17.66,17.66,0,0,0,54.51,72.61V174H174Z"/><path class="cls-3" d="M186.4,0H17.6A17.65,17.65,0,0,0,0,17.6V186.4A17.65,17.65,0,0,0,17.6,204H186.4A17.65,17.65,0,0,0,204,186.4V17.6A17.65,17.65,0,0,0,186.4,0ZM184,170.38v4.43a9.18,9.18,0,0,1-9.19,9.19H29.19A9.18,9.18,0,0,1,20,174.81V29.19A9.18,9.18,0,0,1,29.19,20H174.81A9.18,9.18,0,0,1,184,29.19V170.38Z"/></g></g></svg>