<?xml version="1.0" encoding="utf-8"?>
<!-- Generator: Adobe Illustrator 20.1.0, SVG Export Plug-In . SVG Version: 6.00 Build 0)  -->
<svg version="1.1" id="Layer_1" xmlns="http://www.w3.org/2000/svg" xmlns:xlink="http://www.w3.org/1999/xlink" x="0px" y="0px"
	 viewBox="0 0 32 32" style="enable-background:new 0 0 32 32;" xml:space="preserve">
<style type="text/css">
	.st0{fill:#FFFFFF;}
	.st1{fill:#91DC47;}
	.st2{fill:#63B132;}
	.st3{fill:#90B4FE;}
	.st4{fill:#5881D8;}
</style>
<g>
	<path id="path8" class="st0" d="M15.99,0.01C7.18,0.01,0,7.18,0,16c0,8.82,7.17,15.99,15.99,15.99c8.82,0,15.99-7.17,15.99-15.99
		C31.98,7.18,24.81,0.01,15.99,0.01"/>
	<path id="path10" class="st1" d="M15.33,16.29c-0.16,0.34-0.33,0.73-0.52,1.14c-0.64,1.45-1.35,3.23-1.61,4.36
		c-0.09,0.4-0.15,0.9-0.15,1.46c0,0.22,0.01,0.45,0.03,0.69c0.91,0.33,1.89,0.52,2.91,0.52c0.93,0,1.83-0.16,2.67-0.43
		c-0.2-0.18-0.38-0.37-0.56-0.59C16.97,21.98,16.33,19.86,15.33,16.29"/>
	<path id="path12" class="st1" d="M11.13,9.09c-2.17,1.53-3.59,4.05-3.6,6.91c0.01,2.82,1.38,5.31,3.5,6.84
		c0.52-2.16,1.82-4.14,3.77-8.11c-0.12-0.32-0.25-0.67-0.4-1.03c-0.54-1.36-1.32-2.93-2.02-3.64C12.04,9.69,11.61,9.36,11.13,9.09"
		/>
	<path id="path14" class="st2" d="M23.36,25.7c-1.12-0.14-2.04-0.31-2.85-0.59c-1.36,0.68-2.89,1.06-4.51,1.06
		c-5.61,0-10.16-4.55-10.16-10.16c0-3.04,1.34-5.77,3.46-7.64C8.73,8.23,8.14,8.15,7.53,8.15C4.55,8.18,1.41,9.83,0.1,14.28
		C-0.03,14.93,0,15.42,0,16c0,8.83,7.16,15.99,15.99,15.99c5.41,0,10.19-2.69,13.08-6.8c-1.56,0.39-3.07,0.58-4.36,0.58
		C24.23,25.77,23.78,25.75,23.36,25.7"/>
	<path id="path16" class="st3" d="M20.35,22.6c0.1,0.05,0.32,0.13,0.63,0.22c2.1-1.54,3.46-4.02,3.46-6.82h0
		c-0.01-4.67-3.79-8.45-8.46-8.45c-0.93,0-1.82,0.15-2.65,0.43c1.72,1.96,2.54,4.75,3.34,7.81c0,0,0,0,0,0c0,0,0.26,0.85,0.69,1.97
		c0.43,1.12,1.05,2.51,1.72,3.52C19.54,21.97,20.02,22.46,20.35,22.6"/>
	<path id="path18" class="st4" d="M15.99,0.01c-5.36,0-10.09,2.64-13,6.68C4.51,5.74,6.05,5.4,7.4,5.41
		C9.25,5.42,10.72,6,11.42,6.39c0.17,0.1,0.33,0.2,0.49,0.31c1.25-0.55,2.63-0.86,4.09-0.86c5.61,0,10.16,4.55,10.16,10.16h0
		c0,2.83-1.16,5.39-3.02,7.23c0.46,0.05,0.95,0.08,1.44,0.08c1.77,0,3.69-0.39,5.12-1.6c0.94-0.79,1.72-1.94,2.15-3.67
		c0.09-0.67,0.13-1.35,0.13-2.04C31.98,7.17,24.82,0.01,15.99,0.01"/>
</g>
</svg>
