<?xml version="1.0" encoding="utf-8"?>
<!-- Generator: Adobe Illustrator 20.1.0, SVG Export Plug-In . SVG Version: 6.00 Build 0)  -->
<svg version="1.1" id="Layer_1" xmlns="http://www.w3.org/2000/svg" xmlns:xlink="http://www.w3.org/1999/xlink" x="0px" y="0px"
	 viewBox="0 0 32 32" style="enable-background:new 0 0 32 32;" xml:space="preserve">
<style type="text/css">
	.st0{fill:#EE4323;}
</style>
<path class="st0" d="M22,32c0.46-0.31,0.83-0.69,1.12-1.12c0.29-0.46,0.49-0.97,0.59-1.53c0.13-0.56,0.2-1.04,0.22-1.44
	C23.98,27.51,24,27,24,26.38c0-0.79-0.21-1.59-0.62-2.41c-0.44-0.83-0.98-1.56-1.62-2.19c-0.67-0.65-1.31-1.2-1.94-1.66
	C19.17,19.67,18.56,19.29,18,19c-1.13-0.56-2.07-1.27-2.84-2.12C14.39,16,14,15.04,14,14c-0.35,0-0.77,0.3-1.25,0.91
	C12.25,15.53,12,16.23,12,17c0,0.38,0.2,0.78,0.59,1.22c0.42,0.44,0.86,0.83,1.34,1.19c0.48,0.35,0.92,0.78,1.31,1.28
	s0.59,1,0.59,1.5c0,1.02-0.24,1.91-0.72,2.66C14.65,25.61,13.94,26,13,26s-1.67-0.4-2.19-1.19C10.27,24.02,10,23.08,10,22
	c-0.38,0.19-0.7,0.43-0.97,0.72c-0.27,0.31-0.47,0.6-0.59,0.88c-0.15,0.29-0.25,0.67-0.31,1.12s-0.09,0.82-0.09,1.09
	C8.01,26.08,8,26.48,8,27c0,2.38,0.67,4.04,2,5c-1.35-0.25-2.52-0.62-3.5-1.12c-1-0.5-1.78-1.04-2.34-1.62
	c-0.58-0.6-1.03-1.32-1.34-2.16c-0.33-0.85-0.55-1.67-0.66-2.44C2.05,23.88,2,23,2,22c0-1.88,0.97-4.28,2.91-7.22
	C6.86,11.82,8.9,9.56,11,8c0.1-0.1,0.4-0.33,0.88-0.69c0.48-0.38,0.92-0.75,1.31-1.12c0.42-0.4,0.85-0.89,1.31-1.47
	s0.82-1.28,1.09-2.09C15.86,1.81,16,0.94,16,0c0.27,0,0.61,0.12,1.03,0.38c0.44,0.25,0.88,0.57,1.31,0.97
	c0.46,0.42,0.84,0.95,1.16,1.59C19.83,3.6,20,4.29,20,5c0,0.67-0.1,1.3-0.31,1.91S19.25,8,19,8.38c-0.25,0.38-0.48,0.79-0.69,1.25
	C18.1,10.1,18,10.56,18,11c0,0.83,0.29,1.54,0.88,2.12S20.16,14,21,14c0.73,0,1.36-0.18,1.91-0.53c0.56-0.35,0.93-0.84,1.09-1.47
	c1.83,1.33,3.29,2.91,4.38,4.72C29.46,18.53,30,20.29,30,22c0,0.96-0.08,1.9-0.25,2.81c-0.17,0.92-0.45,1.81-0.84,2.69
	c-0.4,0.9-0.89,1.67-1.47,2.31c-0.6,0.65-1.36,1.17-2.28,1.56C24.22,31.79,23.16,32,22,32L22,32z"/>
</svg>
