<svg xmlns="http://www.w3.org/2000/svg" viewBox="0 0 100 100"><defs><style>.cls-1{fill:#d71e00;}.cls-2{fill:#c21a00;}.cls-3{fill:#eaeaea;}.cls-4{fill:#fff;}.cls-5{fill:#cdcdcd;}</style></defs><title>Logo</title><g id="Layer_1" data-name="Layer 1"><circle class="cls-1" cx="50" cy="50" r="50" transform="translate(-20.71 50) rotate(-45)"/><path class="cls-2" d="M85.36,14.64A50,50,0,0,1,14.64,85.36Z"/><path class="cls-3" d="M55.06,75.78c0-.16-.07-.31-.1-.47A9.24,9.24,0,0,1,56,69.4a13.73,13.73,0,0,1-4-.16c-4-.81.21-4.74,9.57-7.72a16.61,16.61,0,0,1,5-1,9.1,9.1,0,0,1-2.11-6.09h0A22.54,22.54,0,0,1,59.62,57C48.13,61.6,45.31,59.78,59,46.79a19.37,19.37,0,0,1,4.08-3h0a9.3,9.3,0,0,1-4.64-4.51l.07-.14a26.35,26.35,0,0,1-2.65,3.75c-7.54,9.25-16.57,16.29-10.53-3A20,20,0,0,1,47,35.73,9.24,9.24,0,0,1,41,34.12a19.52,19.52,0,0,1-.65,4.75c-2.51,10.44-6.17,15.4-8.34,9.26a11.28,11.28,0,0,1-.54-4.63,9.18,9.18,0,0,1-6.07,1.37,16.58,16.58,0,0,1,1.82,4.54l.12.51a24.14,24.14,0,0,1,0,10.41,12.7,12.7,0,0,0,13.43,15.2,16.88,16.88,0,0,0,4.09-1,8.72,8.72,0,0,1,5-.6,17.3,17.3,0,0,1,5.22,1.86Z"/><circle class="cls-4" cx="26.48" cy="35.66" r="7.46" transform="matrix(0.99, -0.15, 0.15, 0.99, -5.01, 4.34)"/><circle class="cls-4" cx="46.25" cy="26.48" r="7.46" transform="matrix(0.99, -0.15, 0.15, 0.99, -3.43, 7.18)"/><circle class="cls-4" cx="66.78" cy="35.32" r="7.46" transform="matrix(0.99, -0.15, 0.15, 0.99, -4.51, 10.33)"/><circle class="cls-4" cx="73.74" cy="54.61" r="7.46" transform="matrix(0.99, -0.15, 0.15, 0.99, -7.3, 11.58)"/><circle class="cls-4" cx="64.15" cy="73.92" r="7.46" transform="matrix(0.99, -0.15, 0.15, 0.99, -10.28, 10.37)"/><path class="cls-5" d="M23.8,42.62a17,17,0,0,1,1.58,2.26,9.18,9.18,0,0,0,6.07-1.37,16.74,16.74,0,0,1,.44-2.71,7.43,7.43,0,0,1-8.09,1.83Z"/><path class="cls-5" d="M40.63,31.38A11.83,11.83,0,0,1,41,34.12,9.24,9.24,0,0,0,47,35.73a13,13,0,0,1,1.59-2.18,7.4,7.4,0,0,1-8-2.17Z"/><path class="cls-5" d="M59.48,36.84a12.84,12.84,0,0,1-1.1,2.46A9.3,9.3,0,0,0,63,43.81a18,18,0,0,1,2.52-1.13A7.46,7.46,0,0,1,59.48,36.84Z"/><path class="cls-5" d="M66.36,55.72a7.42,7.42,0,0,1,.23-3.22,13.84,13.84,0,0,1-2.13,1.91,9.1,9.1,0,0,0,2.11,6.09,15,15,0,0,1,2.8.16A7.44,7.44,0,0,1,66.36,55.72Z"/><path class="cls-5" d="M56,69.4A9.24,9.24,0,0,0,55,75.3c0,.16.06.32.1.47a19.11,19.11,0,0,1,2.45,1.53,7.43,7.43,0,0,1,1.26-8.54A13,13,0,0,1,56,69.4Z"/></g></svg>