<?xml version="1.0" encoding="utf-8"?>
<!-- Generator: Adobe Illustrator 22.1.0, SVG Export Plug-In . SVG Version: 6.00 Build 0)  -->
<svg version="1.1" id="Debian" xmlns="http://www.w3.org/2000/svg" xmlns:xlink="http://www.w3.org/1999/xlink" x="0px" y="0px"
	 viewBox="0 0 99.7 99.7" style="enable-background:new 0 0 99.7 99.7;" xml:space="preserve">
<style type="text/css">
	.st0{fill:#A80030;}
</style>
<title>debian</title>
<path class="st0" d="M57.7,52.7c-1.7,0,0.3,0.8,2.5,1.2c0.6-0.5,1.1-0.9,1.6-1.4C60.4,52.8,59,52.8,57.7,52.7"/>
<path class="st0" d="M66.6,50.4c1-1.3,1.7-2.8,2-4.4c-0.3,1.1-0.8,2.1-1.4,3c-3.1,1.9-0.3-1.2,0-2.3C63.9,50.9,66.7,49.2,66.6,50.4"
	/>
<path class="st0" d="M69.8,41.9c0.2-3-0.6-2-0.8-0.9C69.3,41.2,69.5,43.1,69.8,41.9"/>
<path class="st0" d="M51.4,1.3c0.9,0.2,1.9,0.3,1.8,0.5C54.2,1.6,54.3,1.4,51.4,1.3"/>
<path class="st0" d="M53.2,1.8l-0.6,0.1L53.2,1.8L53.2,1.8"/>
<path class="st0" d="M80.7,43.1c0.1,2.7-0.8,4-1.6,6.3L77.7,50c-1.2,2.3,0.1,1.4-0.7,3.2c-1.8,1.6-5.6,5.1-6.7,5.4
	c-0.9,0,0.6-1,0.8-1.4c-2.4,1.7-2,2.5-5.7,3.5l-0.1-0.2c-9.2,4.3-22-4.2-21.8-16c-0.1,0.7-0.3,0.6-0.5,0.9
	c-0.5-6.1,2.8-11.9,8.3-14.5c5.1-2.6,11.2-1.8,15.5,2c-2.7-3.5-6.9-5.5-11.3-5.4c-4.9,0.1-9.5,3.2-11,6.5c-2.5,1.6-2.8,6.1-3.9,6.9
	c-1.5,10.8,2.8,15.4,9.9,20.9c1.1,0.8,0.3,0.9,0.5,1.4c-2.4-1.2-4.6-2.8-6.3-4.8c0.9,1.4,2,2.7,3.3,3.8c-2.2-0.8-5.2-5.4-6.1-5.6
	c3.9,6.9,15.7,12.1,21.9,9.5c-3.3,0.2-6.6-0.1-9.7-1.1c-1.3-0.7-3.2-2.1-2.9-2.4c8.4,3.2,17.2,2.4,24.5-3.5c1.9-1.4,3.9-3.9,4.5-3.9
	c-0.9,1.3,0.2,0.6-0.5,1.8c1.8-3-0.8-1.2,1.9-5.2l1,1.4c-0.4-2.5,3.1-5.5,2.7-9.4c0.8-1.2,0.9,1.3,0,4c1.2-3.1,0.3-3.6,0.6-6.1
	c0.4,0.9,0.7,1.7,1,2.7c-0.8-3,0.8-5,1.2-6.7c-0.4-0.2-1.2,1.3-1.3-2.2c0-1.5,0.4-0.8,0.6-1.2c-0.3-0.2-1.1-1.3-1.6-3.6
	c0.3-0.5,0.9,1.4,1.4,1.4c-0.4-1.5-0.7-3-0.8-4.5c-1.4-2.9-0.5,0.4-1.6-1.2c-1.5-4.5,1.2-1.1,1.4-3.1c2.2,3.2,3.5,8.2,4,10.2
	c-0.4-2.5-1.1-4.9-2-7.3c0.7,0.3-1.1-5.2,0.9-1.5C86.6,17.1,79.8,10,73.5,6.6c0.8,0.7,1.7,1.6,1.4,1.7c-3.1-1.9-2.6-2-3-2.8
	c-2.6-1-2.7,0.1-4.4,0C62.7,3,61.7,3.3,57.3,1.7l0.2,0.9c-3.2-1.1-3.7,0.4-7.2,0c-0.2-0.2,1.1-0.6,2.2-0.8c-3.1,0.4-2.9-0.6-5.9,0.1
	c0.8-0.5,1.5-0.9,2.3-1.3c-2.5,0.1-6,1.5-4.9,0.3c-4.1,1.8-11.4,4.4-15.5,8.2l-0.2-0.8c-1.9,2.2-8.2,6.7-8.7,9.6l-0.5,0.1
	c-0.9,1.7-1.7,3.4-2.4,5.2c-1.3,2.2-1.9,0.8-1.7,1.2c-2,4.1-3.6,8.4-4.8,12.8c0.8,1.1,0,6.9,0.3,11.5C9.5,71.5,26.6,93.5,45.4,98.7
	c2.8,1,6.8,0.9,10.3,1c-4.1-1.2-4.6-0.6-8.7-2c-2.9-1.4-3.5-2.9-5.6-4.7l0.8,1.4c-4-1.4-2.3-1.8-5.6-2.8l0.9-1.1
	c-1.3-0.1-3.4-2.2-4-3.3l-1.4,0.1c-1.7-2.1-2.6-3.6-2.6-4.8l-0.5,0.8c-0.5-0.9-6.3-7.9-3.3-6.3c-0.9-0.6-1.6-1.4-2.1-2.3l0.6-0.7
	c-1.4-1.8-2.7-4.2-2.6-5c0.4,0.7,1.1,1.2,1.8,1.4c-3.6-9-3.8-0.5-6.6-9.2h0.6c-0.4-0.7-0.8-1.4-1.1-2.1l0.2-2.5
	c-2.6-3-0.7-12.9-0.3-18.3c0.3-2.2,2.2-4.5,3.7-8.2l-0.9-0.2c1.7-3,9.7-11.9,13.5-11.5c1.8-2.3-0.4,0-0.7-0.6c4-4.1,5.2-2.9,7.9-3.6
	c2.9-1.7-2.5,0.7-1.1-0.6c5-1.3,3.5-2.9,10-3.5c0.7,0.4-1.6,0.6-2.2,1.1c4.2-2,13.1-1.6,18.9,1.1c6.8,3.2,14.4,12.5,14.7,21.3
	l0.3,0.1c-0.2,3.5,0.5,7.5-0.7,11.2l0.8-1.8"/>
<path class="st0" d="M39.7,54.9l-0.3,1.2c0.9,1.5,2.1,3,3.3,4.2C41.7,58.4,41,57.6,39.7,54.9"/>
<path class="st0" d="M42.2,54.8c-0.5-0.7-1-1.4-1.3-2.2c0.4,1.3,1,2.5,1.8,3.7L42.2,54.8"/>
<path class="st0" d="M87.6,44.9l-0.2,0.6c-0.4,3.2-1.4,6.3-2.9,9.2C86.1,51.7,87.2,48.4,87.6,44.9"/>
<path class="st0" d="M51.8,0.5c1.1-0.4,2.8-0.2,3.9-0.5c-1.5,0.1-3.1,0.2-4.6,0.4L51.8,0.5"/>
<path class="st0" d="M12.5,21.3c0.3,2.4-1.8,3.3,0.5,1.7C14.2,20.4,12.5,22.3,12.5,21.3"/>
<path class="st0" d="M9.9,32.4c0.3-1.1,0.6-2.3,0.8-3.5C9.3,30.7,10.1,31.1,9.9,32.4"/>
</svg>
