<svg xmlns="http://www.w3.org/2000/svg" viewBox="0 0 100 100"><defs><style>.cls-1{fill:#d71e00;}.cls-2{fill:#c21a00;}.cls-3{fill:#fff;}.cls-4{fill:#eaeaea;}.cls-5{fill:#b7b7b7;}.cls-6{fill:#cdcdcd;}</style></defs><title>Logo</title><g id="Layer_1" data-name="Layer 1"><circle class="cls-1" cx="50" cy="50" r="50" transform="translate(-20.71 50) rotate(-45)"/><path class="cls-2" d="M85.36,14.64A50,50,0,0,1,14.64,85.36Z"/><path class="cls-3" d="M65.76,34.28,15.6,43.15v1.13a.34.34,0,0,0,.3.34c1.47.17,7.93,2.11,8,23.49a.46.46,0,0,0,.35.44l2.59.57s-1.21-25.54,8.77-27.06,11.2,27.27,11.33,31.1a.54.54,0,0,0,.43.51l3.51.78s.06-34.54,14.92-36.82V34.28Z"/><path class="cls-4" d="M65.35,27.56,16.18,38.42a.75.75,0,0,0-.59.73v4l50.17-8.87V27.52A1.68,1.68,0,0,0,65.35,27.56Z"/><path class="cls-5" d="M35.61,42.05c-4.61.7-6.83,6.54-7.89,12.61l13.65-1.33c0-.17.09-.34.13-.51s.14-.53.21-.8l.2-.68q.12-.4.25-.8l.2-.62c.12-.36.25-.71.39-1.06l.12-.32,0,0C41.23,44.37,38.89,41.55,35.61,42.05Z"/><path class="cls-5" d="M82.23,31.19l-16-3.62a1.9,1.9,0,0,0-.42,0v6.76l17.06,2.83V31.93A.76.76,0,0,0,82.23,31.19Z"/><path class="cls-5" d="M53.43,53.62l18.41-1.13c2.1-6.05,5.51-11.75,11-12.8l-17-2.08C59.16,38.73,55.48,45.9,53.43,53.62Z"/><path class="cls-6" d="M41.71,52l.13-.45-.13.46Z"/><path class="cls-6" d="M41.91,51.34l-.06.22.07-.23Z"/><path class="cls-6" d="M27.72,54.66a68.26,68.26,0,0,0-.93,12c0,1.5,0,2.42,0,2.42L39,66.1a1.06,1.06,0,0,0,.81-1A58.72,58.72,0,0,1,41.5,52.84c0,.16-.09.33-.13.49Z"/><polygon class="cls-6" points="65.78 34.28 65.79 37.62 82.82 39.69 82.82 37.11 65.78 34.28"/><path class="cls-6" d="M50.87,74.44,68,68.68a.92.92,0,0,0,.63-.79,72.46,72.46,0,0,1,3.18-15.4L53.43,53.62A90.91,90.91,0,0,0,50.87,74.44Z"/><path class="cls-6" d="M53.43,53.62h0v0Z"/></g></svg>