<?xml version="1.0" encoding="utf-8"?>
<!-- Generator: Adobe Illustrator 20.1.0, SVG Export Plug-In . SVG Version: 6.00 Build 0)  -->
<svg version="1.1" id="Layer_1" xmlns="http://www.w3.org/2000/svg" xmlns:xlink="http://www.w3.org/1999/xlink" x="0px" y="0px"
	 viewBox="0 0 32 32" style="enable-background:new 0 0 32 32;" xml:space="preserve">
<style type="text/css">
	.st0{fill:#092E20;}
</style>
<path class="st0" d="M3.84,10.41h1.75v8.09c-0.46,0.08-0.87,0.15-1.22,0.19s-0.71,0.06-1.06,0.06c-1.06,0-1.87-0.24-2.42-0.72
	c-0.55-0.48-0.83-1.18-0.83-2.09c0-0.9,0.27-1.61,0.81-2.14C1.42,13.27,2.15,13,3.06,13c0.15,0,0.28,0.01,0.39,0.02
	c0.11,0.01,0.24,0.04,0.39,0.08L3.84,10.41L3.84,10.41z M3.84,14.5c-0.1-0.04-0.2-0.07-0.3-0.08c-0.09-0.01-0.19-0.02-0.3-0.02
	c-0.44,0-0.78,0.13-1.03,0.39c-0.25,0.26-0.38,0.63-0.38,1.11c0,0.46,0.12,0.81,0.36,1.06s0.58,0.38,1.02,0.38
	c0.1,0,0.2-0.01,0.3-0.02s0.2-0.03,0.33-0.05C3.84,17.28,3.84,14.5,3.84,14.5z M8.38,13.12v4.03c0,0.71-0.03,1.26-0.09,1.64
	s-0.17,0.72-0.31,1.02c-0.15,0.29-0.33,0.53-0.55,0.72c-0.22,0.19-0.52,0.39-0.89,0.59l-1.62-0.78c0.38-0.19,0.67-0.37,0.89-0.55
	c0.22-0.18,0.38-0.39,0.48-0.64c0.13-0.25,0.21-0.55,0.27-0.91c0.05-0.35,0.08-0.92,0.08-1.69v-3.44H8.38L8.38,13.12z M6.62,10.41
	h1.75v1.81H6.62V10.41z M9.44,13.5c0.38-0.17,0.75-0.29,1.12-0.38S11.33,13,11.75,13c0.44,0,0.81,0.06,1.11,0.17
	c0.3,0.11,0.52,0.29,0.64,0.52c0.06,0.13,0.11,0.29,0.14,0.48c0.03,0.2,0.05,0.48,0.05,0.86v3.56c-0.4,0.04-0.82,0.08-1.28,0.12
	c-0.46,0.04-0.86,0.06-1.22,0.06c-0.73,0-1.27-0.14-1.61-0.41c-0.34-0.27-0.52-0.69-0.52-1.25c0-0.6,0.23-1.06,0.7-1.38
	c0.47-0.31,1.24-0.51,2.33-0.59v-0.41c0-0.15-0.05-0.25-0.14-0.31s-0.26-0.09-0.48-0.09c-0.31,0-0.65,0.04-1,0.12
	c-0.35,0.08-0.7,0.22-1.03,0.41L9.44,13.5L9.44,13.5z M12.16,16.28c-0.58,0.06-0.98,0.15-1.2,0.27c-0.22,0.11-0.33,0.28-0.33,0.48
	c0,0.19,0.06,0.32,0.17,0.39c0.11,0.07,0.29,0.11,0.52,0.11c0.15,0,0.28-0.01,0.41-0.02c0.12-0.01,0.27-0.03,0.44-0.05L12.16,16.28
	L12.16,16.28z M14.53,13.38c0.52-0.13,1.01-0.22,1.45-0.28c0.45-0.06,0.88-0.09,1.3-0.09c0.46,0,0.85,0.05,1.17,0.14
	c0.32,0.09,0.58,0.24,0.77,0.45c0.19,0.19,0.31,0.4,0.38,0.64s0.09,0.58,0.09,1.02v3.44h-1.75v-3.38c0-0.33-0.06-0.57-0.19-0.7
	c-0.13-0.14-0.34-0.2-0.66-0.2c-0.13,0-0.25,0.01-0.36,0.02c-0.11,0.01-0.26,0.05-0.45,0.11v4.16h-1.75L14.53,13.38L14.53,13.38z
	 M20.38,19.62c0.31,0.17,0.63,0.29,0.94,0.36s0.63,0.11,0.94,0.11c0.58,0,1.01-0.12,1.27-0.38c0.26-0.25,0.39-0.65,0.39-1.19V18.5
	c-0.19,0.08-0.37,0.14-0.55,0.17s-0.38,0.05-0.61,0.05c-0.77,0-1.38-0.23-1.83-0.7c-0.45-0.47-0.67-1.1-0.67-1.89
	c0-1,0.34-1.77,1.03-2.31S22.96,13,24.25,13c0.38,0,0.74,0.02,1.11,0.06s0.75,0.1,1.17,0.19l-0.59,1.25
	c-0.23-0.04-0.31-0.05-0.23-0.03c0.07,0.02,0.02,0.02-0.17,0v0.19l0.03,0.72v0.97c0.02,0.13,0.03,0.24,0.03,0.36v0.83
	c0,0.75-0.04,1.33-0.11,1.73c-0.07,0.41-0.2,0.75-0.39,1.05c-0.27,0.44-0.64,0.76-1.11,0.97s-1.04,0.31-1.7,0.31
	c-0.35,0-0.68-0.03-0.98-0.08s-0.61-0.14-0.92-0.27L20.38,19.62L20.38,19.62z M23.84,14.41h-0.16c-0.19,0-0.37,0.02-0.55,0.06
	c-0.18,0.04-0.34,0.1-0.48,0.19c-0.21,0.13-0.36,0.29-0.47,0.5c-0.1,0.21-0.16,0.47-0.16,0.78c0,0.44,0.1,0.78,0.31,1.02
	c0.21,0.24,0.5,0.36,0.88,0.36c0.13,0,0.24-0.01,0.34-0.03c0.1-0.02,0.22-0.04,0.34-0.06v-0.62c0-0.1-0.01-0.21-0.02-0.31
	c-0.01-0.1-0.02-0.22-0.02-0.34v-0.81l-0.03-0.59L23.84,14.41L23.84,14.41z M29.25,12.97c0.88,0,1.56,0.26,2.06,0.77
	c0.5,0.51,0.75,1.21,0.75,2.11c0,0.92-0.26,1.65-0.78,2.19c-0.52,0.54-1.22,0.81-2.09,0.81c-0.88,0-1.57-0.26-2.08-0.78
	s-0.77-1.22-0.77-2.09c0-0.94,0.26-1.67,0.78-2.2C27.65,13.24,28.35,12.97,29.25,12.97L29.25,12.97L29.25,12.97z M29.22,17.41
	c0.33,0,0.59-0.13,0.78-0.39s0.28-0.63,0.28-1.11c0-0.48-0.09-0.85-0.28-1.12s-0.45-0.41-0.78-0.41c-0.35,0-0.62,0.14-0.81,0.41
	c-0.19,0.27-0.28,0.65-0.28,1.12s0.09,0.85,0.28,1.11C28.59,17.27,28.86,17.41,29.22,17.41L29.22,17.41z"/>
</svg>
