<svg xmlns="http://www.w3.org/2000/svg" version="1.1" xmlns:xlink="http://www.w3.org/1999/xlink" xmlns:svgjs="http://svgjs.com/svgjs" width="512" height="512" x="0" y="0" viewBox="0 0 512 512" style="enable-background:new 0 0 512 512" xml:space="preserve"><g><path d="M506.983 211.064c-1.362-1.075-14.333-10.893-41.71-10.893-7.238 0-14.405.645-21.572 1.863-5.303-36.263-35.26-53.965-36.621-54.753l-7.31-4.228-4.802 6.952c-6.02 9.388-10.463 19.708-13.043 30.53-4.873 20.711-1.935 40.133 8.6 56.759-12.685 7.095-33.11 8.815-37.195 8.958H16c-8.815 0-15.981 7.167-15.981 15.91-.358 29.526 4.587 58.91 14.763 86.644 11.61 30.458 28.881 52.889 51.385 66.649 25.226 15.408 66.148 24.223 112.587 24.223 20.998.072 41.925-1.863 62.493-5.662a258.754 258.754 0 0 0 81.556-29.67c20.855-12.111 39.703-27.52 55.685-45.579 26.731-30.243 42.641-63.926 54.466-93.882h4.73c29.24 0 47.228-11.682 57.189-21.5a61.665 61.665 0 0 0 15.05-22.36l2.078-6.163-5.018-3.798z" style="" fill="#2496ed" data-original="#2496ed"/><path d="M47.246 236.363h45.221c2.15 0 3.942-1.792 3.942-3.942v-40.276a3.93 3.93 0 0 0-3.942-3.942H47.246c-2.15 0-3.942 1.792-3.942 3.942v40.276c0 2.15 1.792 3.942 3.942 3.942M109.524 236.363h45.221c2.15 0 3.942-1.792 3.942-3.942v-40.276a3.93 3.93 0 0 0-3.942-3.942h-45.221a3.93 3.93 0 0 0-3.942 3.942v40.276c0 2.15 1.792 3.942 3.942 3.942M172.805 236.363h45.221c2.15 0 3.942-1.792 3.942-3.942v-40.276a3.93 3.93 0 0 0-3.942-3.942h-45.221c-2.15 0-3.942 1.792-3.942 3.942v40.276a3.93 3.93 0 0 0 3.942 3.942M235.298 236.363h45.221c2.15 0 3.942-1.792 3.942-3.942v-40.276a3.93 3.93 0 0 0-3.942-3.942h-45.221c-2.15 0-3.942 1.792-3.942 3.942v40.276a3.93 3.93 0 0 0 3.942 3.942M109.524 178.456h45.221c2.15 0 3.942-1.792 3.942-3.942v-40.276c0-2.15-1.792-3.942-3.942-3.942h-45.221c-2.15 0-3.942 1.792-3.942 3.942v40.276c0 2.151 1.792 3.942 3.942 3.942M172.805 178.456h45.221c2.15 0 3.942-1.792 3.942-3.942v-40.276c0-2.15-1.792-3.942-3.942-3.942h-45.221c-2.15 0-3.942 1.792-3.942 3.942v40.276a3.93 3.93 0 0 0 3.942 3.942M235.298 178.456h45.221a3.93 3.93 0 0 0 3.942-3.942v-40.276c0-2.15-1.792-3.942-3.942-3.942h-45.221c-2.15 0-3.942 1.792-3.942 3.942v40.276a3.93 3.93 0 0 0 3.942 3.942M235.298 120.479h45.221c2.15 0 3.942-1.792 3.942-3.942V76.261c0-2.15-1.792-3.942-3.942-3.942h-45.221c-2.15 0-3.942 1.792-3.942 3.942v40.276c0 2.222 1.72 3.942 3.942 3.942M298.292 236.363h45.221c2.15 0 3.942-1.792 3.942-3.942v-40.276a3.93 3.93 0 0 0-3.942-3.942h-45.221c-2.15 0-3.942 1.792-3.942 3.942v40.276c0 2.15 1.792 3.942 3.942 3.942" style="" fill="#2496ed" data-original="#2496ed"/></g></svg>