<?xml version="1.0" encoding="utf-8"?>
<!-- Generator: Adobe Illustrator 20.1.0, SVG Export Plug-In . SVG Version: 6.00 Build 0)  -->
<svg version="1.1" id="Layer_1" xmlns="http://www.w3.org/2000/svg" xmlns:xlink="http://www.w3.org/1999/xlink" x="0px" y="0px"
	 viewBox="0 0 32 32" style="enable-background:new 0 0 32 32;" xml:space="preserve">
<style type="text/css">
	.st0{fill:#00598E;}
	.st1{fill:#FFFFFF;}
	.st2{fill:#0073BA;}
	.st3{fill:#004975;}
	.st4{fill:#93C5E4;}
	.st5{fill:none;}
</style>
<path class="st0" d="M22.96,5.99c-1.63-1.02-3.17-1.42-4.71-2.43c-0.95-0.65-2.28-2.18-3.39-3.51c-0.21,2.13-0.86,2.99-1.6,3.6
	c-1.57,1.23-2.55,1.6-3.91,2.34c-1.14,0.58-7.33,4.28-7.33,12.22s6.68,13.79,14.1,13.79s13.86-5.39,13.86-13.55
	S23.95,6.6,22.96,5.99z"/>
<path class="st1" d="M20.46,25.11c0.49,0,1.02,0.03,1.39,0.28c0.37,0.25,0.58,0.8,0.71,1.11c0.12,0.31,0,0.49-0.25,0.62
	c-0.21,0.12-0.25,0.06-0.46-0.34c-0.21-0.4-0.4-0.8-1.48-0.8s-1.42,0.37-1.94,0.8c-0.52,0.43-0.71,0.58-0.89,0.34
	s-0.12-0.49,0.21-0.8c0.34-0.31,0.89-0.8,1.42-1.02C19.69,25.07,19.97,25.11,20.46,25.11L20.46,25.11z"/>
<path class="st1" d="M15.35,28.62c0.62,0.49,1.54,0.89,3.51,0.89s3.35-0.56,3.97-1.02c0.28-0.21,0.4-0.03,0.43,0.09
	c0.03,0.12,0.09,0.31-0.12,0.53c-0.16,0.16-1.57,1.14-3.24,1.29c-1.67,0.15-3.91,0.25-5.26-0.99c-0.21-0.21-0.16-0.53,0-0.65
	s0.28-0.21,0.46-0.21C15.28,28.55,15.26,28.55,15.35,28.62L15.35,28.62z"/>
<path class="st2" d="M7.81,26.28c2.34-0.03,2.77-0.43,4.84-1.35c11.15-4.99,13.21-9.55,13.61-10.59c0.4-1.05,0.99-2.74,0.37-4.62
	c-0.12-0.36-0.21-0.65-0.27-0.89c-1.48-1.65-2.95-2.56-3.4-2.84c-1.6-1.02-3.17-1.42-4.71-2.43c-0.95-0.62-2.28-2.18-3.39-3.51
	c-0.21,2.13-0.83,3.02-1.6,3.6c-1.57,1.23-2.55,1.6-3.91,2.34C8.21,6.6,2.02,10.26,2.02,18.21c0,2.54,0.68,4.86,1.85,6.85l0.3-0.01
	C4.82,25.63,5.84,26.31,7.81,26.28z"/>
<path class="st3" d="M22.95,5.99c-1.6-1.02-3.17-1.42-4.71-2.43c-0.95-0.62-2.28-2.18-3.39-3.51c-0.21,2.13-0.83,3.02-1.6,3.6
	c-1.57,1.23-2.55,1.6-3.91,2.34C8.21,6.6,2.02,10.26,2.02,18.21c0,2.54,0.68,4.86,1.85,6.85C6.36,29.29,11.07,32,16.12,32
	c7.42,0,13.86-5.39,13.86-13.55c0-4.48-1.82-7.62-3.63-9.63C24.87,7.16,23.4,6.26,22.95,5.99z M26.7,9.59
	c2.02,2.53,3.05,5.51,3.05,8.87c0,1.95-0.37,3.79-1.1,5.47c-0.69,1.59-1.69,3.01-2.97,4.2c-2.52,2.36-5.92,3.65-9.55,3.65
	c-1.8,0-3.56-0.34-5.25-1.02c-1.65-0.67-3.14-1.62-4.43-2.83c-2.71-2.56-4.2-6.01-4.2-9.71c0-3.3,1.07-6.23,3.18-8.71
	c1.61-1.9,3.35-2.95,4.02-3.31c0.33-0.18,0.63-0.34,0.93-0.49c0.93-0.48,1.81-0.93,3.01-1.87c0.64-0.49,1.33-1.26,1.62-3.23
	c1.02,1.21,2.2,2.57,3.1,3.15c0.8,0.53,1.62,0.9,2.41,1.26c0.75,0.34,1.53,0.69,2.29,1.18l0.03,0.02C25.11,7.6,26.3,9.1,26.7,9.59z"
	/>
<path class="st4" d="M15.01,0.66c0.43,1.26,0.37,1.91,0.37,2.18s-0.16,1.02-0.65,1.39c-0.21,0.16-0.28,0.28-0.28,0.31
	c0,0.12,0.28,0.21,0.28,0.49c0,0.34-0.16,1.02-1.79,2.65s-3.97,3.08-5.79,3.97c-1.81,0.89-2.68,0.83-2.92,0.4
	c-0.25-0.43,0.09-1.39,1.23-2.65s4.74-3.08,4.74-3.08l4.5-3.14l0.25-1.2"/>
<path class="st1" d="M15.01,0.62c-0.28,2.03-0.89,2.65-1.72,3.29c-1.39,1.05-2.74,1.69-3.05,1.85c-0.8,0.4-3.69,2-5.21,4.31
	c-0.46,0.71,0,0.99,0.09,1.05c0.09,0.06,1.14,0.18,3.39-1.17s3.24-2.15,4.5-3.47c0.68-0.71,0.77-1.11,0.77-1.29
	c0-0.21-0.16-0.31-0.4-0.37c-0.12-0.03-0.16-0.09,0-0.18c0.16-0.09,0.8-0.4,0.95-0.53c0.16-0.12,0.89-0.62,0.92-1.42
	S15.23,1.34,15.01,0.62L15.01,0.62z"/>
<path class="st1" d="M8.08,23.01c0.03-2.4,2.28-4.65,5.11-4.68c3.6-0.03,6.1,3.57,7.92,3.54c1.54-0.03,4.5-3.05,5.94-3.05
	c1.54,0,1.97,1.6,1.97,2.55c0,0.95-0.31,2.68-1.05,3.76s-1.2,1.48-2.06,1.42c-1.11-0.09-3.33-3.54-4.74-3.6
	c-1.79-0.06-5.67,3.73-8.71,3.73c-1.85,0-2.4-0.28-3.02-0.68C8.51,25.35,8.05,24.37,8.08,23.01L8.08,23.01z"/>
<path class="st5" d="M26.62,9.71c0.62,1.88,0.03,3.57-0.37,4.62s-2.46,5.6-13.61,10.59c-2.06,0.92-2.5,1.32-4.84,1.35
	c-1.97,0.03-2.99-0.65-3.63-1.23l-0.3,0.01C6.36,29.29,11.07,32,16.11,32c7.42,0,13.86-5.39,13.86-13.55c0-4.48-1.82-7.62-3.63-9.63
	C26.41,9.06,26.5,9.35,26.62,9.71z"/>
</svg>
