<?xml version="1.0" encoding="UTF-8"?><svg id="uuid-f0e4473c-a402-45db-be51-17fefc5268ac" xmlns="http://www.w3.org/2000/svg" viewBox="0 0 38 38"><title>Red Hat JBoss Enterprise Application Platform icon</title>
<desc>EAP, Application services</desc>
<metadata><?xpacket begin="﻿" id="W5M0MpCehiHzreSzNTczkc9d"?>
<x:xmpmeta xmlns:x="adobe:ns:meta/" x:xmptk="Adobe XMP Core 8.0-c001 1.000000, 0000/00/00-00:00:00        ">
   <rdf:RDF xmlns:rdf="http://www.w3.org/1999/02/22-rdf-syntax-ns#">
      <rdf:Description rdf:about=""
            xmlns:xmp="http://ns.adobe.com/xap/1.0/"
            xmlns:dc="http://purl.org/dc/elements/1.1/"
            xmlns:cq="http://www.day.com/jcr/cq/1.0"
            xmlns:xmpRights="http://ns.adobe.com/xap/1.0/rights/">
         <xmp:rhcc-effective-on>2024-03-01T15:26:51.150Z</xmp:rhcc-effective-on>
         <xmp:rhcc-metadata-complete-moderator>pending</xmp:rhcc-metadata-complete-moderator>
         <xmp:rhcc-translation-id>TRAbbb0b1d8-60ee-4cff-914c-cd9b72265ed6</xmp:rhcc-translation-id>
         <xmp:brand-content-type>Icon</xmp:brand-content-type>
         <xmp:CreateDate>2024-03-01T15:26:51.150Z</xmp:CreateDate>
         <xmp:rhcc-effective-on-set-on-upload>true</xmp:rhcc-effective-on-set-on-upload>
         <xmp:rhcc-metadata-complete-uploader>pending</xmp:rhcc-metadata-complete-uploader>
         <xmp:rhcc-file-last-modified>2024-03-21T00:40:28.827Z</xmp:rhcc-file-last-modified>
         <xmp:rhcc-audience>rhcc-audience:internal</xmp:rhcc-audience>
         <xmp:rhcc-rights-restricted>no</xmp:rhcc-rights-restricted>
         <xmp:brand-content-subtype>Technology icon</xmp:brand-content-subtype>
         <xmp:rhcc-derivative-id>DERbbb0b1d8-60ee-4cff-914c-cd9b72265ed6</xmp:rhcc-derivative-id>
         <xmp:brand-logo-color>Standard</xmp:brand-logo-color>
         <xmp:rhcc-notify-portal-subscribers-on-change>yes</xmp:rhcc-notify-portal-subscribers-on-change>
         <xmp:rhcc-product>
            <rdf:Bag>
               <rdf:li>rhcc-product:red-hat-jboss-enterprise-application-platform</rdf:li>
            </rdf:Bag>
         </xmp:rhcc-product>
         <xmp:brand-subtype>
            <rdf:Bag>
               <rdf:li>Technology icon</rdf:li>
            </rdf:Bag>
         </xmp:brand-subtype>
         <dc:format>image/svg+xml</dc:format>
         <dc:modified>2024-05-10T14:16:07.300Z</dc:modified>
         <dc:title>
            <rdf:Alt>
               <rdf:li xml:lang="x-default">Red Hat JBoss Enterprise Application Platform icon</rdf:li>
            </rdf:Alt>
         </dc:title>
         <dc:description>
            <rdf:Alt>
               <rdf:li xml:lang="x-default">EAP, Application services</rdf:li>
            </rdf:Alt>
         </dc:description>
         <cq:lastReplicationAction_scene7>Activate</cq:lastReplicationAction_scene7>
         <cq:lastReplicationAction_publish>Activate</cq:lastReplicationAction_publish>
         <cq:lastReplicated_publish>2024-05-10T14:16:08.073Z</cq:lastReplicated_publish>
         <cq:lastReplicatedBy>workflow-process-service</cq:lastReplicatedBy>
         <cq:lastReplicationAction>Activate</cq:lastReplicationAction>
         <cq:lastReplicatedBy_publish>workflow-process-service</cq:lastReplicatedBy_publish>
         <cq:isDelivered>false</cq:isDelivered>
         <cq:lastReplicated>2024-05-10T14:16:08.073Z</cq:lastReplicated>
         <cq:lastReplicatedBy_scene7>workflow-process-service</cq:lastReplicatedBy_scene7>
         <cq:lastReplicated_scene7>2024-05-10T14:16:08.073Z</cq:lastReplicated_scene7>
         <xmpRights:UsageTerms>
            <rdf:Alt>
               <rdf:li xml:lang="x-default">Use technology icons to represent Red Hat products and components. Do not remove the icon from the bounding shape.</rdf:li>
            </rdf:Alt>
         </xmpRights:UsageTerms>
      </rdf:Description>
   </rdf:RDF>
</x:xmpmeta>
                                                                                                    
                                                                                                    
                                                                                                    
                                                                                                    
                                                                                                    
                                                                                                    
                                                                                                    
                                                                                                    
                                                                                                    
                                                                                                    
                                                                                                    
                                                                                                    
                                                                                                    
                                                                                                    
                                                                                                    
                                                                                                    
                                                                                                    
                                                                                                    
                                                                                                    
                                                                                                    
                           
<?xpacket end="w"?></metadata>
<defs><style>.uuid-5c740f3d-2ccc-4135-a33a-3edd433db156{fill:#ed0000;}.uuid-09a01491-f073-4da1-9b74-f78b2b604bf8{fill:#fff;}.uuid-3b0426ce-8862-4529-8d1b-e25d717d674e{fill:#4d4d4d;}</style></defs><rect x="1" y="1" width="36" height="36" rx="9" ry="9"/><path class="uuid-3b0426ce-8862-4529-8d1b-e25d717d674e" d="m28,2.25c4.27338,0,7.75,3.47665,7.75,7.75v18c0,4.27335-3.47662,7.75-7.75,7.75H10c-4.27338,0-7.75-3.47665-7.75-7.75V10c0-4.27335,3.47662-7.75,7.75-7.75h18m0-1.25H10C5.02942,1,1,5.02945,1,10v18c0,4.97055,4.02942,9,9,9h18c4.97058,0,9-4.02945,9-9V10c0-4.97055-4.02942-9-9-9h0Z"/><path class="uuid-09a01491-f073-4da1-9b74-f78b2b604bf8" d="m23,26.625c-.34473,0-.625-.28027-.625-.625v-7c0-.34473.28027-.625.625-.625s.625.28027.625.625v7c0,.34473-.28027.625-.625.625Z"/><path class="uuid-09a01491-f073-4da1-9b74-f78b2b604bf8" d="m15,19.625c-.34473,0-.625-.28027-.625-.625v-7c0-.34473.28027-.625.625-.625s.625.28027.625.625v7c0,.34473-.28027.625-.625.625Z"/><path class="uuid-5c740f3d-2ccc-4135-a33a-3edd433db156" d="m13,20.375h-3.375v-2.75h11.375c.34473,0,.625-.28027.625-.625s-.28027-.625-.625-.625h-12c-.34473,0-.625.28027-.625.625v4c0,.34473.28027.625.625.625h4c.34473,0,.625-.28027.625-.625s-.28027-.625-.625-.625Z"/><path class="uuid-5c740f3d-2ccc-4135-a33a-3edd433db156" d="m29,16.375h-4c-.34473,0-.625.28027-.625.625s.28027.625.625.625h3.375v2.75h-11.375c-.34473,0-.625.28027-.625.625s.28027.625.625.625h12c.34473,0,.625-.28027.625-.625v-4c0-.34473-.28027-.625-.625-.625Z"/><path class="uuid-09a01491-f073-4da1-9b74-f78b2b604bf8" d="m17.44238,24.55762c-.24414-.24414-.64062-.24414-.88477,0l-.93262.93323v-6.49084c0-.34473-.28027-.625-.625-.625s-.625.28027-.625.625v6.49084l-.93262-.93323c-.24414-.24414-.64062-.24414-.88477,0-.24316.24414-.24316.64062,0,.88477l2,2c.0249.0249.05664.03613.08435.05591.03845.02771.07373.05963.11798.07812.07678.03174.1582.04858.24005.04858s.16327-.01685.24005-.04858c.04425-.01849.07953-.05042.11798-.07812.02771-.01978.05945-.03101.08435-.05591l2-2c.24316-.24414.24316-.64062,0-.88477Z"/><path class="uuid-09a01491-f073-4da1-9b74-f78b2b604bf8" d="m25.44238,12.55762l-2-2c-.02759-.02759-.06244-.04065-.09344-.06201-.03577-.0249-.06769-.05487-.10834-.0719-.15381-.06403-.32739-.06403-.4812,0-.04065.01703-.07257.047-.10834.0719-.03101.02136-.06586.03442-.09344.06201l-2,2c-.24316.24414-.24316.64062,0,.88477.24414.24414.64062.24414.88477,0l.93262-.93323v6.49084c0,.34473.28027.625.625.625s.625-.28027.625-.625v-6.49084l.93262.93323c.12207.12207.28223.18262.44238.18262s.32031-.06055.44238-.18262c.24316-.24414.24316-.64062,0-.88477Z"/></svg>