<?xml version="1.0" encoding="utf-8"?>
<!-- Generator: Adobe Illustrator 20.1.0, SVG Export Plug-In . SVG Version: 6.00 Build 0)  -->
<svg version="1.1" id="Layer_1" xmlns="http://www.w3.org/2000/svg" xmlns:xlink="http://www.w3.org/1999/xlink" x="0px" y="0px"
	 viewBox="0 0 32 32" style="enable-background:new 0 0 32 32;" xml:space="preserve">
<style type="text/css">
	.st0{fill:#FFFFFF;}
	.st1{fill:#FFD00A;}
	.st2{fill:#20B9AF;}
	.st3{fill:#EE5096;}
	.st4{fill:#12A5DF;}
	.st5{fill:#90C640;}
	.st6{fill:#05799F;}
</style>
<g>
	<path class="st0" d="M32,16.7c0-2.68-1.66-5.03-4.17-5.94C27.94,10.2,28,9.63,28,9.04C28,4.06,23.95,0,18.96,0
		c-2.91,0-5.62,1.4-7.32,3.75C10.8,3.1,9.77,2.74,8.7,2.74c-2.65,0-4.8,2.15-4.8,4.8c0,0.58,0.1,1.14,0.3,1.67
		c-2.49,0.9-4.2,3.3-4.2,5.96c0,2.7,1.67,5.05,4.18,5.96c-0.11,0.56-0.16,1.14-0.16,1.72c0,4.97,4.05,9.02,9.02,9.02
		c2.92,0,5.63-1.4,7.32-3.77c0.84,0.66,1.87,1.02,2.94,1.02c2.65,0,4.8-2.15,4.8-4.8c0-0.58-0.1-1.15-0.3-1.67
		C30.29,21.76,32,19.36,32,16.7"/>
	<path class="st1" d="M12.58,13.73l7,3.19l7.06-6.19c0.1-0.51,0.15-1.02,0.15-1.55c0-4.36-3.54-7.9-7.9-7.9
		c-2.61,0-5.04,1.28-6.51,3.43l-1.18,6.1L12.58,13.73z"/>
	<path class="st2" d="M5.33,21.14c-0.1,0.51-0.15,1.04-0.15,1.58c0,4.37,3.55,7.92,7.92,7.92c2.63,0,5.07-1.29,6.54-3.47l1.17-6.08
		l-1.56-2.97l-7.03-3.2L5.33,21.14z"/>
	<path class="st3" d="M5.29,9.03l4.8,1.13l1.05-5.46c-0.66-0.5-1.47-0.78-2.3-0.78c-2.09,0-3.78,1.7-3.78,3.78
		C5.06,8.17,5.14,8.61,5.29,9.03"/>
	<path class="st4" d="M4.87,10.17c-2.14,0.71-3.63,2.77-3.63,5.03c0,2.2,1.36,4.17,3.4,4.94l6.73-6.09l-1.24-2.64L4.87,10.17z"/>
	<path class="st5" d="M20.87,27.17c0.66,0.51,1.46,0.78,2.29,0.78c2.09,0,3.78-1.7,3.78-3.78c0-0.46-0.08-0.9-0.23-1.32l-4.79-1.12
		L20.87,27.17z"/>
	<path class="st6" d="M21.85,20.48l5.28,1.23c2.14-0.71,3.64-2.76,3.64-5.03c0-2.2-1.36-4.16-3.41-4.94l-6.9,6.05L21.85,20.48z"/>
</g>
</svg>
