<?xml version="1.0" encoding="utf-8"?>
<!-- Generator: Adobe Illustrator 20.1.0, SVG Export Plug-In . SVG Version: 6.00 Build 0)  -->
<svg version="1.1" id="Layer_1" xmlns="http://www.w3.org/2000/svg" xmlns:xlink="http://www.w3.org/1999/xlink" x="0px" y="0px"
	 viewBox="0 0 32 32" style="enable-background:new 0 0 32 32;" xml:space="preserve">
<style type="text/css">
	.st0{fill:#A90533;}
</style>
<g id="g8">
	<path id="path10" class="st0" d="M5.02,22.45c-2.48-2.63-3.94-6.27-3.93-10.61c0-3.84,1.2-7.14,3.28-9.65l0,0H0v20.26L5.02,22.45
		L5.02,22.45L5.02,22.45L5.02,22.45z"/>
	<path id="path12" class="st0" d="M27.97,22.46c1.07-1.15,2.03-2.5,2.9-4.04L26.05,16c-1.69,2.75-4.17,5.29-7.6,5.31
		c-4.99-0.02-6.94-4.28-6.93-9.77h18.63c0.02-0.62,0.02-0.91,0-1.21c0.12-3.26-0.74-6.01-2.32-8.15L27.82,2.2h4.19v20.26
		L27.97,22.46L27.97,22.46L27.97,22.46L27.97,22.46z"/>
	<path id="path14" class="st0" d="M11.82,6.84c0.21-2.48,2.16-4.16,4.46-4.16c2.31,0.01,3.98,1.68,4.04,4.16H11.82L11.82,6.84z"/>
</g>
<g id="g16">
	<path id="path18" d="M2.65,25.88v-0.84H0.06v5h2.59V29.2H1.03v-1.33h1.57v-0.84H1.03v-1.15L2.65,25.88L2.65,25.88L2.65,25.88z"/>
	<path id="path20" d="M7.05,27.93c0.65-0.1,1-0.74,1.02-1.39c-0.02-1.06-0.71-1.5-1.69-1.51H5.06v5h0.96v-1.99l1.21,1.99h1.21
		L7.05,27.93C7.05,27.93,7.05,27.93,7.05,27.93z M6.03,25.82h0.12c0.53,0.02,0.92,0.14,0.9,0.78c0.02,0.59-0.36,0.75-0.9,0.72H6.03
		V25.82L6.03,25.82z"/>
	<path id="path22" d="M11.46,25.04h-0.96v5h2.35V29.2h-1.39L11.46,25.04C11.46,25.04,11.46,25.04,11.46,25.04z"/>
	<path id="path24" d="M17.79,29.02l0.42,1.02h1.02l-1.87-5.12h-0.78l-1.99,5.12h1.02l0.42-1.02H17.79L17.79,29.02L17.79,29.02z
		 M17.54,28.24h-1.21l0.54-1.87L17.54,28.24L17.54,28.24z"/>
	<path id="path26" d="M21.04,30.04h1.02v-3.38l2.65,3.5h0.72v-5.12h-1.02v3.38l-2.65-3.5h-0.72V30.04L21.04,30.04L21.04,30.04z"/>
	<path id="path28" d="M29.66,27.39v0.78h1.09c-0.02,0.63-0.54,1.16-1.15,1.15c-0.96,0.02-1.43-0.91-1.45-1.75
		c0.01-0.83,0.48-1.8,1.45-1.81c0.51,0.01,0.94,0.36,1.15,0.78l0.84-0.42c-0.37-0.78-1.12-1.22-1.99-1.21
		c-1.49-0.01-2.45,1.22-2.47,2.65c0.02,1.39,0.95,2.63,2.41,2.65c1.58-0.02,2.31-1.28,2.29-2.71v-0.12H29.66L29.66,27.39
		L29.66,27.39L29.66,27.39z"/>
</g>
</svg>
