<?xml version="1.0" encoding="UTF-8" standalone="no"?>
<!-- Generator: Adobe Illustrator 26.3.1, SVG Export Plug-In . SVG Version: 6.00 Build 0)  -->

<svg
   version="1.1"
   id="Layer_1"
   x="0px"
   y="0px"
   viewBox="0 0 48 48"
   style="enable-background:new 0 0 48 48;"
   xml:space="preserve"
   xmlns:xlink="http://www.w3.org/1999/xlink"
   xmlns="http://www.w3.org/2000/svg"
   xmlns:svg="http://www.w3.org/2000/svg"><defs
   id="defs118" />
<g
   id="layer3" /><g
   id="layer4"><a
     id="a401"
     transform="matrix(0.82890056,0,0,0.82890056,6.7181284,8.0905591)"><g
       id="g113">
	<g
   id="g83">
		<defs
   id="defs64">
			<path
   id="SVGID_1_"
   d="M 45.3,26.2 42,29.5 29.2,16.6 c -0.1,-0.1 -0.2,-0.2 -0.4,-0.2 -0.1,0 -0.3,0.1 -0.4,0.2 l -1.7,1.7 c -0.1,0.1 -0.2,0.2 -0.2,0.4 0,0.1 0.1,0.3 0.2,0.4 l 12.8,12.8 -3.3,3.3 c -0.5,0.5 -0.3,0.9 0.4,0.9 l 7.6,-0.6 c 0.9,0 1.3,-0.4 1.3,-1.3 l 0.6,-7.6 c 0.1,-0.7 -0.3,-0.9 -0.8,-0.4 z" />
		</defs>
		<use
   xlink:href="#SVGID_1_"
   style="clip-rule:evenodd;overflow:visible;fill-rule:evenodd"
   id="use66"
   x="0"
   y="0"
   width="100%"
   height="100%" />
		<clipPath
   id="SVGID_00000169529502274305501380000012786890020970890167_">
			<use
   xlink:href="#SVGID_1_"
   style="overflow:visible"
   id="use68"
   x="0"
   y="0"
   width="100%"
   height="100%" />
		</clipPath>
		<g
   clip-path="url(#SVGID_00000169529502274305501380000012786890020970890167_)"
   id="g81">
			<defs
   id="defs72">
				<rect
   id="SVGID_00000023999172388563319280000000930733870357485454_"
   x="-979.79999"
   y="-381.60001"
   width="1743"
   height="1239.5" />
			</defs>
			<use
   xlink:href="#SVGID_00000023999172388563319280000000930733870357485454_"
   style="overflow:visible"
   id="use74"
   x="0"
   y="0"
   width="100%"
   height="100%" />
			<clipPath
   id="SVGID_00000021825206980038039580000012636863102742748820_">
				<use
   xlink:href="#SVGID_00000023999172388563319280000000930733870357485454_"
   style="overflow:visible"
   id="use76"
   x="0"
   y="0"
   width="100%"
   height="100%" />
			</clipPath>
			<polygon
   points="31.1,36.6 25.4,15.2 46.8,20.9 46.8,36.6 "
   clip-path="url(#SVGID_00000021825206980038039580000012636863102742748820_)"
   id="polygon79" />
		</g>
	</g>
	<g
   id="g105">
		<defs
   id="defs86">
			<path
   id="SVGID_00000132797996050601758740000001996864769455682988_"
   d="M 41.1,38.1 37.8,41.4 25,28.6 c -0.1,-0.1 -0.2,-0.2 -0.4,-0.2 -0.2,0 -0.3,0.1 -0.4,0.2 l -1.7,1.7 c -0.1,0.1 -0.2,0.2 -0.2,0.4 0,0.1 0.1,0.3 0.2,0.4 L 35.3,43.9 32,47.2 c -0.5,0.5 -0.3,0.9 0.4,0.9 L 40,47.5 c 0.9,0 1.3,-0.4 1.3,-1.3 l 0.6,-7.6 c 0.1,-0.8 -0.3,-1 -0.8,-0.5 z" />
		</defs>
		
			<use
   xlink:href="#SVGID_00000132797996050601758740000001996864769455682988_"
   style="clip-rule:evenodd;overflow:visible;fill-rule:evenodd"
   id="use88"
   x="0"
   y="0"
   width="100%"
   height="100%" />
		<clipPath
   id="SVGID_00000070806848333203157840000018088651999689357239_">
			<use
   xlink:href="#SVGID_00000132797996050601758740000001996864769455682988_"
   style="overflow:visible"
   id="use90"
   x="0"
   y="0"
   width="100%"
   height="100%" />
		</clipPath>
		<g
   clip-path="url(#SVGID_00000070806848333203157840000018088651999689357239_)"
   id="g103">
			<defs
   id="defs94">
				<rect
   id="SVGID_00000034795737241456181990000002702895336249809838_"
   x="-984"
   y="-369.70001"
   width="1743"
   height="1239.5" />
			</defs>
			<use
   xlink:href="#SVGID_00000034795737241456181990000002702895336249809838_"
   style="overflow:visible"
   id="use96"
   x="0"
   y="0"
   width="100%"
   height="100%" />
			<clipPath
   id="SVGID_00000145757618844522193150000002123630661411659963_">
				<use
   xlink:href="#SVGID_00000034795737241456181990000002702895336249809838_"
   style="overflow:visible"
   id="use98"
   x="0"
   y="0"
   width="100%"
   height="100%" />
			</clipPath>
			<polygon
   points="26.9,48.6 21.2,27.2 42.6,32.8 42.6,48.6 "
   clip-path="url(#SVGID_00000145757618844522193150000002123630661411659963_)"
   id="polygon101" />
		</g>
	</g>
	<path
   class="st4"
   d="M 20.8,35 C 12,35 4.8,27.9 4.8,19 4.8,10.1 12,3 20.8,3 c 8.8,0 16,7.1 16,16 0,0.5 0,1 -0.1,1.5 l 2.7,2.7 c 0.3,-1.3 0.5,-2.7 0.5,-4.2 0,-10.5 -8.5,-19 -19,-19 -10.5,0 -19,8.5 -19,19 0,10.5 8.5,19 19,19 1.7,0 3.3,-0.2 4.9,-0.6 L 23.2,34.8 C 22.3,34.9 21.6,35 20.8,35 Z"
   id="path107" />
	<g
   id="g111">
		<path
   class="st4"
   d="m 33.4,28.7 c -0.7,0.9 -1.5,1.8 -2.4,2.5 l 2.2,2.2 c 0.9,-0.8 1.7,-1.6 2.4,-2.5 z"
   id="path109" />
	</g>
</g></a></g></svg>
