<?xml version="1.0" encoding="UTF-8" standalone="no"?>
<!-- Generator: Adobe Illustrator 26.3.1, SVG Export Plug-In . SVG Version: 6.00 Build 0)  -->

<svg
   version="1.1"
   id="Layer_1"
   x="0px"
   y="0px"
   viewBox="0 0 48 48"
   style="enable-background:new 0 0 48 48;"
   xml:space="preserve"
   xmlns:xlink="http://www.w3.org/1999/xlink"
   xmlns="http://www.w3.org/2000/svg"
   xmlns:svg="http://www.w3.org/2000/svg"><defs
   id="defs59" />
<g
   id="layer1" /><g
   id="layer2"><g
     id="g54"
     transform="matrix(0.83450041,0,0,0.83450041,0.01958465,4.0325038)">
	<g
   id="g24">
		<defs
   id="defs5">
			<path
   id="SVGID_1_"
   d="m 22.6,15.4 v 4.4 H 5.5 c -0.1,0 -0.3,0 -0.4,0.1 C 5,19.9 5,20.1 5,20.2 v 2.3 c 0,0.1 0,0.3 0.1,0.4 0.1,0 0.2,0.1 0.4,0.1 h 17.1 v 4.4 c 0,0.7 0.4,0.8 0.9,0.4 l 4.6,-5.5 c 0.6,-0.6 0.6,-1.1 0,-1.7 L 23.5,15 C 23,14.5 22.6,14.7 22.6,15.4 Z" />
		</defs>
		<use
   xlink:href="#SVGID_1_"
   style="clip-rule:evenodd;overflow:visible;fill-rule:evenodd"
   id="use7"
   x="0"
   y="0"
   width="100%"
   height="100%" />
		<clipPath
   id="SVGID_00000153686767603803014330000008432418958077573286_">
			<use
   xlink:href="#SVGID_1_"
   style="overflow:visible"
   id="use9"
   x="0"
   y="0"
   width="100%"
   height="100%" />
		</clipPath>
		<g
   clip-path="url(#SVGID_00000153686767603803014330000008432418958077573286_)"
   id="g22">
			<defs
   id="defs13">
				
					<rect
   id="SVGID_00000065038216947270348640000007913041585346537631_"
   x="-761.40002"
   y="-325.70001"
   transform="matrix(0.7071,-0.7071,0.7071,0.7071,-165.4445,119.5037)"
   width="1645.9"
   height="1170.4" />
			</defs>
			<use
   xlink:href="#SVGID_00000065038216947270348640000007913041585346537631_"
   style="overflow:visible"
   id="use15"
   x="0"
   y="0"
   width="100%"
   height="100%" />
			<clipPath
   id="SVGID_00000092419341826936213990000017663793735483835285_">
				<use
   xlink:href="#SVGID_00000065038216947270348640000007913041585346537631_"
   style="overflow:visible"
   id="use17"
   x="0"
   y="0"
   width="100%"
   height="100%" />
			</clipPath>
			<polygon
   points="20.1,10.8 30.6,21.3 20.1,31.8 2,21.3 "
   clip-path="url(#SVGID_00000092419341826936213990000017663793735483835285_)"
   id="polygon20" />
		</g>
	</g>
	<g
   id="g46">
		<defs
   id="defs27">
			<path
   id="SVGID_00000100383862757635835300000008544962276497267859_"
   d="m 17.6,27.7 v 4.4 H 0.5 c -0.1,0 -0.3,0 -0.4,0.1 C 0,32.3 0,32.5 0,32.6 v 2.3 c 0,0.1 0,0.3 0.1,0.4 0.1,0.1 0.2,0.1 0.4,0.1 h 17.1 v 4.4 c 0,0.7 0.4,0.8 0.9,0.4 l 4.6,-5.5 c 0.6,-0.6 0.6,-1.1 0,-1.7 L 18.5,27.5 C 18,26.9 17.6,27.1 17.6,27.7 Z" />
		</defs>
		
			<use
   xlink:href="#SVGID_00000100383862757635835300000008544962276497267859_"
   style="clip-rule:evenodd;overflow:visible;fill-rule:evenodd"
   id="use29"
   x="0"
   y="0"
   width="100%"
   height="100%" />
		<clipPath
   id="SVGID_00000107559171352424902800000015842758297990970045_">
			<use
   xlink:href="#SVGID_00000100383862757635835300000008544962276497267859_"
   style="overflow:visible"
   id="use31"
   x="0"
   y="0"
   width="100%"
   height="100%" />
		</clipPath>
		<g
   clip-path="url(#SVGID_00000107559171352424902800000015842758297990970045_)"
   id="g44">
			<defs
   id="defs35">
				
					<rect
   id="SVGID_00000006691629812589118440000017543570273826496154_"
   x="-766.40002"
   y="-313.39999"
   transform="matrix(0.7071,-0.7071,0.7071,0.7071,-175.6596,119.6215)"
   width="1645.9"
   height="1170.4" />
			</defs>
			<use
   xlink:href="#SVGID_00000006691629812589118440000017543570273826496154_"
   style="overflow:visible"
   id="use37"
   x="0"
   y="0"
   width="100%"
   height="100%" />
			<clipPath
   id="SVGID_00000036936571345607443920000009552654329235352713_">
				<use
   xlink:href="#SVGID_00000006691629812589118440000017543570273826496154_"
   style="overflow:visible"
   id="use39"
   x="0"
   y="0"
   width="100%"
   height="100%" />
			</clipPath>
			<polygon
   points="15.1,23.2 25.6,33.7 15.1,44.2 -3,33.7 "
   clip-path="url(#SVGID_00000036936571345607443920000009552654329235352713_)"
   id="polygon42" />
		</g>
	</g>
	<g
   id="g50">
		<path
   class="st4"
   d="M 28.8,4.8 C 20.2,4.8 13,10.4 10.5,18.1 h 3.3 c 2.3,-6 8.2,-10.3 15,-10.3 8.9,0 16.1,7.2 16.1,16.1 0,8.9 -7.2,16.1 -16.1,16.1 -2.3,0 -4.5,-0.5 -6.5,-1.4 L 20.2,41 c 2.6,1.3 5.5,2 8.6,2 C 39.4,43.2 48,34.6 48,24 48,13.4 39.4,4.8 28.8,4.8 Z"
   id="path48" />
	</g>
	<path
   class="st4"
   d="m 12.7,24.4 h -3 c 0,2.2 0.5,4.4 1.2,6.3 h 3.3 c -0.9,-1.9 -1.4,-4.1 -1.5,-6.3 z"
   id="path52" />
</g></g>
</svg>
