<?xml version="1.0" encoding="utf-8"?>
<!-- Generator: Adobe Illustrator 22.1.0, SVG Export Plug-In . SVG Version: 6.00 Build 0)  -->
<svg version="1.1" id="svg2" xmlns:svg="http://www.w3.org/2000/svg"
	 xmlns="http://www.w3.org/2000/svg" xmlns:xlink="http://www.w3.org/1999/xlink" x="0px" y="0px" viewBox="0 0 267 267"
	 style="enable-background:new 0 0 267 267;" xml:space="preserve">
<style type="text/css">
	.st0{fill:#294172;}
	.st1{fill:none;stroke:#3C6EB4;stroke-width:29.21;}
	.st2{fill:#FFFFFF;}
	.st3{fill:#3C6EB4;}
</style>
<path id="voice" class="st0" d="M262.4,133.5c0-71.2-57.7-128.9-128.9-128.9C62.4,4.6,4.7,62.3,4.6,133.4v99.7
	c0,16.2,13.1,29.2,29.3,29.2h99.6C204.7,262.3,262.4,204.7,262.4,133.5"/>
<path class="st1" d="M171.3,49.3C145.8,49.3,125,70,125,95.6v46.2H78.9c-25.6,0-46.3,20.7-46.3,46.3s20.7,46.3,46.3,46.3
	c25.6,0,46.3-20.7,46.3-46.3v-46.2h46.1c25.6,0,46.3-20.7,46.3-46.3S196.9,49.3,171.3,49.3z"/>
<path class="st2" d="M184.7,37c-4.7-1.2-8.3-1.8-13.4-1.8c-33.4,0-60.5,27.1-60.5,60.5v32.1H85.5c-7.9,0-14.3,6.2-14.3,14.1
	c0,7.8,6.3,14.1,14.1,14.1l21,0c2.5,0,4.5,2,4.5,4.5v27.7c0,17.6-14.3,31.9-31.9,31.9c-6,0-7.4-0.8-11.5-0.8
	c-8.6,0-14.3,5.7-14.3,13.6c0,6.5,5.6,12.1,12.4,13.9c4.7,1.2,8.3,1.8,13.4,1.8c33.4,0,60.5-27.1,60.5-60.5V156h25.3
	c7.9,0,14.3-6.2,14.3-14.1c0-7.8-6.3-14.1-14.1-14.1l-21,0c-2.5,0-4.5-2-4.5-4.5V95.6c0-17.6,14.3-31.9,31.9-31.9
	c6,0,7.4,0.8,11.5,0.8c8.6,0,14.3-5.7,14.3-13.6C197.1,44.4,191.5,38.8,184.7,37z"/>
<path id="TM" class="st3" d="M240.1,240.1l0-5.4l-2.4,5.6l-2.4-5.6l0,5.4h-1.4v-8.5h1.4l2.4,5.4l2.3-5.4h1.5v8.5H240.1z M230.1,233
	v7h-1.4v-7h-2.4v-1.4h6.2v1.4"/>
</svg>
