<?xml version="1.0" encoding="utf-8"?>
<!-- Generator: Adobe Illustrator 20.1.0, SVG Export Plug-In . SVG Version: 6.00 Build 0)  -->
<svg version="1.1" id="Layer_1" xmlns="http://www.w3.org/2000/svg" xmlns:xlink="http://www.w3.org/1999/xlink" x="0px" y="0px"
	 viewBox="0 0 32 32" style="enable-background:new 0 0 32 32;" xml:space="preserve">
<style type="text/css">
	.st0{fill-rule:evenodd;clip-rule:evenodd;fill:#181616;}
</style>
<path class="st0" d="M16.03,0.11c-8.82,0-15.97,7.15-15.97,15.97c0,7.06,4.58,13.04,10.92,15.16c0.8,0.15,1.09-0.35,1.09-0.77
	c0-0.38-0.01-1.38-0.02-2.72c-4.44,0.97-5.38-2.14-5.38-2.14c-0.73-1.85-1.77-2.34-1.77-2.34C3.44,22.29,5,22.31,5,22.31
	c1.6,0.11,2.45,1.65,2.45,1.65c1.42,2.44,3.74,1.74,4.65,1.33c0.15-1.03,0.56-1.74,1.01-2.14c-3.55-0.4-7.28-1.77-7.28-7.89
	c0-1.74,0.62-3.17,1.64-4.29c-0.16-0.4-0.71-2.03,0.16-4.23c0,0,1.34-0.43,4.39,1.64c1.27-0.35,2.64-0.53,4-0.54
	c1.36,0.01,2.72,0.18,4,0.54c3.05-2.07,4.39-1.64,4.39-1.64c0.87,2.2,0.32,3.82,0.16,4.23c1.02,1.12,1.64,2.54,1.64,4.29
	c0,6.14-3.73,7.49-7.29,7.88c0.57,0.49,1.08,1.47,1.08,2.96c0,2.14-0.02,3.86-0.02,4.38c0,0.43,0.29,0.92,1.1,0.77
	C27.43,29.13,32,23.14,32,16.09C32,7.26,24.85,0.11,16.03,0.11z"/>
</svg>
