<?xml version="1.0" encoding="utf-8"?>
<!-- Generator: Adobe Illustrator 20.1.0, SVG Export Plug-In . SVG Version: 6.00 Build 0)  -->
<svg version="1.1" id="Layer_1" xmlns="http://www.w3.org/2000/svg" xmlns:xlink="http://www.w3.org/1999/xlink" x="0px" y="0px"
	 viewBox="0 0 32 32" style="enable-background:new 0 0 32 32;" xml:space="preserve">
<style type="text/css">
	.st0{fill:#E24329;}
	.st1{fill:#FC6D26;}
	.st2{fill:#FCA326;}
</style>
<g>
	<path class="st0" d="M16.05,30.69l5.87-18.07H10.18L16.05,30.69L16.05,30.69z"/>
	<path class="st1" d="M16.05,30.69l-5.87-18.07H1.95L16.05,30.69z"/>
	<path class="st2" d="M1.95,12.62l-1.78,5.49c-0.16,0.5,0.02,1.05,0.44,1.36l15.45,11.22L1.95,12.62L1.95,12.62z"/>
	<path class="st0" d="M1.95,12.62h8.23L6.64,1.73c-0.18-0.56-0.97-0.56-1.16,0L1.95,12.62L1.95,12.62z"/>
	<path class="st1" d="M16.05,30.69l5.87-18.07h8.23L16.05,30.69L16.05,30.69z"/>
	<path class="st2" d="M30.16,12.62l1.78,5.49c0.16,0.5-0.02,1.05-0.44,1.36L16.05,30.69L30.16,12.62L30.16,12.62z"/>
	<path class="st0" d="M30.16,12.62h-8.23l3.54-10.89c0.18-0.56,0.97-0.56,1.16,0L30.16,12.62L30.16,12.62z"/>
</g>
</svg>
