<?xml version="1.0" encoding="utf-8"?>
<!-- Generator: Adobe Illustrator 20.1.0, SVG Export Plug-In . SVG Version: 6.00 Build 0)  -->
<svg version="1.1" id="Layer_1" xmlns="http://www.w3.org/2000/svg" xmlns:xlink="http://www.w3.org/1999/xlink" x="0px" y="0px"
	 viewBox="0 0 32 32" style="enable-background:new 0 0 32 32;" xml:space="preserve">
<style type="text/css">
	.st0{fill:#F2F2F2;}
	.st1{fill:#FEBC5B;}
	.st2{fill:#71A0FE;}
</style>
<g>
	<path class="st0" d="M20.2,9.44l-0.54,0.43c-0.3,0.24-0.71,0.54-0.91,0.66c-0.2,0.12-0.34,0.29-0.32,0.36
		c0.03,0.08,0.65,0.3,1.39,0.5c1.24,0.33,3.65,1.35,3.51,1.49c-0.03,0.03-0.76-0.14-1.62-0.39c-2.73-0.79-4.1-0.95-7.24-0.86
		c-2.34,0.07-3.05,0.14-4.24,0.45c-2.94,0.77-5.86,2.36-7.55,4.11c-0.46,0.47-1.02,0.98-1.26,1.13c-0.5,0.12-0.67,0.02-0.84-0.07
		l-0.14-0.17c-0.06,0.21-0.12,0.39-0.19,0.54l0.24-0.02c0.26-0.01,0.52,0.05,0.67,0.11l0.66,0.49c2.78,2.06,4.28,2.78,5.84,2.8
		c0.82,0.01,1.1-0.05,1.69-0.4c0.34-0.2,0.68-0.46,0.81-0.62l0.04-0.06c0.09-0.16,0.17-0.2,0.22-0.17c1.25-0.32,3.46,0.03,6.94,1.25
		h0.01c0.69,0.02,1.74,0.33,3.15,0.92c0.21,0.09,0.26,0.04,0.26-0.22c0-0.79,0.92-1.82,1.73-2.06v0c1.39-0.79,3.09-0.97,4.6-1.01
		l-0.07-0.02l0.67-0.05c1-0.07,1.88,0.33,2.6,1.19c0.34,0.41,0.68,0.74,0.75,0.74c0.21,0,0.15-0.92-0.17-2.43
		c-0.24-1.12-0.28-1.74-0.2-2.94c0.06-0.94,0.04-1.56-0.06-1.62c-0.08-0.05-0.69,0.04-1.34,0.19c-1.8,0.43-2.63,0.53-2.63,0.32
		l0.02-0.04c-0.89,0.31-2.19-0.16-2.75-0.7c-0.6-0.58-0.3-1.4-0.59-2c0,0.19-0.03,0.19-0.26-0.01c-0.15-0.12-0.6-0.32-1-0.43
		c-0.51-0.14-0.93-0.39-1.32-0.79L20.2,9.44z"/>
	<path class="st1" d="M12.44,16.68c-0.05-1.1-0.14-2.25-0.19-2.57c-0.05-0.32-0.03-0.57,0.06-0.57c0.15,0,0.54,0.82,0.73,1.51
		c0.06,0.21,0.21,0.5,0.33,0.64c0.21,0.24,0.21,0.29-0.02,0.54c-0.14,0.15-0.25,0.51-0.25,0.79c0,0.63-0.27,1.65-0.44,1.65
		C12.6,18.68,12.5,17.78,12.44,16.68z M14.4,17.9c-0.03-0.11-0.1-1.07-0.14-2.13c-0.07-1.63-0.05-1.91,0.13-1.76
		c0.11,0.09,0.25,0.39,0.31,0.65c0.05,0.26,0.2,0.64,0.33,0.84c0.17,0.27,0.19,0.44,0.07,0.68c-0.09,0.18-0.2,0.64-0.25,1.03
		C14.74,17.92,14.51,18.28,14.4,17.9z M16.24,15.93c-0.04-1.02-0.04-1.89-0.01-1.93c0.1-0.11,0.33,0.32,0.53,0.98
		c0.1,0.33,0.24,0.65,0.32,0.7c0.08,0.06,0.09,0.22,0.02,0.38c-0.07,0.15-0.2,0.58-0.29,0.95C16.51,18.27,16.31,17.9,16.24,15.93
		L16.24,15.93L16.24,15.93z M18.22,16.76c-0.01-0.48-0.06-1.23-0.12-1.67c-0.06-0.44-0.07-0.83-0.01-0.87
		c0.16-0.1,0.41,0.25,0.53,0.76c0.06,0.25,0.25,0.57,0.43,0.71l0.32,0.26l-0.34,0.24c-0.19,0.13-0.34,0.4-0.34,0.6
		c0,0.45-0.14,0.83-0.32,0.83C18.29,17.62,18.23,17.23,18.22,16.76z M20.04,16.39c0-0.53-0.05-1.22-0.1-1.55
		c-0.13-0.79,0.13-0.62,0.62,0.4c0.32,0.67,0.34,0.81,0.17,1.01c-0.11,0.13-0.23,0.4-0.26,0.6c-0.03,0.2-0.14,0.39-0.24,0.43
		C20.1,17.33,20.04,17.09,20.04,16.39L20.04,16.39z M21.7,15.78c0-1.27,0.02-1.37,0.24-1.15c0.33,0.33,0.44,1.34,0.22,2
		C21.86,17.54,21.7,17.24,21.7,15.78z M23.28,16.04c-0.28-0.22-0.28-0.23,0.16-0.19c0.25,0.02,0.44,0.11,0.43,0.19
		C23.82,16.28,23.6,16.28,23.28,16.04L23.28,16.04z"/>
	<path d="M20.11,8.58c-0.25,0-0.55,0.11-0.94,0.3c-0.35,0.17-1.12,0.48-1.73,0.69c-0.6,0.21-1.37,0.54-1.7,0.73
		c-0.49,0.27-0.86,0.34-1.94,0.36c-4.07,0.07-8.32,1.46-11.32,3.71c-1.55,1.16-2.45,2.54-1.89,2.89c0.17,0.09,0.33,0.19,0.84,0.07
		c0.24-0.15,0.8-0.66,1.26-1.13c1.69-1.75,4.61-3.34,7.55-4.11c1.2-0.31,1.9-0.39,4.24-0.45c3.14-0.09,4.51,0.07,7.24,0.86
		c0.86,0.25,1.59,0.42,1.62,0.39c0.14-0.14-2.28-1.16-3.51-1.49c-0.74-0.2-1.36-0.42-1.39-0.5c-0.03-0.08,0.12-0.24,0.32-0.36
		c0.2-0.12,0.61-0.42,0.91-0.66l0.54-0.43l0.58,0.59c0.39,0.4,0.81,0.66,1.32,0.79c0.41,0.11,0.86,0.3,1,0.43
		c0.23,0.2,0.26,0.2,0.26,0c0-0.29-0.53-0.75-1.23-1.07c-0.3-0.14-0.68-0.43-0.83-0.65C20.83,8.87,20.53,8.58,20.11,8.58L20.11,8.58
		z M31.23,11.89c-0.54,0-4.55,1.87-4.55,2.12c0,0.21,0.83,0.11,2.63-0.32c0.66-0.16,1.26-0.24,1.34-0.19
		c0.09,0.06,0.11,0.67,0.06,1.62c-0.07,1.21-0.03,1.82,0.2,2.94c0.32,1.5,0.38,2.43,0.17,2.43c-0.07,0-0.41-0.33-0.75-0.74
		c-0.73-0.86-1.6-1.26-2.6-1.19l-0.67,0.05l1,0.34c1.1,0.38,1.44,0.68,2.41,2.15c0.36,0.54,0.73,1.03,0.81,1.09
		c0.23,0.16,0.33,0.14,0.53-0.11c0.09-0.11,0.13-0.41,0.13-1.05v-0.01c0.01-0.45,0-1.05-0.05-1.79c-0.01-0.21-0.02-0.35-0.03-0.54
		c-0.1-2.36-0.09-2.82,0.02-4.39C32.03,12.38,31.89,11.89,31.23,11.89z M6.74,14.77c-0.4-0.02-0.82,0.21-1.11,0.65
		c-0.26,0.4-0.17,0.74,0.36,1.35c0.32,0.37,1.04,0.23,1.49-0.29c0.42-0.47,0.42-0.61,0.04-1.24C7.33,14.94,7.05,14.79,6.74,14.77z
		 M6.29,15.52c0.17-0.03,0.52,0.2,0.59,0.42c0.09,0.27-0.57,0.22-0.67-0.05c-0.05-0.13-0.04-0.28,0.01-0.33L6.29,15.52L6.29,15.52z
		 M0.49,17.6l-0.25,0.03l-0.03,0.03C0.04,17.73-0.03,17.88,0,18.13v0v0c-0.01,0.19,0.06,0.39,0.2,0.55c0.73,0.81,4.48,2.73,5.85,3
		c0.91,0.18,1.35,0.18,2.2,0c0.86-0.18,1.9-0.88,2.16-1.43c0.2-0.43,0.02-0.73-0.2-0.33c-0.08,0.14-0.46,0.45-0.85,0.68
		c-0.59,0.35-0.88,0.41-1.69,0.4c-1.56-0.03-3.06-0.75-5.84-2.8l-0.66-0.49C1.01,17.65,0.75,17.6,0.49,17.6L0.49,17.6z M22.85,19.59
		c-0.86-0.01-2.05,1.21-2.05,2.11c0,0.26-0.06,0.31-0.26,0.22c-2.05-0.86-3.35-1.11-3.88-0.76c-0.44,0.29-0.5,0.79-0.12,0.9
		c0.15,0.04,0.94,0.16,1.77,0.25c0.83,0.1,1.61,0.24,1.74,0.31c0.16,0.09,0.38,0.13,0.6,0.12h0.03h0.01c0.19,0,0.36-0.04,0.47-0.12
		l0.01,0l0,0l0.11-0.07c0.18-0.14,0.26-0.41,0.26-0.88c0-0.72,0.23-1.07,1.13-1.74C23.06,19.66,23.09,19.59,22.85,19.59L22.85,19.59
		z"/>
	<path class="st2" d="M6.92,20.3l-0.53-0.16l0.94-0.18c1.24-0.24,1.55-0.52,1.55-1.46c0-0.8,0.16-0.92,0.52-0.4
		c0.53,0.75,0.16,1.79-0.76,2.17C8.06,20.52,7.66,20.52,6.92,20.3L6.92,20.3z M27.66,17.05c0.07-0.41,0.03-0.78-0.13-1.17
		c-0.29-0.7-0.3-0.68,0.05-0.68c0.43,0,1.1,0.86,0.99,1.26c-0.12,0.43-0.57,1.04-0.81,1.12C27.61,17.64,27.59,17.51,27.66,17.05
		L27.66,17.05z M22.24,13.37c-2.98-0.96-8.26-0.99-11.82-0.06c-0.73,0.19-0.89,0.19-1.06,0.02c-0.3-0.3,0.24-0.61,1.72-1
		c2.9-0.56,9.99-0.78,12.44,1.28C23.52,13.74,23.21,13.68,22.24,13.37z"/>
</g>
</svg>
