<?xml version="1.0" encoding="utf-8"?>
<!-- Generator: Adobe Illustrator 20.1.0, SVG Export Plug-In . SVG Version: 6.00 Build 0)  -->
<svg version="1.1" id="Layer_1" xmlns="http://www.w3.org/2000/svg" xmlns:xlink="http://www.w3.org/1999/xlink" x="0px" y="0px"
	 viewBox="0 0 32 32" style="enable-background:new 0 0 32 32;" xml:space="preserve">
<style type="text/css">
	.st0{fill-rule:evenodd;clip-rule:evenodd;fill:#F6D2A2;}
	.st1{fill-rule:evenodd;clip-rule:evenodd;fill:#C6B198;}
	.st2{fill-rule:evenodd;clip-rule:evenodd;fill:#6AD7E5;}
	.st3{fill-rule:evenodd;clip-rule:evenodd;}
	.st4{fill-rule:evenodd;clip-rule:evenodd;fill:#FFFFFF;}
	.st5{fill:#231F20;}
</style>
<g>
	<g>
		<path class="st0" d="M4.49,17.28c0.05,0.94,0.98,0.5,1.41,0.21c0.4-0.28,0.52-0.05,0.56-0.6c0.02-0.36,0.06-0.72,0.04-1.08
			c-0.61-0.06-1.27,0.09-1.77,0.45C4.47,16.45,3.98,17.05,4.49,17.28"/>
		<path d="M4.97,18.04c-0.11,0-0.21-0.02-0.31-0.07c-0.14-0.07-0.31-0.23-0.35-0.58c-0.17-0.11-0.22-0.26-0.23-0.37
			c-0.03-0.36,0.31-0.75,0.53-0.91c0.51-0.37,1.2-0.55,1.9-0.49l0.16,0.01l0.01,0.16c0.02,0.29-0.01,0.58-0.03,0.86
			c-0.01,0.08-0.01,0.16-0.02,0.25c-0.03,0.41-0.12,0.52-0.36,0.6C6.2,17.53,6.11,17.56,6,17.64C5.89,17.72,5.4,18.04,4.97,18.04z
			 M6.24,15.99c-0.52,0-1.03,0.15-1.41,0.43c-0.16,0.12-0.39,0.41-0.38,0.58c0,0.02,0.01,0.07,0.11,0.12l0.1,0.05l0.01,0.11
			c0.01,0.2,0.06,0.32,0.16,0.36c0.2,0.1,0.63-0.07,0.96-0.3c0.16-0.11,0.28-0.15,0.36-0.18c0.03-0.01,0.07-0.02,0.07-0.03
			c0,0,0.03-0.04,0.04-0.25c0.01-0.08,0.01-0.17,0.02-0.25c0.02-0.22,0.03-0.43,0.03-0.65C6.29,15.99,6.26,15.99,6.24,15.99z"/>
	</g>
	<g>
		<path class="st1" d="M4.49,17.28c0.14-0.05,0.28-0.09,0.37-0.21"/>
		<path d="M4.49,17.47c-0.08,0-0.15-0.05-0.17-0.12c-0.04-0.1,0.01-0.2,0.11-0.24l0.06-0.02c0.11-0.04,0.18-0.07,0.23-0.13
			c0.06-0.08,0.18-0.1,0.26-0.04c0.08,0.06,0.1,0.18,0.04,0.26c-0.11,0.15-0.27,0.21-0.4,0.25l-0.06,0.02
			C4.53,17.46,4.51,17.47,4.49,17.47z"/>
	</g>
	<g>
		<path class="st2" d="M6.65,6.12C3.06,5.11,5.73,0.55,8.61,2.42L6.65,6.12z"/>
		<path d="M6.74,6.34L6.6,6.3c-1.43-0.4-1.77-1.29-1.84-1.78C4.63,3.64,5.09,2.7,5.91,2.18c0.85-0.55,1.87-0.51,2.8,0.09l0.14,0.09
			L6.74,6.34z M7.2,2.16c-0.38,0-0.75,0.11-1.09,0.33C5.42,2.93,5.02,3.74,5.13,4.46c0.1,0.66,0.61,1.17,1.43,1.44l1.81-3.41
			C7.98,2.27,7.59,2.16,7.2,2.16z"/>
	</g>
	<g>
		<path class="st2" d="M22.59,2.08c2.84-1.99,5.4,2.5,2.11,3.64L22.59,2.08z"/>
		<path d="M24.61,5.94l-2.27-3.92l0.14-0.1c0.89-0.63,1.88-0.71,2.71-0.22c0.81,0.48,1.32,1.43,1.23,2.32
			c-0.05,0.5-0.33,1.41-1.67,1.87L24.61,5.94z M22.83,2.14l1.94,3.35c0.76-0.3,1.21-0.83,1.28-1.5c0.07-0.75-0.36-1.56-1.05-1.96
			C24.61,1.8,23.82,1.52,22.83,2.14z"/>
	</g>
	<g>
		<path class="st0" d="M23.2,28.81c0.72,0.45,2.04,1.8,0.96,2.45c-1.04,0.95-1.62-1.04-2.53-1.32
			C22.01,29.41,22.51,28.92,23.2,28.81z"/>
		<path d="M23.6,31.7c-0.02,0-0.03,0-0.05,0c-0.45-0.03-0.8-0.44-1.15-0.84c-0.27-0.32-0.55-0.65-0.85-0.74l-0.25-0.08l0.16-0.21
			c0.33-0.45,0.87-1.07,1.7-1.2l0.07-0.01l0.06,0.04c0.48,0.29,1.46,1.16,1.46,1.96c0,0.23-0.09,0.55-0.48,0.8
			C24.05,31.6,23.83,31.7,23.6,31.7z M21.91,29.87c0.29,0.17,0.54,0.46,0.78,0.75c0.29,0.34,0.59,0.7,0.89,0.71
			c0.14,0.01,0.29-0.06,0.45-0.21l0.03-0.02c0.21-0.13,0.32-0.29,0.32-0.49c0-0.53-0.69-1.25-1.22-1.6
			C22.71,29.1,22.31,29.37,21.91,29.87z"/>
	</g>
	<path d="M24.15,31.45c-0.07,0-0.13-0.04-0.17-0.1c-0.06-0.11-0.1-0.23-0.14-0.35c-0.08-0.21-0.15-0.41-0.3-0.55
		c-0.07-0.07-0.08-0.19-0.01-0.26c0.07-0.07,0.19-0.08,0.26-0.01c0.21,0.2,0.3,0.45,0.39,0.69c0.04,0.11,0.08,0.21,0.13,0.31
		c0.05,0.09,0.01,0.2-0.08,0.25C24.21,31.44,24.18,31.45,24.15,31.45z"/>
	<g>
		<path class="st0" d="M10.31,30.34c-0.85,0.13-1.32,0.89-2.03,1.28c-0.66,0.4-0.92-0.13-0.98-0.23c-0.1-0.05-0.1,0.04-0.26-0.12
			c-0.62-0.97,0.64-1.68,1.3-2.17C9.26,28.92,9.83,29.71,10.31,30.34z"/>
		<path d="M7.84,31.95c-0.06,0-0.13-0.01-0.19-0.02c-0.25-0.07-0.39-0.26-0.46-0.37C7.1,31.55,7.02,31.5,6.92,31.4l-0.03-0.03
			C6.25,30.35,7.3,29.61,8,29.12c0.08-0.06,0.16-0.11,0.23-0.17l0.03-0.02l0.04-0.01c1-0.2,1.61,0.6,2.11,1.25l0.23,0.31l-0.31,0.05
			c-0.48,0.07-0.83,0.38-1.21,0.7c-0.24,0.2-0.48,0.41-0.76,0.56C8.19,31.89,8,31.95,7.84,31.95z M7.24,31.18
			c0.04,0,0.08,0,0.15,0.03l0.06,0.03l0.04,0.07c0.04,0.07,0.12,0.22,0.27,0.26c0.12,0.03,0.27,0,0.44-0.11
			c0.25-0.14,0.47-0.33,0.71-0.52c0.33-0.28,0.66-0.57,1.1-0.71c-0.41-0.53-0.89-1.06-1.57-0.95c-0.06,0.05-0.13,0.1-0.21,0.15
			C7.42,29.98,6.8,30.5,7.2,31.15C7.21,31.17,7.22,31.18,7.24,31.18C7.23,31.18,7.23,31.18,7.24,31.18z"/>
	</g>
	<path d="M7.31,31.57c-0.01,0-0.01,0-0.02,0c-0.1-0.01-0.18-0.1-0.17-0.2c0.02-0.28,0.17-0.5,0.3-0.69c0.07-0.1,0.13-0.2,0.18-0.3
		c0.04-0.09,0.15-0.14,0.25-0.09c0.09,0.04,0.14,0.15,0.09,0.25c-0.06,0.13-0.14,0.24-0.21,0.35c-0.12,0.17-0.22,0.33-0.24,0.52
		C7.48,31.5,7.4,31.57,7.31,31.57z"/>
	<path class="st3" d="M6.8,4.86C6.33,4.61,5.98,4.27,6.27,3.72c0.27-0.51,0.77-0.45,1.24-0.2L6.8,4.86z"/>
	<path class="st3" d="M23.94,4.38c0.47-0.25,0.82-0.59,0.53-1.14c-0.27-0.51-0.77-0.45-1.24-0.2L23.94,4.38z"/>
	<g>
		<path class="st0" d="M27.2,17.16c-0.05,0.94-0.98,0.5-1.41,0.21c-0.4-0.28-0.52-0.05-0.56-0.6c-0.02-0.36-0.06-0.72-0.04-1.08
			c0.61-0.06,1.27,0.09,1.77,0.45C27.22,16.33,27.7,16.93,27.2,17.16"/>
		<path d="M26.72,17.92c-0.43,0-0.92-0.31-1.03-0.39c-0.11-0.08-0.2-0.11-0.27-0.13c-0.24-0.09-0.34-0.19-0.36-0.6
			c-0.01-0.08-0.01-0.16-0.02-0.25c-0.02-0.28-0.04-0.57-0.03-0.86l0.01-0.16l0.16-0.01c0.69-0.06,1.38,0.11,1.9,0.49
			c0.22,0.16,0.56,0.55,0.53,0.91c-0.01,0.11-0.06,0.26-0.23,0.37c-0.04,0.35-0.21,0.51-0.35,0.58
			C26.93,17.9,26.82,17.92,26.72,17.92z M25.38,15.87c0,0.21,0.01,0.42,0.03,0.65c0.01,0.08,0.01,0.17,0.02,0.25
			c0.01,0.2,0.04,0.24,0.04,0.25c0.01,0.01,0.05,0.02,0.07,0.03c0.08,0.03,0.21,0.07,0.36,0.18c0.32,0.22,0.76,0.4,0.96,0.3
			c0.09-0.05,0.15-0.17,0.16-0.36l0.01-0.11l0.1-0.05c0.1-0.05,0.11-0.1,0.11-0.12c0.02-0.17-0.22-0.46-0.38-0.58
			C26.46,16.01,25.92,15.85,25.38,15.87z"/>
	</g>
	<g>
		<path class="st1" d="M27.2,17.16c-0.14-0.05-0.28-0.09-0.37-0.21"/>
		<path d="M27.2,17.35c-0.02,0-0.04,0-0.06-0.01l-0.06-0.02c-0.13-0.05-0.29-0.1-0.4-0.25c-0.06-0.08-0.04-0.2,0.04-0.26
			c0.08-0.06,0.2-0.04,0.26,0.04c0.04,0.06,0.11,0.09,0.23,0.13l0.06,0.02c0.1,0.04,0.15,0.14,0.11,0.24
			C27.35,17.3,27.28,17.35,27.2,17.35z"/>
	</g>
	<g>
		<g>
			<path class="st2" d="M15.48,0.19c3.59,0,6.96,0.51,8.71,3.96c1.58,3.87,1.01,8.04,1.26,12.12c0.21,3.51,0.66,7.56-0.96,10.82
				c-1.71,3.42-5.99,4.28-9.52,4.16c-2.77-0.1-6.11-1-7.68-3.53c-1.83-2.97-0.97-7.38-0.83-10.68C6.62,13.11,5.4,9.19,6.68,5.36
				C8.02,1.39,11.61,0.49,15.48,0.19"/>
			<path d="M15.58,31.44c-0.23,0-0.43,0-0.62-0.01c-5.16-0.18-7.19-2.59-7.83-3.62c-1.5-2.43-1.23-5.76-1-8.7
				c0.06-0.74,0.11-1.43,0.14-2.09c0.06-1.38-0.06-2.78-0.18-4.15C5.88,10.38,5.67,7.81,6.51,5.3c1.39-4.15,5.13-5,8.96-5.3l0.01,0
				c3.54,0,7.06,0.49,8.88,4.07l0.01,0.01c1.16,2.85,1.18,5.89,1.19,8.84c0.01,1.1,0.01,2.23,0.08,3.34
				c0.02,0.34,0.04,0.68,0.06,1.02c0.21,3.23,0.45,6.9-1.05,9.89C22.78,30.91,18.07,31.44,15.58,31.44z M15.49,0.37
				c-3.7,0.29-7.31,1.11-8.63,5.05c-0.82,2.43-0.6,4.97-0.4,7.42c0.12,1.37,0.24,2.79,0.18,4.19c-0.03,0.66-0.08,1.36-0.14,2.1
				c-0.23,2.89-0.49,6.16,0.95,8.48c0.6,0.98,2.54,3.27,7.53,3.44c2.16,0.08,7.4-0.16,9.34-4.05c1.45-2.89,1.22-6.51,1.01-9.7
				c-0.02-0.35-0.04-0.69-0.06-1.02c-0.07-1.12-0.07-2.26-0.08-3.36c-0.02-2.91-0.03-5.92-1.16-8.69
				C22.3,0.84,18.91,0.37,15.49,0.37z"/>
		</g>
	</g>
	<g>
		<path class="st4" d="M16.12,5.01c0.64,3.75,6.77,2.76,5.89-1.02C21.22,0.59,15.9,1.53,16.12,5.01"/>
		<path d="M19.03,7.55c-0.39,0-0.78-0.06-1.15-0.19c-1.05-0.37-1.74-1.19-1.94-2.32l0-0.02c-0.05-0.88,0.22-1.66,0.8-2.27
			c0.51-0.54,1.23-0.9,2.02-1.02c1.94-0.28,3.12,0.91,3.43,2.22c0.25,1.09-0.03,2.06-0.79,2.75C20.78,7.24,19.9,7.55,19.03,7.55z
			 M16.3,4.99c0.17,0.99,0.78,1.71,1.7,2.03c1.06,0.37,2.36,0.12,3.16-0.59c0.66-0.6,0.9-1.45,0.68-2.4
			c-0.37-1.59-1.79-2.12-3.02-1.94C17.53,2.27,16.2,3.26,16.3,4.99z"/>
	</g>
	<g>
		<path class="st4" d="M8.8,5.61c0.84,3.26,6.06,2.43,5.86-0.85C14.42,0.85,8,1.6,8.8,5.61"/>
		<path d="M11.61,7.85c-1.25,0-2.58-0.64-2.98-2.2l0-0.01C8.39,4.47,8.74,3.44,9.6,2.75c0.97-0.78,2.45-0.97,3.6-0.46
			c0.99,0.44,1.57,1.31,1.64,2.46c0.11,1.79-1.31,2.84-2.67,3.05C11.98,7.84,11.79,7.85,11.61,7.85z M8.97,5.57
			c0.29,1.14,1.38,2.17,3.14,1.89c1.74-0.27,2.45-1.55,2.38-2.69C14.42,3.77,13.91,3,13.05,2.61c-1.03-0.46-2.36-0.29-3.23,0.41
			C9.06,3.63,8.76,4.53,8.97,5.57z"/>
	</g>
	<g>
		<path class="st4" d="M16.86,9.5c0,0.49,0.11,1.03,0.02,1.55c-0.12,0.24-0.37,0.26-0.58,0.35c-0.29-0.05-0.54-0.24-0.65-0.51
			c-0.07-0.59,0.03-1.16,0.05-1.76L16.86,9.5z"/>
		<path d="M16.32,11.6l-0.05-0.01c-0.35-0.06-0.65-0.29-0.79-0.62l-0.01-0.02l0-0.03c-0.05-0.42-0.02-0.83,0.01-1.23
			c0.01-0.18,0.03-0.37,0.04-0.56l0.01-0.24l1.53,0.47l0,0.14c0,0.16,0.01,0.32,0.03,0.5c0.03,0.36,0.05,0.72-0.01,1.09l-0.01,0.03
			l-0.01,0.03c-0.13,0.24-0.35,0.32-0.52,0.38c-0.05,0.02-0.1,0.03-0.14,0.06L16.32,11.6z M15.83,10.85
			c0.09,0.19,0.25,0.32,0.45,0.37c0.04-0.02,0.08-0.03,0.12-0.04c0.15-0.05,0.25-0.09,0.3-0.18c0.05-0.31,0.02-0.64,0-0.96
			c-0.01-0.13-0.02-0.26-0.02-0.39l-0.81-0.25c-0.01,0.11-0.02,0.23-0.02,0.34C15.81,10.11,15.78,10.48,15.83,10.85z"/>
	</g>
	<g>
		<ellipse class="st3" cx="10.24" cy="5.08" rx="0.88" ry="0.96"/>
		<ellipse class="st4" cx="10.64" cy="5.3" rx="0.21" ry="0.24"/>
	</g>
	<g>
		<ellipse class="st3" cx="17.63" cy="4.84" rx="0.87" ry="0.96"/>
		<ellipse class="st4" cx="18.02" cy="5.06" rx="0.2" ry="0.24"/>
	</g>
	<g>
		<path class="st4" d="M14.34,9.45c-0.38,0.93,0.21,2.8,1.26,1.42c-0.07-0.59,0.03-1.16,0.05-1.76L14.34,9.45z"/>
		<path d="M14.89,11.55c-0.13,0-0.23-0.04-0.3-0.08c-0.55-0.32-0.7-1.43-0.43-2.09l0.04-0.09l1.64-0.42l-0.01,0.25
			c-0.01,0.2-0.02,0.39-0.04,0.58c-0.03,0.4-0.06,0.77-0.01,1.15l0.01,0.08l-0.05,0.06C15.41,11.43,15.12,11.55,14.89,11.55z
			 M14.48,9.61c-0.17,0.54-0.02,1.35,0.3,1.54c0.21,0.12,0.47-0.13,0.62-0.33c-0.04-0.39-0.01-0.78,0.02-1.15
			c0.01-0.1,0.02-0.21,0.02-0.31L14.48,9.61z"/>
	</g>
	<g>
		<g>
			<path class="st0" d="M14.47,7.65c-0.72,0.06-1.3,0.91-0.93,1.59c0.49,0.89,1.6-0.08,2.28,0.01c0.79,0.02,1.44,0.84,2.07,0.15
				c0.71-0.76-0.3-1.51-1.09-1.84L14.47,7.65z"/>
			<path class="st5" d="M17.33,9.86c-0.26,0-0.52-0.11-0.77-0.21c-0.24-0.1-0.49-0.21-0.75-0.21l-0.02,0
				c-0.2-0.03-0.49,0.07-0.76,0.17c-0.56,0.19-1.27,0.44-1.66-0.27c-0.19-0.34-0.18-0.76,0.02-1.13c0.22-0.41,0.63-0.69,1.06-0.73
				l0.01,0l2.37-0.09l0.04,0.02c0.3,0.12,1.27,0.59,1.43,1.3c0.04,0.2,0.03,0.52-0.27,0.84C17.8,9.78,17.56,9.86,17.33,9.86z
				 M15.83,9.07c0.32,0.01,0.61,0.13,0.87,0.24c0.48,0.2,0.75,0.29,1.05-0.03c0.16-0.17,0.22-0.34,0.18-0.51
				c-0.09-0.41-0.68-0.8-1.17-1.02l-2.29,0.09c-0.3,0.03-0.6,0.24-0.76,0.54c-0.14,0.26-0.15,0.55-0.02,0.78
				c0.23,0.42,0.61,0.31,1.21,0.1C15.22,9.15,15.55,9.04,15.83,9.07z"/>
		</g>
		<path class="st3" d="M14.38,7.62c-0.05-1.24,2.32-1.4,2.6-0.36C17.25,8.3,14.49,8.54,14.38,7.62C14.28,6.88,14.38,7.62,14.38,7.62
			z"/>
	</g>
</g>
</svg>
