<?xml version="1.0" encoding="utf-8"?>
<!-- Generator: Adobe Illustrator 20.1.0, SVG Export Plug-In . SVG Version: 6.00 Build 0)  -->
<svg version="1.1" id="Layer_1" xmlns="http://www.w3.org/2000/svg" xmlns:xlink="http://www.w3.org/1999/xlink" x="0px" y="0px"
	 viewBox="0 0 32 32" style="enable-background:new 0 0 32 32;" xml:space="preserve">
<style type="text/css">
	.st0{fill:#7AB852;}
</style>
<path class="st0" d="M17.23,27.33c0.75-0.11,1.61-0.32,2.04-0.54c0.43-0.22,0.75-0.54,0.75-0.75l-0.22-0.43
	c-0.22-0.32-0.43-0.75-0.97-1.94c-0.22-0.54-0.7-1.95-0.86-2.58c-0.16-0.95-0.18-1.96,0-2.9c0.16-0.55,0.37-1.09,0.75-1.51
	c0.43-0.57,0.93-1.13,1.61-1.4c2.12-0.84,4.62-2.69,5.92-4.73c0.43-0.75,0.64-1.08,0.79-1.51c0.39-1.06,0.73-2.19,0.71-3.33V5.6H4
	v0.22c-0.02,2.82,1.65,5.36,3.66,7.21c1.08,0.97,2.37,1.72,3.87,2.26c0.54,0.22,0.75,0.32,1.18,0.75c0.54,0.65,0.97,1.4,1.18,2.26
	c0.13,1.24,0.03,2.56-0.32,3.76l-0.21,0.65c-0.11,0.43-0.43,1.08-0.97,2.15c-0.54,1.08-0.54,1.18-0.54,1.29
	c0.21,0.65,1.51,1.08,3.44,1.29C15.73,27.44,16.37,27.44,17.23,27.33z M8.2,23.67c0.75-0.11,1.4-0.32,1.61-0.65v-0.11L9.7,22.6
	c-0.75-1.4-1.18-2.58-1.18-3.76c0-0.65,0.11-0.97,0.32-1.51c0.32-0.54,0.43-0.71,0.97-0.93c0.22-0.11,0.47-0.15,0.58-0.22
	c0.28-0.08,0.6-0.25,0.6-0.25s-0.19-0.04-0.41-0.15c-0.65-0.22-0.88-0.39-1.42-0.71c-1.72-0.97-2.8-1.94-3.87-3.33
	c-0.32-0.54-0.49-0.78-0.65-0.99l-0.11-0.19c-0.11-0.11-4.41-0.11-4.52,0c-0.07,1.51,0.65,2.83,1.61,3.98
	c1.13,1.34,2.04,1.72,2.9,1.94c0.75,0.22,0.86,0.32,1.18,0.75c0.22,0.54,0.32,0.86,0.32,1.51c0.11,0.97-0.22,1.94-0.86,3.33
	l-0.43,0.86c0,0.11,0.22,0.32,0.43,0.43C5.72,23.67,7.23,23.89,8.2,23.67L8.2,23.67z M25.73,23.67c0.86-0.11,1.4-0.32,1.51-0.65
	c0-0.11,0-0.22-0.32-0.86c-0.68-1.34-1.14-2.92-0.75-4.41c0.22-0.6,0.51-1.23,1.18-1.33c1.08-0.32,1.94-0.82,3.01-1.89
	c0.65-0.65,1.25-1.73,1.41-2.37c0.14-0.51,0.31-1.11,0.2-1.61c-0.11-0.11-4.52-0.11-4.62,0l-0.21,0.22
	c-0.11,0.32-0.54,0.97-0.86,1.29c-0.43,0.54-1.72,1.83-2.15,2.15c-0.79,0.81-2.32,1.36-3.12,1.72c0.11,0.11,0.65,0.43,1.08,0.54
	c0.86,0.32,0.86,0.32,1.18,0.86c0.21,0.54,0.32,0.86,0.32,1.51c0.06,1.49-0.7,2.88-1.29,4.09C23.05,23.78,24.66,23.76,25.73,23.67
	L25.73,23.67z"/>
</svg>
