<?xml version="1.0" encoding="utf-8"?>
<!-- Generator: Adobe Illustrator 20.1.0, SVG Export Plug-In . SVG Version: 6.00 Build 0)  -->
<svg version="1.1" id="Layer_1" xmlns="http://www.w3.org/2000/svg" xmlns:xlink="http://www.w3.org/1999/xlink" x="0px" y="0px"
	 viewBox="0 0 32 32" style="enable-background:new 0 0 32 32;" xml:space="preserve">
<style type="text/css">
	.st0{fill:#FFFF00;}
	.st1{fill:#FFFFCC;}
	.st2{fill:#CCCC00;}
</style>
<g>
	<path class="st0" d="M11.79,9.3L9.66,9.64l-1.94,0.85l-1.65,1.04l-1.57,1.91l-0.89,0.94L2.76,14.7l-0.23-0.55l0.4-0.57l0.09-0.81
		l0.27,0.01l0.29,0.26L3.5,12.22l-0.32-0.22l0.01-0.31l-0.76,0.43l-0.69,0.81l-0.14,0.73l0.3,0.58l0.28,0.99l0.56,0.26l0.59-0.03
		l0.56-0.32l-0.37,1.89l0.37,2.1l-0.41,0.97l-1.34,1.45l0.24,0.86l0.64,1l1.2,0.84l0.64,0.09l0.71,0.02l-0.44,1.81l1.62,0.66
		l2.02,0.27l0.69-0.45l0.05-1.22l0.77-1.28l0.05-1.01l1.86,0.13l1.73-0.16l-1.73,1.04l0.29,1.25l1.09,1.7l1.06,0.45l0.85-0.35
		l0.35-0.69l1.78-1.36l0.35,0.29l2.79,0.11l0.56-0.45l0.05-0.8l-0.19-0.35l-0.13-2.15l-0.93-1.86l0.16-0.82l0.56,0.29l1.57,1.46
		l0.77,0.05L24,20.6l0.85-0.64l0.43-1.38l2.5,0.16l1.52-0.58l1.22-1.14l0.88-1.65l0.21-1.94l-0.19-2.26l-0.48-2.02L30.46,8.5
		L29.8,8.29l-1.17,1.28l-1.06,0.37l-0.93-1.54L25.7,7.54L25.2,7.22l-2.02-1.68l-1.62-0.88l-1.62-0.13l-1.89,0.32l-1.65,0.61
		L15.25,6.4l-0.9,1.09l-0.93,0.27L11.79,9.3"/>
	<path class="st1" d="M5.62,14.1c-1.82,2.13-1.42,4.7-0.91,7.23c-0.27-0.68-0.54-1.36-0.81-2.04c-0.1-0.62-0.2-1.25-0.3-1.87
		c0.03-0.64,0.06-1.28,0.09-1.92c0.26-0.61,0.51-1.22,0.77-1.83c0.38-0.57,0.77-1.13,1.15-1.7c0.6-0.5,1.19-0.99,1.79-1.49
		C8.04,10.2,8.7,9.93,9.35,9.66c0.77-0.1,1.53-0.2,2.3-0.3c-0.71,0.81-1.42,1.62-2.13,2.43C7.81,12.35,6.8,12.72,5.62,14.1"/>
	<path class="st1" d="M14.2,7.62c-1.27,1.24-1.96,2.17-2.77,3.62c-0.58,1.04-1.22,2.03-1.83,3.05c-0.31,0.52-0.34,0.95-0.43,1.55
		c-0.3-0.35-0.6-0.71-0.89-1.06c0.14-0.43,0.28-0.85,0.43-1.28c0.48-0.87,0.96-1.73,1.45-2.6c1.02-1.01,2.04-2.01,3.06-3.02
		C13.55,7.79,13.87,7.71,14.2,7.62"/>
	<path class="st1" d="M20.46,4.56c-1.01,0.38-2.7,0.51-2.82,1.67c-0.08,0.83,0.06,1.24,0.56,2.12c-1.23-1.27-1.54-1.08-3.92-0.68
		c0.34-0.48,0.68-0.96,1.02-1.45c0.6-0.37,1.19-0.74,1.79-1.11c0.77-0.17,1.53-0.34,2.3-0.51C19.75,4.58,20.1,4.57,20.46,4.56"/>
	<path class="st2" d="M23.26,20.31c0.34,0.21,0.33,0.36,0.27,0.5c0.27-0.11,0.53-0.21,0.8-0.32c0.17-0.23,0.35-0.46,0.52-0.7
		c0.13-0.33,0.26-0.66,0.38-0.99c-0.16-0.12-0.33-0.25-0.49-0.37c-0.72,0.09-1.43,0.18-2.15,0.27c-0.05,0.14-0.11,0.29-0.16,0.43
		c0.02,0.21,0.03,0.41,0.05,0.62c0.07,0.12,0.14,0.24,0.21,0.37c0.11,0.05,0.21,0.11,0.32,0.16C23.09,20.3,23.17,20.3,23.26,20.31"
		/>
	<path class="st2" d="M23.06,16.64c-1.08,0.31-1.07,0.4-1.39,1.46C22.09,17.43,22.4,17.09,23.06,16.64"/>
	<path class="st2" d="M30.21,8.65c-0.19,0.09-0.38,0.13-0.5,0.31c-0.26,0.38-0.48,0.69-0.9,0.96c-0.21,0.13-0.44,0.22-0.66,0.29
		c-0.19,0.06-0.3,0.01-0.46,0.12c0.1,0.02,0.19,0.03,0.29,0.05h0.63c0.26-0.16,0.52-0.32,0.78-0.48c0.15-0.16,0.3-0.32,0.46-0.48
		C29.96,9.16,30.09,8.9,30.21,8.65"/>
	<path class="st2" d="M13.07,11.04c-0.42,1.16-0.79,2.15-1.43,3.2c0.82-0.89,1.32-1.64,1.79-2.64c0.18-0.39,0.22-0.85,0.73-0.68
		c0.02,0.39,0.11,0.78,0.13,1.16c0.28-1.97,1.05-2.8,2.86-3.56c-0.51,0.06-1.02,0.12-1.53,0.18c-0.48,0.11-0.96,0.21-1.44,0.32
		c-0.24,0.34-0.47,0.69-0.71,1.03C13.33,10.38,13.2,10.71,13.07,11.04"/>
	<path class="st2" d="M16.57,10.99c0.39,1.83,0.95,3.59,1.19,5.45c0.16,1.21,0.18,1.79-0.43,2.83c-0.66-0.04-1.08,0.03-1.72,0.24
		c-2.56,0.84-4.03,2.07-5.75-0.41c0.55,0.26,1.1,0.52,1.65,0.78c0.39-0.08,0.78-0.15,1.18-0.23c0.69-0.4,1.39-0.81,2.08-1.21
		c0.54-0.11,1.08-0.21,1.62-0.32c0.18-0.73,0.35-1.46,0.53-2.19c-0.13-0.97-0.26-1.93-0.39-2.9c-0.02-0.46-0.03-0.91-0.05-1.37
		C16.5,11.43,16.54,11.21,16.57,10.99"/>
	<path class="st2" d="M20.97,22.32c-0.22,1.49,0.49,2.29,0.2,2.7c-0.08,0.12-0.2,0.32-0.32,0.38c-0.45,0.2-1.07-0.04-1.11,0.08
		h-1.48c-0.2-0.08-0.4-0.17-0.59-0.25c0.3-0.36,0.61-0.72,0.91-1.07c0.3-0.65,0.59-1.29,0.89-1.94c0.19-0.65,0.38-1.31,0.57-1.96
		h0.3C20.55,20.93,20.76,21.63,20.97,22.32"/>
	<path class="st2" d="M18.48,18c0.12,0.68,0.33,0.84,0.65,1.49c-0.21,1.07-0.55,2.33-0.96,3.28c-0.17,0.4-0.31,0.62-0.62,0.92
		c-0.51,0.52-1.03,0.97-1.61,1.42c-0.42,0.32-0.71,0.16-1.23,0.09c-0.22,0.4-0.28,0.62-0.69,0.82c-0.62,0.31-1.18-0.36-1.67-0.75
		c0.35,0.55,0.71,1.1,1.06,1.65c0.24,0.23,0.49,0.46,0.73,0.69c0.21,0.03,0.41,0.06,0.62,0.09c0.27-0.17,0.55-0.34,0.82-0.5
		c0.14-0.27,0.29-0.55,0.43-0.82c0.3-0.23,0.61-0.46,0.91-0.69c0.37-0.32,0.75-0.64,1.12-0.96c0.24-0.33,0.47-0.67,0.71-1
		c0.21-0.4,0.43-0.79,0.64-1.19c0.27-0.82,0.55-1.64,0.82-2.47c0.02-0.31,0.05-0.62,0.07-0.94c-0.34-0.15-0.69-0.3-1.03-0.46
		C19.01,18.43,18.73,18.23,18.48,18"/>
	<path class="st2" d="M10.28,22.75c1.15,0,2.37-0.06,3.43-0.55c0.3-0.45,0.59-0.81,0.96-1.21c-0.33,0.63-0.44,0.98-0.53,1.69
		c-0.11,0.17-0.23,0.33-0.34,0.5c-0.87,0.02-1.74,0.05-2.6,0.07c-0.28-0.03-0.56-0.06-0.85-0.09c-0.03-0.03-0.06-0.06-0.09-0.09
		C10.27,22.97,10.28,22.86,10.28,22.75"/>
	<path class="st2" d="M10.12,21.96c-0.03-0.27-0.06-0.54-0.09-0.81c-0.2,1.19-0.15,1.98-0.7,3.04c-0.41,0.47-0.91,0.9-1.48,1.13
		C7.9,25.61,7.92,25.79,7.89,26c-0.1,0.77-1.64,0.43-2.27,0.4c1.01,0.26,2.03,0.52,3.04,0.78c0.23-0.09,0.46-0.18,0.69-0.27
		c0.08-0.44,0.15-0.88,0.23-1.32c0.21-0.4,0.43-0.79,0.64-1.19c0.04-0.24,0.08-0.49,0.11-0.73C10.26,23.1,10.19,22.53,10.12,21.96"
		/>
	<path class="st2" d="M8.41,15.26c-0.03,0.58-0.07,0.82,0.19,1.33c0.32,0.65,0.72,1.26,1.07,1.89c0.04-0.43,0.08-0.85,0.11-1.28
		C9.33,16.56,8.87,15.91,8.41,15.26"/>
	<path class="st2" d="M3.72,19.62c-0.1,0.21-0.2,0.42-0.3,0.63c0.27,0.92,0.51,1.5,1.03,2.3c-0.09,0.32-0.16,0.47-0.37,0.73
		c-0.46-0.07-0.86-0.09-1.32-0.09c0.51,0.4,1.02,0.79,1.53,1.19c0.25-0.05,0.5-0.09,0.75-0.14c0.25-0.25,0.5-0.5,0.75-0.75
		c-0.36-0.56-0.72-1.11-1.07-1.67C4.4,21.08,4.06,20.35,3.72,19.62"/>
	<path class="st2" d="M30.22,8.35c0.31,1.4,0.71,2.69,0.67,4.12c-0.05,1.76-0.39,3.97-2.02,5.03c-1.82,1.19-3.96,0.63-5.96,0.12
		c0.81,0.34,1.63,0.67,2.44,1c0.76,0.04,1.52,0.08,2.28,0.11c0.52-0.15,1.04-0.3,1.55-0.46c0.4-0.34,0.81-0.67,1.21-1.01
		c0.3-0.64,0.61-1.28,0.91-1.92c0.11-0.74,0.23-1.48,0.34-2.22c-0.09-0.72-0.18-1.45-0.27-2.17c-0.17-0.72-0.34-1.43-0.5-2.15
		C30.66,8.66,30.44,8.5,30.22,8.35"/>
	<path class="st2" d="M3.02,12.51c-0.83,0.54-1.15,0.77-1.06,1.77c0.08,0.3,0.16,0.6,0.25,0.9c0.12,0.08,0.23,0.16,0.35,0.24
		c0.14,0.05,0.29,0.1,0.43,0.14c0.26-0.06,0.52-0.12,0.78-0.19c0.13-0.42,0.27-0.83,0.4-1.25c-0.37,0.18-0.74,0.36-1.11,0.55H2.81
		c-0.1-0.15-0.19-0.3-0.29-0.44c0.12-0.17,0.23-0.34,0.35-0.52c0.06-0.33,0.12-0.65,0.19-0.98c0.08,0.02,0.16,0.05,0.24,0.07
		c0.1,0.08,0.19,0.15,0.29,0.23c-0.01-0.17-0.03-0.34-0.04-0.52c-0.07-0.11-0.13-0.22-0.2-0.33c-0.07-0.06-0.13-0.11-0.2-0.16
		C3.1,12.19,3.06,12.35,3.02,12.51"/>
	<path class="st2" d="M21.58,4.65c0.73,0.68,1.64,1.27,2.22,2.11c0.23,0.32,0.48,0.49,0,0.94c0.51-0.15,0.7-0.13,1.11-0.08
		c0.74,0.09,1.44,1.15,1.49,1.91c-0.01,0.07-0.21,0.23-0.78,0.39c-0.01,0.02-0.32-0.04-0.32-0.02c0.06,0.16,0.14,0.19,0.26,0.27
		c0.03,0.18,0.04,0.46,0.17,0.66c0.36-0.01,0.72,0.03,1.07,0.1c0.12,0.2,0.1,0.4,0.09,0.59c0.14-0.02,0.27-0.05,0.41-0.07
		c-0.04-0.31-0.08-0.62-0.11-0.94c0.12-0.21,0.24-0.41,0.37-0.62c-0.18-0.4-0.35-0.79-0.53-1.19c-0.33-0.32-0.67-0.64-1-0.96
		c-0.03,0-0.06,0-0.1,0c-0.38-0.23-0.75-0.46-1.13-0.69c-0.61-0.5-1.23-1.01-1.84-1.51C22.5,5.24,22.04,4.95,21.58,4.65"/>
	<path class="st2" d="M22.82,10.28c-0.04,0.07-0.1,0.18-0.17,0.25c0.31,0.29,0.46,0.48,0.57,0.89c-0.35,0.17-0.69,0.34-1.04,0.51
		c-0.29,0.28-0.59,0.56-0.88,0.84c-0.39-0.21-0.48-0.37-0.67-0.76c-0.22,0.06-0.42,0.11-0.6,0.05c0.11,0,0.18-0.03,0.3-0.1
		c0.19-0.19,0.37-0.39,0.56-0.58c0.33-0.25,0.66-0.5,0.99-0.75c0.22-0.07,0.43-0.14,0.65-0.21C22.6,10.39,22.74,10.31,22.82,10.28"
		/>
	<path class="st2" d="M23.77,11.31c-1.1,0.59-2.15,1.19-2.72,2.31C21.06,12.19,22.49,11.56,23.77,11.31"/>
	<path class="st2" d="M20.84,8.5c-0.82,0.56-1.39,1.68-1.32,2.78c-0.27-0.95-0.17-1.84,0.65-2.5c0.14-0.07,0.28-0.13,0.41-0.2
		C20.66,8.55,20.75,8.52,20.84,8.5"/>
	<path d="M31.83,11.08c-0.15-0.93-0.39-1.84-0.73-2.49c-0.04-0.08-0.1-0.16-0.18-0.24c-0.17-0.17-0.42-0.32-0.68-0.41
		c-0.27-0.09-0.56-0.11-0.79,0.01c-0.06,0.03-0.11,0.07-0.16,0.12C29.13,8.22,29,8.4,28.88,8.59C28.74,8.79,28.6,9,28.43,9.14
		c-0.19,0.17-0.44,0.27-0.67,0.36c-0.1-0.24-0.22-0.47-0.35-0.68c-0.16-0.25-0.34-0.49-0.53-0.72c-0.16-0.19-0.32-0.34-0.49-0.46
		c-0.17-0.13-0.34-0.24-0.55-0.37c-0.54-0.34-1.01-0.75-1.48-1.16c-0.21-0.19-0.43-0.38-0.64-0.55c-1.12-0.93-2.17-1.38-3.29-1.45
		c-1.11-0.07-2.29,0.24-3.67,0.82c-0.67,0.28-1.17,0.61-1.6,1.02c-0.41,0.38-0.76,0.82-1.15,1.34c-0.22,0.02-0.42,0.05-0.63,0.13
		c-0.22,0.09-0.45,0.23-0.72,0.47c-0.19,0.17-0.38,0.34-0.55,0.51c-0.17,0.16-0.33,0.32-0.49,0.49c-1.26,0.2-2.29,0.43-3.21,0.78
		c-0.94,0.36-1.77,0.87-2.63,1.62c-0.35,0.31-0.65,0.64-0.91,0.98c-0.26,0.34-0.48,0.7-0.68,1.07c-0.17,0.19-0.34,0.38-0.53,0.55
		c-0.18,0.16-0.37,0.3-0.59,0.38l0,0c-0.13,0.05-0.18,0.08-0.18,0.07c-0.01,0-0.01-0.02-0.02-0.06c0.31-0.3,0.36-0.73,0.39-1.16
		c0.04,0.04,0.07,0.1,0.11,0.16c0.04,0.06,0.08,0.13,0.13,0.19l0.21,0.27l0.07-0.33c0.06-0.28,0.11-0.65,0.04-0.97
		c-0.05-0.21-0.14-0.39-0.31-0.52c0.02-0.04,0.03-0.08,0.05-0.12c0.05-0.13,0.11-0.27,0.15-0.4l0.09-0.26L3.54,11.2
		c-0.36,0.06-1.14,0.49-1.68,1.05c-0.2,0.21-0.38,0.44-0.49,0.69c-0.12,0.25-0.17,0.52-0.13,0.79c0.04,0.23,0.16,0.46,0.37,0.68
		c0.04,0.16,0.07,0.29,0.11,0.41c0.04,0.14,0.09,0.26,0.15,0.38c0.16,0.33,0.41,0.53,0.71,0.63c0.24,0.08,0.5,0.08,0.75,0.02
		c-0.05,0.29-0.08,0.59-0.09,0.92c-0.02,0.43,0,0.91,0.05,1.46c0.01,0.12,0.03,0.25,0.05,0.4c0.02,0.12,0.04,0.25,0.06,0.37
		c-0.05,0.13-0.1,0.26-0.14,0.39c-0.07,0.2-0.15,0.4-0.22,0.61c-0.16,0.16-0.33,0.32-0.49,0.49c-0.15,0.15-0.31,0.3-0.46,0.45
		C2.06,20.94,2,20.99,1.96,21.03c-0.31,0.3-0.37,0.36-0.28,0.88c0.05,0.32,0.16,0.65,0.32,0.96c0.15,0.29,0.36,0.57,0.62,0.83
		c0.33,0.33,0.86,0.73,1.42,0.95c0.32,0.12,0.65,0.18,0.96,0.13c-0.02,0.05-0.03,0.1-0.05,0.14c-0.05,0.13-0.1,0.27-0.16,0.4
		C4.4,26.16,4.79,26.6,5.4,26.87c0.3,0.14,0.66,0.23,1,0.32c0.07,0.02,0.14,0.04,0.22,0.06c0.4,0.11,1.08,0.3,1.71,0.34
		c0.68,0.04,1.3-0.1,1.46-0.71c0.07-0.24,0.1-0.43,0.12-0.61c0.01-0.17,0.01-0.34-0.01-0.55c0.19-0.43,0.28-0.55,0.42-0.76
		c0.03-0.04,0.06-0.09,0.07-0.11c0.15-0.23,0.22-0.39,0.25-0.57c0.03-0.17,0-0.35-0.03-0.61c0-0.03-0.01-0.06-0.01-0.11
		c0.4,0.05,0.79,0.08,1.19,0.08c0.2,0,0.4,0,0.6-0.02c-0.05,0.03-0.1,0.05-0.16,0.08c-0.02,0.01-0.05,0.03-0.07,0.04
		c-0.53,0.27-0.55,0.79-0.38,1.31c0.15,0.48,0.46,0.96,0.65,1.26c0.4,0.62,0.79,1.15,1.26,1.44c0.49,0.3,1.05,0.34,1.77-0.06
		c0.37-0.2,0.48-0.4,0.64-0.68c0.05-0.08,0.1-0.17,0.16-0.26c0.15-0.1,0.53-0.41,0.9-0.72c0.13-0.1,0.25-0.21,0.4-0.32
		c0.1,0.07,0.22,0.12,0.36,0.16c0.19,0.04,0.41,0.06,0.67,0.08c0.2,0.01,0.85,0.01,1.26,0.01c0.13,0,0.24,0,0.3,0
		c0.43,0,0.78-0.02,1.04-0.17c0.28-0.16,0.45-0.44,0.48-0.95c0.02-0.22,0.02-0.36-0.01-0.5c-0.03-0.13-0.09-0.25-0.18-0.43
		c-0.01-0.22-0.01-0.44-0.02-0.66c-0.01-0.23-0.01-0.46-0.02-0.7c-0.01-0.27-0.04-0.5-0.09-0.71c-0.06-0.22-0.13-0.43-0.24-0.68
		c-0.07-0.17-0.13-0.32-0.19-0.48l-0.15,0.06l0.02-0.01l0.13-0.05v0c-0.09-0.24-0.18-0.48-0.3-0.73c0.01-0.05,0.02-0.1,0.02-0.16
		c0.08,0.08,0.16,0.15,0.24,0.23l0.36,0.34c0.27,0.26,0.52,0.5,0.81,0.67c0.3,0.18,0.64,0.28,1.08,0.26
		c0.46-0.02,0.95-0.21,1.35-0.51c0.39-0.29,0.7-0.68,0.84-1.11c0.04-0.12,0.08-0.25,0.11-0.37c0.03-0.1,0.06-0.2,0.09-0.3
		c0.64,0.11,1.33,0.14,2,0.07c0.64-0.07,1.26-0.23,1.8-0.52c0.79-0.42,1.38-1.04,1.8-1.77l0,0c0.47-0.82,0.74-1.79,0.84-2.79
		C32.04,13.22,32,12.13,31.83,11.08L31.83,11.08z M23.5,17.8c-0.37-0.12-0.63-0.31-0.95-0.51c0.09,0.4,0.13,0.82,0.01,1.22
		c-0.19,0.63-0.49,1.67,0.37,1.86c0.33,0.07,0.48,0.06,0.94-0.18c-0.37,0.08-0.56,0.06-0.82,0.02c-0.23-0.04-0.36-0.19-0.42-0.36
		c0.08,0.06,0.21,0.09,0.44,0.15c0.64,0.15,1.24-0.15,1.36-0.59c0.07-0.26,0.06-0.39,0.2-0.75c0.13,0.04,0.27,0.08,0.41,0.11
		c-0.08,0.26-0.16,0.51-0.24,0.77c-0.2,0.67-1,1.21-1.71,1.19c-0.65-0.01-1.06-0.42-1.51-0.82c-0.31-0.28-0.61-0.54-0.9-0.8
		c-0.81-0.26-1.46-0.55-2.21-1.11c0.53,0.63,0.9,0.98,1.64,1.29c-0.11,1.11-0.49,1.91-0.82,2.97c-0.15,0.48-1.32,2.4-1.64,2.59
		c-0.23,0.13-1.68,1.35-1.95,1.52c-0.2,0.27-0.38,0.64-0.69,0.8c-0.93,0.49-1.53-0.45-2.03-1.25c-0.23-0.36-0.86-1.41-0.31-1.7
		c0.52-0.28,0.81-0.47,1.35-0.82c0.08,0.14,0.21,0.28,0.3,0.42c-0.02-0.16-0.04-0.31-0.06-0.47c-0.03-0.28-0.03-0.51-0.01-0.8
		c0.02-0.27,0.04-0.55,0.06-0.83c-0.08,0.28-0.24,0.56-0.32,0.84c-0.03,0.11-0.06,0.2-0.07,0.29c-1.2,0.24-2.38,0.26-3.58,0.05
		c-0.08-0.44-0.17-0.9-0.25-1.23c-0.02,0.37-0.01,1.39-0.01,1.97c0,0.44-0.02,0.6-0.25,0.97c-0.21,0.35-0.31,0.43-0.61,1.03
		c0.03,0.38,0.03,0.63-0.07,0.98c-0.17,0.59-1.85,0.13-2.29,0.01c-0.55-0.15-1.67-0.37-1.39-1.1c0.25-0.64,0.41-1.32,0.53-2.21
		c-1-1.44-1.93-3.42-2.11-5.17c-0.14-1.36-0.06-2.19,0.24-3.03c0.47-1.32,1.12-2.46,2.16-3.37c1.41-1.24,2.73-1.73,4.79-2.05
		c-0.5,0.56-0.99,1.14-1.52,1.77c-0.54,0.64-0.86,1.28-1.21,1.98c-0.48,0.96-0.47,1.33,0.16,2.18c0.54,0.73,0.84,1.06,1.07,1.77
		c-0.2,0.4-0.27,0.74-0.33,1.3c0.66,0.73,1.16,1.22,1.8,1.38c0.63,0.15,1.16,0.12,1.73-0.17c1.26-0.64,2.42-1.47,3.84-1.51
		c0.66-1.61,0.59-2.96,0.27-4.53c-0.22-1.07-0.3-2.08-0.37-3.16c-0.27,1.12-0.32,2.1-0.12,3.22c0.24,1.34,0.42,2.83-0.24,4.01
		c-1.28,0.1-2.38,0.88-3.54,1.48c-0.47,0.24-0.95,0.26-1.46,0.12c-0.48-0.13-0.8-0.45-1.31-1.04c-0.01-0.6,0.13-0.87,0.4-1.41
		c0.44-0.87,0.92-1.67,1.46-2.53c-0.65,0.79-1.27,1.44-1.78,2.24c-0.2-0.56-0.48-0.84-0.94-1.47c-0.45-0.61-0.5-0.88-0.16-1.6
		c0.34-0.71,0.63-1.34,1.21-1.97c1-1.08,1.92-2.29,3.02-3.36c0.6-0.58,0.84-0.56,1.63-0.68c0.71-0.11,1.41-0.24,2.14-0.41
		c-0.7,0.07-1.39,0.09-2.07,0.11c-0.01,0-0.01,0-0.02,0c0.67-0.86,1.07-1.34,2.16-1.82c2.7-1.17,4.41-1.3,6.53,0.48
		C23.99,6.55,24.47,7,25.03,7.4c-0.2,0.02-0.38,0.05-0.61,0.14c0.28-0.05,0.6,0,0.89,0.05c0.08,0.05,0.17,0.1,0.25,0.16
		c0.39,0.23,0.62,0.36,0.88,0.73c0.28,0.39,0.52,0.78,0.72,1.21c-0.14-0.05-0.25-0.09-0.35-0.12c-0.07-0.03-0.16-0.06-0.24-0.06
		c-0.17-0.02-0.33,0.03-0.47,0.11c-0.01,0-0.01,0.01-0.02,0.01c-0.22,0.11-0.55,0.23-0.78,0.26c0.11,0.04,0.37,0.05,0.49,0.01
		c0.02-0.01,0.03-0.01,0.05-0.02c-0.05,0.09-0.09,0.2-0.1,0.31c-0.01,0.15,0.02,0.29,0.08,0.42c0,0,0,0,0,0
		c0.02,0.05,0.05,0.09,0.08,0.12c-0.1,0.04-0.21,0.08-0.32,0.13c0.5-0.08,0.96-0.09,1.45-0.03c0.03,0.15,0.07,0.32,0.1,0.49
		c-0.06,0-0.12,0.01-0.18,0.01c0,0-0.01,0-0.01,0c-0.23-0.19-0.49-0.15-0.84-0.07c-1.08,0.25-0.82,0.85-1.32,1.76
		c0.51-0.63,0.48-1.28,1.31-1.48c0.19-0.05,0.33-0.1,0.46-0.08c-0.24,0.12-0.44,0.32-0.52,0.55c-0.23,0.65-0.09,1.2-0.34,1.8
		c0.31-0.54,0.33-1.07,0.61-1.64c0.1-0.2,0.47-0.53,0.7-0.54c0.06,0,0.13,0,0.19,0c0.06,0.36,0.09,0.72,0.07,1.02
		c-0.04,0.54-0.18,1.35-0.26,1.65c0.28-0.36,0.41-1.13,0.54-1.68c0.13-0.56,0.1-1.24-0.02-1.85c-0.16-0.83,0.7-0.7,1.2-1.09
		c0.37-0.29,0.62-0.75,0.95-1.08c0.33-0.32,0.86,0.15,0.99,0.47c0.57,1.37,0.83,3.53,0.68,4.92c-0.17,1.55-0.92,3.25-2.29,4.01
		C27.3,18.98,25.24,18.39,23.5,17.8L23.5,17.8z M21.02,24.7c-0.06,0.64-0.27,0.68-0.83,0.67c-0.26,0-1.27-0.01-1.53-0.03
		c-0.37-0.03-0.57-0.06-0.68-0.15c0.57-0.42,1.55-2.16,1.74-2.76c0.2-0.63,0.42-1.18,0.58-1.77c0.08,0.24,0.13,0.49,0.24,0.75
		c0.18,0.43,0.27,0.7,0.29,1.17c0.01,0.49,0.03,0.98,0.04,1.47C21.02,24.33,21.05,24.39,21.02,24.7L21.02,24.7z M3.75,19.84
		c0.36,1.26,0.98,2.5,1.67,3.54c0,0.01,0,0.01,0,0.02c-0.04,0.18-0.09,0.35-0.2,0.49c-0.49,0.66-1.74-0.31-2.1-0.68
		c-0.4-0.4-0.66-0.88-0.72-1.33c-0.05-0.33,0-0.34,0.23-0.57c0.31-0.31,0.62-0.62,0.92-0.94C3.62,20.2,3.68,20.02,3.75,19.84
		L3.75,19.84z M3.06,11.92c-0.09,0.2-0.16,0.35-0.2,0.51c-0.2,0.68,0.09,1.28-0.53,1.77c0.29,0.58,0.28,0.82,0.95,0.55
		c0.26-0.1,0.47-0.25,0.66-0.42c-0.09,0.24-0.18,0.48-0.25,0.73c-0.01,0.04-0.03,0.08-0.04,0.12c-0.48,0.2-1.11,0.33-1.35-0.17
		c-0.12-0.25-0.18-0.49-0.27-0.8C1.23,13.39,2.41,12.31,3.06,11.92L3.06,11.92z M3.44,12.79c-0.1-0.1-0.18-0.16-0.3-0.15
		c0.01-0.08,0.02-0.16,0.04-0.24c0.01-0.04,0.02-0.08,0.03-0.11C3.38,12.38,3.43,12.55,3.44,12.79L3.44,12.79z M27.18,9.72
		c0.03,0.06,0.06,0.13,0.09,0.19c-0.02,0.02-0.05,0.04-0.07,0.06c-0.04-0.09-0.1-0.17-0.17-0.24C27.09,9.73,27.13,9.73,27.18,9.72
		L27.18,9.72z M4.33,13.45L4.33,13.45L4.33,13.45L4.33,13.45z M1.75,14.32L1.75,14.32L1.75,14.32L1.75,14.32z M10.41,23.37
		L10.41,23.37L10.41,23.37L10.41,23.37z M17.55,25.5L17.55,25.5L17.55,25.5L17.55,25.5L17.55,25.5z M20.45,19.99L20.45,19.99
		L20.45,19.99L20.45,19.99L20.45,19.99z M3.14,14.43L3.14,14.43L3.14,14.43l-0.01-0.01L3.14,14.43L3.14,14.43z M30.98,16.72
		L30.98,16.72L30.98,16.72L30.98,16.72L30.98,16.72z"/>
	<path d="M0.34,14.24c0.13-1.43,0.4-2.04,1.42-3.12C0.49,12.02,0.17,12.42,0.34,14.24"/>
	<path d="M0.02,13.07c0.14-0.64,0.27-0.88,0.67-1.41C0.04,12.11-0.04,12.29,0.02,13.07"/>
	<path d="M14.93,4.12c-0.76,0.18-0.91,0.32-1.14,1.07C14.16,4.65,14.37,4.47,14.93,4.12"/>
	<path d="M16.13,4.01c-1.51,0.37-1.95,0.63-2.46,2.38C14.31,5.11,14.8,4.64,16.13,4.01"/>
	<path d="M19.38,10.39c0.16-0.71,0.45-1.4,1.55-1.93C19.47,8.83,19.2,9.45,19.38,10.39"/>
	<path d="M28.73,10.44c0.87-0.31,1.29-1.01,1.5-1.83c-0.34,0.69-0.87,1.27-1.58,1.62c-0.38,0.19-0.63,0.12-1.05,0.08
		C28.02,10.44,28.3,10.6,28.73,10.44"/>
	<path d="M22.8,11.14c-0.12-0.24-0.32-0.42-0.55-0.5c0.21-0.11,0.42-0.23,0.59-0.38c-0.48,0.22-1.04,0.17-1.45,0.44
		c-0.36,0.24-0.86,1.02-1.23,1.35c0.27-0.1,0.52-0.28,0.76-0.47c0,0.14,0.03,0.28,0.1,0.42c0.1,0.2,0.25,0.35,0.43,0.45
		c-0.13,0.17-0.24,0.37-0.32,0.59c0.7-0.83,1.72-1.46,2.67-1.72c-0.27,0-0.58,0.05-0.9,0.15C22.88,11.35,22.85,11.24,22.8,11.14"/>
	<path d="M21.8,17.41c-0.03,0.21-0.08,0.48-0.11,0.7c0.09-0.24,0.2-0.53,0.31-0.76c0.11-0.25,0.18-0.27,0.41-0.4
		c0.17-0.09,0.48-0.22,0.64-0.31c-0.17,0.03-0.48,0.09-0.66,0.12C21.92,16.84,21.87,16.96,21.8,17.41"/>
	<path d="M13.87,9.12c-0.54,0.53-1.06,2.36-1.23,3.09c0.26-0.61,0.92-2.3,1.43-2.74c0.14-0.12,0.24-0.19,0.34-0.25
		c-0.36,0.61-0.34,0.76-0.21,1.57c0.11-0.83,0.39-1.15,0.86-1.76c0.51-0.13,0.99-0.28,1.52-0.49c-0.59,0.07-1.19,0.13-1.78,0.18
		C14.31,8.78,14.23,8.77,13.87,9.12"/>
	<path class="st1" d="M21.21,12.23c-0.1-0.21-0.01-0.45,0.2-0.55c0.21-0.1,0.45-0.01,0.55,0.19c0.01,0.02,0.02,0.04,0.02,0.06
		c-0.2,0.15-0.38,0.32-0.53,0.52C21.35,12.4,21.26,12.33,21.21,12.23"/>
	<path class="st1" d="M25.8,10.45c0.02-0.17,0.16-0.3,0.33-0.28c0.17,0.02,0.3,0.17,0.28,0.34c0,0.04-0.01,0.07-0.03,0.1
		c-0.16,0.03-0.31,0.07-0.47,0.13C25.85,10.67,25.79,10.54,25.8,10.45"/>
</g>
</svg>
