<?xml version="1.0" encoding="utf-8"?>
<!-- Generator: Adobe Illustrator 20.1.0, SVG Export Plug-In . SVG Version: 6.00 Build 0)  -->
<svg version="1.1" id="Layer_1" xmlns="http://www.w3.org/2000/svg" xmlns:xlink="http://www.w3.org/1999/xlink" x="0px" y="0px"
	 viewBox="0 0 32 32" style="enable-background:new 0 0 32 32;" xml:space="preserve">
<style type="text/css">
	.st0{fill:#F5505A;}
	.st1{fill:#517AF4;}
	.st2{fill:#FFFFFF;}
	.st3{fill:#DCDCDC;}
	.st4{fill:#3BB33E;}
</style>
<g>
	<rect x="9.41" y="7.87" class="st0" width="5.91" height="5.84"/>
	<rect x="17.08" y="7.87" class="st1" width="5.91" height="5.84"/>
	<path class="st2" d="M10.12,12.69c0.1,0,0.19-0.01,0.25-0.03c0.06-0.02,0.11-0.04,0.16-0.06c0.04-0.04,0.07-0.1,0.08-0.17
		c0.01-0.07,0.02-0.16,0.02-0.27V9.62c0-0.1-0.01-0.19-0.02-0.27c-0.01-0.07-0.04-0.13-0.08-0.17c-0.02-0.04-0.07-0.07-0.14-0.08
		c-0.07-0.01-0.16-0.02-0.27-0.02V8.72h1.97v0.38c-0.08,0-0.16,0.01-0.23,0.02c-0.07,0.01-0.12,0.04-0.14,0.08
		c-0.04,0.04-0.07,0.1-0.08,0.17c-0.01,0.07-0.02,0.16-0.02,0.27v0.97h1.53V9.62c0-0.1-0.01-0.19-0.02-0.27
		c-0.01-0.07-0.04-0.13-0.08-0.17C13.04,9.15,13,9.12,12.94,9.11s-0.15-0.02-0.25-0.02V8.72h1.97v0.38c-0.1,0-0.19,0.01-0.27,0.02
		c-0.07,0.01-0.12,0.04-0.14,0.08c-0.04,0.04-0.07,0.09-0.08,0.16s-0.02,0.16-0.02,0.28v2.53c0,0.1,0.01,0.19,0.02,0.27
		c0.01,0.07,0.04,0.13,0.08,0.17c0.02,0.02,0.07,0.04,0.14,0.06c0.07,0.02,0.16,0.03,0.27,0.03v0.38h-1.97v-0.38
		c0.1,0,0.19-0.01,0.25-0.03c0.06-0.02,0.1-0.04,0.12-0.06c0.04-0.04,0.07-0.1,0.08-0.17c0.01-0.07,0.02-0.16,0.02-0.27v-1.19h-1.53
		v1.19c0,0.1,0.01,0.19,0.02,0.27c0.01,0.07,0.04,0.13,0.08,0.17c0.02,0.02,0.06,0.04,0.12,0.06c0.06,0.02,0.15,0.03,0.25,0.03v0.38
		h-1.97L10.12,12.69L10.12,12.69z"/>
	<g>
		<polygon class="st2" points="18.09,12.69 18.09,12.69 18.09,12.69 		"/>
		<path class="st2" d="M21.83,12.67c-0.05-0.01-0.1-0.04-0.14-0.08c-0.04-0.04-0.09-0.11-0.14-0.2s-0.11-0.22-0.17-0.39l-1.19-3.34
			h-0.31L18.72,12c-0.08,0.23-0.18,0.4-0.28,0.52c-0.1,0.11-0.22,0.17-0.34,0.17v0.37h1.25v-0.38c-0.06,0-0.12-0.01-0.17-0.02
			c-0.05-0.01-0.09-0.03-0.11-0.05c-0.04-0.02-0.07-0.05-0.08-0.08c-0.01-0.03-0.02-0.08-0.02-0.14c0-0.02,0.01-0.06,0.02-0.11
			c0.01-0.05,0.03-0.12,0.05-0.2l0.09-0.22h1.16l0.09,0.31l0.03,0.09c0.02,0.04,0.04,0.08,0.05,0.12s0.02,0.07,0.02,0.09
			s-0.01,0.05-0.02,0.08s-0.03,0.05-0.05,0.05c-0.02,0.02-0.06,0.04-0.11,0.05s-0.12,0.02-0.2,0.02v0.38h1.88v-0.38
			C21.93,12.69,21.88,12.68,21.83,12.67z M19.22,11.5l0.47-1.28l0.47,1.28H19.22z"/>
	</g>
	
		<rect x="7.31" y="15.46" transform="matrix(0.5393 -0.8421 0.8421 0.5393 -8.3583 16.1472)" class="st0" width="6.53" height="0.5"/>
	
		<rect x="0.41" y="15.76" transform="matrix(0.8897 -0.4566 0.4566 0.8897 -6.6467 4.5014)" class="st0" width="11.16" height="0.5"/>
	
		<rect x="13.9" y="12.98" transform="matrix(0.8128 -0.5825 0.5825 0.8128 -6.6712 11.2382)" class="st0" width="0.5" height="6.05"/>
	
		<rect x="18.29" y="10.27" transform="matrix(0.4495 -0.8933 0.8933 0.4495 -4.0153 25.3253)" class="st0" width="0.5" height="11.29"/>
	<rect x="21.96" y="7.4" transform="matrix(0.2857 -0.9583 0.9583 0.2857 0.5341 32.716)" class="st0" width="0.5" height="17.21"/>
	<polygon class="st1" points="31.31,18.68 20.6,13.61 20.81,13.16 31.52,18.23 	"/>
	
		<rect x="22.2" y="12.55" transform="matrix(0.7125 -0.7017 0.7017 0.7125 -4.7709 20.3564)" class="st1" width="0.5" height="6.9"/>
	
		<rect x="15.69" y="15.67" transform="matrix(0.4252 -0.9051 0.9051 0.4252 -3.7806 25.8875)" class="st1" width="5.61" height="0.5"/>
	
		<rect x="9.62" y="15.67" transform="matrix(0.8706 -0.4919 0.4919 0.8706 -5.9209 9.3257)" class="st1" width="10.3" height="0.5"/>
	
		<rect x="3.23" y="15.75" transform="matrix(0.9493 -0.3145 0.3145 0.9493 -4.4704 4.2891)" class="st1" width="15.66" height="0.5"/>
	<rect x="-0.01" y="18.22" class="st3" width="5.91" height="5.84"/>
	<rect x="6.46" y="18.22" class="st3" width="5.91" height="5.84"/>
	<rect x="12.96" y="18.22" class="st3" width="5.91" height="5.84"/>
	<rect x="19.58" y="18.22" class="st3" width="5.91" height="5.84"/>
	<rect x="26.09" y="18.22" class="st3" width="5.91" height="5.84"/>
	<path class="st4" d="M24.88,23.38h-2.31V23c0.1,0,0.19-0.01,0.25-0.02c0.06-0.01,0.11-0.03,0.16-0.05
		c0.02-0.02,0.04-0.04,0.05-0.06c0.01-0.02,0.02-0.05,0.02-0.09c0-0.04-0.01-0.09-0.03-0.14c-0.02-0.05-0.04-0.1-0.06-0.14
		l-0.56-0.84l-0.59,0.75c-0.06,0.06-0.1,0.13-0.12,0.19c-0.02,0.06-0.03,0.11-0.03,0.16c0,0.04,0.01,0.08,0.02,0.11
		c0.01,0.03,0.04,0.06,0.08,0.08c0.02,0.02,0.06,0.04,0.12,0.05c0.06,0.01,0.14,0.02,0.22,0.02v0.38h-1.66V23
		c0.06,0,0.13-0.01,0.2-0.03c0.07-0.02,0.14-0.05,0.2-0.09c0.06-0.04,0.14-0.1,0.22-0.17c0.08-0.07,0.18-0.17,0.28-0.3l0.84-1.06
		l-0.84-1.25c-0.13-0.19-0.22-0.33-0.3-0.44s-0.13-0.17-0.17-0.19c-0.06-0.04-0.13-0.07-0.2-0.09c-0.07-0.02-0.15-0.03-0.23-0.03V19
		h2.12v0.34c-0.06,0-0.11,0.01-0.16,0.02c-0.04,0.01-0.07,0.02-0.09,0.02c-0.02,0.02-0.04,0.04-0.05,0.06
		c-0.01,0.02-0.02,0.04-0.02,0.06c0,0.04,0.01,0.08,0.02,0.12c0.01,0.04,0.03,0.09,0.05,0.16l0.53,0.78l0.56-0.75
		c0.04-0.04,0.07-0.09,0.09-0.14c0.02-0.05,0.03-0.1,0.03-0.14c0-0.06-0.03-0.11-0.09-0.14c-0.06-0.03-0.15-0.05-0.25-0.05V19h1.5
		v0.34c-0.1,0.02-0.2,0.05-0.28,0.08c-0.08,0.03-0.16,0.07-0.22,0.11c-0.06,0.04-0.14,0.1-0.22,0.19c-0.08,0.08-0.17,0.19-0.25,0.31
		l-0.66,0.81l0.88,1.34c0.13,0.21,0.23,0.37,0.33,0.48c0.09,0.11,0.17,0.18,0.23,0.2c0.06,0.04,0.13,0.07,0.2,0.09
		c0.07,0.02,0.14,0.03,0.2,0.03L24.88,23.38L24.88,23.38z"/>
	<path class="st4" d="M31,19.34c-0.06,0-0.12,0.01-0.17,0.03s-0.1,0.06-0.14,0.12c-0.04,0.04-0.1,0.12-0.17,0.23
		c-0.07,0.11-0.15,0.25-0.23,0.42l-0.72,1.34v0.97c0,0.1,0.01,0.19,0.02,0.25c0.01,0.06,0.04,0.11,0.08,0.16
		c0.02,0.04,0.06,0.07,0.12,0.09C29.84,22.99,29.92,23,30,23h0.06v0.38h-2.03V23h0.06c0.1,0,0.19-0.01,0.25-0.03
		c0.06-0.02,0.1-0.05,0.12-0.09c0.04-0.04,0.07-0.09,0.08-0.16s0.02-0.15,0.02-0.25v-0.91l-0.84-1.62
		c-0.06-0.15-0.12-0.26-0.17-0.33s-0.1-0.13-0.14-0.17c-0.04-0.02-0.09-0.04-0.14-0.06s-0.11-0.03-0.17-0.03V19H29v0.34
		c-0.1,0-0.18,0.02-0.23,0.05c-0.05,0.03-0.08,0.08-0.08,0.14c0,0.04,0.01,0.09,0.03,0.14c0.02,0.05,0.05,0.12,0.09,0.2l0.62,1.19
		L30,19.94c0.02-0.04,0.04-0.09,0.06-0.14s0.03-0.11,0.03-0.17c0-0.08-0.03-0.15-0.09-0.2s-0.16-0.08-0.28-0.08V19H31L31,19.34
		L31,19.34z"/>
	<path class="st4" d="M4.66,19.89c-0.02-0.09-0.05-0.19-0.09-0.3c-0.04-0.08-0.09-0.16-0.16-0.23c-0.06-0.07-0.14-0.13-0.22-0.17
		c-0.1-0.06-0.2-0.11-0.3-0.14c-0.09-0.03-0.19-0.06-0.3-0.08c-0.1,0-0.23-0.01-0.38-0.02c-0.15-0.01-0.31-0.02-0.5-0.02L1.19,19
		v0.34h0.09c0.08,0,0.16,0.01,0.22,0.03s0.11,0.05,0.16,0.09c0.02,0.04,0.04,0.09,0.05,0.16c0.01,0.06,0.02,0.15,0.02,0.25v2.59
		c0,0.1-0.01,0.19-0.02,0.25c-0.01,0.06-0.03,0.11-0.05,0.16c-0.04,0.04-0.09,0.07-0.16,0.09S1.37,23,1.28,23H1.22v0.38h2.03V23
		H3.16C3.07,23,3,22.99,2.94,22.97s-0.1-0.05-0.12-0.09c-0.04-0.04-0.07-0.09-0.08-0.16s-0.02-0.15-0.02-0.25v-1.03H3
		c0.19,0,0.35-0.01,0.5-0.03c0.15-0.02,0.28-0.05,0.41-0.09c0.1-0.02,0.2-0.07,0.3-0.14s0.18-0.15,0.27-0.23h0
		c0.08-0.1,0.14-0.22,0.17-0.34c0.03-0.12,0.05-0.26,0.05-0.41C4.69,20.08,4.68,19.98,4.66,19.89z M3.59,20.55
		c-0.02,0.09-0.05,0.18-0.09,0.27c-0.06,0.08-0.14,0.14-0.23,0.17c-0.09,0.03-0.21,0.05-0.36,0.05H2.72v-1.69
		c0.13,0,0.23,0.01,0.31,0.02s0.16,0.03,0.22,0.05l0,0c0.06,0.02,0.11,0.05,0.16,0.09c0.04,0.04,0.08,0.09,0.12,0.16
		c0.04,0.08,0.07,0.17,0.08,0.27c0.01,0.09,0.02,0.19,0.02,0.3C3.62,20.34,3.61,20.45,3.59,20.55z"/>
	<path class="st4" d="M17.89,20.31c-0.09-0.27-0.23-0.52-0.42-0.75c-0.19-0.21-0.41-0.37-0.67-0.48s-0.56-0.17-0.89-0.17
		c-0.19,0-0.36,0.02-0.53,0.06s-0.33,0.11-0.5,0.22c-0.17,0.08-0.31,0.19-0.44,0.33c-0.13,0.14-0.24,0.3-0.34,0.48
		c-0.08,0.19-0.15,0.38-0.2,0.58s-0.08,0.39-0.08,0.58s0.02,0.37,0.06,0.55s0.09,0.36,0.16,0.55c0.08,0.19,0.18,0.35,0.3,0.5
		s0.26,0.27,0.42,0.38s0.35,0.18,0.55,0.23s0.41,0.08,0.64,0.08c0.31,0,0.6-0.05,0.86-0.16s0.48-0.27,0.67-0.5
		c0.19-0.21,0.33-0.45,0.42-0.72c0.09-0.27,0.14-0.55,0.14-0.84C18.03,20.88,17.98,20.58,17.89,20.31z M16.81,22.05
		c-0.04,0.24-0.1,0.43-0.19,0.58c-0.08,0.13-0.18,0.22-0.3,0.3c-0.11,0.07-0.26,0.11-0.42,0.11c-0.15,0-0.28-0.04-0.41-0.11
		c-0.12-0.07-0.22-0.18-0.28-0.33c-0.08-0.17-0.15-0.37-0.19-0.61c-0.04-0.24-0.06-0.53-0.06-0.86c0-0.31,0.02-0.58,0.06-0.81
		c0.04-0.23,0.1-0.42,0.19-0.56c0.06-0.15,0.16-0.25,0.28-0.31s0.26-0.09,0.41-0.09v0c0.17,0,0.31,0.04,0.44,0.11
		c0.13,0.07,0.23,0.18,0.31,0.33c0.06,0.17,0.11,0.36,0.16,0.59c0.04,0.23,0.06,0.5,0.06,0.81C16.88,21.52,16.85,21.81,16.81,22.05z
		"/>
	<path class="st4" d="M11.36,22.97c-0.05-0.02-0.11-0.05-0.17-0.09c-0.04-0.04-0.1-0.12-0.17-0.23c-0.07-0.11-0.17-0.28-0.3-0.48
		c-0.15-0.27-0.27-0.48-0.38-0.64c-0.1-0.16-0.19-0.26-0.25-0.3c0.25-0.08,0.44-0.22,0.56-0.41c0.13-0.19,0.19-0.41,0.19-0.66
		c0-0.1-0.01-0.2-0.03-0.3c-0.02-0.09-0.05-0.18-0.09-0.27s-0.09-0.16-0.16-0.22s-0.13-0.11-0.19-0.16
		c-0.08-0.06-0.16-0.11-0.23-0.14c-0.07-0.03-0.15-0.05-0.23-0.05c-0.06-0.02-0.16-0.04-0.28-0.05c-0.13-0.01-0.27-0.02-0.44-0.02
		H8.85L7.32,19v0.34h0.09c0.08,0,0.16,0.01,0.22,0.03c0.06,0.02,0.11,0.05,0.16,0.09c0.02,0.04,0.04,0.09,0.05,0.16
		c0.01,0.06,0.02,0.15,0.02,0.25v2.59c0,0.1-0.01,0.19-0.02,0.25s-0.03,0.11-0.05,0.16c-0.04,0.04-0.09,0.07-0.16,0.09
		C7.57,22.99,7.49,23,7.41,23H7.32v0.38h2.03V23H9.28c-0.08,0-0.16-0.01-0.22-0.03c-0.06-0.02-0.1-0.05-0.12-0.09
		c-0.04-0.04-0.07-0.09-0.08-0.16c-0.01-0.06-0.02-0.15-0.02-0.25v-1.03c0.1,0,0.19,0.01,0.25,0.02c0.06,0.01,0.11,0.02,0.16,0.02
		c0.02,0.02,0.05,0.04,0.08,0.06c0.03,0.02,0.07,0.06,0.11,0.12c0.02,0.04,0.06,0.11,0.11,0.2s0.12,0.21,0.2,0.36
		c0.13,0.31,0.24,0.56,0.34,0.75s0.19,0.32,0.25,0.41h1.16V23h0C11.46,23,11.41,22.99,11.36,22.97z M9.8,20.5
		c-0.01,0.08-0.04,0.16-0.08,0.22c-0.02,0.06-0.05,0.11-0.09,0.16c-0.04,0.04-0.09,0.07-0.16,0.09C9.43,20.99,9.35,21,9.23,21.02
		c-0.11,0.01-0.24,0.02-0.39,0.02v-1.66H9v0c0.15,0,0.27,0.02,0.38,0.05c0.1,0.03,0.19,0.08,0.25,0.14
		c0.06,0.06,0.11,0.15,0.14,0.25c0.03,0.1,0.05,0.23,0.05,0.38C9.81,20.31,9.81,20.42,9.8,20.5z"/>
</g>
</svg>
