<?xml version="1.0" encoding="utf-8"?>
<!-- Generator: Adobe Illustrator 20.1.0, SVG Export Plug-In . SVG Version: 6.00 Build 0)  -->
<svg version="1.1" id="Layer_1" xmlns="http://www.w3.org/2000/svg" xmlns:xlink="http://www.w3.org/1999/xlink" x="0px" y="0px"
	 viewBox="0 0 32 32" style="enable-background:new 0 0 32 32;" xml:space="preserve">
<style type="text/css">
	.st0{clip-path:url(#SVGID_2_);}
	.st1{fill:url(#SVGID_3_);}
	.st2{fill:url(#SVGID_4_);}
	.st3{fill:url(#SVGID_5_);}
</style>
<g>
	<defs>
		<rect id="SVGID_1_" x="0.1" y="0.1" width="31.9" height="31.9"/>
	</defs>
	<clipPath id="SVGID_2_">
		<use xlink:href="#SVGID_1_"  style="overflow:visible;"/>
	</clipPath>
	<g class="st0">
		<radialGradient id="SVGID_3_" cx="15.8013" cy="22.2446" r="26.5773" gradientUnits="userSpaceOnUse">
			<stop  offset="0" style="stop-color:#E6F1F7"/>
			<stop  offset="1" style="stop-color:#87B6D9"/>
		</radialGradient>
		<path class="st1" d="M1.83,28.14c-6.73-0.01-12.22-5.5-12.23-12.22C-10.39,9.19-4.9,3.7,1.83,3.69
			c6.61,0.01,11.98,5.2,12.22,11.77l-0.01,0.31c-0.01,0.36-0.02,0.9-0.03,1.05c0.12,1.89,0.57,3.73,1.35,5.47l0.37,0.83l0.02-0.03
			c0.2,0.39,0.41,0.76,0.64,1.13c2.9,4.68,7.9,7.48,13.4,7.48c4.93,0,9.49-2.26,12.46-6.12l-0.01,5.31l3.64,0.01V0.64h-3.61
			l-0.01,4.77l0,0v0.92C39.27,2.47,34.72,0.2,29.78,0.2c-5.15,0-9.98,2.53-12.93,6.77l-0.02,0.01l0.38,0.2
			c0.15,0.24,0.62,0.17,1.09,1.38l0.62,1.8c2.11-4.09,6.26-6.63,10.85-6.64C36.51,3.74,42,9.22,42.01,15.95
			c-0.01,6.73-5.5,12.22-12.22,12.23c-4.93-0.01-9.35-2.95-11.26-7.5c-0.53-1.26-0.84-2.6-0.93-3.98c-0.01-0.12-0.01-1.38,0-1.57
			c-0.1-1.93-0.55-3.81-1.33-5.57L15.8,8.58l0,0c-1.22-2.33-3.02-4.28-5.22-5.75l-0.14-0.09c-0.22-0.15-0.45-0.28-0.68-0.42
			L9.45,2.14C9.24,2.02,9.03,1.91,8.8,1.8C8.6,1.7,8.38,1.6,8.12,1.48L7.9,1.39C5.96,0.58,3.92,0.17,1.83,0.17
			c-4.99,0-9.7,2.41-12.65,6.38v-6.85h-3.44v44.59l0.03,0.23l0.29,0.28l3.24-0.05l-0.01-19.36c2.93,3.96,7.51,6.28,12.55,6.28
			c0.39,0,0.78-0.02,1.23-0.05 M10.18,3.13L10.18,3.13L10.18,3.13L10.18,3.13z"/>
		<g>
			<g>
				
					<radialGradient id="SVGID_4_" cx="213.3007" cy="94.8223" r="17.3234" gradientTransform="matrix(-1.142 0 0 1.142 258.6781 -86.212)" gradientUnits="userSpaceOnUse">
					<stop  offset="0" style="stop-color:#6393B2"/>
					<stop  offset="1" style="stop-color:#B0CEE3"/>
				</radialGradient>
				<path class="st2" d="M-0.2,31.54c6.1,1.03,11.98-1.77,15.33-6.59c-0.97-1.15-1.79-3.81-1.85-3.99v-0.01
					c-0.12,0.22-0.82,1.34-1.31,1.94c-0.81,0.98-2.09,2.59-3.48,3.44c-3.47,2.14-5.97,2.06-8.89,1.55c-0.06,0-0.13,0-0.19,0
					l0.2,3.66C-0.33,31.54-0.26,31.54-0.2,31.54z"/>
			</g>
		</g>
		<g>
			<g>
				
					<radialGradient id="SVGID_5_" cx="79.9875" cy="101.3794" r="17.3234" gradientTransform="matrix(1.142 0 0 -1.142 -74.4691 125.6451)" gradientUnits="userSpaceOnUse">
					<stop  offset="0" style="stop-color:#6393B2"/>
					<stop  offset="1" style="stop-color:#B0CEE3"/>
				</radialGradient>
				<path class="st3" d="M32.17,0.4c-6.1-1.03-11.98,1.77-15.33,6.59c0.72,0.79,1.6,2.76,1.85,3.99v0.01
					c0.12-0.22,0.82-1.34,1.31-1.94c0.81-0.98,2.09-2.59,3.48-3.44c3.47-2.14,5.97-2.06,8.89-1.55c0.06,0,0.13,0,0.19,0l-0.2-3.66
					C32.29,0.41,32.23,0.4,32.17,0.4z"/>
			</g>
		</g>
	</g>
</g>
</svg>
