<?xml version="1.0" encoding="UTF-8" standalone="no"?>
<svg
   width="64"
   height="64"
   fill="none"
   viewBox="0 0 64 64"
   version="1.1"
   id="svg10"
   sodipodi:docname="intellij.svg"
   inkscape:version="1.3.2 (091e20ef0f, 2023-11-25)"
   xmlns:inkscape="http://www.inkscape.org/namespaces/inkscape"
   xmlns:sodipodi="http://sodipodi.sourceforge.net/DTD/sodipodi-0.dtd"
   xmlns="http://www.w3.org/2000/svg"
   xmlns:svg="http://www.w3.org/2000/svg">
  <sodipodi:namedview
     id="namedview10"
     pagecolor="#ffffff"
     bordercolor="#000000"
     borderopacity="0.25"
     inkscape:showpageshadow="2"
     inkscape:pageopacity="0.0"
     inkscape:pagecheckerboard="0"
     inkscape:deskcolor="#d1d1d1"
     inkscape:zoom="12.578125"
     inkscape:cx="32"
     inkscape:cy="32"
     inkscape:window-width="1920"
     inkscape:window-height="1011"
     inkscape:window-x="0"
     inkscape:window-y="0"
     inkscape:window-maximized="1"
     inkscape:current-layer="svg10" />
  <defs
     id="defs4">
    <linearGradient
       id="a"
       x1="-.717383"
       x2="24.1455"
       y1="7.61946"
       y2="61.2456"
       gradientUnits="userSpaceOnUse"
       gradientTransform="matrix(0.91369371,0,0,0.91369371,2.7618099,2.7618012)">
      <stop
         offset=".1"
         stop-color="#FC801D"
         id="stop1" />
      <stop
         offset=".59"
         stop-color="#FE2857"
         id="stop2" />
    </linearGradient>
    <linearGradient
       id="b"
       x1="4.22243"
       x2="62.9273"
       y1="60.0186"
       y2="1.31316"
       gradientUnits="userSpaceOnUse"
       gradientTransform="matrix(0.91369371,0,0,0.91369371,2.7618099,2.7618012)">
      <stop
         offset=".21"
         stop-color="#FE2857"
         id="stop3" />
      <stop
         offset=".7"
         stop-color="#007EFF"
         id="stop4" />
    </linearGradient>
  </defs>
  <path
     fill="#ff8100"
     d="m 17.333032,8.0762185 -10.8505243,0.00159 c -2.0551804,0 -3.7206978,1.6660474 -3.7206978,3.7212275 v 10.513526 c 0,1.086108 0.4747223,2.118399 1.2992359,2.825507 L 38.928365,55.024807 c 0.674672,0.57782 1.533727,0.895694 2.42202,0.895694 h 10.850569 c 2.055172,0 3.721201,-1.666029 3.721201,-3.7212 V 41.68424 c 0,-1.086108 -0.474664,-2.118491 -1.299181,-2.825507 L 19.755599,8.9724972 C 19.081019,8.3941108 18.221873,8.0767484 17.333032,8.0767484 Z"
     id="path4"
     style="stroke-width:0.913694" />
  <path
     fill="url(#a)"
     d="M 16.028003,8.0762185 H 6.4830377 c -2.0551804,0 -3.7212278,1.6660382 -3.7212278,3.7212185 v 11.96269 c 0,0.175978 0.012759,0.351955 0.037212,0.526288 l 4.8216467,33.755226 c 0.2620747,1.833509 1.831901,3.194913 3.6840134,3.194913 h 14.320303 c 2.055719,0 3.721748,-1.666577 3.721292,-3.722297 l -0.0043,-16.938419 c 0,-0.399833 -0.06432,-0.796924 -0.19087,-1.175924 L 19.557785,10.620472 C 19.051233,9.1011453 17.62916,8.0762185 16.027455,8.0762185 Z"
     id="path5"
     style="fill:url(#a);stroke-width:0.913694" />
  <path
     fill="url(#b)"
     d="M 57.51719,2.7618012 H 26.480568 c -1.488499,0 -2.834004,0.887246 -3.420413,2.2550601 L 8.3788973,39.271814 c -0.1982898,0.46306 -0.3008885,0.962211 -0.3008885,1.466113 v 16.779071 c 0,2.055172 1.6660474,3.721201 3.7212282,3.721201 h 16.41543 c 0.735158,0 1.453869,-0.217916 2.06577,-0.626246 l 29.30097,-19.556061 c 1.034484,-0.690021 1.655338,-1.8516 1.655338,-3.095046 l 0.0016,-31.477817 c 0,-2.0551804 -1.666029,-3.7212278 -3.7212,-3.7212278 z"
     id="path6"
     style="fill:url(#b);stroke-width:0.913694" />
  <path
     fill="#000000"
     d="M 50.273883,13.726126 H 13.726134 v 36.547748 h 36.547749 z"
     id="path7"
     style="stroke-width:0.913694" />
  <path
     fill="#ffffff"
     d="m 18.294603,29.611239 h 2.721711 v -8.927884 h -2.721711 v -2.388761 h 8.076139 v 2.388761 h -2.721711 v 8.927884 h 2.721711 V 32 h -8.076139 z"
     id="path8"
     style="stroke-width:0.913694" />
  <path
     fill="#ffffff"
     d="m 27.741191,29.53321 h 1.967913 c 0.397823,0 0.752244,-0.08479 1.062169,-0.254373 0.309925,-0.169673 0.549678,-0.409426 0.71926,-0.719351 0.169673,-0.309925 0.254464,-0.663798 0.254464,-1.062169 v -9.202723 h 2.672462 v 9.38802 c 0,0.822416 -0.1895,1.561686 -0.567952,2.217626 -0.378543,0.655941 -0.900445,1.169985 -1.566345,1.541676 C 31.617262,31.814155 30.870226,32 30.041506,32 h -2.300315 z"
     id="path9"
     style="stroke-width:0.913694" />
  <path
     fill="#ffffff"
     d="m 18.294603,42.964325 h 14.619099 v 2.741081 H 18.294603 Z"
     id="path10"
     style="stroke-width:0.913694" />
</svg>
