<?xml version="1.0" encoding="utf-8"?>
<!-- Generator: Adobe Illustrator 20.1.0, SVG Export Plug-In . SVG Version: 6.00 Build 0)  -->
<svg version="1.1" id="Layer_1" xmlns="http://www.w3.org/2000/svg" xmlns:xlink="http://www.w3.org/1999/xlink" x="0px" y="0px"
	 viewBox="0 0 32 32" style="enable-background:new 0 0 32 32;" xml:space="preserve">
<path d="M2.66,14.62l-0.78-1.66H1.31v1.66H0V9.75h2.19c0.15,0,0.28,0.01,0.41,0.02C2.72,9.78,2.84,9.8,2.97,9.84
	c0.1,0.02,0.21,0.06,0.31,0.11c0.1,0.05,0.2,0.11,0.28,0.17c0.08,0.06,0.16,0.13,0.22,0.2c0.06,0.07,0.12,0.16,0.16,0.27
	c0.04,0.1,0.08,0.22,0.11,0.34s0.05,0.26,0.05,0.41c0,0.19-0.02,0.35-0.06,0.5c-0.04,0.15-0.1,0.28-0.19,0.41
	c-0.08,0.1-0.18,0.2-0.28,0.3s-0.23,0.16-0.38,0.2l1,1.88H2.66L2.66,14.62z M2.59,11c-0.04-0.04-0.1-0.08-0.17-0.11
	c-0.07-0.03-0.16-0.05-0.27-0.05H1.31v1.06h0.81c0.1,0,0.2-0.01,0.28-0.03s0.15-0.05,0.19-0.09c0.04-0.04,0.08-0.1,0.11-0.17
	c0.03-0.07,0.05-0.15,0.05-0.23s-0.02-0.16-0.05-0.22C2.67,11.09,2.63,11.04,2.59,11L2.59,11L2.59,11z M5.19,14.62V9.75h3.75v1.12
	H6.53v0.66h1.44v1.12H6.53v0.84h2.44v1.12H5.19L5.19,14.62z M14.09,13.31c-0.06,0.17-0.14,0.31-0.22,0.44s-0.18,0.24-0.28,0.34
	c-0.1,0.08-0.23,0.16-0.38,0.23c-0.15,0.07-0.29,0.13-0.44,0.17c-0.17,0.04-0.34,0.07-0.53,0.09c-0.19,0.02-0.4,0.03-0.62,0.03
	h-1.56V9.75h1.69c0.19,0,0.37,0.01,0.55,0.03c0.18,0.02,0.34,0.05,0.48,0.09c0.17,0.04,0.31,0.09,0.44,0.16
	c0.13,0.06,0.25,0.15,0.38,0.25c0.1,0.08,0.2,0.19,0.28,0.31s0.16,0.26,0.22,0.41c0.06,0.17,0.1,0.34,0.12,0.53
	c0.02,0.19,0.03,0.4,0.03,0.62c0,0.23-0.01,0.44-0.03,0.64C14.2,13,14.16,13.17,14.09,13.31L14.09,13.31L14.09,13.31z M12.81,11.59
	c-0.02-0.08-0.05-0.16-0.08-0.22c-0.03-0.06-0.07-0.11-0.11-0.16c-0.04-0.06-0.09-0.11-0.16-0.14c-0.06-0.03-0.12-0.07-0.19-0.11
	c-0.08-0.02-0.17-0.04-0.25-0.05c-0.08-0.01-0.18-0.02-0.28-0.02h-0.34v2.56h0.31c0.1,0,0.2-0.01,0.28-0.02
	c0.08-0.01,0.17-0.03,0.25-0.05c0.06-0.02,0.13-0.05,0.19-0.09s0.11-0.08,0.16-0.12c0.06-0.04,0.11-0.1,0.14-0.17
	c0.03-0.07,0.06-0.15,0.08-0.23c0.02-0.08,0.04-0.17,0.05-0.27c0.01-0.09,0.02-0.2,0.02-0.33s-0.01-0.23-0.02-0.33
	C12.85,11.77,12.83,11.68,12.81,11.59L12.81,11.59L12.81,11.59z M20.69,14.62v-1.94h-1.5v1.94h-1.41V9.75h1.41v1.78h1.5V9.75h1.38
	v4.88H20.69z M26.41,14.62l-0.25-0.84h-1.47l-0.25,0.84h-1.47l1.78-4.88h1.34l1.78,4.88H26.41L26.41,14.62z M25.72,12.38
	c-0.02-0.08-0.04-0.16-0.05-0.22c-0.01-0.06-0.03-0.13-0.05-0.19c-0.02-0.06-0.04-0.12-0.05-0.17c-0.01-0.05-0.03-0.1-0.05-0.14
	c-0.02-0.04-0.04-0.08-0.05-0.12c-0.01-0.04-0.02-0.08-0.02-0.12c0-0.04-0.01-0.08-0.02-0.12c-0.01-0.04-0.03-0.08-0.05-0.12
	c0,0.04-0.01,0.08-0.02,0.12c-0.01,0.04-0.02,0.08-0.02,0.12c-0.02,0.04-0.04,0.08-0.05,0.12c-0.01,0.04-0.02,0.08-0.02,0.12
	c-0.02,0.04-0.04,0.09-0.05,0.14s-0.03,0.11-0.05,0.17l-0.06,0.19c0,0-0.02,0.07-0.06,0.22L25,12.69h0.81L25.72,12.38L25.72,12.38z
	 M30.62,10.94v3.69h-1.34v-3.69h-1.38V9.75H32v1.19H30.62z M7.97,21.03c-0.04,0.15-0.09,0.27-0.16,0.38s-0.13,0.2-0.22,0.28
	c-0.08,0.08-0.18,0.16-0.28,0.23s-0.22,0.13-0.34,0.17c-0.13,0.06-0.27,0.1-0.42,0.12c-0.16,0.02-0.32,0.03-0.48,0.03
	s-0.32-0.01-0.45-0.03c-0.14-0.02-0.27-0.05-0.39-0.09c-0.13-0.04-0.24-0.09-0.34-0.14c-0.1-0.05-0.2-0.12-0.28-0.2
	c-0.08-0.06-0.16-0.14-0.22-0.23c-0.06-0.09-0.13-0.19-0.19-0.3s-0.11-0.21-0.16-0.33c-0.04-0.11-0.07-0.23-0.09-0.36l1.31-0.34
	c0.04,0.13,0.09,0.25,0.14,0.36c0.05,0.11,0.11,0.2,0.17,0.27S5.7,20.96,5.78,21c0.08,0.04,0.19,0.06,0.31,0.06
	c0.1,0,0.2-0.02,0.28-0.06s0.15-0.09,0.19-0.16c0.06-0.06,0.1-0.14,0.12-0.23c0.02-0.09,0.03-0.2,0.03-0.33v-3h1.37v2.91
	c0,0.17-0.01,0.32-0.03,0.45S8.01,20.91,7.97,21.03L7.97,21.03L7.97,21.03z M13,21.75c-0.15,0.15-0.33,0.25-0.56,0.31
	s-0.5,0.09-0.81,0.09H9.28v-4.88h2.34c0.31,0,0.58,0.03,0.8,0.09c0.22,0.06,0.39,0.15,0.52,0.25c0.15,0.1,0.25,0.23,0.31,0.39
	c0.06,0.16,0.09,0.34,0.09,0.55c0,0.13-0.02,0.24-0.05,0.34c-0.03,0.1-0.08,0.19-0.14,0.25c-0.04,0.08-0.1,0.15-0.17,0.2
	c-0.07,0.05-0.15,0.11-0.23,0.17c0.13,0.04,0.23,0.09,0.31,0.16s0.16,0.14,0.22,0.22c0.06,0.1,0.11,0.21,0.14,0.31
	c0.03,0.1,0.05,0.23,0.05,0.38c0,0.25-0.04,0.47-0.12,0.67C13.26,21.47,13.15,21.63,13,21.75L13,21.75L13,21.75z M11.94,18.47
	c-0.04-0.04-0.09-0.07-0.14-0.08c-0.05-0.01-0.12-0.02-0.2-0.02h-1.03v0.75h1.03c0.08,0,0.15-0.01,0.2-0.02
	c0.05-0.01,0.1-0.04,0.14-0.08L12,18.91c0,0,0.01-0.05,0.03-0.16c0.02-0.1,0.01-0.16-0.03-0.16L11.94,18.47z M12,20.28
	c-0.04-0.04-0.09-0.07-0.14-0.09s-0.12-0.03-0.2-0.03h-1.09v0.94h1.09c0.08,0,0.15-0.01,0.2-0.03s0.1-0.05,0.14-0.09
	s0.07-0.09,0.09-0.16c0.02-0.06,0.03-0.12,0.03-0.19s-0.01-0.13-0.03-0.19C12.07,20.38,12.04,20.32,12,20.28L12,20.28z M18.59,20.81
	c-0.06,0.15-0.14,0.29-0.22,0.42c-0.08,0.14-0.17,0.25-0.25,0.36c-0.1,0.1-0.22,0.2-0.34,0.28c-0.13,0.08-0.25,0.16-0.38,0.22
	c-0.15,0.04-0.3,0.08-0.45,0.11c-0.16,0.03-0.32,0.05-0.48,0.05c-0.15,0-0.3-0.02-0.45-0.05c-0.16-0.03-0.31-0.07-0.45-0.11
	c-0.13-0.06-0.25-0.14-0.38-0.22c-0.12-0.08-0.23-0.18-0.31-0.28c-0.1-0.1-0.2-0.22-0.28-0.34c-0.08-0.13-0.15-0.27-0.19-0.44
	c-0.06-0.15-0.11-0.31-0.14-0.5s-0.05-0.38-0.05-0.56c0-0.21,0.02-0.4,0.05-0.58s0.08-0.35,0.14-0.52c0.04-0.15,0.1-0.29,0.19-0.42
	c0.08-0.14,0.18-0.26,0.28-0.36s0.21-0.2,0.33-0.28c0.11-0.08,0.24-0.16,0.39-0.22c0.13-0.04,0.27-0.08,0.42-0.11
	c0.16-0.03,0.32-0.05,0.48-0.05c0.17,0,0.32,0.01,0.47,0.05s0.29,0.07,0.44,0.11c0.15,0.06,0.28,0.14,0.39,0.22
	c0.11,0.08,0.22,0.18,0.33,0.28c0.08,0.1,0.17,0.22,0.25,0.34c0.08,0.13,0.16,0.27,0.22,0.44c0.04,0.15,0.08,0.31,0.11,0.5
	c0.03,0.19,0.05,0.38,0.05,0.56c0,0.21-0.02,0.4-0.05,0.58S18.64,20.65,18.59,20.81L18.59,20.81L18.59,20.81z M17.12,18.75
	c-0.08-0.13-0.18-0.21-0.28-0.27c-0.1-0.05-0.23-0.08-0.38-0.08c-0.13,0-0.24,0.03-0.34,0.08c-0.1,0.05-0.2,0.13-0.28,0.23
	c-0.06,0.13-0.11,0.27-0.16,0.44s-0.06,0.35-0.06,0.56c0,0.23,0.02,0.43,0.06,0.59c0.04,0.17,0.1,0.3,0.19,0.41
	c0.06,0.13,0.15,0.21,0.25,0.27c0.1,0.05,0.23,0.08,0.38,0.08c0.13,0,0.25-0.03,0.36-0.08c0.11-0.05,0.2-0.13,0.27-0.23
	c0.08-0.13,0.14-0.27,0.17-0.44s0.05-0.35,0.05-0.56c0-0.23-0.02-0.43-0.06-0.59C17.24,18.99,17.19,18.85,17.12,18.75L17.12,18.75z
	 M23.38,21.38c-0.06,0.1-0.13,0.2-0.19,0.28c-0.06,0.08-0.15,0.16-0.25,0.22c-0.08,0.06-0.18,0.12-0.28,0.17s-0.22,0.09-0.34,0.11
	c-0.13,0.02-0.26,0.04-0.39,0.06c-0.14,0.02-0.28,0.03-0.42,0.03c-0.19,0-0.38-0.02-0.56-0.05c-0.19-0.03-0.38-0.08-0.56-0.14
	c-0.19-0.04-0.35-0.1-0.5-0.17c-0.15-0.07-0.29-0.15-0.44-0.23l0.66-1.06c0.04,0.04,0.09,0.07,0.14,0.09
	c0.05,0.02,0.11,0.05,0.17,0.09c0.06,0.02,0.13,0.05,0.19,0.08c0.06,0.03,0.13,0.06,0.19,0.08L20.97,21c0,0,0.06,0.01,0.19,0.03
	c0.08,0.02,0.15,0.04,0.2,0.05c0.05,0.01,0.11,0.02,0.17,0.02c0.13,0,0.23-0.01,0.31-0.02c0.08-0.01,0.15-0.04,0.19-0.08
	c0.04-0.02,0.07-0.05,0.09-0.09s0.03-0.08,0.03-0.12v-0.06c0,0-0.01-0.02-0.03-0.06L22,20.53c-0.04-0.02-0.08-0.04-0.12-0.05
	s-0.08-0.03-0.12-0.05l-0.19-0.06c0,0-0.07-0.02-0.22-0.06c-0.15-0.02-0.28-0.05-0.41-0.09l-0.38-0.12c-0.1-0.04-0.2-0.08-0.3-0.12
	c-0.09-0.04-0.17-0.09-0.23-0.16c-0.08-0.06-0.15-0.13-0.2-0.2c-0.05-0.07-0.09-0.15-0.11-0.23c-0.04-0.08-0.07-0.18-0.09-0.28
	c-0.02-0.1-0.03-0.22-0.03-0.34c0-0.1,0.01-0.21,0.03-0.31c0.02-0.1,0.05-0.21,0.09-0.31l0.19-0.25c0,0,0.07-0.07,0.22-0.22
	c0.08-0.08,0.17-0.15,0.27-0.2s0.2-0.09,0.33-0.11c0.13-0.04,0.26-0.07,0.39-0.09s0.28-0.03,0.42-0.03c0.21,0,0.4,0.01,0.58,0.03
	s0.34,0.06,0.48,0.12c0.17,0.04,0.32,0.1,0.47,0.17s0.28,0.15,0.41,0.23l-0.66,1.06c-0.1-0.08-0.21-0.15-0.33-0.2
	c-0.11-0.05-0.22-0.1-0.33-0.14s-0.22-0.07-0.34-0.09c-0.13-0.02-0.25-0.03-0.38-0.03c-0.1,0-0.19,0.01-0.25,0.03
	c-0.06,0.02-0.11,0.04-0.16,0.06c-0.02,0.02-0.04,0.05-0.06,0.09c-0.02,0.04-0.03,0.08-0.03,0.12c0,0.02,0.01,0.04,0.02,0.06
	c0.01,0.02,0.03,0.04,0.05,0.06c0,0.02,0.01,0.04,0.03,0.05l0.09,0.05c0.02,0.02,0.05,0.04,0.09,0.05s0.08,0.03,0.12,0.05
	c0.06,0,0.13,0.01,0.19,0.03c0.06,0.02,0.14,0.04,0.22,0.06c0.15,0.04,0.29,0.08,0.42,0.12c0.14,0.04,0.26,0.08,0.36,0.12
	c0.13,0.04,0.23,0.09,0.31,0.14c0.08,0.05,0.17,0.11,0.25,0.17c0.06,0.06,0.13,0.13,0.19,0.2s0.1,0.15,0.12,0.23
	c0.04,0.08,0.07,0.17,0.09,0.27c0.02,0.09,0.03,0.2,0.03,0.33s-0.02,0.25-0.05,0.38C23.46,21.19,23.42,21.29,23.38,21.38
	L23.38,21.38L23.38,21.38z M28.19,21.38c-0.04,0.1-0.1,0.2-0.17,0.28c-0.07,0.08-0.15,0.16-0.23,0.22S27.61,22,27.5,22.05
	s-0.22,0.09-0.34,0.11c-0.13,0.02-0.26,0.04-0.39,0.06c-0.14,0.02-0.28,0.03-0.42,0.03c-0.21,0-0.41-0.02-0.59-0.05
	c-0.19-0.03-0.36-0.08-0.53-0.14c-0.19-0.04-0.36-0.1-0.52-0.17c-0.16-0.07-0.3-0.15-0.42-0.23l0.66-1.06
	c0.04,0.04,0.09,0.07,0.14,0.09c0.05,0.02,0.11,0.05,0.17,0.09c0.06,0.02,0.13,0.05,0.19,0.08c0.06,0.03,0.13,0.06,0.19,0.08
	L25.81,21c0,0,0.06,0.01,0.19,0.03c0.06,0.02,0.13,0.04,0.19,0.05c0.06,0.01,0.13,0.02,0.19,0.02c0.1,0,0.2-0.01,0.28-0.02
	c0.08-0.01,0.16-0.04,0.22-0.08c0.04-0.02,0.07-0.05,0.09-0.09S27,20.82,27,20.78c0-0.02-0.01-0.04-0.02-0.06s-0.02-0.04-0.02-0.06
	l-0.12-0.12c-0.04-0.02-0.08-0.04-0.12-0.05c-0.04-0.01-0.09-0.03-0.16-0.05c-0.04-0.02-0.1-0.04-0.17-0.06
	c-0.07-0.02-0.15-0.04-0.23-0.06c-0.15-0.02-0.28-0.05-0.41-0.09c-0.12-0.04-0.24-0.08-0.34-0.12c-0.1-0.04-0.2-0.08-0.3-0.12
	s-0.17-0.09-0.23-0.16c-0.08-0.06-0.15-0.13-0.2-0.2s-0.1-0.15-0.14-0.23c-0.04-0.08-0.07-0.18-0.08-0.28s-0.02-0.22-0.02-0.34
	c0-0.1,0.01-0.21,0.03-0.31c0.02-0.1,0.05-0.21,0.09-0.31c0.04-0.08,0.09-0.17,0.16-0.25c0.06-0.08,0.14-0.16,0.22-0.22
	c0.08-0.08,0.18-0.15,0.28-0.2s0.22-0.09,0.34-0.11c0.13-0.04,0.25-0.07,0.38-0.09s0.26-0.03,0.41-0.03c0.21,0,0.41,0.01,0.59,0.03
	s0.35,0.06,0.5,0.12c0.17,0.04,0.32,0.1,0.45,0.17c0.14,0.07,0.27,0.15,0.39,0.23l-0.66,1.06c-0.1-0.08-0.21-0.15-0.31-0.2
	c-0.1-0.05-0.21-0.1-0.31-0.14c-0.13-0.04-0.24-0.07-0.36-0.09c-0.11-0.02-0.23-0.03-0.36-0.03c-0.1,0-0.19,0.01-0.25,0.03
	c-0.06,0.02-0.11,0.04-0.16,0.06c-0.02,0.02-0.04,0.05-0.06,0.09c-0.02,0.04-0.03,0.08-0.03,0.12c0,0.02,0.01,0.04,0.02,0.06
	c0.01,0.02,0.02,0.04,0.02,0.06c0.02,0.02,0.04,0.04,0.06,0.05s0.04,0.03,0.06,0.05c0.04,0.02,0.08,0.04,0.12,0.05
	c0.04,0.01,0.08,0.03,0.12,0.05c0.06,0,0.13,0.01,0.19,0.03c0.06,0.02,0.14,0.04,0.22,0.06c0.15,0.04,0.29,0.08,0.42,0.12
	c0.14,0.04,0.26,0.08,0.36,0.12s0.2,0.09,0.3,0.14c0.09,0.05,0.18,0.11,0.27,0.17c0.06,0.06,0.12,0.13,0.17,0.2
	c0.05,0.07,0.1,0.15,0.14,0.23c0.04,0.08,0.07,0.17,0.08,0.27s0.02,0.2,0.02,0.33s-0.01,0.25-0.03,0.38S28.26,21.29,28.19,21.38
	L28.19,21.38L28.19,21.38z"/>
</svg>
