<?xml version="1.0" encoding="utf-8"?>
<!-- Generator: Adobe Illustrator 20.1.0, SVG Export Plug-In . SVG Version: 6.00 Build 0)  -->
<svg version="1.1" id="Layer_1" xmlns="http://www.w3.org/2000/svg" xmlns:xlink="http://www.w3.org/1999/xlink" x="0px" y="0px"
	 viewBox="0 0 32 32" style="enable-background:new 0 0 32 32;" xml:space="preserve">
<style type="text/css">
	.st0{fill:#FC390E;}
</style>
<g>
	<path class="st0" d="M10.33,13.34l-0.19,0.84H9.43l-0.18,0.76h0.71l-0.42,1.82c-0.11,0.47-0.02,1.3,0.96,1.3h2.37l0.19-0.83
		c-1.65,0-1.65,0-1.53-0.52l0.41-1.77h1.5h0.15h0.56l-0.42,1.82c-0.11,0.47-0.02,1.3,0.96,1.3h2.37l0.19-0.83
		c-1.65,0-1.65,0-1.53-0.52l0.41-1.77h1.65l0.18-0.76h-1.65l0.19-0.84h-1.98l-0.19,0.84h-0.56h-0.15h-1.5l0.19-0.84H10.33z
		 M1.64,14.19l-0.97,4.21c-0.06,0.17-0.15,0.16-0.34,0.17L0.3,19.52l1.62-0.01c0.31-0.02,0.51-0.2,0.64-0.63l1.08-4.7H1.64z
		 M1.97,12.76l-0.25,1.07h2l0.25-1.07H1.97z M4.83,14.19c-0.35,0-0.74,0.3-0.83,0.76l-0.38,1.57c-0.22,0.97-0.11,1.55,0.62,1.55h4.1
		l0.19-0.83H5.46l0.16-0.72h3.07c0.05-0.21,0.25-0.52,0.36-1.57c0.03-0.13-0.18-0.76-0.98-0.76H4.83z M6.48,14.95
		c0.43,0,0.55,0.13,0.41,0.73H5.82C5.95,15.1,6.13,14.95,6.48,14.95z M18.27,14.19l-0.7,3.05c0,0-0.19,0.83,0.98,0.83h1.99
		c-0.1,0.43-0.15,0.64-1.3,0.64h-2l-0.18,0.77h3.15c1.45,0,1.98,0,2.16-0.77l1.04-4.52h-1.98l-0.7,3.05h-1.15l0.7-3.05H18.27z
		 M24.17,14.19l-0.34,1.49h2.01l0.34-1.49H24.17z M23.62,16.58l-0.34,1.49h2.01l0.34-1.49H23.62z M28.3,12.76l-2.77,5.94h1.01
		l2.77-5.94H28.3z M30.54,12.76l-2.77,5.94h1.01l2.77-5.94H30.54z"/>
	<path d="M0.3,19.82l-0.22-0.09L0,19.51l0.02-0.96c0-0.16,0.13-0.29,0.29-0.3l0.04,0l0.03,0l0.96-4.14l0.1-0.16l-0.02-0.19
		l0.25-1.07c0.03-0.14,0.15-0.24,0.3-0.24h2c0.09,0,0.18,0.04,0.24,0.11c0.06,0.07,0.08,0.17,0.06,0.26l-0.25,1.07l-0.1,0.16
		l0.02,0.19L3.91,14.4c0.23-0.33,0.6-0.52,0.93-0.52h3.24c0.42,0,0.77,0.15,1.01,0.42l0.04-0.18c0.03-0.14,0.15-0.24,0.3-0.24H9.9
		l0.14-0.61c0.03-0.14,0.15-0.24,0.3-0.24h1.98c0.09,0,0.18,0.04,0.24,0.11c0.06,0.07,0.08,0.17,0.06,0.26l-0.11,0.47h1.59
		l0.14-0.61c0.03-0.14,0.15-0.24,0.3-0.24h1.98c0.09,0,0.18,0.04,0.24,0.11c0.06,0.07,0.08,0.17,0.06,0.26l-0.11,0.47h1.26
		l0.15,0.04l0.15-0.04h2c0.09,0,0.18,0.04,0.24,0.11c0.06,0.07,0.08,0.17,0.06,0.26l-0.62,2.68h0.53l0.65-2.81
		c0.03-0.14,0.15-0.24,0.3-0.24h1.98c0.09,0,0.18,0.04,0.24,0.11c0.06,0.07,0.08,0.17,0.06,0.26l-1.04,4.52
		c-0.23,1.01-0.97,1.01-2.45,1.01h-3.15c-0.09,0-0.18-0.04-0.24-0.11c-0.06-0.07-0.08-0.17-0.06-0.26l0.18-0.77
		c0.03-0.14,0.15-0.24,0.3-0.24h2c0.29,0,0.49-0.01,0.63-0.03h-1.31c-0.51,0-0.87-0.14-1.09-0.42l-0.03-0.05l-0.05,0.23
		c-0.03,0.14-0.15,0.24-0.3,0.24h-2.37c-0.56,0-0.87-0.24-1.03-0.44c-0.29-0.37-0.31-0.88-0.22-1.24l0.33-1.45h-1.59l-0.35,1.53
		l-0.03,0.12c0.2,0.03,0.67,0.03,1.26,0.03c0.09,0,0.18,0.04,0.24,0.11c0.06,0.07,0.08,0.17,0.06,0.26l-0.19,0.83
		c-0.03,0.14-0.15,0.24-0.3,0.24H10.5c-0.56,0-0.87-0.24-1.03-0.44c-0.29-0.37-0.31-0.88-0.22-1.24l0.33-1.45H9.32
		c-0.09,0.65-0.21,0.98-0.29,1.19l-0.05,0.15c-0.03,0.14-0.15,0.24-0.3,0.24H5.86l-0.03,0.11h2.69c0.09,0,0.18,0.04,0.24,0.11
		c0.06,0.07,0.08,0.17,0.06,0.26l-0.19,0.83c-0.03,0.14-0.15,0.24-0.3,0.24h-4.1c-0.36,0-0.63-0.11-0.8-0.34
		c-0.13-0.16-0.2-0.37-0.22-0.64l-0.36,1.56c-0.06,0.22-0.24,0.83-0.92,0.87L0.3,19.82L0.3,19.82z M0.62,18.83l-0.01,0.38l1.3,0
		c0.09-0.01,0.23-0.01,0.35-0.42l0.99-4.31H1.88l-0.92,3.97l-0.01,0.03C0.88,18.71,0.76,18.79,0.62,18.83z M17.43,19.17h2.77
		c1.52,0,1.74-0.03,1.86-0.54l0.96-4.14h-1.35l-0.65,2.81c-0.03,0.14-0.15,0.24-0.3,0.24h-1.15c-0.09,0-0.18-0.04-0.24-0.11
		c-0.06-0.07-0.08-0.17-0.06-0.26l0.62-2.68h-1.38l-0.65,2.81c0,0-0.03,0.16,0.07,0.28c0.1,0.12,0.31,0.18,0.61,0.18h1.99
		c0.09,0,0.18,0.04,0.24,0.11c0.06,0.07,0.08,0.17,0.06,0.26c-0.15,0.65-0.4,0.87-1.6,0.87h-1.76L17.43,19.17z M11.95,14.64h2.21
		c0.09,0,0.18,0.04,0.24,0.11c0.06,0.07,0.08,0.17,0.06,0.26l-0.42,1.82c-0.05,0.21-0.05,0.52,0.11,0.72
		c0.11,0.14,0.3,0.21,0.56,0.21h2.13l0.05-0.23c-0.96,0-1.22-0.03-1.39-0.25c-0.15-0.19-0.1-0.41-0.05-0.64l0.41-1.77
		c0.03-0.14,0.15-0.24,0.3-0.24h1.4l0.04-0.16h-1.26c-0.09,0-0.18-0.04-0.24-0.11c-0.06-0.07-0.08-0.17-0.06-0.26l0.11-0.47h-1.36
		l-0.14,0.61c-0.03,0.14-0.15,0.24-0.3,0.24h-2.21c-0.09,0-0.18-0.04-0.24-0.11c-0.06-0.07-0.08-0.17-0.06-0.26l0.11-0.47h-1.36
		l-0.14,0.61c-0.03,0.14-0.15,0.24-0.3,0.24H9.67l-0.04,0.16h0.33c0.09,0,0.18,0.04,0.24,0.11c0.06,0.07,0.08,0.17,0.06,0.26
		l-0.42,1.82c-0.05,0.21-0.05,0.52,0.11,0.72c0.11,0.14,0.3,0.21,0.56,0.21h2.13l0.05-0.23c-0.96,0-1.22-0.03-1.39-0.25
		c-0.15-0.19-0.1-0.41-0.05-0.64l0.41-1.77C11.68,14.74,11.81,14.64,11.95,14.64z M4.83,14.49c-0.18,0-0.47,0.18-0.53,0.51
		l-0.39,1.59c-0.17,0.72-0.07,0.98,0,1.06c0.02,0.03,0.09,0.11,0.33,0.11h3.86l0.05-0.22H5.46c-0.09,0-0.18-0.04-0.24-0.11
		c-0.06-0.07-0.08-0.17-0.06-0.26l0.17-0.72c0.03-0.14,0.15-0.24,0.3-0.24h2.85c0.08-0.21,0.2-0.56,0.28-1.3
		c-0.01-0.05-0.13-0.43-0.68-0.43H4.83z M16,16.9c0.2,0.03,0.67,0.03,1.26,0.03l0.06,0.01l0.39-1.69h-1.33l-0.35,1.53L16,16.9z
		 M8.76,14.88L8.76,14.88L8.76,14.88z M2.1,13.54h1.38l0.11-0.47H2.21L2.1,13.54z M28.79,19h-1.01c-0.1,0-0.2-0.05-0.26-0.14
		s-0.06-0.2-0.02-0.29l2.77-5.94c0.05-0.11,0.16-0.18,0.27-0.18h1.01c0.1,0,0.2,0.05,0.26,0.14c0.06,0.09,0.06,0.2,0.02,0.29
		l-2.77,5.94C29.01,18.94,28.91,19,28.79,19z M28.25,18.4h0.34l2.49-5.33h-0.34L28.25,18.4z M26.55,19h-1.01
		c-0.1,0-0.2-0.05-0.26-0.14c-0.06-0.09-0.06-0.2-0.02-0.29l0.1-0.21l-0.07,0.01h-2.01c-0.09,0-0.18-0.04-0.24-0.11
		c-0.06-0.07-0.08-0.17-0.06-0.26l0.34-1.49c0.03-0.14,0.15-0.24,0.3-0.24h2.01c0.09,0,0.18,0.04,0.24,0.11
		c0.06,0.07,0.08,0.17,0.06,0.26l-0.23,0.99l2.33-4.99c0.05-0.11,0.16-0.18,0.27-0.18h1.01c0.1,0,0.2,0.05,0.26,0.14
		c0.06,0.09,0.06,0.2,0.02,0.29l-2.77,5.94C26.77,18.94,26.67,19,26.55,19z M26.01,18.4h0.34l2.49-5.33H28.5L26.01,18.4z
		 M23.66,17.76h1.39l0.2-0.88h-1.39L23.66,17.76z M25.84,15.98h-2.01c-0.09,0-0.18-0.04-0.24-0.11c-0.06-0.07-0.08-0.17-0.06-0.26
		l0.34-1.49c0.03-0.14,0.15-0.24,0.3-0.24h2.01c0.09,0,0.18,0.04,0.24,0.11c0.06,0.07,0.08,0.17,0.06,0.26l-0.34,1.49
		C26.1,15.88,25.98,15.98,25.84,15.98z M24.21,15.37h1.39l0.2-0.88h-1.39L24.21,15.37z M6.89,15.98H5.82
		c-0.09,0-0.18-0.04-0.24-0.11c-0.06-0.07-0.08-0.17-0.06-0.26c0.12-0.5,0.31-0.96,0.96-0.96c0.21,0,0.48,0.03,0.64,0.23
		c0.18,0.23,0.14,0.55,0.07,0.87C7.16,15.88,7.03,15.98,6.89,15.98z M6.24,15.37h0.4l0-0.11l-0.16-0.01
		C6.38,15.25,6.31,15.25,6.24,15.37z"/>
	<path class="st0" d="M10.33,13.34l-0.19,0.84H9.43l-0.18,0.76h0.71l-0.42,1.82c-0.11,0.47-0.02,1.3,0.96,1.3h2.37l0.19-0.83
		c-1.65,0-1.65,0-1.53-0.52l0.41-1.77h1.5h0.15h0.56l-0.42,1.82c-0.11,0.47-0.02,1.3,0.96,1.3h2.37l0.19-0.83
		c-1.65,0-1.65,0-1.53-0.52l0.41-1.77h1.65l0.18-0.76h-1.65l0.19-0.84h-1.98l-0.19,0.84h-0.56h-0.15h-1.5l0.19-0.84H10.33z
		 M1.64,14.19l-0.97,4.21c-0.06,0.17-0.15,0.16-0.34,0.17L0.3,19.52l1.62-0.01c0.31-0.02,0.51-0.2,0.64-0.63l1.08-4.7H1.64z
		 M1.97,12.76l-0.25,1.07h2l0.25-1.07H1.97z M4.83,14.19c-0.35,0-0.74,0.3-0.83,0.76l-0.38,1.57c-0.22,0.97-0.11,1.55,0.62,1.55h4.1
		l0.19-0.83H5.46l0.16-0.72h3.07c0.05-0.21,0.25-0.52,0.36-1.57c0.03-0.13-0.18-0.76-0.98-0.76H4.83z M6.48,14.95
		c0.43,0,0.55,0.13,0.41,0.73H5.82C5.95,15.1,6.13,14.95,6.48,14.95z M18.27,14.19l-0.7,3.05c0,0-0.19,0.83,0.98,0.83h1.99
		c-0.1,0.43-0.15,0.64-1.3,0.64h-2l-0.18,0.77h3.15c1.45,0,1.98,0,2.16-0.77l1.04-4.52h-1.98l-0.7,3.05h-1.15l0.7-3.05H18.27z
		 M24.17,14.19l-0.34,1.49h2.01l0.34-1.49H24.17z M23.62,16.58l-0.34,1.49h2.01l0.34-1.49H23.62z M28.3,12.76l-2.77,5.94h1.01
		l2.77-5.94H28.3z M30.54,12.76l-2.77,5.94h1.01l2.77-5.94H30.54z"/>
</g>
</svg>
