<?xml version="1.0" encoding="utf-8"?>
<!-- Generator: Adobe Illustrator 20.1.0, SVG Export Plug-In . SVG Version: 6.00 Build 0)  -->
<svg version="1.1" id="Layer_1" xmlns="http://www.w3.org/2000/svg" xmlns:xlink="http://www.w3.org/1999/xlink" x="0px" y="0px"
	 viewBox="0 0 32 32" style="enable-background:new 0 0 32 32;" xml:space="preserve">
<style type="text/css">
	.st0{fill:#7AC143;}
	.st1{fill:#F9A541;}
	.st2{fill:#F44321;}
	.st3{fill:#5091CD;}
</style>
<path id="j-green_7_" class="st0" d="M5.77,16.15l-0.62-0.62c-1.91-1.91-2.5-4.64-1.78-7.06C1.47,8.04,0.04,6.33,0.04,4.29
	C0.04,1.92,1.96,0,4.33,0c2.13,0,3.9,1.56,4.23,3.59c2.31-0.54,4.84,0.09,6.65,1.89l0.25,0.25l-3.16,3.16l-0.25-0.25
	c-1.03-1.03-2.69-1.03-3.72,0c-1.03,1.03-1.03,2.7-0.01,3.72l0.62,0.62l3.16,3.16l3.35,3.34l-3.16,3.16l-3.35-3.34L5.77,16.15
	L5.77,16.15z"/>
<path id="j-orange_7_" class="st1" d="M9.31,12.61l3.35-3.35l3.16-3.16l0.62-0.62c1.9-1.9,4.62-2.5,7.03-1.79
	C23.76,1.61,25.55,0,27.71,0C30.08,0,32,1.92,32,4.29c0,2.18-1.62,3.97-3.72,4.25c0.69,2.4,0.09,5.1-1.8,6.99l-0.25,0.25l-3.16-3.16
	l0.24-0.25c1.03-1.03,1.03-2.69,0-3.72c-1.02-1.02-2.68-1.02-3.71,0.01l-0.62,0.62l-3.16,3.16l-3.35,3.34L9.31,12.61L9.31,12.61z"/>
<path id="j-red_7_" class="st2" d="M23.53,28.5c-2.42,0.75-5.17,0.16-7.09-1.76L16.2,26.5l3.15-3.15l0.24,0.24
	c1.02,1.02,2.68,1.02,3.7,0c1.02-1.02,1.02-2.67-0.01-3.7l-0.62-0.62l-3.15-3.15l-3.33-3.33l3.15-3.15l3.32,3.33l3.15,3.15
	l0.62,0.62c1.81,1.81,2.44,4.36,1.87,6.68c2.07,0.29,3.67,2.07,3.67,4.23c0,2.36-1.91,4.27-4.27,4.27
	C25.64,31.92,23.92,30.45,23.53,28.5L23.53,28.5z"/>
<path id="j-blue_7_" class="st3" d="M22.32,19.68l-3.34,3.34l-3.16,3.16l-0.62,0.62c-1.83,1.83-4.4,2.45-6.74,1.87
	C8.03,30.58,6.32,32,4.29,32C1.92,32,0,30.08,0,27.71c0-2.03,1.41-3.73,3.3-4.17c-0.6-2.35,0.02-4.94,1.86-6.78l0.24-0.24l3.16,3.16
	l-0.24,0.24c-1.03,1.03-1.03,2.69,0,3.72c1.03,1.03,2.7,1.03,3.72,0l0.62-0.62l3.16-3.16l3.34-3.34L22.32,19.68L22.32,19.68z"/>
</svg>
