<?xml version="1.0" encoding="utf-8"?>
<!-- Generator: Adobe Illustrator 20.1.0, SVG Export Plug-In . SVG Version: 6.00 Build 0)  -->
<svg version="1.1" id="Layer_1" xmlns="http://www.w3.org/2000/svg" xmlns:xlink="http://www.w3.org/1999/xlink" x="0px" y="0px"
	 viewBox="0 0 32 32" style="enable-background:new 0 0 32 32;" xml:space="preserve">
<style type="text/css">
	.st0{fill:#4A0000;}
	.st1{fill:#CA1F27;}
	.st2{fill:#FFD440;}
</style>
<path class="st0" d="M31.62,19.35l-2.29-0.81l-0.28-1.68c-0.03-0.21-0.18-0.38-0.38-0.45c-0.2-0.07-0.42-0.02-0.57,0.12l-2.84,2.62
	l-1.57-3.36c1.95-3.06,2.9-6.11,2.97-6.34c0.06-0.22,0-0.45-0.17-0.6c-0.17-0.15-0.41-0.18-0.62-0.09l-4.48,2.09l-0.81-1.74
	l1.56-3.59c0.09-0.22,0.04-0.47-0.13-0.64c-0.17-0.17-0.43-0.21-0.64-0.11L0.33,14.6c-0.2,0.09-0.33,0.29-0.33,0.5
	c-0.01,0.22,0.11,0.42,0.3,0.52l3.83,2.07l2.96,6.35c0.06,0.14,0.18,0.24,0.32,0.3l8.68,3.17c0.06,0.02,0.13,0.04,0.2,0.04
	c0.08,0,0.16-0.02,0.24-0.05l15.14-7.07c0.21-0.1,0.34-0.31,0.33-0.55C31.99,19.63,31.84,19.43,31.62,19.35"/>
<path class="st1" d="M28.25,19.06l-0.16-0.97l-2.33,2.15l0.64,1.37l3.52-1.65l-1.3-0.46C28.43,19.44,28.29,19.27,28.25,19.06"/>
<path class="st2" d="M5,16.86l-3.17-1.71l1.95-0.9L5,16.86"/>
<path class="st1" d="M22.07,16.13c0.01-0.01,0.02-0.02,0.03-0.03c1.48-2.09,2.48-4.34,3.01-5.7l-11.3,5.27
	c-0.17,0.08-0.37,0.07-0.53-0.03c-0.16-0.1-0.27-0.27-0.28-0.46c0-0.03-0.18-2.48-1.56-3.34c-0.64-0.4-1.5-0.39-2.54,0.03
	l-5.12,2.39l4.24,9.09l8.23,3.01l8.25-3.85c-0.54-0.79-1.74-2.37-3.34-3.5c-1.26,1.26-2.74,2.3-4.46,2.84
	c-0.06,0.02-0.11,0.03-0.17,0.03c-0.25,0-0.47-0.16-0.55-0.4c-0.09-0.3,0.07-0.62,0.37-0.72c0,0,0,0,0,0
	C16.36,20.75,19.45,19.97,22.07,16.13"/>
<path class="st0" d="M7.97,14.05c-0.71-0.26-1.5,0.11-1.76,0.82c-0.26,0.71,0.11,1.5,0.82,1.76c0.71,0.26,1.5-0.11,1.76-0.82
	C9.05,15.09,8.69,14.31,7.97,14.05"/>
</svg>
