<?xml version="1.0" encoding="utf-8"?>
<!-- Generator: Adobe Illustrator 20.1.0, SVG Export Plug-In . SVG Version: 6.00 Build 0)  -->
<svg version="1.1" id="Layer_1" xmlns="http://www.w3.org/2000/svg" xmlns:xlink="http://www.w3.org/1999/xlink" x="0px" y="0px"
	 viewBox="0 0 32 32" style="enable-background:new 0 0 32 32;" xml:space="preserve">
<style type="text/css">
	.st0{fill:#F7DF1E;}
</style>
<rect class="st0" width="32" height="32"/>
<path d="M21.5,25c0.64,1.05,1.48,1.83,2.97,1.83c1.25,0,2.04-0.62,2.04-1.48c0-1.03-0.82-1.4-2.19-2l-0.75-0.32
	c-2.17-0.92-3.61-2.08-3.61-4.53c0-2.26,1.72-3.97,4.4-3.97c1.91,0,3.29,0.67,4.28,2.41l-2.34,1.5c-0.52-0.92-1.07-1.29-1.94-1.29
	c-0.88,0-1.44,0.56-1.44,1.29c0,0.9,0.56,1.27,1.85,1.83l0.75,0.32c2.55,1.1,4,2.21,4,4.72c0,2.71-2.13,4.19-4.98,4.19
	c-2.79,0-4.6-1.33-5.48-3.08L21.5,25z M10.87,25.26c0.47,0.84,0.9,1.55,1.94,1.55c0.99,0,1.61-0.39,1.61-1.89V14.69h3.01v10.27
	c0,3.11-1.83,4.53-4.49,4.53c-2.41,0-3.8-1.25-4.51-2.75L10.87,25.26z"/>
</svg>
