<svg id="COMP_A_R3" data-name="COMP A R3" xmlns="http://www.w3.org/2000/svg" viewBox="0 0 177.56 143.68"><defs><style>.cls-1{fill:#0366ad;}.cls-1,.cls-2{stroke:#fff;stroke-miterlimit:10;stroke-width:1.5px;}.cls-2{fill:#6593c8;}.cls-3{fill:#fff;}</style></defs><title>knative-logo-rgb2</title><path class="cls-1" d="M142.88,72.35,87.37,99.08a3.6,3.6,0,0,0-2,2.45L71.71,161.6a3.61,3.61,0,0,0,.69,3l38.42,48.17a3.59,3.59,0,0,0,2.82,1.36h61.61a3.61,3.61,0,0,0,2.82-1.36l38.41-48.17a3.61,3.61,0,0,0,.7-3l-13.71-60.07a3.63,3.63,0,0,0-1.95-2.45L146,72.35A3.56,3.56,0,0,0,142.88,72.35Z" transform="translate(-70.87 -71.24)"/><path class="cls-2" d="M211.83,72.31,190,80.25a1.78,1.78,0,0,0-.94.79l-11.61,20.11a1.85,1.85,0,0,0-.22,1.22l4,22.87a1.82,1.82,0,0,0,.61,1.07l17.79,14.92a1.79,1.79,0,0,0,1.16.43h23.23a1.75,1.75,0,0,0,1.15-.43L243,126.31a1.82,1.82,0,0,0,.61-1.07l4-22.87a1.79,1.79,0,0,0-.21-1.22L235.83,81a1.76,1.76,0,0,0-1-.79l-21.82-7.94A1.74,1.74,0,0,0,211.83,72.31Z" transform="translate(-70.87 -71.24)"/><path class="cls-3" d="M208.21,98.79a14.66,14.66,0,0,1,1.36-1.16,8.68,8.68,0,0,1,1.49-.9,8.11,8.11,0,0,1,1.7-.59,8.84,8.84,0,0,1,2-.21,7.7,7.7,0,0,1,3.13.61,6.54,6.54,0,0,1,2.3,1.7,7.3,7.3,0,0,1,1.41,2.61,11.19,11.19,0,0,1,.47,3.32v13.75h-5.77V104.17a4.25,4.25,0,0,0-.84-2.81,3.08,3.08,0,0,0-2.48-1,5.13,5.13,0,0,0-2.29.53,8.08,8.08,0,0,0-2,1.47v15.56h-5.79V96.27h3.57a1.41,1.41,0,0,1,1.45,1Z" transform="translate(-70.87 -71.24)"/><path class="cls-3" d="M124.76,122.42H137v24.14h.24c1.22-2.11,2.51-4.05,3.73-6l12.39-18.15H168.5l-18.07,23.25,19,31.34H155.05l-13.36-23.57L137,159.2V177H124.76Z" transform="translate(-70.87 -71.24)"/></svg>
