<?xml version="1.0" encoding="UTF-8" standalone="no"?><svg xmlns="http://www.w3.org/2000/svg" xmlns:cc="http://creativecommons.org/ns#" xmlns:dc="http://purl.org/dc/elements/1.1/" xmlns:inkscape="http://www.inkscape.org/namespaces/inkscape" xmlns:rdf="http://www.w3.org/1999/02/22-rdf-syntax-ns#" xmlns:sodipodi="http://sodipodi.sourceforge.net/DTD/sodipodi-0.dtd" inkscape:version="1.3.2 (091e20ef0f, 2023-11-25)" sodipodi:docname="kubevirt.svg" id="svg61" width="40" height="40" version="1.1" viewBox="0 0 40 40"><sodipodi:namedview inkscape:current-layer="svg61" inkscape:cx="24.164084" inkscape:cy="22.929123" inkscape:deskcolor="#d1d1d1" inkscape:pagecheckerboard="0" inkscape:pageopacity="0.0" inkscape:showpageshadow="2" inkscape:window-height="1011" inkscape:window-maximized="1" inkscape:window-width="1920" inkscape:window-x="0" inkscape:window-y="0" inkscape:zoom="12.146125" id="namedview61" bordercolor="#000000" borderopacity="0.25" pagecolor="#ffffff" showgrid="false"/><!--Generator: Sketch 50.2 (55047) - http://www.bohemiancoding.com/sketch--><defs id="defs1"/><g id="Symbols" fill="none" fill-rule="evenodd" stroke="none" stroke-width="1" transform="translate(-59,2.0000003)"><g inkscape:label="header-default" id="header-default" transform="translate(20.519655,-30.067452)"><g id="Group-16"><g id="KubeVirt_logo_color" transform="translate(40,30)"><path id="path37" d="M 0.82,22.58 C 0.88,23 1.04,23.4 1.28,23.76 L 6.96,30.78 1.28,23.74 C 1.04,23.4 0.88,23 0.82,22.58 Z"/><path id="path38" d="M 0.85,22.82 C 0.8,22.627692 0.8,22.473846 0.8,22.32 c 0,0.153846 0,0.307692 0.05,0.5 z"/><path id="path39" d="m 11.56,35.24 c -0.176471,-0.05 -0.323529,-0.1 -0.5,-0.2 0.176471,0.05 0.323529,0.15 0.5,0.2 z"/><path id="path40" d="m 18.8,1.02 c 0.153846,0.05 0.346154,0.05 0.5,0.1 -0.153846,-0.05 -0.346154,-0.05 -0.5,-0.1 z"/><path id="path41" d="m 31.74,7.1 c 0.190476,0.1428571 0.357143,0.3214286 0.5,0.5 -0.142857,-0.1785714 -0.309524,-0.3571429 -0.5,-0.5 z"/><path id="path42" d="m 36.09,22.78 c 0,0.1 -0.05,0.2 -0.05,0.3 0,-0.1 0,-0.2 0.05,-0.3 z"/><path id="path43" d="m 19.04,1.06 c 0.153846,0.05 0.346154,0.1 0.5,0.2 -0.153846,-0.05 -0.307692,-0.15 -0.5,-0.2 z"/><path id="path44" d="M 31.74,7.1 19.42,1.2 C 19.38,1.18 19.34,1.16 19.3,1.14 c 0.04,0.02 0.08,0.04 0.12,0.06 z"/><path id="path45" d="M 18.8,1.05 C 18.68,1 18.54,1 18.42,1 18.16,1 17.92,1 17.66,1.1 17.9,1 18.16,1 18.42,1 c 0.12,0 0.26,0 0.38,0.05 z"/><path id="path46" d="M 17.4,1.08 5.08,7.02 C 4.94,7.08 4.78,7.18 4.66,7.28 4.8,7.18 4.94,7.1 5.08,7.02 Z"/><path id="path47" d="m 18.46,35.2 h -6.8 c -0.08,0 -0.18,0 -0.26,-0.05 0.08,0.05 0.18,0.05 0.26,0.05 h 13.58 c 0.16,0 0.34,-0.05 0.5,-0.1 -0.16,0.05 -0.34,0.1 -0.5,0.1 z"/><path id="path48" d="M 36.12,21.8 33.04,8.6 C 33.02,8.52 32.98,8.44 32.96,8.36 33,8.44 33.02,8.52 33.04,8.6 Z"/><path id="path49" d="m 33.46,26.42 2.16,-2.68 c 0.1,-0.14 0.18,-0.28 0.26,-0.44 -0.08,0.16 -0.16,0.3 -0.26,0.44 z"/><path id="path50" d="M 3.88,8.52 0.84,21.8 3.88,8.52 C 3.98,8.04 4.26,7.62 4.64,7.3 L 4.66,7.28 C 4.26,7.58 3.98,8.02 3.88,8.52 Z"/><path id="path51" fill="#00aab2" fill-rule="nonzero" d="m 11.02,20.16 -4.8,-9.8 h 8.1 l 3.24,5.98 -1.12,2.06 -0.04,0.02 -3.28,-6.08 H 9.54 l 5.64,11.96 0.8,-1.52 c 0.26,-0.48 0.86,-0.68 1.36,-0.42 0.48,0.26 0.68,0.86 0.42,1.36 l -1.46,2.74 -1.12,2.08 3.28,6.58 3.1,-6.12 c -0.32,0.44 -0.96,0.54 -1.4,0.22 -0.4,-0.28 -0.52,-0.82 -0.3,-1.24 l 0.72,-1.44 c 0.28,-0.48 0.88,-0.64 1.36,-0.36 0.42,0.24 0.6,0.76 0.44,1.22 l 1.46,-2.88 c -0.32,0.44 -0.96,0.54 -1.4,0.2 -0.38,-0.28 -0.52,-0.8 -0.3,-1.24 l 1.44,-2.86 c 0.24,-0.5 0.84,-0.7 1.34,-0.44 0.5,0.26 0.7,0.84 0.44,1.34 l -0.36,0.7 1.84,-3.64 c -0.32,0.46 -0.94,0.58 -1.38,0.26 -0.42,-0.28 -0.56,-0.82 -0.34,-1.26 l 1.42,-2.86 c 0.24,-0.5 0.84,-0.7 1.34,-0.44 0.5,0.24 0.7,0.84 0.44,1.34 l -0.8,1.62 2.28,-4.5 c -0.28,0.48 -0.88,0.66 -1.36,0.38 -0.24,-0.14 -0.42,-0.38 -0.48,-0.66 h -1.2 c -0.56,0 -1,-0.44 -1,-1 0,-0.56 0.44,-1 1,-1 h 4.18 l -1,1.98 2.46,-4.86 C 32.32,7.5 32.24,7.44 32.16,7.38 32.02,7.28 31.88,7.18 31.74,7.1 L 19.42,1.2 C 19.38,1.18 19.34,1.16 19.3,1.14 19.22,1.1 19.14,1.08 19.04,1.06 18.96,1.04 18.88,1.02 18.8,1.02 18.68,1 18.54,1 18.42,1 18.16,1 17.92,1 17.66,1.04 17.58,1.06 17.5,1.06 17.4,1.08 L 5.08,7.02 C 4.94,7.08 4.78,7.18 4.66,7.28 L 4.64,7.3 Z m 10.02,-6.5 1.76,-3.36 h 0.64 c 0.16,0 0.32,0.04 0.46,0.12 0.48,0.26 0.68,0.86 0.42,1.36 0,0 0,0 0,0 L 22.8,14.6 c -0.26,0.48 -0.86,0.68 -1.36,0.42 -0.48,-0.26 -0.66,-0.86 -0.4,-1.36 z m -3.08,5.84 1.5,-2.82 c 0.26,-0.48 0.86,-0.68 1.36,-0.42 0.5,0.26 0.68,0.86 0.42,1.36 l -1.5,2.82 c -0.26,0.48 -0.86,0.68 -1.36,0.42 -0.5,-0.26 -0.68,-0.88 -0.42,-1.36 z"/><path id="path52" fill="#fff" fill-rule="nonzero" d="M 3.08,8.34 0.06,21.62 v 0.02 0.02 c -0.16,0.9 0.06,1.8 0.58,2.54 l 0.02,0.02 0.02,0.02 8.5,10.56 0.02,0.04 0.04,0.02 c 0.64,0.64 1.48,1.02 2.38,1.08 h 13.62 c 1.06,0 1.94,-0.42 2.5,-1.16 l 8.52,-10.54 0.02,-0.02 0.02,-0.02 c 0.52,-0.72 0.74,-1.62 0.62,-2.5 L 36.9,21.62 33.82,8.4 V 8.36 8.34 C 33.54,7.5 32.94,6.78 32.14,6.38 H 32.12 32.1 L 19.78,0.48 c -0.42,-0.2 -0.9,-0.3 -1.36,-0.28 -0.4,-0.02 -0.8,0.02 -1.2,0.1 L 17.14,0.32 17.06,0.36 4.74,6.3 C 3.9,6.68 3.3,7.44 3.08,8.34 Z M 5.1,7.02 17.4,1.08 C 17.48,1.06 17.56,1.04 17.64,1.04 17.9,1 18.16,1 18.42,1 c 0.12,0 0.26,0 0.38,0.02 0.08,0.02 0.18,0.02 0.26,0.04 0.08,0.02 0.18,0.04 0.26,0.08 0.04,0.02 0.08,0.04 0.12,0.06 l 12.32,5.9 c 0.16,0.08 0.3,0.18 0.42,0.28 0.08,0.06 0.16,0.12 0.24,0.2 0.22,0.22 0.42,0.48 0.54,0.76 0.04,0.08 0.06,0.16 0.08,0.24 l 3.08,13.22 c 0.04,0.32 0.02,0.66 -0.06,0.98 0,0.04 -0.02,0.08 -0.02,0.12 -0.08,0.3 -0.22,0.6 -0.4,0.86 l -2.16,2.68 -6.36,7.86 c -0.32,0.44 -0.82,0.72 -1.36,0.8 -0.16,0.02 -0.34,0.04 -0.5,0.04 h -13.6 c -0.08,0 -0.18,-0.02 -0.26,-0.02 C 11.28,35.1 11.18,35.08 11.06,35.04 10.58,34.9 10.14,34.64 9.78,34.3 L 6.94,30.78 1.28,23.74 C 1.04,23.4 0.88,23 0.82,22.56 0.8,22.48 0.8,22.4 0.8,22.32 c 0,-0.18 0,-0.34 0.04,-0.52 L 3.88,8.52 C 4,8.02 4.28,7.6 4.68,7.28 4.8,7.18 4.94,7.08 5.1,7.02 Z"/><path id="path53" fill="#00797f" fill-rule="nonzero" d="M 18.46,35.14 15.18,28.56 15.14,28.62 11.02,20.16 4.62,7.3 C 4.24,7.6 3.96,8.04 3.86,8.52 L 0.84,21.8 C 0.8,21.98 0.8,22.14 0.8,22.32 c 0,0.08 0,0.16 0.02,0.26 0.06,0.42 0.22,0.82 0.46,1.18 l 5.68,7.04 2.84,3.48 c 0.36,0.36 0.8,0.6 1.26,0.74 0.1,0.04 0.22,0.06 0.34,0.08 0.08,0.02 0.18,0.02 0.26,0.02 h 6.8 z"/><path id="path54" fill="#3accc5" fill-rule="nonzero" d="m 29.82,12.7 -2.28,4.5 -0.62,1.24 c -0.02,0.04 -0.04,0.08 -0.06,0.1 l -1.84,3.62 -1.08,2.16 c -0.02,0.04 -0.06,0.1 -0.08,0.14 l -1.46,2.9 c 0,0.02 0,0.02 -0.02,0.04 l -0.72,1.44 c -0.02,0.04 -0.06,0.1 -0.08,0.14 l -3.1,6.12 h 6.78 c 0.16,0 0.34,-0.02 0.5,-0.04 0.54,-0.08 1.02,-0.36 1.36,-0.8 l 6.36,-7.86 2.16,-2.68 c 0.18,-0.26 0.32,-0.54 0.4,-0.86 0.02,-0.04 0.02,-0.08 0.02,-0.12 0.08,-0.32 0.1,-0.64 0.06,-0.98 L 33.06,8.56 C 33.04,8.48 33,8.4 32.98,8.32 32.86,8.04 32.66,7.78 32.44,7.56 l -2.46,4.84 z"/><path id="path55" fill="#fff" fill-rule="nonzero" d="m 18.36,20.84 c 0.48,0.26 1.1,0.08 1.36,-0.42 0,0 0,0 0,0 l 1.5,-2.82 c 0.26,-0.48 0.08,-1.1 -0.42,-1.36 -0.48,-0.26 -1.1,-0.08 -1.36,0.42 l -1.5,2.82 c -0.24,0.5 -0.06,1.1 0.42,1.36 z"/><path id="path56" fill="#fff" fill-rule="nonzero" d="m 22.38,27.42 c 0,-0.02 0,-0.02 0.02,-0.04 0.2,-0.52 -0.06,-1.1 -0.58,-1.28 -0.46,-0.18 -0.98,0.02 -1.22,0.44 l -0.72,1.44 c -0.24,0.5 -0.04,1.1 0.46,1.34 0.5,0.24 1.08,0.04 1.34,-0.44 z"/><path id="path57" fill="#fff" fill-rule="nonzero" d="m 15.18,28.56 1.12,-2.08 1.46,-2.74 c 0.26,-0.48 0.08,-1.1 -0.42,-1.36 -0.48,-0.26 -1.1,-0.08 -1.36,0.42 l -0.8,1.52 -5.64,-11.98 h 3.58 l 3.28,6.08 0.04,-0.02 1.1,-2.06 -3.24,-6 H 6.2 l 4.8,9.8 4.16,8.46 z"/><path id="path58" fill="#fff" fill-rule="nonzero" d="m 29.96,12.44 1,-1.98 h -4.18 c -0.56,0 -1,0.44 -1,1 0,0.56 0.44,1 1,1 h 1.2 c 0.12,0.54 0.66,0.88 1.2,0.76 0.28,-0.06 0.52,-0.24 0.66,-0.48 l 0.02,-0.02 z"/><path id="path59" fill="#fff" fill-rule="nonzero" d="m 27.54,17.22 0.8,-1.62 c 0.26,-0.5 0.06,-1.1 -0.44,-1.34 -0.5,-0.24 -1.1,-0.06 -1.34,0.44 0,0 0,0 0,0.02 l -1.42,2.86 c -0.24,0.5 -0.04,1.1 0.46,1.34 0.5,0.24 1.08,0.04 1.34,-0.44 z"/><path id="path60" fill="#fff" fill-rule="nonzero" d="m 25.02,22.2 0.36,-0.7 c 0.24,-0.5 0.04,-1.1 -0.44,-1.34 -0.48,-0.24 -1.1,-0.04 -1.34,0.44 l -1.42,2.86 c -0.24,0.5 -0.04,1.1 0.46,1.34 0.5,0.24 1.08,0.04 1.34,-0.44 z"/><path id="path61" fill="#fff" fill-rule="nonzero" d="m 21.46,15.02 c 0.48,0.26 1.08,0.08 1.34,-0.42 l 1.5,-2.82 c 0.26,-0.48 0.08,-1.1 -0.42,-1.36 0,0 0,0 0,0 -0.14,-0.08 -0.3,-0.12 -0.46,-0.12 H 22.8 l -1.76,3.36 c -0.24,0.5 -0.06,1.08 0.42,1.36 z"/></g></g></g></g><metadata id="metadata1"><rdf:RDF><cc:Work rdf:about=""><dc:title>KubeVirt_logo_color</dc:title></cc:Work></rdf:RDF></metadata></svg>
