<?xml version="1.0" encoding="utf-8"?>
<!-- Generator: Adobe Illustrator 20.1.0, SVG Export Plug-In . SVG Version: 6.00 Build 0)  -->
<svg version="1.1" id="Layer_1" xmlns="http://www.w3.org/2000/svg" xmlns:xlink="http://www.w3.org/1999/xlink" x="0px" y="0px"
	 viewBox="0 0 32 32" style="enable-background:new 0 0 32 32;" xml:space="preserve">
<style type="text/css">
	.st0{fill:#FFFFFF;}
	.st1{fill:#F35045;}
	.st2{display:none;fill:#FFFFFF;}
</style>
<path class="st0" d="M26,31.99H6.01c-3.3,0-6-2.7-6-6V6c0-3.3,2.7-6,6-6H26c3.3,0,6,2.7,6,6v19.99C32,29.29,29.3,31.99,26,31.99z"/>
<g>
	<path class="st1" d="M20.06,26c0.25,0.36,0.4,0.33,0.6,0.25s10.19-3.46,10.5-3.57c0.31-0.11,0.21-0.21,0.11-0.36
		c-0.1-0.15-3.43-4.68-3.6-4.94c-0.17-0.26-0.25-0.21-0.51-0.12l-10.6,2.76C16.55,20.01,19.81,25.64,20.06,26z M32,21.39v-5.3
		c-1.19,0.32-2.7,0.72-3.3,0.88C29.6,18.17,31.01,20.05,32,21.39z M28.69,10.44c-0.16,0.04-3.78,0.69-4,0.72
		c-0.22,0.03-0.15,0.16-0.06,0.28l3.18,4.37c0,0,3.89-0.97,4.13-1.02c0.02,0,0.04-0.01,0.06-0.01V14.2c-0.71-0.9-2.64-3.34-2.8-3.57
		C29,10.36,28.86,10.4,28.69,10.44L28.69,10.44z"/>
	<path class="st1" d="M5.93,3.58c0.78-0.04,0.85,0.14,1.2,0.65l8.65,14.46l10.87-2.6c-0.6-0.85-3.34-4.73-3.6-5.1
		c-0.3-0.42,0.01-0.61,0.49-0.69c0.48-0.08,4.64-0.78,5-0.83c0.36-0.05,0.64-0.18,1.22,0.52c0.3,0.36,1.3,1.61,2.24,2.78V6
		c0-1.65-0.59-3.07-1.76-4.24C29.07,0.59,27.65,0,26,0H6C4.35,0,2.93,0.59,1.76,1.76C1.09,2.43,0.61,3.19,0.32,4.02
		C2.28,3.86,5.38,3.6,5.93,3.58L5.93,3.58z"/>
	<path class="st1" d="M21.04,27.95c-0.92,0.28-1.33,0.42-1.92-0.42c-0.45-0.62-2.87-4.98-4.05-7.13c-2.24,0.59-6.35,1.66-7.54,1.94
		c-1.16,0.28-1.65-0.42-1.84-0.84C5.55,21.2,2.16,13.89,0,9.21V26c0,1.65,0.59,3.07,1.76,4.24C2.93,31.41,4.35,32,6,32h20
		c1.65,0,3.07-0.59,4.24-1.76C31.41,29.07,32,27.65,32,26v-1.97C29.55,24.93,21.65,27.76,21.04,27.95z"/>
	<path class="st1" d="M7.55,20.66c0.32-0.07,6.41-1.53,6.54-1.56c0.13-0.03,0.21-0.1,0.07-0.34S6.05,4.75,6.05,4.75
		C5.98,4.62,6,4.58,5.8,4.59C5.62,4.6,1.11,5,0.06,5.09C0.03,5.31,0.01,5.53,0.01,5.75c1.06,2.17,7.15,14.73,7.18,14.83
		C7.23,20.7,7.23,20.74,7.55,20.66L7.55,20.66z"/>
</g>
</svg>
