<?xml version="1.0" encoding="utf-8"?>
<!-- Generator: Adobe Illustrator 20.1.0, SVG Export Plug-In . SVG Version: 6.00 Build 0)  -->
<svg version="1.1" id="Layer_1" xmlns="http://www.w3.org/2000/svg" xmlns:xlink="http://www.w3.org/1999/xlink" x="0px" y="0px"
	 viewBox="0 0 32 32" style="enable-background:new 0 0 32 32;" xml:space="preserve">
<style type="text/css">
	.st0{fill:#F58536;}
</style>
<g>
	<path class="st0" d="M15.99,0C7.16,0,0,7.16,0,15.99s7.16,15.99,15.99,15.99c8.83,0,15.99-7.16,15.99-15.99S24.82,0,15.99,0z
		 M26.03,10.97h-5.02v-1l-1.56,1.97l-0.72-1.01l-7.07,4.51h6v-1.07l3.35,1.25v-1.85h5.02v5.02h-5.02v-1.85l-3.35,1.25v-1.07h-6
		l7.14,4.51l0.65-1.05l1.56,2v-1h5.02v5.02h-5.02v-2.01l-3.47-0.83l0.47-1.01L9.3,17.1v3.35H3.72v-8.37H9.3v3.35l8.78-5.64
		l-0.54-1.01l3.47-0.83V5.95h5.02V10.97z"/>
</g>
</svg>
