<svg xmlns="http://www.w3.org/2000/svg" version="1.1" xmlns:xlink="http://www.w3.org/1999/xlink" xmlns:svgjs="http://svgjs.com/svgjs" width="512" height="512" x="0" y="0" viewBox="0 0 32 32" style="enable-background:new 0 0 512 512" xml:space="preserve" class=""><g><path fill="#2196f3" d="M27.5 10.2c-.9-.5-2-.7-3-.6 0-.9-.2-1.8-.7-2.6-1.4-2.5-4.8-3.7-7.3-3.9-2.8-.2-5.4 1-7.1 3.2-.7 1-.9 2.1-.8 3.3-2.5-.3-5.6 1.3-6.3 3.6-1.1 3.1 1.9 5.8 4.9 5.7h17.6c2.6.2 4.8-1.6 5.1-4.2.2-1.9-.8-3.6-2.4-4.5z" data-original="#2196f3" class=""/><path fill="#f05133" d="M9 20.9h14c1.7 0 3 1.3 3 3v2c0 1.7-1.3 3-3 3H9c-1.7 0-3-1.3-3-3v-2c0-1.6 1.3-3 3-3z" data-original="#9e9e9e" class="" opacity="1"/><path fill="#eeeeee" d="M22 25.9h-9c-.6 0-1-.4-1-1s.4-1 1-1h9c.6 0 1 .4 1 1s-.4 1-1 1zm-11-1c0 .6-.4 1-1 1s-1-.4-1-1 .4-1 1-1 1 .5 1 1z" data-original="#eeeeee" class=""/><path fill="#11a723" d="M9 12.9h14c1.7 0 3 1.3 3 3v2c0 1.7-1.3 3-3 3H9c-1.7 0-3-1.3-3-3v-2c0-1.6 1.3-3 3-3z" data-original="#757575" class="" opacity="1"/><path fill="#eeeeee" d="M22 17.9h-9c-.6 0-1-.4-1-1s.4-1 1-1h9c.6 0 1 .4 1 1s-.4 1-1 1zm-11-1c0 .6-.4 1-1 1s-1-.4-1-1 .4-1 1-1 1 .5 1 1z" data-original="#eeeeee" class=""/></g></svg>