<?xml version="1.0" encoding="utf-8"?>
<!-- Generator: Adobe Illustrator 20.1.0, SVG Export Plug-In . SVG Version: 6.00 Build 0)  -->
<svg version="1.1" id="Layer_1" xmlns="http://www.w3.org/2000/svg" xmlns:xlink="http://www.w3.org/1999/xlink" x="0px" y="0px"
	 viewBox="0 0 34 32" style="enable-background:new 0 0 34 32;" xml:space="preserve">
<style type="text/css">
	.st0{fill:#002B64;}
	.st1{fill:#FFFFFF;}
</style>
<g>
	<path class="st0" d="M31.77,5.37c-0.49,0.02-0.34,0.16-1.41,0.42c-1.08,0.27-2.4,0.18-3.56,0.67c-3.47,1.45-4.17,6.43-7.32,8.21
		c-2.36,1.33-4.74,1.44-6.87,2.11c-1.41,0.44-2.94,1.34-4.22,2.44c-0.99,0.85-1.01,1.6-2.05,2.67c-1.1,1.14-4.39,0.02-5.88,1.77
		c0.48,0.48,0.69,0.62,1.64,0.49c-0.2,0.37-1.35,0.68-1.12,1.23c0.24,0.57,3.03,0.96,5.56-0.57c1.18-0.71,2.12-1.74,3.96-1.99
		c2.38-0.32,5.12,0.2,7.87,0.6c-0.41,1.22-1.23,2.03-1.89,3c-0.2,0.22,0.41,0.24,1.11,0.11c1.26-0.31,2.16-0.56,3.11-1.11
		c1.16-0.68,1.34-2.42,2.77-2.79c0.8,1.22,2.96,1.51,4.3,0.53c-1.18-0.33-1.5-2.84-1.11-3.95c0.38-1.05,0.75-2.72,1.13-4.1
		c0.41-1.49,0.56-3.36,1.05-4.12c0.74-1.14,1.56-1.53,2.27-2.17c0.71-0.64,1.36-1.27,1.34-2.74C32.46,5.62,32.22,5.36,31.77,5.37
		L31.77,5.37L31.77,5.37z"/>
	<path class="st1" d="M1.49,25.28c1.81,0.26,2.9,0,4.35-0.63c1.23-0.53,2.42-1.64,3.88-2.11c2.14-0.69,4.49,0,6.77,0.14
		c0.56,0.03,1.11,0.03,1.66-0.03c0.85-0.52,0.83-2.48,1.66-2.66c-0.02,2.75-1.15,4.39-2.33,5.99c2.48-0.44,3.97-1.87,4.97-3.79
		c0.3-0.58,0.56-1.21,0.79-1.86c0.36,0.27,0.15,1.1,0.33,1.55c1.71-0.95,2.69-3.13,3.34-5.33c0.75-2.54,1.06-5.12,1.54-5.87
		c0.47-0.73,1.21-1.19,1.88-1.66c0.76-0.53,1.44-1.09,1.56-2.11c-0.8-0.07-0.99-0.26-1.11-0.67c-0.4,0.23-0.77,0.28-1.19,0.29
		c-0.36,0.01-0.76-0.01-1.25,0.04c-4.03,0.41-4.54,4.85-7.12,7.37c-0.19,0.18-0.39,0.35-0.61,0.51c-0.9,0.67-2.01,1.15-3.03,1.54
		c-1.65,0.63-3.22,0.68-4.77,1.22c-1.14,0.4-2.29,0.98-3.23,1.62C9.37,19,9.15,19.16,8.95,19.33c-0.55,0.45-0.91,0.95-1.26,1.46
		c-0.36,0.53-0.71,1.07-1.23,1.59c-0.86,0.84-4.05,0.25-5.18,1.02c-0.13,0.09-0.23,0.19-0.29,0.32c0.61,0.28,1.02,0.11,1.73,0.19
		C2.81,24.57,1.26,24.97,1.49,25.28L1.49,25.28L1.49,25.28z"/>
	<path class="st1" d="M25.89,20.45c0.05,0.77,0.49,2.3,0.89,2.67c-0.77,0.19-2.1-0.12-2.44-0.67
		C24.51,21.66,25.42,20.94,25.89,20.45L25.89,20.45L25.89,20.45z"/>
	<path class="st0" d="M27.02,8.24c0.57,0.49,1.77,0.1,1.55-0.89C27.68,7.28,27.17,7.58,27.02,8.24L27.02,8.24L27.02,8.24z"/>
	<path class="st0" d="M30.99,7.09c-0.15,0.32-0.44,0.73-0.44,1.54c0,0.14-0.11,0.23-0.11,0.02c0.01-0.79,0.22-1.13,0.44-1.58
		C30.99,6.88,31.05,6.96,30.99,7.09L30.99,7.09L30.99,7.09z"/>
	<path class="st0" d="M30.84,6.97c-0.18,0.3-0.61,0.86-0.68,1.66c-0.01,0.14-0.13,0.22-0.11,0.01c0.08-0.79,0.42-1.28,0.68-1.71
		C30.85,6.76,30.91,6.84,30.84,6.97L30.84,6.97L30.84,6.97z"/>
	<path class="st0" d="M30.7,6.81c-0.2,0.29-0.87,0.95-1.01,1.75c-0.02,0.14-0.14,0.21-0.11,0c0.14-0.78,0.71-1.39,1.01-1.79
		C30.73,6.61,30.78,6.69,30.7,6.81L30.7,6.81L30.7,6.81z"/>
	<path class="st0" d="M30.58,6.64c-0.24,0.26-1.03,1.1-1.28,1.87c-0.04,0.13-0.17,0.19-0.11-0.01c0.25-0.75,0.94-1.56,1.29-1.92
		C30.63,6.43,30.67,6.53,30.58,6.64L30.58,6.64L30.58,6.64z"/>
</g>
</svg>
