<?xml version="1.0" encoding="utf-8"?>
<!-- Generator: Adobe Illustrator 20.1.0, SVG Export Plug-In . SVG Version: 6.00 Build 0)  -->
<svg version="1.1" id="Layer_1" xmlns="http://www.w3.org/2000/svg" xmlns:xlink="http://www.w3.org/1999/xlink" x="0px" y="0px"
	 viewBox="0 0 41 32" style="enable-background:new 0 0 41 32;" xml:space="preserve">
<style type="text/css">
	.st0{fill:#006697;}
	.st1{fill:#8E7650;}
	.st2{fill:#383838;}
	.st3{fill:#FFC200;}
</style>
<g>
	<g id="Brackets">
		<path class="st0" d="M3.73,21.2V5.86h3.48V6.5c-1.9,0.16-1.97,0.28-1.97,1.66v10.77c0,1.36,0.04,1.47,1.97,1.63v0.64L3.73,21.2
			L3.73,21.2z"/>
		<path class="st0" d="M9.26,21.2V5.86h3.48V6.5c-1.9,0.16-1.97,0.28-1.97,1.66v10.77c0,1.36,0.04,1.47,1.97,1.63v0.64L9.26,21.2
			L9.26,21.2z"/>
		<path class="st0" d="M27.65,21.2v-0.64c1.88-0.16,1.97-0.27,1.97-1.65V8.15c0-1.38-0.09-1.49-1.97-1.65V5.86h3.48V21.2L27.65,21.2
			L27.65,21.2z"/>
		<path class="st0" d="M33.2,21.2v-0.64c1.88-0.16,1.97-0.27,1.97-1.65V8.15c0-1.38-0.09-1.49-1.97-1.65V5.86h3.48V21.2L33.2,21.2
			L33.2,21.2z"/>
	</g>
	<g>
		<circle class="st1" cx="20.22" cy="13.59" r="4.48"/>
	</g>
	<g>
		<path class="st2" d="M23.35,29.97h-1.23l-0.33-0.81h-1.74l-0.33,0.81h-1.23l1.77-4h1.33L23.35,29.97z M21.51,28.46L20.93,27
			l-0.59,1.46H21.51z M17.95,29.97h-1.2v-4h1.2V29.97z M16,28.04c0,0.41-0.07,0.74-0.22,0.99c-0.15,0.25-0.32,0.45-0.53,0.6
			c-0.29,0.22-0.69,0.34-1.2,0.34h-0.06h-2.1v-4h1.66c0.25,0,0.46,0.01,0.64,0.04c0.18,0.03,0.34,0.06,0.48,0.11
			c0.14,0.05,0.26,0.1,0.36,0.16c0.1,0.06,0.19,0.12,0.27,0.19c0.14,0.11,0.26,0.24,0.36,0.4c0.1,0.15,0.18,0.33,0.25,0.53
			C15.97,27.59,16,27.81,16,28.04z M14.77,27.99c0-0.32-0.06-0.58-0.19-0.76c-0.12-0.18-0.27-0.3-0.45-0.36
			c-0.17-0.06-0.35-0.09-0.53-0.09h-0.51v2.37h0.51c0.32,0,0.59-0.07,0.82-0.22C14.65,28.77,14.77,28.46,14.77,27.99z M11.08,29.97
			H8.07v-4h2.96v0.8H9.27v0.73h1.68v0.8H9.27v0.85h1.81V29.97z M7.05,29.97h-1.2v-2.32l-1.09,1.34h-0.1l-1.09-1.34v2.32H2.4v-4H3.5
			l1.23,1.5l1.24-1.5h1.09L7.05,29.97L7.05,29.97z M38.68,29.94h-1.2v-4h1.2V29.94z M36.95,29.94h-1.47l-1.53-1.87v1.87h-1.2v-4h1.2
			v1.79l1.45-1.79h1.31l-1.49,1.87L36.95,29.94z M31.73,29.94h-1.2v-4h1.2V29.94L31.73,29.94z M29.97,25.94l-1.73,4.05h-0.7
			l-1.04-2.36l-1.06,2.36h-0.7l-1.7-4.05h1.25l0.83,2.22l0.95-2.22h0.86l0.93,2.22l0.87-2.22H29.97z"/>
	</g>
</g>
<g>
	<path class="st3" d="M15.9,6.05c0.92,0.77,2.05,2.11,2.43,3.31c0.17-0.08,0.35-0.14,0.53-0.2c-0.81-1.02-1.45-2.55-1.73-3.64
		c-0.69-0.27-0.5-1.19-0.32-1.79c-1.16,0.15-1.35,1.36-1.01,2.29C15.83,6.01,15.86,6.02,15.9,6.05z"/>
	<path class="st3" d="M13.99,6.44c0.31,0.37,0.77,0.73,1.22,1.07c0.19,0.14,0.37,0.28,0.53,0.42c0.59,0.49,0.95,1.56,1.21,2.34
		c0,0.01,0.01,0.02,0.01,0.03c0.32-0.31,0.68-0.58,1.07-0.79c-0.35-1.14-1.44-2.45-2.34-3.2c-0.05-0.04-0.07-0.12-0.05-0.18
		c-0.44-0.35-0.88-0.71-1.31-1.06c-0.2,0.42-0.35,0.87-0.38,1.34C13.96,6.41,13.98,6.42,13.99,6.44z"/>
	<path class="st3" d="M10.31,13.52c0.07,0.01,0.13,0.04,0.19,0.06c0.08,0.04,0.16,0.07,0.29,0.07v0c0.01,0,0.02,0,0.04,0
		c0.4,0.09,2.93,0.38,4.77-0.45c0.01-0.14,0.03-0.28,0.05-0.42c-1.63-0.43-2.77-0.83-3.47-1.21c-0.05-0.03-0.08-0.08-0.08-0.13
		c-1.23-0.08-2.33,0.17-3.44,0.74c0.33,0.53,1.02,1.08,1.64,1.42L10.31,13.52z"/>
	<path class="st3" d="M11.52,15.2c0.8,0.02,1.91-0.21,2.9-0.41c0.45-0.09,0.88-0.18,1.26-0.24c-0.07-0.31-0.1-0.63-0.1-0.96
		c0,0,0-0.01,0-0.01c-1.02,0.42-2.21,0.53-3.16,0.53c-0.82,0-1.46-0.08-1.66-0.13c-0.19,0-0.31-0.06-0.4-0.1
		c-0.04-0.02-0.08-0.03-0.11-0.04l0.02-0.09c-0.32-0.06-0.75-0.2-0.92-0.14c0.03,0.05,0.89,1.36,2.07,1.63
		C11.44,15.22,11.48,15.2,11.52,15.2z"/>
	<path class="st3" d="M12.15,11.29c0.05-0.04,0.12-0.05,0.18-0.01c0.67,0.37,1.8,0.76,3.38,1.18c0.05-0.21,0.12-0.41,0.2-0.61
		c-1-0.62-2.25-1.81-2.86-2.73c0-0.01-0.01-0.02-0.01-0.02c-0.68-0.16-1.37-0.32-1.95-0.72C10.58,9.39,11.27,10.64,12.15,11.29z"/>
	<path class="st3" d="M13.34,8.93c0.58,0.88,1.76,2.01,2.72,2.61c0.17-0.35,0.39-0.68,0.64-0.97c-0.02-0.06-0.04-0.13-0.07-0.2
		c-0.25-0.74-0.59-1.75-1.11-2.19c-0.16-0.13-0.33-0.26-0.52-0.41c-0.44-0.34-0.94-0.72-1.27-1.12c-0.05-0.06-0.05-0.14-0.01-0.2
		c-0.06-0.12-0.11-0.25-0.2-0.33c-1.04,0.56-0.81,1.84-0.34,2.74C13.25,8.86,13.31,8.88,13.34,8.93z"/>
	<path class="st3" d="M17.43,5.37c0.28,1.1,0.95,2.7,1.78,3.69c0.14-0.03,0.28-0.05,0.42-0.07c-0.11-1.03-0.15-2.81,0.12-3.95
		c0.01-0.04,0.03-0.07,0.06-0.09c-0.3-1.11-0.89-2.25-1.78-2.98c-0.7,0.94-0.88,2.16-0.71,3.29C17.37,5.27,17.41,5.31,17.43,5.37z"
		/>
	<path class="st3" d="M24.44,6.75c-0.68,0.74-1.39,1.65-2.01,2.46l-0.16,0.21c0.41,0.2,0.79,0.47,1.12,0.78
		c1.3-0.54,2.49-1.75,3.12-2.74c0.03-0.05,0.1-0.08,0.16-0.07c0.29-0.49,0.53-1.11,0.91-1.46c-1.04-0.36-2.27-0.12-3.1,0.67
		C24.49,6.65,24.48,6.71,24.44,6.75z"/>
	<path class="st3" d="M26.8,7.64c-0.64,1.01-1.84,2.23-3.15,2.82c0.2,0.22,0.38,0.46,0.54,0.72c0.8-0.91,1.89-1.66,3.08-2.14
		c0.02-0.01,0.04-0.01,0.05-0.01c0.24-1.05,1.02-0.89,1.84-0.82c-0.35-1.04-1.52-1.09-2.35-0.71C26.83,7.54,26.83,7.59,26.8,7.64z"
		/>
	<path class="st3" d="M20.07,5.12c-0.26,1.08-0.21,2.86-0.11,3.84c0.09,0,0.18-0.01,0.27-0.01c0.12,0,0.25,0.01,0.37,0.02
		c0.29-1,0.87-2.66,1.71-3.71c0.01-0.01,0.02-0.01,0.03-0.02c-0.04-0.7-0.13-1.4,0.1-2.07C21.16,3,20.37,3.91,20.01,4.94
		C20.06,4.98,20.09,5.05,20.07,5.12z"/>
	<path class="st3" d="M22.56,5.46C21.75,6.47,21.18,8.14,20.93,9c0.36,0.05,0.71,0.15,1.03,0.28l0.21-0.27
		c0.63-0.81,1.34-1.73,2.03-2.48c0.03-0.03,0.08-0.05,0.12-0.05c0.17-0.63,0.48-1.26,0.99-1.67c-0.82-0.86-2.01-0.23-2.73,0.49
		C22.6,5.34,22.59,5.41,22.56,5.46z"/>
	<path class="st3" d="M23.41,21.29c-0.12-0.75-0.54-1.92-1.25-3.48c-0.22,0.1-0.45,0.19-0.69,0.25c0.15,1.22,0.04,2.8-0.28,3.83
		c0,0.01-0.01,0.02-0.02,0.03c0.31,0.62,0.62,1.26,0.67,1.94c1.15-0.21,1.59-1.43,1.62-2.47C23.44,21.36,23.42,21.33,23.41,21.29z"
		/>
	<path class="st3" d="M28.43,14.26c-0.02,0.01-0.04,0.01-0.06,0.01c-0.03,0-0.06-0.01-0.09-0.02c-1.05-0.63-2.32-1.1-3.45-1.27
		c0.03,0.2,0.04,0.41,0.04,0.61c0,0.33-0.04,0.65-0.1,0.97c0.09,0.04,0.18,0.08,0.27,0.12c1.01,0.43,2.16,0.93,3.03,1.48
		c0.04,0.03,0.07,0.07,0.07,0.12c0.42,0.14,0.84,0.41,1.12,0.7c0.51-0.42,0.07-1.65-0.11-1.93C28.98,14.81,28.71,14.52,28.43,14.26z
		"/>
	<path class="st3" d="M27.97,16.46c-0.03,0-0.06-0.01-0.09-0.03c-0.84-0.54-1.98-1.03-2.98-1.46c-0.08-0.03-0.15-0.06-0.22-0.09
		c-0.14,0.49-0.36,0.95-0.65,1.35c0.67,0.75,2.03,1.52,3.05,1.9c0.06,0.02,0.1,0.08,0.11,0.14c0.55,0.17,1.11,0.33,1.65,0.53
		c0.1-0.83-0.22-1.74-0.82-2.35C28.01,16.46,27.99,16.46,27.97,16.46z"/>
	<path class="st3" d="M27.03,18.45c-0.02,0-0.04,0-0.06-0.01c-1.04-0.39-2.42-1.16-3.14-1.94c-0.2,0.24-0.42,0.47-0.66,0.67
		c0.9,0.57,1.98,1.54,2.58,2.33c0,0,0,0,0,0c0.36,0.02,0.75,0.06,1.01,0.33c0.29,0.31,0.29,0.81,0.35,1.21
		c1.11-0.58,0.71-1.87-0.02-2.61C27.08,18.45,27.06,18.45,27.03,18.45z"/>
	<path class="st3" d="M29.22,11.9c-0.23-0.06-0.45-0.15-0.67-0.21c-0.03,0.03-0.08,0.06-0.13,0.05c-1.31-0.13-2.92,0.15-3.8,0.33
		c0.06,0.18,0.12,0.37,0.16,0.56c1.19,0.16,2.56,0.66,3.68,1.33c0.02,0.01,0.04,0.03,0.05,0.05c0.68-0.13,1.35-0.31,2.06-0.15
		C30.53,12.79,29.93,12.29,29.22,11.9z"/>
	<path class="st3" d="M27.49,9.19c0,0.06-0.04,0.12-0.1,0.15c-1.18,0.47-2.25,1.22-3.02,2.13c0,0-0.01,0-0.01,0.01
		c0.05,0.09,0.09,0.19,0.13,0.28c0.89-0.19,2.58-0.48,3.96-0.35c0.03,0,0.05,0.01,0.07,0.02c1.06-0.44,2.18-1.04,2.7-2.09
		C30.07,8.79,28.7,8.76,27.49,9.19z"/>
	<path class="st3" d="M25.62,19.77c-0.05,0-0.1-0.02-0.13-0.07c-0.6-0.79-1.71-1.78-2.6-2.32c-0.14,0.1-0.28,0.19-0.43,0.27
		c0.73,1.59,1.16,2.8,1.28,3.58c0.01,0.03,0,0.06-0.02,0.09c0.68,0.9,1.57,1.71,2.66,2C26.75,22.13,26.31,20.81,25.62,19.77
		C25.63,19.77,25.62,19.77,25.62,19.77z"/>
	<path class="st3" d="M12.98,18.53c0.02-0.04,0.05-0.07,0.09-0.09c0.99-0.39,2.64-1.25,3.55-1.92c-0.17-0.21-0.32-0.43-0.45-0.67
		c-0.35,0.1-0.73,0.22-1.14,0.35c-1.24,0.4-2.62,0.85-3.77,0.85c-0.06,0-0.12,0-0.17,0c-0.22,0.09-0.46,0.12-0.66,0.24
		C10.85,18.29,11.97,18.64,12.98,18.53z"/>
	<path class="st3" d="M14.83,20.53c0.82-0.83,1.79-2.36,2.25-3.53c-0.08-0.08-0.16-0.15-0.24-0.24c-0.92,0.69-2.56,1.55-3.61,1.97
		c-0.8,0.81-1.45,1.8-1.64,2.92c0.05,0.07,0.24,0.04,0.34,0.06c1.04,0.01,2.02-0.44,2.84-1.06C14.78,20.62,14.79,20.57,14.83,20.53z
		"/>
	<path class="st3" d="M10.87,16.7c1.15,0.13,2.69-0.37,4.05-0.81c0.39-0.13,0.76-0.24,1.09-0.34c-0.1-0.21-0.18-0.44-0.25-0.67
		c-0.38,0.06-0.81,0.15-1.27,0.24c-0.89,0.18-1.88,0.38-2.68,0.41c-0.48,0.41-1.32,0.19-1.69-0.23
		C9.94,15.91,10.36,16.44,10.87,16.7C10.87,16.7,10.87,16.7,10.87,16.7z"/>
	<path class="st3" d="M18.61,21.58c0.2-0.64,0.69-2.23,0.91-3.39c-0.44-0.07-0.85-0.19-1.24-0.37c-0.83,0.89-1.57,2.64-1.8,3.8
		c-0.01,0.06-0.05,0.1-0.1,0.12c-0.07,0.54-0.16,1.08-0.28,1.61c1.09,0,2.06-0.65,2.53-1.61C18.61,21.69,18.59,21.63,18.61,21.58z"
		/>
	<path class="st3" d="M16.16,21.54c0.23-1.2,0.96-2.93,1.81-3.89c-0.22-0.12-0.43-0.26-0.63-0.42c-0.48,1.18-1.4,2.61-2.21,3.47
		c0.08,0.69-0.78,1.03-1.4,1.12c0.66,0.93,1.8,0.55,2.44-0.18C16.16,21.61,16.15,21.58,16.16,21.54z"/>
	<path class="st3" d="M20.88,21.79c0.31-0.97,0.42-2.48,0.28-3.65c-0.3,0.06-0.61,0.09-0.93,0.09c-0.13,0-0.25-0.01-0.37-0.02
		c-0.23,1.19-0.72,2.8-0.93,3.46c-0.01,0.04-0.03,0.06-0.06,0.08c0.06,0.56-0.05,1.14-0.29,1.64c0.43,0.3,1.36,0.09,1.68-0.28
		c0.28-0.33,0.5-0.76,0.67-1.17C20.88,21.91,20.86,21.85,20.88,21.79z"/>
</g>
</svg>
