<svg id="Layer_1" data-name="Layer 1" xmlns="http://www.w3.org/2000/svg" viewBox="0 0 168.03 114.11"><defs><style>.cls-1,.cls-2{fill:#00758f;}.cls-1,.cls-4{fill-rule:evenodd;}.cls-3,.cls-4{fill:#f29111;}</style></defs><title>mysql</title><path class="cls-1" d="M585.87,359.77a7.47,7.47,0,0,0-1.92.23v.09H584a15.8,15.8,0,0,0,1.5,1.92c.38.75.7,1.5,1.08,2.24l.09-.09a2.63,2.63,0,0,0,1-2.34,10.55,10.55,0,0,1-.56-1c-.28-.47-.89-.7-1.26-1.08" transform="translate(-471.01 -348.2)"/><path class="cls-2" d="M511.41,452.15h-6.48q-.34-16.41-1.89-30.87H503l-9.87,30.87h-4.94l-9.81-30.87h-.06q-1.09,13.89-1.38,30.87H471q.57-20.66,2.87-38.74h8l9.35,28.46h.06l9.41-28.46h7.69q2.53,21.17,3,38.74" transform="translate(-471.01 -348.2)"/><path class="cls-2" d="M539.52,423.58q-4,21.49-10.44,31.23Q524,462.31,518,462.31a10.91,10.91,0,0,1-4-1v-3.45a18.79,18.79,0,0,0,2.7.17,6.52,6.52,0,0,0,4.53-1.55,5.66,5.66,0,0,0,2.06-4.25,28.3,28.3,0,0,0-1.61-6.6l-7.12-22.09H521l5.11,16.52q1.72,5.63,1.43,7.86a107.9,107.9,0,0,0,5.85-24.39Z" transform="translate(-471.01 -348.2)"/><polygon class="cls-3" points="154.82 103.96 136.4 103.96 136.4 65.22 142.6 65.22 142.6 99.19 154.82 99.19 154.82 103.96"/><path class="cls-4" d="M602.59,453.09l-7.12-3.51a13.35,13.35,0,0,0,1.78-1.73q4.53-5.33,4.54-15.78,0-19.22-15.09-19.23-7.4,0-11.54,4.88-4.54,5.34-4.53,15.72,0,10.21,4,15,3.67,4.3,11.08,4.3a17.85,17.85,0,0,0,5.07-.68l9.27,5.4Zm-23.07-8.68q-2.35-3.79-2.35-12.16,0-14.63,8.89-14.63a7.47,7.47,0,0,1,6.83,3.5q2.35,3.79,2.35,12.05,0,14.75-8.89,14.75a7.46,7.46,0,0,1-6.83-3.5" transform="translate(-471.01 -348.2)"/><path class="cls-3" d="M567.92,441.42a10.28,10.28,0,0,1-3.61,8.09q-3.61,3.15-9.69,3.15a19.43,19.43,0,0,1-11-3.62l1.66-3.33a18.88,18.88,0,0,0,8.32,2.29,8.73,8.73,0,0,0,5.48-1.54,5.27,5.27,0,0,0,2.11-4.3c0-2.3-1.6-4.27-4.55-5.92-2.72-1.49-8.15-4.6-8.15-4.6-2.94-2.15-4.42-4.45-4.42-8.24a9.63,9.63,0,0,1,3.3-7.6,12.44,12.44,0,0,1,8.52-2.9,17.64,17.64,0,0,1,9.81,2.87l-1.5,3.32a19,19,0,0,0-7.46-1.6,6.64,6.64,0,0,0-4.59,1.44,4.8,4.8,0,0,0-1.74,3.67c0,2.29,1.64,4.28,4.66,6,2.75,1.49,8.31,4.66,8.31,4.66,3,2.14,4.53,4.43,4.53,8.19" transform="translate(-471.01 -348.2)"/><path class="cls-1" d="M633.61,400.44a21.64,21.64,0,0,0-9.08,1.31c-.7.28-1.82.28-1.92,1.17.38.37.42,1,.75,1.5a10.92,10.92,0,0,0,2.43,2.85c1,.75,2,1.5,3,2.15,1.82,1.13,3.88,1.78,5.66,2.9,1,.65,2.06,1.5,3.09,2.2.51.37.84,1,1.5,1.21v-.14c-.33-.42-.42-1-.75-1.5s-.94-.89-1.41-1.35A22.3,22.3,0,0,0,632,408c-1.5-1-4.78-2.44-5.38-4.16l-.09-.1a18.81,18.81,0,0,0,3.23-.75c1.59-.42,3-.33,4.68-.75.75-.19,1.5-.42,2.25-.65v-.42c-.85-.84-1.45-2-2.34-2.76a62.67,62.67,0,0,0-7.72-5.76c-1.45-.94-3.33-1.54-4.87-2.34-.56-.28-1.49-.42-1.82-.89a18.78,18.78,0,0,1-1.92-3.6c-1.36-2.57-2.67-5.42-3.84-8.14a50.05,50.05,0,0,0-2.39-5.33c-4.82-8-10.06-12.78-18.11-17.5a22.43,22.43,0,0,0-6-1.92c-1.17,0-2.34-.14-3.51-.19a18.67,18.67,0,0,1-2.15-1.64c-2.67-1.68-9.55-5.33-11.51-.51-1.26,3,1.87,6,2.95,7.58a21.93,21.93,0,0,1,2.38,3.51c.33.8.42,1.64.75,2.48a55.79,55.79,0,0,0,2.43,6.27,22.13,22.13,0,0,0,1.73,2.9c.38.52,1,.75,1.17,1.59-.65.93-.7,2.34-1.08,3.51-1.68,5.29-1,11.84,1.36,15.73.75,1.17,2.53,3.75,4.92,2.76,2.11-.84,1.64-3.51,2.25-5.85.14-.57,0-.94.33-1.31v.09c.65,1.31,1.31,2.57,1.92,3.88a26.71,26.71,0,0,0,6.09,6.27c1.12.85,2,2.29,3.41,2.81v-.14H601a5.15,5.15,0,0,0-1.08-.93,23,23,0,0,1-2.43-2.81,59.91,59.91,0,0,1-5.24-8.52c-.75-1.45-1.4-3-2-4.49-.28-.56-.28-1.4-.75-1.68a17.56,17.56,0,0,0-2.25,3.18c-.89,2-1,4.5-1.31,7.07-.19,0-.09,0-.19.09-1.5-.37-2-1.92-2.57-3.22a20.25,20.25,0,0,1-.42-12.5c.33-1,1.73-4.07,1.17-5-.28-.89-1.22-1.4-1.73-2.11a18.53,18.53,0,0,1-1.68-3c-1.12-2.62-1.69-5.52-2.9-8.14a25,25,0,0,0-2.34-3.6,23.17,23.17,0,0,1-2.58-3.65c-.23-.52-.56-1.36-.19-1.92a.75.75,0,0,1,.66-.61c.61-.51,2.34.14,2.95.42a23.78,23.78,0,0,1,4.63,2.34c.66.47,1.36,1.36,2.2,1.59h1c1.5.32,3.18.09,4.59.51a30,30,0,0,1,6.74,3.23,41.53,41.53,0,0,1,14.6,16c.56,1.07.8,2.06,1.31,3.18,1,2.3,2.2,4.64,3.18,6.88a30.77,30.77,0,0,0,3.33,6.27c.7,1,3.51,1.5,4.77,2a33.51,33.51,0,0,1,3.23,1.31c1.59,1,3.18,2.11,4.68,3.18.75.56,3.09,1.73,3.23,2.67" transform="translate(-471.01 -348.2)"/><path class="cls-3" d="M638.07,452.15h1V447.4h-1.46l-1.19,3.24-1.29-3.24h-1.4v4.75h.92v-3.61h.05l1.35,3.61h.7l1.35-3.61Zm-7.81,0h1v-3.94h1.34v-.81h-3.77v.81h1.4Z" transform="translate(-471.01 -348.2)"/></svg>