<?xml version="1.0" encoding="utf-8"?>
<!-- Generator: Adobe Illustrator 20.1.0, SVG Export Plug-In . SVG Version: 6.00 Build 0)  -->
<svg version="1.1" xmlns="http://www.w3.org/2000/svg" xmlns:xlink="http://www.w3.org/1999/xlink" x="0px" y="0px"
	 viewBox="0 0 437.28 100.6" style="enable-background:new 0 0 437.28 100.6;" xml:space="preserve">
<style type="text/css">
	.st0{fill:#009639;}
</style>
<g id="Layer_1">
</g>
<g id="Tweaks">
	<g>
		<path class="st0" d="M72.27,88.51c3.32,4.12,8.75,6.02,13.46,6.02c6.57,0,11.21-4.34,11.21-9.59l0.01-68.06
			c0-5.28-4.32-9.6-9.6-9.6h-0.54c-5.28,0-9.6,4.32-9.6,9.6l0,49.37L32.97,13.3c-3.32-4.12-8.75-6.02-13.46-6.02
			c-6.57,0-11.21,4.34-11.21,9.59L8.29,84.93c0,5.28,4.32,9.6,9.6,9.6h0.54c5.28,0,9.6-4.32,9.6-9.6l0-49.37L72.27,88.51z"/>
		<g>
			<path class="st0" d="M426.16,77.77L399.29,50.9l26.87-26.87c3.73-3.73,3.73-9.84,0-13.58l-0.39-0.39
				c-3.73-3.73-9.84-3.73-13.57,0l-23.51,23.51l-1.64,1.64l-1.01,1.01c-0.39,0.39-1.02,0.39-1.41,0l-1.23-1.23l-1.42-1.42
				l-23.51-23.51c-3.73-3.73-9.84-3.73-13.58,0l-0.39,0.39c-3.73,3.73-3.73,9.84,0,13.57l26.87,26.87L344.5,77.77
				c-3.73,3.73-3.73,9.84,0,13.58l0.39,0.39c3.73,3.73,9.84,3.73,13.57,0l23.51-23.51l1.62-1.62l1.03-1.03
				c0.39-0.39,1.02-0.39,1.41,0l0.65,0.65l2,2l23.51,23.51c3.73,3.73,9.84,3.73,13.58,0l0.39-0.39
				C429.9,87.61,429.9,81.51,426.16,77.77z"/>
		</g>
		<path class="st0" d="M268.12,88.51c-3.32,4.12-8.75,6.02-13.46,6.02c-6.57,0-11.21-4.34-11.21-9.59l-0.01-68.06
			c0-5.28,4.32-9.6,9.6-9.6h0.54c5.28,0,9.6,4.32,9.6,9.6l0,49.37l44.24-52.94c3.32-4.12,8.75-6.02,13.46-6.02
			c6.57,0,11.21,4.34,11.21,9.59l0.01,68.06c0,5.28-4.32,9.6-9.6,9.6h-0.54c-5.28,0-9.6-4.32-9.6-9.6l0-49.37L268.12,88.51z"/>
		<path class="st0" d="M230.26,16.5c0-5.08-3.91-9.23-8.68-9.23s-8.68,4.15-8.68,9.23v22.39c0,0.55,0.45,1,1,1h15.35
			c0.55,0,1-0.45,1-1L230.26,16.5z"/>
		<path class="st0" d="M230.25,48.92c0-0.55-0.45-1-1-1H213.9c-0.55,0-1,0.45-1,1l0,36.66c0,4.92,3.9,8.95,8.68,8.95
			s8.68-4.03,8.68-8.95L230.25,48.92z"/>
		<path class="st0" d="M205.06,47.92h-54.72c-5.05,0-9.19,3.44-9.19,8.26s4.13,8.24,9.19,8.24h27.54l-7.37,12.54
			c-0.5,0.84-1.07,1.14-2.04,1.14l-26.87,0c-1.11,0.01-1.6-0.32-2.11-1.25l-13.73-25.1c-0.44-0.79-0.47-1.41-0.02-2.22l13.76-24.46
			c0.49-0.91,1.07-1.26,2.11-1.25l26.92,0c1.07,0,1.72,0.33,2.28,1.25l8.25,13.91c0.38,0.62,0.76,0.93,1.57,0.92l19.06,0
			L181.24,8.95C180.77,8.17,180.21,8,179.37,8L130.05,8c-1.09,0-1.66,0.35-2.18,1.31l-21.51,39.68c-0.61,1.11-0.65,1.93-0.01,3.06
			l22.7,40.86c0.53,0.96,1.14,1.27,2.21,1.27l47.18,0c1.13,0,1.75-0.32,2.3-1.34L205.06,47.92z"/>
	</g>
</g>
</svg>
