<?xml version="1.0" encoding="utf-8"?>
<!-- Generator: Adobe Illustrator 20.1.0, SVG Export Plug-In . SVG Version: 6.00 Build 0)  -->
<svg version="1.1" id="Layer_1" xmlns="http://www.w3.org/2000/svg" xmlns:xlink="http://www.w3.org/1999/xlink" x="0px" y="0px"
	 viewBox="0 0 32 32" style="enable-background:new 0 0 32 32;" xml:space="preserve">
<style type="text/css">
	.st0{fill:#ED1844;}
</style>
<path id="Fill-26" class="st0" d="M29.03,0.34H2.97C1.34,0.34,0,1.68,0,3.31v7.01h7.23V9.18c0-0.89,0.72-1.61,1.61-1.61h14.33
	c0.89,0,1.61,0.72,1.61,1.61v1.14H32V3.31C32,1.68,30.66,0.34,29.03,0.34z"/>
<path id="Fill-28" class="st0" d="M24.77,22.82c0,0.89-0.72,1.61-1.61,1.61H8.83c-0.89,0-1.61-0.72-1.61-1.61v-1.14H0v7.01
	c0,1.64,1.34,2.97,2.97,2.97h26.05c1.64,0,2.97-1.34,2.97-2.97v-7.01h-7.23V22.82z"/>
<polygon id="Fill-30" class="st0" points="0,19.61 7.23,19.61 7.23,12.39 0,12.39 "/>
<polygon id="Fill-32" class="st0" points="24.77,19.61 32,19.61 32,12.39 24.77,12.39 "/>
</svg>
