<?xml version="1.0" encoding="UTF-8"?>
<svg id="uuid-a749a390-70b7-4799-a21f-710c7262efe2"
	xmlns="http://www.w3.org/2000/svg" viewBox="0 0 38 38">
	<defs>
		<style>.uuid-5e11f11b-3126-4566-8f81-fea0df077e5d{fill:#e00;}.uuid-67f9f3e7-b465-44b3-8fd2-3cbfa62cad35{fill:#fff;}.uuid-498079cb-8749-435b-92e1-7b9cc8be4a84{fill:#4d4d4d;}</style>
	</defs>
	<rect x="1" y="1" width="36" height="36" rx="9" ry="9"/>
	<path class="uuid-498079cb-8749-435b-92e1-7b9cc8be4a84" d="m28,2.25c4.27338,0,7.75,3.47665,7.75,7.75v18c0,4.27335-3.47662,7.75-7.75,7.75H10c-4.27338,0-7.75-3.47665-7.75-7.75V10c0-4.27335,3.47662-7.75,7.75-7.75h18m0-1.25H10C5.02942,1,1,5.02945,1,10v18c0,4.97055,4.02942,9,9,9h18c4.97058,0,9-4.02945,9-9V10c0-4.97055-4.02942-9-9-9h0Z"/>
	<path class="uuid-67f9f3e7-b465-44b3-8fd2-3cbfa62cad35" d="m10.09863,22.19043c-.23926,0-.4668-.1377-.57129-.37109-.13965-.31445.00195-.68457.31738-.8252l2.74023-1.2207c.3125-.13867.68359.00098.8252.31738.13965.31445-.00195.68457-.31738.8252l-2.74023,1.2207c-.08203.03613-.16895.05371-.25391.05371Z"/>
	<path class="uuid-67f9f3e7-b465-44b3-8fd2-3cbfa62cad35" d="m8.83105,25.49023c-.23926,0-.46777-.1377-.57129-.37109-.13965-.31543.00195-.68457.31738-.8252l2.74121-1.21973c.3125-.1377.68457.00098.8252.31738.13965.31543-.00195.68457-.31738.8252l-2.74121,1.21973c-.08203.03613-.16895.05371-.25391.05371Z"/>
	<path class="uuid-67f9f3e7-b465-44b3-8fd2-3cbfa62cad35" d="m26.42773,14.91992c-.23926,0-.46777-.1377-.57129-.37109-.13965-.31543.00195-.68457.31738-.8252l2.74121-1.2207c.3125-.13672.68457.00098.8252.31738.13965.31543-.00195.68457-.31738.8252l-2.74121,1.2207c-.08203.03613-.16895.05371-.25391.05371Z"/>
	<path class="uuid-67f9f3e7-b465-44b3-8fd2-3cbfa62cad35" d="m25.16113,18.2207c-.23926,0-.4668-.1377-.57129-.37109-.13965-.31445.00195-.68457.31738-.8252l2.74023-1.2207c.31348-.1377.68359.00098.8252.31738.13965.31445-.00195.68457-.31738.8252l-2.74023,1.2207c-.08203.03613-.16895.05371-.25391.05371Z"/>
	<path class="uuid-5e11f11b-3126-4566-8f81-fea0df077e5d" d="m18.95117,28.63379c-2.19141,0-4.35352-.75586-6.12207-2.21777-.26562-.21973-.30273-.61328-.08301-.87988s.6123-.30273.87988-.08301c2.46875,2.04102,5.82129,2.49902,8.74805,1.19727,2.9248-1.30273,4.82715-4.10059,4.96387-7.30273.01465-.34473.29297-.6543.65039-.59766.34473.01465.6123.30566.59766.65039-.15625,3.67969-2.3418,6.89551-5.7041,8.39258-1.26758.56445-2.60449.84082-3.93066.84082Z"/>
	<path class="uuid-5e11f11b-3126-4566-8f81-fea0df077e5d" d="m9.97363,19.22656c-.00879,0-.01855,0-.02832-.00098-.34473-.01562-.61133-.30762-.5957-.65234.16602-3.66797,2.35156-6.87402,5.70312-8.36621,3.36328-1.49609,7.21484-.96875,10.05273,1.37695.26562.21973.30273.61328.08301.87988s-.61328.30371-.87988.08301c-2.46973-2.04102-5.82227-2.5-8.74805-1.19727-2.91602,1.29785-4.81738,4.08789-4.96289,7.28027-.01465.33496-.29102.59668-.62402.59668Z"/>
</svg>