<?xml version="1.0" encoding="utf-8"?>
<!-- Generator: Adobe Illustrator 22.1.0, SVG Export Plug-In . SVG Version: 6.00 Build 0)  -->
<svg version="1.1" id="Unknown-Other" xmlns="http://www.w3.org/2000/svg" xmlns:xlink="http://www.w3.org/1999/xlink" x="0px"
	 y="0px" viewBox="0 0 120 120" style="enable-background:new 0 0 120 120;" xml:space="preserve">
<style type="text/css">
	.st0{fill:#07BCE5;}
</style>
<title>other-unknown</title>
<path id="unknown" class="st0" d="M60.9,85.4h-2.7c0.3-5.9,0.9-10.9,2.1-14.7c1.9-5.6,4.3-11,7.1-16.2c2.9-5.3,4.7-9.4,5.5-12.3
	c0.8-2.8,1.2-5.7,1.2-8.7c0-5.9-1.7-10.8-4.7-14.2c-2.9-3.4-7.2-5.4-11.6-5.3c-4.1,0-7.3,0.9-9.7,2.9s-3.5,4.1-3.5,6.2
	c0.2,2.3,0.9,4.4,2.1,6.4c1.4,2.6,2.1,4.4,2.1,5.8c0,1.6-0.6,3.1-1.7,4.2c-1,1.1-2.4,1.7-3.9,1.7c-2.2-0.1-4.2-1.1-5.5-2.9
	c-1.7-2-2.4-4.7-2.4-8.2c0-5.3,2.3-10,6.8-14.1c4.5-4.1,10.8-6.2,18.7-6.2c9.7,0,16.8,2.9,21.4,8.5c3.3,3.9,5.1,8.7,5.2,13.8
	c0,3.7-0.8,7.3-2.2,10.6c-1.5,3.6-4.4,7.9-8.8,12.7c-6.9,7.7-11.1,13.2-12.6,16.5C62,76.3,61.1,80.8,60.9,85.4z M59.9,94.2
	c4.3-0.1,7.8,3.4,7.9,7.7c0,0.1,0,0.1,0,0.2c0,4.4-3.6,7.9-8,7.9c-2.1,0-4-0.8-5.5-2.3c-3-3.1-3-8.1,0-11.2
	C55.8,95,57.9,94.2,59.9,94.2z"/>
</svg>
