<?xml version="1.0" encoding="utf-8"?>
<!-- Generator: Adobe Illustrator 20.1.0, SVG Export Plug-In . SVG Version: 6.00 Build 0)  -->
<svg version="1.1" id="Layer_1" xmlns="http://www.w3.org/2000/svg" xmlns:xlink="http://www.w3.org/1999/xlink" x="0px" y="0px"
	 viewBox="0 0 32 32" style="enable-background:new 0 0 32 32;" xml:space="preserve">
<style type="text/css">
	.st0{fill:#41436D;}
</style>
<path class="st0" d="M32,18c0,0.83-0.05,1.42-0.16,1.75C31.74,20.1,31.46,20.52,31,21c-0.25,0.25-0.5,0.01-0.75-0.72
	C30.08,19.8,30,19.37,30,19v-4c0-0.4-0.15-0.43-0.44-0.09C29.33,15.18,29.14,15.54,29,16c-0.13,0.42-0.27,1.09-0.44,2.03
	c-0.17,0.96-0.21,1.61-0.12,1.97c0.02,0.06,0.06,0.23,0.12,0.5c0.06,0.29,0.1,0.51,0.12,0.66c0.04,0.15,0.07,0.33,0.09,0.56
	c0.04,0.23,0.05,0.42,0.03,0.56s-0.07,0.26-0.16,0.34c-0.1,0.13-0.16,0.22-0.16,0.28c-0.02,0.08-0.02,0.15,0,0.19l0.22,0.22
	c0,0,0.08,0.1,0.25,0.31c0.06,0.06,0.1,0.14,0.12,0.22c0.02,0.08,0.02,0.17,0,0.25c-0.02,0.08-0.04,0.16-0.06,0.22
	c-0.02,0.06-0.05,0.14-0.09,0.22c-0.06,0.1-0.1,0.19-0.12,0.25c-0.04,0.06-0.1,0.15-0.19,0.25s-0.14,0.18-0.16,0.22
	c-0.1,0.15-0.19,0.41-0.25,0.78c-0.08,0.4-0.16,0.82-0.22,1.28c-0.06,0.46-0.1,0.74-0.12,0.84c-0.06,0.27-0.02,0.65,0.12,1.12
	c0.15,0.5,0.31,0.86,0.5,1.09c0.06,0.1,0.06,0.22,0,0.34c-0.06,0.13-0.17,0.26-0.31,0.41c-0.15,0.17-0.29,0.31-0.44,0.44
	c-0.15,0.13-0.27,0.23-0.38,0.31L27.18,32h-1.59c-0.04-0.77,0.02-1.31,0.19-1.62c0.02-0.04,0.31-0.57,0.88-1.59
	c0.31-0.54,0.51-1.5,0.59-2.88c0.04-0.21,0.05-0.42,0.03-0.62c-0.04-0.21-0.16-0.44-0.34-0.69c-0.13-0.25-0.18-0.5-0.16-0.75
	c0.04-0.25,0.1-0.54,0.19-0.88c0.08-0.33,0.12-0.55,0.12-0.66c-0.06-0.58-0.3-1.02-0.72-1.31c-0.21-0.17-0.36-0.58-0.47-1.25
	s-0.17-1.03-0.19-1.09c-0.15-0.38-0.23-1.04-0.25-2c-1.04,1.63-1.78,2.84-2.22,3.66c-0.15,0.27-0.22,0.7-0.22,1.28
	c-0.02,0.58,0.01,0.93,0.09,1.03c0,0.02,0.02,0.06,0.06,0.12c0.04,0.08,0.06,0.14,0.06,0.16c0.02,0.04,0.04,0.09,0.06,0.16
	c0.02,0.08,0.03,0.15,0.03,0.19c-0.02,0.04-0.05,0.09-0.09,0.16c-0.04,0.08-0.1,0.16-0.19,0.22c-0.25,0.19-1.3,1.35-3.16,3.5
	c0.81,0.56,1.25,0.91,1.31,1.03c0.15,0.23,0.21,0.49,0.19,0.78c-0.02,0.31-0.11,0.58-0.28,0.81c-0.17,0.21-0.4,0.27-0.69,0.19
	c-0.31-0.1-0.47-0.27-0.47-0.5c0.02-0.35-0.26-0.82-0.84-1.41c-0.21,0.29-0.34,0.57-0.41,0.84c-0.08,0.27-0.05,0.46,0.09,0.56
	c0.1,0.06,0.12,0.15,0.06,0.25s-0.16,0.19-0.28,0.25l-0.22,0.12h-1.94c-0.38,0.08-0.63-0.02-0.75-0.31
	c-0.06-0.13-0.01-0.24,0.16-0.34c0.17-0.1,0.42-0.21,0.75-0.31c0.33-0.13,0.56-0.22,0.69-0.28c0.31-0.19,0.75-0.6,1.31-1.25
	c-0.31-0.27-0.99-0.84-2.03-1.72c-1.04-0.88-1.66-1.4-1.84-1.56c-0.25-0.27-0.36-0.66-0.34-1.16c0.04-0.52,0.19-0.91,0.44-1.16
	c0.08-0.06,0.16-0.15,0.22-0.25c0.06-0.1,0.1-0.19,0.12-0.25c0.04-0.08,0.07-0.19,0.09-0.31c0.02-0.13,0.03-0.22,0.03-0.28v-0.53
	c0.02-0.13,0.08-0.29,0.19-0.5l0.25-0.53L15.75,19c-0.13-0.08-0.43-0.08-0.91,0c-0.48,0.08-0.84,0.2-1.09,0.34
	c-0.15,0.08-0.22,0.23-0.22,0.44c-0.02,0.21,0,0.45,0.06,0.72c0.06,0.27,0.09,0.44,0.09,0.5c-0.02,0.31-0.3,0.75-0.84,1.31
	c-0.19,0.17-0.33,0.49-0.44,0.97c-0.13,0.48-0.14,0.81-0.03,1c0.08,0.15,0.15,0.3,0.19,0.47c0.04,0.19,0.05,0.35,0.03,0.5
	c-0.04,0.17-0.14,0.27-0.28,0.31c-0.21,0.06-0.47,0.51-0.78,1.34c-0.33,0.85-0.5,1.49-0.5,1.91c-0.04,1.17-0.2,1.8-0.47,1.91
	c-0.19,0.06-0.29,0.17-0.31,0.31c-0.04,0.15,0.06,0.25,0.31,0.31c0.23,0.06,0.34,0.27,0.34,0.62H7.03C7.01,31.99,6.98,32,6.94,32
	c-0.06,0-0.13-0.02-0.19-0.06c-0.06-0.04-0.09-0.14-0.09-0.28c0-0.19,0.25-0.38,0.75-0.56c0.5-0.21,0.91-0.33,1.22-0.38
	c0.19-0.04,0.47-0.44,0.84-1.19c0.4-0.75,0.67-1.42,0.81-2c0.06-0.56,0.08-1.03,0.06-1.41c-0.02-0.4-0.07-0.92-0.16-1.56
	c-0.1-0.67-0.16-1.08-0.16-1.25c-0.13-2.31-0.08-3.64,0.12-3.97c0.17-0.19,0.23-0.43,0.19-0.72c-0.04-0.31-0.22-0.52-0.53-0.62
	c-0.27-0.06-0.57,0.08-0.91,0.44C8.55,18.82,8.31,19,8.19,19c-0.15,0-0.28-0.02-0.41-0.06c-0.15-0.06-0.25-0.13-0.31-0.19
	l-0.09-0.06c-0.15,0.04-0.41,0.04-0.78,0c-0.17-0.02-0.31-0.08-0.44-0.19c-0.15-0.13-0.24-0.24-0.28-0.34L5.81,18
	c-0.52-0.27-0.92-0.49-1.19-0.66c-0.13-0.08-0.22-0.18-0.28-0.28c-0.06-0.13-0.09-0.22-0.09-0.28v-0.12
	C3.77,16.45,3.37,16.23,3.06,16c-0.17-0.13-0.3-0.33-0.41-0.62c-0.1-0.31-0.23-0.55-0.38-0.72c-0.15-0.17-0.23-0.48-0.25-0.94
	C1.99,13.26,1.98,12.74,2,12.16c0.02-0.58,0.02-0.97,0-1.16c-0.04-0.63,0.01-1.28,0.16-1.97C2.32,8.35,2.6,8,3,8l0,0l0,0H0V7.81
	l0.06-0.5C0.1,7,0.16,6.8,0.22,6.72c0.06-0.08,0.16-0.25,0.28-0.5C0.65,5.99,0.81,5.92,1,6h3c0.1-0.15,0.23-0.32,0.38-0.53
	s0.4-0.5,0.75-0.88C5.48,4.22,5.77,4.02,6,4c0.33-0.04,0.84-0.05,1.53-0.03C8.22,4.01,8.71,4.12,9,4.28c0.19,0.1,0.31,0.27,0.38,0.5
	s0.08,0.44,0.06,0.62L9.37,5.69c0.31,0.19,0.57,0.53,0.78,1.03c0.06,0.35,0.08,0.61,0.06,0.78c-0.04,0.17-0.13,0.44-0.25,0.81
	C9.82,8.69,9.73,8.97,9.69,9.16c-0.06,0.27-0.23,0.8-0.5,1.59c-0.27,0.81-0.41,1.31-0.41,1.5c-0.02,0.17,0.07,0.3,0.28,0.41
	c0.21,0.13,0.41,0.21,0.59,0.25l0.31,0.03c-0.08-0.92-0.06-1.6,0.06-2.06c0.04-0.19,0.19-0.43,0.44-0.72
	c0.27-0.29,0.58-0.6,0.94-0.94c0.35-0.35,0.59-0.6,0.72-0.75c0.44-0.5,1.42-1.2,2.94-2.09c0.15-0.08,0.27-0.16,0.38-0.22
	c0.1-0.08,0.18-0.16,0.22-0.22c0.06-0.06,0.13-0.15,0.19-0.25c0.08-0.13,0.14-0.21,0.16-0.25c0.04-0.06,0.1-0.19,0.19-0.38
	c0.08-0.19,0.15-0.33,0.19-0.44c0.38-0.83,2.05-1.66,5.03-2.47c1.58-0.44,3.06,0.03,4.44,1.41c0.29,0.29,0.54,0.89,0.75,1.78
	c0.21,0.9,0.44,1.48,0.69,1.75c0.35,0.38,0.74,0.95,1.16,1.72c0.44,0.79,0.78,1.48,1.03,2.06c0.15,0.4,0.52,0.9,1.12,1.5
	s0.97,1.02,1.09,1.25C31.9,13.98,32.01,15.44,32,18L32,18z M19.72,19c-0.1,0.15-0.18,0.43-0.22,0.84c-0.06,0.44-0.15,0.71-0.25,0.81
	c-0.06,0.06-0.11,0.13-0.16,0.19c-0.04,0.08-0.07,0.18-0.09,0.28c-0.04,0.1-0.07,0.19-0.09,0.25c-0.02,0.06-0.04,0.16-0.06,0.28
	c-0.02,0.15-0.04,0.25-0.06,0.31c-0.04,0.25-0.29,0.54-0.75,0.88c-0.48,0.35-0.92,0.61-1.31,0.78c-0.08,0.02-0.15,0.05-0.19,0.09
	c-0.06,0.04-0.1,0.08-0.12,0.12c-0.02,0.06-0.03,0.1-0.03,0.12c-0.02,0.04-0.02,0.09,0,0.16c0.04,0.06,0.07,0.1,0.09,0.12l0.09,0.19
	c0.06,0.08,0.1,0.14,0.12,0.16c0.27,0.42,1.14,1.12,2.59,2.12c0.23-0.35,0.49-0.81,0.78-1.38c0.31-0.58,0.56-1.07,0.75-1.47
	l0.28-0.59c-0.15-1.17-0.24-1.93-0.28-2.28c0-0.13-0.01-0.51-0.03-1.16c-0.02-0.67-0.04-1.19-0.06-1.56
	C20.22,18.55,19.88,18.79,19.72,19L19.72,19z"/>
</svg>
