<?xml version="1.0" encoding="utf-8"?>
<!-- Generator: Adobe Illustrator 20.1.0, SVG Export Plug-In . SVG Version: 6.00 Build 0)  -->
<svg version="1.1" id="Layer_1" xmlns="http://www.w3.org/2000/svg" xmlns:xlink="http://www.w3.org/1999/xlink" x="0px" y="0px"
	 viewBox="0 0 32 32" style="enable-background:new 0 0 32 32;" xml:space="preserve">
<style type="text/css">
	.st0{fill:#73B08F;}
	.st1{fill:#C5E4D3;}
	.st2{fill:#76C39B;}
	.st3{stroke:#000000;stroke-width:1.122;}
	.st4{stroke:#000000;stroke-width:0.3;}
</style>
<path class="st0" d="M24.33,15.34l-1.95-3.92L23,14.04L24.33,15.34z"/>
<path class="st1" d="M22.05,10.04l1.5,6.35l-4.83-5.11l-7.04-6.57L9.88,0L22.05,10.04z"/>
<path class="st2" d="M19.1,11.44l-6.33-3.03L9.32,4.7L8.87,2.25L19.1,11.44L19.1,11.44z"/>
<path class="st3" d="M6.84,10.75l-0.56-0.06L4.33,9.97l3.99,3.66l1.05,0.81l4.18,1.39L6.84,10.75L6.84,10.75z"/>
<path class="st2" d="M23.22,16.4l-0.08,3.24l-0.31-0.53l-1.81-0.12l-4.18-2.4l0.96-1.68L23.22,16.4L23.22,16.4z"/>
<path class="st1" d="M6.22,12.83l5.2,3.97l5.4,1.8l4.16,0.38l-4.14-2.4L6.22,12.83L6.22,12.83z"/>
<path class="st2" d="M8.74,15.99l3.61,2l4.2,0.42l-5.08-1.58l-0.82-0.51L8.74,15.99L8.74,15.99z"/>
<path class="st0" d="M16.77,18.33l-5.91-0.52l3.04,1.17l2,0.27L16.77,18.33L16.77,18.33z"/>
<path class="st2" d="M15.43,19.25l-0.51,0.07l-2.37,0.34l1.16-0.79L15.43,19.25L15.43,19.25z M19.22,19.76l-0.12,0.21l-8.65,5.01
	l-1.71,2.26l0.61-2.43l1.88-2.58l5.38-3.63L19.22,19.76L19.22,19.76z"/>
<path d="M9.76,22.23l-1.52,2v-0.87L9.76,22.23L9.76,22.23z"/>
<path class="st1" d="M22.31,20.11l-5.78,3.92l-0.48-0.82l-2,4.23l0.45,0.62l0.34,3.92l-2.43-4.49l1.98-4.85l4.82-2.99L22.31,20.11
	L22.31,20.11z"/>
<path d="M14.39,22.56l-3.87,2.09l-0.11,2.88l1.19,3.87v-1.98L14.39,22.56L14.39,22.56z"/>
<path class="st0" d="M9.59,28.09l0.06,0.2l0.51,2.14l-0.68-0.42L9.59,28.09L9.59,28.09z M16.63,23.76l-0.52-0.64l-2.17,4.1
	l3.45,4.51l-0.85-2.01L16.63,23.76L16.63,23.76z"/>
<path class="st2" d="M17.04,23.51l-0.45,0.24l-0.03,4.91l0.85,1.78l1.58-0.59l-0.06-1.18l-1.72-1.69L17.04,23.51L17.04,23.51z"/>
<path d="M24.83,20.05l-2.62,0.73l-2.85,2.43l-1.55-0.06l4.49-3.02L24.83,20.05L24.83,20.05z"/>
<path class="st0" d="M23.75,20.37l-0.82-1.51l-7.4-0.58l3.32,1.38L23.75,20.37L23.75,20.37z M19.44,23.11l0.37,0.87l0.79,0.57h0.14
	l-0.06,0.92l-2.43,1.01l-0.82-1.88l-0.23-1.1l0.73-0.6L19.44,23.11L19.44,23.11z"/>
<path d="M20.73,27.98l-1.47-0.65l-0.56,1.16l0.2,0.28l-0.03,1.24l1.07,1.21l-0.17-2.29l0.25-0.11l0.85,0.82l-0.39-0.93l-0.9-0.48
	l0.2-0.34l0.96,0.42L20.73,27.98L20.73,27.98z M21.1,23.16l-0.56,1.35l0.11,1.16l1.16,1.44l-0.14-2.31l0.17-0.11l0.9,0.79
	l-0.37-0.87l-1.02-0.54l0.17-0.28l1.04,0.45l-0.03-0.39L21.1,23.16L21.1,23.16z"/>
<path class="st1" d="M26.32,17.17l-3.13-0.73v2.93l0.37,0.65l2.77,0.03l2.62,0.9l-0.08-0.37l-1.61-0.93l-3.22-1.27l1.83-0.03
	l-1.78-0.82L26.32,17.17L26.32,17.17z"/>
<path class="st0" d="M29.97,19.86l-1.18-1.92l-2.71-0.82l-2.14,0.4l1.69,0.85l-1.58,0.06l2.96,1.27l1.69,0.82L29.97,19.86
	L29.97,19.86z"/>
<path d="M28.43,22.14l0.45-0.68l-0.34-0.87l1.41-0.79l0.03,1.61l-0.85,0.76L28.43,22.14L28.43,22.14z"/>
<path class="st4" d="M29.56,19.62l-0.97-0.45l-0.52,0.45"/>
<path d="M23.94,16.67l-5.97-1.52L6.48,8.54L2,2.39l17.23,9.14L23.94,16.67L23.94,16.67z"/>
<path class="st0" d="M17.7,14.97v0.18l-0.77,1.44l-4.03-1.32L5.41,9.65L2.49,5.47l3.34,2l0.51,0.79L17.7,14.97L17.7,14.97z"/>
</svg>
