<svg id="Layer_1" data-name="Layer 1" xmlns="http://www.w3.org/2000/svg" xmlns:xlink="http://www.w3.org/1999/xlink" viewBox="0 0 32 16.825"><defs><style>.cls-1{fill:none;}.cls-2{clip-path:url(#clip-path);}.cls-3{fill:url(#radial-gradient);}.cls-4{clip-path:url(#clip-path-2);}.cls-5{fill:#777bb3;}.cls-6,.cls-7{fill:#fff;}.cls-6{stroke:#fff;stroke-miterlimit:10;stroke-width:0.5px;}</style><clipPath id="clip-path" transform="translate(0 -7.6)"><path class="cls-1" d="M0,16.0125c0,4.65,7.1625,8.4125,16,8.4125s16-3.7625,16-8.4125S24.8375,7.6,16,7.6,0,11.3625,0,16.0125"/></clipPath><radialGradient id="radial-gradient" cx="-516.0276" cy="426.7355" r="0.0463" gradientTransform="matrix(567.2813, 0, 0, -567.2813, 292742.3798, 242089.6079)" gradientUnits="userSpaceOnUse"><stop offset="0" stop-color="#aeb2d5"/><stop offset="0.3" stop-color="#aeb2d5"/><stop offset="0.75" stop-color="#484c89"/><stop offset="1" stop-color="#484c89"/></radialGradient><clipPath id="clip-path-2" transform="translate(0 -7.6)"><rect class="cls-1" x="-4.825" y="4.3" width="41.65" height="23.425"/></clipPath></defs><title>php</title><g id="g3440"><g class="cls-2"><g id="g3442"><g id="g3448"><g id="g3450"><path id="path3462" class="cls-3" d="M0,16.0125c0,4.65,7.1625,8.4125,16,8.4125s16-3.7625,16-8.4125S24.8375,7.6,16,7.6,0,11.3625,0,16.0125" transform="translate(0 -7.6)"/></g></g></g></g></g><g class="cls-4"><g id="g3466"><g id="g3472"><path id="path3474" class="cls-5" d="M16,23.8c8.4875,0,15.375-3.4875,15.375-7.7875S24.4875,8.2249,16,8.2249.625,11.7125.625,16.0125,7.5125,23.8,16,23.8" transform="translate(0 -7.6)"/></g></g></g><path class="cls-6" d="M27.1249,12.8875a3.25,3.25,0,0,0-2.575-.95H21.0125a.3367.3367,0,0,0-.3375.275l-.3083,1.5889a1.71,1.71,0,0,0-.5042-1.2263,3.4162,3.4162,0,0,0-2.35-.625h-1.2l.35-1.825a.3406.3406,0,0,0-.075-.2875A.3262.3262,0,0,0,16.325,9.7H14.5a.3367.3367,0,0,0-.3375.275l-.8112,4.18a2.4339,2.4339,0,0,0-.5638-1.2672,3.25,3.25,0,0,0-2.575-.95H6.675a.3367.3367,0,0,0-.3375.275L4.7,20.65a.34.34,0,0,0,.075.2875.3517.3517,0,0,0,.2625.125H6.875a.3367.3367,0,0,0,.3375-.275L7.6,18.825H8.8875a5.8771,5.8771,0,0,0,1.825-.2375,3.5848,3.5848,0,0,0,1.35-.8125,3.9519,3.9519,0,0,0,.7738-.9666l-.3113,1.6041A.3407.3407,0,0,0,12.6,18.7a.352.352,0,0,0,.2625.125h1.825a.3368.3368,0,0,0,.3375-.275L15.9125,14h1.175c.5375,0,.65.1125.6625.125.0375.0375.075.2,0,.5625l-.725,3.725A.3407.3407,0,0,0,17.1,18.7a.3518.3518,0,0,0,.2625.125h1.85a.3512.3512,0,0,0,.1921-.0668L19.0375,20.65a.3407.3407,0,0,0,.075.2875.3517.3517,0,0,0,.2625.125h1.8375a.3366.3366,0,0,0,.3375-.275l.375-1.9625h1.2875a5.8767,5.8767,0,0,0,1.825-.2375,3.5848,3.5848,0,0,0,1.35-.8125A3.7223,3.7223,0,0,0,27.2,16.75a4.0634,4.0634,0,0,0,.45-1.2375A2.95,2.95,0,0,0,27.1249,12.8875ZM10.75,15.2625a1.943,1.943,0,0,1-.6,1.1875,2.4287,2.4287,0,0,1-1.4375.35h-.7L8.55,13.9625h.975c.775,0,1.05.175,1.1375.275A1.3138,1.3138,0,0,1,10.75,15.2625Zm14.3375,0a1.943,1.943,0,0,1-.6,1.1875,2.4287,2.4287,0,0,1-1.4375.35h-.7l.5375-2.8375h.975c.775,0,1.05.175,1.1375.275A1.3138,1.3138,0,0,1,25.0875,15.2625Z" transform="translate(0 -7.6)"/><g id="g3484"><path id="path3486" d="M8.7,16.975a2.4806,2.4806,0,0,0,1.55-.3875A2.1132,2.1132,0,0,0,10.925,15.3a1.4,1.4,0,0,0-.125-1.175A1.7819,1.7819,0,0,0,9.5375,13.8H8.425l-.6125,3.1875H8.7ZM5.05,20.9a.2008.2008,0,0,1-.1375-.0625A.1411.1411,0,0,1,4.875,20.7l1.6375-8.4375a.1649.1649,0,0,1,.175-.1375H10.225a3.0652,3.0652,0,0,1,2.45.9,2.7757,2.7757,0,0,1,.475,2.4875,3.9868,3.9868,0,0,1-.425,1.175,3.86,3.86,0,0,1-.7875.975,3.5171,3.5171,0,0,1-1.2875.775,5.8685,5.8685,0,0,1-1.7625.225H7.4625l-.4125,2.1a.1649.1649,0,0,1-.175.1375H5.05Z" transform="translate(0 -7.6)"/></g><g id="g3488"><path id="path3490" class="cls-7" d="M8.55,13.9625h.975c.775,0,1.05.175,1.1375.275a1.314,1.314,0,0,1,.0875,1.025,1.9429,1.9429,0,0,1-.6,1.1875,2.4285,2.4285,0,0,1-1.4375.35h-.7Zm1.6625-2.025H6.675a.3367.3367,0,0,0-.3375.275L4.7,20.65a.34.34,0,0,0,.075.2875.3518.3518,0,0,0,.2625.125H6.875a.3367.3367,0,0,0,.3375-.275L7.6,18.825H8.8875a5.8781,5.8781,0,0,0,1.825-.2375,3.5855,3.5855,0,0,0,1.35-.8125,3.9158,3.9158,0,0,0,.8125-1.025,3.7424,3.7424,0,0,0,.4375-1.2375,2.95,2.95,0,0,0-.525-2.625,3.25,3.25,0,0,0-2.575-.95M7.575,17.15H8.6875a2.7185,2.7185,0,0,0,1.65-.4125,2.2183,2.2183,0,0,0,.7375-1.4,1.5381,1.5381,0,0,0-.1625-1.325,1.8744,1.8744,0,0,0-1.4-.3875H8.25L7.575,17.15m2.6375-4.8625a2.9183,2.9183,0,0,1,2.325.8375,2.6142,2.6142,0,0,1,.4375,2.3375,3.6468,3.6468,0,0,1-.4,1.125,3.7511,3.7511,0,0,1-.75.9375,3.35,3.35,0,0,1-1.225.7375,5.5206,5.5206,0,0,1-1.7125.225H7.3125L6.875,20.725H5.0375L6.675,12.2875h3.5375" transform="translate(0 -7.6)"/></g><g id="g3492"><path id="path3494" d="M17.3625,18.65a.2007.2007,0,0,1-.1375-.0625.141.141,0,0,1-.0375-.1375l.725-3.725c.075-.35.05-.6125-.05-.7125-.0625-.0625-.25-.175-.7875-.175H15.7625L14.85,18.525a.165.165,0,0,1-.175.1375H12.85a.2007.2007,0,0,1-.1375-.0625.141.141,0,0,1-.0375-.1375l1.6375-8.4375a.165.165,0,0,1,.175-.1375h1.825A.2007.2007,0,0,1,16.45,9.95a.141.141,0,0,1,.0375.1375l-.4,2.0375H17.5a3.2813,3.2813,0,0,1,2.225.575,1.9278,1.9278,0,0,1,.4,1.8875l-.7625,3.925a.165.165,0,0,1-.175.1375Z" transform="translate(0 -7.6)"/></g><g id="g3496"><path id="path3498" class="cls-7" d="M16.325,9.7H14.5a.3367.3367,0,0,0-.3375.275L12.525,18.4125A.3406.3406,0,0,0,12.6,18.7a.3518.3518,0,0,0,.2625.125h1.825a.3367.3367,0,0,0,.3375-.275L15.9125,14h1.175c.5375,0,.65.1125.6625.125.0375.0375.075.2,0,.5625l-.725,3.725A.3406.3406,0,0,0,17.1,18.7a.3518.3518,0,0,0,.2625.125h1.85a.3367.3367,0,0,0,.3375-.275l.7625-3.925a2.1,2.1,0,0,0-.45-2.05,3.4163,3.4163,0,0,0-2.35-.625h-1.2l.35-1.825a.3406.3406,0,0,0-.075-.2875A.3261.3261,0,0,0,16.325,9.7m0,.35-.4375,2.2375h1.625a3.1134,3.1134,0,0,1,2.1125.5375,1.7946,1.7946,0,0,1,.35,1.7375l-.7625,3.925h-1.85l.725-3.725A1,1,0,0,0,18,13.9a1.2888,1.2888,0,0,0-.9125-.2375H15.6249l-.9375,4.825h-1.825L14.5,10.05H16.325" transform="translate(0 -7.6)"/></g><g id="g3500"><path id="path3502" d="M23.025,16.975a2.48,2.48,0,0,0,1.55-.3875A2.1132,2.1132,0,0,0,25.25,15.3a1.4,1.4,0,0,0-.125-1.175,1.7819,1.7819,0,0,0-1.2625-.325H22.75l-.6125,3.1875h.8875ZM19.3875,20.9a.2007.2007,0,0,1-.1375-.0625.141.141,0,0,1-.0375-.1375L20.85,12.2625a.165.165,0,0,1,.175-.1375h3.5375a3.0652,3.0652,0,0,1,2.45.9,2.7757,2.7757,0,0,1,.475,2.4875,3.9868,3.9868,0,0,1-.425,1.175,3.86,3.86,0,0,1-.7875.975,3.5171,3.5171,0,0,1-1.2875.775,5.8685,5.8685,0,0,1-1.7625.225H21.8l-.4125,2.1a.165.165,0,0,1-.175.1375h-1.825Z" transform="translate(0 -7.6)"/></g><g id="g3504"><path id="path3506" class="cls-7" d="M22.8875,13.9625h.975c.775,0,1.05.175,1.1375.275a1.3139,1.3139,0,0,1,.0875,1.025,1.9428,1.9428,0,0,1-.6,1.1875,2.4284,2.4284,0,0,1-1.4375.35h-.7Zm1.6625-2.025H21.0125a.3367.3367,0,0,0-.3375.275L19.0375,20.65a.3406.3406,0,0,0,.075.2875.3518.3518,0,0,0,.2625.125h1.8375a.3367.3367,0,0,0,.3375-.275l.375-1.9625h1.2875a5.8779,5.8779,0,0,0,1.825-.2375,3.5851,3.5851,0,0,0,1.35-.8125A3.7231,3.7231,0,0,0,27.2,16.75a4.0634,4.0634,0,0,0,.45-1.2375,2.95,2.95,0,0,0-.525-2.625,3.25,3.25,0,0,0-2.5749-.95M21.9125,17.15H23.025a2.7185,2.7185,0,0,0,1.65-.4125,2.2183,2.2183,0,0,0,.7375-1.4,1.5381,1.5381,0,0,0-.1625-1.325,1.8744,1.8744,0,0,0-1.4-.3875H22.5875l-.675,3.525M24.55,12.2875a2.9183,2.9183,0,0,1,2.325.8375,2.6141,2.6141,0,0,1,.4375,2.3375,3.6473,3.6473,0,0,1-.4,1.125,3.7511,3.7511,0,0,1-.75.9375,3.35,3.35,0,0,1-1.225.7375,5.52,5.52,0,0,1-1.7125.225H21.65l-.4375,2.2375H19.3749l1.6375-8.4375H24.55" transform="translate(0 -7.6)"/></g></svg>