<?xml version="1.0" encoding="utf-8"?>
<!-- Generator: Adobe Illustrator 20.1.0, SVG Export Plug-In . SVG Version: 6.00 Build 0)  -->
<svg version="1.1" id="Layer_1" xmlns="http://www.w3.org/2000/svg" xmlns:xlink="http://www.w3.org/1999/xlink" x="0px" y="0px"
	 viewBox="0 0 32 32" style="enable-background:new 0 0 32 32;" xml:space="preserve">
<style type="text/css">
	.st0{fill:#92D13D;}
	.st1{fill:#49691F;}
</style>
<g>
	<path class="st0" d="M7.76,1.69l0.82-0.82c1.25-1.24,3.3-1.16,4.44,0.17l11.31,13.18c0.99,1.15,0.98,2.85-0.03,3.98L13.03,30.98
		c-1.16,1.3-3.18,1.37-4.42,0.13l-0.83-0.8C6.68,29.2,6.6,27.44,7.6,26.22l6.75-8.09c0.92-1.11,0.94-2.7,0.04-3.84L7.54,5.73
		C6.56,4.53,6.67,2.79,7.76,1.69z"/>
	<path class="st1" d="M14.35,18.13L7.6,26.22c-1,1.2-0.92,2.98,0.18,4.09l0.82,0.82c1.24,1.24,3.26,1.17,4.42-0.13l2.44-2.77
		c0.92-1.82,1.44-3.88,1.44-6.05c0-2.69-0.79-5.18-2.14-7.28C15.26,15.93,15.12,17.21,14.35,18.13L14.35,18.13z"/>
</g>
</svg>
