<?xml version="1.0" encoding="utf-8"?>
<!-- Generator: Adobe Illustrator 20.1.0, SVG Export Plug-In . SVG Version: 6.00 Build 0)  -->
<svg version="1.1" id="Layer_1" xmlns="http://www.w3.org/2000/svg" xmlns:xlink="http://www.w3.org/1999/xlink" x="0px" y="0px"
	 viewBox="0 0 31 32" style="enable-background:new 0 0 31 32;" xml:space="preserve">
<style type="text/css">
	.st0{fill:#336791;}
	.st1{fill:#FFFFFF;}
	.st2{fill:none;stroke:#FFFFFF;stroke-width:3;stroke-linecap:round;stroke-linejoin:round;}
</style>
<g id="Layer_x0020_3">
	<g>
		<path d="M23.17,23.32c0.2-1.69,0.14-1.94,1.4-1.67l0.32,0.03c0.97,0.04,2.24-0.16,2.98-0.5c1.6-0.74,2.55-1.99,0.97-1.66
			c-3.61,0.74-3.85-0.48-3.85-0.48c3.81-5.65,5.4-12.82,4.02-14.57C25.27-0.32,18.78,1.94,18.67,2l-0.03,0.01
			c-0.71-0.15-1.51-0.24-2.41-0.25c-1.63-0.03-2.87,0.43-3.81,1.14c0,0-11.57-4.77-11.03,5.99c0.11,2.29,3.28,17.32,7.06,12.78
			c1.38-1.66,2.71-3.06,2.71-3.06c0.66,0.44,1.46,0.66,2.29,0.58l0.06-0.05c-0.02,0.21-0.01,0.41,0.03,0.65
			c-0.97,1.09-0.69,1.28-2.63,1.68c-1.97,0.41-0.81,1.13-0.06,1.32c0.92,0.23,3.03,0.55,4.46-1.45l-0.06,0.23
			c0.38,0.31,0.36,2.19,0.41,3.54c0.05,1.35,0.14,2.61,0.42,3.35c0.28,0.74,0.6,2.66,3.16,2.11C21.39,30.11,23.02,29.45,23.17,23.32
			"/>
		<path d="M18.42,32c-0.8,0-1.66-0.21-2.38-0.89c-0.69-0.65-0.97-1.49-1.13-1.99c-0.03-0.08-0.05-0.15-0.07-0.2
			c-0.33-0.88-0.44-2.14-0.5-3.76c-0.01-0.24-0.02-0.5-0.02-0.76c0-0.16-0.01-0.35-0.02-0.54c-1.1,0.48-2.39,0.57-3.76,0.22
			c-0.38-0.1-0.76-0.26-1.08-0.45c-0.25-0.16-0.43-0.32-0.57-0.49c-1.1,0.91-2.14,0.78-2.71,0.59c-1.02-0.34-1.93-1.29-2.79-2.91
			c-0.6-1.14-1.18-2.62-1.73-4.4c-0.95-3.1-1.55-6.38-1.6-7.45C-0.11,5.57,0.8,3.15,2.78,1.75C4.41,0.6,6.64,0.24,9.41,0.7
			c1.18,0.19,2.2,0.5,2.83,0.71c1.15-0.68,2.49-1.01,4.01-0.99c0.81,0.01,1.58,0.08,2.3,0.21c0.77-0.24,2.25-0.57,3.94-0.55
			c3.16,0.04,5.78,1.27,7.57,3.56c0.68,0.87,1.26,2.78,0.17,6.99c-0.67,2.6-1.84,5.36-3.27,7.79c0.38-0.01,0.9-0.07,1.6-0.21
			c0.4-0.08,0.74-0.1,1.04-0.06c0.63,0.09,1.12,0.49,1.3,1.05c0.54,1.64-1.76,2.86-2.48,3.19c-0.91,0.42-2.39,0.68-3.61,0.62
			l-0.06,0L24.56,23c-0.01,0.06-0.01,0.11-0.02,0.17c-0.01,0.08-0.02,0.16-0.03,0.25c-0.08,3.12-0.53,5.11-1.46,6.42
			c-0.98,1.39-2.33,1.78-3.52,2.04C19.2,31.95,18.81,32,18.42,32z M16.1,20.51c0.76,0.61,0.83,1.73,0.89,3.81
			c0.01,0.25,0.01,0.5,0.02,0.72c0.03,0.68,0.09,2.28,0.34,2.94c0.04,0.1,0.07,0.2,0.1,0.3c0.28,0.85,0.39,1.2,1.52,0.96
			c0.99-0.21,1.5-0.4,1.89-0.96c0.58-0.83,0.91-2.52,0.97-5.01l1.34,0.03l-1.33-0.16c0.01-0.11,0.02-0.21,0.04-0.31
			c0.12-1,0.21-1.79,0.92-2.3c0.45-0.32,0.96-0.36,1.39-0.32c-0.36-0.37-0.48-0.75-0.51-0.92l-0.11-0.55l0.31-0.47
			c1.66-2.46,3.03-5.49,3.76-8.31c0.82-3.16,0.46-4.5,0.32-4.69c-2.98-3.81-8.16-2.25-8.73-2.07l-0.1,0.05l-0.5,0.09l-0.26-0.05
			c-0.65-0.14-1.38-0.21-2.15-0.22c-1.21-0.02-2.18,0.26-2.98,0.87l-0.61,0.46l-0.71-0.29c-1.39-0.57-5.46-1.71-7.59-0.2
			C3.15,4.77,2.61,6.42,2.73,8.83c0.04,0.83,0.61,3.96,1.54,6.98c1.28,4.14,2.42,5.29,2.74,5.38c0.04-0.02,0.18-0.09,0.41-0.36
			c1.39-1.68,2.72-3.07,2.77-3.13l0.78-0.82l0.94,0.62c0.32,0.21,0.68,0.34,1.04,0.37l2.23-1.9l-0.32,3.3
			c-0.01,0.06-0.01,0.15,0.02,0.31l0.1,0.63l-0.42,0.47c0,0-0.01,0.01-0.01,0.01l1.04,0.48L16.1,20.51z"/>
	</g>
	<path class="st0" d="M28.84,19.52c-3.61,0.74-3.85-0.48-3.85-0.48c3.81-5.65,5.4-12.82,4.03-14.57C25.27-0.32,18.78,1.94,18.68,2
		l-0.03,0.01c-0.71-0.15-1.51-0.24-2.41-0.25c-1.63-0.03-2.87,0.43-3.81,1.14c0,0-11.57-4.77-11.03,5.99
		c0.11,2.29,3.28,17.32,7.06,12.78c1.38-1.66,2.71-3.06,2.71-3.06c0.66,0.44,1.46,0.66,2.29,0.58l0.06-0.05
		c-0.02,0.21-0.01,0.41,0.03,0.65c-0.97,1.09-0.69,1.28-2.63,1.68c-1.97,0.41-0.81,1.13-0.06,1.32c0.92,0.23,3.03,0.55,4.46-1.45
		l-0.06,0.23c0.38,0.31,0.65,1.99,0.6,3.51c-0.04,1.52-0.07,2.57,0.23,3.39c0.3,0.82,0.6,2.66,3.16,2.11
		c2.14-0.46,3.24-1.64,3.4-3.62c0.11-1.41,0.36-1.2,0.37-2.46l0.2-0.6c0.23-1.91,0.04-2.52,1.35-2.24l0.32,0.03
		c0.97,0.04,2.24-0.16,2.98-0.5C29.47,20.43,30.42,19.19,28.84,19.52L28.84,19.52z"/>
	<path class="st1" d="M18.54,31.17c-2.15,0-2.83-1.7-3.11-2.4c-0.41-1.02-0.5-4.84-0.4-8.17c0.01-0.25,0.21-0.44,0.46-0.43
		c0.25,0.01,0.44,0.21,0.43,0.46c-0.1,3.71,0.04,7.07,0.34,7.81c0.46,1.15,1.16,2.16,3.14,1.74c1.91-0.41,2.59-1.1,2.9-2.94
		c0.24-1.41,0.72-5.42,0.78-6.21c0.02-0.25,0.23-0.43,0.48-0.41c0.25,0.02,0.43,0.23,0.41,0.48c-0.06,0.83-0.54,4.83-0.79,6.3
		c-0.38,2.19-1.35,3.18-3.6,3.66C19.21,31.13,18.86,31.17,18.54,31.17z"/>
	<path class="st1" d="M6.99,22.93c-0.21,0-0.4-0.04-0.56-0.09c-1.4-0.47-2.72-2.73-3.94-6.72C1.56,13.07,0.97,9.9,0.92,8.87
		C0.77,5.81,1.56,3.64,3.27,2.43C4.71,1.41,6.72,1.1,9.25,1.51c1.85,0.3,3.27,0.87,3.33,0.9c0.23,0.09,0.34,0.35,0.24,0.58
		c-0.09,0.23-0.35,0.34-0.58,0.24c-0.07-0.03-5.47-2.19-8.45-0.08C2.34,4.18,1.68,6.09,1.81,8.83c0.04,0.87,0.59,3.95,1.53,7.02
		c1.08,3.55,2.31,5.78,3.37,6.14c0.16,0.05,0.66,0.22,1.37-0.64c1.37-1.65,2.64-2.97,2.65-2.99c0.17-0.18,0.45-0.18,0.63-0.01
		c0.18,0.17,0.18,0.45,0.01,0.63c-0.01,0.01-1.25,1.31-2.61,2.94C8.12,22.7,7.5,22.93,6.99,22.93z"/>
	<path class="st1" d="M24.97,19.44c-0.09,0-0.17-0.02-0.25-0.08c-0.2-0.14-0.26-0.42-0.12-0.62c3.84-5.7,5.19-12.58,4.04-14.05
		c-1.45-1.85-3.49-2.82-6.08-2.88c-1.91-0.04-3.44,0.45-3.7,0.53c-0.02,0.01-0.04,0.02-0.07,0.03c-0.27,0.08-0.48-0.06-0.56-0.24
		c-0.09-0.21-0.02-0.45,0.18-0.57c0.17-0.1,1.93-0.67,4.03-0.65c2.89,0.03,5.27,1.14,6.9,3.22c0.4,0.52,0.6,1.36,0.58,2.51
		c-0.02,1.05-0.21,2.33-0.57,3.71c-0.78,3.01-2.24,6.25-4.02,8.89C25.25,19.38,25.11,19.44,24.97,19.44z"/>
	<path class="st1" d="M25.16,22.09c-0.66,0-1.26-0.09-1.62-0.31c-0.38-0.23-0.45-0.53-0.46-0.7c-0.1-1.71,0.82-2.05,1.33-2.2
		c-0.06-0.09-0.15-0.2-0.24-0.31c-0.29-0.36-0.68-0.85-0.98-1.58c-0.05-0.11-0.19-0.38-0.36-0.68c-0.93-1.67-2.87-5.14-1.61-6.93
		c0.57-0.82,1.71-1.15,3.38-0.98c-0.22-0.66-0.78-1.88-1.8-3.09c-1.19-1.41-3.3-3.1-6.59-3.15c-1.67-0.03-3.04,0.48-4.07,1.52
		c-2.31,2.33-2.23,6.56-2.23,6.6c0.01,0.25-0.19,0.45-0.44,0.46c-0.24,0-0.45-0.19-0.46-0.43c0-0.19-0.09-4.65,2.48-7.25
		c1.21-1.22,2.8-1.82,4.72-1.79c3.59,0.06,5.9,1.88,7.21,3.4c1.42,1.66,2.12,3.49,2.18,4.1c0.05,0.49-0.33,0.58-0.37,0.59l-0.16,0
		c-2.04-0.33-2.82,0.11-3.11,0.53c-0.93,1.33,0.89,4.59,1.66,5.98c0.2,0.36,0.34,0.62,0.41,0.78c0.25,0.62,0.59,1.03,0.85,1.36
		c0.24,0.3,0.44,0.55,0.52,0.86c0.04,0.06,0.54,0.74,3.33,0.16c0.74-0.15,1.18-0.02,1.32,0.4c0.27,0.8-1.2,1.73-2.01,2.1
		C27.31,21.87,26.16,22.09,25.16,22.09z M23.98,21c0.11,0.09,0.57,0.23,1.48,0.19c0.82-0.04,1.69-0.22,2.2-0.46
		c0.6-0.28,1.02-0.59,1.27-0.82c-0.01,0-0.01,0-0.02,0c-1.84,0.38-3.14,0.33-3.86-0.15c-0.05-0.03-0.09-0.06-0.13-0.09
		c-0.06,0.02-0.12,0.04-0.19,0.06C24.32,19.84,23.93,19.95,23.98,21z"/>
	<path class="st1" d="M12.15,23.35c-0.45,0-0.93-0.06-1.42-0.18c-0.14-0.04-1.39-0.37-1.37-1.16c0.02-0.73,1.05-0.94,1.44-1.02
		c1.37-0.28,1.46-0.4,1.89-0.94c0.13-0.16,0.28-0.36,0.5-0.6c0.71-0.8,1.39-0.52,1.68-0.4c0.45,0.19,0.83,0.64,0.98,1.18
		c0.14,0.49,0.07,0.96-0.19,1.33C14.81,22.74,13.59,23.35,12.15,23.35z M10.34,22.05c0.13,0.09,0.35,0.19,0.6,0.26
		c1.19,0.3,2.85,0.32,3.99-1.28c0.13-0.19,0.09-0.43,0.06-0.56c-0.08-0.27-0.27-0.52-0.47-0.6c-0.24-0.1-0.38-0.16-0.67,0.17
		c0,0,0,0,0,0c-0.2,0.22-0.34,0.4-0.46,0.56c-0.55,0.69-0.8,0.93-2.41,1.26C10.64,21.93,10.45,22,10.34,22.05z M13.52,19.74
		L13.52,19.74L13.52,19.74z"/>
	<path class="st1" d="M13.46,20.17c-0.22,0-0.41-0.16-0.44-0.38c-0.01-0.06-0.02-0.12-0.02-0.18c-1.05-0.03-2.06-0.48-2.83-1.29
		c-0.98-1.02-1.43-2.44-1.23-3.89c0.22-1.56,0.14-2.94,0.09-3.68c-0.01-0.21-0.02-0.36-0.02-0.46c0-0.14,0-0.5,1.18-1.09
		c0.41-0.21,1.25-0.58,2.15-0.67c1.51-0.16,2.51,0.52,2.81,1.9c0.8,3.69,0.06,5.33-0.47,6.52c-0.1,0.22-0.19,0.43-0.27,0.63
		l-0.07,0.18c-0.28,0.75-0.52,1.41-0.45,1.89c0.04,0.24-0.13,0.47-0.37,0.51C13.5,20.17,13.48,20.17,13.46,20.17z M9.91,10.43
		c0,0.07,0.01,0.17,0.02,0.28c0.05,0.77,0.13,2.21-0.1,3.85c-0.16,1.18,0.19,2.33,0.99,3.15c0.62,0.65,1.44,1.01,2.28,1.01
		c0.1-0.4,0.25-0.81,0.42-1.26l0.07-0.18c0.09-0.23,0.19-0.45,0.29-0.69c0.51-1.14,1.15-2.56,0.42-5.97
		c-0.14-0.66-0.48-1.04-1.05-1.17C12.01,9.17,10.28,10.1,9.91,10.43z M9.85,10.48L9.85,10.48L9.85,10.48z"/>
	<g>
		<path class="st1" d="M12.37,10.23c-0.02,0.15,0.27,0.54,0.64,0.59c0.38,0.05,0.7-0.25,0.72-0.4c0.02-0.15-0.27-0.31-0.64-0.36
			C12.71,10.01,12.39,10.09,12.37,10.23L12.37,10.23z"/>
		<path class="st1" d="M13.09,10.98c-0.03,0-0.07,0-0.1-0.01c-0.24-0.03-0.47-0.18-0.64-0.4c-0.06-0.08-0.15-0.22-0.13-0.36
			c0.01-0.05,0.03-0.12,0.12-0.19c0.15-0.11,0.44-0.15,0.77-0.11c0.4,0.06,0.81,0.24,0.77,0.53C13.84,10.67,13.48,10.98,13.09,10.98
			z M12.52,10.26c0.02,0.1,0.24,0.37,0.51,0.41c0.28,0.04,0.51-0.18,0.55-0.26c-0.03-0.05-0.2-0.16-0.51-0.2
			C12.76,10.17,12.56,10.23,12.52,10.26z"/>
	</g>
	<g>
		<path class="st1" d="M23.79,9.94c0.02,0.15-0.27,0.54-0.64,0.59c-0.38,0.05-0.7-0.25-0.72-0.4c-0.02-0.15,0.27-0.31,0.64-0.36
			C23.45,9.71,23.77,9.79,23.79,9.94L23.79,9.94z"/>
		<path class="st1" d="M23.07,10.6c-0.37,0-0.68-0.3-0.71-0.47c-0.03-0.22,0.33-0.39,0.71-0.44c0.37-0.05,0.77,0.01,0.8,0.23l0,0
			c0.01,0.1-0.06,0.25-0.19,0.39c-0.09,0.09-0.27,0.25-0.51,0.28C23.13,10.6,23.1,10.6,23.07,10.6z M23.31,9.82
			c-0.07,0-0.14,0-0.22,0.02c-0.39,0.05-0.59,0.21-0.58,0.28c0.01,0.1,0.3,0.38,0.63,0.33c0.2-0.03,0.35-0.16,0.43-0.24
			c0.11-0.12,0.16-0.23,0.15-0.27l0,0C23.71,9.9,23.57,9.82,23.31,9.82z"/>
	</g>
	<path class="st1" d="M24.34,18.36c-0.09,0-0.17-0.02-0.25-0.08c-0.21-0.14-0.26-0.41-0.12-0.62c0.87-1.3,0.71-2.64,0.56-3.93
		c-0.07-0.55-0.14-1.13-0.12-1.68c0.02-0.57,0.09-1.03,0.16-1.48c0.08-0.53,0.16-1.03,0.13-1.63c-0.01-0.25,0.18-0.46,0.42-0.47
		c0.25-0.01,0.46,0.18,0.47,0.42c0.04,0.69-0.05,1.26-0.14,1.81c-0.07,0.42-0.13,0.86-0.15,1.37c-0.02,0.48,0.05,1,0.11,1.54
		c0.17,1.38,0.35,2.95-0.7,4.53C24.62,18.29,24.48,18.36,24.34,18.36z"/>
</g>
</svg>
