<svg xmlns="http://www.w3.org/2000/svg" viewBox="0 0 724 724"><defs><linearGradient id="a" x1="0" x2="1" y1="0" y2="1" gradientUnits="objectBoundingBox" spreadMethod="pad"><stop offset="0" stop-color="#cbced0"/><stop offset="1" stop-color="#84838b"/></linearGradient><linearGradient id="b" x1="0" x2="1" y1="0" y2="1" gradientUnits="objectBoundingBox" spreadMethod="pad"><stop offset="0" stop-color="#276dc3"/><stop offset="1" stop-color="#165caa"/></linearGradient></defs><g fill-rule="evenodd"><path fill="url(#a)" d="M361.5 567.4C162.3 567.4.9 459.3.9 326S162.3 84.5 361.5 84.5 722 192.6 722 326 560.6 567.5 361.5 567.5Zm55.1-388.5c-151.4 0-274 73.9-274 165.1s122.7 165.1 274 165.1 263-50.5 263-165.1-111.7-165.1-263-165.1Z"/><path fill="url(#b)" d="M550 458.5s21.8 6.6 34.5 13c4.4 2.2 12 6.7 17.5 12.5 5.4 5.7 8 11.5 8 11.5l86 145H557l-65-122s-13.3-22.9-21.5-29.5c-6.8-5.5-9.7-7.5-16.5-7.5h-33v159H298V234.4h247s112.5 2 112.5 109.1-107.5 115-107.5 115Zm-53.5-136H422v69h74.5s34.5-.1 34.5-35.1-34.5-33.9-34.5-33.9Z"/></g></svg>
