<?xml version="1.0" encoding="utf-8"?>
<!-- Generator: Adobe Illustrator 20.1.0, SVG Export Plug-In . SVG Version: 6.00 Build 0)  -->
<svg version="1.1" id="Layer_1" xmlns="http://www.w3.org/2000/svg" xmlns:xlink="http://www.w3.org/1999/xlink" x="0px" y="0px"
	 viewBox="0 0 32 32" style="enable-background:new 0 0 32 32;" xml:space="preserve">
<style type="text/css">
	.st0{fill:#FF6600;}
</style>
<path class="st0" d="M30.97,12.69H19.31V1.03c0-0.29-0.1-0.54-0.3-0.73S18.57,0,18.28,0h-4.56c-0.29,0-0.54,0.1-0.73,0.3
	c-0.2,0.2-0.3,0.44-0.3,0.73v11.66H6.59V1.03c0-0.29-0.1-0.54-0.3-0.73C6.1,0.1,5.86,0,5.59,0H1.03C0.74,0,0.49,0.1,0.3,0.3
	S0,0.74,0,1.03v29.94c0,0.29,0.1,0.54,0.3,0.73S0.74,32,1.03,32h29.94c0.29,0,0.54-0.1,0.73-0.3c0.2-0.2,0.3-0.44,0.3-0.73V13.72
	c0-0.29-0.1-0.54-0.3-0.73C31.5,12.79,31.26,12.69,30.97,12.69L30.97,12.69L30.97,12.69L30.97,12.69z M25.5,24.44
	c0,0.27-0.1,0.5-0.3,0.7c-0.2,0.2-0.43,0.3-0.7,0.3h-4.19c-0.27,0-0.5-0.1-0.7-0.3s-0.3-0.43-0.3-0.7v-4.19
	c0-0.29,0.1-0.54,0.3-0.73c0.2-0.2,0.43-0.3,0.7-0.3h4.19c0.27,0,0.5,0.1,0.7,0.3c0.2,0.2,0.3,0.44,0.3,0.73V24.44z"/>
</svg>
