<?xml version="1.0" encoding="utf-8"?>
<!-- Generator: Adobe Illustrator 20.1.0, SVG Export Plug-In . SVG Version: 6.00 Build 0)  -->
<svg version="1.1" id="Layer_1" xmlns="http://www.w3.org/2000/svg" xmlns:xlink="http://www.w3.org/1999/xlink" x="0px" y="0px"
	 viewBox="0 0 411 155" style="enable-background:new 0 0 411 155;" xml:space="preserve">
<style type="text/css">
	.st0{fill:#CC0000;}
</style>
<g transform="translate(8 8)">
	<path class="st0" d="M344.6,121.5v18.1h32.7c6.7,0,18.2-4.9,18.6-18.6v-7c0-11.7-9.6-18.6-18.6-18.6H361V87h32.3V68.8h-31
		c-8,0-18.7,6.6-18.7,18.9V94c0,12.3,10.6,18.6,18.7,18.6c22.5,0.1-5.4,0,15.4,0v8.8 M169.4,117.1c0,0,17.5-1.5,17.5-24.1
		s-21.2-24.7-21.2-24.7h-38.2v71.3h19.2v-17.2l16.6,17.2h28.4L169.4,117.1z M162,102.5h-15.3V86.2h15.4c0,0,4.3,1.6,4.3,8.1
		S162,102.5,162,102.5z M234.3,68.8h-19.5c-13.9,0-18.6,12.6-18.6,18.6v52.2h19.5v-12.5H234v12.5h18.9V87.4
		C252.9,72.2,239.1,68.8,234.3,68.8z M234,106.9h-18.4V89.6c0,0,0-3.9,6.1-3.9h6.7c5.4,0,5.5,3.9,5.5,3.9v17.3H234z"/>
	<rect x="261.8" y="68.8" class="st0" width="20.3" height="70.8"/>
	<polygon class="st0" points="310.6,121.3 310.6,68.8 290.4,68.8 290.4,121.3 290.4,139.6 310.6,139.6 337.9,139.6 337.9,121.3 	"/>
	<path class="st0" d="M7,139.6h79c0,0-15.1-68.9,34.9-96.8c10.9-5.3,45.6-25.1,102.4,16.9c1.8-1.5,3.5-2.7,3.5-2.7
		s-52-51.9-109.9-46.1C87.8,13.5,52,40,31,75S7,139.6,7,139.6z"/>
	<path class="st0" d="M7,139.6h79c0,0-15.1-68.9,34.9-96.8c10.9-5.3,45.6-25.1,102.4,16.9c1.8-1.5,3.5-2.7,3.5-2.7
		s-52-51.9-109.9-46.1C87.8,13.5,52,40,31,75S7,139.6,7,139.6z"/>
	<path class="st0" d="M7,139.6h79c0,0-15.1-68.9,34.9-96.8c10.9-5.3,45.6-25.1,102.4,16.9c1.8-1.5,3.5-2.7,3.5-2.7
		s-52-51.9-109.9-46.1c-29.2,2.6-65,29.1-86,64.1S7,139.6,7,139.6z M171.6,16.5l0.4-6.7c-0.9-0.5-3.4-1.7-9.7-3.5l-0.4,6.6
		C165.2,14,168.4,15.2,171.6,16.5z"/>
	<path class="st0" d="M162.1,37.7l-0.4,6.3c3.3,0.1,6.6,0.5,9.9,1.2L172,39C168.6,38.3,165.3,37.9,162.1,37.7z M125.1,6.5h1l-2-6.1
		c-3.1,0-6.3,0.2-9.6,0.6l1.9,5.9C119.3,6.6,122.2,6.5,125.1,6.5z M129.9,43.3l2.3,6.9c2.9-1.4,5.8-2.6,8.7-3.5l-2.2-6.6
		C135.3,41.1,132.4,42.2,129.9,43.3z M84.5,17L80,10.1c-2.5,1.3-5.1,2.7-7.8,4.3l4.6,7C79.4,19.8,81.9,18.3,84.5,17z M105,62
		l4.8,7.2c1.7-2.5,3.7-4.8,5.9-7.1l-4.5-6.8C108.9,57.4,106.8,59.7,105,62z M90.5,94.2l8.1,6.4c0.4-3.9,1.1-7.8,2.1-11.7l-7.2-5.7
		C92.2,86.9,91.3,90.6,90.5,94.2z M46.7,46.7l-7.1-6.2c-2.6,2.5-5.1,5-7.4,7.5l7.7,6.6C42,51.9,44.3,49.2,46.7,46.7z M16.5,91.4
		L5,87.2c-1.9,4.3-4,9.3-5,12l11.5,4.2C12.8,100,14.9,95.1,16.5,91.4z M89,119.6c0.2,5.3,0.7,9.6,1.2,12.6l12,4.3
		c-0.9-3.9-1.8-8.3-2.4-13L89,119.6z"/>
</g>
</svg>
