<svg enable-background="new 0 0 100 100" height="100" viewBox="0 0 100 100" width="100" xmlns="http://www.w3.org/2000/svg"><path d="m66.7 55.8c6.6 0 16.1-1.4 16.1-9.2 0-.6 0-1.2-.2-1.8l-3.9-17c-.9-3.7-1.7-5.4-8.3-8.7-5.1-2.6-16.2-6.9-19.5-6.9-3.1 0-4 4-7.6 4-3.5 0-6.1-2.9-9.4-2.9-3.2 0-5.2 2.1-6.8 6.6 0 0-4.4 12.5-5 14.3-.1.3-.1.7-.1 1 .1 4.7 19.2 20.6 44.7 20.6m17.1-6c.9 4.3.9 4.8.9 5.3 0 7.4-8.3 11.4-19.1 11.4-24.6 0-46.1-14.4-46.1-23.9 0-1.3.3-2.6.8-3.9-8.9.5-20.3 2.1-20.3 12.2 0 16.5 39.2 36.9 70.2 36.9 23.8 0 29.8-10.7 29.8-19.2 0-6.7-5.8-14.3-16.2-18.8" fill="#ed1c24"/><path d="m83.8 49.8c.9 4.3.9 4.8.9 5.3 0 7.4-8.3 11.4-19.1 11.4-24.6 0-46.1-14.4-46.1-23.9 0-1.3.3-2.6.8-3.9l1.9-4.8c-.1.3-.1.7-.1 1 0 4.8 19.1 20.7 44.7 20.7 6.6 0 16.1-1.4 16.1-9.2 0-.6 0-1.2-.2-1.8z" fill="#010101"/></svg>