<svg xmlns="http://www.w3.org/2000/svg" id="Layer_1" data-name="Layer 1" viewBox="0 0 1024 1024"><defs><style>.cls-1{fill:#153d3c;}.cls-2{fill:#d8da9d;}.cls-3{fill:#58c0a8;}.cls-4{fill:#fff;}.cls-5{fill:#3d9191;}</style></defs><title>snowdrop_icon_rgb_default</title><path class="cls-1" d="M1012.69,593c-11.12-38.07-31-73-59.21-103.8-9.5-11.3-23.21-28.29-39.06-47.94C833.53,341,745.37,234.18,674,168.94c-5-5.26-10.26-10.31-15.65-15.07a246.49,246.49,0,0,0-36.55-26.8,182.5,182.5,0,0,0-20.3-11.77,201.53,201.53,0,0,0-43.19-15A155.24,155.24,0,0,0,528,95.2c-6.76-.68-11.74-.81-14.39-.81h0l-1.62,0-1.62,0a177.3,177.3,0,0,0-31.77,3.35,208.23,208.23,0,0,0-56.12,17.56,181,181,0,0,0-20.27,11.75,247.43,247.43,0,0,0-36.57,26.81C360.25,158.62,355,163.68,350,169c-71.35,65.25-159.5,172-240.39,272.28C93.73,460.88,80,477.87,70.52,489.17,42.35,520,22.43,554.9,11.31,593,.72,629.22-1.73,667.69,4,707.31,15,782.49,55.78,859.12,118.93,923.09a22,22,0,0,0,15.59,6.52h1.83l1.87-.32c81.06-13.91,110-79.57,143.48-155.6,3.91-8.88,7.95-18.05,12.2-27.43q5.42,8.54,11.39,16.23c31.85,40.91,75.12,64.67,132.32,72.63l18.8,2.62,4.95-18.33c13.26-49.07,35.3-90.85,50.64-116.19,15.34,25.34,37.38,67.12,50.64,116.19l5,18.33,18.8-2.62c57.2-8,100.47-31.72,132.32-72.63q6-7.68,11.39-16.23c4.25,9.38,8.29,18.55,12.2,27.43,33.49,76,62.42,141.69,143.48,155.6l1.81.31h1.89a22,22,0,0,0,15.59-6.52c63.15-64,103.95-140.6,114.89-215.78C1025.73,667.69,1023.28,629.22,1012.69,593Z"/><path class="cls-2" d="M364.15,185.23c17.89-16.4,34.7-30.15,49.77-40.11a212,212,0,0,1,65.93-25.73A198,198,0,0,1,512,116.27a196.11,196.11,0,0,1,32,3.1c4.5.91,9.36,2.06,14.53,3.52,60.41,20.48,84.92,91.05-47.44,248.06-28.75,34.12-140.7,194.84-184.66,268.42a630.86,630.86,0,0,0-33.22,58.32C276,655.34,265.4,598,265.4,520.29,265.4,340.61,311.69,240.74,364.15,185.23Z"/><path class="cls-3" d="M527.54,384.83c84.06-99.7,116.06-177.28,95.22-230.74,11.62,8.69,24,19.2,37.06,31.13,52.48,55.5,98.78,155.38,98.78,335.07,0,77.71-10.6,135.05-27.77,177.4a628.73,628.73,0,0,0-33.23-58.32c-39-65.26-131.45-199-171.93-252.27C526.33,386.29,527,385.52,527.54,384.83Z"/><path class="cls-4" d="M134.58,908.07h-.06a.39.39,0,0,1-.27-.11c-119.52-121.07-155-287.4-47.54-404.58,34.63-41.14,120-151.6,202.75-242.19-3.13,7-6.12,14.25-8.92,21.69-24.34,64.45-36.67,144.32-36.67,237.41,0,56.53,5.58,106,16.59,147.14A307.49,307.49,0,0,0,280.91,723C237,816.88,216.93,893.93,134.58,908.07Z"/><path class="cls-5" d="M583.43,813.79C560.18,727.72,512,664.15,512,664.15s-48.17,63.57-71.43,149.64c-48.45-6.74-100.91-27.52-135.66-91.18a645.68,645.68,0,0,1,39.57-71.54l.21-.32.19-.33c38-63.63,126.4-191.37,167.12-245.66,40.71,54.28,129.1,182,167.12,245.66l.19.33.21.32a645.68,645.68,0,0,1,39.57,71.54C684.34,786.27,631.88,807.05,583.43,813.79Z"/><path class="cls-4" d="M889.75,908a.39.39,0,0,1-.27.11h-.06C807.07,893.93,787,816.88,743.09,723a307.49,307.49,0,0,0,20.45-55.54c11-41.11,16.59-90.61,16.59-147.14,0-93.08-12.33-173-36.66-237.4q-4.22-11.16-8.93-21.7c82.75,90.59,168.12,201.05,202.75,242.19C1044.79,620.56,1009.27,786.89,889.75,908Z"/></svg>
