<svg xmlns="http://www.w3.org/2000/svg" viewBox="0 0 100 100"><defs><style>.cls-1{fill:#d71e00;}.cls-2{fill:#c21a00;}.cls-3{fill:#fff;}.cls-4{fill:#cdcdcd;}.cls-5{fill:#eaeaea;}</style></defs><title>Logo</title><g id="Layer_1" data-name="Layer 1"><circle class="cls-1" cx="50" cy="50" r="50" transform="translate(-20.71 50) rotate(-45)"/><path class="cls-2" d="M85.36,14.64A50,50,0,0,1,14.64,85.36Z"/><path class="cls-3" d="M71.61,35.85,81,26.43a2.74,2.74,0,0,0-2.25-.58L64.66,28.52c-.64.12-1.45.23-2.35.32h0L50,41.14,37.71,28.85c.36,0-1.4-.15-2.37-.34L21.22,25.86a2.74,2.74,0,0,0-2.25.58l9.42,9.42c-3,3.72-6.64,9.8-7.06,17.37L26,51.71a19.24,19.24,0,0,0,.77,13l3.45-3.32S30.27,66,36,72L36.86,69l6.41,6.41a9.52,9.52,0,0,0,13.46,0L63.14,69,64,72c5.76-6,5.85-10.61,5.85-10.61l3.45,3.32a19.24,19.24,0,0,0,.77-13l4.64,1.52C78.24,45.65,74.56,39.57,71.61,35.85Zm-33,21.88A2.91,2.91,0,0,1,36,53.57l-.88-.88a1,1,0,0,1,1.41-1.41l.88.88a2.92,2.92,0,1,1,1.23,5.57ZM56,61.67l-5,5v4.72a1,1,0,0,1-2,0V66.65l-5-5a1,1,0,0,1,1.41-1.41L50,64.82l4.57-4.57A1,1,0,0,1,56,61.67Zm9.14-9-.88.88a2.95,2.95,0,1,1-1.41-1.41l.88-.88a1,1,0,0,1,1.41,1.41Zm.48-15.07L50,53.22,34.39,37.62a.4.4,0,0,1,.47-.65L50,44.54,65.14,37A.4.4,0,0,1,65.61,37.62Z"/><polygon class="cls-4" points="81.47 26.88 81.47 26.88 81.47 26.88 81.47 26.88"/><path class="cls-4" d="M65.14,37,50,44.54,34.86,37a.4.4,0,0,0-.47.65L50,53.22,65.61,37.62A.4.4,0,0,0,65.14,37Z"/><path class="cls-4" d="M62.31,28.83c-2.84.29-6.56.44-8.62.44H45.35c-2,0-5.1-.14-7.64-.42L50,41.14Z"/><path d="M54.57,60.25,50,64.82l-4.57-4.57A1,1,0,0,0,44,61.67l5,5v4.72a1,1,0,0,0,2,0V66.65l5-5a1,1,0,0,0-1.41-1.41Z"/><path d="M38.63,51.88a2.9,2.9,0,0,0-1.23.28l-.88-.88a1,1,0,0,0-1.41,1.41l.88.88a2.92,2.92,0,1,0,2.65-1.69Z"/><path d="M65.13,51.28a1,1,0,0,0-1.41,0l-.88.88a2.95,2.95,0,1,0,1.41,1.41l.88-.88A1,1,0,0,0,65.13,51.28Z"/><path class="cls-5" d="M82,28.68h0a2.75,2.75,0,0,0,0-.58c0-.06,0-.12,0-.18a2.7,2.7,0,0,0-.13-.39l-.07-.16a2.74,2.74,0,0,0-.29-.47h0a2.79,2.79,0,0,0-.44-.45h0l-9.42,9.42a36.16,36.16,0,0,1,3.82,5.9c5.25-3.1,6.43-9.21,6.61-13.06Z"/><path class="cls-5" d="M18,28.69c.18,3.85,1.36,10,6.61,13.06a36.15,36.15,0,0,1,3.82-5.9L19,26.43A2.74,2.74,0,0,0,18,28.69Z"/></g></svg>