<?xml version="1.0" encoding="utf-8"?>
<!-- Generator: Adobe Illustrator 20.1.0, SVG Export Plug-In . SVG Version: 6.00 Build 0)  -->
<svg version="1.1" id="Layer_1" xmlns="http://www.w3.org/2000/svg" xmlns:xlink="http://www.w3.org/1999/xlink" x="0px" y="0px"
	 viewBox="0 0 32 32" style="enable-background:new 0 0 32 32;" xml:space="preserve">
<style type="text/css">
	.st0{fill:url(#SVGID_1_);}
	.st1{fill:url(#SVGID_2_);}
	.st2{fill:url(#SVGID_3_);}
	.st3{fill:url(#SVGID_4_);}
	.st4{fill:url(#SVGID_5_);}
	.st5{fill:url(#SVGID_6_);}
	.st6{fill:url(#SVGID_7_);}
	.st7{fill:url(#SVGID_8_);}
	.st8{fill:#FFFFFF;}
	.st9{fill:url(#SVGID_9_);}
	.st10{fill:url(#SVGID_10_);}
	.st11{fill:url(#SVGID_11_);}
	.st12{fill:url(#SVGID_12_);}
	.st13{fill:#9E1209;}
	.st14{fill:url(#SVGID_13_);}
	.st15{fill:url(#SVGID_14_);}
	.st16{fill:url(#SVGID_15_);}
	.st17{fill:url(#SVGID_16_);}
</style>
<g>
	
		<linearGradient id="SVGID_1_" gradientUnits="userSpaceOnUse" x1="0" y1="32" x2="1" y2="32" gradientTransform="matrix(-6.7127 -11.8516 11.8516 -6.7127 -351.2506 249.4229)">
		<stop  offset="0" style="stop-color:#FB7655"/>
		<stop  offset="0" style="stop-color:#FB7655"/>
		<stop  offset="0.41" style="stop-color:#E42B1E"/>
		<stop  offset="0.99" style="stop-color:#990000"/>
		<stop  offset="1" style="stop-color:#990000"/>
	</linearGradient>
	<polygon class="st0" points="24.7,20.94 6.53,31.73 30.05,30.14 31.86,6.42 	"/>
	
		<linearGradient id="SVGID_2_" gradientUnits="userSpaceOnUse" x1="0" y1="32" x2="1" y2="32" gradientTransform="matrix(-8.6511 -5.8054 5.8054 -8.6511 -154.4296 301.4974)">
		<stop  offset="0" style="stop-color:#871101"/>
		<stop  offset="0" style="stop-color:#871101"/>
		<stop  offset="0.99" style="stop-color:#911209"/>
		<stop  offset="1" style="stop-color:#911209"/>
	</linearGradient>
	<polygon class="st1" points="30.09,30.12 28.07,16.16 22.56,23.44 	"/>
	
		<linearGradient id="SVGID_3_" gradientUnits="userSpaceOnUse" x1="0" y1="32" x2="1" y2="32" gradientTransform="matrix(-8.6509 -5.8053 5.8053 -8.6509 -161.3458 311.8036)">
		<stop  offset="0" style="stop-color:#871101"/>
		<stop  offset="0" style="stop-color:#871101"/>
		<stop  offset="0.99" style="stop-color:#911209"/>
		<stop  offset="1" style="stop-color:#911209"/>
	</linearGradient>
	<polygon class="st2" points="30.12,30.12 15.31,28.96 6.61,31.7 	"/>
	
		<linearGradient id="SVGID_4_" gradientUnits="userSpaceOnUse" x1="0" y1="32" x2="1" y2="32" gradientTransform="matrix(1.3411 8.7159 -8.7159 1.3411 285.1677 -22.4565)">
		<stop  offset="0" style="stop-color:#FFFFFF"/>
		<stop  offset="0" style="stop-color:#FFFFFF"/>
		<stop  offset="0.23" style="stop-color:#E57252"/>
		<stop  offset="0.46" style="stop-color:#DE3B20"/>
		<stop  offset="0.99" style="stop-color:#A60003"/>
		<stop  offset="1" style="stop-color:#A60003"/>
	</linearGradient>
	<polygon class="st3" points="6.63,31.7 10.33,19.58 2.19,21.32 	"/>
	
		<linearGradient id="SVGID_5_" gradientUnits="userSpaceOnUse" x1="0" y1="32" x2="1" y2="32" gradientTransform="matrix(0.4941 8.8951 -8.8951 0.4941 300.1274 -3.4918)">
		<stop  offset="0" style="stop-color:#FFFFFF"/>
		<stop  offset="0" style="stop-color:#FFFFFF"/>
		<stop  offset="0.23" style="stop-color:#E4714E"/>
		<stop  offset="0.56" style="stop-color:#BE1A0D"/>
		<stop  offset="0.99" style="stop-color:#A80D00"/>
		<stop  offset="1" style="stop-color:#A80D00"/>
	</linearGradient>
	<polygon class="st4" points="22.56,23.48 19.16,10.14 9.41,19.27 	"/>
	
		<linearGradient id="SVGID_6_" gradientUnits="userSpaceOnUse" x1="0" y1="32" x2="1" y2="32" gradientTransform="matrix(1.4793 6.3751 -6.3751 1.4793 227.6708 -43.2392)">
		<stop  offset="0" style="stop-color:#FFFFFF"/>
		<stop  offset="0" style="stop-color:#FFFFFF"/>
		<stop  offset="0.18" style="stop-color:#E46342"/>
		<stop  offset="0.4" style="stop-color:#C82410"/>
		<stop  offset="0.99" style="stop-color:#A80D00"/>
		<stop  offset="1" style="stop-color:#A80D00"/>
	</linearGradient>
	<polygon class="st5" points="31.09,10.33 21.88,2.81 19.32,11.1 	"/>
	
		<linearGradient id="SVGID_7_" gradientUnits="userSpaceOnUse" x1="0" y1="32" x2="1" y2="32" gradientTransform="matrix(6.3746 -3.1873 3.1873 6.3746 -82.8428 -202.1345)">
		<stop  offset="0" style="stop-color:#FFFFFF"/>
		<stop  offset="0" style="stop-color:#FFFFFF"/>
		<stop  offset="0.54" style="stop-color:#C81F11"/>
		<stop  offset="0.99" style="stop-color:#BF0905"/>
		<stop  offset="1" style="stop-color:#BF0905"/>
	</linearGradient>
	<polygon class="st6" points="26.78,0.12 21.37,3.12 17.95,0.08 	"/>
	
		<linearGradient id="SVGID_8_" gradientUnits="userSpaceOnUse" x1="0" y1="32" x2="1" y2="32" gradientTransform="matrix(0.5247 5.2529 -5.2529 0.5247 168.7647 1.4476)">
		<stop  offset="0" style="stop-color:#FFFFFF"/>
		<stop  offset="0" style="stop-color:#FFFFFF"/>
		<stop  offset="0.31" style="stop-color:#DE4024"/>
		<stop  offset="0.99" style="stop-color:#BF190B"/>
		<stop  offset="1" style="stop-color:#BF190B"/>
	</linearGradient>
	<polygon class="st7" points="0.04,25.39 2.31,21.25 0.48,16.32 	"/>
	<path class="st8" d="M0.36,16.16L2.2,21.4l8.03-1.8l9.16-8.52l2.59-8.21L17.9,0l-6.92,2.59C8.8,4.62,4.57,8.63,4.42,8.71
		C4.27,8.78,1.62,13.78,0.36,16.16z"/>
	
		<linearGradient id="SVGID_9_" gradientUnits="userSpaceOnUse" x1="0" y1="32" x2="1" y2="32" gradientTransform="matrix(24.6635 -25.361 25.361 24.6635 -814.4888 -764.3236)">
		<stop  offset="0" style="stop-color:#BD0012"/>
		<stop  offset="0" style="stop-color:#BD0012"/>
		<stop  offset="0.07" style="stop-color:#FFFFFF"/>
		<stop  offset="0.17" style="stop-color:#FFFFFF"/>
		<stop  offset="0.27" style="stop-color:#C82F1C"/>
		<stop  offset="0.33" style="stop-color:#820C01"/>
		<stop  offset="0.46" style="stop-color:#A31601"/>
		<stop  offset="0.72" style="stop-color:#B31301"/>
		<stop  offset="0.99" style="stop-color:#E82609"/>
		<stop  offset="1" style="stop-color:#E82609"/>
	</linearGradient>
	<path class="st9" d="M6.84,6.75C11.57,2.07,17.66-0.7,20,1.66c2.34,2.36-0.14,8.09-4.87,12.78S4.39,22.04,2.05,19.68
		C-0.29,17.32,2.11,11.44,6.84,6.75z"/>
	
		<linearGradient id="SVGID_10_" gradientUnits="userSpaceOnUse" x1="0" y1="32" x2="1" y2="32" gradientTransform="matrix(-7.4289 -1.8335 1.8335 -7.4289 -42.717 265.1924)">
		<stop  offset="0" style="stop-color:#8C0C01"/>
		<stop  offset="0" style="stop-color:#8C0C01"/>
		<stop  offset="0.54" style="stop-color:#990C00"/>
		<stop  offset="0.99" style="stop-color:#A80D0E"/>
		<stop  offset="1" style="stop-color:#A80D0E"/>
	</linearGradient>
	<path class="st10" d="M6.63,31.7l3.67-12.16l12.19,3.92C18.08,27.59,13.18,31.08,6.63,31.7z"/>
	
		<linearGradient id="SVGID_11_" gradientUnits="userSpaceOnUse" x1="0" y1="32" x2="1" y2="32" gradientTransform="matrix(-6.5996 -5.915 5.915 -6.5996 -160.5651 229.7383)">
		<stop  offset="0" style="stop-color:#7E110B"/>
		<stop  offset="0" style="stop-color:#7E110B"/>
		<stop  offset="0.99" style="stop-color:#9E0C00"/>
		<stop  offset="1" style="stop-color:#9E0C00"/>
	</linearGradient>
	<path class="st11" d="M19.41,11.06l3.13,12.4c3.68-3.87,6.99-8.03,8.61-13.18L19.41,11.06z"/>
	
		<linearGradient id="SVGID_12_" gradientUnits="userSpaceOnUse" x1="0" y1="32" x2="1" y2="32" gradientTransform="matrix(-3.2874 -3.5145 3.5145 -3.2874 -81.3226 112.8948)">
		<stop  offset="0" style="stop-color:#79130D"/>
		<stop  offset="0" style="stop-color:#79130D"/>
		<stop  offset="0.99" style="stop-color:#9E120B"/>
		<stop  offset="1" style="stop-color:#9E120B"/>
	</linearGradient>
	<path class="st12" d="M31.11,10.34c1.25-3.78,1.54-9.2-4.37-10.21L21.9,2.81L31.11,10.34z"/>
	<path class="st13" d="M0.04,25.33c0.17,6.24,4.68,6.33,6.59,6.39L2.21,21.38L0.04,25.33z"/>
	
		<radialGradient id="SVGID_13_" cx="0" cy="32" r="1" gradientTransform="matrix(8.0874 0 0 8.0874 23.1433 -246.0486)" gradientUnits="userSpaceOnUse">
		<stop  offset="0" style="stop-color:#A80D00"/>
		<stop  offset="0" style="stop-color:#A80D00"/>
		<stop  offset="0.99" style="stop-color:#7E0E08"/>
		<stop  offset="1" style="stop-color:#7E0E08"/>
	</radialGradient>
	<path class="st14" d="M19.42,11.08c2.83,1.74,8.53,5.23,8.65,5.3c0.18,0.1,2.46-3.84,2.98-6.07L19.42,11.08z"/>
	
		<radialGradient id="SVGID_14_" cx="0" cy="32" r="1" gradientTransform="matrix(10.7512 0 0 10.7512 11.9432 -320.6302)" gradientUnits="userSpaceOnUse">
		<stop  offset="0" style="stop-color:#A30C00"/>
		<stop  offset="0" style="stop-color:#A30C00"/>
		<stop  offset="0.99" style="stop-color:#800E08"/>
		<stop  offset="1" style="stop-color:#800E08"/>
	</radialGradient>
	<path class="st15" d="M10.3,19.54l4.91,9.47c2.9-1.57,5.17-3.49,7.26-5.55L10.3,19.54z"/>
	
		<linearGradient id="SVGID_15_" gradientUnits="userSpaceOnUse" x1="0" y1="32" x2="1" y2="32" gradientTransform="matrix(-2.679 -9.089 9.089 -2.679 -286.5209 117.4204)">
		<stop  offset="0" style="stop-color:#8B2114"/>
		<stop  offset="0" style="stop-color:#8B2114"/>
		<stop  offset="0.43" style="stop-color:#9E100A"/>
		<stop  offset="0.99" style="stop-color:#B3100C"/>
		<stop  offset="1" style="stop-color:#B3100C"/>
	</linearGradient>
	<path class="st16" d="M2.19,21.39l-0.7,8.28c1.31,1.79,3.12,1.95,5.01,1.81C5.13,28.07,2.4,21.25,2.19,21.39z"/>
	
		<linearGradient id="SVGID_16_" gradientUnits="userSpaceOnUse" x1="0" y1="32" x2="1" y2="32" gradientTransform="matrix(6.0061 2.6512 -2.6512 6.0061 109.7174 -190.6222)">
		<stop  offset="0" style="stop-color:#B31000"/>
		<stop  offset="0" style="stop-color:#B31000"/>
		<stop  offset="0.44" style="stop-color:#910F08"/>
		<stop  offset="0.99" style="stop-color:#791C12"/>
		<stop  offset="1" style="stop-color:#791C12"/>
	</linearGradient>
	<path class="st17" d="M21.87,2.83l9.75,1.37c-0.52-2.21-2.12-3.63-4.84-4.07L21.87,2.83z"/>
</g>
</svg>
