<?xml version="1.0" encoding="utf-8"?>
<!-- Generator: Adobe Illustrator 25.2.0, SVG Export Plug-In . SVG Version: 6.00 Build 0)  -->
<svg version="1.1" id="Layer_1" xmlns="http://www.w3.org/2000/svg" xmlns:xlink="http://www.w3.org/1999/xlink" x="0px" y="0px"
	 viewBox="0 0 17 17" style="enable-background:new 0 0 17 17;" xml:space="preserve">
<style type="text/css">
	.st0{fill:#0066CC;}
</style>
<g>
	<g>
		<g>
			<g>
				<path class="st0" d="M10,1.5c-1.4-0.7-2.7,0-3.4,1.3C6.4,3.2,6.4,3.9,6.3,4.5c-0.6,2.8-1.1,5.7-2,8.5c-0.2,0.6-0.4,1.3-0.9,1.7
					c-0.4,0.3-1,0.2-1.5,0c-0.6-0.3-1.1,0.5-0.5,0.9c1.1,0.6,2.5,0.4,3.2-0.7c0.6-1,0.9-2.3,1.1-3.4c0.6-2.6,1.2-5.2,1.7-7.8
					c0-0.1,0-0.2,0-0.3c0,0.1-0.1,0.2,0,0c0-0.1,0.1-0.2,0.2-0.3c0.4-0.7,1.1-1.1,1.9-0.7C10.1,2.6,10.6,1.8,10,1.5L10,1.5z"/>
			</g>
		</g>
		<g>
			<g>
				<path class="st0" d="M4.2,6.2c1.3,0,2.6,0,4,0c0.2,0,0.4,0,0.6,0c0.6,0,0.6-1,0-1c-1.3,0-2.6,0-4,0c-0.2,0-0.4,0-0.6,0
					C3.5,5.2,3.5,6.2,4.2,6.2L4.2,6.2z"/>
			</g>
		</g>
	</g>
	<g>
		<g>
			<g>
				<path class="st0" d="M10.5,5.1C10.1,7,9.8,8.9,9.4,10.7c-0.1,0.3-0.1,0.5-0.2,0.8c-0.1,0.6,0.8,0.9,1,0.3
					c0.4-1.9,0.8-3.7,1.2-5.6c0.1-0.3,0.1-0.5,0.2-0.8C11.6,4.8,10.7,4.5,10.5,5.1L10.5,5.1z"/>
			</g>
		</g>
		<g>
			<g>
				<path class="st0" d="M10.9,8.5C10.8,8.7,10.9,8.5,10.9,8.5c0.1-0.3,0.2-0.4,0.3-0.6c0.2-0.4,0.5-0.9,0.9-1.3
					c0.4-0.4,0.8-0.7,1.3-0.9c0.3-0.1,0.5-0.1,0.8,0c0.2,0,0.4,0.1,0.5,0.3c0-0.1,0.1,0.1,0.1,0.2c0-0.1,0,0.1,0,0.1
					c0,0.1,0-0.1,0,0c0,0,0,0.1,0,0.1c0,0.1,0-0.2,0,0c0,0.1,0,0.2-0.1,0.3c-0.2,0.9-0.4,1.8-0.5,2.7c-0.1,0.7-0.3,1.5-0.4,2.2
					c-0.1,0.6,0.8,0.9,1,0.3c0.3-1.7,0.7-3.3,1-5c0.1-0.6,0.1-1.1-0.3-1.6c-0.4-0.5-1.2-0.6-1.8-0.6c-0.7,0.1-1.3,0.4-1.9,0.8
					c-0.8,0.7-1.4,1.7-1.8,2.6C9.8,8.5,10,8.8,10.3,8.8C10.6,8.9,10.8,8.7,10.9,8.5L10.9,8.5z"/>
			</g>
		</g>
	</g>
</g>
</svg>
