<?xml version="1.0" encoding="utf-8"?>
<!-- Generator: Adobe Illustrator 20.1.0, SVG Export Plug-In . SVG Version: 6.00 Build 0)  -->
<svg version="1.1" id="Layer_1" xmlns="http://www.w3.org/2000/svg" xmlns:xlink="http://www.w3.org/1999/xlink" x="0px" y="0px"
	 viewBox="0 0 32 32" style="enable-background:new 0 0 32 32;" xml:space="preserve">
<style type="text/css">
	.st0{fill:#FFFFFF;}
	.st1{fill:#E12434;}
</style>
<g>
	<path class="st0" d="M27.5,24.46c-1.13,0-2.16,0.2-2.92,0.51c-0.08,0.04-0.14,0.13-0.14,0.23c0,0.04,0.01,0.07,0.02,0.1
		c0.09,0.26-0.06,0.54-0.79,0.7c-1.09,0.24-1.78,1.36-2.17,1.74c-0.46,0.44-1.77,0.71-1.57,0.45c0.15-0.2,0.74-0.84,1.1-1.53
		c0.32-0.62,0.6-0.79,1-1.38c0.11-0.17,0.56-0.78,0.69-1.26c0.15-0.47,0.1-1.06,0.15-1.3c0.08-0.35,0.41-1.11,0.43-1.53
		c0.01-0.24-1.01,0.34-1.49,0.34c-0.49,0-0.96-0.29-1.39-0.31c-0.54-0.02-0.88,0.41-1.37,0.34c-0.28-0.04-0.51-0.29-1-0.31
		c-0.69-0.03-1.53,0.38-3.12,0.33c-1.56-0.05-3-1.97-3.19-2.27c-0.23-0.36-0.51-0.36-0.82-0.08c-0.31,0.28-0.68,0.06-0.79-0.13
		c-0.2-0.36-0.75-1.4-1.6-1.62c-1.17-0.3-1.76,0.65-1.69,1.4c0.08,0.77,0.57,0.98,0.8,1.39c0.23,0.41,0.35,0.67,0.78,0.85
		c0.31,0.13,0.42,0.32,0.33,0.57c-0.08,0.22-0.4,0.27-0.61,0.28c-0.45,0.02-0.76-0.1-0.99-0.25c-0.27-0.17-0.48-0.4-0.71-0.8
		c-0.27-0.44-0.69-0.63-1.18-0.63c-0.23,0-0.45,0.06-0.65,0.16c-0.77,0.4-1.69,0.64-2.67,0.64l-1.11,0
		C2.97,27.44,8.95,31.99,16,31.99c5.63,0,10.58-2.91,13.43-7.3C28.81,24.55,28.16,24.46,27.5,24.46z"/>
	<path d="M19.49,23.21c-0.01,0-0.03,0.01-0.04,0.02c-0.21,0.24-0.3,0.32-0.45,0.44c-0.36,0.29-0.77-0.04-1.04-0.19
		c-0.59-0.34-1.06-0.13-1.18,0.14c-0.11,0.27,0.01,0.59,0.33,0.55c0.45-0.06,0.47,0.01,0.79,0.22c0.6,0.38,1.04,0.17,1.27-0.01
		c0.19-0.15,0.29-0.28,0.39-0.46c0.17-0.34,0.03-0.61-0.05-0.69C19.51,23.22,19.5,23.21,19.49,23.21z"/>
	<path d="M16,0C7.16,0,0,7.16,0,16c0,1.79,0.29,3.51,0.83,5.11h1.11c0.99,0,1.9-0.24,2.67-0.64c0.19-0.1,0.41-0.16,0.65-0.16
		c0.49,0,0.91,0.19,1.18,0.63c0.23,0.4,0.45,0.63,0.71,0.8c0.23,0.15,0.54,0.27,0.99,0.25c0.21-0.01,0.53-0.06,0.61-0.28
		c0.09-0.25-0.02-0.44-0.33-0.57c-0.43-0.18-0.55-0.45-0.78-0.85c-0.23-0.41-0.73-0.62-0.8-1.39c-0.08-0.76,0.52-1.71,1.69-1.4
		c0.85,0.22,1.39,1.26,1.6,1.62c0.11,0.19,0.49,0.41,0.79,0.13c0.31-0.28,0.59-0.28,0.82,0.08c0.2,0.31,1.64,2.22,3.19,2.27
		c1.58,0.05,2.43-0.36,3.12-0.33c0.48,0.02,0.72,0.26,1,0.31c0.49,0.08,0.83-0.36,1.37-0.34c0.43,0.02,0.91,0.31,1.39,0.31
		c0.49,0,1.51-0.59,1.49-0.34c-0.02,0.43-0.35,1.18-0.43,1.53c-0.06,0.24-0.01,0.83-0.15,1.3c-0.13,0.48-0.58,1.09-0.69,1.26
		c-0.39,0.59-0.68,0.76-1,1.38c-0.36,0.69-0.94,1.33-1.1,1.53c-0.2,0.26,1.11-0.01,1.57-0.45c0.39-0.37,1.08-1.5,2.17-1.74
		c0.74-0.16,0.88-0.44,0.79-0.7c-0.01-0.03-0.02-0.07-0.02-0.1c0-0.1,0.06-0.19,0.14-0.23c0.76-0.32,1.79-0.51,2.92-0.51
		c0.66,0,1.32,0.09,1.93,0.23C31.05,22.19,32,19.2,32,16C32,7.16,24.83,0,16,0z"/>
	<path class="st1" d="M25.03,11.74c-0.16,0.53-0.38,1.21-1.38,1.72c-0.15,0.07-0.2-0.05-0.13-0.16c0.38-0.64,0.45-0.8,0.56-1.06
		c0.15-0.37,0.23-0.9-0.07-2c-0.6-2.17-1.86-5.06-2.77-6c-0.88-0.91-2.48-1.16-3.92-0.79c-0.53,0.14-1.57,0.68-3.5,0.24
		c-3.33-0.75-3.83,0.92-4.02,1.65C9.6,6.07,9.14,8.14,9.14,8.14c-0.15,0.84-0.35,2.31,4.82,3.29c2.41,0.46,2.53,1.08,2.64,1.53
		c0.19,0.8,0.5,1.26,0.84,1.49c0.34,0.23,0,0.42-0.38,0.46c-1.03,0.11-4.82-0.98-7.07-2.26c-1.84-1.12-1.87-2.13-1.45-2.99
		c-2.78-0.3-4.86,0.26-5.24,1.57c-0.65,2.26,4.96,6.11,11.34,8.04c6.7,2.03,13.59,0.61,14.36-3.6
		C29.35,13.77,27.74,12.35,25.03,11.74z M14.75,7.62c-1.85,0.13-2.04,0.33-2.39,0.7c-0.49,0.52-1.13-0.67-1.13-0.67
		c-0.39-0.08-0.85-0.7-0.6-1.28c0.25-0.57,0.71-0.4,0.85-0.22c0.17,0.22,0.55,0.57,1.03,0.56c0.48-0.01,1.04-0.11,1.82-0.11
		c0.79,0,1.32,0.3,1.35,0.55C15.72,7.35,15.63,7.55,14.75,7.62z M18.75,5.78c-0.33-0.01-0.64-0.06-0.91-0.13
		c-0.03-0.01-0.05-0.04-0.05-0.07c0-0.03,0.02-0.06,0.06-0.07c0.64-0.15,1.07-0.39,1.04-0.62c-0.04-0.3-0.88-0.47-1.87-0.37
		c-0.11,0.01-0.21,0.03-0.32,0.04c0,0-0.01,0-0.01,0c-0.03,0-0.05-0.02-0.05-0.05c0-0.02,0.01-0.04,0.03-0.04
		c0.36-0.19,0.89-0.34,1.5-0.4c0.18-0.02,0.36-0.03,0.54-0.03c0.03,0,0.06,0,0.09,0c1.03,0.02,1.85,0.43,1.83,0.91
		C20.62,5.43,19.78,5.8,18.75,5.78z"/>
</g>
</svg>
