<svg xmlns="http://www.w3.org/2000/svg" viewBox="0 0 2910.9 2910.9"><defs><linearGradient id="linear-gradient" x1="1451.9" x2="1456.5" y1="4159.5" y2="2493" gradientTransform="matrix(1 0 0 -1 0 3648.4)" gradientUnits="userSpaceOnUse"><stop offset="0" stop-color="#fff" stop-opacity=".8"/><stop offset=".6" stop-color="#fff" stop-opacity=".4"/><stop offset="1" stop-color="#fff" stop-opacity="0"/></linearGradient><style>.cls-3{fill:none}</style></defs><g id="Layer_1"><g id="Layer_1-2" data-name="Layer_1"><path fill="#0088da" d="m2615.5 669.8-953.1-550.4L1455.5 0l-206.9 119.4-953.1 550.4L195 727.7v1455.5l100.5 58 965.1 557.2 195.2 112.5 195.2-112.5 965.1-557.2 99.8-57.6V727.7l-100.4-57.9Z"/><path fill="#e2b058" d="m1455.5 2171.6 3.1-3.1h-1c-.4 1-1.1 2.1-2.1 3.1Z"/><path fill="#fff" d="M618.8 1568c-11.3-.3-3.8 0 0 0Zm-.3 0c-11-.3-6.2 0-2.4 0h5.8-3.4c2.4 0 3.4.4 0 0Zm284.4-167.4c23.6-91.5-87.4-213.4-96.6-225 0 0-.2-.2-.3-.4-133.2-136.3-64.7-272.4 28.3-257.4 66.9 11 32.3 109.1 68.3 118.7h.7c21.6 2.1 63.8-49.8 70-67.3 24-67.9-114.6-109.5-156.8-106.7-84.7 5.1-140.3 51.1-174.3 127-62.4 139.6 54.2 232.6 124.9 328.4 53.5 72.4 51.1 136.9-14.4 199-72 68.3-145.2-28.5-154.8-94.7-8.6-60.7-18.5-100.2-69.3-23-47 71.7 18.5 159.7 77.7 169 14 1 234.4 49.3 296.6-167.6Zm920.5 383.9c-325.2 29.5-803.9 73.4-904.7 425.5-.7 2.1-2.4 3.1-4.5 2.4-1-.3-1.7-.7-2.1-1.7C813.3 2041.9 601 1918 404 1923.9c-2.1.3-3.8-.7-4.1-2.7s.7-3.8 2.7-4.1c507.1-251.8 1025.1-131.1 1572.7-228.9 229.5-60.1 372.1-167.2 449.6-349.4 12.9-22.2 12.2-56.5-23.5-32.1-55.2 37.4-106.1 91.6-166.1 120.8-2.7 1.4-5.8 2.7-8.9 3.8-1 .3-1.7 1.4-2.1 2.4-173.9 396.8-657.8 69.7-89.9-13 1.4-.3 2.4-1.4 2.4-2.4l32-104c.7-2.1-.7-3.8-2.4-4.5-1.4-.3-3.1.3-3.8 1.4-13 19.2-27.4 37.4-42.9 54.6-20.2 21.3-36 34.3-48 39.1-13.7 5.1-28.1 8.2-42.5 8.9-17.2 1-31.9-5.8-43.2-20.2-11.3-14.4-17.5-35.7-18.9-63.8-.3-4.5-.3-9.6 0-15.1.3-2.1-.7-3.8-2.4-4.5-2.1-.3-3.8.7-4.5 2.4-5.5 10.6-11 20.6-16.5 29.5-16.1 28.1-36.4 53.9-59.4 76.9s-44.6 34.7-64.8 36c-38.1 2.4-58.7-19.2-61.4-64.5-2.7-43.2 14.4-132.1 51.5-264.5 2.1-5.8 2.7-12 2.4-17.8-.7-12-7.5-16.8-21.6-15.8-16.1 1.4-31.6 7.9-44.3 18.5-15.8 13.4-28.8 29.9-38.1 48.4-11.3 20.6-21.3 41.9-30.5 63.5-9.6 23.7-17.5 48.4-23.7 73.4-6.9 27.8-12.7 51.1-16.5 69.3-4.1 18.9-7.9 38.8-11.7 59.4-2.7 14.4-5.8 32.3-6.5 35l-.7 2.7s-93.5 6.5-94.3 6.2c-2-16.8 16.7-80.9 18.7-90.6-17.1 29.9-23.8 39.4-37.6 57.7-8.9 11.3-18.6 22.1-28.8 32.3-22.6 22.6-44.6 34.7-64.8 36h-4.1c-33.3 0-52.1-26.1-55.2-77.5-.7-10.3-1-20.6-.7-31.2.3-2.1-.7-3.8-2.4-4.5-2.1-.3-3.8.7-4.5 2.4-51.8 95-98.5 143.1-141.7 145.8-38.1 2.4-58.7-20.2-61.8-67.6-3.4-52.5 11-129.4 42.9-228.2 6.9-24.4 9.9-41.2 9.3-50.1-1-13.7-7.2-15.4-12.4-15.4h-1.4c-4.5.3-14.1 3.1-34.3 15.8-17.8 11.7-33.3 26.1-46 42.9-14.8 19.2-26.4 40.8-35 63.5-8.9 24-16.1 44.9-21.3 62.4s-10.3 39.1-15.4 63.8-9.6 46-13.7 61.8c-4.1 15.8-8.2 34-12.4 54.9l-.7 2.7-90.6 5.8c-2.1 0-3.8-1.4-3.8-3.4v-1.4c13.4-46.3 32.3-121.5 56.3-223 24-101.6 46-182.9 63.8-241.2 15.4-50.8 33.6-100.9 54.9-149.3 16.5-37.7 38.8-73.1 65.9-104.3 25.7-28.8 54.6-44.3 85.1-46.3 32.3-2.1 49.4 14.1 51.8 47.4 1.4 22.3-5.1 52.2-19.2 89.6-25.7 66.2-68.6 143.4-128 229.5-1.4 1.4-1.4 3.8 0 5.1s3.8 1.4 5.1 0c10.3-7.9 21.3-15.1 32.9-20.9 17.2-8.9 36-14.1 55.6-15.8 36.7-2.4 56.3 14.4 58.7 49.8 1 13-.3 26.1-4.1 38.4-3.4 11.3-7.2 24.7-11.7 39.5-4.1 14.8-7.5 27.1-10.3 36.4-2.7 9.6-6.2 22.3-10.6 38.4-4.5 16.1-7.9 30.2-9.9 41.2-6.2 27.8-8.6 50.1-7.5 66.2 1.4 20.6 9.6 20.6 12.4 20.6h1c34.7-2.1 75.5-62.4 121.8-179.1.3-.7.3-1 .7-1.7 10.6-38.4 24-76.2 40.1-112.5 19.2-42.2 42.5-64.5 70-66.2l54.9-2.7c2.1 0 3.8 1.4 3.8 3.4s-.3 2.1-1 2.7c-8.6 8.2-19.9 30.2-33.6 65.5-14.4 38.1-24.4 64.2-30.9 81.7-6.5 18.2-14.1 42.9-22 73.8s-11.3 55.6-9.9 74.1c1.7 24.4 11 24.4 14.1 24.4h1c4.8-.3 13.7-3.8 29.8-18.5 12.4-11.3 23-24 31.9-38.1 8.2-13.4 17.2-30.2 27.1-50.8 9.9-20.6 18.5-38.4 25.7-53.5 7.9-16.1 11-21.6 13-23.7l4.5-8.2c16.8-67.9 24.7-115.6 23-142.1 0-4.5-1-8.9-3.1-13-1-1.4-1-3.8.7-4.8.7-.3 1.4-.7 2.1-.7l38.1-2.4c22.3-1.4 36.4 0 43.6 4.8s11.7 12.7 12 20.9c0 8.2-.7 16.8-2.4 25-.3 2.1 1 3.8 3.1 4.1 1 .3 2.4-.3 3.1-1 42.9-44.6 87.5-68.6 133.5-71.4 36.7-2.4 56.6 15.1 58.7 51.8.7 11.7 0 23.3-2.4 35s-8.2 34.3-18.5 69.3c-21.6 75.1-31.9 125.6-30.2 150.3 1 17.5 7.9 19.6 13 19.6h1c4.8-.3 13.7-3.8 29.5-18.9 12.4-11.7 23-24.7 32.3-38.8 9.9-16.1 19.2-32.9 27.4-50.1 9.9-19.9 18.2-37.7 25.4-52.8 2.4-5.5 4.5-9.6 6.2-13 0-.3.3-.3.3-.7 9.9-41.9 21.6-76.5 35-103.3 15.4-31.6 32.9-52.5 51.5-62.8 18.5-10.3 43.9-16.1 76.5-18.2 4.1-.3 7.5 2.7 7.9 6.5v.7c.3 3.8-1.7 7.9-5.8 13-23 25-45.3 69.3-66.9 131.8-21.6 62.4-30.9 114.9-28.5 156.8 1.4 19.2 6.2 29.2 14.4 29.2h.7c20.2-1.4 46-26.4 75.8-74.8 29.2-46 52.1-95.4 68.6-147.2 2.1-6.9 4.8-16.5 8.6-29.5s6.5-21.6 7.9-26.4 4.1-11.7 7.5-20.2c2.3-6.7 5.7-12.8 9.7-18.5.2-.3.4-.5.6-.8 2.7-3 6.7-7 11.3-12 4.8-5.1 10.3-8.9 16.8-11 16.1-4.8 32.6-7.9 49.4-9.3l38.1-2.4c1.7-.7 3.8.3 4.5 2.1.7 1.7-.3 3.8-2.1 4.5l-.7.7c-17.2 13.4-34 45.3-49.7 95-13 42.2-24 81.3-32.6 116s-14.1 55.9-16.1 63.5c-2.1 7.5-6.5 26.1-13.4 54.2-5.1 21.3-9.6 38.8-13.4 52.8-.7 1.7 0 3.8 1.7 4.5 1 .3 2.4.3 3.4-.7 37.4-22.3 71.7-49.1 102.9-79.6 17.5-17.5 156.4-164.1 156.4-71.4-8.7 344.1-357.4 522.1-682.6 551.6Zm-587-972c-13.4.7-37.1 21.3-72.7 113.2-24.7 63.5-48.7 135.9-71.7 215.5-.7 2.1.7 3.8 2.4 4.5 1.4.3 3.1 0 4.1-1.4 61.8-94.4 104.6-172.9 127.3-234.3 14.1-41.9 20.6-69.7 19.9-82-1-15.1-6.9-15.1-8.6-15.1l-.7-.4Zm885.7 657.5c-14.3 2.7-190.1 48-172.3 86.9 20.3 44.1 138.9-12.1 172.3-86.9Zm-608.2-452.3c22-1 49.4-9.3 55.9-41.9 3.1-14.8-5.8-31.6-11.3-36.4-5.5-4.8-13-6.9-23-6.2s-22 6.9-33.3 17.5c-15.1 14.1-14.4 34.3-9.6 47.7 4.5 11.4 12.4 18.9 21.3 19.3Z" opacity=".9" style="isolation:isolate"/><path d="M2482.7 676.6c-180.1 288.1-572.6 487.9-1027.6 487.9S607.8 965 427.5 677l-95.9 55.3-64.4 37.1v1371.9l64.3 37.1 965.1 557.2 159.1 91.7 159.1-91.7 965.1-557.2 63.7-36.8V769.5l-64.3-37.1-96.6-55.8Z" class="cls-3"/><path fill="url(#linear-gradient)" d="M1455.1 1152.8c455 0 847.5-199.8 1027.6-487.9l-856.5-494.6-170.7-98.5-170.7 98.5-857.2 495c180.3 288 572.3 487.5 1027.5 487.5Z" opacity=".2" style="isolation:isolate"/><path fill="#0078be" d="m2615.5 669.8-953.1-550.4L1455.5 0l-206.9 119.4-953.1 550.4L195 727.7v1455.5l100.5 58 965.1 557.2 195.2 112.5 195.2-112.5 965.1-557.2 99.8-57.6V727.7l-100.4-57.9Zm28.2 1472-63.7 36.8-965.1 557.2-159.1 91.7-159.1-91.7-965.1-557.2-64.3-37.1v-1372l64.4-37.1 95.9-55.3 857.2-495 170.7-98.5 170.7 98.5 856.5 494.6 96.6 55.8 64.3 37.1v1372.2Z"/><path d="M2482.7 676.6 1626.2 182l953.1 550.4-96.6-55.8z" class="cls-3"/></g></g></svg>
