<svg xmlns="http://www.w3.org/2000/svg" viewBox="0 0 220 220"><defs><style>.cls-1{fill:#68bd45;}</style></defs><title>springboot</title><g id="springboot"><path class="cls-1" d="M210.26,97.21l-40.43-70c-3.51-6.08-12.13-11.08-19.15-11.08H69.82c-7,0-15.64,5-19.15,11.06l-40.43,70c-3.52,6.08-3.52,16,0,22.12l40.43,70c3.51,6.08,12.13,11.06,19.15,11.06h80.86c7,0,15.63-5,19.15-11.06l40.43-70C213.78,113.24,213.78,103.3,210.26,97.21ZM101.51,54.85a8.34,8.34,0,1,1,16.67-.58,5.61,5.61,0,0,1,0,.58v49.81a8.34,8.34,0,0,1-16.67.58,5.61,5.61,0,0,1,0-.58Zm8.34,106.28A56.51,56.51,0,0,1,76.14,59.3,7.41,7.41,0,1,1,85,71.19a41.69,41.69,0,1,0,49.61-.06,7.43,7.43,0,0,1,8.76-12h0a56.52,56.52,0,0,1-33.51,102Z"/></g></svg>
