<?xml version="1.0" encoding="utf-8"?>
<!-- Generator: Adobe Illustrator 20.1.0, SVG Export Plug-In . SVG Version: 6.00 Build 0)  -->
<svg version="1.1" id="Layer_1" xmlns="http://www.w3.org/2000/svg" xmlns:xlink="http://www.w3.org/1999/xlink" x="0px" y="0px"
	 viewBox="0 0 32 32" style="enable-background:new 0 0 32 32;" xml:space="preserve">
<style type="text/css">
	.st0{fill:#6DB33F;}
	.st1{fill:#FFFFFF;}
</style>
<g>
	<g>
		<path class="st0" d="M15.93,31.83c-8.77,0-15.87-7.2-15.87-15.91c0-8.7,7.11-15.76,15.88-15.76c4.52,0,8.59,1.87,11.49,4.88
			l1.7-2.98C30.87,6.72,32,12.16,32,15.9C32,24.6,24.7,31.83,15.93,31.83L15.93,31.83L15.93,31.83z"/>
	</g>
</g>
<path class="st1" d="M9.93,26.72c1.7-0.53,3.52-1.09,5.04-1.58c6-1.92,11.16-6.76,12.53-12.85c-1.09,2.86-5.52,8.45-12.46,10.68
	c-2.23,0.7-4.54,1.14-6.82,1.67c-0.29,0.07-0.69-0.01-0.95-0.17c-1.46-0.9-2.25-2.52-2.37-4.14c-0.34-4.38,2.66-7.96,7.12-8.88
	c1.87-0.39,3.8-0.29,5.71-0.49c5.05-0.53,9.8-4.12,11.23-7.12c0,0,0.26,0.58,0.31,0.76c1.08,3.37,1.95,6.78,2.03,10.35
	c0.05,1.92-0.17,3.82-0.85,5.63c-1.38,3.65-4.19,5.5-7.95,5.94c-2.2,0.25-4.43,0.2-6.65,0.24C14.05,26.8,11.96,26.72,9.93,26.72"/>
<path class="st1" d="M7.7,26.91c0,0.74-0.61,1.34-1.36,1.34s-1.36-0.6-1.36-1.34c0-0.74,0.61-1.34,1.36-1.34S7.7,26.16,7.7,26.91"/>
</svg>
