<svg xmlns="http://www.w3.org/2000/svg" viewBox="0 0 100 100"><defs><style>.cls-1{fill:#d71e00;}.cls-2{fill:#c21a00;}.cls-3{fill:#cdcdcd;}.cls-4{fill:#fff;}.cls-5{fill:#eaeaea;}</style></defs><title>Logo</title><g id="Layer_1" data-name="Layer 1"><circle class="cls-1" cx="50" cy="50" r="50" transform="translate(-20.71 50) rotate(-45)"/><path class="cls-2" d="M85.36,14.64A50,50,0,0,1,14.64,85.36Z"/><path class="cls-3" d="M23.48,70.58v3a1.44,1.44,0,0,0,0,.28L46,51.45l-.71-2.63Z"/><path class="cls-3" d="M81.24,42.09,76.65,24.95A2,2,0,0,0,76,24l-2.21,2.21a2,2,0,0,1,.62,1l3.79,14.13a2,2,0,0,1-.53,2L67.36,53.59a2,2,0,0,1-2,.53L51.27,50.33a2,2,0,0,1-1-.62l-2.21,2.21a2,2,0,0,0,1,.62l17.14,4.59a2,2,0,0,0,2-.53L80.72,44.05A2,2,0,0,0,81.24,42.09Z"/><path class="cls-4" d="M45.09,41.62l-1.71,1.71a2.13,2.13,0,0,0,0,3l.77.77-20.3,20.3a1.25,1.25,0,0,0-.37.88v2.29L45.24,48.82,46,51.45,23.51,73.89A1.44,1.44,0,0,0,24.92,75h0L48.08,51.91a2.4,2.4,0,0,1-.45-.82Z"/><path class="cls-4" d="M73,25.71,58.88,21.93a2,2,0,0,0-2,.53L46.57,32.8a2,2,0,0,0-.53,2l3.79,14.13a2,2,0,0,0,.45.82L66.57,33.43,62.14,29a1.25,1.25,0,0,1,.28-1.15l-.06,0,.11-.11,0,.06a1.25,1.25,0,0,1,1.15-.28L70,29.29a1.24,1.24,0,0,1,.47.25l3.37-3.37A2,2,0,0,0,73,25.71Z"/><path class="cls-5" d="M78.23,41.28,74.45,27.15a2,2,0,0,0-.62-1l-3.37,3.37a1.25,1.25,0,0,1,.42.64l1.72,6.41a1.25,1.25,0,0,1-.28,1.15l.06,0-.11.11,0-.06a1.25,1.25,0,0,1-1.15.28l-4.59-4.59L50.29,49.71a2,2,0,0,0,1,.62L65.4,54.11a2,2,0,0,0,2-.53L77.7,43.24A2,2,0,0,0,78.23,41.28Z"/><path class="cls-5" d="M75.21,23.51,58.07,18.92a2,2,0,0,0-2,.53L43.56,32A2,2,0,0,0,43,34l4.59,17.14a2.4,2.4,0,0,0,.45.82L24.95,75h6.64a1.25,1.25,0,0,0,.88-.37l1.83-1.83a1.25,1.25,0,0,0,.37-.88v-3.6A.47.47,0,0,1,34.8,68l.62-.62a.47.47,0,0,1,.33-.14h3.14a1.25,1.25,0,0,0,.88-.37l.56-.56a1.25,1.25,0,0,0,.37-.88V63.17a.47.47,0,0,1,.14-.33l.7-.7a.47.47,0,0,1,.33-.14h4.67a1.25,1.25,0,0,0,.88-.37L53,56l.77.77a2.13,2.13,0,0,0,3,0l1.71-1.71-9.47-2.54a2,2,0,0,1-1-.62l2.21-2.21a2,2,0,0,1-.45-.82L46,34.76a2,2,0,0,1,.53-2L56.92,22.46a2,2,0,0,1,2-.53L73,25.71a2,2,0,0,1,.82.45L76,24A2.43,2.43,0,0,0,75.21,23.51Z"/></g></svg>