<?xml version="1.0" encoding="utf-8"?>
<!-- Generator: Adobe Illustrator 20.1.0, SVG Export Plug-In . SVG Version: 6.00 Build 0)  -->
<svg version="1.1" id="Layer_1" xmlns="http://www.w3.org/2000/svg" xmlns:xlink="http://www.w3.org/1999/xlink" x="0px" y="0px"
	 viewBox="0 0 25 32" style="enable-background:new 0 0 25 32;" xml:space="preserve">
<style type="text/css">
	.st0{fill:#BCBBBB;}
	.st1{fill:#F48023;}
</style>
<polygon class="st0" points="21.14,28.37 21.14,20.44 23.77,20.44 23.77,31.01 0,31.01 0,20.44 2.63,20.44 2.63,28.37 "/>
<path class="st1" d="M5.54,19.69l12.93,2.7l0.55-2.6l-12.93-2.7L5.54,19.69z M7.25,13.53l11.97,5.57l1.09-2.39L8.34,11.1L7.25,13.53
	z M10.57,7.65l10.16,8.45l1.68-2.02L12.24,5.63L10.57,7.65z M17.13,1.39l-2.12,1.57l7.87,10.6L25,11.99L17.13,1.39z M5.27,25.7h13.2
	v-2.63H5.27V25.7z"/>
</svg>
