<?xml version="1.0" encoding="UTF-8" standalone="no"?>
<svg
   version="1.1"
   x="0"
   y="0"
   width="180"
   height="165"
   viewBox="0, 0, 180, 165"
   id="svg2"
   sodipodi:docname="suse.svg"
   inkscape:version="1.3.2 (091e20ef0f, 2023-11-25)"
   xmlns:inkscape="http://www.inkscape.org/namespaces/inkscape"
   xmlns:sodipodi="http://sodipodi.sourceforge.net/DTD/sodipodi-0.dtd"
   xmlns="http://www.w3.org/2000/svg"
   xmlns:svg="http://www.w3.org/2000/svg">
  <defs
     id="defs2" />
  <sodipodi:namedview
     id="namedview2"
     pagecolor="#ffffff"
     bordercolor="#000000"
     borderopacity="0.25"
     inkscape:showpageshadow="2"
     inkscape:pageopacity="0.0"
     inkscape:pagecheckerboard="0"
     inkscape:deskcolor="#d1d1d1"
     inkscape:zoom="1.724912"
     inkscape:cx="-22.899719"
     inkscape:cy="113.91886"
     inkscape:window-width="1920"
     inkscape:window-height="1011"
     inkscape:window-x="0"
     inkscape:window-y="0"
     inkscape:window-maximized="1"
     inkscape:current-layer="svg2" />
  <g
     id="Layer_1"
     transform="translate(-0.07252847,22.870651)">
    <g
       id="g2">
      <path
         d="m 144.609,50.569 c -0.657,0.436 -1.538,0.437 -2.195,0 -1.079,-0.716 -1.182,-2.211 -0.312,-3.079 0.772,-0.8 2.046,-0.8 2.819,-0.001 0.868,0.868 0.763,2.364 -0.312,3.08 m 3.14,-4.361 c 1.252,5.329 -3.537,10.121 -8.866,8.869 -2.712,-0.637 -4.868,-2.79 -5.502,-5.503 -1.251,-5.326 3.536,-10.114 8.864,-8.865 2.711,0.633 4.865,2.786 5.504,5.499 m -35.882,28.659 c 0.612,0.876 1.116,1.721 1.402,2.566 0.2,0.602 0.456,1.393 1.05,1.711 0.034,0.018 0.062,0.033 0.097,0.044 1.087,0.396 3.884,0.329 3.884,0.329 h 5.142 c 0.439,0.007 4.301,-0.004 4.205,-0.437 -0.463,-2.066 -2.855,-2.434 -4.671,-3.515 -1.679,-1 -3.266,-2.133 -3.99,-4.082 -0.374,-1.006 -0.152,-3.327 0.496,-4.173 0.473,-0.61 1.165,-1.016 1.916,-1.18 0.827,-0.177 1.687,-0.024 2.518,0.06 1.021,0.104 2.032,0.289 3.049,0.416 1.969,0.256 3.953,0.359 5.936,0.305 3.274,-0.091 6.555,-0.613 9.658,-1.67 2.165,-0.728 4.299,-1.711 6.141,-3.078 2.094,-1.557 1.546,-1.41 -0.577,-1.193 -2.542,0.261 -5.108,0.297 -7.656,0.147 -2.379,-0.138 -4.724,-0.418 -6.877,-1.524 -1.696,-0.874 -3.151,-1.75 -4.492,-3.105 -0.201,-0.204 -0.327,-0.802 0.041,-1.183 0.356,-0.371 1.113,-0.155 1.346,0.041 2.344,1.96 5.837,3.572 9.457,3.748 1.955,0.097 3.861,0.135 5.819,0.047 0.977,-0.044 2.457,-0.037 3.435,-0.047 0.508,-0.006 1.889,0.139 2.147,-0.397 0.077,-0.157 0.071,-0.338 0.065,-0.513 -0.288,-7.829 -0.867,-16.663 -9.061,-20.406 -6.114,-2.796 -15.281,-7.127 -19.152,-8.924 -0.9,-0.425 -1.95,0.249 -1.95,1.248 0,2.616 0.135,6.374 0.135,9.794 -1.854,-1.89 -4.978,-3.081 -7.359,-4.174 -2.702,-1.241 -5.495,-2.29 -8.332,-3.175 -5.72,-1.771 -11.636,-2.861 -17.586,-3.454 -6.746,-0.672 -13.608,-0.35 -20.257,1.022 -10.942,2.27 -21.698,7.534 -29.864,15.229 -5.013,4.724 -8.946,11.436 -9.213,18.25 -0.379,9.643 2.322,14.823 7.289,20.16 7.919,8.506 24.962,9.696 31.864,-0.39 3.103,-4.542 3.78,-10.701 1.525,-15.718 -2.252,-5.017 -7.433,-8.643 -12.927,-8.827 -4.264,-0.14 -8.805,2.027 -10.438,5.969 -1.247,3.009 -0.537,6.728 1.732,9.066 0.884,0.913 2.081,1.657 3.391,1.365 0.769,-0.17 1.414,-0.75 1.531,-1.532 0.172,-1.154 -0.839,-1.902 -1.459,-2.788 -1.121,-1.599 -0.894,-3.997 0.51,-5.356 1.184,-1.147 2.938,-1.486 4.587,-1.483 1.534,0.003 3.104,0.279 4.429,1.053 1.861,1.094 3.099,3.099 3.524,5.22 1.279,6.333 -3.869,11.479 -10.851,11.884 -3.571,0.212 -7.207,-0.728 -9.995,-2.972 -7.06,-5.679 -8.79,-17.288 -0.718,-23.486 7.659,-5.882 17.331,-4.366 23.03,-1.309 4.565,2.445 7.966,6.447 10.543,10.871 1.292,2.224 2.394,4.548 3.417,6.911 0.984,2.27 1.902,4.558 3.871,6.222 1.304,1.103 2.911,1.063 4.619,1.063 h 9.746 c 1.322,0 1.002,-0.882 0.428,-1.467 -1.292,-1.32 -3.148,-1.619 -4.868,-2.092 -3.926,-1.08 -3.526,-6.279 -2.44,-6.279 3.513,0 3.624,0.104 6.7,0.063 4.442,-0.06 5.783,-0.318 9.254,0.967 1.858,0.687 3.642,2.502 4.804,4.158"
         fill="#30ba78"
         id="path2" />
    </g>
  </g>
</svg>
