<?xml version="1.0" encoding="utf-8"?>
<!-- Generator: Adobe Illustrator 22.1.0, SVG Export Plug-In . SVG Version: 6.00 Build 0)  -->
<svg version="1.1" id="SUSE" xmlns="http://www.w3.org/2000/svg" xmlns:xlink="http://www.w3.org/1999/xlink" x="0px" y="0px"
	 viewBox="0 0 150 150" style="enable-background:new 0 0 150 150;" xml:space="preserve">
<style type="text/css">
	.st0{fill:#4CB85D;}
	.st1{fill:none;}
</style>
<title>suse</title>
<g id="Layer_2_1_">
	<g id="Layer_1-2">
		<path class="st0" d="M134.1,64.2c3.5,0.3,6.6-2.3,6.9-5.8c0.3-3.5-2.3-6.6-5.8-6.9h-0.9c-3.4-0.1-6.2,2.6-6.3,6c0,0,0,0,0,0l0,0
			c-0.3,3.3,2.1,6.3,5.4,6.6C133.7,64.2,133.9,64.3,134.1,64.2z M135.6,55c1.4,0,2.9,0.9,2.9,1.7s-1.1,1.7-2.9,1.7s-2.9-0.9-2.9-1.7
			S133.8,55,135.6,55z"/>
		<path class="st0" d="M149.1,66.6c0.3-0.3,1.1-0.6,0.9-1.4c-0.9-2.9-3.5-12.1-5.8-14.7c-0.6-0.8-1.4-1.5-2.3-2
			c-8.9-4.9-29.7-8.1-30.8-8.1h-0.3v4.9c-10.4-3.4-21.3-5.5-32.2-6c-12.4-0.6-29.1-1.1-53,13.5L25,53C14.7,58.8,6.6,67.8,2,78.6
			c-2.1,5.4-2.5,11.3-1.1,17c0.7,3.1,2.1,6.1,4,8.6c4.3,6,11,9.9,18.4,10.6c10.6,0.9,18.4-3.7,21.3-12.7c2.3-7.5-0.8-15.5-7.5-19.6
			c-4.9-3.3-11.3-3.6-16.4-0.6c-3.2,2-5.1,5.5-5.2,9.2c0,5.5,4.3,10,9.8,10.1c1.3,0,2.5-0.2,3.7-0.4c0.6-0.2,1.2-0.4,1.7-0.7l0,0
			c1.5-1.1,1.9-3.2,0.8-4.8c-0.8-1-2-1.6-3.3-1.4l-0.6,0.1l0,0c-0.8,0.2-1.5,0.3-2.3,0.3c-1.6-0.2-2.8-1.6-2.9-3.2l0,0
			c0-0.6,0.2-1.3,0.5-1.8c1.3-2,3.5-2.4,5.5-2.2c3.4,0.2,6.5,2.3,7.8,5.5c1.5,3.3,1.1,7.2-1.2,10.1c-2.3,2.9-6,4-11.5,3.5
			c-5.2-0.6-9.8-3.7-12.4-8.3c-2.5-4.4-2.7-9.9-0.3-14.4c5.5-10.1,15.6-10.1,21-8.9c7.8,1.4,19.9,8.4,24.2,24.8H67
			c-1.4-4.3-2-16.1,10.1-16.1c13.5,0,15.3,9.5,19,16.1h11.5c-2.9-4.3-5.2-9.2-4.6-13.2c0.9-6,5.8-5.5,12.4-4.6
			c2.4,0.3,4.8,0.5,7.2,0.6c6.2,0.2,12.4-1,18.1-3.5c2.2-0.9,4.3-1.9,6.3-3.2c0.5-0.6,0.9-1.2,1.1-2l0,0c0.3-0.7,0.5-1.5,0.6-2.3
			c0.3-1.2-0.9-0.6-0.9-0.6c-3.7,2.1-7.8,3.4-12.1,3.7c-6,0-18.1-6-19.3-6.6l0,0l-2.5-6.3c8.7,5.8,15.9,8.9,21.6,9.5
			C140.4,71,145.2,69.5,149.1,66.6z M125.2,57.6c0.2-4.9,4.3-8.8,9.2-8.6c4.9,0.2,8.8,4.3,8.6,9.2s-4.3,8.8-9.2,8.6c0,0,0,0,0,0l0,0
			C128.9,66.8,125.2,62.8,125.2,57.6L125.2,57.6z"/>
	</g>
</g>
<rect y="14.9" class="st1" width="150" height="10"/>
<rect y="125" class="st1" width="150" height="10"/>
</svg>
