<?xml version="1.0" encoding="UTF-8"?>
<svg xmlns="http://www.w3.org/2000/svg" version="1.1" xmlns:inkscape="http://www.inkscape.org/namespaces/inkscape" xmlns:sodipodi="http://sodipodi.sourceforge.net/DTD/sodipodi-0.dtd" xmlns:svg="http://www.w3.org/2000/svg" viewBox="0 0 180 180">
  <defs>
    <style>
      .cls-1 {
        fill: #30ba78;
      }
    </style>
  </defs>
  <!-- Generator: Adobe Illustrator 28.6.0, SVG Export Plug-In . SVG Version: 1.2.0 Build 709)  -->
  <g>
    <g id="svg2">
      <path id="path2" class="cls-1" d="M166.4,77.3c-.9.6-2.2.6-3.1,0-1.5-1-1.7-3.1-.4-4.3,1.1-1.1,2.9-1.1,3.9,0,1.2,1.2,1.1,3.3-.4,4.3M170.8,71.2c1.8,7.5-5,14.2-12.4,12.4-3.8-.9-6.8-3.9-7.7-7.7-1.8-7.5,5-14.2,12.4-12.4,3.8.9,6.8,3.9,7.7,7.7M120.5,111.3c.9,1.2,1.6,2.4,2,3.6.3.8.6,2,1.5,2.4,0,0,0,0,.1,0,1.5.6,5.4.5,5.4.5h7.2c.6,0,6,0,5.9-.6-.6-2.9-4-3.4-6.5-4.9-2.4-1.4-4.6-3-5.6-5.7-.5-1.4-.2-4.7.7-5.8.7-.9,1.6-1.4,2.7-1.7,1.2-.2,2.4,0,3.5,0,1.4.1,2.8.4,4.3.6,2.8.4,5.5.5,8.3.4,4.6-.1,9.2-.9,13.5-2.3,3-1,6-2.4,8.6-4.3,2.9-2.2,2.2-2-.8-1.7-3.6.4-7.2.4-10.7.2-3.3-.2-6.6-.6-9.6-2.1-2.4-1.2-4.4-2.5-6.3-4.4-.3-.3-.5-1.1,0-1.7.5-.5,1.6-.2,1.9,0,3.3,2.7,8.2,5,13.2,5.3,2.7.1,5.4.2,8.2,0,1.4,0,3.4,0,4.8,0,.7,0,2.6.2,3-.6.1-.2,0-.5,0-.7-.4-11-1.2-23.3-12.7-28.6-8.6-3.9-21.4-10-26.8-12.5-1.3-.6-2.7.3-2.7,1.7,0,3.7.2,8.9.2,13.7-2.6-2.6-7-4.3-10.3-5.8-3.8-1.7-7.7-3.2-11.7-4.4-8-2.5-16.3-4-24.6-4.8-9.5-.9-19.1-.5-28.4,1.4-15.3,3.2-30.4,10.6-41.8,21.3-7,6.6-12.5,16-12.9,25.6-.5,13.5,3.3,20.8,10.2,28.2,11.1,11.9,35,13.6,44.6-.5,4.3-6.4,5.3-15,2.1-22-3.2-7-10.4-12.1-18.1-12.4-6-.2-12.3,2.8-14.6,8.4-1.7,4.2-.8,9.4,2.4,12.7,1.2,1.3,2.9,2.3,4.8,1.9,1.1-.2,2-1.1,2.1-2.1.2-1.6-1.2-2.7-2-3.9-1.6-2.2-1.3-5.6.7-7.5,1.7-1.6,4.1-2.1,6.4-2.1,2.1,0,4.3.4,6.2,1.5,2.6,1.5,4.3,4.3,4.9,7.3,1.8,8.9-5.4,16.1-15.2,16.7-5,.3-10.1-1-14-4.2-9.9-8-12.3-24.2-1-32.9,10.7-8.2,24.3-6.1,32.3-1.8,6.4,3.4,11.2,9,14.8,15.2,1.8,3.1,3.4,6.4,4.8,9.7,1.4,3.2,2.7,6.4,5.4,8.7,1.8,1.5,4.1,1.5,6.5,1.5h13.7c1.9,0,1.4-1.2.6-2.1-1.8-1.8-4.4-2.3-6.8-2.9-5.5-1.5-4.9-8.8-3.4-8.8,4.9,0,5.1.1,9.4,0,6.2,0,8.1-.4,13,1.4,2.6,1,5.1,3.5,6.7,5.8"/>
    </g>
  </g>
</svg>