<svg id="Layer_1" data-name="Layer 1" xmlns="http://www.w3.org/2000/svg" viewBox="0 0 32 32"><title>symfony</title><path d="M19.78,26.66a1.78,1.78,0,0,1,1.36.55,1.91,1.91,0,0,1,.52,1.36,2,2,0,0,1-.52,1.36,1.73,1.73,0,0,1-1.36.58,1.7,1.7,0,0,1-1.33-.58,2,2,0,0,1-.52-1.36,1.9,1.9,0,0,1,.52-1.36,1.75,1.75,0,0,1,1.33-.55Zm0,3.28a1,1,0,0,0,.88-.44,1.71,1.71,0,0,0,.28-.94,1.64,1.64,0,0,0-.3-.94,1,1,0,0,0-.86-.44,1,1,0,0,0-.83.44,1.64,1.64,0,0,0-.3.94,1.78,1.78,0,0,0,.27.94.93.93,0,0,0,.86.44ZM17.84,27v-.25h-1v-.37a1.48,1.48,0,0,1,.11-.59q.11-.25.55-.25h0a.27.27,0,0,0,.28-.28l0-.22-.22,0-.25,0a1,1,0,0,0-1,.41,2.12,2.12,0,0,0-.23,1.06v.31h-.87V27a.44.44,0,0,0,.11.17.27.27,0,0,0,.2.08h.56v3.13h.38a.27.27,0,0,0,.2-.08.42.42,0,0,0,.11-.2V27.28h.66a.33.33,0,0,0,.22-.08.25.25,0,0,0,.09-.2h0Zm-9-.25h0a.38.38,0,0,0-.22.06A.3.3,0,0,0,8.5,27l-.94,2.81L6.62,27a.3.3,0,0,0-.12-.16.39.39,0,0,0-.22-.06H5.81l1.25,3.41.08.22a.6.6,0,0,1,0,.19A4.71,4.71,0,0,1,7,31a.64.64,0,0,1-.64.44l0,0a.27.27,0,0,0-.28.28l0,.22.2,0,.27,0a1,1,0,0,0,.94-.5,6.47,6.47,0,0,0,.47-1l1.34-3.72H8.84Zm-4.31.72q-.41-.19-.78-.39a.68.68,0,0,1-.37-.64.62.62,0,0,1,.33-.62,1.49,1.49,0,0,1,.64-.16h0l.23,0,.23,0h0a.27.27,0,0,0,.2-.08.42.42,0,0,0,.11-.2v-.22a2.08,2.08,0,0,0-.42-.08l-.42,0a1.9,1.9,0,0,0-1.16.34,1.2,1.2,0,0,0-.47,1,1.06,1.06,0,0,0,.34.88,4.74,4.74,0,0,0,.75.5,6,6,0,0,1,.81.42A.77.77,0,0,1,5,29a.75.75,0,0,1-.39.73,1.56,1.56,0,0,1-.7.2,1.86,1.86,0,0,1-.42,0l-.39-.08a.19.19,0,0,0-.19,0,.29.29,0,0,0-.09.23l0,.19a3,3,0,0,0,.5.14,2.87,2.87,0,0,0,.53,0h0a2.45,2.45,0,0,0,1.33-.34A1.49,1.49,0,0,0,5.31,28a3.2,3.2,0,0,0-.78-.55h0Zm10.22,2.94h0a.31.31,0,0,0,.2-.06.34.34,0,0,0,.11-.19V28.06a1.71,1.71,0,0,0-.28-1,1.13,1.13,0,0,0-1-.41,1.48,1.48,0,0,0-.59.16,1.08,1.08,0,0,0-.53.56,1.11,1.11,0,0,0-.44-.55,1.18,1.18,0,0,0-.62-.17,1.55,1.55,0,0,0-.67.14,1.09,1.09,0,0,0-.48.48h0V27a.25.25,0,0,0-.09-.2.33.33,0,0,0-.22-.08H9.81v3.66h.34a.32.32,0,0,0,.31-.31h0V28.56a2,2,0,0,1,.22-1,.78.78,0,0,1,.75-.42.51.51,0,0,1,.53.34,2,2,0,0,1,.13.69v2.19h.38a.27.27,0,0,0,.28-.28V28.56a1.93,1.93,0,0,1,.23-1,.78.78,0,0,1,.73-.42.51.51,0,0,1,.53.34,2,2,0,0,1,.13.69v2.19h.38Zm10.44,0h0a.3.3,0,0,0,.22-.09.27.27,0,0,0,.09-.19V28.22a1.81,1.81,0,0,0-.33-1.14,1.24,1.24,0,0,0-1-.42,1.49,1.49,0,0,0-.7.17,1.09,1.09,0,0,0-.48.48h0V27a.27.27,0,0,0-.28-.28h-.37v3.66h.38a.33.33,0,0,0,.22-.08.25.25,0,0,0,.09-.2V28.72a2.05,2.05,0,0,1,.27-1.11.94.94,0,0,1,.86-.42.69.69,0,0,1,.61.36,2.12,2.12,0,0,1,.17,1v1.91h.34Zm3.66-3.66h0a.38.38,0,0,0-.22.06.3.3,0,0,0-.12.16l-.94,2.81L26.62,27a.3.3,0,0,0-.12-.16.35.35,0,0,0-.19-.06h-.5l1.25,3.41.08.22a.6.6,0,0,1,0,.19A4.71,4.71,0,0,1,27,31a.61.61,0,0,1-.61.44l0,0,0,0a.27.27,0,0,0-.28.28l0,.22.2,0,.27,0a1,1,0,0,0,.94-.5,6.47,6.47,0,0,0,.47-1l1.34-3.72h-.41ZM26.72,11a10.94,10.94,0,0,1-3.22,7.8A11.45,11.45,0,0,1,20,21.19a10.64,10.64,0,0,1-4.31.88,10.56,10.56,0,0,1-4.28-.87,11.45,11.45,0,0,1-3.5-2.36,11.06,11.06,0,0,1-2.37-3.5A10.68,10.68,0,0,1,4.66,11a10.68,10.68,0,0,1,.88-4.3A11.26,11.26,0,0,1,7.91,3.22,11.08,11.08,0,0,1,11.41.86,10.73,10.73,0,0,1,15.69,0,10.81,10.81,0,0,1,20,.86a11,11,0,0,1,5.86,5.87A10.85,10.85,0,0,1,26.72,11ZM20.53,4.09A3.38,3.38,0,0,0,19,4.53,4.78,4.78,0,0,0,17.69,5.6a7.57,7.57,0,0,0-1,1.52A12.09,12.09,0,0,0,16,8.78q-.53-.44-1-.91a3.19,3.19,0,0,0-1.33-.72,3,3,0,0,0-1.3-.09,2.61,2.61,0,0,0-1.27.56,1.93,1.93,0,0,0-.52.53,2.43,2.43,0,0,0-.3.63,1.87,1.87,0,0,0,.09,1.47,5.08,5.08,0,0,0,.56.91l.69.75a2.45,2.45,0,0,1,.27.36.77.77,0,0,1,0,.67,1.07,1.07,0,0,1-.59.67,1.33,1.33,0,0,1-1,.08,2.34,2.34,0,0,1-.5-.27A.38.38,0,0,1,9.62,13a.77.77,0,0,1,.09-.19,1,1,0,0,1,.13-.16l0-.14,0-.11a.84.84,0,0,0,0-.66.71.71,0,0,0-.48-.44.82.82,0,0,0-.61,0,.73.73,0,0,0-.42.52A1.8,1.8,0,0,0,8.56,13a2.28,2.28,0,0,0,1.53,1.08,3,3,0,0,0,2.45-.17,2.35,2.35,0,0,0,1.23-1.61,1.84,1.84,0,0,0-.16-1.12A5.84,5.84,0,0,0,12.84,10l-.56-.59A1.29,1.29,0,0,1,12,8.78a.87.87,0,0,1,.22-.72,1.14,1.14,0,0,1,.55-.39,1.46,1.46,0,0,1,.86,0,2.53,2.53,0,0,1,1.2.64,10.9,10.9,0,0,0,1,.89q-.22.78-.39,1.53t-.3,1.44l-.12.69a27.94,27.94,0,0,1-.81,3.36A4.06,4.06,0,0,1,13,18.16l-.42.27a1.1,1.1,0,0,1-.58.14.28.28,0,0,1-.25-.09.32.32,0,0,1-.06-.16.16.16,0,0,1,.06-.19L11.9,18a1.54,1.54,0,0,0,.22-.19.61.61,0,0,0,.13-.44.87.87,0,0,0-.28-.62.88.88,0,0,0-.72-.25,1.18,1.18,0,0,0-.72.3,1,1,0,0,0-.37.86,1.29,1.29,0,0,0,.53,1A2,2,0,0,0,12,19a5.45,5.45,0,0,0,1.34-.34,4.7,4.7,0,0,0,1.84-1.44,8,8,0,0,0,1.56-2.75q.44-1.41.69-2.5L17.78,10l.31,0,.31,0a3.22,3.22,0,0,0,2.11-.53,1.64,1.64,0,0,0,.73-1.09.91.91,0,0,0-.2-.59.61.61,0,0,0-.48-.25.82.82,0,0,0-.45.16.69.69,0,0,0-.3.44.61.61,0,0,0,.2.58q.27.27-.14.52a2.1,2.1,0,0,1-.78.28,4,4,0,0,1-1.22,0l.16-1a22.23,22.23,0,0,1,.75-2.7A1.79,1.79,0,0,1,20.5,4.5l.33,0a.23.23,0,0,1,.23.25.26.26,0,0,1,0,.14,1.31,1.31,0,0,0-.09.23.73.73,0,0,0-.12.23.85.85,0,0,0,0,.23.71.71,0,0,0,.25.56.81.81,0,0,0,.63.19A.7.7,0,0,0,22.34,6a1.51,1.51,0,0,0,.19-.66,1.13,1.13,0,0,0-.59-.94,2.47,2.47,0,0,0-1.41-.31h0Z"/></svg>