<?xml version="1.0" encoding="utf-8"?>
<!-- Generator: Adobe Illustrator 20.1.0, SVG Export Plug-In . SVG Version: 6.00 Build 0)  -->
<svg version="1.1" id="Layer_1" xmlns="http://www.w3.org/2000/svg" xmlns:xlink="http://www.w3.org/1999/xlink" x="0px" y="0px"
	 viewBox="0 0 32 32" style="enable-background:new 0 0 32 32;" xml:space="preserve">
<style type="text/css">
	.st0{fill:#D1A41A;}
	.st1{fill:#FFDC76;}
</style>
<g>
	<g id="Calque_3">
		<g id="XMLID_1_">
			<path class="st0" d="M5.56,19.53c0.36,0.45,0.77,0.9,1.21,1.36c-1.3,0.39-2.14,1.11-2.67,1.75c-0.84,1.01-1.28,2.35-1.18,3.49
				H0.69C1.14,25.17,2.92,22.36,5.56,19.53z"/>
			<path class="st0" d="M31.4,26.75h-2.71C22.47,23.5,17,21.21,11.2,20.71c0.01-0.81,0.16-1.72,0.43-2.74l-0.53-0.14
				c-0.28,1.05-0.43,1.99-0.45,2.84c-0.6-0.04-1.21-0.06-1.83-0.06c-0.52,0-0.99,0.05-1.43,0.13c-0.56-0.56-1.04-1.1-1.45-1.61
				c2.68-2.79,7.08-5.31,10.92-6.26c1.08,3.59,3.4,6.05,6.21,7.71c0.21-0.12,0.41-0.24,0.61-0.37l4.91,5.29l0.22-0.02
				c1.34-0.12,2.1,0.61,2.3,0.84C31.26,26.48,31.35,26.63,31.4,26.75z"/>
			<path class="st1" d="M29,9.07c0.1,4.88-2.39,8.76-5.87,10.75c-5.91-2.95-7.03-10.41-6.02-14.41C17.39,6.94,17.9,7.9,19,8.37
				c2.4-0.69,5.71-0.74,8.14-0.07c1.01-0.74,1.41-1.86,1.62-2.85C29.03,6.59,29,9.07,29,9.07z"/>
		</g>
	</g>
	<g id="Layer_1_1_">
		<polygon points="14.13,13.69 15.03,16.36 12.29,14.52 		"/>
		<polygon points="11.49,14.86 12.46,16.53 10.42,15.49 		"/>
		<polygon points="9.28,16.16 9.75,17.83 8.35,16.86 		"/>
		<polygon points="24.22,20.64 23.35,21.98 24.89,21.27 		"/>
		<polygon points="25.59,22.18 24.19,23.25 26.13,22.74 		"/>
		<polygon points="22.18,7.67 23.22,9.94 23.89,7.64 		"/>
		<polygon points="16.94,10.98 18.57,11.85 17.1,11.95 		"/>
		<polygon points="17.34,12.75 18.34,13.15 17.5,13.39 		"/>
		<polygon points="29.03,11.61 27.7,12.18 28.8,12.35 		"/>
		<polygon points="28.5,13.25 27.46,13.55 28.3,13.85 		"/>
	</g>
	<g id="Calque_4">
		<rect x="16.4" y="15.76" width="3.23" height="0.4"/>
		<rect x="16.4" y="14.8" width="3.23" height="0.4"/>
		<rect x="26.25" y="15.76" width="3.23" height="0.4"/>
		<rect x="26.25" y="14.8" width="3.23" height="0.4"/>
		<g>
			<path d="M25.11,12.44h-3.34H21.4h-1.54v-0.36h1.64c0.2-0.86,0.24-1.69,0-2.1c-0.1-0.18-0.25-0.26-0.45-0.26
				c-0.94,0-1.32,0.99-1.34,1.03l0,0l-0.34-0.13c0.02-0.05,0.49-1.26,1.67-1.26c0.33,0,0.59,0.15,0.76,0.44
				c0.3,0.51,0.26,1.39,0.06,2.28h2.87c0.38-1.12,1.18-1.65,2.51-1.65v0.36c-1.44,0-1.85,0.61-2.13,1.29h1.57l0,0.36L25.11,12.44z"
				/>
			<path d="M25.35,14.21L25.35,14.21c-0.42-0.63-0.56-1.16-0.38-1.77l-0.37,0c-0.13,0.41-0.08,1.02,0.24,1.54h-3.65
				c0.22-0.44,0.43-0.99,0.58-1.54H21.4c-0.17,0.59-0.4,1.17-0.66,1.63l-0.08,0.15l2.05,1.29l-1.15,0.76l0.2,0.3l1.29-0.85
				l1.39,0.91l0.19-0.3l-1.29-0.8C23.32,15.53,25.25,14.28,25.35,14.21C25.35,14.22,25.35,14.21,25.35,14.21z M23.03,15.3
				l-1.51-0.95l2.96,0L23.03,15.3z"/>
		</g>
	</g>
	<g id="Calque_2">
		<path d="M29.61,8.64c0-0.62-0.2-3.26-0.55-3.98c-0.97,0.37-2.73,1.56-3.13,2.78c-1.91-0.29-4.06-0.25-5.95,0.07
			c-0.31-1.31-1.9-2.31-3.09-2.88c-0.5,0.85-0.73,2.82-0.67,4.21c0,0,0,0-0.01,0c0.22,5.86,3.1,9.51,6.86,11.72
			C26.94,18.36,29.71,14.05,29.61,8.64C29.6,8.63,29.6,8.64,29.61,8.64z M26.39,7.51c0.01,0,0.03,0.01,0.04,0.01
			C26.41,7.51,26.4,7.51,26.39,7.51z M26.15,7.46c0.03,0.01,0.07,0.01,0.1,0.02C26.21,7.48,26.18,7.47,26.15,7.46z M29,9.06
			c0.1,4.88-2.39,8.76-5.87,10.75C17.22,16.86,16.1,9.4,17.11,5.4C17.39,6.93,17.9,7.89,19,8.36c2.4-0.69,5.71-0.74,8.14-0.07
			c1.01-0.74,1.41-1.86,1.62-2.85C29.03,6.58,29,9.06,29,9.06z"/>
		<path d="M31.53,25.94c-0.61-0.68-1.8-1-2.79-0.98c-0.71-0.84-4.79-5.14-4.79-5.14l-0.28,0.36l4.94,5.31l0.21-0.02
			c1.34-0.11,2.1,0.61,2.31,0.84c0.15,0.17,0.24,0.32,0.29,0.43h-2.71C22.47,23.49,17,21.2,11.2,20.7c0.01-0.81,0.16-1.72,0.43-2.74
			l-0.53-0.14c-0.28,1.05-0.43,2-0.45,2.84c-0.6-0.04-1.21-0.06-1.83-0.06c-0.52,0-0.99,0.05-1.43,0.13
			c-0.56-0.56-1.04-1.1-1.45-1.61c2.7-2.81,7.15-5.35,11-6.28l-0.12-0.54c-4.15,1-8.7,3.73-11.23,6.36
			c-1.18-1.59-1.64-2.89-1.78-3.88c-0.17-1.25,0.12-2.39,0.86-3.31c1.15-1.43,2.8-1.54,4.48-1.25c-0.03,0.27,0,0.52,0.11,0.68
			c0.45,0.66,2.84,0.89,4.28,0.25c-1.06-1.48-3.2-2.2-3.79-1.91C9.55,9.34,9.4,9.52,9.3,9.73c-0.58-0.1-1.16-0.18-1.59-0.18
			c-1.49,0.01-2.63,0.53-3.48,1.59c-0.84,1.04-1.17,2.33-0.98,3.73c0.19,1.33,0.84,2.74,1.94,4.2c-0.18,0.2-0.36,0.39-0.53,0.58
			c-2.68,3-4.65,6.22-4.65,6.76v0.28h3.54l-0.06-0.33c-0.2-1.06,0.2-2.38,1.02-3.37c0.51-0.62,1.36-1.33,2.7-1.65
			c1.19,1.16,2.7,2.39,4.38,3.58h2.63v-0.28c0-0.31-0.15-0.59-0.44-0.77c-0.42-0.27-1.06-0.31-1.65-0.11
			c-0.56-0.63-0.88-1.46-0.95-2.5c5.71,0.51,11.17,2.81,17.34,6.03h3.39l0.04-0.22C32.05,26.75,31.88,26.33,31.53,25.94z M4.1,22.64
			c-0.84,1.01-1.28,2.35-1.18,3.49H0.69c0.45-0.97,2.23-3.77,4.87-6.61c0.36,0.45,0.77,0.9,1.21,1.36C5.48,21.27,4.63,22,4.1,22.64z
			"/>
	</g>
</g>
</svg>
