<?xml version="1.0" encoding="utf-8"?>
<!-- Generator: Adobe Illustrator 22.1.0, SVG Export Plug-In . SVG Version: 6.00 Build 0)  -->
<svg version="1.1" id="Ubuntu" xmlns="http://www.w3.org/2000/svg" xmlns:xlink="http://www.w3.org/1999/xlink" x="0px" y="0px"
	 viewBox="0 0 99.9 99.9" style="enable-background:new 0 0 99.9 99.9;" xml:space="preserve">
<style type="text/css">
	.st0{fill:#DD4814;}
	.st1{fill:#FFFFFF;}
</style>
<title>ubuntu</title>
<path class="st0" d="M99.9,49.9c0,27.6-22.4,49.9-49.9,49.9S0,77.5,0,49.9S22.4,0,49.9,0c0,0,0,0,0,0C77.5,0,99.9,22.4,99.9,49.9z"
	/>
<path class="st1" d="M16,43.3c-3.7,0-6.7,3-6.7,6.7s3,6.7,6.7,6.7s6.7-3,6.7-6.7c0,0,0,0,0,0C22.7,46.3,19.7,43.3,16,43.3z
	 M63.6,73.6c-3.2,1.8-4.3,5.9-2.4,9.1c1.8,3.2,5.9,4.3,9.1,2.4c3.2-1.8,4.3-5.9,2.4-9.1C70.8,72.8,66.8,71.7,63.6,73.6
	C63.6,73.6,63.6,73.6,63.6,73.6z M30.5,49.9c0-6.3,3.1-12.3,8.3-15.9l-4.9-8.1c-5.9,3.9-10.2,9.9-12,16.8c4,3.3,4.6,9.2,1.4,13.2
	c-0.4,0.5-0.9,0.9-1.4,1.4c1.8,6.9,6.1,12.9,12,16.8l4.9-8.2C33.6,62.2,30.5,56.3,30.5,49.9z M49.9,30.5c10.1,0,18.5,7.7,19.4,17.8
	l9.5-0.1c-0.5-7.1-3.5-13.8-8.6-18.8c-4.8,1.8-10.2-0.6-12.1-5.4c-0.2-0.6-0.4-1.2-0.5-1.8c-6.9-1.9-14.2-1.2-20.6,2l4.6,8.3
	C44.3,31.1,47.1,30.5,49.9,30.5z M49.9,69.4c-2.8,0-5.6-0.6-8.2-1.8l-4.6,8.3c6.4,3.2,13.7,3.9,20.6,2c0.8-5.1,5.6-8.6,10.7-7.7
	c0.6,0.1,1.2,0.3,1.8,0.5c5.1-5,8.1-11.7,8.6-18.8l-9.5-0.1C68.4,61.7,60,69.4,49.9,69.4z M63.6,26.3c3.2,1.8,7.3,0.7,9.1-2.4
	c1.8-3.2,0.7-7.3-2.4-9.1C67,12.9,63,14,61.1,17.2C59.3,20.4,60.4,24.5,63.6,26.3C63.6,26.3,63.6,26.3,63.6,26.3z"/>
</svg>
