<?xml version="1.0" encoding="utf-8"?>
<!-- Generator: Adobe Illustrator 20.1.0, SVG Export Plug-In . SVG Version: 6.00 Build 0)  -->
<svg version="1.1" id="Layer_1" xmlns="http://www.w3.org/2000/svg" xmlns:xlink="http://www.w3.org/1999/xlink" x="0px" y="0px"
	 viewBox="0 0 32 32" style="enable-background:new 0 0 32 32;" xml:space="preserve">
<style type="text/css">
	.st0{opacity:0.7;fill:#FFFFFF;enable-background:new    ;}
	.st1{opacity:0.5;fill:#E1EEF4;enable-background:new    ;}
	.st2{fill:#293644;}
	.st3{fill:#D4DFE5;}
	.st4{fill:#DFEEF6;}
	.st5{fill:none;stroke:#E2E2E2;stroke-width:0.8378;stroke-miterlimit:10;}
	.st6{fill:#FFFFFF;}
</style>
<g>
	<path class="st0" d="M12.83,15.35c-0.24-0.07-0.48-0.13-0.73-0.19c-0.12-0.03-0.25-0.05-0.37-0.08c-0.12-0.03-0.25-0.05-0.37-0.07
		c-0.06-0.01-0.12-0.02-0.18-0.03l-0.19-0.02c-0.13-0.02-0.25-0.04-0.38-0.05c-0.13-0.01-0.25-0.03-0.38-0.04l-0.38-0.03
		c-0.26-0.01-0.51-0.03-0.77-0.03c-0.13,0-0.26-0.01-0.39-0.01c-0.13,0-0.26,0-0.39,0c-0.26,0-0.52,0-0.77,0.01l-0.39,0.02
		l-0.38,0.03l-0.39,0.04c-0.13,0.01-0.26,0.03-0.39,0.05c-0.26,0.04-0.51,0.08-0.77,0.12c-0.26,0.05-0.52,0.1-0.77,0.15
		c-0.52,0.1-1.04,0.21-1.55,0.34c-0.26,0.06-0.52,0.13-0.77,0.21c-0.13,0.04-0.26,0.08-0.39,0.12c0.05,0.01,0.1,0.03,0.15,0.04
		c0.18,0.04,0.37,0.06,0.57,0.09c0.1,0.01,0.2,0.03,0.3,0.04l0.15,0.03l0.06,0.01l0.07,0.01c0.18,0.02,0.37,0.01,0.56,0
		c0.38-0.02,0.77-0.07,1.16-0.11c0.19-0.02,0.39-0.04,0.59-0.04c0.1,0,0.2,0,0.29,0l0.29,0.01c0.19,0,0.39,0.01,0.58,0.02l0.01,0
		c0.02,0,0.03-0.01,0.05-0.01l0.05-0.01l0.05-0.01c0.04-0.01,0.07-0.01,0.11-0.02c0.07-0.01,0.14-0.02,0.21-0.03
		c0.14-0.02,0.27-0.02,0.41-0.03c0.27-0.01,0.53,0,0.79,0c0.26,0.01,0.52,0.01,0.77,0.03c0.26,0.01,0.51,0.05,0.77,0.08
		c0.26,0.03,0.51,0.04,0.76,0.03L10.74,16l-0.27,0.08c-0.18,0.06-0.37,0.08-0.56,0.1c-0.19,0.02-0.38,0.03-0.56,0.04
		c-0.38,0.02-0.76,0.02-1.14,0.01c-0.15,0-0.3-0.01-0.46-0.02c-0.12,0-0.25,0.01-0.37,0.01c-0.13,0.01-0.25,0.02-0.37,0.03
		c-0.06,0.01-0.12,0.02-0.18,0.03c-0.03,0.01-0.06,0.01-0.09,0.02l-0.04,0.01l-0.05,0.01c-0.12,0.04-0.24,0.07-0.34,0.12
		c-0.02,0.01-0.04,0.02-0.06,0.03c0.04,0.02,0.09,0.03,0.14,0.05c0.11,0.04,0.24,0.07,0.36,0.09c0.12,0.03,0.25,0.05,0.37,0.07
		c0.06,0.01,0.13,0.02,0.19,0.03c0.06,0.01,0.12,0.01,0.19,0.02c0.25,0.02,0.5,0.03,0.75,0.03c0.25,0,0.5-0.01,0.75-0.04
		c0.5-0.05,1-0.12,1.49-0.22c0.25-0.05,0.49-0.1,0.73-0.16l0.18-0.05l0.18-0.05c0.12-0.03,0.23-0.07,0.35-0.1
		c0.23-0.07,0.47-0.15,0.7-0.23c0.24-0.08,0.48-0.15,0.72-0.19l0.02-0.03c0.02-0.05-0.01-0.11-0.08-0.17
		c-0.04-0.03-0.08-0.05-0.13-0.07C13.07,15.43,12.95,15.39,12.83,15.35z"/>
	<path class="st0" d="M17.64,17.09c0.1,0.07,0.19,0.14,0.3,0.21l0.15,0.1l0.16,0.1c0.21,0.13,0.42,0.26,0.64,0.39
		c0.43,0.25,0.88,0.48,1.34,0.68c0.23,0.1,0.47,0.19,0.7,0.27c0.24,0.08,0.48,0.15,0.72,0.21c0.06,0.01,0.12,0.03,0.18,0.04
		c0.06,0.01,0.12,0.02,0.19,0.03c0.12,0.02,0.25,0.04,0.38,0.05c0.13,0.01,0.25,0.02,0.37,0.03c0.05,0,0.1,0,0.15,0
		c-0.01-0.02-0.03-0.03-0.05-0.05c-0.08-0.08-0.18-0.15-0.28-0.22l-0.04-0.03l-0.04-0.02c-0.02-0.02-0.05-0.03-0.07-0.05
		c-0.05-0.03-0.1-0.06-0.16-0.08c-0.11-0.05-0.23-0.1-0.34-0.15c-0.11-0.04-0.23-0.09-0.34-0.13c-0.15-0.04-0.29-0.08-0.44-0.13
		c-0.36-0.12-0.72-0.24-1.08-0.37c-0.18-0.07-0.35-0.14-0.52-0.21c-0.17-0.08-0.34-0.16-0.5-0.27l-0.23-0.16l0.26,0.1
		c0.24,0.09,0.48,0.16,0.73,0.21c0.25,0.05,0.5,0.1,0.75,0.17c0.25,0.07,0.49,0.15,0.74,0.22c0.25,0.08,0.5,0.15,0.75,0.25
		c0.13,0.05,0.25,0.1,0.38,0.15c0.06,0.03,0.12,0.06,0.19,0.09c0.03,0.02,0.06,0.03,0.09,0.05l0.05,0.03l0.04,0.03
		c0.01,0.01,0.03,0.02,0.04,0.03l0.01,0c0.19,0.05,0.37,0.11,0.56,0.16l0.28,0.09c0.09,0.03,0.18,0.06,0.28,0.09
		c0.19,0.07,0.37,0.14,0.55,0.22c0.36,0.16,0.71,0.33,1.06,0.47c0.18,0.07,0.36,0.13,0.53,0.17l0.07,0.01l0.06,0.01l0.15,0.02
		c0.1,0.02,0.2,0.03,0.3,0.05c0.19,0.04,0.38,0.08,0.57,0.09c0.05,0.01,0.1,0.01,0.15,0.01c-0.11-0.08-0.22-0.16-0.33-0.24
		c-0.22-0.15-0.44-0.3-0.67-0.44c-0.45-0.28-0.91-0.55-1.37-0.81c-0.23-0.13-0.46-0.26-0.69-0.39c-0.23-0.12-0.46-0.24-0.69-0.36
		c-0.12-0.06-0.23-0.11-0.35-0.17l-0.35-0.16l-0.35-0.15l-0.37-0.14c-0.24-0.09-0.49-0.17-0.73-0.26c-0.12-0.04-0.25-0.08-0.37-0.12
		c-0.12-0.04-0.24-0.08-0.37-0.12c-0.25-0.08-0.49-0.14-0.74-0.21l-0.37-0.09c-0.12-0.03-0.25-0.06-0.37-0.09
		c-0.12-0.03-0.25-0.05-0.37-0.08l-0.19-0.04c-0.06-0.01-0.12-0.02-0.19-0.03c-0.12-0.02-0.25-0.03-0.38-0.05
		c-0.13-0.02-0.25-0.03-0.38-0.04c-0.25-0.03-0.5-0.05-0.75-0.05c-0.12,0-0.25,0-0.37,0.01c-0.05,0-0.1,0.01-0.14,0.02
		c-0.08,0.03-0.13,0.07-0.13,0.13l0.01,0.04c0.22,0.12,0.43,0.27,0.63,0.41C17.25,16.8,17.45,16.95,17.64,17.09z"/>
</g>
<path class="st1" d="M7.51,14.68c-1.12,0.02-2.19,0.2-3.3,0.42c-0.8,0.16-2.22,0.47-2.96,0.79c0.31,0.28,1.07,0.29,1.5,0.37
	c0.71,0.13,1.88-0.16,2.61-0.17c0.51,0,1,0,1.5,0.02c-0.09,0.01-0.18,0.03-0.26,0.05c-0.17,0.05-0.7,0.19-0.67,0.36
	c0.04,0.19,0.92,0.35,1.09,0.38c1.35,0.24,3.03-0.04,4.41-0.42c0.74-0.21,1.2-0.47,1.92-0.75c-0.25,0.05-0.49,0.12-0.72,0.19
	c-0.24,0.08-0.47,0.15-0.7,0.23c-0.12,0.03-0.23,0.07-0.35,0.1l-0.18,0.05l-0.18,0.05c-0.24,0.06-0.48,0.12-0.73,0.16
	c-0.49,0.1-0.99,0.17-1.49,0.22c-0.25,0.02-0.5,0.03-0.75,0.04c-0.25,0-0.5-0.01-0.75-0.03c-0.06-0.01-0.13-0.01-0.19-0.02
	c-0.06-0.01-0.12-0.02-0.19-0.03c-0.12-0.02-0.25-0.04-0.37-0.07c-0.12-0.03-0.25-0.06-0.36-0.09c-0.05-0.02-0.09-0.03-0.14-0.05
	c0.02-0.01,0.04-0.02,0.06-0.03c0.1-0.05,0.22-0.09,0.34-0.12l0.05-0.01l0.04-0.01c0.03-0.01,0.06-0.01,0.09-0.02
	c0.06-0.01,0.12-0.02,0.18-0.03c0.12-0.02,0.25-0.03,0.37-0.03c0.12-0.01,0.24-0.01,0.37-0.01c0.15,0.01,0.3,0.02,0.46,0.02
	c0.38,0.01,0.76,0,1.14-0.01c0.19-0.01,0.38-0.02,0.56-0.04c0.19-0.02,0.37-0.04,0.56-0.1L10.74,16l-0.28,0.02
	c-0.25,0.01-0.51,0-0.76-0.03c-0.26-0.03-0.51-0.06-0.77-0.08c-0.26-0.01-0.51-0.02-0.77-0.03c-0.26-0.01-0.52-0.01-0.79,0
	c-0.13,0-0.27,0.01-0.41,0.03c-0.07,0.01-0.14,0.02-0.21,0.03c-0.03,0.01-0.07,0.01-0.11,0.02l-0.05,0.01l-0.05,0.01
	C6.53,15.99,6.51,16,6.5,16l-0.01,0c-0.19-0.01-0.39-0.02-0.58-0.02l-0.29-0.01c-0.1,0-0.19,0-0.29,0c-0.2,0-0.4,0.02-0.59,0.04
	c-0.39,0.04-0.78,0.09-1.16,0.11c-0.19,0.01-0.38,0.01-0.56,0l-0.07-0.01L2.88,16.1l-0.15-0.03c-0.1-0.02-0.2-0.03-0.3-0.04
	c-0.2-0.03-0.39-0.05-0.57-0.09c-0.05-0.01-0.1-0.02-0.15-0.04c0.13-0.04,0.26-0.09,0.39-0.12c0.25-0.07,0.51-0.14,0.77-0.21
	c0.52-0.13,1.03-0.24,1.55-0.34c0.26-0.05,0.52-0.1,0.77-0.15c0.26-0.05,0.52-0.09,0.77-0.12c0.13-0.02,0.26-0.03,0.39-0.05
	l0.39-0.04l0.38-0.03l0.39-0.02c0.25-0.01,0.52-0.01,0.77-0.01c0.13,0,0.26,0,0.39,0c0.13,0,0.26,0,0.39,0.01
	c0.26,0,0.51,0.02,0.77,0.03l0.38,0.03c0.13,0.01,0.25,0.02,0.38,0.04c0.12,0.01,0.25,0.03,0.38,0.05l0.19,0.02
	c0.06,0.01,0.12,0.02,0.18,0.03c0.12,0.02,0.25,0.05,0.37,0.07c0.12,0.02,0.25,0.05,0.37,0.08c0.25,0.06,0.49,0.11,0.73,0.19
	c0.12,0.04,0.24,0.07,0.35,0.12c0.04,0.02,0.09,0.04,0.13,0.07c-0.38-0.31-1.9-0.61-2.17-0.66C10,14.7,8.66,14.67,7.51,14.68z"/>
<g>
	<path class="st2" d="M13.47,15.58c-0.02-0.04-0.04-0.06-0.07-0.09c-0.05-0.05-0.11-0.08-0.16-0.12c-0.11-0.07-0.23-0.12-0.35-0.17
		c-0.24-0.1-0.49-0.17-0.73-0.24c-0.25-0.07-0.5-0.13-0.75-0.18c-0.06-0.01-0.13-0.03-0.19-0.04l-0.19-0.03
		c-0.13-0.02-0.25-0.04-0.38-0.05c-0.13-0.01-0.26-0.03-0.39-0.04l-0.39-0.04c-0.26-0.02-0.52-0.04-0.78-0.05
		c-0.13-0.01-0.26-0.01-0.39-0.01c-0.13,0-0.26-0.01-0.39-0.01c-0.26,0-0.52-0.01-0.79,0l-0.39,0.01l-0.4,0.02l-0.4,0.03
		c-0.13,0.01-0.26,0.03-0.4,0.05c-0.26,0.04-0.53,0.08-0.79,0.12c-0.26,0.05-0.52,0.09-0.79,0.15c-0.26,0.05-0.52,0.11-0.78,0.16
		c-0.26,0.06-0.52,0.12-0.79,0.18C2.52,15.29,2.26,15.36,2,15.44c-0.26,0.08-0.52,0.16-0.78,0.28l-0.25,0.11L1.16,16
		c0.1,0.09,0.21,0.14,0.31,0.18c0.11,0.04,0.21,0.07,0.31,0.09C2,16.31,2.2,16.33,2.39,16.35c0.1,0.01,0.2,0.02,0.29,0.03l0.14,0.02
		c0.03,0,0.06,0.01,0.08,0.01l0.08,0.01c0.21,0.01,0.41,0,0.61-0.02c0.4-0.04,0.78-0.11,1.17-0.16c0.19-0.03,0.38-0.05,0.57-0.06
		c0.19-0.01,0.39-0.01,0.58-0.02c0.05,0,0.1,0,0.15,0c-0.04,0.02-0.08,0.04-0.12,0.07c-0.04,0.03-0.08,0.06-0.12,0.12
		c-0.02,0.03-0.04,0.07-0.04,0.12c0,0.01,0,0.02,0,0.04l0,0.02l0,0.01l0,0.01l0,0.01c0,0,0,0.02,0.01,0.02
		c0.01,0.02,0.01,0.03,0.02,0.04c0.05,0.08,0.09,0.11,0.13,0.13c0.04,0.03,0.08,0.05,0.11,0.06c0.07,0.03,0.14,0.06,0.21,0.08
		c0.13,0.04,0.27,0.08,0.4,0.11c0.13,0.03,0.26,0.06,0.4,0.08c0.06,0.01,0.13,0.02,0.2,0.03c0.07,0.01,0.14,0.02,0.2,0.03
		c0.27,0.03,0.54,0.04,0.8,0.04c0.27,0,0.53-0.02,0.79-0.05c0.13-0.01,0.26-0.03,0.39-0.05c0.13-0.02,0.26-0.04,0.39-0.06
		c0.26-0.04,0.51-0.1,0.76-0.15c0.25-0.06,0.5-0.12,0.74-0.19l0.18-0.05l0.02-0.01l0.03-0.01l0.04-0.01l0.09-0.03
		c0.12-0.04,0.24-0.09,0.36-0.13c0.23-0.1,0.46-0.21,0.67-0.33c0.21-0.12,0.43-0.24,0.63-0.38c-0.73,0.29-1.18,0.55-1.92,0.75
		c-1.38,0.38-3.06,0.66-4.41,0.42c-0.17-0.03-1.06-0.19-1.09-0.38c-0.03-0.17,0.49-0.31,0.67-0.36c0.08-0.02,0.17-0.04,0.26-0.05
		c-0.5-0.03-0.99-0.03-1.5-0.02c-0.74,0.01-1.91,0.3-2.61,0.17c-0.43-0.08-1.19-0.08-1.5-0.37c0.74-0.32,2.17-0.63,2.96-0.79
		c1.11-0.23,2.17-0.41,3.3-0.42c1.15-0.02,2.49,0.02,3.63,0.2c0.27,0.04,1.79,0.35,2.17,0.66c0.01,0.01,0.02,0.01,0.03,0.02
		c0.02,0.02,0.04,0.03,0.05,0.05c0.01,0.01,0.01,0.02,0.01,0.03c0,0,0,0.01,0,0.01c0,0,0,0.01,0,0.02l0.07,0.02
		c0-0.01,0.01-0.01,0.01-0.02c0-0.01,0-0.02,0-0.03C13.49,15.62,13.48,15.6,13.47,15.58z"/>
	<path class="st2" d="M27.96,20.05c-0.21-0.19-0.43-0.35-0.66-0.51c-0.22-0.16-0.45-0.31-0.68-0.45c-0.23-0.14-0.46-0.29-0.69-0.42
		c-0.23-0.14-0.46-0.27-0.69-0.4c-0.23-0.13-0.46-0.26-0.7-0.39c-0.23-0.13-0.47-0.25-0.71-0.36c-0.12-0.06-0.24-0.11-0.36-0.17
		l-0.37-0.16l-0.37-0.15l-0.37-0.13c-0.25-0.09-0.5-0.17-0.75-0.25c-0.12-0.04-0.25-0.08-0.37-0.11c-0.12-0.04-0.25-0.08-0.38-0.11
		c-0.25-0.07-0.5-0.14-0.75-0.2l-0.38-0.09c-0.13-0.03-0.26-0.05-0.38-0.08c-0.13-0.03-0.25-0.05-0.38-0.07l-0.19-0.03
		c-0.07-0.01-0.13-0.02-0.19-0.02c-0.26-0.03-0.51-0.05-0.77-0.06c-0.26-0.01-0.51-0.02-0.77,0c-0.13,0.01-0.26,0.02-0.39,0.05
		c-0.06,0.01-0.13,0.03-0.19,0.06c-0.03,0.01-0.06,0.03-0.09,0.06c-0.01,0.01-0.03,0.03-0.03,0.05c0,0.01-0.01,0.02-0.01,0.03
		c0,0.01,0,0.02,0,0.03l0.08,0c0-0.01,0-0.02,0-0.02c0,0,0-0.01,0-0.01c0-0.01,0.01-0.01,0.02-0.02c0.02-0.01,0.04-0.02,0.07-0.03
		c0.01,0,0.02-0.01,0.03-0.01c0.46-0.17,2,0.02,2.27,0.06c1.14,0.18,2.42,0.57,3.51,0.95c1.06,0.37,2.01,0.88,2.99,1.44
		c0.7,0.4,1.96,1.15,2.56,1.69c-0.39,0.17-1.1-0.06-1.54-0.12c-0.71-0.1-1.73-0.75-2.43-0.99c-0.48-0.16-0.95-0.32-1.43-0.45
		c0.08,0.04,0.16,0.09,0.23,0.13c0.15,0.1,0.6,0.4,0.52,0.55c-0.09,0.17-0.98,0.04-1.16,0.02c-1.36-0.2-2.87-1-4.05-1.79
		c-0.64-0.43-0.99-0.82-1.59-1.32c0.16,0.19,0.32,0.37,0.48,0.56c0.17,0.18,0.34,0.36,0.53,0.53c0.1,0.08,0.2,0.17,0.3,0.24
		l0.08,0.06l0.04,0.03l0.02,0.02l0.02,0.01l0.16,0.11c0.21,0.14,0.43,0.28,0.64,0.41c0.22,0.13,0.44,0.26,0.67,0.38
		c0.11,0.06,0.23,0.12,0.35,0.18c0.12,0.06,0.24,0.11,0.36,0.17c0.24,0.11,0.49,0.21,0.74,0.29c0.25,0.09,0.51,0.16,0.77,0.22
		c0.07,0.01,0.13,0.03,0.2,0.04c0.07,0.01,0.13,0.02,0.2,0.03c0.14,0.02,0.27,0.03,0.4,0.05c0.13,0.01,0.27,0.02,0.41,0.02
		c0.07,0,0.14,0,0.22-0.01c0.04-0.01,0.08-0.01,0.13-0.02c0.05-0.01,0.1-0.03,0.17-0.09c0.01-0.01,0.02-0.01,0.03-0.03
		c0-0.01,0.01-0.02,0.01-0.02l0,0l0.01-0.01l0-0.01l0.01-0.02c0.01-0.01,0.01-0.02,0.01-0.04c0.01-0.05,0.01-0.09,0-0.13
		c-0.02-0.07-0.05-0.11-0.07-0.15c-0.03-0.04-0.06-0.08-0.09-0.11c0.05,0.02,0.1,0.03,0.15,0.05c0.18,0.06,0.37,0.13,0.54,0.2
		c0.17,0.07,0.35,0.15,0.52,0.24c0.35,0.17,0.69,0.36,1.05,0.52c0.18,0.08,0.37,0.16,0.58,0.21l0.08,0.02
		c0.03,0.01,0.06,0.01,0.08,0.02l0.14,0.02c0.09,0.02,0.19,0.04,0.28,0.06c0.19,0.04,0.39,0.09,0.6,0.11
		c0.1,0.01,0.21,0.02,0.33,0.02c0.11,0,0.23-0.02,0.35-0.07l0.24-0.1L27.96,20.05z"/>
</g>
<path class="st1" d="M22.06,19.35c0.17,0.03,1.06,0.15,1.16-0.02c0.08-0.15-0.37-0.45-0.52-0.55c-0.07-0.05-0.15-0.09-0.23-0.13
	c0.48,0.13,0.95,0.29,1.43,0.45c0.7,0.24,1.71,0.89,2.43,0.99c0.44,0.06,1.15,0.3,1.54,0.12c-0.6-0.54-1.86-1.28-2.56-1.69
	c-0.98-0.56-1.93-1.07-2.99-1.44c-1.09-0.38-2.37-0.77-3.51-0.95c-0.27-0.04-1.81-0.23-2.27-0.06c0.04-0.01,0.09-0.02,0.14-0.02
	c0.12-0.01,0.25-0.01,0.37-0.01c0.25,0.01,0.5,0.03,0.75,0.05c0.13,0.01,0.25,0.03,0.38,0.04c0.13,0.01,0.25,0.03,0.38,0.05
	c0.06,0.01,0.13,0.02,0.19,0.03l0.19,0.04c0.13,0.02,0.25,0.05,0.37,0.08c0.12,0.03,0.25,0.05,0.37,0.09l0.37,0.09
	c0.25,0.07,0.49,0.14,0.74,0.21c0.12,0.04,0.25,0.08,0.37,0.12c0.12,0.04,0.25,0.08,0.37,0.12c0.24,0.08,0.49,0.17,0.73,0.26
	l0.37,0.14l0.35,0.15l0.35,0.16c0.12,0.05,0.23,0.11,0.35,0.17c0.23,0.12,0.46,0.24,0.69,0.36c0.23,0.13,0.46,0.25,0.69,0.39
	c0.46,0.26,0.92,0.53,1.37,0.81c0.23,0.14,0.45,0.29,0.67,0.44c0.11,0.08,0.22,0.16,0.33,0.24c-0.05,0-0.1,0-0.15-0.01
	c-0.18-0.02-0.37-0.06-0.57-0.09c-0.1-0.02-0.2-0.04-0.3-0.05l-0.15-0.02l-0.06-0.01l-0.07-0.01c-0.18-0.04-0.36-0.11-0.53-0.17
	c-0.36-0.14-0.71-0.31-1.06-0.47c-0.18-0.08-0.36-0.16-0.55-0.22c-0.1-0.03-0.19-0.06-0.28-0.09l-0.28-0.09
	c-0.19-0.06-0.37-0.11-0.56-0.16l-0.01,0c-0.01-0.01-0.03-0.02-0.04-0.03l-0.04-0.03l-0.05-0.03c-0.03-0.02-0.06-0.04-0.09-0.05
	c-0.06-0.03-0.12-0.07-0.19-0.09c-0.12-0.06-0.25-0.11-0.38-0.15c-0.25-0.09-0.5-0.17-0.75-0.25c-0.25-0.07-0.5-0.15-0.74-0.22
	c-0.25-0.07-0.5-0.12-0.75-0.17c-0.25-0.05-0.5-0.12-0.73-0.21l-0.26-0.1l0.23,0.16c0.16,0.11,0.33,0.19,0.5,0.27
	c0.17,0.08,0.35,0.15,0.52,0.21c0.35,0.13,0.71,0.26,1.08,0.37c0.14,0.04,0.29,0.09,0.44,0.13c0.12,0.04,0.23,0.08,0.34,0.13
	c0.12,0.05,0.23,0.09,0.34,0.15c0.05,0.03,0.11,0.06,0.16,0.08c0.02,0.02,0.05,0.03,0.07,0.05l0.04,0.02l0.04,0.03
	c0.1,0.07,0.2,0.15,0.28,0.22c0.02,0.02,0.03,0.03,0.05,0.05c-0.05,0-0.09,0-0.15,0c-0.12,0-0.25-0.01-0.37-0.03
	c-0.12-0.01-0.25-0.03-0.38-0.05c-0.06-0.01-0.13-0.02-0.19-0.03c-0.06-0.01-0.12-0.03-0.18-0.04c-0.24-0.06-0.49-0.13-0.72-0.21
	c-0.24-0.08-0.47-0.17-0.7-0.27c-0.46-0.2-0.91-0.43-1.34-0.68c-0.22-0.12-0.43-0.25-0.64-0.39l-0.16-0.1l-0.15-0.1
	c-0.11-0.07-0.2-0.14-0.3-0.21c-0.2-0.14-0.39-0.29-0.59-0.44c-0.2-0.15-0.41-0.29-0.63-0.41c0.6,0.5,0.95,0.89,1.59,1.32
	C19.2,18.36,20.71,19.16,22.06,19.35z"/>
<path class="st3" d="M12.2,16.91c-0.02,0.44,0.25,0.86,0.5,1.23c0.37,0.55,0.18,1.26,0.19,1.85c0.02,0.92-0.31,4.56,0.47,5.42l0,0
	l0,0c0.99-0.42,1.8-3.87,2.11-4.72c0.2-0.55,0.24-1.47,0.77-1.84c0.39-0.27,0.93-0.56,1.03-1.05l-2.34-2.38
	C14.94,15.41,12.21,16.88,12.2,16.91z"/>
<path class="st4" d="M16.9,17.8c-0.06,0.03-0.13,0.06-0.19,0.09c0.08-0.05,0.16-0.11,0.24-0.17c0.09-0.07-0.07-0.16-0.14-0.14
	c-0.11,0.03-0.22,0.05-0.33,0.09c0.05-0.07,0.1-0.14,0.13-0.22c0.04-0.09-0.09-0.14-0.15-0.13c-0.68,0.12-1.15,0.58-1.76,0.88
	c-0.3,0.15-0.6,0.28-0.92,0.38c-0.04,0.01-0.08,0.02-0.13,0.04c-0.08,0.02-0.16,0.04-0.25,0.05c-0.07,0.02-0.13,0-0.17-0.08
	c0.06-0.06,0.23-0.09,0.31-0.11c0.29-0.07,0.56-0.17,0.83-0.29c0.24-0.11,0.46-0.24,0.67-0.39c0.44-0.15,0.85-0.37,1.18-0.7
	c0.07-0.07-0.11-0.13-0.15-0.13c-0.37,0.05-0.65,0.24-0.93,0.48c-0.09,0.08-0.18,0.15-0.27,0.21c-0.18,0.06-0.36,0.11-0.54,0.15
	c-0.12,0.03-0.25,0.05-0.38,0.06c0.18-0.09,0.35-0.19,0.53-0.29c0.48-0.26,1.03-0.42,1.43-0.81c0.09-0.09-0.1-0.15-0.16-0.14
	c-0.51,0.14-0.98,0.37-1.46,0.6c0,0,0,0,0.01,0c0.42-0.21,0.84-0.43,1.24-0.66c0.1-0.06-0.07-0.14-0.15-0.14
	c0.04-0.02,0.08-0.04,0.11-0.06c0.13-0.07-0.06-0.18-0.14-0.15c-0.46,0.18-0.9,0.38-1.33,0.61c-0.34,0.18-0.77,0.54-1.19,0.64
	c0.24-0.23,0.6-0.35,0.88-0.51c0.42-0.24,0.83-0.49,1.23-0.75c0.07-0.05-0.01-0.11-0.08-0.13c0.09-0.06,0.18-0.11,0.27-0.17
	c0.08-0.05-0.02-0.12-0.1-0.14c0.03-0.05,0.04-0.1,0.01-0.14c-0.03-0.05-0.1-0.08-0.15-0.07c-0.07,0.02-0.13,0.06-0.2,0.1
	c-0.26,0.17-0.51,0.34-0.79,0.48c-0.36,0.17-0.73,0.32-1.09,0.49c-0.1,0.03-0.21,0.06-0.31,0.09c-0.05,0.02-0.06,0.05-0.03,0.08
	c-0.02,0.01-0.05,0.03-0.07,0.04c-0.03,0.01-0.03,0.05-0.01,0.08c0.06,0.1,0.16,0.13,0.28,0.12c-0.1,0.05-0.2,0.1-0.31,0.14
	c-0.11,0.05,0.01,0.16,0.09,0.16c0.08,0,0.15-0.01,0.22-0.03c-0.07,0.06-0.14,0.13-0.19,0.22c-0.05,0.07,0.08,0.12,0.13,0.13
	c0.05,0,0.1,0,0.15,0c-0.03,0.02-0.06,0.04-0.09,0.06c-0.1,0.07,0.1,0.17,0.17,0.14c0.01,0,0.01-0.01,0.02-0.01l0,0c0,0,0,0,0,0
	c0.02-0.01,0.05-0.03,0.07-0.04c-0.01,0.01-0.02,0.02-0.03,0.02c-0.09,0.08,0.08,0.15,0.14,0.14c0.4-0.02,0.74-0.26,1.07-0.44
	c0.35-0.2,0.73-0.38,1.11-0.53c-0.29,0.16-0.61,0.28-0.9,0.43c-0.35,0.18-0.67,0.38-1.03,0.53C13.15,18,13,18.05,12.87,18.13
	c-0.11,0.07,0.1,0.15,0.17,0.14c0.13-0.04,0.26-0.09,0.39-0.14c0.2-0.04,0.41-0.05,0.6-0.08c0.11-0.02,0.21-0.04,0.32-0.06
	c-0.15,0.08-0.31,0.15-0.48,0.21c-0.24,0.09-0.64,0.1-0.83,0.3c-0.09,0.09,0.04,0.25,0.14,0.29c0.01,0,0.02,0.01,0.03,0.01
	c-0.03,0.02-0.07,0.03-0.1,0.05c-0.06,0.04,0.01,0.11,0.05,0.13c0.16,0.06,0.32,0.06,0.48,0.03c-0.12,0.05-0.24,0.1-0.36,0.14
	c-0.1,0.04-0.02,0.12,0.07,0.14c-0.22,0.13-0.36,0.27-0.23,0.36c0.13,0.09,0.32,0,0.44-0.04c0.13-0.05,0.25-0.1,0.38-0.15
	c-0.02,0.01-0.03,0.02-0.05,0.03c-0.03,0.02-0.03,0.04-0.02,0.06c-0.07,0.04-0.15,0.08-0.22,0.13c-0.04,0.03-0.03,0.06-0.01,0.08
	c-0.22,0.07-0.44,0.15-0.6,0.32c-0.07,0.07,0.05,0.14,0.11,0.14c0.28,0.03,0.56-0.02,0.84-0.11c-0.04,0.06,0.07,0.12,0.12,0.12
	c0.15,0.01,0.29-0.01,0.42-0.04c-0.02,0.01-0.05,0.02-0.07,0.03c-0.1,0.05-0.21,0.1-0.32,0.14c-0.33,0.09-0.66,0.18-0.97,0.32
	c-0.13,0.06,0.06,0.18,0.15,0.15c0.24-0.11,0.5-0.18,0.75-0.26c0.03-0.01,0.05-0.02,0.08-0.02c-0.32,0.17-0.63,0.34-0.92,0.55
	c-0.11,0.08,0.1,0.16,0.17,0.13c0.05-0.02,0.1-0.04,0.15-0.05c-0.09,0.08-0.17,0.16-0.24,0.26c-0.06,0.08,0.1,0.14,0.16,0.12
	c0.23-0.06,0.44-0.14,0.65-0.22c-0.16,0.14-0.31,0.3-0.42,0.49c-0.03,0.06,0.02,0.09,0.07,0.11c-0.05,0.03-0.1,0.07-0.15,0.1
	c-0.1,0.07,0.11,0.17,0.19,0.12c0.1-0.06,0.2-0.13,0.29-0.2c0.17-0.1,0.34-0.19,0.53-0.22c-0.09,0.14-0.27,0.22-0.41,0.28
	c-0.13,0.06,0.06,0.18,0.14,0.14c0.22-0.1,0.5-0.23,0.55-0.5c0.01-0.07-0.08-0.11-0.13-0.11c-0.06,0-0.13,0-0.19,0.01
	c0.11-0.1,0.22-0.2,0.33-0.32c0.07-0.08-0.13-0.15-0.18-0.12c-0.23,0.12-0.41,0.35-0.63,0.5c0.34-0.38,0.83-0.62,1.22-0.91
	c0.1-0.07-0.1-0.17-0.16-0.13c-0.47,0.23-0.93,0.5-1.42,0.68c0.37-0.33,0.88-0.51,1.28-0.78c0.08-0.06-0.03-0.12-0.11-0.14
	c0.04-0.02,0.07-0.04,0.11-0.06c0,0,0,0,0,0v0c0.01,0,0.01-0.01,0.02-0.01c0.06-0.03,0.03-0.07-0.03-0.1
	c0.25-0.12,0.49-0.25,0.67-0.43c0.09-0.09-0.1-0.15-0.16-0.13c-0.36,0.11-0.72,0.34-1.1,0.41c0.38-0.26,0.83-0.45,1.24-0.62
	c0.13-0.05-0.06-0.17-0.14-0.15c-0.37,0.12-0.72,0.29-1.08,0.43c-0.31,0.13-0.65,0.28-1,0.33c0.33-0.2,0.79-0.28,1.12-0.42
	c0.56-0.24,1.11-0.48,1.63-0.78c0.09-0.05-0.03-0.12-0.11-0.14c0.23-0.12,0.45-0.25,0.68-0.37c0.13-0.07-0.06-0.17-0.14-0.15
	c-0.04,0.01-0.08,0.02-0.11,0.03c0.19-0.1,0.38-0.19,0.58-0.28C17.17,17.89,16.99,17.76,16.9,17.8z M14.09,17.33
	c-0.21,0.11-0.43,0.26-0.65,0.36C13.65,17.55,13.87,17.43,14.09,17.33z M13.76,18.79c-0.08,0.03-0.16,0.05-0.23,0.06
	c0.04-0.01,0.08-0.03,0.12-0.04C13.69,18.81,13.72,18.8,13.76,18.79z M15.12,18.18c0.38-0.24,0.76-0.5,1.18-0.64
	c-0.07,0.1-0.16,0.19-0.27,0.27C15.72,17.92,15.42,18.04,15.12,18.18z M13.49,19.42c0.09-0.05,0.19-0.1,0.28-0.14
	c0.24-0.12,0.49-0.22,0.74-0.32c0.46-0.19,0.89-0.43,1.33-0.66c0.08-0.03,0.16-0.06,0.25-0.1c-0.38,0.2-0.76,0.42-1.15,0.6
	C14.46,19.03,13.98,19.23,13.49,19.42z M15.37,18.85c-0.03,0.02-0.07,0.04-0.1,0.05c0,0,0,0-0.01,0c0.01-0.01,0.02-0.01,0.03-0.02
	C15.32,18.87,15.34,18.86,15.37,18.85z"/>
<path class="st2" d="M20.2,20.59c-0.06-0.06-0.15-0.15-0.27-0.27c-0.23-0.23-0.57-0.56-0.96-0.97c-0.2-0.2-0.41-0.42-0.64-0.66
	c-0.23-0.23-0.46-0.48-0.71-0.74c-0.25-0.26-0.5-0.53-0.76-0.8c-0.26-0.27-0.52-0.55-0.79-0.84c-0.29-0.31-0.58-0.62-0.87-0.93
	c0.19-0.11,0.39-0.21,0.58-0.32c0.16-0.09,0.32-0.17,0.47-0.26c0.16-0.08,0.31-0.17,0.46-0.24c0.3-0.16,0.58-0.33,0.83-0.49
	c0.25-0.16,0.47-0.32,0.66-0.48c0.19-0.16,0.33-0.31,0.44-0.46c0.11-0.14,0.17-0.27,0.2-0.36c0.02-0.04,0.03-0.08,0.03-0.1
	c0.01-0.02,0.01-0.04,0.01-0.04s0,0.01-0.01,0.04c-0.01,0.02-0.02,0.06-0.04,0.1c-0.04,0.09-0.11,0.21-0.22,0.34
	c-0.11,0.13-0.27,0.27-0.46,0.42c-0.19,0.14-0.42,0.29-0.68,0.43c-0.26,0.14-0.55,0.28-0.85,0.42c-0.15,0.07-0.31,0.14-0.47,0.22
	c-0.16,0.08-0.32,0.16-0.48,0.25c-0.21,0.11-0.43,0.22-0.64,0.34c-0.17-0.18-0.34-0.36-0.5-0.53c-0.13-0.13-0.25-0.26-0.37-0.39
	c-0.12-0.13-0.25-0.25-0.37-0.36c-0.25-0.23-0.47-0.46-0.67-0.67c-0.2-0.22-0.37-0.43-0.5-0.63c-0.14-0.2-0.24-0.38-0.3-0.54
	c-0.06-0.16-0.09-0.3-0.1-0.39c-0.01-0.05-0.01-0.08-0.01-0.11c0-0.02,0-0.04,0-0.04s0,0.01,0,0.04c0,0.02,0,0.06,0,0.11
	c0,0.1,0.02,0.24,0.07,0.41c0.05,0.17,0.14,0.36,0.27,0.58c0.12,0.21,0.28,0.44,0.47,0.67c0.18,0.24,0.39,0.48,0.62,0.73
	c0.11,0.12,0.23,0.25,0.35,0.38c0.12,0.13,0.24,0.26,0.36,0.4c0.14,0.16,0.29,0.33,0.44,0.49c-0.37,0.2-0.75,0.4-1.13,0.6
	c-0.34,0.18-0.68,0.36-1.02,0.53c-0.12,0.06-0.78,0.41-0.98,0.51c-0.32,0.16-0.62,0.32-0.92,0.47c-0.29,0.15-0.57,0.29-0.82,0.41
	c-0.51,0.25-0.93,0.46-1.23,0.6c-0.15,0.07-0.27,0.12-0.35,0.16c-0.08,0.04-0.12,0.06-0.12,0.06s0.05-0.01,0.13-0.04
	c0.08-0.03,0.21-0.07,0.37-0.12c0.16-0.05,0.34-0.12,0.56-0.2c0.22-0.08,0.46-0.18,0.72-0.29c0.26-0.11,0.55-0.23,0.84-0.37
	c0.3-0.14,0.61-0.28,0.93-0.44c0.14-0.07,0.28-0.14,0.42-0.21c0,0.08,0.01,0.16,0.03,0.23c0.04,0.19,0.12,0.37,0.22,0.54
	c0.09,0.17,0.21,0.33,0.3,0.48c0.09,0.16,0.14,0.34,0.16,0.52c0.04,0.37-0.02,0.74-0.03,1.12c0,0.01,0,0.02,0,0.03
	c-0.03,0.02-0.05,0.04-0.07,0.06c-0.03,0.03-0.05,0.07-0.06,0.09c-0.01,0.03-0.01,0.04-0.01,0.04s0-0.01,0.01-0.04
	c0.01-0.02,0.04-0.05,0.07-0.07c0.01-0.01,0.03-0.02,0.05-0.02c0,0.16,0,0.31-0.01,0.47L12.83,21c-0.03,0.75-0.05,1.5-0.02,2.25
	c0.02,0.38,0.05,0.75,0.11,1.13c0.03,0.19,0.07,0.37,0.13,0.55c0.06,0.18,0.14,0.36,0.27,0.51l0.01,0.01l0.01,0l0,0l0.01,0
	l0.01-0.01c0.18-0.08,0.32-0.22,0.44-0.37c0.12-0.15,0.22-0.31,0.31-0.48c0.18-0.33,0.33-0.68,0.46-1.03
	c0.21-0.55,0.39-1.11,0.56-1.67l0.01,0c0,0,0-0.01,0-0.02c0.05-0.15,0.09-0.3,0.13-0.45c0.05-0.18,0.11-0.36,0.16-0.54
	c0.03-0.09,0.06-0.18,0.09-0.26c0.03-0.09,0.05-0.18,0.08-0.27c0.01-0.03,0.01-0.06,0.02-0.09c0.02,0.01,0.04,0.03,0.06,0.04
	c0.08,0.06,0.12,0.09,0.12,0.09s-0.04-0.04-0.11-0.1c-0.02-0.02-0.04-0.03-0.06-0.05c0.03-0.14,0.07-0.29,0.11-0.43
	c0.05-0.18,0.11-0.36,0.19-0.52c0.08-0.16,0.19-0.31,0.33-0.41c0.15-0.1,0.3-0.2,0.45-0.31c0.15-0.11,0.29-0.22,0.4-0.37
	c0.05-0.07,0.1-0.15,0.13-0.23c0.05,0.06,0.11,0.11,0.16,0.17c0.26,0.25,0.5,0.49,0.74,0.72c0.24,0.23,0.47,0.43,0.68,0.63
	c0.22,0.19,0.41,0.36,0.59,0.51c0.18,0.15,0.33,0.28,0.46,0.38c0.13,0.1,0.24,0.18,0.31,0.23c0.07,0.05,0.11,0.08,0.11,0.08
	S20.27,20.65,20.2,20.59z M15.55,20.33c-0.02,0.09-0.05,0.18-0.08,0.27c-0.03,0.09-0.06,0.18-0.09,0.27
	c-0.06,0.18-0.11,0.36-0.17,0.54c-0.03,0.12-0.07,0.23-0.1,0.35c-0.01-0.03-0.02-0.06-0.04-0.09c-0.02-0.05-0.06-0.1-0.1-0.15
	c-0.04-0.05-0.09-0.1-0.15-0.15c-0.06-0.05-0.12-0.09-0.19-0.13c-0.07-0.04-0.14-0.08-0.22-0.11c-0.08-0.03-0.16-0.05-0.24-0.07
	c-0.16-0.03-0.33-0.04-0.49-0.02c-0.08,0.01-0.15,0.02-0.22,0.04c-0.07,0.02-0.13,0.04-0.19,0.06c-0.06,0.02-0.11,0.05-0.15,0.07
	c-0.04,0.03-0.08,0.05-0.11,0.07c-0.03,0.02-0.05,0.04-0.06,0.06c-0.01,0.01-0.02,0.02-0.02,0.02l0,0.01c0,0,0.01,0,0.03-0.01
	c0.02-0.01,0.04-0.02,0.08-0.03c0.02-0.01,0.03-0.01,0.05-0.02c0.02-0.01,0.04-0.01,0.06-0.02c0.05-0.01,0.1-0.02,0.15-0.03
	c0.06-0.01,0.12-0.01,0.18-0.02c0.07,0,0.13,0,0.2,0c0.07,0,0.14,0.01,0.22,0.01c0.07,0.01,0.15,0.02,0.22,0.03
	c0.07,0.01,0.15,0.03,0.22,0.05c0.07,0.02,0.14,0.04,0.21,0.06c0.13,0.05,0.25,0.11,0.34,0.18c0.09,0.07,0.14,0.16,0.17,0.21
	c0.01,0.01,0.01,0.02,0.01,0.02c-0.18,0.58-0.36,1.15-0.57,1.71c-0.13,0.35-0.28,0.69-0.46,1.02c-0.09,0.16-0.19,0.32-0.3,0.47
	c-0.11,0.13-0.23,0.26-0.38,0.33c-0.11-0.13-0.18-0.29-0.23-0.46c-0.06-0.18-0.1-0.36-0.13-0.54c-0.06-0.37-0.09-0.74-0.11-1.11
	c-0.03-0.75-0.02-1.5,0.01-2.24l0.02-0.56c0.01-0.17,0-0.34,0-0.5c0.07-0.02,0.14-0.04,0.24-0.06c0.15-0.03,0.33-0.05,0.53-0.05
	c0.1,0,0.2-0.01,0.3-0.01c0.1,0,0.2,0,0.3,0c0.05,0,0.1,0,0.15,0c0.05,0,0.11,0.01,0.15,0.01c0.1,0.01,0.19,0.02,0.29,0.04
	c0.09,0.02,0.18,0.05,0.26,0.09c0.08,0.04,0.16,0.08,0.22,0.12c0.08,0.05,0.15,0.1,0.21,0.14C15.57,20.26,15.56,20.3,15.55,20.33z
	 M17.07,18.16c-0.11,0.14-0.25,0.26-0.39,0.36c-0.15,0.11-0.3,0.2-0.45,0.3c-0.16,0.11-0.27,0.26-0.35,0.43
	c-0.08,0.17-0.14,0.35-0.19,0.53c-0.04,0.13-0.07,0.27-0.1,0.4c-0.05-0.05-0.11-0.1-0.18-0.16c-0.13-0.1-0.29-0.21-0.48-0.3
	c-0.1-0.04-0.19-0.08-0.3-0.11c-0.06-0.02-0.11-0.03-0.16-0.04c-0.06-0.01-0.11-0.02-0.17-0.02c-0.11-0.01-0.22,0-0.32,0.01
	c-0.11,0.01-0.21,0.03-0.31,0.05c-0.2,0.04-0.38,0.09-0.53,0.14c-0.08,0.03-0.15,0.06-0.2,0.09c0.01-0.36,0.07-0.73,0.02-1.11
	c-0.02-0.19-0.07-0.38-0.17-0.55c-0.1-0.16-0.21-0.31-0.31-0.48c-0.09-0.16-0.17-0.34-0.21-0.52c-0.02-0.08-0.03-0.17-0.03-0.25
	c0.17-0.08,0.34-0.17,0.51-0.26c0.34-0.17,0.68-0.35,1.02-0.53c0.34-0.18,0.68-0.37,1.02-0.55c0.05-0.03,0.11-0.06,0.16-0.09
	c0.04,0.05,0.08,0.09,0.12,0.14c0.14,0.15,0.27,0.3,0.41,0.45l0.01,0.02c0.04,0.05,0.08,0.11,0.13,0.16
	c0.04,0.05,0.08,0.11,0.13,0.16l0.13,0.15c0.04,0.05,0.09,0.1,0.14,0.15l0.14,0.15l0.14,0.14c0.05,0.05,0.1,0.09,0.15,0.14
	c0.03,0.03,0.07,0.06,0.11,0.09c0.03,0.03,0.06,0.06,0.09,0.09c0.19,0.2,0.38,0.39,0.56,0.58C17.17,18.01,17.13,18.09,17.07,18.16z"
	/>
<path class="st6" d="M15.04,21.79c-0.02-0.05-0.13-0.06-0.16-0.04c-0.1,0.06-0.18,0.13-0.26,0.2c-0.01,0-0.01,0-0.01,0
	c-0.45,0.21-0.83,0.56-1.23,0.86c-0.07,0.05-0.15,0.1-0.23,0.15c0.22-0.13,0.42-0.34,0.62-0.5c0.29-0.24,0.58-0.47,0.87-0.71
	c0.05-0.05-0.13-0.08-0.16-0.06c-0.34,0.15-0.68,0.34-1.02,0.49c0.29-0.26,0.33-0.36,0.39-0.49c0.12-0.02,0.23-0.05,0.31-0.09
	c-0.03-0.01-0.13-0.04-0.23-0.07c0.03-0.06-0.13-0.08-0.16-0.06c-0.22,0.12-0.47,0.16-0.69,0.28c-0.07,0.04,0.1,0.1,0.15,0.07
	c0.07-0.04,0.18-0.07,0.29-0.09c-0.21,0.18-0.45,0.35-0.51,0.63c-0.01,0.06,0.12,0.07,0.15,0.06c0.31-0.1,0.61-0.25,0.91-0.4
	c-0.39,0.32-0.76,0.61-1.14,0.94c-0.02,0.02,0,0.04,0.01,0.05c0.17,0.13,0.35,0.04,0.51-0.07c0.29-0.19,0.55-0.42,0.83-0.63
	c-0.33,0.34-0.67,0.66-1.02,0.98c-0.05,0.05,0.13,0.08,0.16,0.06c0.18-0.08,0.36-0.19,0.52-0.3c-0.23,0.27-0.47,0.53-0.73,0.77
	c-0.05,0.05,0.12,0.08,0.15,0.07c0.19-0.06,0.37-0.14,0.55-0.22c-0.25,0.24-0.49,0.49-0.72,0.76c-0.04,0.05,0.13,0.1,0.17,0.05
	c0.19-0.2,0.37-0.4,0.56-0.59c-0.11,0.2-0.22,0.4-0.32,0.61c-0.12,0.12-0.22,0.24-0.31,0.39c-0.02,0.04,0.03,0.06,0.08,0.07
	c-0.01,0.02-0.02,0.04-0.03,0.06c-0.03,0.06,0.15,0.07,0.18,0.04c0.25-0.24,0.32-0.4,0.45-0.71c0,0,0,0,0,0
	c0.28-0.38,0.48-0.79,0.68-1.24c0.02-0.05-0.07-0.07-0.13-0.05c0.08-0.19,0.16-0.39,0.22-0.59c0.05,0.03,0.13,0.02,0.13-0.02
	C14.88,22.24,15.11,22.02,15.04,21.79z M14.83,22.08c-0.02-0.02-0.05-0.02-0.09-0.02c0.04-0.04,0.08-0.08,0.13-0.11
	C14.86,21.99,14.85,22.03,14.83,22.08z M14.05,22.77c0,0.01-0.01,0.02-0.01,0.03c0,0.01,0,0.01,0,0.02
	c-0.05,0.04-0.11,0.08-0.16,0.12C13.93,22.88,13.99,22.83,14.05,22.77z M14.49,22.64c0.03-0.04-0.03-0.06-0.08-0.07
	c0.06-0.08,0.12-0.15,0.19-0.22c-0.1,0.36-0.24,0.7-0.4,1.03c-0.19,0.11-0.39,0.2-0.59,0.29C13.92,23.36,14.22,23.02,14.49,22.64z"
	/>
<path class="st1" d="M17.36,16.58c0.04-0.02,0.09-0.03,0.13-0.04c0.09-0.02,0.18-0.03,0.27-0.04c0.09-0.01,0.18-0.01,0.27-0.01
	l0.27,0c0.09,0,0.18,0.01,0.26,0.01l0.27-0.01c0.18,0,0.36,0,0.54,0c0.36,0,0.72,0.01,1.07-0.01c0.09-0.01,0.18-0.01,0.27-0.02
	l0.13-0.01l0.14-0.02l0.54-0.08c0.36-0.05,0.72-0.11,1.08-0.17c0.36-0.06,0.72-0.14,1.07-0.23c0.35-0.1,0.7-0.21,1.03-0.36
	c0.26-0.12,0.51-0.27,0.71-0.45c-0.03,0-0.06-0.01-0.09-0.01c-0.05,0-0.11-0.01-0.16-0.01c-0.05,0-0.11,0-0.16,0
	c-0.05,0-0.11,0-0.16,0c-0.05,0-0.11,0.01-0.16,0.01c-0.11,0.01-0.22,0.02-0.33,0.03c-0.11,0.01-0.22,0.03-0.33,0.05
	c-0.11,0.02-0.22,0.04-0.33,0.07c-0.11,0.02-0.22,0.05-0.33,0.07l-0.32,0.08c0.19-0.05,0.38-0.1,0.57-0.16
	c0.05-0.01,0.1-0.03,0.15-0.04l0.24-0.08c0.11-0.03,0.21-0.07,0.32-0.1c0.04-0.01,0.08-0.02,0.12-0.03c0.1-0.03,0.2-0.06,0.29-0.08
	c0.19-0.06,0.38-0.1,0.58-0.15l0.29-0.07c0.09-0.02,0.19-0.05,0.28-0.07c0.19-0.05,0.37-0.11,0.56-0.18
	c0.18-0.07,0.37-0.14,0.55-0.22c0.18-0.08,0.36-0.16,0.54-0.25l0.54-0.26c0.18-0.09,0.36-0.18,0.54-0.26
	c0.37-0.17,0.74-0.32,1.11-0.49c0.18-0.08,0.36-0.17,0.54-0.26c0.09-0.05,0.17-0.1,0.26-0.15c0.04-0.03,0.08-0.05,0.12-0.08
	l0.12-0.08c0.17-0.12,0.34-0.23,0.5-0.34c0.11-0.08,0.21-0.16,0.31-0.25c-0.28-0.06-0.57-0.1-0.86-0.12
	c-0.35-0.03-0.71-0.05-1.06-0.05c-0.35,0-0.71,0.01-1.06,0.02c-0.35,0.02-0.71,0.04-1.06,0.08c-0.18,0.01-0.35,0.04-0.52,0.05
	c-0.17,0.02-0.35,0.04-0.52,0.07l-0.52,0.08c-0.17,0.03-0.34,0.06-0.51,0.09l-0.25,0.05c-0.08,0.02-0.17,0.04-0.25,0.06l-0.26,0.06
	l-0.12,0.03l-0.13,0.03c-0.34,0.09-0.67,0.17-1,0.26c-0.66,0.18-1.32,0.37-1.97,0.59c-0.32,0.11-0.64,0.22-0.96,0.34
	c-0.16,0.06-0.32,0.12-0.47,0.19c-0.16,0.06-0.31,0.13-0.47,0.19c-0.15,0.07-0.3,0.13-0.46,0.2c-0.15,0.07-0.31,0.14-0.46,0.21
	l-0.46,0.21c-0.15,0.07-0.3,0.14-0.45,0.21c-0.3,0.14-0.6,0.29-0.88,0.47c-0.14,0.09-0.28,0.18-0.4,0.28
	c-0.13,0.11-0.24,0.22-0.33,0.36l-0.01,0c0,0-0.03,0.1-0.03,0.18c0,0.08,0.16,0.14,0.3,0.22c0.14,0.08,0.83,0.55,0.83,0.55l0-0.05
	l0,0h0c0-0.01,0.01-0.03,0.02-0.04l-0.01-0.01C17.27,16.62,17.32,16.6,17.36,16.58z"/>
<path class="st2" d="M31.83,11.67c-0.35-0.08-0.71-0.14-1.07-0.18c-0.36-0.04-0.72-0.06-1.08-0.07c-0.36-0.01-0.72-0.01-1.08,0
	c-0.36,0.01-0.71,0.03-1.07,0.05c-0.18,0.01-0.35,0.03-0.53,0.04c-0.18,0.01-0.35,0.04-0.53,0.05l-0.53,0.07
	c-0.18,0.03-0.35,0.05-0.53,0.08l-0.26,0.05c-0.09,0.02-0.17,0.03-0.26,0.05l-0.26,0.05l-0.06,0.01l-0.07,0.01l-0.13,0.03
	c-0.34,0.08-0.68,0.16-1.02,0.25c-0.34,0.09-0.67,0.18-1,0.28c-0.33,0.1-0.66,0.2-0.99,0.31c-0.33,0.11-0.65,0.22-0.98,0.35
	c-0.32,0.12-0.64,0.26-0.95,0.4c-0.32,0.15-0.62,0.3-0.91,0.46l-0.45,0.24c-0.15,0.08-0.3,0.16-0.44,0.25
	c-0.15,0.08-0.29,0.18-0.43,0.27c-0.14,0.09-0.28,0.19-0.41,0.3c-0.13,0.11-0.26,0.22-0.38,0.35c-0.06,0.06-0.11,0.13-0.16,0.2
	c-0.05,0.07-0.08,0.15-0.11,0.23l0.01,0l0.01,0c0.09-0.14,0.2-0.26,0.33-0.36c0.13-0.11,0.26-0.2,0.4-0.28
	c0.28-0.17,0.58-0.32,0.88-0.47c0.15-0.07,0.3-0.14,0.45-0.21l0.46-0.21c0.16-0.07,0.31-0.14,0.46-0.21
	c0.15-0.07,0.31-0.14,0.46-0.2c0.15-0.06,0.31-0.13,0.47-0.19c0.16-0.06,0.31-0.13,0.47-0.19c0.32-0.12,0.64-0.23,0.96-0.34
	c0.65-0.22,1.3-0.41,1.97-0.59c0.33-0.09,0.67-0.18,1-0.26l0.13-0.03l0.12-0.03l0.26-0.06c0.09-0.02,0.17-0.04,0.25-0.06l0.25-0.05
	c0.17-0.03,0.34-0.06,0.51-0.09l0.52-0.08c0.17-0.02,0.35-0.05,0.52-0.07c0.17-0.02,0.35-0.04,0.52-0.05
	c0.35-0.03,0.7-0.06,1.06-0.08c0.35-0.02,0.71-0.03,1.06-0.02c0.35,0,0.71,0.02,1.06,0.05c0.29,0.03,0.58,0.07,0.86,0.12
	c-0.1,0.09-0.2,0.17-0.31,0.25c-0.16,0.12-0.33,0.23-0.5,0.34l-0.12,0.08c-0.04,0.03-0.08,0.05-0.12,0.08
	c-0.08,0.05-0.17,0.1-0.26,0.15c-0.17,0.09-0.35,0.18-0.54,0.26c-0.36,0.16-0.74,0.31-1.11,0.49c-0.19,0.09-0.36,0.18-0.54,0.26
	L27.55,14c-0.18,0.09-0.36,0.17-0.54,0.25c-0.18,0.08-0.36,0.15-0.55,0.22c-0.18,0.07-0.37,0.13-0.56,0.18
	c-0.09,0.03-0.19,0.05-0.28,0.07l-0.29,0.07c-0.19,0.05-0.38,0.09-0.58,0.15c-0.1,0.03-0.2,0.06-0.29,0.08
	c-0.04,0.01-0.08,0.02-0.12,0.03c-0.11,0.03-0.22,0.06-0.32,0.1l-0.24,0.08c-0.05,0.01-0.1,0.03-0.15,0.04
	c-0.19,0.06-0.38,0.11-0.57,0.16l0.57-0.15c0.01,0,0.01,0,0.02,0c-0.2,0.05-0.39,0.11-0.59,0.15l0.32-0.08
	c0.11-0.03,0.22-0.05,0.33-0.07c0.11-0.02,0.22-0.04,0.33-0.07c0.11-0.02,0.22-0.04,0.33-0.05c0.11-0.01,0.22-0.03,0.33-0.03
	c0.05,0,0.11-0.01,0.16-0.01c0.05,0,0.11,0,0.16,0c0.05,0,0.11,0,0.16,0c0.05,0,0.11,0.01,0.16,0.01c0.03,0,0.06,0.01,0.09,0.01
	c-0.21,0.18-0.45,0.33-0.71,0.45c-0.33,0.15-0.68,0.26-1.03,0.36c-0.35,0.1-0.71,0.17-1.07,0.23c-0.36,0.06-0.72,0.12-1.08,0.17
	l-0.54,0.08l-0.14,0.02l-0.13,0.01c-0.09,0.01-0.18,0.01-0.27,0.02c-0.36,0.02-0.71,0.01-1.07,0.01c-0.18,0-0.36,0-0.54,0
	l-0.27,0.01c-0.09,0-0.18,0-0.26-0.01l-0.27,0c-0.09,0-0.18,0-0.27,0.01c-0.09,0.01-0.18,0.02-0.27,0.04
	c-0.05,0.01-0.09,0.02-0.13,0.04c-0.04,0.02-0.09,0.04-0.12,0.08l0.01,0.01l0,0c0.07-0.04,0.16-0.04,0.25-0.05
	c0.09,0,0.17,0,0.26,0.01c0.09,0.01,0.17,0.01,0.26,0.02l0.26,0.03c0.09,0.01,0.18,0.01,0.27,0.02c0.1,0,0.18,0,0.27,0
	c0.18,0,0.36,0.01,0.53,0.01c0.36,0.01,0.72,0.02,1.09,0.01c0.09,0,0.18-0.01,0.28-0.01l0.14-0.01l0.14-0.02l0.55-0.07
	c0.36-0.05,0.73-0.1,1.1-0.17c0.37-0.07,0.73-0.15,1.1-0.25c0.36-0.1,0.73-0.23,1.07-0.39c0.35-0.17,0.68-0.38,0.94-0.68l0.14-0.15
	l-0.2-0.03c-0.05-0.01-0.09-0.01-0.14-0.02l0.09-0.02c0.1-0.02,0.2-0.04,0.3-0.06c0.2-0.04,0.39-0.1,0.59-0.16
	c0.19-0.06,0.39-0.13,0.58-0.2c0.19-0.07,0.38-0.15,0.56-0.23c0.19-0.08,0.37-0.17,0.55-0.25l0.54-0.26
	c0.36-0.17,0.73-0.33,1.1-0.52c0.18-0.09,0.37-0.19,0.54-0.3c0.09-0.05,0.18-0.11,0.26-0.17c0.04-0.03,0.09-0.06,0.13-0.09
	l0.12-0.09c0.16-0.12,0.32-0.24,0.49-0.36c0.16-0.12,0.33-0.26,0.47-0.4L32,11.71L31.83,11.67z"/>
<path class="st1" d="M13.76,15.42c-0.04-0.16-0.11-0.31-0.19-0.45c-0.09-0.14-0.19-0.27-0.29-0.4c-0.21-0.25-0.44-0.49-0.68-0.72
	c-0.12-0.12-0.24-0.23-0.36-0.34l-0.37-0.34c-0.13-0.12-0.25-0.23-0.37-0.35c-0.12-0.12-0.25-0.22-0.37-0.34
	c-0.13-0.11-0.25-0.22-0.38-0.33c-0.13-0.11-0.26-0.22-0.39-0.32c-0.26-0.21-0.53-0.42-0.8-0.63c-0.54-0.41-1.11-0.8-1.68-1.18
	C7.57,9.82,7.28,9.63,6.99,9.44L6.88,9.37L6.77,9.31L6.55,9.17C6.48,9.12,6.4,9.08,6.33,9.04L6.1,8.91C5.95,8.82,5.8,8.74,5.65,8.66
	L5.18,8.42C5.02,8.34,4.87,8.26,4.71,8.19C4.55,8.12,4.39,8.04,4.23,7.97C3.91,7.83,3.58,7.7,3.25,7.57c-0.33-0.13-0.66-0.25-1-0.36
	C1.91,7.1,1.57,7.01,1.23,6.93C0.94,6.86,0.66,6.81,0.37,6.77C0.43,6.89,0.51,7,0.59,7.11C0.7,7.27,0.83,7.43,0.95,7.59l0.09,0.12
	C1.07,7.75,1.1,7.78,1.13,7.82c0.06,0.07,0.13,0.15,0.2,0.22c0.14,0.14,0.28,0.28,0.43,0.42c0.29,0.27,0.6,0.53,0.9,0.81
	C2.8,9.41,2.94,9.55,3.08,9.69l0.43,0.42c0.14,0.14,0.29,0.27,0.43,0.4c0.15,0.13,0.3,0.26,0.45,0.38c0.15,0.12,0.31,0.24,0.47,0.35
	c0.08,0.06,0.16,0.11,0.25,0.16l0.25,0.16c0.17,0.1,0.33,0.21,0.5,0.33c0.1,0.07,0.19,0.13,0.29,0.2c0.02,0.02,0.05,0.03,0.07,0.05
	c0.09,0.06,0.19,0.13,0.28,0.19l0.21,0.15c0.04,0.03,0.09,0.06,0.13,0.09c0.16,0.11,0.32,0.22,0.49,0.33l-0.28-0.17
	c-0.09-0.06-0.19-0.12-0.29-0.17c-0.1-0.06-0.19-0.11-0.29-0.17c-0.1-0.05-0.2-0.1-0.3-0.15c-0.1-0.05-0.2-0.09-0.3-0.14
	c-0.05-0.02-0.1-0.04-0.15-0.06c-0.05-0.02-0.1-0.04-0.15-0.06c-0.05-0.02-0.1-0.03-0.15-0.05c-0.05-0.02-0.1-0.03-0.16-0.04
	c-0.03-0.01-0.06-0.01-0.09-0.02c0.14,0.24,0.33,0.45,0.53,0.65c0.26,0.25,0.56,0.46,0.86,0.67c0.3,0.2,0.62,0.39,0.94,0.56
	c0.32,0.17,0.65,0.34,0.97,0.5l0.49,0.24l0.12,0.06l0.12,0.05c0.08,0.03,0.16,0.07,0.25,0.1c0.33,0.13,0.67,0.24,1.02,0.35
	c0.17,0.05,0.34,0.11,0.51,0.17l0.25,0.09c0.08,0.03,0.17,0.05,0.25,0.08l0.26,0.08c0.08,0.03,0.17,0.06,0.25,0.1
	c0.08,0.04,0.17,0.07,0.25,0.12c0.04,0.02,0.08,0.05,0.11,0.08c0.04,0.03,0.07,0.07,0.09,0.11l-0.01,0.01c0,0.01,0.01,0.03,0,0.04
	l0,0l0,0l-0.02,0.04c0,0,0.8-0.23,0.96-0.26c0.15-0.03,0.32-0.04,0.35-0.12C13.77,15.52,13.77,15.42,13.76,15.42l0.01,0l0,0
	L13.76,15.42z"/>
<path class="st2" d="M13.74,15.17c-0.02-0.08-0.05-0.16-0.08-0.24c-0.07-0.16-0.15-0.31-0.25-0.45c-0.09-0.14-0.19-0.28-0.3-0.42
	c-0.11-0.13-0.21-0.27-0.33-0.39c-0.11-0.13-0.23-0.25-0.34-0.38l-0.35-0.37c-0.23-0.24-0.47-0.49-0.72-0.73
	c-0.25-0.24-0.51-0.46-0.78-0.68c-0.27-0.22-0.54-0.43-0.82-0.64c-0.28-0.21-0.56-0.41-0.84-0.61c-0.29-0.2-0.57-0.39-0.86-0.58
	C7.77,9.5,7.48,9.31,7.18,9.13L7.07,9.06L7.01,9.03L6.95,8.99L6.73,8.86C6.65,8.82,6.57,8.78,6.5,8.73L6.26,8.61
	C6.1,8.52,5.95,8.44,5.79,8.36L5.31,8.13C5.15,8.06,4.99,7.98,4.82,7.91C4.66,7.85,4.5,7.77,4.33,7.71C4,7.57,3.67,7.45,3.33,7.33
	C2.99,7.2,2.66,7.09,2.31,6.99c-0.35-0.1-0.69-0.2-1.05-0.28C0.91,6.63,0.55,6.57,0.19,6.54L0.01,6.53l0.07,0.16
	c0.09,0.19,0.2,0.36,0.32,0.53c0.12,0.17,0.24,0.33,0.35,0.49l0.09,0.13C0.87,7.88,0.9,7.92,0.93,7.96C1,8.04,1.06,8.12,1.13,8.2
	c0.13,0.16,0.28,0.31,0.42,0.45c0.29,0.29,0.59,0.56,0.88,0.84L2.86,9.9c0.15,0.14,0.29,0.28,0.44,0.41c0.15,0.14,0.3,0.27,0.46,0.4
	c0.16,0.13,0.32,0.25,0.48,0.37c0.16,0.12,0.33,0.23,0.51,0.33c0.09,0.05,0.18,0.1,0.26,0.15l0.08,0.04
	c-0.05-0.01-0.09-0.02-0.14-0.02l-0.2-0.03l0.08,0.19c0.15,0.36,0.41,0.67,0.68,0.94c0.28,0.27,0.58,0.5,0.89,0.71
	c0.31,0.21,0.64,0.4,0.96,0.58c0.33,0.18,0.66,0.34,0.99,0.5l0.5,0.24l0.12,0.06l0.13,0.06c0.09,0.04,0.17,0.07,0.26,0.1
	c0.35,0.13,0.69,0.23,1.04,0.33c0.17,0.05,0.34,0.1,0.51,0.16c0.09,0.03,0.16,0.06,0.26,0.08c0.09,0.02,0.18,0.05,0.26,0.07
	l0.26,0.06c0.09,0.02,0.17,0.04,0.26,0.06c0.09,0.02,0.17,0.04,0.25,0.07c0.08,0.03,0.17,0.06,0.22,0.12l0,0l0.01-0.01
	c-0.02-0.05-0.05-0.08-0.09-0.11c-0.04-0.03-0.08-0.06-0.11-0.08c-0.08-0.05-0.16-0.09-0.25-0.12c-0.08-0.04-0.17-0.07-0.25-0.1
	l-0.26-0.08c-0.09-0.03-0.17-0.05-0.25-0.08l-0.25-0.09c-0.17-0.06-0.34-0.12-0.51-0.17c-0.34-0.11-0.68-0.22-1.02-0.35
	c-0.08-0.03-0.16-0.07-0.25-0.1l-0.12-0.05l-0.12-0.06l-0.49-0.24c-0.33-0.16-0.65-0.33-0.97-0.5c-0.32-0.17-0.64-0.36-0.94-0.56
	c-0.3-0.2-0.6-0.42-0.86-0.67c-0.21-0.2-0.4-0.41-0.53-0.65c0.03,0.01,0.06,0.01,0.09,0.02c0.05,0.01,0.1,0.03,0.16,0.04
	c0.05,0.01,0.1,0.03,0.15,0.05c0.05,0.02,0.1,0.04,0.15,0.06c0.05,0.02,0.1,0.04,0.15,0.06c0.1,0.04,0.2,0.09,0.3,0.14
	c0.1,0.05,0.2,0.1,0.3,0.15c0.1,0.05,0.19,0.11,0.29,0.17c0.09,0.06,0.19,0.11,0.29,0.17l0.28,0.17C7.17,12.78,7,12.67,6.84,12.56
	c-0.04-0.03-0.09-0.06-0.13-0.09L6.5,12.32c-0.09-0.07-0.18-0.13-0.28-0.19c-0.02-0.02-0.05-0.03-0.07-0.05
	c-0.1-0.07-0.19-0.13-0.29-0.2c-0.16-0.11-0.33-0.22-0.5-0.33L5.12,11.4c-0.08-0.05-0.17-0.1-0.25-0.16
	c-0.16-0.11-0.32-0.23-0.47-0.35c-0.15-0.12-0.3-0.25-0.45-0.38c-0.15-0.13-0.29-0.27-0.43-0.4L3.08,9.69
	C2.94,9.55,2.8,9.41,2.65,9.27c-0.3-0.28-0.6-0.54-0.9-0.81C1.61,8.32,1.46,8.19,1.33,8.04C1.26,7.97,1.19,7.9,1.13,7.82
	C1.1,7.78,1.07,7.75,1.04,7.71L0.95,7.59C0.83,7.43,0.7,7.27,0.58,7.11C0.51,7,0.43,6.89,0.37,6.77c0.29,0.04,0.57,0.09,0.86,0.15
	C1.57,7.01,1.91,7.1,2.25,7.21c0.34,0.11,0.67,0.23,1,0.36c0.33,0.13,0.66,0.26,0.98,0.4c0.16,0.07,0.32,0.14,0.48,0.22
	c0.16,0.07,0.32,0.15,0.47,0.23l0.46,0.24C5.8,8.74,5.95,8.82,6.1,8.91l0.22,0.13C6.4,9.08,6.48,9.12,6.55,9.17l0.22,0.14l0.11,0.07
	l0.11,0.07c0.29,0.19,0.58,0.38,0.87,0.57c0.57,0.38,1.14,0.77,1.68,1.18c0.27,0.21,0.54,0.41,0.8,0.63
	c0.13,0.11,0.26,0.21,0.39,0.32c0.13,0.11,0.26,0.22,0.38,0.33c0.12,0.11,0.25,0.22,0.37,0.34c0.12,0.12,0.24,0.23,0.37,0.35
	l0.37,0.34c0.12,0.11,0.25,0.23,0.36,0.34c0.24,0.23,0.47,0.47,0.68,0.72c0.1,0.13,0.21,0.26,0.29,0.4
	c0.09,0.14,0.16,0.29,0.19,0.45l0.01,0l0.01,0C13.77,15.33,13.76,15.25,13.74,15.17z"/>
</svg>
