<?xml version="1.0" encoding="utf-8"?>
<!-- Generator: Adobe Illustrator 20.1.0, SVG Export Plug-In . SVG Version: 6.00 Build 0)  -->
<svg version="1.1" id="Layer_1" xmlns="http://www.w3.org/2000/svg" xmlns:xlink="http://www.w3.org/1999/xlink" x="0px" y="0px"
	 viewBox="0 0 32 32" style="enable-background:new 0 0 32 32;" xml:space="preserve">
<style type="text/css">
	.st0{fill:#464342;}
</style>
<g>
	<g>
		<path class="st0" d="M2.27,16c0,5.43,3.16,10.13,7.74,12.35L3.46,10.41C2.7,12.12,2.27,14.01,2.27,16z"/>
		<path class="st0" d="M25.27,15.31c0-1.7-0.61-2.87-1.13-3.79c-0.7-1.13-1.35-2.09-1.35-3.22c0-1.26,0.96-2.44,2.3-2.44
			c0.06,0,0.12,0.01,0.18,0.01c-2.44-2.24-5.7-3.6-9.27-3.6c-4.8,0-9.01,2.46-11.47,6.19c0.32,0.01,0.63,0.02,0.88,0.02
			c1.44,0,3.66-0.17,3.66-0.17C9.81,8.26,9.9,9.35,9.16,9.43c0,0-0.74,0.09-1.57,0.13l5,14.87l3-9.01l-2.14-5.86
			c-0.74-0.04-1.44-0.13-1.44-0.13c-0.74-0.04-0.65-1.17,0.09-1.13c0,0,2.27,0.17,3.61,0.17c1.44,0,3.66-0.17,3.66-0.17
			c0.74-0.04,0.83,1.04,0.09,1.13c0,0-0.74,0.09-1.57,0.13l4.96,14.75l1.37-4.57C24.81,17.85,25.27,16.48,25.27,15.31z"/>
		<path class="st0" d="M16.24,17.2l-4.12,11.97c1.23,0.36,2.53,0.56,3.88,0.56c1.6,0,3.13-0.28,4.56-0.78
			c-0.04-0.06-0.07-0.12-0.1-0.19L16.24,17.2z"/>
		<path class="st0" d="M28.04,9.41c0.06,0.44,0.09,0.91,0.09,1.41c0,1.39-0.26,2.96-1.04,4.92L22.9,27.86
			c4.08-2.38,6.82-6.8,6.82-11.86C29.73,13.61,29.12,11.37,28.04,9.41z"/>
		<path class="st0" d="M16,0C7.18,0,0,7.18,0,16c0,8.82,7.18,16,16,16c8.82,0,16-7.18,16-16C32,7.18,24.82,0,16,0z M16,31.27
			C7.58,31.27,0.73,24.42,0.73,16C0.73,7.58,7.58,0.73,16,0.73c8.42,0,15.27,6.85,15.27,15.27C31.27,24.42,24.42,31.27,16,31.27z"/>
	</g>
</g>
</svg>
