<?xml version="1.0" encoding="utf-8"?>
<!-- Generator: Adobe Illustrator 20.1.0, SVG Export Plug-In . SVG Version: 6.00 Build 0)  -->
<svg version="1.1" id="Layer_1" xmlns="http://www.w3.org/2000/svg" xmlns:xlink="http://www.w3.org/1999/xlink" x="0px" y="0px"
	 viewBox="0 0 32 32" style="enable-background:new 0 0 32 32;" xml:space="preserve">
<style type="text/css">
	.st0{fill:#75BC43;}
</style>
<g>
	<path class="st0" d="M15.05,13.36c0,0,0-4.24,4.24-4.24H32c0,0,0,4.24-4.24,4.24H15.05"/>
	<path class="st0" d="M15.05,18.77c0,0,0-4.24,4.24-4.24h6.36c0,0,0,4.24-4.24,4.24H15.05"/>
	<path class="st0" d="M15.05,24.19c0,0,0-4.24,4.24-4.24h2.12c0,0,0,4.24-4.24,4.24H15.05"/>
	<polyline class="st0" points="13.63,20.88 13.63,24.26 0,24.26 8.78,12.29 1.24,12.29 1.24,8.91 15.46,8.91 6.72,20.88 
		13.63,20.88 	"/>
</g>
</svg>
