<?xml version="1.0" encoding="UTF-8"?>
<svg width="20px" height="20px" viewBox="0 0 20 20" version="1.1" xmlns="http://www.w3.org/2000/svg" xmlns:xlink="http://www.w3.org/1999/xlink">
    <title>icon</title>
    <g id="icon" stroke="none" stroke-width="1" fill="none" fill-rule="evenodd">
        <path d="M10.0024477,2 C13.2373749,1.99527244 16.1555835,3.94266778 17.3927247,6.93172963 C18.6298659,9.92079148 17.9415073,13.3609459 15.6494769,15.6438188 C13.6341552,17.671342 10.6887714,18.466907 7.92672119,17.7297792 C5.16467097,16.9926514 3.00733548,14.8352878 2.2702173,12.0732016 C1.53309911,9.31111535 2.32865371,6.36569317 4.35615049,4.35034524 C5.84878929,2.84419516 7.88197727,1.99785712 10.0024477,2 M9.99961317,0 L9.99961317,0 C4.49963251,0 0,4.49963251 0,9.99961317 L0,9.99961317 C0,15.4995938 4.49963251,20 9.99961317,20 L9.99961317,20 C15.4995938,20 20,15.4995938 20,9.99961317 L20,9.99961317 C20,4.49963251 15.4995938,0 9.99961317,0 Z" id="Shape" fill="#EC7A08" fill-rule="nonzero"></path>
        <path d="M13.7356389,8.0004642 L10.9597308,8.0004642 L11.9840625,5.0876175 C12.0807706,4.74720514 11.8037987,4.40988743 11.4262504,4.40988743 L7.9633283,4.40988743 C7.68413385,4.40227533 7.4410781,4.59934756 7.3908166,4.87408611 L6.61715214,10.2595644 C6.57150594,10.5821825 6.84074117,10.8699857 7.18966384,10.8699857 L10.0444857,10.8699857 L8.93969286,15.2411899 C8.85304244,15.5823759 9.13156164,15.9027184 9.49982593,15.9027184 C9.7019272,15.905184 9.891078,15.803446 10.0003868,15.6334378 L14.2354261,8.8081699 C14.4566941,8.45151058 14.1804959,8.0004642 13.7356389,8.0004642 Z" id="Path" fill="#EC7A08" fill-rule="nonzero"></path>
    </g>
</svg>
