<svg id="Layer_1" data-name="Layer 1" xmlns="http://www.w3.org/2000/svg" viewBox="0 0 100.5 134"><title>Icon_for_Brigid_new</title><path d="M73.46,75.14V96.57A3.42,3.42,0,0,1,73,98.38a3.57,3.57,0,0,1-1.36,1.31L51.94,110.4a3.44,3.44,0,0,1-3.4,0L28.9,99.69A3.55,3.55,0,0,1,27,96.57V75.14a3.45,3.45,0,0,1,.64-2,3.51,3.51,0,0,1,1.7-1.31L49,64.65a3.47,3.47,0,0,1,1.22-.23,3.57,3.57,0,0,1,1.23.23l19.64,7.14a3.59,3.59,0,0,1,2.35,3.35Zm-23.22,7,19.48-7.09L50.24,68,30.77,75.08ZM52,106.3l17.86-9.73V78.82L52,85.32Z" transform="translate(0.01 -0.03)"/><path d="M96.83,25.68a12.14,12.14,0,0,1,3.66,8.9v86.89A12.5,12.5,0,0,1,87.93,134H12.55a12.1,12.1,0,0,1-8.89-3.66A12.09,12.09,0,0,1,0,121.47V12.6A12.09,12.09,0,0,1,3.66,3.7,12.11,12.11,0,0,1,12.55,0H66A12.12,12.12,0,0,1,74.84,3.7ZM12.55,121.47H87.93V46.1H60.71a6.25,6.25,0,0,1-6.28-6.28V12.6H12.55ZM86.88,33.53,67,13.64V33.53Z" transform="translate(0.01 -0.03)"/></svg>