<svg enable-background="new 0 0 33.5 33.5" viewBox="0 0 33.5 33.5" xmlns="http://www.w3.org/2000/svg"><path d="m17.8 13.4c-.3 0-.6-.3-.6-.6v-7c0-.3.3-.6.6-.6s.6.3.6.6v7c0 .3-.3.6-.6.6z" fill="#e00"/><path d="m13.8 17.4h-7c-.3 0-.6-.3-.6-.6s.3-.6.6-.6h7c.3 0 .6.3.6.6s-.3.6-.6.6z" fill="#e00"/><path d="m17.8 28.4c-.3 0-.6-.3-.6-.6v-7c0-.3.3-.6.6-.6s.6.3.6.6v7c0 .3-.3.6-.6.6z" fill="#e00"/><path d="m28.3 17c0-.1 0-.1 0-.2s0 0 0 0c0-.1 0-.1 0-.2 0 0-.1-.1-.1-.1v-.1l-2-2c-.2-.2-.6-.2-.9 0-.2.2-.2.6 0 .9l.9.9h-9.5c-.3 0-.6.3-.6.6s.3.6.6.6h9.5l-.9.9c-.2.2-.2.6 0 .9.1.1.3.2.4.2s.3-.1.4-.2l2-2v-.1c.2 0 .2-.1.2-.1z"/><path d="m14.8 14.4c-.2 0-.3-.1-.4-.2l-4-4c-.2-.2-.2-.6 0-.9.2-.2.6-.2.9 0l4 4c.2.2.2.6 0 .9-.2.1-.4.2-.5.2z"/><path d="m10.8 24.4c-.2 0-.3-.1-.4-.2-.2-.2-.2-.6 0-.9l4-4c.2-.2.6-.2.9 0 .2.2.2.6 0 .9l-4 4c-.2.1-.4.2-.5.2z"/><g fill="#e00"><path d="m15.2 11.4c-.3 0-.5-.2-.6-.5l-.4-2c-.1-.3.1-.7.5-.7.3-.1.7.1.7.5l.4 2c.1.3-.1.7-.5.7z"/><path d="m11.8 14.8h-.1l-2-.4c-.3-.1-.6-.4-.5-.7s.4-.6.7-.5l2 .4c.3.1.6.4.5.7s-.4.5-.6.5z"/><path d="m14.8 25.4h-.1c-.3-.1-.6-.4-.5-.7l.4-2c.1-.3.4-.6.7-.5s.6.4.5.7l-.4 2c-.1.3-.4.5-.6.5z"/><path d="m9.8 20.4c-.3 0-.5-.2-.6-.5s.1-.7.5-.7l2-.4c.3-.1.7.1.7.5s-.1.7-.5.7l-2 .4c-.1 0-.1 0-.1 0z"/></g><path d="m6.8 13.4c-.2 0-.3-.1-.4-.2s-.1-.1-.1-.2 0-.2 0-.2c0-.2.1-.3.2-.4.2-.2.7-.2.9 0 .1.1.2.3.2.4v.2c0 .1-.1.1-.1.2-.4.1-.6.2-.7.2z"/><path d="m6.8 21.4c-.2 0-.3-.1-.4-.2s-.2-.3-.2-.4.1-.3.2-.4c.2-.2.6-.2.9 0 .1.1.2.3.2.4s-.1.3-.2.4c-.2.1-.4.2-.5.2z"/></svg>