<?xml version="1.0" encoding="UTF-8"?><svg id="uuid-018281bc-a235-4e16-9deb-c69b48ca7d61" xmlns="http://www.w3.org/2000/svg" viewBox="0 0 38 38"><defs><style>.uuid-2563a7bd-4331-4c0d-a9dc-76761d6be2d3{fill:#fff;}</style></defs><path class="uuid-2563a7bd-4331-4c0d-a9dc-76761d6be2d3" d="m28,1H10C5.02942,1,1,5.02942,1,10v18c0,4.97058,4.02942,9,9,9h18c4.97058,0,9-4.02942,9-9V10c0-4.97058-4.02942-9-9-9Zm7.75,27c0,4.27338-3.47668,7.75-7.75,7.75H10c-4.27332,0-7.75-3.47662-7.75-7.75V10c0-4.27338,3.47668-7.75,7.75-7.75h18c4.27332,0,7.75,3.47662,7.75,7.75v18Z"/><path class="uuid-2563a7bd-4331-4c0d-a9dc-76761d6be2d3" d="m20,15.625c.34473,0,.625-.28027.625-.625v-7c0-.34473-.28027-.625-.625-.625s-.625.28027-.625.625v7c0,.34473.28027.625.625.625Z"/><path class="uuid-2563a7bd-4331-4c0d-a9dc-76761d6be2d3" d="m16.625,19c0-.34473-.28027-.625-.625-.625h-7c-.34473,0-.625.28027-.625.625s.28027.625.625.625h7c.34473,0,.625-.28027.625-.625Z"/><path class="uuid-2563a7bd-4331-4c0d-a9dc-76761d6be2d3" d="m20,22.375c-.34473,0-.625.28027-.625.625v7c0,.34473.28027.625.625.625s.625-.28027.625-.625v-7c0-.34473-.28027-.625-.625-.625Z"/><path class="uuid-2563a7bd-4331-4c0d-a9dc-76761d6be2d3" d="m30.57654,18.76056c-.02002-.04791-.05383-.08667-.08447-.12775-.01807-.02448-.02759-.05304-.04968-.0752l-2-2c-.24414-.24414-.64062-.24414-.88477,0-.24316.24414-.24316.64062,0,.88477l.93323.93262h-9.49084c-.34473,0-.625.28027-.625.625s.28027.625.625.625h9.49084l-.93323.93262c-.24316.24414-.24316.64062,0,.88477.12207.12207.28223.18262.44238.18262s.32031-.06055.44238-.18262l2-2c.02209-.02216.03162-.05072.04968-.0752.03064-.04108.06445-.07983.08447-.12775.02795-.06769.03955-.13947.04285-.21149.00049-.00983.00562-.01807.00562-.02795s-.00513-.01813-.00562-.02795c-.0033-.07202-.01489-.1438-.04285-.21149Z"/><path class="uuid-2563a7bd-4331-4c0d-a9dc-76761d6be2d3" d="m16.55762,16.44238c.12207.12207.28223.18262.44238.18262s.32031-.06055.44238-.18262c.24316-.24414.24316-.64062,0-.88477l-4-4c-.24414-.24414-.64062-.24414-.88477,0-.24316.24414-.24316.64062,0,.88477l4,4Z"/><path class="uuid-2563a7bd-4331-4c0d-a9dc-76761d6be2d3" d="m17.44238,21.55762c-.24414-.24414-.64062-.24414-.88477,0l-4,4c-.24316.24414-.24316.64062,0,.88477.12207.12207.28223.18262.44238.18262s.32031-.06055.44238-.18262l4-4c.24316-.24414.24316-.64062,0-.88477Z"/><path class="uuid-2563a7bd-4331-4c0d-a9dc-76761d6be2d3" d="m17.61133,10.87012c-.07129-.33789-.40234-.55664-.74121-.48145-.33789.07129-.55273.40332-.48145.74121l.4248,2c.0625.29395.32227.49512.61035.49512.04297,0,.08691-.00391.13086-.01367.33789-.07129.55273-.40332.48145-.74121l-.4248-2Z"/><path class="uuid-2563a7bd-4331-4c0d-a9dc-76761d6be2d3" d="m11.87012,16.61133l2,.4248c.04395.00977.08789.01367.13086.01367.28809,0,.54785-.20117.61035-.49512.07129-.33789-.14355-.66992-.48145-.74121l-2-.4248c-.33887-.07715-.66895.14355-.74121.48145-.07129.33789.14355.66992.48145.74121Z"/><path class="uuid-2563a7bd-4331-4c0d-a9dc-76761d6be2d3" d="m17.55469,24.38867c-.33984-.07422-.66895.14355-.74121.48145l-.4248,2c-.07129.33789.14355.66992.48145.74121.04395.00977.08789.01367.13086.01367.28809,0,.54785-.20117.61035-.49512l.4248-2c.07129-.33789-.14355-.66992-.48145-.74121Z"/><path class="uuid-2563a7bd-4331-4c0d-a9dc-76761d6be2d3" d="m14.61133,21.44531c-.07129-.33789-.40039-.55762-.74121-.48145l-2,.4248c-.33789.07129-.55273.40332-.48145.74121.0625.29395.32227.49512.61035.49512.04297,0,.08691-.00391.13086-.01367l2-.4248c.33789-.07129.55273-.40332.48145-.74121Z"/><path class="uuid-2563a7bd-4331-4c0d-a9dc-76761d6be2d3" d="m8.55957,15.43945c.12012.12012.28027.19043.44043.19043s.31934-.07031.43945-.19043c.06055-.05957.11035-.12012.14062-.19922.0293-.08008.0498-.16016.0498-.24023,0-.16016-.07031-.32031-.19043-.44043-.22949-.24023-.64941-.22949-.87988,0-.12012.12012-.18945.28027-.18945.44043,0,.08008.01953.16016.0498.24023.04004.0791.08008.13965.13965.19922Z"/><path class="uuid-2563a7bd-4331-4c0d-a9dc-76761d6be2d3" d="m8.55957,22.55957c-.12012.12012-.18945.28027-.18945.44043s.06934.33008.18945.43945c.12012.12012.28027.19043.44043.19043s.31934-.07031.43945-.19043c.12012-.10938.19043-.2793.19043-.43945s-.07031-.32031-.19043-.44043c-.23926-.24023-.64941-.22949-.87988,0Z"/></svg>