<svg xmlns="http://www.w3.org/2000/svg" version="1.1" xmlns:xlink="http://www.w3.org/1999/xlink" xmlns:svgjs="http://svgjs.com/svgjs" width="512" height="512" x="0" y="0" viewBox="0 0 64 64" style="enable-background:new 0 0 512 512" xml:space="preserve" fill-rule="evenodd"><g><g fill-rule="nonzero"><path fill="#ffe077" d="M30 30H3.9c-1 0-1.9-.9-1.9-1.9V3.9C2 2.9 2.9 2 3.9 2h24.2c1 0 1.9.9 1.9 1.9z" data-original="#ffe077"/><path fill="#ffc244" d="M30 30H3.9c-1 0-1.9-.9-1.9-1.9C19.234 27.192 27.394 17.998 28.1 2c1 0 1.9.9 1.9 1.9z" data-original="#ffc244"/><path fill="#4ce1a1" d="M34 30V3.9c0-1 .9-1.9 1.9-1.9h24.2c1 0 1.9.9 1.9 1.9v24.2c0 1-.9 1.9-1.9 1.9z" data-original="#4ce1a1"/><path fill="#3ec2a3" d="M34 30c17.353-1.582 25.994-10.968 26.1-28 1 0 1.9.9 1.9 1.9v24.2c0 1-.9 1.9-1.9 1.9z" data-original="#3ec2a3"/><path fill="#fb4455" d="M34 34h26.1c1 0 1.9.9 1.9 1.9v24.2c0 1-.9 1.9-1.9 1.9H35.9c-1 0-1.9-.9-1.9-1.9z" data-original="#fb4455"/><path fill="#da4455" d="M34 60.1c17.42.205 25.567-9.059 26.1-26.1 1 0 1.9.9 1.9 1.9v24.2c0 1-.9 1.9-1.9 1.9H35.9c-1 0-1.9-.9-1.9-1.9z" data-original="#da4455"/><path fill="#7ad7ee" d="M30 34v26.1c0 1-.9 1.9-1.9 1.9H3.9c-1 0-1.9-.9-1.9-1.9V35.9c0-1 .9-1.9 1.9-1.9z" data-original="#7ad7ee"/><path fill="#4bc3ef" d="M30 34v26.1c0 1-.9 1.9-1.9 1.9H3.9c-1 0-1.9-.9-1.9-1.9 15.808-.125 25.486-8.369 28-26.1z" data-original="#4bc3ef"/></g></g></svg>