<?xml version="1.0" encoding="UTF-8" standalone="no"?>
<svg width="20px" height="20px" viewBox="0 0 20 20" version="1.1" xmlns="http://www.w3.org/2000/svg" xmlns:xlink="http://www.w3.org/1999/xlink">
    <!-- Generator: Sketch 48.2 (47327) - http://www.bohemiancoding.com/sketch -->
    <title>apps-logo</title>
    <desc>Created with Sketch.</desc>
    <defs></defs>
    <g id="Page-1" stroke="none" stroke-width="1" fill="none" fill-rule="evenodd">
        <g id="apps-logo" stroke="#72767b">
            <path d="M16.3626447,13.6430066 L19.0305382,14.6893619 C19.5863118,14.9073379 19.5863118,15.2607468 19.0305382,15.4787227 L10.9800013,18.636166 C10.4242277,18.854142 9.52314069,18.854142 8.96736709,18.636166 L0.916830196,15.4787227 C0.361056601,15.2607468 0.361056601,14.9073379 0.916830196,14.6893619 L3.58472366,13.6430066 L8.96736709,15.7540946 C9.52314069,15.9720705 10.4242277,15.9720705 10.9800013,15.7540946 L16.3626447,13.6430066 Z" id="path-bottom" fill="#72767b" fill-rule="nonzero"></path>
            <path d="M19.0305382,9.25514359 C19.5863118,9.47311956 19.5863118,9.82652844 19.0305382,10.0445044 L10.9800013,13.2019476 C10.4242277,13.4199237 9.52314069,13.4199237 8.96736709,13.2019476 L0.916830196,10.0445044 C0.361056601,9.82652844 0.361056601,9.47311956 0.916830196,9.25514359 L3.58472366,8.20878825 L8.96736709,10.3198762 C9.52314069,10.5378522 10.4242277,10.5378522 10.9800013,10.3198762 L16.3626447,8.20878825 L19.0305382,9.25514359 Z" id="path-middle" fill="#72767b" fill-rule="nonzero"></path>
            <path d="M10.9800013,0.663481978 L19.0305382,3.82092524 C19.5863118,4.03890121 19.5863118,4.39231009 19.0305382,4.61028606 L10.9800013,7.76772932 C10.4242277,7.98570529 9.52314069,7.98570529 8.96736709,7.76772932 L0.916830196,4.61028606 C0.361056601,4.39231009 0.361056601,4.03890121 0.916830196,3.82092524 L8.96736709,0.663481978 C9.52314069,0.445506007 10.4242277,0.445506007 10.9800013,0.663481978 Z" id="path-top"></path>
        </g>
    </g>
</svg>
