<?xml version="1.0" encoding="UTF-8" standalone="no"?>
<svg width="24px" height="24px" viewBox="0 0 24 24" version="1.1" xmlns="http://www.w3.org/2000/svg" xmlns:xlink="http://www.w3.org/1999/xlink">
    <!-- Generator: Sketch 47.1 (45422) - http://www.bohemiancoding.com/sketch -->
    <title>apps-logo</title>
    <desc>Created with Sketch.</desc>
    <defs></defs>
    <g id="Page-1" stroke="none" stroke-width="1" fill="none" fill-rule="evenodd">
        <g id="apps-logo" stroke="#8ABFE6">
            <g id="apps-copy-4" transform="translate(2.500000, 2.500000)">
                <path d="M18.5305382,8.75514359 C19.0863118,8.97311956 19.0863118,9.32652844 18.5305382,9.5445044 L10.4800013,12.7019476 C9.92422773,12.9199237 9.02314069,12.9199237 8.46736709,12.7019476 L0.416830196,9.5445044 C-0.138943399,9.32652844 -0.138943399,8.97311956 0.416830196,8.75514359 L3.08472366,7.70878825 L8.46736709,9.81987618 C9.02314069,10.0378522 9.92422773,10.0378522 10.4800013,9.81987618 L15.8626447,7.70878825 L18.5305382,8.75514359 Z" id="path-1" fill="#8ABFE6"></path>
                <path d="M15.8626447,13.1430066 L18.5305382,14.1893619 C19.0863118,14.4073379 19.0863118,14.7607468 18.5305382,14.9787227 L10.4800013,18.136166 C9.92422773,18.354142 9.02314069,18.354142 8.46736709,18.136166 L0.416830196,14.9787227 C-0.138943399,14.7607468 -0.138943399,14.4073379 0.416830196,14.1893619 L3.08472366,13.1430066 L8.46736709,15.2540946 C9.02314069,15.4720705 9.92422773,15.4720705 10.4800013,15.2540946 L15.8626447,13.1430066 L15.8626447,13.1430066 Z" id="path-2" fill="#8ABFE6"></path>
                <path d="M10.4800013,0.163481978 L18.5305382,3.32092524 C19.0863118,3.53890121 19.0863118,3.89231009 18.5305382,4.11028606 L10.4800013,7.26772932 C9.92422773,7.48570529 9.02314069,7.48570529 8.46736709,7.26772932 L0.416830196,4.11028606 C-0.138943399,3.89231009 -0.138943399,3.53890121 0.416830196,3.32092524 L8.46736709,0.163481978 C9.02314069,-0.0544939926 9.92422773,-0.0544939926 10.4800013,0.163481978 Z" id="path-3"></path>
            </g>
        </g>
    </g>
</svg>