<?xml version="1.0" encoding="utf-8"?>
<!-- Generator: Adobe Illustrator 23.0.1, SVG Export Plug-In . SVG Version: 6.00 Build 0)  -->
<svg version="1.1" id="Layer_1" xmlns="http://www.w3.org/2000/svg" xmlns:xlink="http://www.w3.org/1999/xlink" x="0px" y="0px"
	 width="287px" height="14px" viewBox="0 0 287 14" style="enable-background:new 0 0 287 14;" xml:space="preserve">
<style type="text/css">
	.st0{enable-background:new    ;}
	.st1{fill:#FFFFFF;}
</style>
<g class="st0">
	<path class="st1" d="M9.1,13.4L8.4,11H4.4l-0.6,2.4H0L4.1,0.8h4.5l4.2,12.6H9.1z M7.7,8.2L7.2,6.2C7.1,5.7,6.9,5.1,6.7,4.4
		C6.6,3.7,6.4,3.1,6.4,2.8C6.3,3.1,6.2,3.6,6.1,4.3c-0.2,0.7-0.5,2-1,4H7.7z"/>
	<path class="st1" d="M25.1,13.4h-9.8v-2.1l5.4-7.7h-5.3V0.8h9.5v2.1l-5.4,7.7h5.6V13.4z"/>
	<path class="st1" d="M39.5,0.8v7.6c0,1.6-0.5,2.9-1.4,3.8c-0.9,0.9-2.3,1.4-4,1.4c-1.7,0-3-0.4-3.9-1.3s-1.4-2.1-1.4-3.8V0.8h3.4
		v7.4c0,0.9,0.2,1.5,0.5,1.9c0.3,0.4,0.8,0.6,1.5,0.6c0.7,0,1.2-0.2,1.5-0.6c0.3-0.4,0.5-1.1,0.5-2V0.8H39.5z"/>
	<path class="st1" d="M47.6,8.8v4.6h-3.4V0.8h4.1c3.4,0,5.1,1.2,5.1,3.7c0,1.5-0.7,2.6-2.1,3.4l3.7,5.5h-3.9l-2.7-4.6H47.6z
		 M47.6,6.3h0.6c1.2,0,1.8-0.5,1.8-1.6c0-0.9-0.6-1.3-1.7-1.3h-0.7V6.3z"/>
	<path class="st1" d="M65.5,13.4h-7.5V0.8h7.5v2.7h-4.1v2h3.8v2.7h-3.8v2.4h4.1V13.4z"/>
	<path class="st1" d="M79.7,8.8v4.6h-3.4V0.8h4.1c3.4,0,5.1,1.2,5.1,3.7c0,1.5-0.7,2.6-2.1,3.4l3.7,5.5h-3.9l-2.7-4.6H79.7z
		 M79.7,6.3h0.6c1.2,0,1.8-0.5,1.8-1.6c0-0.9-0.6-1.3-1.7-1.3h-0.7V6.3z"/>
	<path class="st1" d="M97.6,13.4h-7.5V0.8h7.5v2.7h-4.1v2h3.8v2.7h-3.8v2.4h4.1V13.4z"/>
	<path class="st1" d="M112.5,6.8c0,2.1-0.6,3.7-1.7,4.8s-2.8,1.7-4.9,1.7h-4.1V0.8h4.3c2,0,3.6,0.5,4.7,1.5S112.5,4.9,112.5,6.8z
		 M109,7c0-1.2-0.2-2-0.7-2.6s-1.1-0.8-2.1-0.8h-1v7h0.8c1,0,1.8-0.3,2.3-0.9C108.7,9.1,109,8.2,109,7z"/>
	<path class="st1" d="M134.1,13.4h-3.4V8.3h-3.9v5.1h-3.4V0.8h3.4v4.7h3.9V0.8h3.4V13.4z"/>
	<path class="st1" d="M146.5,13.4l-0.6-2.4h-4.1l-0.6,2.4h-3.7l4.1-12.6h4.5l4.2,12.6H146.5z M145.2,8.2l-0.5-2.1
		c-0.1-0.5-0.3-1.1-0.5-1.8c-0.2-0.7-0.3-1.2-0.4-1.6c-0.1,0.3-0.2,0.8-0.3,1.4c-0.2,0.7-0.5,2-1,4H145.2z"/>
	<path class="st1" d="M159.1,13.4h-3.4V3.6h-3.1V0.8h9.5v2.8h-3.1V13.4z"/>
	<path class="st1" d="M184.2,7.1c0,2.1-0.5,3.7-1.6,4.8c-1,1.1-2.6,1.7-4.6,1.7c-2,0-3.5-0.6-4.5-1.7c-1.1-1.1-1.6-2.7-1.6-4.8
		c0-2.1,0.5-3.7,1.6-4.8s2.6-1.7,4.6-1.7c2,0,3.5,0.5,4.5,1.6C183.7,3.4,184.2,5,184.2,7.1z M175.6,7.1c0,2.4,0.8,3.6,2.5,3.6
		c0.9,0,1.5-0.3,1.9-0.9c0.4-0.6,0.6-1.5,0.6-2.8c0-1.3-0.2-2.2-0.6-2.8s-1-0.9-1.9-0.9C176.4,3.4,175.6,4.6,175.6,7.1z"/>
	<path class="st1" d="M197.6,4.8c0,1.4-0.4,2.5-1.2,3.3c-0.8,0.8-2,1.1-3.5,1.1h-1v4.2h-3.4V0.8h4.3c1.6,0,2.8,0.3,3.6,1
		C197.2,2.5,197.6,3.5,197.6,4.8z M191.9,6.4h0.6c0.5,0,0.9-0.1,1.2-0.4c0.3-0.3,0.5-0.7,0.5-1.2c0-0.8-0.5-1.3-1.4-1.3h-0.9V6.4z"
		/>
	<path class="st1" d="M209.1,13.4h-7.5V0.8h7.5v2.7H205v2h3.8v2.7H205v2.4h4.1V13.4z"/>
	<path class="st1" d="M225.2,13.4h-4.5l-4.6-8.9h-0.1c0.1,1.4,0.2,2.5,0.2,3.2v5.7h-3V0.8h4.4l4.6,8.7h0.1c-0.1-1.3-0.1-2.3-0.1-3.1
		V0.8h3V13.4z"/>
	<path class="st1" d="M238.1,9.6c0,0.8-0.2,1.5-0.6,2.1c-0.4,0.6-1,1.1-1.7,1.4c-0.7,0.3-1.6,0.5-2.6,0.5c-0.8,0-1.5-0.1-2.1-0.2
		s-1.2-0.3-1.8-0.6v-3c0.6,0.3,1.3,0.6,2,0.8s1.3,0.3,1.9,0.3c0.5,0,0.9-0.1,1.1-0.3c0.2-0.2,0.4-0.4,0.4-0.7c0-0.2,0-0.3-0.1-0.5
		s-0.2-0.3-0.5-0.4c-0.2-0.1-0.8-0.4-1.7-0.8c-0.8-0.4-1.4-0.7-1.8-1.1c-0.4-0.3-0.7-0.8-0.9-1.2c-0.2-0.5-0.3-1-0.3-1.6
		c0-1.2,0.4-2.1,1.3-2.7c0.8-0.6,2-1,3.5-1c1.3,0,2.6,0.3,4,0.9l-1,2.6c-1.2-0.5-2.2-0.8-3-0.8c-0.4,0-0.8,0.1-1,0.2
		c-0.2,0.2-0.3,0.3-0.3,0.6c0,0.2,0.1,0.5,0.4,0.7c0.3,0.2,0.9,0.5,2.1,1.1c1.1,0.5,1.8,1,2.3,1.6C237.9,8,238.1,8.7,238.1,9.6z"/>
	<path class="st1" d="M252.8,13.4h-3.4V8.3h-3.9v5.1h-3.4V0.8h3.4v4.7h3.9V0.8h3.4V13.4z"/>
	<path class="st1" d="M257.5,13.4V0.8h3.4v12.6H257.5z"/>
	<path class="st1" d="M269,13.4h-3.3V0.8h7.4v2.7H269v2.4h3.8v2.7H269V13.4z"/>
	<path class="st1" d="M282.7,13.4h-3.4V3.6h-3.1V0.8h9.5v2.8h-3.1V13.4z"/>
</g>
</svg>
