<?xml version="1.0" encoding="utf-8"?>
<!-- Generator: Adobe Illustrator 23.0.1, SVG Export Plug-In . SVG Version: 6.00 Build 0)  -->
<svg version="1.1" id="Layer_1" xmlns="http://www.w3.org/2000/svg" xmlns:xlink="http://www.w3.org/1999/xlink" x="0px" y="0px"
	 width="166px" height="40px" viewBox="0 0 166 40" style="enable-background:new 0 0 166 40;" xml:space="preserve">
<style type="text/css">
	.st0{fill:#FFFFFF;}
	.st1{fill:#A30000;}
	.st2{fill:#CC0000;}
	.st3{fill:#820000;}
</style>
<g>
	<g>
		<path class="st0" d="M58.2,21.1l-1.7-3.3h-1.1v3.4h-2.7v-10h4.4c0.6,0,1.1,0.1,1.6,0.2c0.5,0.1,0.9,0.3,1.3,0.6
			c0.3,0.2,0.6,0.6,0.8,1c0.2,0.4,0.3,0.9,0.3,1.4c0,0.8-0.2,1.4-0.5,1.8c-0.3,0.5-0.8,0.8-1.3,1l2,3.8L58.2,21.1L58.2,21.1z
			 M58.1,13.7c-0.2-0.2-0.5-0.3-1-0.3h-1.7v2.2h1.7c0.5,0,0.8-0.1,1-0.3c0.2-0.2,0.3-0.5,0.3-0.8C58.3,14.2,58.3,13.9,58.1,13.7z"/>
		<path class="st0" d="M63.3,21.1v-9.9h7.6v2.3H66v1.4h3v2.2h-3v1.7h5v2.3H63.3z"/>
		<path class="st0" d="M81.5,18.4c-0.2,0.6-0.6,1.2-1,1.5c-0.5,0.4-1,0.6-1.7,0.8c-0.6,0.2-1.4,0.2-2.3,0.2h-3.2v-9.8h3.6
			c0.8,0,1.4,0.1,2.2,0.2c0.6,0.2,1.2,0.4,1.6,0.8c0.4,0.3,0.8,0.9,1,1.5c0.2,0.6,0.3,1.4,0.3,2.4S81.7,17.8,81.5,18.4z M78.8,15
			c-0.1-0.3-0.2-0.6-0.4-0.8c-0.2-0.2-0.4-0.3-0.7-0.5c-0.3-0.1-0.6-0.2-1-0.2h-0.7v5.2h0.6c0.4,0,0.8-0.1,1-0.1
			c0.3-0.1,0.6-0.2,0.8-0.4c0.2-0.2,0.3-0.5,0.4-0.8s0.1-0.8,0.1-1.3C79,15.6,78.9,15.3,78.8,15z"/>
		<path class="st0" d="M94.8,21.1v-3.9h-3v3.9H89v-9.9h2.8v3.6h3v-3.6h2.8v9.9H94.8z"/>
		<path class="st0" d="M106.5,21.1l-0.6-1.8h-3l-0.6,1.8h-3l3.6-9.9h2.8l3.6,9.9H106.5z M105.1,16.5c-0.1-0.3-0.2-0.6-0.2-0.8
			c-0.1-0.2-0.1-0.5-0.2-0.6c-0.1-0.2-0.1-0.3-0.1-0.6c-0.1-0.2-0.1-0.3-0.1-0.5c0,0.2-0.1,0.3-0.1,0.5c-0.1,0.2-0.1,0.3-0.1,0.6
			c-0.1,0.2-0.1,0.4-0.2,0.6c-0.1,0.2-0.1,0.6-0.2,0.8l-0.2,0.6h1.7L105.1,16.5z"/>
		<path class="st0" d="M115.1,13.6v7.5h-2.8v-7.5h-2.8v-2.4h8.3v2.4H115.1z"/>
		<path class="st0" d="M121.5,12.9c-0.1,0.2-0.2,0.3-0.3,0.4c-0.1,0.1-0.2,0.2-0.4,0.3c-0.2,0.1-0.3,0.1-0.6,0.1
			c-0.2,0-0.3-0.1-0.6-0.1c-0.2-0.1-0.3-0.2-0.4-0.3c-0.1-0.1-0.2-0.2-0.3-0.4c-0.1-0.2-0.1-0.3-0.1-0.6c0-0.2,0.1-0.3,0.1-0.6
			c0.1-0.2,0.2-0.3,0.3-0.4c0.1-0.1,0.2-0.2,0.4-0.3c0.2-0.1,0.3-0.1,0.6-0.1c0.2,0,0.3,0.1,0.6,0.1c0.2,0.1,0.3,0.2,0.4,0.3
			c0.1,0.1,0.2,0.2,0.3,0.4c0.1,0.2,0.1,0.3,0.1,0.6C121.6,12.6,121.6,12.7,121.5,12.9z M121.4,12c-0.1-0.1-0.1-0.2-0.2-0.3
			c-0.1-0.1-0.2-0.2-0.3-0.2c-0.1-0.1-0.3-0.1-0.4-0.1c-0.2,0-0.3,0-0.4,0.1c-0.1,0.1-0.2,0.1-0.3,0.2c-0.1,0.1-0.2,0.2-0.2,0.3
			s-0.1,0.3-0.1,0.4c0,0.2,0,0.3,0.1,0.4c0.1,0.1,0.1,0.2,0.2,0.3c0.1,0.1,0.2,0.2,0.3,0.2c0.1,0.1,0.3,0.1,0.4,0.1
			c0.2,0,0.3,0,0.4-0.1c0.1-0.1,0.2-0.1,0.3-0.2c0.1-0.1,0.2-0.2,0.2-0.3c0.1-0.1,0.1-0.3,0.1-0.4C121.5,12.3,121.5,12.1,121.4,12z
			 M120.9,12.3c-0.1,0.1-0.1,0.1-0.2,0.1L121,13h-0.3l-0.3-0.6H120V13h-0.2v-1.4h0.6c0.1,0,0.1,0,0.2,0c0.1,0,0.1,0.1,0.1,0.1
			l0.1,0.1c0,0.1,0.1,0.1,0.1,0.2C121,12.2,121,12.3,120.9,12.3z M120.7,11.9c-0.1-0.1-0.1-0.1-0.2-0.1h-0.3v0.4h0.3
			c0.1,0,0.1,0,0.2-0.1C120.7,12.1,120.7,12.1,120.7,11.9C120.7,12,120.7,12,120.7,11.9z"/>
		<path class="st0" d="M64,34.4c-0.3,1-0.7,1.8-1.3,2.4c-0.6,0.7-1.2,1.3-1.9,1.6c-0.7,0.3-1.6,0.6-2.6,0.6c-1,0-1.8-0.2-2.6-0.6
			s-1.4-0.9-1.9-1.6c-0.6-0.7-1-1.4-1.3-2.4c-0.3-1-0.4-1.9-0.4-3s0.2-2.2,0.5-3c0.3-1,0.7-1.8,1.3-2.4c0.6-0.7,1.2-1.3,1.9-1.6
			c0.8-0.3,1.6-0.6,2.6-0.6c1,0,1.8,0.2,2.6,0.6c0.8,0.3,1.4,0.9,1.9,1.6c0.6,0.7,1,1.4,1.3,2.4c0.3,1,0.5,1.9,0.5,3
			C64.4,32.5,64.3,33.5,64,34.4z M62.4,28.9c-0.2-0.8-0.6-1.4-1-1.9c-0.4-0.6-0.9-1-1.4-1.3c-0.6-0.3-1.2-0.4-1.8-0.4
			s-1.3,0.1-1.8,0.4c-0.6,0.3-1,0.7-1.4,1.3c-0.4,0.6-0.7,1.2-1,1.9c-0.2,0.7-0.3,1.5-0.3,2.5c0,1,0.1,1.8,0.3,2.6s0.6,1.4,1,1.9
			c0.4,0.6,0.9,1,1.4,1.3c0.6,0.3,1.2,0.4,1.8,0.4c0.6,0,1.3-0.1,1.8-0.4c0.6-0.3,1-0.7,1.4-1.3c0.4-0.6,0.7-1.2,1-1.9
			c0.2-0.8,0.3-1.6,0.3-2.6S62.7,29.6,62.4,28.9z"/>
		<path class="st0" d="M77.7,30.3c-0.2,0.6-0.6,1-1,1.4c-0.4,0.4-1,0.7-1.6,0.9C74.4,32.8,73.8,33,73,33h-3.6v5.8h-1.7V23.9h5.5
			c0.7,0,1.3,0.1,1.9,0.3c0.6,0.2,1,0.5,1.4,0.8c0.4,0.3,0.8,0.8,1,1.4c0.2,0.6,0.3,1.3,0.3,1.9C77.9,29.1,77.9,29.8,77.7,30.3z
			 M75.6,26.3c-0.6-0.6-1.3-0.8-2.4-0.8h-3.8v6h3.7c2.2,0,3.4-1,3.4-3C76.3,27.5,76.1,26.7,75.6,26.3z"/>
		<path class="st0" d="M80.9,38.8V23.9h9v1.5h-7.4v4.6h4.2v1.5h-4.2v5.7h7.7v1.5H80.9L80.9,38.8z"/>
		<path class="st0" d="M102.5,38.8L96,28.7c-0.1-0.1-0.2-0.3-0.3-0.5c-0.1-0.2-0.2-0.3-0.3-0.6c-0.1-0.2-0.2-0.3-0.3-0.5
			c-0.1-0.2-0.2-0.3-0.2-0.3v1v11h-1.6v-15h1.6l6.4,10.4c0.1,0.1,0.2,0.3,0.3,0.5c0.1,0.2,0.2,0.3,0.3,0.6c0.2,0.2,0.2,0.3,0.3,0.5
			c0.1,0.2,0.2,0.3,0.2,0.3v-1V23.9h1.6v14.9H102.5z"/>
		<path class="st0" d="M116.7,36.6c-0.2,0.6-0.6,1-1,1.3c-0.4,0.3-1,0.6-1.5,0.9c-0.6,0.2-1.3,0.3-2.1,0.3c-1,0-1.9-0.2-2.8-0.6
			c-0.9-0.4-1.6-0.9-2.2-1.4l1.1-1.3c0.6,0.6,1.2,1,1.8,1.3c0.6,0.3,1.4,0.5,2.2,0.5c1,0,1.8-0.2,2.4-0.7c0.6-0.5,0.9-1,0.9-1.9
			c0-0.3-0.1-0.6-0.2-1s-0.3-0.6-0.6-0.8c-0.3-0.2-0.6-0.5-1.1-0.7c-0.5-0.2-1-0.5-1.7-0.7c-0.8-0.3-1.4-0.6-2-0.9
			c-0.6-0.3-1-0.6-1.3-1c-0.3-0.3-0.6-0.7-0.7-1.1c-0.2-0.4-0.2-0.9-0.2-1.4c0-0.6,0.1-1.1,0.3-1.6c0.2-0.5,0.6-0.9,1-1.2
			s0.9-0.6,1.4-0.8c0.6-0.2,1.2-0.2,1.9-0.2c1,0,1.8,0.1,2.6,0.4s1.4,0.6,2,1.2l-1,1.3c-0.6-0.5-1-0.8-1.7-1
			c-0.6-0.2-1.2-0.3-1.9-0.3c-0.6,0-1,0.1-1.3,0.2c-0.3,0.1-0.6,0.3-0.9,0.5c-0.2,0.2-0.4,0.4-0.6,0.7c-0.1,0.2-0.2,0.6-0.2,0.8
			c0,0.2,0.1,0.6,0.1,0.8c0.1,0.2,0.2,0.5,0.6,0.7c0.3,0.2,0.6,0.5,1,0.7c0.5,0.2,1,0.5,1.8,0.8c0.8,0.3,1.5,0.6,2.1,0.9
			c0.6,0.3,1,0.6,1.3,1c0.3,0.3,0.6,0.8,0.7,1.2c0.2,0.4,0.2,0.9,0.2,1.4C117.1,35.5,117,36,116.7,36.6z"/>
		<path class="st0" d="M129.6,38.8v-7h-7.4v7h-1.7V23.9h1.7v6.4h7.4v-6.4h1.7v14.9H129.6z"/>
		<path class="st0" d="M135.3,38.8V23.9h1.7v14.9C137,38.8,135.3,38.8,135.3,38.8z"/>
		<path class="st0" d="M142.7,25.5v5h4.1v1.5h-4.1v6.9H141V23.9h8.7v1.5H142.7z"/>
		<path class="st0" d="M157.8,25.5v13.4h-1.7V25.5h-4.4v-1.5h10.4v1.5H157.8z"/>
		<path class="st0" d="M165.9,25.7c-0.1,0.2-0.2,0.3-0.3,0.4c-0.1,0.1-0.2,0.2-0.4,0.3c-0.2,0.1-0.3,0.1-0.6,0.1
			c-0.2,0-0.3-0.1-0.6-0.1c-0.2-0.1-0.3-0.2-0.4-0.3c-0.1-0.1-0.2-0.2-0.3-0.4c-0.1-0.2-0.1-0.3-0.1-0.6c0-0.2,0.1-0.3,0.1-0.6
			c0.1-0.2,0.2-0.3,0.3-0.4c0.2-0.1,0.2-0.2,0.4-0.3c0.2-0.1,0.3-0.1,0.6-0.1c0.2,0,0.3,0.1,0.6,0.1c0.2,0.1,0.3,0.2,0.4,0.3
			c0.1,0.2,0.2,0.2,0.3,0.4c0.1,0.2,0.1,0.3,0.1,0.6C166,25.4,165.9,25.5,165.9,25.7z M165.7,24.7c-0.1-0.1-0.1-0.2-0.2-0.3
			c-0.1-0.1-0.2-0.2-0.3-0.2c-0.1-0.1-0.3-0.1-0.4-0.1c-0.2,0-0.3,0-0.4,0.1c-0.1,0.1-0.2,0.1-0.3,0.2c-0.1,0.2-0.2,0.2-0.2,0.3
			c-0.1,0.1-0.1,0.3-0.1,0.4c0,0.2,0,0.3,0.1,0.4c0.1,0.1,0.1,0.2,0.2,0.3c0.1,0.1,0.2,0.2,0.3,0.2c0.1,0.1,0.3,0.1,0.4,0.1
			c0.2,0,0.3,0,0.4-0.1c0.1-0.1,0.2-0.1,0.3-0.2c0.1-0.1,0.2-0.2,0.2-0.3c0.1-0.1,0.1-0.3,0.1-0.4C165.7,25.1,165.7,24.9,165.7,24.7
			z M165.2,25.1c-0.1,0.1-0.1,0.1-0.2,0.1l0.3,0.6h-0.3l-0.3-0.6h-0.3v0.6h-0.1v-1.4h0.6c0.1,0,0.1,0,0.2,0c0.1,0,0.1,0.1,0.1,0.1
			l0.1,0.1c0,0.1,0.1,0.1,0.1,0.2C165.2,25,165.2,25.1,165.2,25.1z M165,24.7c-0.1-0.1-0.1-0.1-0.2-0.1h-0.3v0.4h0.3
			c0.1,0,0.1,0,0.2-0.1S165.1,24.9,165,24.7C165,24.8,165,24.7,165,24.7z"/>
	</g>
	<g>
		<path class="st1" d="M12.6,17.9l-7,2.6c0.1,1.1,0.3,2.2,0.6,3.3l6.6-2.4C12.6,20.3,12.5,19.1,12.6,17.9"/>
		<path class="st1" d="M43.5,10.2c-0.5-1-1-1.9-1.7-2.9l-7,2.6c0.8,0.8,1.4,1.8,2.1,2.8L43.5,10.2z"/>
		<path class="st2" d="M28.1,8.3c1.4,0.6,2.7,1.6,3.8,2.6l7-2.6c-1.9-2.7-4.6-5-7.8-6.5C21.1-2.8,9.2,1.6,4.6,11.5
			c-1.5,3.3-2.1,6.7-1.8,10l7-2.6c0.1-1.5,0.5-3,1.2-4.5C13.8,8,21.6,5.2,28.1,8.3"/>
		<path class="st2" d="M6.6,23.6L0,26c0.6,2.4,1.7,4.7,3.1,6.7l7-2.6C8.2,28.5,7.1,26.1,6.6,23.6"/>
		<path class="st2" d="M35.5,21.1c-0.1,1.5-0.5,3-1.2,4.5c-3,6.5-10.7,9.3-17.3,6.2c-1.4-0.6-2.7-1.6-3.8-2.6l-6.9,2.5
			c1.9,2.7,4.6,5,7.8,6.5c10,4.7,21.8,0.3,26.6-9.6c1.5-3.3,2.1-6.6,1.8-10L35.5,21.1z"/>
		<path class="st2" d="M37.3,12.5l-6.6,2.4c1.3,2.2,1.8,4.7,1.6,7.4l7-2.6C39,17.2,38.4,14.7,37.3,12.5"/>
		<path class="st3" d="M12.6,19.4c0-0.5,0-1,0-1.4l-6.9,2.6c0.1,0.5,0.1,0.9,0.2,1.4L12.6,19.4z"/>
		<path class="st3" d="M42.5,8.4c-0.2-0.3-0.5-0.7-0.7-1l-7,2.6c0.3,0.3,0.6,0.6,0.9,1L42.5,8.4z"/>
		<path class="st1" d="M6.4,31.6c0.6,0.8,1.1,1.4,1.8,2.2l7.5-2.8c-0.9-0.6-1.7-1.2-2.4-1.9L6.4,31.6z M42.5,18.5l-7,2.6
			c-0.1,1-0.3,2-0.6,3l7.5-2.8C42.6,20.3,42.6,19.5,42.5,18.5"/>
	</g>
	<g>
		<path class="st0" d="M58.3,8.5l-0.6-1.8h-3l-0.6,1.8H53l2.6-7.4h1.2l2.7,7.4H58.3z M56.7,4c-0.2-0.6-0.5-1.4-0.6-1.7
			c-0.1,0.3-0.3,1.2-0.6,1.7l-0.6,1.7h2.3L56.7,4z"/>
		<path class="st0" d="M60.7,8.5V7.6l2.4-3c0.2-0.3,0.6-0.6,0.6-0.8c-0.2,0-0.7,0-1,0h-1.8v-1h4.1v0.9l-2.4,3
			c-0.2,0.3-0.6,0.6-0.6,0.8c0.2,0,0.8,0,1,0h2v1C64.9,8.5,60.7,8.5,60.7,8.5z"/>
		<path class="st0" d="M69.7,8.5V7.9c-0.3,0.4-0.8,0.6-1.4,0.6c-1.3,0-2-0.8-2-2.5V2.9h1.1V6c0,1.1,0.4,1.5,1.1,1.5
			c0.7,0,1.1-0.6,1.1-1.4V2.9h1.1v5.6H69.7z"/>
		<path class="st0" d="M75.5,4.1C75.2,4,75,3.9,74.7,3.9c-0.7,0-1.1,0.5-1.1,1.4v3.2h-1.1V3h1.1v0.6c0.2-0.3,0.7-0.6,1.3-0.6
			c0.5,0,0.7,0.1,1,0.2L75.5,4.1z"/>
		<path class="st0" d="M81.1,6.1h-3.8c0.1,1,0.7,1.5,1.4,1.5c0.5,0,0.8-0.2,1.3-0.5l0.6,0.7c-0.5,0.5-1,0.7-1.9,0.7
			c-1.3,0-2.4-1-2.4-2.9c0-1.9,1-2.9,2.4-2.9c1.6,0,2.4,1.3,2.4,2.8C81.1,5.8,81.1,5.9,81.1,6.1z M78.7,3.8c-0.7,0-1.2,0.6-1.3,1.4
			h2.6C79.9,4.4,79.5,3.8,78.7,3.8z"/>
	</g>
</g>
</svg>
