<?xml version="1.0" encoding="utf-8"?>
<!-- Generator: Adobe Illustrator 17.0.0, SVG Export Plug-In . SVG Version: 6.00 Build 0)  -->
<!DOCTYPE svg PUBLIC "-//W3C//DTD SVG 1.1//EN" "http://www.w3.org/Graphics/SVG/1.1/DTD/svg11.dtd">
<svg version="1.1" id="Layer_1" xmlns="http://www.w3.org/2000/svg" xmlns:xlink="http://www.w3.org/1999/xlink" x="0px" y="0px"
	 width="10.704px" height="42.28px" viewBox="0 0 10.704 42.28" enable-background="new 0 0 10.704 42.28" xml:space="preserve">
<g>
	<path fill="none" stroke="#DEDDDD" stroke-linecap="round" stroke-linejoin="round" d="M10.204,41.78H9.572
		c-0.896,0-1.672-0.096-2.328-0.288c-0.656-0.192-1.208-0.521-1.656-0.984c-0.449-0.464-0.785-1.088-1.008-1.872
		c-0.224-0.784-0.336-1.784-0.336-3c0-1.792,0.064-3.463,0.192-5.016c0.127-1.552,0.192-3.16,0.192-4.824
		c0-0.48-0.056-0.96-0.168-1.44c-0.113-0.48-0.32-0.896-0.624-1.248c-0.305-0.352-0.729-0.64-1.272-0.864
		C2.02,22.021,0.5,21.289,0.5,21.289s1.596-0.997,2.064-1.254c0.515-0.283,0.967-0.511,1.272-0.864
		c0.304-0.352,0.511-0.751,0.624-1.2c0.112-0.448,0.168-0.912,0.168-1.392c0-1.728-0.064-3.368-0.192-4.92
		c-0.128-1.552-0.192-3.223-0.192-5.016c0-1.216,0.112-2.216,0.336-3c0.224-0.784,0.56-1.408,1.008-1.872
		c0.448-0.463,1-0.792,1.656-0.984C7.899,0.596,9.572,0.5,9.572,0.5h0.632"/>
</g>
</svg>
