<?xml version="1.0" encoding="UTF-8"?>
<svg width="180px" height="26px" viewBox="0 0 180 26" version="1.1" xmlns="http://www.w3.org/2000/svg" xmlns:xlink="http://www.w3.org/1999/xlink">
    <!-- Generator: Sketch 63.1 (92452) - https://sketch.com -->
    <title>logo_symbol_text@1x</title>
    <desc>Created with Sketch.</desc>
    <defs>
        <polygon id="path-1" points="0.24083234 0.0929085089 16.5052453 0.0929085089 16.5052453 20.1181845 0.24083234 20.1181845"></polygon>
    </defs>
    <g id="Symbols" stroke="none" stroke-width="1" fill="none" fill-rule="evenodd">
        <g id="LNB" transform="translate(-56.000000, -25.000000)">
            <g id="logo_symbol_text" transform="translate(56.000000, 25.000000)">
                <g transform="translate(40.000000, 0.000000)" id="logo">
                    <g>
                        <g id="Group-21">
                            <polygon id="Fill-1" fill="#FEFEFE" points="13.6505109 1.42767212 12.5176405 8.24813702 7.74317376 8.24813702 8.87731634 1.42767212 3.52528289 1.42767212 0.440262416 19.9874097 5.79165978 19.9874097 7.0339371 12.5185361 11.8071317 12.5185361 10.5680348 19.9874097 15.9200682 19.9874097 19 1.42767212"></polygon>
                            <path d="M22.4669916,18.9988017 L20.4059419,4.88988684 L25.2935926,4.88988684 L25.7951384,9.73760244 C25.8409682,10.1942379 25.8635603,10.627152 25.8635603,11.042934 C25.8635603,11.4613518 25.8429046,11.8626375 25.8028842,12.2553571 C25.9732936,11.7809307 26.1417665,11.3387916 26.305721,10.9263042 C26.4696755,10.5164525 26.6245931,10.1560202 26.7672464,9.84830194 L29.0174247,4.88988684 L33.638488,4.88988684 L23.6417835,25.6948036 L19.3667029,25.6948036 L22.4669916,18.9988017 Z" id="Fill-2" fill="#FEFEFE"></path>
                            <path d="M72.8946112,5.40457362 C72.6299603,5.16933718 72.3349713,4.96836488 71.9702695,4.86425463 C71.608795,4.73049274 71.2440931,4.66460018 70.8813277,4.66460018 C70.2887679,4.66460018 69.726546,4.83130835 69.1669061,5.16933718 C68.6046843,5.50275353 68.0443989,6.01144409 67.4847591,6.65060192 L67.7158445,4.86425463 L63.1644941,4.86425463 L60.6212633,19.6834913 L65.2410356,19.6834913 L66.4952228,12.3773243 C66.6591773,11.3296326 66.9580392,10.5896591 67.3840626,10.0829453 C67.812668,9.58084404 68.3761808,9.3429719 69.0668552,9.3429719 C69.3631351,9.3429719 69.661997,9.40952338 69.9595679,9.51363363 C70.2203459,9.61313139 70.4856423,9.74887007 70.7160823,9.91491932 L72.8946112,5.40457362 Z" id="Fill-4" fill="#FEFEFE"></path>
                            <path d="M31.2807065,25.6980982 L34.8702767,4.90372428 L39.263482,4.90372428 L39.1995785,6.05420836 C39.683696,5.57451053 40.16975,5.22462104 40.6493492,4.99729171 C41.1308847,4.77457486 41.6298485,4.66255751 42.1404312,4.66255751 C43.5818105,4.66255751 44.6255679,5.34322765 45.2736399,6.70325007 C45.9217119,8.0632725 46.0488735,9.87400004 45.6589975,12.1295023 C45.2736399,14.3757797 44.4816236,16.1983679 43.2881125,17.5939723 C42.0926649,18.9895767 40.7636009,19.6873789 39.3080208,19.6873789 C38.8045386,19.6873789 38.3707693,19.5905169 38.0028399,19.3961338 C37.6374926,19.2050454 37.3186205,18.9045753 37.0488056,18.5006539 L35.8017188,25.6980982 L31.2807065,25.6980982 Z M37.6458839,15.0188911 C37.7911192,15.1987778 37.9499097,15.329904 38.1164462,15.4149054 C38.287501,15.5045192 38.4656563,15.5447137 38.6599488,15.5447137 C39.2273346,15.5447137 39.7146796,15.2455615 40.1219838,14.647257 C40.53187,14.0509294 40.8281499,13.1995975 41.0211514,12.0939204 C41.211571,11.0047164 41.2051161,10.1448185 41.0037232,9.51159096 C40.8016848,8.87704561 40.4408559,8.5601024 39.915427,8.5601024 C39.7237164,8.5601024 39.5236145,8.61545215 39.3151212,8.72878735 C39.1111464,8.84212256 38.8852248,9.01410214 38.6431661,9.24867965 L37.6458839,15.0188911 Z" id="Fill-6" fill="#FEFEFE"></path>
                            <path d="M51.4812532,13.3914766 C51.463825,13.4889976 51.4399419,13.6293488 51.4231591,13.8065998 C51.4044399,13.9838508 51.3941121,14.140675 51.3941121,14.2810262 C51.3941121,15.0130925 51.6322979,15.5250777 52.1054421,15.8215942 C52.5805228,16.1148161 53.1453266,16.2630744 53.8011445,16.2630744 C54.805527,16.2630744 55.7653707,16.1319482 56.6729297,15.8650833 C57.5817797,15.5975595 58.4151074,15.2279023 59.1677488,14.7541348 L58.6752399,18.3676827 C58.4041341,18.5647015 58.0762251,18.7597435 57.6863491,18.9600568 C57.3022825,19.1550988 56.8646403,19.3356444 56.3818137,19.4918098 C55.8989872,19.6486341 55.3884045,19.7764657 54.8461929,19.8759634 C54.3052722,19.976779 53.7430504,20.0242217 53.1627548,20.0242217 C52.1971017,20.0242217 51.3185897,19.8673974 50.5259279,19.5537488 C49.7339116,19.2361467 49.0477557,18.7801702 48.4771425,18.1897728 C47.9097567,17.5967398 47.4656596,16.8699449 47.1454965,16.0133416 C46.8227515,15.1560794 46.6652519,14.1907534 46.6652519,13.1272475 C46.6652519,12.0195936 46.8304974,10.9587234 47.1596973,9.94134223 C47.4876062,8.92396111 47.9626869,8.0225509 48.5791299,7.23184019 C49.1994459,6.4417884 49.9443414,5.81646801 50.814462,5.35258439 C51.6852281,4.88870077 52.6702459,4.65741789 53.7720974,4.65741789 C54.8765309,4.65741789 55.811846,4.81819573 56.5870796,5.14568175 C57.3584402,5.471191 57.9903749,5.93639247 58.4732015,6.53733261 C58.9560281,7.1395906 59.3013652,7.87692834 59.5169589,8.75857079 C59.7273887,9.63625968 59.83454,10.6305784 59.83454,11.7342788 C59.83454,12.0683541 59.8248577,12.3595992 59.805493,12.6066963 C59.7880647,12.8537934 59.7603087,13.1147279 59.7202883,13.3914766 L51.4812532,13.3914766 Z M55.1915301,10.5778644 C55.2141222,10.4790255 55.2218681,10.368326 55.2218681,10.2371998 L55.2218681,9.89719422 C55.2218681,9.70215224 55.2063763,9.4873425 55.1792657,9.26001317 C55.1502187,9.03400169 55.0817967,8.82182765 54.9759364,8.62480889 C54.867494,8.42647229 54.7312956,8.26437659 54.5550769,8.1358861 C54.3807945,8.00805454 54.1529366,7.94347983 53.8592386,7.94347983 C53.7617696,7.94347983 53.6216982,7.96456545 53.4377336,8.00212421 C53.2550599,8.04297759 53.0633493,8.15038247 52.8567925,8.33026915 C52.6560451,8.50817906 52.4585252,8.77240823 52.2629417,9.13020483 C52.0699401,9.48141217 51.9259959,9.96704033 51.8304633,10.5778644 L55.1915301,10.5778644 Z" id="Fill-8" fill="#FEFEFE"></path>
                            <path d="M118.34873,18.341787 C117.641273,18.9559056 116.944144,19.4132 116.259924,19.714329 C115.57635,20.0115044 114.892776,20.1637162 114.204684,20.1637162 C112.905958,20.1637162 112.0126,19.7215772 111.5259,18.8346633 C111.041782,17.9477495 110.957223,16.5936574 111.270931,14.7737049 L112.993099,4.8140445 L117.663219,4.8140445 L116.061759,14.0897401 C115.930724,14.8330082 115.93847,15.3581719 116.088224,15.6744562 C116.23475,15.9900815 116.534257,16.1475647 116.990619,16.1475647 C117.201694,16.1475647 117.436007,16.1040756 117.698076,16.0157796 C117.956917,15.9294604 118.251906,15.8022877 118.566906,15.6408509 L120.441409,4.8140445 L125.111529,4.8140445 L123.51265,14.0614063 C123.397753,14.7315336 123.410663,15.1677424 123.552025,15.3667379 C123.692742,15.5683691 124.016778,15.6856579 124.529943,15.7232166 L122.877488,19.9080531 C122.524405,19.9989848 122.197787,20.0648774 121.901507,20.1044129 C121.601354,20.1426306 121.325085,20.1637162 121.06947,20.1637162 C120.303919,20.1637162 119.700386,20.0161169 119.253707,19.7196004 C118.806382,19.4224249 118.506229,18.9624949 118.34873,18.341787" id="Fill-10" fill="#FEFEFE"></path>
                            <path d="M101.971937,12.3632233 C102.171394,11.2338248 102.470901,10.3133057 102.907252,9.66162832 C103.343604,9.01390446 103.812875,8.67060422 104.349923,8.67060422 C104.881806,8.67060422 105.251027,9.01390446 105.453065,9.66162832 C105.651876,10.3133057 105.651876,11.2338248 105.453065,12.3632233 C105.251027,13.5229323 104.948292,14.446746 104.512586,15.0951288 C104.078817,15.7454883 103.610836,16.0874707 103.043451,16.0874707 C102.539323,16.0874707 102.171394,15.7454883 101.971937,15.0951288 C101.769253,14.446746 101.769253,13.5229323 101.971937,12.3632233 M109.402819,6.69053281 C108.499778,5.28899807 107.027415,4.57340488 105.016714,4.60635115 C103.043451,4.57340488 101.334193,5.28899807 99.9283157,6.69053281 C98.5224383,8.05714449 97.6187522,9.93442351 97.2166119,12.3632233 C96.7815516,14.7544642 97.0487845,16.6330611 97.9511796,18.033278 C98.8910131,19.4361306 100.363376,20.1187775 102.338576,20.1187775 C104.349923,20.1187775 106.055307,19.4361306 107.462476,18.033278 C108.832851,16.6330611 109.74041,14.7544642 110.17547,12.3632233 C110.607949,9.93442351 110.342007,8.05714449 109.402819,6.69053281" id="Fill-12" fill="#FEFEFE"></path>
                            <path d="M132.504133,15.8483466 L133.707972,8.89206912 C133.473659,8.78927672 133.278076,8.72074846 133.12574,8.68253078 C132.969532,8.64628987 132.833333,8.62849888 132.715854,8.62849888 C132.087792,8.62849888 131.559781,8.93885283 131.129885,9.55494826 C130.697407,10.1743383 130.381116,11.0737718 130.180369,12.2512718 C129.968648,13.4617181 129.981558,14.3618105 130.210707,14.9561614 C130.440501,15.552489 130.885244,15.8483466 131.549453,15.8483466 L132.504133,15.8483466 Z M136.439041,19.7722485 L131.894145,19.7722485 C130.383698,19.7722485 129.270228,19.661549 128.553089,19.4414679 C127.833367,19.2213867 127.221443,18.855683 126.717315,18.3384264 C126.058269,17.6676402 125.629664,16.7958816 125.426335,15.7251275 C125.22236,14.6556913 125.253989,13.3694685 125.513476,11.8717307 C125.885278,9.71309041 126.679876,7.95903047 127.901144,6.60955086 C129.116601,5.25677661 130.503114,4.58269573 132.049063,4.58269573 C132.504133,4.58269573 132.927575,4.64002225 133.308414,4.75335746 C133.690544,4.86735158 134.030717,5.03471868 134.336034,5.25479983 L135.157743,0.491426709 L139.767187,0.491426709 L136.439041,19.7722485 Z" id="Fill-14" fill="#FEFEFE"></path>
                            <polygon id="Fill-16" fill="#FEFEFE" points="94.6093485 19.7722485 89.2588814 19.7722485 92.4004815 0.500651667 97.7509486 0.500651667"></polygon>
                            <g id="Group-20" transform="translate(73.221165, 0.000000)">
                                <mask id="mask-2" fill="white">
                                    <use xlink:href="#path-1"></use>
                                </mask>
                                <g id="Clip-19"></g>
                                <path d="M14.8159978,18.0168708 C14.0265634,18.6323073 13.0538099,19.1350675 11.8983827,19.5277871 C10.74231,19.9205068 9.48812287,20.1181845 8.13388473,20.1181845 C6.95134695,20.1181845 5.87015111,19.9534531 4.89158819,19.6279438 C3.91431624,19.3024346 3.08227956,18.7838601 2.39676912,18.0735384 C1.71190418,17.3651933 1.18002037,16.4446743 0.805636138,15.3126401 C0.428669946,14.1806059 0.24083234,12.8179478 0.24083234,11.2253246 C0.24083234,9.97995527 0.433833866,8.70032177 0.817900449,7.38708306 C1.20519448,6.0725265 1.7816171,4.87591762 2.55297772,3.79198501 C3.32304735,2.70805241 4.2738542,1.81916178 5.40087984,1.12926668 C6.5266145,0.438053735 7.84147774,0.0927767237 9.34676055,0.0927767237 C10.1174757,0.0927767237 10.9153014,0.226538619 11.7421741,0.494062411 C12.5684014,0.760927277 13.3307252,1.18856999 14.0265634,1.78028517 C14.7191743,2.3706825 15.2988243,3.12976479 15.7603497,4.05555525 C16.2192932,4.98134571 16.4678068,6.11601558 16.5052453,7.4602238 L11.3755358,8.23577922 C11.395546,7.81472577 11.3819907,7.37258669 11.3348699,6.91133878 C11.2871037,6.45074979 11.1825343,6.03892129 11.0237437,5.67453544 C10.8662441,5.31080851 10.6506505,5.00967951 10.3795446,4.76983059 C10.1097298,4.52998168 9.75019183,4.41071615 9.30028526,4.41071615 C8.85166967,4.41071615 8.47470348,4.52602812 8.16551375,4.75665208 C7.85955146,4.98595819 7.59941897,5.28115686 7.39544411,5.6349999 C7.18888729,5.99147865 7.0262238,6.3815626 6.90228971,6.80327498 C6.78158307,7.22498736 6.68282309,7.6302266 6.60859173,8.01306237 C6.47884823,8.60939004 6.36911492,9.27819951 6.28584671,10.018173 C6.20257849,10.7607821 6.15223026,11.4454058 6.13222007,12.0806101 C6.09542714,13.1770623 6.32909454,14.0283941 6.83580423,14.6346057 C7.33993197,15.2401583 8.20359766,15.5419462 9.42034641,15.5419462 C10.6015932,15.5419462 11.7105451,15.3376793 12.7510751,14.9245329 C13.7896686,14.5127044 14.7417664,13.9697497 15.6028502,13.2976456 L14.8159978,18.0168708 Z" id="Fill-18" fill="#FEFEFE" mask="url(#mask-2)"></path>
                            </g>
                        </g>
                    </g>
                </g>
                <g>
                    <path d="M28.2108108,6.98378378 C27.3802727,6.6812714 26.5033741,6.52579291 25.6194595,6.52424908 C21.6073533,6.50677096 18.249087,9.56238802 17.8887683,13.5583202 C17.5284496,17.5542524 20.2859312,21.1613349 24.2364598,21.8617832 C28.1869883,22.5622315 32.0165015,20.1230559 33.0519558,16.2468286 C34.08741,12.3706013 31.9843828,8.3466698 28.2108108,6.98378378 Z" id="Path" fill="#28384F" fill-rule="nonzero"></path>
                    <path d="M26.9151351,9.24432432 C26.1524324,4.00648649 21.9897297,0 16.9540541,0 C12.092973,0 8.03135135,3.73081081 7.07567568,8.70216216 L6.66216216,8.70216216 C3.00153456,8.68689566 0.0202488277,11.6393966 0,15.3 L0,15.5297297 C0.114358176,19.1233401 3.06675192,21.9739272 6.66216216,21.9621984 L17.9005405,21.9621984 C19.0678792,21.8381916 20.2020545,21.4985622 21.2454054,20.9605405 C24.8766439,18.9777462 27.1095015,15.1454406 27.0437838,11.0086486 C27.0405529,10.4183195 26.9975728,9.82887796 26.9151351,9.24432432 Z" id="Path" fill="#FFFFFF" fill-rule="nonzero"></path>
                    <path d="M27.0437838,10.9627027 C27.0385178,10.3877132 26.9955427,9.81368824 26.9151351,9.24432432 C26.7767156,8.321083 26.5299687,7.41737235 26.18,6.55189176 L25.6194595,6.55189176 C22.1904962,6.55126107 19.1752712,8.82057332 18.2267897,12.1157474 C17.2783081,15.4109215 18.6256884,18.9359642 21.5302703,20.7583784 L21.5302703,20.7583784 C24.9990828,18.7253214 27.1054984,14.9829231 27.0437838,10.9627027 Z" id="Path" fill="#14566E" fill-rule="nonzero"></path>
                    <polygon id="Combined-Shape-Copy" fill="#FFFFFF" points="22.3572973 13.0486486 23.12 10.9627027 30.0118919 10.9627027 29.2491892 13.0486486 27.2275676 13.0486486 25.5551351 18.6172973 23.0464865 18.6172973 24.7189189 13.0486486"></polygon>
                </g>
            </g>
        </g>
    </g>
</svg>