<svg width="16" height="16" viewBox="0 0 16 16" xmlns="http://www.w3.org/2000/svg"><title>mask-icon</title><g fill-rule="nonzero" fill="#000"><path d="M4.703 7.247l-2.54.925c.032.407.102.81.2 1.204l2.414-.879a4.721 4.721 0 0 1-.074-1.25M15.931 4.438a7.253 7.253 0 0 0-.62-1.052l-2.54.925c.296.302.544.642.747 1.005l2.413-.878z"/><path d="M10.342 3.718c.529.247.986.583 1.372.978l2.54-.925a7.224 7.224 0 0 0-2.836-2.36C7.787-.282 3.454 1.294 1.761 4.925a7.22 7.22 0 0 0-.656 3.632l2.54-.925c.043-.55.177-1.102.423-1.63a4.726 4.726 0 0 1 6.274-2.284M2.522 9.318l-2.414.88c.222.88.606 1.715 1.135 2.46l2.535-.923a4.746 4.746 0 0 1-1.256-2.417M13.051 8.36a4.66 4.66 0 0 1-.426 1.631 4.726 4.726 0 0 1-6.274 2.284c-.529-.247-.99-.58-1.375-.976l-2.535.923a7.204 7.204 0 0 0 2.835 2.36c3.631 1.694 7.963.117 9.656-3.514a7.193 7.193 0 0 0 .654-3.63l-2.535.922z"/><path d="M13.676 5.259l-2.414.878a4.74 4.74 0 0 1 .591 2.659l2.535-.922a7.321 7.321 0 0 0-.712-2.615"/></g></svg>