<svg enable-background="new 0 0 71 44.1" height="44.1" viewBox="0 0 71 44.1" width="71" xmlns="http://www.w3.org/2000/svg"><g fill="#fff"><path d="m30.3 19v-18.9h-4.3v33.3h4.3v-9.4z"/><path d="m45 31.8c0-1.6-.4-3.4-1.2-5-1.1-1.6-1.6-2.6-2.4-3.4-.7-.7-1.2-1.1-1.6-1.2l-1.2-.7c3.6-2 5.8-4.9 6.6-8.4l.4-2h-4.6l-.2 1.5c-.4 2-1.5 3.8-3.4 5-1.5 1.2-3.2 1.6-4.9 2v3.8c2 .2 3.6 1.1 5 2 1.6 1.5 3 3.4 3.2 6l.2 1.6h4.1z"/><path d="m66.6.1v15.1 6.4c0 2.4-.7 4.2-2.2 6-1.6 1.7-3.4 2.4-5.5 2.4s-3.8-.7-5.4-2.2c-1.5-1.5-2.2-3.4-2.2-5.4 0-2.2.7-4.1 2.4-5.5 1.5-1.5 3.6-2.4 5.8-2.4h.7c.2 0 .7 0 1.2.2.7.2 1.5.4 2.4 1.1v-4.5c-1.1-.4-2-.7-2.6-.7-.4-.2-1.1-.2-2.2-.2-3.6 0-6.4 1.1-8.8 3.2-2.2 2.2-3.4 4.9-3.4 8.4s1.2 6.4 3.4 8.4c2.2 2.2 5 3.2 8.4 3.2 3.2 0 5.5-.7 7.4-2.4v2.4h5v-11.9-6.4-15.2z"/></g><path d="m20.1 13.9c-2.4-2.2-5.2-3.4-8.3-3.4-3 0-6.2.6-8.3 3s-3.5 5.2-3.5 8.4 1.2 6.1 3.4 8.8c2.6 2.2 5 3.5 8.3 3.5s6-1.2 8.3-3.4c2.2-2.5 3.4-5.2 3.4-8.4.1-3.4-.9-6.3-3.3-8.5zm-8.4 15.8c-4.2 0-7.7-3.4-7.7-7.7 0-4.2 3.4-7.7 7.7-7.7 4.2 0 7.7 3.4 7.7 7.7s-3.4 7.7-7.7 7.7z" fill="#f22b29"/></svg>