<?xml version="1.0" encoding="utf-8"?>
<!-- Generator: Adobe Illustrator 22.1.0, SVG Export Plug-In . SVG Version: 6.00 Build 0)  -->
<svg version="1.1" id="Layer_1" xmlns="http://www.w3.org/2000/svg" xmlns:xlink="http://www.w3.org/1999/xlink" x="0px" y="0px"
	 width="33.3px" height="16px" viewBox="0 0 33.3 16" style="enable-background:new 0 0 33.3 16;" xml:space="preserve">
<style type="text/css">
	.st0{fill:#F22B29;}
	.st1{fill:#FFFFFF;}
</style>
<g>
	<path class="st0" d="M5.4,4.9c1.5,0,2.8,0.6,3.9,1.6s1.6,2.4,1.6,3.9s-0.6,2.8-1.6,4C8.2,15.4,6.9,16,5.4,16s-2.7-0.6-3.9-1.6
		c-1-1.2-1.6-2.6-1.6-4.1c0-1.5,0.6-2.8,1.6-3.9S4,4.9,5.4,4.9z M1.9,10.4c0,1,0.3,1.8,1,2.6c0.7,0.7,1.5,1.1,2.5,1.1
		c0.9,0,1.8-0.3,2.5-1.1c0.7-0.7,1-1.6,1-2.6s-0.3-1.9-1-2.6C7.3,7,6.5,6.7,5.4,6.7C4.5,6.7,3.7,7,3,7.8C2.3,8.5,1.9,9.4,1.9,10.4z"
		/>
</g>
<polygon class="st1" points="14.2,8.9 14.2,8.9 14.2,0 12.4,0 12.4,15.7 14.2,15.7 14.2,11.3 14.2,11.3 "/>
<path class="st1" d="M21.2,15c0-0.8-0.2-1.6-0.6-2.4c-0.5-0.8-0.8-1.2-1.1-1.6c-0.3-0.3-0.6-0.5-0.8-0.6l-0.6-0.3
	c1.7-0.9,2.7-2.3,3.1-4l0.2-0.9h-2.2l-0.1,0.7c-0.2,0.9-0.7,1.8-1.6,2.4c-0.7,0.6-1.5,0.8-2.3,0.9V11c0.9,0.1,1.7,0.5,2.4,0.9
	c0.8,0.7,1.4,1.6,1.5,2.8l0.1,0.8h1.9V15z"/>
<path class="st1" d="M31.4,0v7.2v3c0,1.1-0.3,2-1,2.8c-0.7,0.8-1.6,1.1-2.6,1.1c-1,0-1.8-0.3-2.5-1c-0.7-0.7-1-1.6-1-2.5
	c0-1,0.3-1.9,1.1-2.6c0.7-0.7,1.7-1.1,2.7-1.1c0.1,0,0.2,0,0.3,0c0.1,0,0.3,0,0.6,0.1c0.3,0.1,0.7,0.2,1.1,0.5V5.4
	c-0.5-0.2-0.9-0.3-1.2-0.3C28.7,5,28.4,5,27.9,5c-1.7,0-3,0.5-4.1,1.5c-1,1-1.6,2.3-1.6,4s0.6,3,1.6,4c1,1,2.4,1.5,4,1.5
	c1.5,0,2.6-0.3,3.5-1.1v1.1h1.9v-5.8v-3V0H31.4z"/>
</svg>
