<?xml version="1.0" encoding="UTF-8" standalone="no"?>
<!-- Generator: Adobe Illustrator 22.1.0, SVG Export Plug-In . SVG Version: 6.00 Build 0)  -->

<svg
   xmlns:dc="http://purl.org/dc/elements/1.1/"
   xmlns:cc="http://creativecommons.org/ns#"
   xmlns:rdf="http://www.w3.org/1999/02/22-rdf-syntax-ns#"
   xmlns:svg="http://www.w3.org/2000/svg"
   xmlns="http://www.w3.org/2000/svg"
   xmlns:sodipodi="http://sodipodi.sourceforge.net/DTD/sodipodi-0.dtd"
   xmlns:inkscape="http://www.inkscape.org/namespaces/inkscape"
   version="1.1"
   id="Layer_1"
   x="0px"
   y="0px"
   width="170.20419"
   height="16"
   viewBox="0 0 170.2042 16"
   xml:space="preserve"
   sodipodi:docname="okdvirt-logo.svg"
   inkscape:version="0.92.3 (2405546, 2018-03-11)"><metadata
   id="metadata19"><rdf:RDF><cc:Work
       rdf:about=""><dc:format>image/svg+xml</dc:format><dc:type
         rdf:resource="http://purl.org/dc/dcmitype/StillImage" /></cc:Work></rdf:RDF></metadata><defs
   id="defs17" /><sodipodi:namedview
   pagecolor="#ffffff"
   bordercolor="#666666"
   borderopacity="1"
   objecttolerance="10"
   gridtolerance="10"
   guidetolerance="10"
   inkscape:pageopacity="0"
   inkscape:pageshadow="2"
   inkscape:window-width="1329"
   inkscape:window-height="750"
   id="namedview15"
   showgrid="false"
   inkscape:zoom="8.3183185"
   inkscape:cx="101.29569"
   inkscape:cy="8"
   inkscape:window-x="0"
   inkscape:window-y="27"
   inkscape:window-maximized="0"
   inkscape:current-layer="Layer_1" />
<style
   type="text/css"
   id="style2">
	.st0{fill:#F22B29;}
	.st1{fill:#FFFFFF;}
</style>
<g
   id="g6"
   transform="translate(0.1)">
	<path
   class="st0"
   d="m 5.4,4.9 c 1.5,0 2.8,0.6 3.9,1.6 1.1,1 1.6,2.4 1.6,3.9 0,1.5 -0.6,2.8 -1.6,4 C 8.2,15.4 6.9,16 5.4,16 3.9,16 2.7,15.4 1.5,14.4 0.5,13.2 -0.1,11.8 -0.1,10.3 -0.1,8.8 0.5,7.5 1.5,6.4 2.5,5.3 4,4.9 5.4,4.9 Z m -3.5,5.5 c 0,1 0.3,1.8 1,2.6 0.7,0.7 1.5,1.1 2.5,1.1 0.9,0 1.8,-0.3 2.5,-1.1 0.7,-0.7 1,-1.6 1,-2.6 0,-1 -0.3,-1.9 -1,-2.6 C 7.3,7 6.5,6.7 5.4,6.7 4.5,6.7 3.7,7 3,7.8 2.3,8.5 1.9,9.4 1.9,10.4 Z"
   id="path4"
   inkscape:connector-curvature="0"
   style="fill:#f22b29" />
</g>
<polygon
   class="st1"
   points="14.2,0 12.4,0 12.4,15.7 14.2,15.7 14.2,11.3 14.2,11.3 14.2,8.9 "
   id="polygon8"
   style="fill:#ffffff"
   transform="translate(0.1)" />
<path
   class="st1"
   d="m 21.3,15 c 0,-0.8 -0.2,-1.6 -0.6,-2.4 C 20.2,11.8 19.9,11.4 19.6,11 19.3,10.7 19,10.5 18.8,10.4 l -0.6,-0.3 c 1.7,-0.9 2.7,-2.3 3.1,-4 L 21.5,5.2 H 19.3 L 19.2,5.9 C 19,6.8 18.5,7.7 17.6,8.3 16.9,8.9 16.1,9.1 15.3,9.2 V 11 c 0.9,0.1 1.7,0.5 2.4,0.9 0.8,0.7 1.4,1.6 1.5,2.8 l 0.1,0.8 h 1.9 V 15 Z"
   id="path10"
   inkscape:connector-curvature="0"
   style="fill:#ffffff" />
<path
   class="st1"
   d="m 31.5,0 v 7.2 3 c 0,1.1 -0.3,2 -1,2.8 -0.7,0.8 -1.6,1.1 -2.6,1.1 -1,0 -1.8,-0.3 -2.5,-1 -0.7,-0.7 -1,-1.6 -1,-2.5 0,-1 0.3,-1.9 1.1,-2.6 0.7,-0.7 1.7,-1.1 2.7,-1.1 0.1,0 0.2,0 0.3,0 0.1,0 0.3,0 0.6,0.1 0.3,0.1 0.7,0.2 1.1,0.5 V 5.4 C 29.7,5.2 29.3,5.1 29,5.1 28.8,5 28.5,5 28,5 c -1.7,0 -3,0.5 -4.1,1.5 -1,1 -1.6,2.3 -1.6,4 0,1.7 0.6,3 1.6,4 1,1 2.4,1.5 4,1.5 1.5,0 2.6,-0.3 3.5,-1.1 V 16 h 1.9 V 10.2 7.2 0 Z"
   id="path12"
   inkscape:connector-curvature="0"
   style="fill:#ffffff" />

<text
   xml:space="preserve"
   style="font-style:normal;font-weight:normal;font-size:20px;line-height:1.25;font-family:sans-serif;letter-spacing:0px;word-spacing:0px;fill:#f9f9f9;fill-opacity:1;stroke:none"
   x="39.891693"
   y="15.398917"
   id="text3726"><tspan
     sodipodi:role="line"
     id="tspan3724"
     x="39.891693"
     y="15.398917"
     style="font-size:17.33333333px">Virtualization</tspan></text>

</svg>