<?xml version="1.0" encoding="UTF-8"?>
<svg width="16px" height="16px" viewBox="0 0 16 16" version="1.1" xmlns="http://www.w3.org/2000/svg" xmlns:xlink="http://www.w3.org/1999/xlink">
    <!-- Generator: Sketch 46 (44423) - http://www.bohemiancoding.com/sketch -->
    <title>mask-icon</title>
    <desc>Created with Sketch.</desc>
    <defs></defs>
    <g id="Page-1" stroke="none" stroke-width="1" fill="none" fill-rule="evenodd">
        <g id="openshift-logo" fill-rule="nonzero" fill="#000000">
            <g id="Group" transform="translate(0.000000, 0.710000)">
                <path d="M4.7030069,6.53737931 L2.16231724,7.46195862 C2.19475862,7.86935172 2.26504828,8.27177931 2.36358621,8.66593103 L4.77715862,7.78714483 C4.69870345,7.3792 4.67089655,6.95856552 4.7030069,6.53737931" id="Shape"></path>
                <path d="M15.9314759,3.72788966 C15.7543724,3.36242759 15.5493517,3.00910345 15.3118897,2.67630345 L12.7716414,3.60077241 C13.0672552,3.90322759 13.3153103,4.24297931 13.5181241,4.60645517 L15.9314759,3.72788966 Z" id="Shape"></path>
                <path d="M10.342069,3.00833103 C10.8705103,3.25495172 11.328331,3.5913931 11.7144276,3.98587586 L14.2547862,3.06118621 C13.5511172,2.07393103 12.5926621,1.24888276 11.4183724,0.700910345 C7.78692414,-0.992441379 3.45434483,0.584386207 1.76110345,4.21517241 C1.21302069,5.39023448 1.00943448,6.63845517 1.1049931,7.84684138 L3.64557241,6.92237241 C3.68772414,6.37197241 3.82223448,5.82035862 4.06830345,5.29147586 C5.16855172,2.9321931 7.98278621,1.90841379 10.342069,3.00833103" id="Shape"></path>
                <path d="M2.52182069,8.60811034 L0.108027586,9.48722759 C0.329931034,10.3674483 0.714482759,11.2034207 1.24314483,11.9475862 L3.77809655,11.0249931 C3.1273931,10.3566345 2.69462069,9.51128276 2.52182069,8.60811034" id="Shape"></path>
                <path d="M13.0512552,7.65031724 C13.0107586,8.20038621 12.8719448,8.75211034 12.6249931,9.28143448 C11.5247448,11.6409379 8.7104,12.6647172 6.35144828,11.5646897 C5.82223448,11.3177379 5.3609931,10.9840552 4.97622069,10.5888 L2.44115862,11.5116138 C3.14306207,12.498869 4.10063448,13.3243586 5.27558621,13.8725517 C8.90703448,15.5656828 13.2390621,13.9887448 14.9324138,10.3575172 C15.4808276,9.1830069 15.6832,7.93522759 15.5863172,6.72772414 L13.0512552,7.65031724 Z" id="Shape"></path>
                <path d="M13.6759172,4.54885517 L11.2623448,5.42742069 C11.7105655,6.23062069 11.9223172,7.15564138 11.853131,8.08573793 L14.3880828,7.16358621 C14.3154759,6.2537931 14.0728276,5.36584828 13.6759172,4.54885517" id="Shape"></path>
            </g>
        </g>
    </g>
</svg>