<?xml version="1.0" encoding="UTF-8" standalone="no"?>
<svg width="226px" height="14px" viewBox="0 0 226 14" version="1.1" xmlns="http://www.w3.org/2000/svg" xmlns:xlink="http://www.w3.org/1999/xlink">
    <title>logo-dedicated-thin</title>
    <desc>Created with Sketch.</desc>
    <defs></defs>
    <g id="Page-1" stroke="none" stroke-width="1" fill="none" fill-rule="evenodd">
        <g id="Group" fill="#FFFFFF">
            <path d="M146.355469,6.81591797 C146.355469,8.81918319 145.811773,10.350662 144.724365,11.4104004 C143.636957,12.4701388 142.072276,13 140.030273,13 L136.668457,13 L136.668457,0.864257812 L140.387207,0.864257812 C142.274261,0.864257812 143.740717,1.3872018 144.786621,2.43310547 C145.832525,3.47900914 146.355469,4.93993203 146.355469,6.81591797 L146.355469,6.81591797 Z M144.861328,6.86572266 C144.861328,5.28303245 144.464278,4.0904988 143.670166,3.28808594 C142.876054,2.48567307 141.695971,2.08447266 140.129883,2.08447266 L138.07959,2.08447266 L138.07959,11.7797852 L139.797852,11.7797852 C141.480152,11.7797852 142.744625,11.3661337 143.591309,10.5388184 C144.437993,9.71150302 144.861328,8.48715003 144.861328,6.86572266 L144.861328,6.86572266 Z M155.82666,13 L149.061523,13 L149.061523,0.864257812 L155.82666,0.864257812 L155.82666,2.11767578 L150.472656,2.11767578 L150.472656,6.02734375 L155.50293,6.02734375 L155.50293,7.27246094 L150.472656,7.27246094 L150.472656,11.7382812 L155.82666,11.7382812 L155.82666,13 Z M168.203125,6.81591797 C168.203125,8.81918319 167.659429,10.350662 166.572021,11.4104004 C165.484614,12.4701388 163.919932,13 161.87793,13 L158.516113,13 L158.516113,0.864257812 L162.234863,0.864257812 C164.121917,0.864257812 165.588374,1.3872018 166.634277,2.43310547 C167.680181,3.47900914 168.203125,4.93993203 168.203125,6.81591797 L168.203125,6.81591797 Z M166.708984,6.86572266 C166.708984,5.28303245 166.311934,4.0904988 165.517822,3.28808594 C164.72371,2.48567307 163.543628,2.08447266 161.977539,2.08447266 L159.927246,2.08447266 L159.927246,11.7797852 L161.645508,11.7797852 C163.327808,11.7797852 164.592281,11.3661337 165.438965,10.5388184 C166.285649,9.71150302 166.708984,8.48715003 166.708984,6.86572266 L166.708984,6.86572266 Z M170.90918,13 L170.90918,0.864257812 L172.320312,0.864257812 L172.320312,13 L170.90918,13 Z M180.845215,1.95166016 C179.511549,1.95166016 178.458744,2.39574751 177.686768,3.28393555 C176.914791,4.17212358 176.528809,5.38817587 176.528809,6.93212891 C176.528809,8.52035299 176.900957,9.74747288 177.645264,10.6135254 C178.389571,11.4795779 179.450677,11.9125977 180.828613,11.9125977 C181.675297,11.9125977 182.640945,11.7604182 183.725586,11.4560547 L183.725586,12.6928711 C182.884436,13.0083024 181.846849,13.1660156 180.612793,13.1660156 C178.825349,13.1660156 177.44605,12.6237033 176.474854,11.5390625 C175.503657,10.4544217 175.018066,8.91325869 175.018066,6.91552734 C175.018066,5.66487005 175.251869,4.56917788 175.719482,3.62841797 C176.187095,2.68765806 176.862219,1.96273041 177.744873,1.45361328 C178.627527,0.944496152 179.666498,0.689941406 180.861816,0.689941406 C182.134609,0.689941406 183.246903,0.922360957 184.19873,1.38720703 L183.601074,2.59912109 C182.68245,2.16747831 181.763839,1.95166016 180.845215,1.95166016 L180.845215,1.95166016 Z M194.001953,13 L192.491211,9.14013672 L187.626953,9.14013672 L186.132812,13 L184.705078,13 L189.50293,0.814453125 L190.689941,0.814453125 L195.462891,13 L194.001953,13 Z M192.05127,7.87011719 L190.640137,4.10986328 C190.457519,3.63394944 190.269369,3.05013367 190.075684,2.35839844 C189.953938,2.88965109 189.779624,3.47346687 189.552734,4.10986328 L188.125,7.87011719 L192.05127,7.87011719 Z M200.866699,13 L199.455566,13 L199.455566,2.11767578 L195.612305,2.11767578 L195.612305,0.864257812 L204.709961,0.864257812 L204.709961,2.11767578 L200.866699,2.11767578 L200.866699,13 Z M213.30127,13 L206.536133,13 L206.536133,0.864257812 L213.30127,0.864257812 L213.30127,2.11767578 L207.947266,2.11767578 L207.947266,6.02734375 L212.977539,6.02734375 L212.977539,7.27246094 L207.947266,7.27246094 L207.947266,11.7382812 L213.30127,11.7382812 L213.30127,13 Z M225.677734,6.81591797 C225.677734,8.81918319 225.134039,10.350662 224.046631,11.4104004 C222.959223,12.4701388 221.394541,13 219.352539,13 L215.990723,13 L215.990723,0.864257812 L219.709473,0.864257812 C221.596526,0.864257812 223.062983,1.3872018 224.108887,2.43310547 C225.15479,3.47900914 225.677734,4.93993203 225.677734,6.81591797 L225.677734,6.81591797 Z M224.183594,6.86572266 C224.183594,5.28303245 223.786544,4.0904988 222.992432,3.28808594 C222.19832,2.48567307 221.018237,2.08447266 219.452148,2.08447266 L217.401855,2.08447266 L217.401855,11.7797852 L219.120117,11.7797852 C220.802417,11.7797852 222.06689,11.3661337 222.913574,10.5388184 C223.760258,9.71150302 224.183594,8.48715003 224.183594,6.86572266 L224.183594,6.86572266 Z" id="DEDICATED"></path>
            <path d="M12.6669922,6.91552734 C12.6669922,8.95752974 12.1661834,10.5097603 11.1645508,11.5722656 C10.1629182,12.6347709 8.69646148,13.1660156 6.76513672,13.1660156 C4.86148137,13.1660156 3.40194193,12.632004 2.38647461,11.5639648 C1.37100729,10.4959256 0.86328125,8.94092818 0.86328125,6.89892578 C0.86328125,4.87905891 1.36824039,3.33651249 2.37817383,2.27124023 C3.38810726,1.20596798 4.8559474,0.673339844 6.78173828,0.673339844 C8.71306304,0.673339844 10.1767528,1.20181763 11.1728516,2.25878906 C12.1689503,3.31576049 12.6669922,4.86799106 12.6669922,6.91552734 L12.6669922,6.91552734 Z M4.31640625,6.91552734 C4.31640625,9.26189324 5.13264158,10.4350586 6.76513672,10.4350586 C7.59521899,10.4350586 8.21085411,10.150068 8.61206055,9.58007812 C9.01326698,9.0100883 9.21386719,8.12191358 9.21386719,6.91552734 C9.21386719,5.70360722 9.01050008,4.80851526 8.60375977,4.23022461 C8.19701945,3.65193396 7.58968503,3.36279297 6.78173828,3.36279297 C5.13817538,3.36279297 4.31640625,4.54702592 4.31640625,6.91552734 L4.31640625,6.91552734 Z M27.6655273,4.72412109 C27.6655273,6.07992214 27.2657104,7.12719357 26.4660645,7.8659668 C25.6664185,8.60474002 24.5306063,8.97412109 23.0585938,8.97412109 L22.137207,8.97412109 L22.137207,13 L18.8583984,13 L18.8583984,0.864257812 L23.0585938,0.864257812 C24.591479,0.864257812 25.7425092,1.19905264 26.5117188,1.86865234 C27.2809283,2.53825205 27.6655273,3.49006544 27.6655273,4.72412109 L27.6655273,4.72412109 Z M22.137207,6.30126953 L22.7348633,6.30126953 C23.2273788,6.30126953 23.618895,6.16292456 23.9094238,5.88623047 C24.1999526,5.60953638 24.3452148,5.22770426 24.3452148,4.74072266 C24.3452148,3.92170814 23.8914433,3.51220703 22.9838867,3.51220703 L22.137207,3.51220703 L22.137207,6.30126953 Z M40.8046875,13 L33.5996094,13 L33.5996094,0.864257812 L40.8046875,0.864257812 L40.8046875,3.49560547 L36.878418,3.49560547 L36.878418,5.40478516 L40.5141602,5.40478516 L40.5141602,8.03613281 L36.878418,8.03613281 L36.878418,10.3271484 L40.8046875,10.3271484 L40.8046875,13 Z M58.484375,13 L54.1845703,13 L49.7519531,4.45019531 L49.6772461,4.45019531 C49.7823898,5.7949286 49.8349609,6.82144828 49.8349609,7.52978516 L49.8349609,13 L46.9296875,13 L46.9296875,0.864257812 L51.2128906,0.864257812 L55.6289062,9.29785156 L55.6787109,9.29785156 C55.6012366,8.07486368 55.5625,7.09261438 55.5625,6.35107422 L55.5625,0.864257812 L58.484375,0.864257812 L58.484375,13 Z M73.0429688,9.31445312 C73.0429688,10.0670611 72.8520527,10.7352673 72.4702148,11.3190918 C72.088377,11.9029163 71.537764,12.3566878 70.8183594,12.6804199 C70.0989547,13.004152 69.2550504,13.1660156 68.2866211,13.1660156 C67.4786743,13.1660156 66.800784,13.1092942 66.2529297,12.9958496 C65.7050754,12.882405 65.1350941,12.6845717 64.5429688,12.4023438 L64.5429688,9.48046875 C65.1682974,9.8014339 65.8185188,10.0518383 66.4936523,10.2316895 C67.1687859,10.4115406 67.7885714,10.5014648 68.3530273,10.5014648 C68.8400089,10.5014648 69.196939,10.4170744 69.4238281,10.248291 C69.6507173,10.0795076 69.7641602,9.86230602 69.7641602,9.59667969 C69.7641602,9.43066323 69.7185063,9.28540101 69.6271973,9.16088867 C69.5358882,9.03637633 69.3892425,8.91048241 69.1872559,8.78320312 C68.9852692,8.65592384 68.4471072,8.3958353 67.5727539,8.00292969 C66.7814088,7.64322737 66.1879089,7.29459804 65.7922363,6.95703125 C65.3965638,6.61946446 65.1032724,6.23209854 64.9123535,5.79492188 C64.7214346,5.35774521 64.6259766,4.84033502 64.6259766,4.24267578 C64.6259766,3.12483165 65.0327108,2.25325833 65.8461914,1.62792969 C66.659672,1.00260104 67.7774994,0.689941406 69.199707,0.689941406 C70.4558982,0.689941406 71.7369726,0.980465845 73.0429688,1.56152344 L72.0385742,4.09326172 C70.9041284,3.57307683 69.924646,3.31298828 69.1000977,3.31298828 C68.6739888,3.31298828 68.364096,3.38769457 68.1704102,3.53710938 C67.9767243,3.68652418 67.8798828,3.87190645 67.8798828,4.09326172 C67.8798828,4.33121864 68.0030098,4.54426989 68.2492676,4.73242188 C68.4955253,4.92057386 69.1637315,5.26366938 70.2539062,5.76171875 C71.2998099,6.23209871 72.026121,6.73705785 72.4328613,7.27661133 C72.8396016,7.81616481 73.0429688,8.49543861 73.0429688,9.31445312 L73.0429688,9.31445312 Z M89.3198242,13 L86.0244141,13 L86.0244141,8.05273438 L82.2143555,8.05273438 L82.2143555,13 L78.9189453,13 L78.9189453,0.864257812 L82.2143555,0.864257812 L82.2143555,5.36328125 L86.0244141,5.36328125 L86.0244141,0.864257812 L89.3198242,0.864257812 L89.3198242,13 Z M95.9428711,13 L95.9428711,0.864257812 L99.2382812,0.864257812 L99.2382812,13 L95.9428711,13 Z M109.090332,13 L105.861328,13 L105.861328,0.864257812 L113.033203,0.864257812 L113.033203,3.49560547 L109.090332,3.49560547 L109.090332,5.81152344 L112.726074,5.81152344 L112.726074,8.44287109 L109.090332,8.44287109 L109.090332,13 Z M124.379395,13 L121.100586,13 L121.100586,3.54541016 L118.137207,3.54541016 L118.137207,0.864257812 L127.334473,0.864257812 L127.334473,3.54541016 L124.379395,3.54541016 L124.379395,13 Z" id="OPENSHIFT"></path>
        </g>
    </g>
</svg>