<?xml version="1.0" encoding="utf-8"?>
<!-- Generator: Adobe Illustrator 21.1.0, SVG Export Plug-In . SVG Version: 6.00 Build 0)  -->
<svg width="320" height="14" viewBox="0 0 320 14" xmlns="http://www.w3.org/2000/svg"><title>Group</title><desc>Created with Sketch.</desc><g fill="#fff"><path d="M12.667 6.916c0 2.042-.5 3.594-1.502 4.656-1.002 1.063-2.47 1.594-4.4 1.594-1.904 0-3.363-.534-4.38-1.602C1.372 10.496.864 8.94.864 6.9c0-2.02.505-3.563 1.515-4.63C3.388 1.207 4.856.674 6.782.674c1.93 0 3.395.53 4.39 1.586.997 1.056 1.495 2.608 1.495 4.656zm-8.35 0c0 2.346.816 3.52 2.448 3.52.83 0 1.446-.286 1.847-.856.4-.57.602-1.458.602-2.664 0-1.212-.203-2.107-.61-2.686-.407-.578-1.014-.867-1.822-.867-1.644 0-2.466 1.184-2.466 3.553zm23.35-2.192c0 1.356-.4 2.403-1.2 3.142-.8.74-1.936 1.108-3.408 1.108h-.923V13h-3.28V.864h4.202c1.53 0 2.683.335 3.452 1.005.77.668 1.154 1.62 1.154 2.854zM22.136 6.3h.598c.492 0 .884-.137 1.174-.414.29-.276.435-.658.435-1.145 0-.818-.454-1.228-1.36-1.228h-.848v2.79zM40.805 13H33.6V.864h7.205v2.632h-3.927v1.91h3.636v2.63h-3.636v2.29h3.927V13zm17.68 0h-4.3l-4.433-8.55h-.075c.105 1.345.158 2.37.158 3.08V13H46.93V.864h4.283l4.416 8.434h.05c-.08-1.223-.117-2.205-.117-2.947V.865h2.92V13zm14.558-3.686c0 .753-.19 1.42-.573 2.005-.382.583-.932 1.037-1.652 1.36-.72.324-1.563.486-2.53.486-.81 0-1.487-.057-2.035-.17-.548-.114-1.118-.31-1.71-.594V9.48c.625.32 1.276.572 1.95.752.676.18 1.296.27 1.86.27.487 0 .844-.085 1.07-.254.228-.168.34-.386.34-.65 0-.167-.044-.313-.136-.437-.09-.124-.238-.25-.44-.377s-.74-.387-1.614-.78c-.792-.36-1.385-.708-1.78-1.046-.396-.338-.69-.725-.88-1.162-.192-.437-.287-.955-.287-1.552 0-1.118.407-1.99 1.22-2.615.814-.625 1.93-.938 3.354-.938 1.256 0 2.537.29 3.843.872l-1.004 2.53c-1.136-.52-2.115-.78-2.94-.78-.426 0-.736.076-.93.225-.193.15-.29.335-.29.556 0 .238.123.45.37.64.246.188.914.53 2.004 1.03 1.046.47 1.772.974 2.18 1.514.406.54.61 1.218.61 2.037zM89.32 13h-3.296V8.053h-3.81V13H78.92V.864h3.294v4.5h3.81v-4.5h3.296V13zm6.623 0V.864h3.295V13h-3.295zm13.147 0h-3.23V.864h7.173v2.632h-3.943v2.316h3.636v2.63h-3.636V13zm15.29 0h-3.28V3.545h-2.963V.865h9.197v2.68h-2.955V13z"/><path d="M141.865 1.952c-1.334 0-2.387.444-3.16 1.332-.77.888-1.157 2.104-1.157 3.648 0 1.588.372 2.815 1.117 3.682.744.866 1.805 1.3 3.183 1.3.847 0 1.812-.154 2.897-.458v1.237c-.84.315-1.88.473-3.113.473-1.787 0-3.166-.542-4.138-1.627-.97-1.086-1.456-2.627-1.456-4.624 0-1.25.233-2.347.7-3.288.47-.94 1.144-1.665 2.026-2.174.883-.51 1.922-.764 3.117-.764 1.274 0 2.386.232 3.338.697L144.62 2.6c-.918-.433-1.837-.648-2.755-.648zm16.062 4.964c0 1.942-.49 3.47-1.474 4.582-.982 1.112-2.347 1.668-4.096 1.668-1.788 0-3.167-.546-4.138-1.64-.972-1.092-1.458-2.635-1.458-4.627 0-1.977.487-3.508 1.46-4.596.975-1.087 2.36-1.63 4.152-1.63 1.743 0 3.104.553 4.084 1.66.98 1.106 1.47 2.634 1.47 4.582zm-9.67 0c0 1.643.35 2.89 1.05 3.74.7.848 1.716 1.273 3.05 1.273 1.345 0 2.36-.424 3.046-1.27.687-.848 1.03-2.095 1.03-3.744 0-1.633-.342-2.87-1.026-3.715-.683-.843-1.694-1.265-3.033-1.265-1.345 0-2.368.425-3.068 1.274-.7.85-1.05 2.084-1.05 3.706zM170.11 13h-1.61L161.87 2.815h-.067c.09 1.195.133 2.29.133 3.287V13h-1.303V.864h1.594l6.615 10.144h.067c-.012-.15-.037-.63-.076-1.44-.04-.81-.053-1.39-.042-1.74V.865h1.32V13zm7.073 0h-1.412V2.118h-3.843V.864h9.098v1.254h-3.843V13zm13.297 0l-1.51-3.86h-4.865L182.613 13h-1.427L185.983.814h1.187L191.943 13h-1.46zm-1.95-5.13l-1.41-3.76c-.184-.476-.372-1.06-.566-1.752-.122.532-.296 1.115-.523 1.752l-1.428 3.76h3.927zm5.08 5.13V.864h1.41V13h-1.41zm14.22 0h-1.61l-6.634-10.185h-.066c.09 1.195.133 2.29.133 3.287V13h-1.303V.864h1.593l6.616 10.144h.067c-.01-.15-.036-.63-.074-1.44-.04-.81-.053-1.39-.042-1.74V.865h1.32V13zm10.1 0h-6.764V.864h6.765v1.254h-5.354v3.91h5.03V7.27h-5.03v4.466h5.353V13zm4.102-5.047V13h-1.41V.864h3.327c1.49 0 2.59.285 3.3.855.712.57 1.067 1.427 1.067 2.572 0 1.605-.813 2.69-2.44 3.254L229.172 13h-1.668l-2.94-5.047h-2.53zm0-1.212h1.934c.996 0 1.726-.197 2.19-.592.466-.396.698-.99.698-1.78 0-.803-.236-1.382-.71-1.736-.472-.354-1.232-.53-2.278-.53h-1.834v4.64zm21.208-2.34c0 1.23-.42 2.174-1.257 2.835-.84.66-2.038.992-3.6.992h-1.427V13h-1.41V.864h3.145c3.033 0 4.55 1.18 4.55 3.536zm-6.284 2.615h1.27c1.25 0 2.156-.202 2.715-.606.56-.405.838-1.052.838-1.943 0-.803-.262-1.4-.787-1.793-.526-.393-1.345-.59-2.457-.59h-1.578v4.93zM245.782 13V.864h1.41v10.858h5.355V13h-6.765zm16.452 0l-1.51-3.86h-4.865L254.364 13h-1.428L257.736.814h1.187L263.695 13h-1.46zm-1.95-5.13l-1.41-3.76c-.184-.476-.372-1.06-.566-1.752-.122.532-.296 1.115-.523 1.752l-1.428 3.76h3.927zM269.1 13h-1.412V2.118h-3.843V.864h9.097v1.254H269.1V13zm7.08 0h-1.41V.864h6.764v1.254h-5.354v4.44h5.03v1.254h-5.03V13zm17.896-6.084c0 1.942-.49 3.47-1.473 4.582-.982 1.112-2.348 1.668-4.097 1.668-1.787 0-3.166-.546-4.138-1.64-.97-1.092-1.456-2.635-1.456-4.627 0-1.977.487-3.508 1.46-4.596.975-1.087 2.358-1.63 4.15-1.63 1.744 0 3.105.553 4.085 1.66.98 1.106 1.47 2.634 1.47 4.582zm-9.67 0c0 1.643.35 2.89 1.05 3.74.7.848 1.717 1.273 3.05 1.273 1.345 0 2.36-.424 3.047-1.27.686-.848 1.03-2.095 1.03-3.744 0-1.633-.343-2.87-1.026-3.715-.684-.843-1.695-1.265-3.034-1.265-1.345 0-2.367.425-3.067 1.274-.7.85-1.05 2.084-1.05 3.706zm13.787 1.037V13h-1.41V.864h3.328c1.49 0 2.59.285 3.3.855.712.57 1.067 1.427 1.067 2.572 0 1.605-.813 2.69-2.44 3.254L305.332 13h-1.668l-2.94-5.047h-2.53zm0-1.212h1.934c.997 0 1.727-.197 2.192-.592.464-.396.696-.99.696-1.78 0-.803-.236-1.382-.71-1.736-.473-.354-1.232-.53-2.278-.53h-1.835v4.64zm14.47 6.26l-4.12-10.758h-.065c.078.852.116 1.865.116 3.038V13h-1.303V.864h2.126l3.843 10.01h.066l3.876-10.01h2.11V13h-1.413V5.18c0-.896.038-1.87.116-2.92h-.067L313.8 13h-1.138z"/></g></svg>
