<svg enable-background="new 0 0 109 50" height="50" viewBox="0 0 109 50" width="109" xmlns="http://www.w3.org/2000/svg"><g fill="#fff"><path d="m40 33.5c-3.2 0-5.8-2.5-5.8-5.7s2.6-5.8 5.8-5.8 5.8 2.5 5.8 5.8-2.5 5.7-5.8 5.7zm0-10c-2.3 0-4.1 1.8-4.1 4.2s1.8 4.2 4.1 4.2 4.1-1.8 4.1-4.2-1.7-4.2-4.1-4.2z"/><path d="m47.4 25.2h1.6v.8c.7-.6 1.6-.9 2.5-.9 2.3 0 4.1 1.8 4.1 4.2s-1.8 4.2-4.1 4.2c-.9 0-1.7-.3-2.4-.8v4h-1.6v-11.5zm1.6 2.2v3.7c.5.6 1.4 1 2.3 1 1.6 0 2.7-1.2 2.7-2.8s-1.2-2.8-2.7-2.8c-.9 0-1.8.3-2.3.9z"/><path d="m61 33.5c-2.4 0-4.3-1.8-4.3-4.2 0-2.3 1.8-4.2 4.1-4.2 2.2 0 3.9 1.8 3.9 4.2v.5h-6.4c.2 1.4 1.4 2.3 2.7 2.3.7 0 1.5-.2 2.1-.7l1 1c-.8.7-1.9 1.1-3.1 1.1zm-2.6-4.9h4.8c-.2-1.2-1.2-2.2-2.4-2.2s-2.2.9-2.4 2.2z"/><path d="m66.3 25.2h1.6v.8c.6-.6 1.5-1 2.4-1 1.9 0 3.2 1.3 3.2 3.2v5.1h-1.6v-4.8c0-1.3-.8-2.1-2-2.1-.8 0-1.6.4-2 1.1v5.8h-1.6z"/><path d="m75.5 30.3c1.2 1.2 2.5 1.8 3.8 1.8 1.6 0 2.7-.8 2.7-1.9 0-1-.6-1.5-2.3-1.8l-1.9-.3c-2-.3-3-1.3-3-2.9 0-1.9 1.6-3.2 4.1-3.2 1.6 0 3.2.5 4.5 1.5l-.9 1.3c-1.2-.9-2.4-1.4-3.6-1.4-1.5 0-2.4.7-2.4 1.7 0 .9.6 1.3 2 1.6l1.8.3c2.4.4 3.4 1.4 3.4 3.1 0 2.1-1.8 3.4-4.4 3.4-1.8 0-3.5-.7-4.8-2z"/><path d="m85 22.2 1.6-.4v4.2c.6-.6 1.5-1 2.4-1 1.9 0 3.2 1.3 3.2 3.2v5.1h-1.6v-4.8c0-1.3-.8-2.1-2-2.1-.8 0-1.6.4-2 1.1v5.8h-1.6z"/><path d="m93.9 22.9c0-.5.4-1 1-1 .5 0 1 .5.9 1 0 .5-.4.9-.9.9-.6.1-1-.3-1-.9zm1.8 10.4h-1.6v-8.1h1.6z"/><path d="m98.8 25.2v-1.2c0-1.7 1-2.6 2.8-2.6.4 0 .8 0 1.1.1v1.4c-.3-.1-.7-.1-1-.1-.9 0-1.3.4-1.3 1.3v1.2h2.3v1.3h-2.3v6.8h-1.6v-6.8h-1.9v-1.3h1.9z"/><path d="m105.1 26.5h-1.7v-1.3h1.7v-2.1l1.6-.4v2.5h2.4v1.3h-2.4v4.4c0 .8.3 1.1 1.2 1.1.4 0 .8-.1 1.2-.2v1.3c-.5.2-1 .2-1.5.2-1.6 0-2.4-.7-2.4-2.1z"/><path d="m34.8 38.7h3.7c3.4 0 5.9 2.3 5.9 5.6s-2.5 5.6-5.9 5.6h-3.7zm1.2 1.1v8.9h2.5c2.6 0 4.6-1.9 4.6-4.5s-2-4.5-4.6-4.5z"/><path d="m49.8 50c-2.2 0-4.1-1.8-4.1-4v-.1c0-2.3 1.7-4.1 3.9-4.1 2.1 0 3.8 1.8 3.8 4.1v.4h-6.5c.2 1.6 1.4 2.7 3 2.7.8 0 1.7-.3 2.2-.7l.7.8c-.9.6-1.9.9-3 .9zm-2.9-4.7h5.3c-.2-1.4-1.3-2.5-2.6-2.5-1.4 0-2.5 1-2.7 2.5z"/><path d="m61.3 49c-.7.6-1.6 1-2.6 1-2.2 0-4-1.8-4-4.1s1.8-4.1 4-4.1c.9 0 1.8.3 2.5.9v-3.9l1.2-.3v11.4h-1.2zm-2.5-.1c.9 0 1.8-.4 2.5-1.1v-3.9c-.6-.7-1.5-1.1-2.5-1.1-1.7 0-3 1.3-3 3.1s1.3 3 3 3z"/><path d="m64.2 39.5c0-.4.4-.8.8-.8s.8.3.8.8c0 .4-.4.8-.8.8s-.8-.3-.8-.8zm1.4 10.3h-1.2v-8h1.2z"/><path d="m73.7 47.9.7.8c-.8.8-1.9 1.3-3.1 1.3-2.3 0-4.1-1.8-4.1-4.1s1.8-4.1 4.1-4.1c1.2 0 2.3.5 3.1 1.3l-.7.9c-.6-.7-1.5-1-2.4-1-1.6 0-2.9 1.4-2.9 3.1s1.3 3.1 2.9 3.1c.9-.3 1.7-.6 2.4-1.3z"/><path d="m75.4 47.6c0-1.5 1.2-2.4 3.2-2.4.8 0 1.6.2 2.3.5v-1.1c0-1.3-.7-1.9-2.1-1.9-.8 0-1.5.2-2.5.7l-.4-.9c1.1-.6 2.1-.8 3.1-.8 2 0 3.2 1 3.2 2.8v5.4h-1.1v-.8c-.7.6-1.6.9-2.6.9-1.9 0-3.1-1-3.1-2.4zm3.1 1.5c1 0 1.7-.3 2.4-.9v-1.5c-.7-.4-1.4-.6-2.3-.6-1.3 0-2.1.6-2.1 1.5 0 .8.8 1.5 2 1.5z"/><path d="m84.7 42.9h-1.7v-1h1.7v-2l1.2-.3v2.3h2.4v1h-2.4v4.9c0 .9.4 1.2 1.2 1.2.4 0 .8-.1 1.2-.2v1c-.5.1-.9.2-1.4.2-1.4 0-2.1-.7-2.1-1.9z"/><path d="m93 50c-2.2 0-4.1-1.8-4.1-4v-.1c0-2.3 1.7-4.1 3.9-4.1 2.1 0 3.8 1.8 3.8 4.1v.4h-6.6c.2 1.6 1.4 2.7 3 2.7.8 0 1.7-.3 2.2-.7l.8.7c-.9.7-1.9 1-3 1zm-2.9-4.7h5.3c-.2-1.4-1.3-2.5-2.6-2.5-1.4 0-2.5 1-2.7 2.5z"/><path d="m104.5 49c-.7.6-1.6 1-2.6 1-2.2 0-4-1.8-4-4.1s1.8-4.1 4-4.1c.9 0 1.8.3 2.5.9v-3.9l1.2-.3v11.4h-1.2v-.9zm-2.5-.1c.9 0 1.8-.4 2.5-1.1v-3.9c-.6-.7-1.5-1.1-2.5-1.1-1.7 0-3 1.3-3 3.1s1.3 3 3 3z"/></g><path d="m19.4 12.7c1.9 0 4.7-.4 4.7-2.7 0-.2 0-.4 0-.5l-1.1-5c-.3-1-.5-1.5-2.5-2.5-1.5-.8-4.7-2-5.7-2-.9 0-1.2 1.2-2.2 1.2s-1.8-.9-2.7-.9-1.5.6-2 1.9c0 0-1.3 3.6-1.5 4.2v.3c0 1.4 5.6 6 13 6m5-1.7c.3 1.3.3 1.4.3 1.6 0 2.1-2.4 3.3-5.6 3.3-7.2 0-13.4-4.2-13.4-7 0-.4.1-.8.2-1.1-2.6.1-5.9.6-5.9 3.5 0 4.8 11.4 10.8 20.5 10.8 6.9 0 8.7-3.1 8.7-5.6-.1-2-1.7-4.2-4.8-5.5" fill="#e00"/><path d="m24.4 11c.3 1.3.3 1.4.3 1.6 0 2.1-2.4 3.3-5.6 3.3-7.2 0-13.4-4.2-13.4-7 0-.4.1-.8.2-1.1l.6-1.4v.3c0 1.4 5.6 6 13 6 1.9 0 4.7-.4 4.7-2.7 0-.2 0-.4 0-.5z"/><path d="m88.7 14.1c0 1.8 1.1 2.7 3.1 2.7.6 0 1.2-.1 1.8-.3v-2.1c-.4.1-.8.2-1.2.2-.8 0-1.1-.3-1.1-1v-3.2h2.4v-2.2h-2.4v-2.7l-2.6.5v2.2h-1.7v2.2h1.7zm-8.1.1c0-.6.6-.8 1.4-.8.5 0 1 .1 1.5.2v1.1c-.5.3-1.1.4-1.6.4-.8-.1-1.3-.4-1.3-.9m.8 2.7c.9 0 1.7-.2 2.4-.7v.5h2.6v-5.5c0-2.1-1.4-3.2-3.7-3.2-1.3 0-2.6.3-4 .9l.9 1.9c1-.4 1.8-.7 2.6-.7 1.1 0 1.6.4 1.6 1.3v.4c-.6-.2-1.3-.2-1.9-.2-2.2 0-3.5.9-3.5 2.6-.1 1.5 1.1 2.7 3 2.7m-14.2-.2h2.8v-4.4h4.6v4.4h2.8v-11.2h-2.8v4.3h-4.6v-4.3h-2.8zm-10.5-4.2c0-1.2 1-2.2 2.2-2.2.7 0 1.3.2 1.8.7v3c-.5.5-1.1.7-1.8.7-1.2-.1-2.2-1-2.2-2.2m4.1 4.2h2.6v-11.8l-2.6.6v3.2c-.7-.4-1.4-.6-2.2-.6-2.5 0-4.4 1.9-4.4 4.4 0 2.4 1.9 4.4 4.3 4.4h.1c.8 0 1.6-.3 2.3-.7v.5zm-11.9-6.5c.8 0 1.5.5 1.8 1.4h-3.6c.3-.9 1-1.4 1.8-1.4m-4.4 2.3c0 2.5 2 4.4 4.6 4.4 1.4 0 2.5-.4 3.6-1.3l-1.7-1.5c-.4.4-1 .6-1.7.6-.9 0-1.7-.5-2.1-1.4h6.1v-.6c0-2.7-1.8-4.7-4.3-4.7-2.4 0-4.4 1.9-4.4 4.3-.1.1-.1.1-.1.2m-4.5-4.7c.9 0 1.4.6 1.4 1.3s-.5 1.3-1.4 1.3h-2.7v-2.6zm-5.5 8.9h2.8v-4.1h2.1l2.1 4.1h3.1l-2.5-4.5c1.3-.5 2.1-1.8 2.1-3.2 0-2-1.6-3.6-4-3.6h-5.8z" fill="#fff"/></svg>