<?xml version="1.0" encoding="UTF-8" standalone="no"?>
<svg
   id="uuid-42c6fd24-64e7-42bd-86a9-52f8d6eabc7b"
   viewBox="0 0 16 16"
   version="1.1"
   sodipodi:docname="openshift-mask-icon.svg"
   width="16"
   height="16"
   inkscape:version="1.3 (0e150ed6c4, 2023-07-21)"
   xmlns:inkscape="http://www.inkscape.org/namespaces/inkscape"
   xmlns:sodipodi="http://sodipodi.sourceforge.net/DTD/sodipodi-0.dtd"
   xmlns="http://www.w3.org/2000/svg"
   xmlns:svg="http://www.w3.org/2000/svg">
  <defs
     id="defs1" />
  <sodipodi:namedview
     id="namedview1"
     pagecolor="#ffffff"
     bordercolor="#111111"
     borderopacity="1"
     inkscape:showpageshadow="0"
     inkscape:pageopacity="0"
     inkscape:pagecheckerboard="1"
     inkscape:deskcolor="#d1d1d1"
     inkscape:zoom="33.736842"
     inkscape:cx="19"
     inkscape:cy="19"
     inkscape:window-width="3840"
     inkscape:window-height="1495"
     inkscape:window-x="0"
     inkscape:window-y="32"
     inkscape:window-maximized="1"
     inkscape:current-layer="uuid-42c6fd24-64e7-42bd-86a9-52f8d6eabc7b" />
  <path
     d="m 11.5,1 h -7 C 2.5669966,1 1,2.5669967 1,4.5 v 7 C 1,13.43298 2.5669966,15 4.5,15 h 7 c 1.933003,0 3.5,-1.56702 3.5,-3.5 v -7 C 15,2.5669967 13.433003,1 11.5,1 Z M 6.4649506,4.5805117 C 7.7728928,3.9986988 9.2707214,4.2037755 10.374345,5.1159922 10.477642,5.2014421 10.492074,5.35449 10.406625,5.4581678 10.321175,5.561846 10.168126,5.5762772 10.064448,5.49045 9.1040015,4.6967195 7.800236,4.5182272 6.6624325,5.0248445 5.528425,5.5295638 4.789007,6.6145795 4.7324199,7.8560605 4.7267274,7.9863228 4.6192456,8.0881028 4.4897455,8.0881028 c -0.00341,0 -0.00721,0 -0.011016,-3.811e-4 C 4.34467,8.0816433 4.2409921,7.9680917 4.2470706,7.8340338 4.3116336,6.4076012 5.1615662,5.1608039 6.4649506,4.5805078 Z m 4.8979504,2.1764866 c 0.12191,-0.05355 0.265842,3.812e-4 0.320911,0.1234256 0.05431,0.1222861 -7.78e-4,0.2662216 -0.123426,0.3209111 l -1.065644,0.4747167 c -0.0319,0.01405 -0.0657,0.020887 -0.09874,0.020887 -0.09305,0 -0.181533,-0.05355 -0.222168,-0.1443127 -0.05431,-0.122286 7.74e-4,-0.2662215 0.123422,-0.320911 z M 5.7027438,8.745115 4.6370989,9.2198314 c -0.0319,0.014053 -0.065702,0.020886 -0.098743,0.020886 -0.093046,0 -0.1815334,-0.05355 -0.2221683,-0.1443128 C 4.2618796,8.97412 4.3169459,8.8301841 4.4396131,8.7754947 L 5.5052577,8.300778 C 5.6267858,8.246851 5.7710984,8.3011591 5.8261689,8.4242035 5.8804779,8.5464897 5.8254301,8.6904252 5.7027438,8.745115 Z m -0.4925666,1.283637 -1.0660261,0.474339 c -0.0319,0.01405 -0.065703,0.0209 -0.098743,0.0209 -0.093045,0 -0.1819104,-0.05355 -0.2221683,-0.144312 -0.054308,-0.122668 7.583e-4,-0.266223 0.1234254,-0.320913 L 5.0126917,9.5844194 c 0.1215277,-0.05355 0.2662217,3.815e-4 0.3209111,0.1234257 0.054308,0.1226672 -7.39e-4,0.2662214 -0.1234256,0.3209119 z m 4.2994236,1.390732 c -0.4929479,0.219509 -1.0128574,0.326986 -1.5285902,0.326986 -0.8522151,0 -1.6930355,-0.293946 -2.3808051,-0.862466 -0.1032966,-0.08545 -0.1177283,-0.238498 -0.032282,-0.342176 0.085447,-0.103678 0.2381168,-0.117728 0.3421756,-0.03228 0.9600695,0.79373 2.2638351,0.971841 3.4020197,0.465605 1.1374222,-0.506618 1.8772252,-1.5946744 1.9303942,-2.8399509 0.0057,-0.1340617 0.113933,-0.25445 0.252929,-0.2324234 0.134061,0.00569 0.238116,0.1188677 0.232424,0.2529294 -0.06076,1.4309905 -0.910701,2.6815869 -2.2182615,3.2637809 z M 12.053329,5.9176945 10.987305,6.3924112 c -0.0319,0.01405 -0.0657,0.020887 -0.09874,0.020887 -0.09305,0 -0.18191,-0.05355 -0.222168,-0.1443128 -0.05431,-0.1226672 7.78e-4,-0.2662218 0.123426,-0.3209111 L 11.85585,5.4733577 c 0.121528,-0.053168 0.26622,3.81e-4 0.320911,0.1234255 0.05431,0.1226672 -7.8e-4,0.2662215 -0.123428,0.320911 z"
     id="path1"
     style="stroke-width:0.388888" />
</svg>
