<?xml version="1.0" encoding="UTF-8"?><svg xmlns="http://www.w3.org/2000/svg" xml:space="preserve" id="Logos" x="0" y="0" version="1.1" viewBox="0 0 290.5 47.6" width="244" height="40"><path d="M52 43.5c-4.2 0-7.5-3.3-7.5-7.5s3.3-7.5 7.5-7.5 7.6 3.3 7.6 7.5-3.3 7.5-7.6 7.5zm0-12.9c-3 0-5.3 2.4-5.3 5.5s2.3 5.5 5.3 5.5 5.3-2.4 5.3-5.5-2.2-5.5-5.3-5.5zM61.7 32.8h2v1c.9-.8 2-1.2 3.2-1.2 3 0 5.3 2.4 5.3 5.4 0 3-2.3 5.4-5.4 5.4-1.1 0-2.3-.4-3.2-1v5.2h-2.1l.2-14.8zm2 2.9v4.8c.7.8 1.8 1.2 2.9 1.2 2 0 3.6-1.6 3.6-3.6 0-2.1-1.6-3.6-3.6-3.6-1.1-.1-2.2.4-2.9 1.2zM79.3 43.5c-3.1 0-5.5-2.4-5.5-5.5 0-3 2.3-5.4 5.3-5.4 2.9 0 5.1 2.4 5.1 5.5v.6h-8.3c.3 1.8 1.8 3 3.6 3 1 0 1.9-.3 2.7-.9l1.3 1.3c-1.2.9-2.7 1.4-4.2 1.4zm-3.4-6.3h6.3c-.3-1.6-1.6-2.8-3.1-2.8-1.6-.1-2.9 1.1-3.2 2.8zM86.1 32.8h2.1v1.1c.8-.8 2-1.3 3.2-1.3 2.4 0 4.1 1.7 4.1 4.1v6.6h-2.1V37c0-1.7-1-2.7-2.6-2.7-1 0-2 .5-2.6 1.4v7.6h-2.1V32.8zM98.2 39.4c1.6 1.5 3.2 2.3 5 2.3 2.1 0 3.5-1 3.5-2.4 0-1.3-.8-1.9-2.9-2.3l-2.4-.4c-2.7-.4-4-1.7-4-3.8 0-2.5 2.1-4.2 5.3-4.2 2.1 0 4.2.7 5.8 2l-1.2 1.7c-1.6-1.2-3.1-1.8-4.7-1.8-1.9 0-3.1.9-3.1 2.2 0 1.2.7 1.7 2.6 2.1l2.3.4c3.1.5 4.5 1.8 4.5 4 0 2.7-2.3 4.5-5.8 4.5-2.3 0-4.6-.9-6.2-2.6l1.3-1.7zM110.6 28.8l2.1-.5v5.5c.8-.8 2-1.3 3.2-1.3 2.4 0 4.1 1.7 4.1 4.1v6.6h-2.1V37c0-1.7-1-2.7-2.6-2.7-1 0-2 .5-2.6 1.4v7.6h-2.1V28.8zM122.1 29.8c0-.7.6-1.3 1.3-1.3.7 0 1.3.5 1.3 1.2s-.5 1.3-1.2 1.3h-.1c-.7.1-1.3-.5-1.3-1.2zm2.3 13.5h-2.1V32.8h2.1v10.5zM128.4 32.8v-1.6c0-2.2 1.3-3.4 3.6-3.4.5 0 1 .1 1.5.2v1.8c-.4-.1-.9-.2-1.3-.2-1.1 0-1.7.5-1.7 1.6v1.6h3v1.7h-3v8.8h-2.1v-8.8H126v-1.7h2.4zM136.6 34.5h-2.2v-1.7h2.2v-2.7l2-.5v3.2h3.1v1.7h-3.1v5.7c0 1.1.4 1.5 1.6 1.5.5 0 1-.1 1.5-.2v1.7c-.6.2-1.3.3-2 .3-2.1 0-3.1-1-3.1-2.8v-6.2z" class="co-svg-logo-text"/><path fill="#e00" d="M25.3 16.5c2.5 0 6.1-.5 6.1-3.5 0-.2 0-.5-.1-.7l-1.5-6.4c-.3-1.4-.6-2.1-3.1-3.3-1.9-1-6.1-2.6-7.4-2.6-1.2 0-1.5 1.5-2.9 1.5-1.3 0-2.3-1.1-3.6-1.1-1.2 0-2 .8-2.6 2.5 0 0-1.7 4.7-1.9 5.4 0 .1-.1.3 0 .4.1 1.8 7.3 7.8 17 7.8m6.5-2.2c.3 1.6.3 1.8.3 2 0 2.8-3.1 4.3-7.3 4.3-9.3 0-17.5-5.5-17.5-9.1 0-.5.1-1 .3-1.5-3.3.3-7.6.9-7.6 4.7 0 6.3 14.9 14 26.6 14 9 0 11.3-4.1 11.3-7.3 0-2.6-2.2-5.4-6.1-7.1"/><path d="M31.8 14.2c.3 1.6.3 1.8.3 2 0 2.8-3.1 4.3-7.3 4.3-9.3 0-17.5-5.4-17.5-9.1 0-.5.1-1 .3-1.5l.7-1.8c0 .1-.1.3 0 .4 0 1.8 7.2 7.9 16.9 7.9 2.5 0 6.1-.5 6.1-3.5 0-.2 0-.5-.1-.7l.6 2z"/><path d="M115.3 18.4c0 2.4 1.4 3.5 4 3.5.8 0 1.6-.1 2.4-.3v-2.7c-.5.2-1 .2-1.5.2-1.1 0-1.5-.3-1.5-1.3v-4.2h3.1v-2.8h-3.1V7.1l-3.4.7v2.9h-2.2v2.8h2.2v4.9zm-10.5 0c0-.7.7-1.1 1.8-1.1.7 0 1.4.1 2 .3V19c-.6.4-1.4.5-2.1.5-1.1.1-1.7-.4-1.7-1.1m1 3.5c1.2 0 2.2-.3 3.1-.9v.7h3.3v-7.1c0-2.7-1.8-4.2-4.9-4.2-1.7 0-3.4.4-5.2 1.2l1.2 2.5c1.3-.5 2.4-.9 3.4-.9 1.4 0 2.1.5 2.1 1.7v.5c-.8-.2-1.7-.3-2.5-.3-2.8 0-4.6 1.2-4.6 3.3.1 2.1 1.6 3.5 4.1 3.5m-18.4-.1H91V16h6v5.7h3.6V7.1H97v5.6h-6V7.1h-3.6v14.7zm-13.7-5.6c0-1.6 1.3-2.8 2.9-2.8.9 0 1.7.3 2.3.9v3.9c-.6.6-1.5.9-2.3.9-1.6-.1-2.9-1.3-2.9-2.9m5.3 5.5h3.4V6.4l-3.4.7v4.2c-.9-.5-1.8-.7-2.8-.7-3.2 0-5.8 2.5-5.8 5.7 0 3.1 2.4 5.7 5.5 5.7h.1c1.1 0 2.1-.3 3-1v.7zm-15.4-8.5c1.1 0 2 .7 2.3 1.8h-4.6c.4-1.1 1.2-1.8 2.3-1.8m-5.7 3c0 3.2 2.6 5.7 6 5.7 1.9 0 3.2-.5 4.6-1.7l-2.2-2c-.5.5-1.3.8-2.2.8-1.2 0-2.3-.7-2.7-1.8h7.9v-.8c0-3.5-2.4-6.1-5.6-6.1-3.1 0-5.7 2.5-5.8 5.6v.3m-5.8-6c1.2 0 1.9.8 1.9 1.7 0 .9-.7 1.7-1.9 1.7h-3.6v-3.3h3.6zm-7.2 11.6h3.6v-5.3h2.7l2.8 5.3h4l-3.2-5.9c1.7-.7 2.8-2.3 2.8-4.1 0-2.6-2.1-4.7-5.2-4.7h-7.5v14.7zM146.6 40.8l1.1-1.1c.7.8 1.5 1.4 2.4 1.8.8.4 1.7.6 2.7.6 1.1 0 2.1-.3 2.8-.8.7-.5 1.1-1.2 1.1-2 0-.7-.3-1.3-.8-1.7-.5-.4-1.4-.7-2.6-.9l-2.1-.3c-1.4-.2-2.4-.6-3.1-1.2-.7-.6-1-1.4-1-2.4 0-1.2.5-2.2 1.4-2.9.9-.7 2.2-1.1 3.7-1.1 1 0 2 .2 3 .5s1.9.8 2.7 1.4l-.9 1.2c-.8-.6-1.6-1-2.4-1.3-.8-.3-1.6-.5-2.5-.5-1 0-1.9.2-2.5.7-.6.5-1 1.1-1 1.8s.2 1.2.7 1.6c.5.4 1.2.6 2.3.8l2.1.3c1.6.3 2.7.7 3.4 1.3.7.6 1.1 1.5 1.1 2.6 0 .6-.1 1.2-.4 1.7-.3.5-.6 1-1.1 1.4-.5.4-1.1.7-1.8.9-.7.2-1.4.3-2.2.3-1.1 0-2.2-.2-3.3-.7-1-.4-2-1.1-2.8-2zM169.1 42.2c-.6.4-1.2.7-1.8 1-.6.2-1.3.3-2.1.3-.7 0-1.4-.1-2.1-.4-.7-.3-1.2-.7-1.7-1.1-.5-.5-.9-1.1-1.1-1.7-.3-.7-.4-1.4-.4-2.1 0-.7.1-1.4.4-2.1.3-.6.6-1.2 1.1-1.7.5-.5 1-.9 1.6-1.1.6-.3 1.3-.4 2-.4s1.3.1 1.9.4c.6.3 1.1.7 1.6 1.1.4.5.8 1 1 1.7.3.6.4 1.3.4 2.1v.5h-8.5c.1 1 .5 1.9 1.3 2.5.7.7 1.6 1 2.6 1 .5 0 1.1-.1 1.6-.2.5-.2.9-.4 1.3-.7l.9.9zm-4.1-8.1c-.9 0-1.7.3-2.3.9-.7.6-1.1 1.4-1.2 2.3h6.9c-.1-.9-.5-1.7-1.2-2.3-.6-.6-1.4-.9-2.2-.9zM172 43.3V32.9h1.5v1.5c.3-.5.7-1 1.2-1.3.5-.3 1.1-.4 1.7-.4h.5c.2 0 .3.1.5.1v1.4c-.2-.1-.4-.1-.5-.1-.2 0-.4-.1-.5-.1-.6 0-1.2.2-1.7.5-.5.4-.9.9-1.1 1.6v7.1H172zM182.9 43.3l-4.5-10.4h1.7l3.5 8.4 3.5-8.4h1.6l-4.5 10.4h-1.3zM191 30.9c-.3 0-.5-.1-.7-.3-.2-.2-.3-.4-.3-.7 0-.3.1-.5.3-.7.2-.2.4-.3.7-.3.3 0 .5.1.7.3.2.2.3.4.3.7 0 .3-.1.5-.3.7-.2.2-.4.3-.7.3zm.8 2v10.4h-1.5V32.9h1.5zM199.2 42.1c.6 0 1.1-.1 1.6-.3.5-.2 1-.5 1.4-1l1 1c-.6.5-1.2.9-1.9 1.2-.7.3-1.4.4-2.2.4-.7 0-1.4-.1-2.1-.4-.6-.3-1.2-.7-1.7-1.1-.5-.5-.8-1.1-1.1-1.7-.3-.7-.4-1.4-.4-2.1 0-.7.1-1.4.4-2.1.3-.7.6-1.2 1.1-1.7.5-.5 1-.9 1.7-1.1.6-.3 1.3-.4 2.1-.4.7 0 1.5.1 2.2.4.7.3 1.3.7 1.9 1.2l-1 1.1c-.4-.4-.9-.8-1.4-1-.5-.2-1.1-.4-1.6-.4s-1 .1-1.5.3c-.5.2-.9.5-1.2.8-.3.4-.6.8-.8 1.3-.2.5-.3 1-.3 1.6 0 .6.1 1.1.3 1.6.2.5.5.9.8 1.3.3.4.7.6 1.2.8.5.2 1 .3 1.5.3zM213.3 42.2c-.6.4-1.2.7-1.8 1-.6.2-1.3.3-2.1.3-.7 0-1.4-.1-2.1-.4-.7-.3-1.2-.7-1.7-1.1-.5-.5-.9-1.1-1.1-1.7-.3-.7-.4-1.4-.4-2.1 0-.7.1-1.4.4-2.1.3-.6.6-1.2 1.1-1.7.5-.5 1-.9 1.6-1.1.6-.3 1.3-.4 2-.4s1.3.1 1.9.4c.6.3 1.1.7 1.6 1.1.4.5.8 1 1 1.7.3.6.4 1.3.4 2.1v.5h-8.5c.1 1 .5 1.9 1.3 2.5.7.7 1.6 1 2.6 1 .5 0 1.1-.1 1.6-.2.5-.2.9-.4 1.3-.7l.9.9zm-4.1-8.1c-.9 0-1.7.3-2.3.9-.7.6-1.1 1.4-1.2 2.3h6.9c-.1-.9-.5-1.7-1.2-2.3-.6-.6-1.4-.9-2.2-.9zM220.2 38.1c0-.7.1-1.4.4-2.1.3-.7.7-1.2 1.1-1.7.5-.5 1-.9 1.7-1.1.6-.3 1.3-.4 2.1-.4.7 0 1.4.1 2.1.4.6.3 1.2.7 1.7 1.1.5.5.9 1.1 1.1 1.7.3.7.4 1.4.4 2.1 0 .8-.1 1.5-.4 2.1-.3.7-.7 1.2-1.1 1.7-.5.5-1 .9-1.7 1.1-.6.3-1.3.4-2.1.4-.7 0-1.4-.1-2.1-.4-.6-.3-1.2-.7-1.7-1.1-.5-.5-.9-1.1-1.1-1.7-.2-.6-.4-1.3-.4-2.1zm5.3 4c.5 0 1-.1 1.5-.3.5-.2.9-.5 1.2-.9.3-.4.6-.8.8-1.3.2-.5.3-1 .3-1.6 0-.6-.1-1.1-.3-1.6-.2-.5-.5-.9-.8-1.3-.3-.4-.7-.6-1.2-.8-.5-.2-1-.3-1.5-.3s-1 .1-1.5.3c-.5.2-.9.5-1.2.8-.3.4-.6.8-.8 1.3-.2.5-.3 1-.3 1.6 0 .6.1 1.1.3 1.6.2.5.5.9.8 1.3.3.4.7.7 1.2.9.5.2 1 .3 1.5.3zM233 43.3V32.9h1.5v1.2c.4-.5.9-.8 1.4-1.1.6-.2 1.2-.4 1.8-.4 1.2 0 2.1.4 2.9 1.1.7.7 1.1 1.7 1.1 2.9v6.6h-1.5v-6.3c0-.9-.3-1.6-.8-2.2-.5-.5-1.2-.8-2.1-.8-.6 0-1.2.1-1.7.4-.5.3-.9.7-1.2 1.2v7.6H233zM247.5 43.3l6-14.5h1.9l5.9 14.5h-1.7l-1.8-4.6H251l-1.8 4.6h-1.7zm4.1-5.9h5.7l-2.8-7.1-2.9 7.1zM266 43.3h-1.6l-3.1-14.5h1.6l2.5 12 3.6-12h1.6l3.6 11.9 2.5-11.9h1.6L275 43.3h-1.6L269.7 31 266 43.3zM278.9 40.8l1.1-1.1c.7.8 1.5 1.4 2.4 1.8.8.4 1.7.6 2.7.6 1.1 0 2.1-.3 2.8-.8.7-.5 1.1-1.2 1.1-2 0-.7-.3-1.3-.8-1.7-.5-.4-1.4-.7-2.6-.9l-2.1-.3c-1.4-.2-2.4-.6-3.1-1.2-.7-.6-1-1.4-1-2.4 0-1.2.5-2.2 1.4-2.9.9-.7 2.2-1.1 3.7-1.1 1 0 2 .2 3 .5s1.9.8 2.7 1.4l-.9 1.2c-.8-.6-1.6-1-2.4-1.3-.8-.3-1.6-.5-2.5-.5-1 0-1.9.2-2.5.7-.6.5-1 1.1-1 1.8s.2 1.2.7 1.6c.5.4 1.2.6 2.3.8l2.1.3c1.6.3 2.7.7 3.4 1.3.7.6 1.1 1.5 1.1 2.6 0 .6-.1 1.2-.4 1.7-.3.5-.6 1-1.1 1.4-.5.4-1.1.7-1.8.9-.7.2-1.4.3-2.2.3-1.1 0-2.2-.2-3.3-.7-1.1-.4-2.1-1.1-2.8-2z" class="co-svg-logo-text"/></svg>
