<?xml version="1.0" encoding="utf-8"?>
<!-- Generator: Adobe Illustrator 21.1.0, SVG Export Plug-In . SVG Version: 6.00 Build 0)  -->
<svg version="1.1" id="Layer_1" xmlns="http://www.w3.org/2000/svg" xmlns:xlink="http://www.w3.org/1999/xlink" x="0px" y="0px"
     viewBox="0 0 191 14" width="191px" height="14px" style="enable-background:new 0 0 191 14;" xml:space="preserve">
<style type="text/css">
    .st0{fill:#FFFFFF;}
</style>
<title>logo-origin-thin</title>
<g id="Page-1">
    <path id="OPENSHIFT" class="st0" d="M11.8,7c0,2-0.5,3.6-1.5,4.7s-2.5,1.6-4.4,1.6c-1.9,0-3.4-0.5-4.4-1.6S0,9,0,7
        c0-2,0.5-3.6,1.5-4.6S4,0.8,5.9,0.8c1.9,0,3.4,0.5,4.4,1.6S11.8,4.9,11.8,7L11.8,7z M3.5,7c0,2.3,0.8,3.5,2.4,3.5
        c0.8,0,1.4-0.3,1.8-0.9S8.4,8.2,8.4,7c0-1.2-0.2-2.1-0.6-2.7s-1-0.9-1.8-0.9C4.3,3.4,3.5,4.6,3.5,7L3.5,7z M26.8,4.8
        c0,1.4-0.4,2.4-1.2,3.1s-1.9,1.1-3.4,1.1h-0.9v4H18V0.9h4.2c1.5,0,2.7,0.3,3.5,1S26.8,3.6,26.8,4.8L26.8,4.8z M21.3,6.4h0.6
        c0.5,0,0.9-0.1,1.2-0.4s0.4-0.7,0.4-1.1c0-0.8-0.5-1.2-1.4-1.2h-0.8V6.4z M39.9,13.1h-7.2V0.9h7.2v2.6H36v1.9h3.6v2.6H36v2.3h3.9
        V13.1z M57.6,13.1h-4.3l-4.4-8.5h-0.1C48.9,5.9,49,6.9,49,7.6v5.5h-2.9V0.9h4.3l4.4,8.4h0c-0.1-1.2-0.1-2.2-0.1-2.9V0.9h2.9V13.1z
         M72.2,9.4c0,0.8-0.2,1.4-0.6,2s-0.9,1-1.7,1.4s-1.6,0.5-2.5,0.5c-0.8,0-1.5-0.1-2-0.2s-1.1-0.3-1.7-0.6V9.6c0.6,0.3,1.3,0.6,2,0.8
        s1.3,0.3,1.9,0.3c0.5,0,0.8-0.1,1.1-0.3s0.3-0.4,0.3-0.7c0-0.2,0-0.3-0.1-0.4S68.5,9,68.3,8.9s-0.7-0.4-1.6-0.8
        c-0.8-0.4-1.4-0.7-1.8-1S64.2,6.3,64,5.9s-0.3-1-0.3-1.6c0-1.1,0.4-2,1.2-2.6s1.9-0.9,3.4-0.9c1.3,0,2.5,0.3,3.8,0.9l-1,2.5
        c-1.1-0.5-2.1-0.8-2.9-0.8c-0.4,0-0.7,0.1-0.9,0.2S67,4,67,4.2c0,0.2,0.1,0.5,0.4,0.6s0.9,0.5,2,1c1,0.5,1.8,1,2.2,1.5
        S72.2,8.6,72.2,9.4L72.2,9.4z M88.5,13.1h-3.3V8.1h-3.8v4.9h-3.3V0.9h3.3v4.5h3.8V0.9h3.3V13.1z M95.1,13.1V0.9h3.3v12.1H95.1z
         M108.2,13.1H105V0.9h7.2v2.6h-3.9v2.3h3.6v2.6h-3.6V13.1z M123.5,13.1h-3.3V3.6h-3V0.9h9.2v2.7h-3V13.1z"/>
    <path id="ORIGIN" class="st0" d="M146.3,7c0,1.9-0.5,3.5-1.5,4.6s-2.3,1.7-4.1,1.7c-1.8,0-3.2-0.5-4.1-1.6S135.2,9,135.2,7
        c0-2,0.5-3.5,1.5-4.6s2.4-1.6,4.2-1.6c1.7,0,3.1,0.6,4.1,1.7S146.3,5,146.3,7L146.3,7z M136.7,7c0,1.6,0.4,2.9,1.1,3.7
        s1.7,1.3,3.1,1.3c1.3,0,2.4-0.4,3-1.3s1-2.1,1-3.7c0-1.6-0.3-2.9-1-3.7s-1.7-1.3-3-1.3c-1.3,0-2.4,0.4-3.1,1.3S136.7,5.4,136.7,7
        L136.7,7z M150.5,8v5H149V0.9h3.3c1.5,0,2.6,0.3,3.3,0.9s1.1,1.4,1.1,2.6c0,1.6-0.8,2.7-2.4,3.3l3.3,5.5h-1.7L153,8H150.5z
         M150.5,6.8h1.9c1,0,1.7-0.2,2.2-0.6s0.7-1,0.7-1.8c0-0.8-0.2-1.4-0.7-1.7s-1.2-0.5-2.3-0.5h-1.8V6.8z M159.6,13.1V0.9h1.4v12.1
        H159.6z M169.6,6.7h4.1v5.9c-0.6,0.2-1.3,0.4-2,0.5s-1.4,0.2-2.3,0.2c-1.8,0-3.3-0.5-4.3-1.6S163.7,9,163.7,7
        c0-1.3,0.3-2.4,0.8-3.3s1.2-1.7,2.2-2.2s2.1-0.8,3.3-0.8c1.3,0,2.5,0.2,3.6,0.7L173,2.7c-1.1-0.5-2.1-0.7-3.2-0.7
        c-1.5,0-2.6,0.4-3.5,1.3s-1.2,2.1-1.2,3.7c0,1.6,0.4,2.9,1.2,3.7s2,1.3,3.5,1.3c0.8,0,1.7-0.1,2.5-0.3V8h-2.7V6.7z M176.7,13.1V0.9
        h1.4v12.1H176.7z M190.9,13.1h-1.6l-6.6-10.2h-0.1c0.1,1.2,0.1,2.3,0.1,3.3v6.9h-1.3V0.9h1.6l6.6,10.1h0.1c0-0.1,0-0.6-0.1-1.4
        s-0.1-1.4,0-1.7v-7h1.3V13.1z"/>
</g>
</svg>
