<?xml version="1.0" encoding="utf-8"?><!DOCTYPE svg PUBLIC "-//W3C//DTD SVG 1.1//EN" "http://www.w3.org/Graphics/SVG/1.1/DTD/svg11.dtd"><svg version="1.1" id="Layer_1" xmlns="http://www.w3.org/2000/svg" xmlns:xlink="http://www.w3.org/1999/xlink" x="0px" y="0px" width="193.367px" height="12.062px" viewBox="0 -1.517 193.367 12.062" enable-background="new 0 -1.517 193.367 12.062" xml:space="preserve"><g id="Layer_1_2_" display="none"><g id="Layer_1_1_" display="inline"><text transform="matrix(1 0 0 1 113.9214 10.9968)" font-family="'OpenSans'" font-size="14">ONLINE</text></g><g id="Layer_2" display="inline"><g><path d="M9.561,6.054c0,1.653-0.406,2.911-1.217,3.771c-0.812,0.859-2,1.291-3.563,1.291c-1.54,0-2.724-0.436-3.546-1.299C0.411,8.955,0,7.694,0,6.041c0-1.635,0.409-2.885,1.228-3.748C2.044,1.431,3.235,1,4.793,1c1.563,0,2.75,0.428,3.557,1.285C9.157,3.138,9.561,4.396,9.561,6.054z M2.797,6.054c0,1.899,0.662,2.852,1.981,2.852c0.674,0,1.172-0.23,1.496-0.691C6.6,7.752,6.763,7.031,6.763,6.054c0-0.982-0.164-1.708-0.493-2.178c-0.33-0.465-0.822-0.7-1.478-0.7C3.463,3.177,2.797,4.135,2.797,6.054z"/><path d="M22.254,4.279c0,1.098-0.324,1.945-0.971,2.545c-0.648,0.6-1.568,0.897-2.76,0.897h-0.747v3.26h-2.654v-9.83h3.4c1.24,0,2.173,0.271,2.796,0.812S22.254,3.281,22.254,4.279z M17.778,5.556h0.484c0.398,0,0.717-0.111,0.952-0.338c0.235-0.225,0.354-0.532,0.354-0.928c0-0.664-0.367-0.995-1.104-0.995h-0.687L17.778,5.556L17.778,5.556z"/><path d="M33.444,10.981h-5.835v-9.83h5.835v2.132h-3.181v1.545h2.945v2.133h-2.945v1.854h3.181V10.981z"/><path d="M48.311,10.981H44.83l-3.591-6.924h-0.062c0.085,1.089,0.128,1.92,0.128,2.492v4.432h-2.353v-9.83h3.469l3.577,6.83h0.04c-0.062-0.989-0.095-1.784-0.095-2.385V1.152h2.366L48.311,10.981L48.311,10.981z"/><path d="M60.648,7.998c0,0.605-0.153,1.146-0.463,1.623c-0.311,0.477-0.756,0.84-1.339,1.104c-0.582,0.262-1.267,0.396-2.051,0.396c-0.654,0-1.203-0.047-1.646-0.139c-0.442-0.092-0.905-0.254-1.386-0.482V8.131c0.508,0.262,1.034,0.463,1.581,0.609c0.546,0.145,1.05,0.217,1.507,0.217c0.396,0,0.685-0.064,0.866-0.205c0.184-0.137,0.276-0.312,0.276-0.525c0-0.137-0.037-0.252-0.11-0.354c-0.073-0.104-0.191-0.205-0.355-0.309c-0.162-0.104-0.601-0.312-1.309-0.63c-0.641-0.293-1.121-0.575-1.441-0.851c-0.32-0.271-0.56-0.588-0.713-0.939c-0.154-0.354-0.231-0.773-0.231-1.257c0-0.906,0.33-1.61,0.988-2.118c0.659-0.506,1.563-0.762,2.716-0.762c1.018,0,2.056,0.235,3.112,0.706l-0.812,2.052c-0.919-0.423-1.712-0.635-2.38-0.635c-0.346,0-0.598,0.062-0.753,0.184c-0.157,0.121-0.235,0.271-0.235,0.451c0,0.189,0.101,0.363,0.3,0.518c0.199,0.154,0.74,0.43,1.624,0.834c0.848,0.381,1.437,0.789,1.766,1.226C60.483,6.783,60.648,7.334,60.648,7.998z"/><path d="M74.377,10.981h-2.668V6.975h-3.086v4.005h-2.668V1.15h2.668v3.644h3.086V1.152h2.668V10.981z"/><path d="M80.288,10.981v-9.83h2.668v9.83H80.288z"/><path d="M91.485,10.981H88.87v-9.83h5.81v2.132h-3.194v1.875h2.943v2.131h-2.943L91.485,10.981L91.485,10.981z"/><path d="M104.416,10.981h-2.656V3.326h-2.397V1.152h7.446v2.172h-2.393V10.981z"/></g></g><rect x="57.698" y="5.824" display="inline" fill="none" width="48.833" height="0.667"/></g><g id="Layer_2_1_"></g><g id="Layer_3"><g><g><g><path fill="#FFFFFF" d="M11.353,4.487c0,1.964-0.482,3.457-1.445,4.479c-0.964,1.021-2.375,1.531-4.232,1.531c-1.83,0-3.234-0.516-4.211-1.541C0.487,7.931,0,6.435,0,4.469c0-1.94,0.485-3.427,1.457-4.449c0.97-1.024,2.383-1.535,4.234-1.535c1.857,0,3.266,0.508,4.224,1.524C10.874,1.024,11.353,2.517,11.353,4.487z M3.322,4.487c0,2.257,0.786,3.386,2.354,3.386c0.799,0,1.39-0.272,1.776-0.82c0.386-0.55,0.579-1.403,0.579-2.563c0-1.166-0.195-2.027-0.586-2.583C7.053,1.35,6.468,1.071,5.691,1.071C4.112,1.069,3.322,2.208,3.322,4.487z"/><path fill="#FFFFFF" d="M26.427,2.378c0,1.306-0.385,2.312-1.153,3.021c-0.77,0.711-1.862,1.064-3.276,1.064h-0.887v3.871h-3.153V-1.336h4.039c1.474,0,2.581,0.321,3.32,0.968C26.056,0.277,26.427,1.192,26.427,2.378z M21.111,3.895h0.576c0.473,0,0.851-0.131,1.131-0.399c0.279-0.267,0.419-0.634,0.419-1.102c0-0.789-0.437-1.183-1.31-1.183h-0.815L21.111,3.895L21.111,3.895z"/><path fill="#FFFFFF" d="M39.714,10.336h-6.929V-1.336h6.929v2.53h-3.776V3.03h3.498v2.531h-3.498v2.205h3.776V10.336z"/><path fill="#FFFFFF" d="M57.368,10.336h-4.135L48.97,2.113h-0.074c0.101,1.293,0.152,2.28,0.152,2.962v5.263h-2.794V-1.336h4.12l4.248,8.109h0.047c-0.074-1.175-0.111-2.12-0.111-2.833v-5.276h2.81V10.336L57.368,10.336z"/><path fill="#FFFFFF" d="M72.018,6.792c0,0.724-0.183,1.364-0.549,1.928c-0.368,0.562-0.897,0.998-1.589,1.31c-0.691,0.312-1.505,0.471-2.436,0.471c-0.777,0-1.429-0.055-1.955-0.164c-0.526-0.106-1.076-0.299-1.645-0.569V6.951c0.603,0.31,1.229,0.55,1.877,0.726c0.648,0.175,1.246,0.259,1.789,0.259c0.468,0,0.812-0.08,1.029-0.244c0.217-0.162,0.328-0.371,0.328-0.626c0-0.16-0.043-0.3-0.131-0.418c-0.087-0.12-0.228-0.242-0.422-0.364S67.601,5.91,66.76,5.534c-0.761-0.348-1.331-0.682-1.712-1.007c-0.381-0.324-0.664-0.697-0.847-1.118c-0.185-0.42-0.275-0.917-0.275-1.491c0-1.076,0.392-1.912,1.174-2.517C65.883-1.2,66.957-1.5,68.324-1.5c1.209,0,2.442,0.278,3.697,0.838l-0.966,2.436c-1.091-0.5-2.033-0.751-2.826-0.751c-0.41,0-0.709,0.071-0.895,0.216s-0.279,0.323-0.279,0.536c0,0.229,0.119,0.435,0.355,0.614c0.237,0.181,0.879,0.511,1.929,0.988c1.005,0.451,1.705,0.938,2.095,1.456C71.822,5.352,72.018,6.005,72.018,6.792z"/><path fill="#FFFFFF" d="M88.323,10.336h-3.169V5.578h-3.666v4.757h-3.167V-1.336h3.167V2.99h3.666v-4.326h3.168L88.323,10.336L88.323,10.336z"/><path fill="#FFFFFF" d="M95.342,10.336V-1.336h3.167v11.671L95.342,10.336L95.342,10.336z"/><path fill="#FFFFFF" d="M108.637,10.336h-3.104V-1.336h6.897v2.53h-3.793v2.229h3.495v2.529h-3.495V10.336z"/><path fill="#FFFFFF" d="M123.992,10.336h-3.154V1.244h-2.848v-2.58h8.844v2.579h-2.842V10.336z"/></g></g><g id="Layer_1_3_"><g enable-background="new    "><path fill="#FFFFFF" d="M146.378,4.51c0,1.875-0.475,3.351-1.424,4.425c-0.947,1.073-2.266,1.61-3.953,1.61c-1.728,0-3.06-0.526-3.996-1.582c-0.938-1.057-1.406-2.545-1.406-4.47c0-1.907,0.47-3.385,1.41-4.436c0.939-1.052,2.275-1.575,4.008-1.575c1.684,0,2.997,0.534,3.941,1.603C145.906,1.156,146.378,2.631,146.378,4.51z M137.041,4.51c0,1.587,0.338,2.789,1.015,3.609c0.677,0.822,1.657,1.232,2.946,1.232c1.297,0,2.277-0.41,2.94-1.228c0.662-0.817,0.992-2.022,0.992-3.615c0-1.576-0.329-2.771-0.988-3.586c-0.661-0.814-1.637-1.222-2.93-1.222c-1.298,0-2.285,0.41-2.962,1.23C137.378,1.753,137.041,2.946,137.041,4.51z"/><path fill="#FFFFFF" d="M158.144,10.385h-1.555l-6.404-9.834h-0.064c0.086,1.154,0.129,2.213,0.129,3.175v6.661h-1.258v-11.72h1.538l6.388,9.794h0.063c-0.01-0.143-0.034-0.606-0.071-1.391c-0.037-0.783-0.051-1.343-0.039-1.679v-6.726h1.273V10.385L158.144,10.385z"/><path fill="#FFFFFF" d="M161.365,10.385V-1.332h1.362V9.152h5.17v1.233H161.365z"/><path fill="#FFFFFF" d="M169.884,10.385V-1.332h1.363v11.718H169.884z"/><path fill="#FFFFFF" d="M183.614,10.385h-1.556l-6.403-9.834h-0.063c0.086,1.154,0.128,2.213,0.128,3.175v6.661h-1.259v-11.72H176l6.388,9.794h0.063c-0.01-0.143-0.035-0.606-0.07-1.391c-0.037-0.783-0.051-1.343-0.041-1.679v-6.726h1.275L183.614,10.385L183.614,10.385z"/><path fill="#FFFFFF" d="M193.367,10.385h-6.533V-1.332h6.533v1.21h-5.17v3.775h4.856v1.203h-4.856v4.311h5.17V10.385z"/></g></g></g></g></svg>
