<svg enable-background="new 0 0 165.8 40" height="40" viewBox="0 0 165.8 40" width="165.8" xmlns="http://www.w3.org/2000/svg"><g fill="#fff"><path d="m58 10.7-1.6-3.3h-1.1v3.3h-2.7v-9.9h4.4c.5 0 1.1.1 1.6.2.4.1.9.3 1.2.6s.6.6.8 1c.2.5.3 1 .3 1.5 0 .6-.1 1.3-.5 1.8-.3.5-.8.9-1.3 1.1l2 3.8h-3.1zm-.1-7.4c-.3-.2-.6-.3-.9-.3h-1.7v2.2h1.6c.4 0 .7-.1 1-.3.2-.2.3-.5.3-.8s-.1-.6-.3-.8z"/><path d="m63.2 10.7v-9.9h7.6v2.3h-4.9v1.3h3v2.3h-3v1.7h5v2.3z"/><path d="m81.3 8.1c-.2.6-.6 1.1-1 1.5-.5.4-1.1.7-1.7.9-.8.2-1.5.3-2.3.3h-3.3v-10h3.5c.7 0 1.4.1 2.1.2.6.1 1.1.4 1.6.8s.8.9 1 1.5c.3.8.4 1.6.4 2.4.1.8-.1 1.6-.3 2.4zm-2.6-3.5c-.1-.3-.2-.6-.4-.8s-.4-.4-.7-.5c-.4-.1-.7-.2-1.1-.1h-.7v5.2h.6c.4 0 .7 0 1.1-.1.3-.1.5-.2.7-.4s.4-.5.4-.8c.1-.4.1-.8.1-1.2.1-.6.1-.9 0-1.3z"/><path d="m94.7 10.7v-3.9h-3.1v3.9h-2.8v-9.9h2.8v3.6h3.1v-3.6h2.8v9.9z"/><path d="m106.4 10.7-.5-1.8h-3l-.5 1.8h-3l3.6-9.9h2.8l3.6 9.9zm-1.4-4.6-.2-.8-.2-.6c-.1-.2-.1-.4-.1-.5 0-.2-.1-.3-.1-.5 0 .2-.1.3-.1.5s-.1.3-.1.5l-.2.6c-.1.2-.1.5-.2.8l-.2.7h1.6z"/><path d="m115 3.2v7.5h-2.7v-7.5h-2.8v-2.4h8.3v2.4z"/><path d="m121.4 2.5c-.1.2-.2.3-.3.4s-.3.2-.4.3c-.2.1-.3.1-.5.1s-.3 0-.5-.1-.3-.2-.4-.3-.2-.3-.3-.4c0-.2 0-.3 0-.5s0-.3.1-.5.2-.3.3-.4.3-.2.4-.3c.2-.1.3-.1.5-.1s.3 0 .5.1.3.2.4.3.2.3.3.4c.1.3.1.7-.1 1zm-.1-.9c-.1-.1-.1-.2-.2-.3s-.2-.2-.3-.2c-.3-.1-.6-.1-.9 0-.1.1-.2.1-.3.2s-.2.2-.2.3c-.1.3-.1.6 0 .8.1.1.1.2.2.3.3.3.8.4 1.2.2.1-.1.2-.1.3-.2s.2-.2.2-.3c.1-.2.1-.5 0-.8zm-.5.4c-.1.1-.1.1-.2.1l.3.6h-.3l-.3-.5h-.3v.5h-.2v-1.4h.6.2s.1 0 .1.1l.1.1v.2zm-.3-.4s-.1 0-.2 0h-.3v.4h.4.2l.1-.1c-.1-.2-.1-.3-.2-.3z"/><path d="m63.9 24.1c-.3.9-.7 1.7-1.2 2.4s-1.2 1.2-2 1.6-1.7.6-2.5.6c-1.7 0-3.4-.8-4.5-2.2-.6-.7-1-1.5-1.2-2.4-.3-1-.4-2.1-.4-3.1s.1-2.1.4-3.1c.3-.9.7-1.7 1.3-2.4.5-.7 1.2-1.2 2-1.6s1.7-.6 2.5-.6c1.7 0 3.4.8 4.4 2.2.6.7 1 1.6 1.3 2.4.3 1 .5 2 .4 3.1-.1 1-.2 2.1-.5 3.1zm-1.6-5.6c-.2-.7-.5-1.4-1-2-.4-.5-.9-1-1.4-1.3-.6-.3-1.2-.4-1.8-.4s-1.2.1-1.8.4-1 .7-1.4 1.2c-.4.6-.7 1.2-.9 1.9-.2.8-.4 1.7-.3 2.5 0 .9.1 1.7.4 2.5.2.7.5 1.4 1 2 .4.5.9 1 1.4 1.3.6.3 1.2.4 1.8.4s1.2-.1 1.8-.4 1.1-.7 1.4-1.2c.4-.6.7-1.2.9-1.9.2-.8.3-1.7.3-2.5s-.1-1.7-.4-2.5z"/><path d="m77.5 20c-.2.6-.6 1-1 1.4-.5.4-1 .7-1.6.9-.7.2-1.4.3-2 .3h-3.6v5.8h-1.7v-14.8h5.6c.6 0 1.3.1 1.9.3s1.1.4 1.5.8.8.9 1 1.4c.3.6.4 1.3.4 2-.1.6-.2 1.2-.5 1.9zm-2.1-4.2c-.7-.6-1.5-.8-2.4-.8h-3.9v6h3.6c2.2 0 3.4-1 3.4-3 .2-.8-.1-1.6-.7-2.2z"/><path d="m80.7 28.4v-14.8h9v1.5h-7.3v4.7h4.3v1.5h-4.3v5.7h7.7v1.5h-9.4z"/><path d="m102.4 28.4-6.5-10.2c-.1-.1-.2-.3-.3-.5l-.3-.5c-.1-.2-.2-.3-.3-.5-.1-.1-.1-.3-.2-.4v12.1h-1.6v-14.8h1.6l6.4 10.4c.1.1.2.3.3.5l.3.5c.1.2.2.3.3.5.1.1.1.3.2.4v-12.3h1.6v14.9h-1.5z"/><path d="m116.7 26.2c-.2.5-.5 1-1 1.3-.5.4-1 .7-1.6.9-.7.2-1.4.3-2.1.3-1 0-1.9-.2-2.8-.6-.8-.4-1.5-.9-2.2-1.5l1.1-1.2c.5.5 1.2 1 1.8 1.3.7.3 1.4.5 2.1.5.8.1 1.7-.2 2.4-.7.6-.4.9-1.1.9-1.9 0-.3-.1-.6-.2-.9s-.3-.6-.6-.8c-.3-.3-.7-.5-1.1-.7-.5-.3-1.1-.5-1.7-.7-.7-.2-1.4-.5-2-.9-.5-.2-.9-.6-1.3-.9-.3-.3-.6-.7-.7-1.1-.2-.5-.2-.9-.2-1.4 0-1.1.4-2.1 1.3-2.8.4-.3.9-.6 1.5-.8s1.3-.3 1.9-.3c.9 0 1.7.1 2.5.4.7.3 1.4.7 2 1.2l-1.1 1.3c-.5-.4-1-.8-1.6-1s-1.3-.4-1.9-.4c-.4 0-.9.1-1.3.2-.3.1-.6.3-.9.5-.2.2-.4.4-.5.7s-.2.6-.2.8c0 .3 0 .6.1.8.1.3.3.5.5.7.3.3.7.5 1.1.7.6.3 1.2.5 1.8.7.7.2 1.4.5 2.1.9.5.2.9.6 1.3.9.3.3.6.7.7 1.2s.2 1 .2 1.5c0 .7-.1 1.3-.3 1.8z"/><path d="m129.5 28.4v-7h-7.4v7h-1.7v-14.8h1.7v6.4h7.4v-6.4h1.7v14.9h-1.7z"/><path d="m135.2 28.4v-14.8h1.7v14.9h-1.7z"/><path d="m142.5 15.1v4.9h4.1v1.5h-4.1v6.9h-1.7v-14.8h8.7v1.5z"/><path d="m157.7 15.1v13.4h-1.7v-13.4h-4.4v-1.5h10.4v1.5z"/><path d="m165.7 15.3c-.1.2-.2.3-.3.4s-.3.2-.4.3c-.3.1-.7.1-1 0-.2-.1-.3-.1-.4-.3-.1-.1-.2-.3-.3-.4-.1-.3-.1-.7 0-1 .1-.2.2-.3.3-.4.4-.4.9-.5 1.4-.3.2.1.3.2.4.3s.2.3.3.4c.2.3.2.7 0 1zm-.1-.9c-.1-.1-.1-.2-.2-.3s-.2-.2-.3-.2c-.3-.1-.6-.1-.8 0-.1.1-.2.1-.3.2s-.2.2-.2.3c-.1.3-.1.6 0 .8.1.3.3.5.6.6s.6.1.8 0c.1-.1.2-.1.3-.2s.2-.2.2-.3c0-.3 0-.6-.1-.9zm-.5.4c-.1.1-.1.1-.2.1l.3.6h-.3l-.3-.5h-.3v.5h-.2v-1.4h.6.2c.1 0 .1 0 .1.1l.1.1v.2zm-.3-.4s-.1 0-.2 0h-.4v.4h.4.2l.1-.1c0-.3 0-.3-.1-.3z"/><path d="m56.9 38.8c-.5.2-1 .4-1.5.4-.4 0-.9-.1-1.3-.3s-.7-.5-1-.8c-.3-.4-.5-.8-.6-1.2-.3-1-.3-2.1 0-3.1.1-.4.3-.9.6-1.2s.6-.6 1-.8.9-.3 1.3-.3c.5 0 1.1.1 1.5.4s.7.6 1 1l-1 .6c-.2-.3-.4-.5-.6-.7-.3-.2-.6-.2-.9-.2-.6 0-1.2.2-1.5.7-.4.6-.5 1.3-.5 2s.1 1.4.5 2c.3.5.9.8 1.5.7.3 0 .7-.1 1-.2.3-.2.5-.4.7-.7l.9.6c-.3.5-.6.9-1.1 1.1z"/><path d="m63.7 37.5c-.1.3-.3.7-.5.9-.2.3-.5.5-.8.6s-.7.2-1 .2c-.7 0-1.3-.3-1.8-.8-.2-.3-.4-.6-.5-.9-.2-.8-.2-1.6 0-2.4.1-.3.3-.7.5-.9.2-.3.5-.5.8-.6s.6-.2 1-.2c.7 0 1.3.3 1.8.8.2.3.4.6.5.9.1.4.2.8.2 1.2s-.1.8-.2 1.2zm-1.3-2.6c-.2-.3-.6-.5-1-.5s-.8.2-1 .5c-.3.4-.4.9-.4 1.3 0 .5.1 1 .4 1.4.2.3.6.5 1 .5.2 0 .4 0 .6-.1s.3-.2.4-.4.2-.4.3-.6.1-.5.1-.7c.1-.5-.1-1-.4-1.4z"/><path d="m68.7 39.1v-3.1c0-.4-.1-.8-.3-1.2-.2-.2-.5-.4-.8-.3-.3 0-.6.1-.8.4s-.3.7-.3 1.1v3.2h-1.1v-5.6h1.1v.4c.1-.2.4-.4.6-.5.3-.1.5-.2.8-.2.6 0 1.1.2 1.5.6.4.6.6 1.2.5 1.9v3.2z"/><path d="m73.9 38.9c-.1.1-.3.1-.5.2-.2 0-.4.1-.6.1-.3 0-.7-.1-.9-.4s-.4-.7-.3-1.1v-3.2h-.8v-1h.8v-1.6l1.1-.6v2.2h1.4v1h-1.4v3c0 .2 0 .4.1.5s.3.1.4.1.3 0 .4-.1c.1 0 .3-.1.4-.2z"/><path d="m78.6 39.1v-.5c-.2.2-.4.4-.7.5s-.6.2-.9.2c-.2 0-.5 0-.7-.1s-.4-.2-.6-.3c-.2-.2-.3-.4-.4-.6-.1-.3-.2-.6-.2-.9s.1-.6.2-.8.3-.4.5-.6.5-.3.7-.3c.3-.1.6-.1.9-.1.4 0 .9.1 1.2.2v-.4c0-.3-.1-.5-.3-.7s-.5-.3-.8-.2c-.3 0-.5 0-.8.1-.2.1-.5.1-.7.3l-.4-.8c.3-.2.6-.3.9-.4s.7-.1 1.1-.1c.5 0 1.1.1 1.5.5.4.3.6.9.6 1.4v3.9h-1.1zm0-2.4c-.2-.1-.3-.1-.5-.2-.2 0-.5-.1-.8-.1s-.6.1-.8.2-.3.4-.3.6c0 .3.1.5.3.7s.5.3.8.3.6-.1.8-.2.4-.3.5-.5z"/><path d="m82.3 32.6c-.1.1-.3.2-.5.2s-.4-.1-.5-.2-.2-.3-.2-.5.1-.4.2-.5.3-.2.5-.2.4.1.5.2.2.3.2.5c.1.2 0 .3-.2.5zm-1 6.5v-5.6h1.1v5.6z"/><path d="m87.4 39.1v-3.1c0-.4-.1-.8-.3-1.2-.2-.2-.5-.4-.8-.3-.3 0-.6.1-.9.4-.2.3-.3.7-.3 1.1v3.2h-1.1v-5.6h1.1v.4c.1-.2.4-.4.6-.5.3-.1.5-.2.8-.2.6 0 1.1.2 1.5.6.4.6.6 1.2.5 1.9v3.2z"/><path d="m94.6 36.5v.2h-3.7c0 .2.1.5.2.7s.2.3.3.5c.1.1.3.2.4.3.2.1.3.1.5.1s.4 0 .6-.1.4-.2.6-.3l.6.7c-.2.2-.5.4-.9.6-.3.1-.7.2-1.1.2-.3 0-.6-.1-.9-.2s-.6-.3-.8-.6-.4-.6-.5-.9c-.1-.4-.2-.8-.2-1.2s.1-.9.2-1.3c.1-.3.3-.6.5-.9.2-.2.5-.4.8-.6.3-.1.7-.2 1-.2.4 0 .7.1 1 .2s.5.3.7.6.3.6.4.9c.1.4.1.7.1 1.1.3 0 .3.1.2.2zm-1.1-1.3c-.1-.2-.1-.3-.2-.4s-.2-.2-.4-.3-.4-.1-.6-.1c-.3 0-.7.1-.9.4s-.4.7-.4 1h2.6c-.1-.2-.1-.4-.1-.6z"/><path d="m99.1 34.7c-.1-.1-.2-.1-.4-.2-.2 0-.3-.1-.5-.1-.3 0-.6.1-.8.4s-.3.7-.3 1.1v3.2h-1.1v-5.6h1.1v.5c.1-.2.3-.3.5-.5.2-.1.5-.2.7-.2s.4 0 .6.1c.1 0 .3.1.4.2z"/><path d="m108.8 35c-.1.3-.3.5-.5.7s-.5.4-.8.4c-.3.1-.7.2-1 .2h-2v2.8h-1.1v-7.4h3.1c.3 0 .6.1 1 .2.3.1.5.2.8.4.2.2.4.5.5.7.1.3.2.7.2 1s-.1.7-.2 1zm-1.3-2c-.3-.2-.6-.3-.9-.3h-2v2.6h2c.4 0 .7-.1 1-.3.2-.3.3-.6.3-.9 0-.5-.1-.8-.4-1.1z"/><path d="m110.3 39.1v-7.1l1.1-.6v7.7z"/><path d="m116.3 39.1v-.5c-.2.2-.4.4-.7.5s-.6.2-.9.2c-.2 0-.5 0-.7-.1s-.4-.2-.6-.3c-.2-.2-.3-.4-.4-.6-.1-.3-.2-.6-.2-.9s.1-.6.2-.8.3-.4.5-.6.5-.3.7-.3c.3-.1.6-.1.9-.1.4 0 .9.1 1.2.2v-.4c0-.3-.1-.5-.3-.7s-.5-.3-.8-.2c-.3 0-.5 0-.8.1-.2.1-.5.1-.7.3l-.4-.8c.3-.2.6-.3.9-.4s.7-.1 1.1-.1c.5 0 1.1.1 1.5.5.4.3.6.9.6 1.4v3.9h-1.1zm0-2.4c-.2-.1-.3-.1-.5-.2-.2 0-.5-.1-.8-.1s-.6.1-.8.2-.3.4-.3.6c0 .3.1.5.3.7s.5.3.8.3.6-.1.8-.2.4-.3.5-.5z"/><path d="m121.6 38.9c-.1.1-.3.1-.5.2-.2 0-.4.1-.6.1-.3 0-.7-.1-.9-.4s-.4-.7-.3-1.1v-3.2h-.8v-1h.8v-1.6l1.1-.6v2.2h1.3v1h-1.4v3c0 .2 0 .4.1.5s.3.2.4.1c.1 0 .3 0 .4-.1.1 0 .3-.1.4-.2z"/><path d="m125 32.3c-.1 0-.3 0-.4.1s-.1.3-.1.4v.6h1v1h-1v4.6h-1.1v-4.6h-.7v-1h.7v-.7c0-.2 0-.4.1-.6s.2-.3.3-.4.3-.2.5-.2.4-.1.6-.1h.4s.3 0 .4.1v1c-.3-.2-.5-.2-.7-.2z"/><path d="m131.1 37.5c-.1.3-.3.7-.5.9-.2.3-.5.5-.8.6s-.7.2-1 .2-.7-.1-1-.2-.6-.3-.8-.6-.4-.6-.5-.9c-.3-.8-.3-1.6 0-2.4.1-.3.3-.7.5-.9.2-.3.5-.5.8-.6s.6-.2 1-.2c.7 0 1.3.3 1.8.8.2.3.4.6.5.9.1.4.2.8.2 1.2s-.1.8-.2 1.2zm-1.3-2.6c-.2-.3-.6-.5-1.1-.5-.4 0-.8.2-1 .5-.5.8-.5 1.9 0 2.7.2.3.6.5 1 .5.2 0 .4 0 .6-.1s.3-.2.4-.4.2-.4.3-.6.1-.5.1-.7c.1-.5 0-1-.3-1.4z"/><path d="m135.7 34.7c-.1-.1-.2-.1-.4-.2-.2 0-.3-.1-.5-.1-.3 0-.6.1-.8.4s-.3.7-.3 1.1v3.2h-1.1v-5.6h1.1v.5c.3-.4.8-.7 1.3-.6.2 0 .4 0 .6.1.1 0 .3.1.4.2z"/><path d="m143.6 39.1v-3.1c0-.4-.1-.8-.3-1.2-.2-.2-.5-.4-.8-.3-.3 0-.6.1-.8.4s-.3.7-.3 1.1v3.2h-1.1v-3.1c0-.4-.1-.8-.3-1.2-.2-.2-.5-.4-.8-.3-.3 0-.6.1-.8.4s-.3.7-.3 1.1v3.2h-1.1v-5.6h1.1v.3c.1-.2.3-.4.6-.5.2-.1.5-.2.8-.2s.7.1.9.2.5.3.6.6c.1-.1.2-.2.3-.3s.2-.2.4-.3c.1-.1.3-.1.5-.2.2 0 .4-.1.6-.1.6 0 1.1.2 1.5.6.4.6.5 1.2.5 1.9v3.2h-1.2z"/></g><path d="m12.6 17.9-7 2.5c.1 1.1.3 2.2.5 3.3l6.6-2.4c-.1-1.1-.2-2.2-.1-3.4" fill="#a30000"/><path d="m43.5 10.2c-.5-1-1.1-2-1.7-2.9l-7 2.5c.8.8 1.5 1.8 2.1 2.8z" fill="#a30000"/><path d="m28.1 8.2c1.4.7 2.7 1.6 3.8 2.7l7-2.5c-6.4-9-18.9-11.1-27.8-4.7-5.8 4.1-8.9 10.8-8.4 17.8l7-2.5c.6-7.1 6.8-12.5 13.9-12 1.6.2 3.1.6 4.5 1.2" fill="#c00"/><path d="m6.6 23.7-6.6 2.3c.6 2.4 1.7 4.7 3.1 6.8l7-2.5c-1.8-1.9-3-4.2-3.5-6.6" fill="#c00"/><path d="m35.6 21c-.1 1.6-.5 3.1-1.2 4.5-3 6.5-10.7 9.3-17.2 6.3-1.4-.7-2.7-1.6-3.8-2.7l-7 2.5c6.4 9 18.8 11.1 27.8 4.7 2.8-2 5.1-4.7 6.5-7.9 1.4-3.1 2.1-6.6 1.8-10z" fill="#c00"/><path d="m37.3 12.5-6.6 2.4c1.2 2.2 1.8 4.8 1.6 7.3l7-2.5c-.3-2.5-.9-5-2-7.2" fill="#c00"/><path d="m12.6 19.3c0-.5 0-.9 0-1.4l-7 2.5c0 .4.1.9.2 1.3z" fill="#820000"/><path d="m42.5 8.4c-.2-.4-.5-.7-.7-1.1l-7 2.5c.3.3.6.6.9 1z" fill="#820000"/><path d="m6.4 31.6c.5.8 1.1 1.5 1.8 2.2l7.6-2.8c-.9-.5-1.7-1.2-2.4-1.9zm36.1-13.1-7 2.5c-.1 1-.3 2-.6 3l7.6-2.8c.1-.9.1-1.8 0-2.7" fill="#a30000"/></svg>