<svg enable-background="new 0 0 119.2 40" height="40" viewBox="0 0 119.2 40" width="119.2" xmlns="http://www.w3.org/2000/svg"><g fill="#fff"><path d="m43.7 36.6c-3.6 0-6.3-2.8-6.3-6.3s2.8-6.3 6.3-6.3c3.6 0 6.4 2.8 6.4 6.3s-2.8 6.3-6.4 6.3zm0-10.9c-2.5 0-4.5 2-4.5 4.6s1.9 4.6 4.5 4.6 4.5-2 4.5-4.6-1.9-4.6-4.5-4.6z"/><path d="m51.8 27.5h1.7v.9c.8-.7 1.7-1 2.7-1 2.5 0 4.5 2 4.5 4.6s-2 4.6-4.5 4.6c-1 0-1.9-.3-2.7-.9v4.3h-1.7zm1.8 2.5v4c.6.6 1.5 1 2.5 1 1.7 0 3-1.3 3-3s-1.3-3.1-3-3.1c-1.1 0-2 .4-2.5 1.1z"/><path d="m66.7 36.6c-2.6 0-4.6-2-4.6-4.6s1.9-4.6 4.4-4.6c2.4 0 4.3 2 4.3 4.6v.5h-7c.2 1.5 1.5 2.6 3 2.5.8 0 1.6-.3 2.2-.8l1.1 1.1c-1 .9-2.2 1.3-3.4 1.3zm-2.9-5.4h5.2c-.3-1.4-1.3-2.4-2.6-2.4-1.3.1-2.4 1-2.6 2.4z"/><path d="m72.4 27.5h1.7v.9c.7-.7 1.7-1.1 2.7-1.1 2 0 3.5 1.4 3.5 3.5v5.6h-1.7v-5.3c0-1.4-.9-2.2-2.2-2.2-.9 0-1.7.4-2.2 1.1v6.4h-1.7z"/><path d="m82.5 33.1c1.3 1.3 2.7 1.9 4.2 1.9 1.8 0 3-.8 3-2 0-1.1-.7-1.6-2.5-1.9l-2-.3c-2.2-.4-3.3-1.4-3.3-3.2 0-2.1 1.8-3.5 4.5-3.5 1.8 0 3.5.6 4.9 1.7l-1 1.4c-1.3-1-2.6-1.5-4-1.5-1.6 0-2.6.7-2.6 1.8 0 1 .6 1.5 2.2 1.7l2 .3c2.6.4 3.7 1.5 3.7 3.4 0 2.2-1.9 3.7-4.9 3.7-2 0-3.8-.8-5.2-2.2z"/><path d="m92.9 24.2 1.7-.4v4.6c.7-.7 1.7-1.1 2.7-1.1 2 0 3.5 1.4 3.5 3.5v5.6h-1.7v-5.3c0-1.4-.9-2.2-2.2-2.2-.9 0-1.7.4-2.2 1.1v6.4h-1.7v-12.2z"/><path d="m102.6 25c0-.6.5-1.1 1.1-1.1.6 0 1.1.5 1 1.1 0 .6-.5 1-1 1-.6.1-1.1-.4-1.1-1zm1.9 11.4h-1.7v-8.9h1.7z"/><path d="m107.9 27.5v-1.3c0-1.8 1.1-2.9 3-2.9.4 0 .8 0 1.3.2v1.5c-.4-.1-.7-.2-1.1-.2-1 0-1.4.4-1.4 1.4v1.3h2.5v1.5h-2.5v7.4h-1.7v-7.4h-2.1v-1.5z"/><path d="m114.8 29h-1.9v-1.5h1.9v-2.3l1.7-.4v2.7h2.6v1.5h-2.6v4.8c0 .9.4 1.2 1.3 1.2.4 0 .9-.1 1.3-.2v1.5c-.5.2-1.1.3-1.7.3-1.7 0-2.6-.8-2.6-2.3z"/></g><path d="m21.2 13.9c2.1 0 5.1-.4 5.1-2.9 0-.2 0-.4-.1-.6l-1.1-5.4c-.3-1.2-.5-1.7-2.6-2.8-1.7-.8-5.2-2.2-6.3-2.2-1 0-1.3 1.3-2.4 1.3s-1.9-.9-3-.9c-1 0-1.7.7-2.2 2.1 0 0-1.4 4-1.6 4.5v.3c0 1.5 6.1 6.6 14.2 6.6m5.5-1.9c.3 1.4.3 1.5.3 1.7 0 2.3-2.6 3.6-6.1 3.6-7.8 0-14.7-4.6-14.7-7.6 0-.4.1-.8.3-1.2-2.9.1-6.5.6-6.5 3.8 0 5.3 12.5 11.8 22.4 11.8 7.6 0 9.5-3.4 9.5-6.1-.1-2.2-1.9-4.6-5.2-6" fill="#e00"/><path d="m26.7 12c.3 1.4.3 1.5.3 1.7 0 2.3-2.6 3.6-6.1 3.6-7.8 0-14.7-4.6-14.7-7.6 0-.4.1-.8.3-1.2l.6-1.5v.3c0 1.5 6.1 6.6 14.2 6.6 2.1 0 5.1-.4 5.1-2.9 0-.2 0-.4-.1-.6z"/><path d="m96.9 15.4c0 2 1.2 3 3.4 3 .7 0 1.3-.1 2-.3v-2.3c-.4.1-.8.2-1.3.2-.9 0-1.2-.3-1.2-1.1v-3.5h2.6v-2.4h-2.6v-3l-2.8.6v2.4h-2v2.4h1.9zm-8.9.1c0-.6.6-.9 1.5-.9.6 0 1.1.1 1.7.2v1.2c-.5.3-1.2.4-1.8.4-.8 0-1.3-.3-1.4-.9m.9 2.9c1 0 1.8-.2 2.6-.7v.6h2.8v-6c0-2.3-1.5-3.5-4.1-3.5-1.4 0-2.8.3-4.4 1l1 2.1c1.1-.5 2-.7 2.8-.7 1.2 0 1.8.5 1.8 1.4v.4c-.7-.2-1.4-.3-2.1-.3-2.4 0-3.8 1-3.8 2.8 0 1.7 1.3 2.9 3.4 2.9m-15.4-.1h3v-4.8h5.1v4.8h3v-12.3h-3v4.7h-5.1v-4.7h-3zm-11.6-4.7c0-1.3 1.1-2.4 2.4-2.4.7 0 1.4.2 2 .7v3.2c-.5.5-1.2.8-2 .7-1.3.2-2.4-.9-2.4-2.2m4.5 4.7h2.8v-13l-2.8.7v3.5c-.7-.4-1.5-.6-2.4-.6-2.7 0-4.8 2.1-4.8 4.8 0 2.6 2.1 4.8 4.7 4.8h.1c.9 0 1.8-.3 2.5-.8v.6zm-12.9-7.2c.9 0 1.7.6 2 1.5h-3.9c.2-.9.9-1.5 1.9-1.5m-4.8 2.5c0 2.7 2.2 4.8 5.1 4.8 1.6 0 2.7-.4 3.9-1.4l-1.9-1.7c-.4.5-1.1.7-1.9.7-1 0-1.9-.6-2.3-1.5h6.6v-.7c0-3-2-5.1-4.7-5.1-2.6 0-4.8 2.1-4.9 4.7.1.2.1.2.1.2m-4.9-5.1c1 0 1.6.6 1.6 1.4s-.6 1.4-1.6 1.4h-3v-2.8zm-6.1 9.8h3v-4.5h2.3l2.3 4.5h3.4l-2.7-4.9c1.4-.6 2.3-1.9 2.3-3.5.1-2.2-1.7-3.9-4.3-3.9h-6.3z" fill="#fff"/></svg>