<svg enable-background="new 0 0 166 40" height="40" viewBox="0 0 166 40" width="166" xmlns="http://www.w3.org/2000/svg"><g fill="#fff"><path d="m58.2 10.7-1.6-3.3h-1.1v3.3h-2.7v-9.9h4.4c.5 0 1.1.1 1.6.2.4.1.9.3 1.2.6s.6.6.8 1 .3.9.2 1.4c0 .6-.1 1.3-.5 1.8-.3.5-.8.8-1.3 1.1l2 3.8zm-.2-7.4c-.2-.2-.6-.3-.9-.3h-1.7v2.2h1.6c.3 0 .7-.1 1-.3.2-.2.3-.5.3-.8s-.1-.6-.3-.8z"/><path d="m63.3 10.7v-9.9h7.6v2.3h-4.9v1.3h3v2.3h-3v1.7h5v2.3z"/><path d="m81.4 8c-.2.6-.6 1.1-1 1.5-.5.4-1.1.7-1.7.9-.8.2-1.5.3-2.3.3h-3.2v-9.9h3.5c.7 0 1.4.1 2.1.2.6.1 1.1.4 1.6.8s.8.9 1 1.5c.3.8.4 1.6.4 2.4s-.1 1.6-.4 2.3zm-2.6-3.5c-.1-.3-.2-.6-.4-.8s-.4-.4-.7-.5-.7-.2-1.1-.2h-.6v5.2h.6c.4 0 .7 0 1.1-.1.3-.1.5-.2.7-.4s.3-.5.4-.8c.1-.4.1-.8.1-1.2.1-.4 0-.8-.1-1.2z"/><path d="m94.9 10.7v-3.9h-3.1v3.9h-2.8v-9.9h2.8v3.6h3.1v-3.6h2.8v9.9z"/><path d="m106.5 10.7-.5-1.8h-3l-.5 1.8h-3l3.6-9.9h2.8l3.6 9.9zm-1.4-4.6c-.1-.3-.2-.6-.2-.8l-.2-.6c-.1-.2-.1-.4-.1-.5s-.1-.3-.1-.5c0 .2-.1.3-.1.5s-.1.3-.1.5l-.2.6-.2.8-.2.7h1.6z"/><path d="m115.1 3.2v7.5h-2.8v-7.5h-2.8v-2.4h8.3v2.4z"/><path d="m121.6 2.5c-.1.2-.2.3-.3.4s-.3.2-.4.3c-.3.1-.7.1-1 0s-.5-.4-.7-.7c-.1-.3-.1-.7 0-1 .1-.2.2-.3.3-.4s.3-.2.4-.3c.3-.1.7-.1 1 0s.5.4.7.7c.1.3.1.7 0 1zm-.2-.9c-.1-.1-.1-.3-.2-.4s-.2-.2-.3-.2c-.1-.1-.3-.1-.4-.1-.3 0-.6.1-.8.3-.4.4-.4 1.1 0 1.5.2.2.5.3.8.3.1 0 .3 0 .4-.1s.2-.1.3-.2c.2-.3.3-.7.2-1.1zm-.5.4c-.1.1-.1.1-.2.1l.3.6h-.3l-.3-.5h-.3v.5h-.2v-1.4h.6.2s.1 0 .1.1l.1.1v.2c.1.1.1.2 0 .3zm-.2-.5s-.1-.1-.2 0h-.4v.4h.4.2s.1-.1.1-.2-.1-.1-.1-.2z"/><path d="m64 24.1c-.3.9-.7 1.7-1.3 2.4-.5.7-1.2 1.2-2 1.6-1.6.8-3.5.8-5.1 0-.8-.4-1.4-.9-1.9-1.6-.6-.7-1-1.5-1.2-2.4-.3-1-.4-2-.4-3.1 0-1 .1-2.1.4-3.1.3-.9.7-1.7 1.2-2.4s1.2-1.2 2-1.6c1.6-.8 3.5-.8 5.1 0 .8.4 1.4.9 1.9 1.6.6.7 1 1.5 1.3 2.4.3 1 .5 2 .4 3.1.1 1-.1 2.1-.4 3.1zm-1.6-5.6c-.2-.7-.5-1.4-1-2-.4-.5-.9-.9-1.4-1.3-.6-.3-1.2-.5-1.8-.5s-1.2.1-1.8.4-1 .7-1.4 1.2c-.4.6-.7 1.2-.9 1.9-.2.8-.4 1.7-.3 2.5 0 .9.1 1.7.4 2.5.2.7.5 1.4 1 2 .4.5.9 1 1.4 1.3 1.1.6 2.5.6 3.6 0 .6-.3 1-.7 1.4-1.2.4-.6.7-1.2.9-1.9.2-.8.3-1.7.3-2.5s-.1-1.6-.4-2.4z"/><path d="m77.7 19.9c-.2.6-.6 1-1 1.4-.5.4-1 .7-1.6.9-.7.2-1.4.3-2 .3h-3.6v5.9h-1.7v-14.9h5.6c.6 0 1.3.1 1.9.3s1.1.4 1.5.8.8.9 1 1.4c.3.6.4 1.3.4 2-.2.7-.3 1.3-.5 1.9zm-2.1-4.1c-.7-.6-1.5-.8-2.4-.8h-3.9v6h3.7c2.2 0 3.4-1 3.4-3 0-.8-.3-1.6-.8-2.2z"/><path d="m80.9 28.4v-14.9h9v1.5h-7.3v4.7h4.3v1.5h-4.3v5.7h7.7v1.5z"/><path d="m102.5 28.4-6.5-10.2c-.1-.1-.2-.3-.3-.5s-.2-.4-.3-.5c-.1-.2-.2-.3-.3-.5-.1-.1-.1-.3-.2-.4v12.1h-1.6v-14.9h1.7l6.4 10.4c.1.1.2.3.3.5s.2.4.3.5l.3.5c.1.1.1.3.2.4v-12.3h1.6v14.9z"/><path d="m116.8 26.2c-.2.5-.6 1-1 1.3-.5.4-1 .7-1.6.9-.7.2-1.4.3-2.1.3-1 0-1.9-.2-2.8-.6-.8-.4-1.5-.8-2.2-1.5l1.1-1.2c.5.5 1.2 1 1.8 1.3.7.3 1.4.5 2.1.5.8 0 1.7-.2 2.4-.7.6-.5.9-1.1.9-1.9 0-.3-.1-.6-.2-.9s-.3-.6-.6-.8c-.3-.3-.7-.5-1.1-.7-.6-.3-1.1-.5-1.7-.7-.7-.2-1.4-.5-2-.9-.5-.2-.9-.6-1.3-.9-.3-.3-.6-.7-.7-1.1-.2-.5-.2-.9-.2-1.4 0-1.1.5-2.1 1.3-2.8.4-.3.9-.6 1.5-.8s1.3-.3 1.9-.3c.9 0 1.7.1 2.5.4.7.3 1.4.7 2 1.2l-1.1 1.3c-.5-.4-1-.8-1.6-1s-1.3-.4-2-.3c-.4 0-.9.1-1.3.2-.3.1-.6.3-.9.5-.2.2-.4.4-.5.7s-.2.6-.2.8c0 .3 0 .6.1.8.1.3.3.5.5.7.3.3.7.5 1.1.7.6.3 1.2.5 1.8.7.7.2 1.4.5 2.1.9.5.3.9.6 1.3 1 .3.3.6.7.7 1.2s.2 1 .2 1.5c.2.5 0 1-.2 1.6z"/><path d="m129.7 28.4v-7h-7.4v7h-1.7v-14.9h1.7v6.4h7.4v-6.4h1.7v14.9z"/><path d="m135.3 28.4v-14.9h1.7v14.9z"/><path d="m142.7 15v5h4.1v1.5h-4.1v6.9h-1.7v-14.9h8.7v1.5z"/><path d="m157.8 15v13.4h-1.7v-13.4h-4.4v-1.5h10.4v1.5z"/><path d="m165.9 15.3c-.1.2-.2.3-.3.4s-.3.2-.4.3c-.3.1-.7.1-1 0-.2-.1-.3-.2-.4-.3s-.2-.3-.3-.4c-.1-.3-.1-.7 0-1 .1-.2.2-.3.3-.4s.3-.2.4-.3c.3-.1.7-.1 1 0 .2.1.3.2.4.3s.2.3.3.4c.1.3.1.7 0 1zm-.2-1c-.1-.1-.1-.2-.2-.3s-.2-.2-.3-.2c-.3-.1-.6-.1-.9 0-.1.1-.2.1-.3.2s-.2.2-.2.3c-.1.3-.1.6 0 .9.1.1.1.2.2.3s.2.2.3.2c.3.1.6.1.9 0 .1-.1.2-.1.3-.2s.2-.2.2-.3c.1-.3.1-.6 0-.9zm-.5.4c-.1.1-.1.1-.2.1l.3.6h-.3l-.3-.5h-.3v.5h-.2v-1.4h.6.2c.1 0 .1 0 .1.1l.1.1v.2c.1.2.1.3 0 .3zm-.2-.4s-.1-.1-.2 0h-.4v.4h.4.2s.1-.1.1-.2-.1-.1-.1-.2z"/><path d="m58.1 37c-.3.9-1.1 1.5-2 1.8-.4.1-.9.2-1.4.2h-2v-7.4h2c.5 0 1 .1 1.4.2s.8.4 1.2.7c.3.3.6.7.8 1.2.4 1.1.4 2.3 0 3.3zm-1-2.7c-.1-.3-.2-.6-.4-.8s-.5-.4-.8-.5c-.4-.1-.7-.2-1.1-.2h-.9v5.2h.9c.4 0 .8-.1 1.1-.2s.6-.3.8-.5.4-.5.4-.8c.2-.8.2-1.5 0-2.2z"/><path d="m64.3 36.4v.2h-3.7c0 .2.1.5.2.7s.2.3.3.5c.1.1.3.2.4.3.2.1.3.1.5.1s.4 0 .6-.1l.6-.3.7.7c-.2.2-.5.4-.8.5s-.7.2-1.1.2c-.3 0-.6-.1-.9-.2s-.6-.3-.8-.6-.4-.6-.5-.9c-.1-.4-.2-.8-.2-1.2s.1-.8.2-1.3c.1-.3.3-.6.5-.9.2-.2.5-.4.8-.6.3-.1.7-.2 1-.2.4 0 .7.1 1 .2s.5.3.7.6.4.6.4.9c.1.4.1.7.1 1.1zm-1.2-1.2c0-.2-.1-.3-.2-.4s-.2-.2-.4-.3-.4-.1-.6-.1c-.3 0-.7.1-.9.4s-.4.7-.4 1h2.6c0-.2 0-.4-.1-.6z"/><path d="m69 39.1v-.5c-.2.2-.4.3-.7.5-.2.1-.5.2-.8.2s-.6-.1-.8-.2c-.3-.1-.5-.3-.7-.5-.2-.3-.4-.6-.5-.9-.1-.4-.2-.9-.2-1.4 0-.4.1-.8.2-1.2.1-.3.3-.6.5-.9.2-.2.4-.4.7-.5s.5-.2.8-.2.6.1.8.2.4.3.6.4v-2.1l1.1-.6v7.8zm0-4c-.1-.1-.1-.2-.2-.2-.1-.1-.2-.2-.3-.2-.1-.1-.2-.1-.4-.2-.1 0-.3-.1-.4-.1-.4 0-.7.1-.9.4-.2.4-.3.9-.3 1.3 0 .5.1 1.1.3 1.5.2.3.6.5.9.5s.5-.1.7-.2.4-.3.5-.5z"/><path d="m72.8 32.5c-.1.1-.3.2-.5.2-.4 0-.7-.3-.7-.7 0-.2.1-.4.2-.5s.3-.2.5-.2.4.1.5.2.2.3.2.5c.1.2 0 .4-.2.5zm-1 6.5v-5.5h1.1v5.6z"/><path d="m78.1 35.1c-.2-.2-.4-.4-.7-.5-.2-.1-.5-.2-.7-.2-.4 0-.7.2-1 .5-.3.4-.4.9-.3 1.4 0 .3 0 .5.1.8 0 .2.1.4.3.6.1.2.2.3.4.4s.4.1.6.1.5-.1.7-.2.4-.3.6-.5l.7.7c-.1.1-.2.3-.4.4-.1.1-.3.2-.4.3-.2.1-.3.2-.5.2-.2.1-.5.1-.7.1-.3 0-.7-.1-1-.2s-.6-.3-.8-.6-.4-.6-.5-.9c-.1-.4-.2-.8-.2-1.2s.1-.8.2-1.2c.1-.3.3-.6.5-.9s.5-.5.8-.6.6-.2 1-.2.8.1 1.1.2c.3.2.6.4.9.7z"/><path d="m83.1 39.1v-.6c-.2.2-.4.4-.7.5s-.6.2-.9.2c-.2 0-.5 0-.7-.1s-.4-.2-.6-.3c-.2-.2-.3-.4-.5-.6-.1-.3-.2-.6-.2-.9s0-.6.2-.8c.1-.2.3-.4.5-.6s.4-.3.7-.3c.3-.1.6-.1.9-.1.4 0 .9.1 1.2.2v-.4c0-.3-.1-.5-.3-.7s-.5-.3-.8-.2c-.3 0-.5 0-.8.1-.2.1-.5.2-.7.3l-.4-.8c.3-.2.6-.3.9-.4s.7-.1 1.1-.1c.5 0 1.1.1 1.5.5s.6.9.6 1.4v3.6zm0-2.4c-.2-.1-.3-.1-.5-.2-.2 0-.5-.1-.7-.1-.3 0-.6.1-.8.2s-.3.4-.3.6c0 .3.1.5.3.7s.5.3.8.3.6-.1.8-.2.4-.3.5-.5z"/><path d="m88.5 38.9c-.2.1-.3.1-.5.2-.2 0-.4.1-.6.1-.3 0-.7-.1-.9-.4s-.4-.7-.3-1.1v-3.2h-.8v-1h.8v-1.6l1.1-.6v2.2h1.4v1h-1.4v3c0 .2 0 .4.1.5s.3.2.4.1c.1 0 .3 0 .4-.1.1 0 .3-.1.4-.2z"/><path d="m94.4 36.4v.2h-3.7c0 .2.1.5.2.7s.2.3.3.5c.1.1.3.2.4.3.2.1.3.1.5.1s.4 0 .6-.1l.6-.3.6.7c-.2.2-.5.4-.8.5s-.7.2-1.1.2c-.3 0-.6-.1-.9-.2s-.6-.3-.8-.6-.4-.6-.5-.9c-.1-.4-.2-.8-.2-1.2s.1-.8.2-1.3c.1-.3.3-.6.5-.9.2-.2.5-.4.8-.6.3-.1.7-.2 1-.2.4 0 .7.1 1 .2s.5.3.7.6.3.6.4.9c.1.4.1.7.1 1.1.1.2.1.3.1.3zm-1.2-1.2c-.1-.2-.1-.3-.2-.4s-.2-.2-.4-.3-.4-.1-.6-.1c-.3 0-.7.1-.9.4s-.4.7-.4 1h2.6c0-.2-.1-.4-.1-.6z"/><path d="m99.1 39.1v-.5c-.2.2-.4.3-.7.5-.2.1-.5.2-.8.2s-.6-.1-.8-.2c-.3-.1-.5-.3-.7-.5-.2-.3-.4-.6-.5-.9-.1-.4-.2-.9-.2-1.4 0-.4.1-.8.2-1.2.1-.3.3-.6.5-.9.2-.2.4-.4.7-.5s.6-.2.8-.2c.3 0 .6.1.8.2s.4.3.6.4v-2.1l1.1-.6v7.8zm0-4c-.1-.1-.1-.2-.2-.2-.1-.1-.2-.2-.3-.2-.1-.1-.2-.1-.4-.2-.1 0-.3-.1-.4-.1-.4 0-.7.1-.9.4-.2.4-.3.9-.3 1.3 0 .5.1 1.1.3 1.5.2.3.6.5.9.5s.5-.1.7-.2.4-.3.5-.5z"/></g><path d="m12.6 17.9-7 2.5c.1 1.1.3 2.2.5 3.3l6.6-2.4c-.1-1.1-.2-2.2-.1-3.4" fill="#a30000"/><path d="m43.5 10.2c-.5-1-1.1-2-1.7-2.9l-7 2.5c.8.8 1.5 1.8 2.1 2.8z" fill="#a30000"/><path d="m28.1 8.2c1.4.7 2.7 1.6 3.8 2.7l7-2.5c-6.4-9-18.9-11.1-27.8-4.7-5.8 4.1-8.9 10.8-8.4 17.8l7-2.5c.5-7.1 6.7-12.5 13.9-12 1.6.2 3.1.6 4.5 1.2" fill="#c00"/><path d="m6.6 23.7-6.6 2.3c.6 2.4 1.7 4.7 3.1 6.8l7-2.5c-1.8-1.9-3-4.1-3.5-6.6" fill="#c00"/><path d="m35.6 21c-.1 1.6-.5 3.1-1.2 4.5-3 6.5-10.7 9.3-17.2 6.3-1.4-.7-2.7-1.6-3.8-2.7l-7 2.5c6.4 9 18.8 11.1 27.8 4.7 2.8-2 5.1-4.7 6.5-7.9 1.4-3.1 2.1-6.6 1.8-10z" fill="#c00"/><path d="m37.3 12.5-6.6 2.4c1.2 2.2 1.8 4.8 1.6 7.3l7-2.5c-.2-2.5-.9-5-2-7.2" fill="#c00"/><path d="m12.6 19.3c0-.5 0-.9 0-1.4l-7 2.5c0 .4.1.9.2 1.3z" fill="#820000"/><path d="m42.5 8.4c-.2-.4-.5-.7-.7-1.1l-7 2.5c.3.3.6.6.9 1z" fill="#820000"/><path d="m6.4 31.6c.5.8 1.1 1.5 1.8 2.2l7.6-2.8c-.9-.5-1.7-1.2-2.4-1.9zm36.2-13.1-7 2.5c-.1 1-.3 2-.6 3l7.6-2.8c0-.9 0-1.8 0-2.7" fill="#a30000"/></svg>