<svg enable-background="new 0 0 194 40" height="40" viewBox="0 0 194 40" width="194" xmlns="http://www.w3.org/2000/svg"><g fill="#fff"><path d="m38.9 36.7c-3.5 0-6.2-2.7-6.2-6.2s2.7-6.2 6.2-6.2 6.2 2.7 6.2 6.2-2.7 6.2-6.2 6.2zm0-10.7c-2.5 0-4.4 1.9-4.4 4.5s1.9 4.5 4.4 4.5 4.4-2 4.4-4.5-1.9-4.5-4.4-4.5z"/><path d="m46.8 27.8h1.7v.8c.7-.6 1.7-1 2.7-1 2.5 0 4.4 2 4.4 4.5s-1.9 4.5-4.4 4.5c-.9 0-1.9-.3-2.6-.9v4.3h-1.7v-12.2zm1.8 2.4v3.9c.5.6 1.5 1 2.4 1 1.7 0 2.9-1.3 2.9-3s-1.3-3-2.9-3c-1 0-1.9.4-2.4 1.1z"/><path d="m61.4 36.6c-2.6 0-4.6-2-4.6-4.5s1.9-4.5 4.4-4.5c2.4 0 4.2 2 4.2 4.5v.5h-6.9c.2 1.4 1.5 2.5 2.9 2.5.8 0 1.6-.3 2.2-.8l1.1 1.1c-.9.8-2.1 1.2-3.3 1.2zm-2.8-5.2h5.2c-.3-1.3-1.3-2.3-2.5-2.3-1.4 0-2.5.9-2.7 2.3z"/><path d="m67 27.8h1.7v.9c.7-.7 1.6-1.1 2.6-1 2 0 3.4 1.4 3.4 3.4v5.5h-1.7v-5.2c0-1.4-.8-2.2-2.2-2.2-.9 0-1.7.4-2.2 1.1v6.2h-1.6z"/><path d="m76.9 33.2c1.3 1.3 2.6 1.9 4.1 1.9 1.7 0 2.9-.8 2.9-2 0-1.1-.7-1.6-2.4-1.9l-2-.3c-2.2-.4-3.3-1.4-3.3-3.1 0-2.1 1.7-3.4 4.4-3.4 1.7 0 3.4.6 4.8 1.6l-1 1.4c-1.3-1-2.6-1.5-3.9-1.5-1.6 0-2.6.7-2.6 1.8 0 1 .6 1.4 2.1 1.7l1.9.3c2.5.4 3.7 1.5 3.7 3.3 0 2.2-1.9 3.7-4.8 3.7-1.9 0-3.8-.8-5.1-2.2z"/><path d="m87.2 24.5 1.7-.4v4.5c.7-.7 1.6-1.1 2.6-1 2 0 3.4 1.4 3.4 3.4v5.5h-1.7v-5.2c0-1.4-.8-2.2-2.2-2.2-.9 0-1.7.4-2.2 1.1v6.2h-1.7v-11.9z"/><path d="m96.7 25.3c0-.6.5-1.1 1-1.1.6 0 1.1.4 1.1 1s-.4 1.1-1 1.1h-.1c-.6.1-1-.4-1-1zm1.9 11.2h-1.7v-8.7h1.7z"/><path d="m101.9 27.8v-1.3c0-1.8 1-2.8 3-2.8.4 0 .8 0 1.2.2v1.5c-.3-.1-.7-.2-1.1-.2-.9 0-1.4.4-1.4 1.3v1.3h2.5v1.4h-2.5v7.3h-1.7v-7.3h-2v-1.4z"/><path d="m108.7 29.2h-1.8v-1.4h1.8v-2.2l1.7-.4v2.6h2.6v1.4h-2.6v4.7c0 .9.4 1.2 1.3 1.2.4 0 .8-.1 1.2-.2v1.4c-.5.2-1.1.2-1.6.3-1.7 0-2.6-.8-2.6-2.3z"/><path d="m118.1 24.5h3.9c3.6 0 6.3 2.5 6.3 6s-2.6 6-6.3 6h-3.9zm1.3 1.2v9.6h2.7c2.8 0 4.9-2.1 4.9-4.8s-2.1-4.8-4.9-4.8z"/><path d="m134.1 36.6c-2.4 0-4.4-1.9-4.4-4.3v-.1c0-2.5 1.9-4.4 4.2-4.4s4 1.9 4 4.4v.4h-7c.2 1.7 1.5 2.9 3.2 2.9.9 0 1.8-.3 2.4-.8l.8.8c-.9.8-2 1.1-3.2 1.1zm-3.1-5h5.7c-.2-1.5-1.4-2.7-2.8-2.7-1.5 0-2.7 1.1-2.9 2.7z"/><path d="m146.4 35.6c-.8.7-1.7 1.1-2.8 1-2.4 0-4.3-1.9-4.3-4.4s1.9-4.4 4.3-4.4c1 0 2 .3 2.7 1v-4.2l1.3-.3v12.2h-1.2zm-2.6-.1c1 0 2-.4 2.6-1.2v-4.2c-.7-.8-1.6-1.2-2.6-1.2-1.8 0-3.2 1.4-3.2 3.3s1.4 3.3 3.2 3.3z"/><path d="m149.6 25.4c0-.5.4-.9.9-.9s.8.4.9.8c0 .5-.4.9-.9.9-.5.1-.9-.3-.9-.8zm1.5 11.1h-1.3v-8.5h1.3z"/><path d="m159.7 34.4.8.9c-.9.9-2.1 1.4-3.3 1.4-2.4 0-4.4-1.9-4.4-4.4s1.9-4.4 4.4-4.4c1.2 0 2.4.5 3.3 1.3l-.8.9c-.7-.7-1.6-1.1-2.5-1.1-1.8 0-3.1 1.5-3.1 3.3 0 1.9 1.4 3.3 3.1 3.3 1-.1 1.8-.5 2.5-1.2z"/><path d="m161.5 34c0-1.6 1.3-2.6 3.4-2.6.9 0 1.7.2 2.5.6v-1.1c0-1.4-.8-2.1-2.3-2.1-.8 0-1.7.2-2.7.8l-.5-1c1.2-.6 2.2-.9 3.3-.9 2.2 0 3.4 1.1 3.4 3v5.7h-1.2v-.8c-.8.7-1.8 1-2.8 1-1.8 0-3.1-1-3.1-2.6zm3.4 1.6c1 0 1.9-.3 2.5-1v-1.6c-.7-.5-1.5-.7-2.5-.7-1.4 0-2.2.7-2.2 1.7.1 1 .9 1.6 2.2 1.6z"/><path d="m171.5 29h-1.8v-1.1h1.8v-2.2l1.2-.3v2.5h2.6v1.1h-2.6v5.2c0 .9.4 1.3 1.3 1.3.4 0 .9-.1 1.2-.2v1.1c-.5.2-1 .2-1.5.2-1.5 0-2.3-.7-2.3-2.1z"/><path d="m180.5 36.6c-2.4 0-4.4-1.9-4.4-4.3v-.1c0-2.5 1.9-4.4 4.2-4.4s4 1.9 4 4.4v.4h-7c.2 1.7 1.5 2.9 3.2 2.9.9 0 1.8-.3 2.4-.8l.8.8c-1 .8-2.1 1.1-3.2 1.1zm-3.2-5h5.7c-.2-1.5-1.4-2.7-2.8-2.7-1.5 0-2.6 1.1-2.9 2.7z"/><path d="m192.8 35.6c-.8.7-1.7 1.1-2.8 1-2.4 0-4.3-1.9-4.3-4.4s1.9-4.4 4.3-4.4c1 0 2 .3 2.7 1v-4.2l1.3-.3v12.2h-1.2zm-2.7-.1c1 0 2-.4 2.6-1.2v-4.2c-.7-.8-1.6-1.2-2.6-1.2-1.8 0-3.2 1.4-3.2 3.3s1.4 3.3 3.2 3.3z"/><path d="m91.1 15.9c0 2 1.2 2.9 3.3 2.9.7 0 1.3-.1 2-.3v-2.3c-.4.1-.8.2-1.3.2-.9 0-1.2-.3-1.2-1.1v-3.5h2.6v-2.3h-2.6v-3l-2.8.6v2.4h-1.9v2.3h1.8v4.1zm-8.7.1c0-.6.6-.9 1.5-.9.6 0 1.1.1 1.7.2v1.2c-.5.3-1.1.4-1.7.4-1 0-1.5-.4-1.5-.9m.9 2.8c1 0 1.8-.2 2.5-.7v.6h2.8v-5.9c0-2.2-1.5-3.4-4-3.4-1.4 0-2.8.3-4.3 1l1 2c1.1-.4 2-.7 2.8-.7 1.2 0 1.7.4 1.7 1.4v.4c-.7-.2-1.4-.3-2.1-.3-2.3 0-3.8 1-3.8 2.7s1.3 2.9 3.4 2.9m-15.2-.1h3v-4.7h5v4.7h3v-12.1h-3v4.6h-5v-4.6h-3zm-11.3-4.6c0-1.3 1-2.3 2.4-2.3.7 0 1.4.2 1.9.7v3.2c-.5.5-1.2.8-1.9.7-1.4 0-2.4-1-2.4-2.3m4.3 4.6h2.8v-12.7l-2.8.6v3.4c-.7-.4-1.5-.6-2.3-.6-2.7 0-4.7 2.1-4.7 4.7s2 4.7 4.6 4.7h.1c.9 0 1.7-.3 2.5-.8zm-12.6-7c.9 0 1.6.6 1.9 1.4h-3.8c.2-.9.9-1.4 1.9-1.4m-4.8 2.4c0 2.7 2.2 4.7 5 4.7 1.5 0 2.7-.4 3.8-1.4l-1.8-1.6c-.4.4-1.1.7-1.8.7-1 0-1.9-.5-2.2-1.4h6.5v-.7c0-2.9-2-5-4.6-5s-4.7 2-4.8 4.6c-.1.1-.1.1-.1.1m-4.8-5c1 0 1.5.6 1.5 1.4s-.6 1.4-1.5 1.4h-2.9v-2.8zm-5.9 9.6h3v-4.4h2.3l2.3 4.4h3.3l-2.7-4.8c1.4-.6 2.3-1.9 2.3-3.4 0-2.2-1.7-3.9-4.3-3.9h-6.2z"/></g><path d="m17.6 5.2c.9.4 1.7 1 2.4 1.7l4.4-1.6c-4-5.6-11.8-6.9-17.4-2.9-3.7 2.5-5.6 6.7-5.3 11.1l4.4-1.6c.3-4.5 4.2-7.8 8.7-7.5 1 .1 1.9.3 2.8.8" fill="#e00"/><path d="m4.2 14.8-4.2 1.5c.4 1.5 1 3 2 4.2l4.3-1.5c-1.1-1.2-1.8-2.6-2.1-4.2" fill="#e00"/><path d="m22.3 13.1c-.1 1-.3 1.9-.7 2.8-1.9 4.1-6.7 5.8-10.8 3.9-.9-.4-1.7-1-2.4-1.7l-4.4 1.7c1.2 1.8 2.9 3.2 4.9 4.1 6.3 2.9 13.7.2 16.6-6.1.9-1.9 1.3-4.1 1.1-6.2z" fill="#e00"/><path d="m23.4 7.8-4.1 1.5c.8 1.4 1.1 3 1 4.6l4.4-1.6c-.2-1.6-.6-3.1-1.3-4.5" fill="#e00"/><path d="m7.9 11.2-4.4 1.6c.1.7.2 1.4.3 2.1l4.2-1.5c-.1-.7-.1-1.5-.1-2.2" fill="#c00"/><path d="m27.2 6.4c-.3-.6-.7-1.2-1.1-1.8l-4.4 1.6c.5.5.9 1.1 1.3 1.7z" fill="#c00"/><path d="m4 19.8c.3.5.7.9 1.1 1.4l4.8-1.7c-.5-.3-1.1-.7-1.5-1.2zm22.6-8.2-4.4 1.6c0 .6-.2 1.3-.4 1.9l4.8-1.7c.1-.7.1-1.3 0-1.8" fill="#c00"/><path d="m7.9 12.1c0-.3 0-.6 0-.9l-4.4 1.6c0 .3.1.6.1.8z" fill="#a30000"/><path d="m26.6 5.2c-.1-.2-.3-.4-.4-.7l-4.4 1.6c.2.2.4.4.5.6z" fill="#a30000"/></svg>