<svg enable-background="new 0 0 165.9 40" height="40" viewBox="0 0 165.9 40" width="165.9" xmlns="http://www.w3.org/2000/svg"><g fill="#fff"><path d="m58 16-1.6-3.3h-1.1v3.3h-2.7v-9.9h4.4c.5 0 1.1.1 1.6.2.4.1.9.3 1.2.6s.6.6.8 1c.2.5.3 1 .3 1.5 0 .6-.1 1.3-.5 1.8-.3.5-.8.8-1.3 1.1l2 3.8zm-.1-7.4c-.3-.2-.6-.4-.9-.3h-1.7v2.2h1.6c.3 0 .7 0 1-.3.2-.2.3-.5.3-.8s-.1-.6-.3-.8z"/><path d="m63.2 16v-9.9h7.6v2.3h-4.9v1.3h3v2.3h-3v1.7h5v2.3z"/><path d="m81.3 13.4c-.2.6-.6 1.1-1 1.5-.5.4-1.1.7-1.7.9-.8.2-1.5.3-2.3.3h-3.2v-10h3.5c.7 0 1.4.1 2.1.2 1.2.3 2.2 1.1 2.6 2.3.3.8.4 1.6.4 2.4s-.1 1.6-.4 2.4zm-2.6-3.5c-.1-.3-.2-.6-.4-.8s-.4-.4-.7-.5-.7-.2-1.1-.2h-.7v5.2h.6c.4 0 .7 0 1.1-.1.3-.1.5-.2.7-.4s.4-.5.4-.8c.1-.4.1-.8.1-1.2.1-.5.1-.9 0-1.2z"/><path d="m94.8 16v-3.9h-3.1v3.9h-2.8v-9.9h2.8v3.6h3.1v-3.6h2.8v9.9z"/><path d="m106.4 16-.5-1.7h-3l-.5 1.7h-3l3.6-9.9h2.8l3.6 9.9zm-1.4-4.6-.2-.8-.2-.6c-.1-.2-.1-.4-.1-.5s-.1-.3-.1-.5c0 .2-.1.3-.1.5s-.1.3-.1.5l-.2.6c-.1.2-.1.5-.2.8l-.2.7h1.6z"/><path d="m115 8.5v7.5h-2.7v-7.5h-2.8v-2.4h8.3v2.4z"/><path d="m121.5 7.8c-.1.3-.4.6-.7.7-.2.1-.3.1-.5.1s-.3 0-.5-.1c-.3-.1-.5-.4-.7-.7-.1-.3-.1-.7 0-1s.4-.5.7-.7c.2-.1.3-.1.5-.1s.3 0 .5.1c.3.1.5.4.7.7.1.3.1.7 0 1zm-.2-.9c-.2-.6-.9-.8-1.4-.6-.1.1-.2.1-.3.2s-.2.2-.2.3c-.1.1-.1.3-.1.4s0 .3.1.4.1.2.2.3.2.2.3.2c.5.2 1.2 0 1.4-.5.1-.1.1-.3.1-.4s-.1-.2-.1-.3zm-.5.4c-.1.1-.1.1-.2.1l.3.6h-.3l-.3-.5h-.3v.5h-.2v-1.4h.6.2c.1 0 .1 0 .1.1l.1.1v.2c.1.1 0 .2 0 .3zm-.2-.4s-.1 0-.2 0h-.4v.4h.4.2s.1-.1.1-.2c-.1-.2-.1-.2-.1-.2z"/><path d="m63.9 29.4c-.3.9-.7 1.7-1.2 2.4s-1.2 1.2-2 1.6c-1.6.8-3.5.8-5.1 0-.8-.4-1.4-.9-1.9-1.6-.6-.7-1-1.5-1.2-2.4-.6-2-.6-4.2 0-6.2.3-.9.7-1.7 1.3-2.4 1.9-2.5 5.5-2.9 8-1 .4.3.7.6 1 1 .6.7 1 1.5 1.3 2.4.4 2 .4 4.2-.2 6.2zm-1.6-5.6c-.2-.7-.5-1.4-1-2-.4-.5-.9-.9-1.4-1.3-.6-.3-1.2-.4-1.8-.4s-1.2.1-1.8.4-1 .7-1.4 1.2c-.4.6-.7 1.2-.9 1.9-.2.8-.4 1.7-.3 2.5 0 .9.1 1.7.4 2.5.2.7.5 1.4 1 1.9.4.5.9 1 1.4 1.3.6.3 1.2.4 1.8.4s1.2-.1 1.8-.4 1.1-.7 1.4-1.2c.4-.6.7-1.2.9-1.9.2-.8.3-1.7.3-2.5 0-.7-.1-1.6-.4-2.4z"/><path d="m77.6 25.3c-.2.6-.6 1-1 1.4-.5.4-1 .7-1.6.9-.7.2-1.4.3-2 .3h-3.6v5.9h-1.7v-14.9h5.6c.6 0 1.3.1 1.9.3s1.1.4 1.5.8.8.8 1 1.4c.4 1.2.4 2.6-.1 3.9zm-2.1-4.2c-.7-.6-1.5-.8-2.4-.8h-3.9v6h3.6c2.2 0 3.4-1 3.4-3 .1-.8-.2-1.6-.7-2.2z"/><path d="m80.8 33.8v-14.9h9v1.5h-7.3v4.7h4.3v1.5h-4.3v5.7h7.7v1.5z"/><path d="m102.4 33.8-6.5-10.2c-.1-.1-.2-.3-.3-.5l-.3-.5c-.1-.2-.2-.3-.3-.5-.1-.1-.1-.3-.2-.4v12.1h-1.6v-14.9h1.6l6.4 10.4c.1.1.2.3.3.5l.3.5.3.5c.1.1.1.3.2.4v-12.3h1.6v14.9z"/><path d="m116.7 31.5c-.2.5-.6 1-1 1.3-.5.4-1 .7-1.6.9-.7.2-1.4.3-2.1.3-1 0-1.9-.2-2.8-.6-.8-.3-1.5-.8-2.2-1.4l1.1-1.2c.5.5 1.2 1 1.8 1.3.7.3 1.4.5 2.1.5.8.1 1.7-.2 2.4-.7.6-.4.9-1.1.9-1.9 0-.3-.1-.6-.2-.9s-.3-.6-.6-.8c-.3-.3-.7-.5-1.1-.7-.5-.3-1.1-.5-1.7-.7-.7-.2-1.4-.5-2-.9-.5-.2-.9-.6-1.3-.9-.3-.3-.6-.7-.7-1.1-.2-.5-.2-.9-.2-1.4 0-.6.1-1.1.3-1.6s.6-.9.9-1.2c.4-.3.9-.6 1.5-.8s1.3-.3 1.9-.3c.9 0 1.7.1 2.5.4.7.3 1.4.7 2 1.2l-1.1 1.3c-.5-.4-1-.8-1.6-1s-1.3-.4-1.9-.3c-.4 0-.9.1-1.3.2-.3.1-.6.3-.9.5-.2.2-.4.4-.5.6-.1.3-.2.6-.2.8 0 .3 0 .6.1.8.1.3.3.5.5.7.3.3.7.5 1.1.7.6.3 1.2.5 1.8.7.7.3 1.4.6 2.1.9.5.3 1 .6 1.3 1 .3.3.6.7.7 1.2s.2 1 .2 1.5c.1.5 0 1.1-.2 1.6z"/><path d="m129.6 33.8v-7h-7.4v7h-1.7v-14.9h1.7v6.4h7.4v-6.4h1.7v14.9z"/><path d="m135.2 33.8v-14.9h1.7v14.9z"/><path d="m142.6 20.4v4.9h4.1v1.5h-4.1v6.9h-1.7v-14.8h8.7v1.5z"/><path d="m157.7 20.4v13.4h-1.7v-13.4h-4.4v-1.5h10.4v1.5z"/><path d="m165.8 20.6c-.1.2-.2.3-.3.4s-.3.2-.4.3c-.5.2-1 .1-1.4-.3-.1-.1-.2-.3-.3-.4-.1-.3-.1-.7 0-1 .1-.1.2-.3.3-.4s.3-.2.4-.3c.3-.1.7-.1 1 0 .2.1.3.2.4.3s.2.3.3.4c.1.3.1.7 0 1zm-.2-.9c-.1-.1-.1-.2-.2-.3s-.2-.2-.3-.2c-.3-.1-.6-.1-.8 0-.1.1-.2.1-.3.2s-.2.2-.2.3c-.1.1-.1.3-.1.4s0 .3.1.4.1.2.2.3.2.2.3.2c.3.1.6.1.8 0 .1-.1.2-.1.3-.2s.2-.2.2-.3c.1-.1.1-.3.1-.4s0-.3-.1-.4zm-.5.4c-.1.1-.1.1-.2.1l.3.6h-.3l-.3-.5h-.3v.5h-.2v-1.4h.6.2c.1 0 .1 0 .1.1l.1.1v.2c.1.1.1.2 0 .3zm-.2-.4s-.1-.1-.2 0h-.4v.3h.4.2s.1-.1 0-.3z"/></g><path d="m12.6 17.9-7 2.5c.1 1.1.3 2.2.5 3.3l6.6-2.4c-.1-1.1-.2-2.2-.1-3.4" fill="#a30000"/><path d="m43.5 10.2c-.5-1-1.1-2-1.7-2.9l-7 2.5c.8.8 1.5 1.8 2.1 2.8z" fill="#a30000"/><path d="m28.1 8.2c1.4.7 2.7 1.6 3.8 2.7l7-2.5c-6.4-9-18.9-11.1-27.8-4.7-5.8 4.1-8.9 10.8-8.4 17.8l7-2.5c.5-7.1 6.7-12.5 13.8-12 1.6.2 3.2.6 4.6 1.2" fill="#c00"/><path d="m6.6 23.6-6.6 2.4c.6 2.4 1.7 4.7 3.1 6.8l7-2.5c-1.8-1.8-3-4.2-3.5-6.7" fill="#c00"/><path d="m35.6 21c-.1 1.6-.5 3.1-1.2 4.5-3 6.5-10.7 9.3-17.2 6.3-1.4-.7-2.7-1.6-3.8-2.7l-7 2.5c2 2.8 4.7 5 7.8 6.5 10 4.7 21.9.4 26.6-9.6 1.4-3.1 2.1-6.6 1.8-10z" fill="#c00"/><path d="m37.3 12.5-6.6 2.4c1.2 2.2 1.8 4.8 1.6 7.3l7-2.5c-.2-2.5-.9-5-2-7.2" fill="#c00"/><path d="m12.6 19.3c0-.5 0-.9 0-1.4l-7 2.5c0 .4.1.9.2 1.3z" fill="#820000"/><path d="m42.5 8.4c-.2-.4-.5-.7-.7-1.1l-7 2.5c.3.3.6.6.9 1z" fill="#820000"/><path d="m6.4 31.6c.5.8 1.1 1.5 1.8 2.2l7.6-2.8c-.9-.5-1.7-1.2-2.4-1.9zm36.2-13.1-7 2.5c-.1 1-.3 2-.6 3l7.6-2.8c0-.9 0-1.8 0-2.7" fill="#a30000"/></svg>