<?xml version="1.0" encoding="utf-8"?>
<!-- Generator: Adobe Illustrator 22.1.0, SVG Export Plug-In . SVG Version: 6.00 Build 0)  -->

<svg
   xmlns:dc="http://purl.org/dc/elements/1.1/"
   xmlns:cc="http://creativecommons.org/ns#"
   xmlns:rdf="http://www.w3.org/1999/02/22-rdf-syntax-ns#"
   xmlns:svg="http://www.w3.org/2000/svg"
   xmlns="http://www.w3.org/2000/svg"
   xmlns:sodipodi="http://sodipodi.sourceforge.net/DTD/sodipodi-0.dtd"
   xmlns:inkscape="http://www.inkscape.org/namespaces/inkscape"
   version="1.1"
   id="Layer_1"
   x="0px"
   y="0px"
   width="280"
   height="40px"
   viewBox="0 0 280 40"
   xml:space="preserve"
   sodipodi:docname="openshiftvirt-logo.svg"
   inkscape:version="0.92.3 (2405546, 2018-03-11)"><metadata
   id="metadata19"><rdf:RDF><cc:Work
       rdf:about=""><dc:format>image/svg+xml</dc:format><dc:type
         rdf:resource="http://purl.org/dc/dcmitype/StillImage" /></cc:Work></rdf:RDF></metadata><defs
   id="defs17" /><sodipodi:namedview
   pagecolor="#ffffff"
   bordercolor="#666666"
   borderopacity="1"
   objecttolerance="10"
   gridtolerance="10"
   guidetolerance="10"
   inkscape:pageopacity="0"
   inkscape:pageshadow="2"
   inkscape:window-width="2329"
   inkscape:window-height="750"
   id="namedview15"
   showgrid="false"
   inkscape:zoom="8.3183185"
   inkscape:cx="101.29569"
   inkscape:cy="8"
   inkscape:window-x="0"
   inkscape:window-y="27"
   inkscape:window-maximized="0"
   inkscape:current-layer="Layer_1" />

<style type="text/css">
	.st0{fill:#FFFFFF;}
	.st1{fill:#A30000;}
	.st2{fill:#CC0000;}
	.st3{fill:#820000;}
</style>
<title>Logotype_RH_OpenShift_wLogo_RGB_White</title>
<path class="st0" d="M58,16l-1.6-3.3h-1.1V16h-2.7V6.1H57c0.5,0,1.1,0.1,1.6,0.2c0.4,0.1,0.9,0.3,1.2,0.6c0.3,0.3,0.6,0.6,0.8,1
	c0.2,0.5,0.3,1,0.3,1.5c0,0.6-0.1,1.3-0.5,1.8c-0.3,0.5-0.8,0.8-1.3,1.1l2,3.8H58z M57.9,8.6c-0.3-0.2-0.6-0.4-0.9-0.3h-1.7v2.2h1.6
	c0.3,0,0.7,0,1-0.3c0.2-0.2,0.3-0.5,0.3-0.8C58.2,9.1,58.1,8.8,57.9,8.6z"/>
<path class="st0" d="M63.2,16V6.1h7.6v2.3h-4.9v1.3h3V12h-3v1.7h5V16H63.2z"/>
<path class="st0" d="M81.3,13.4c-0.2,0.6-0.6,1.1-1,1.5c-0.5,0.4-1.1,0.7-1.7,0.9c-0.8,0.2-1.5,0.3-2.3,0.3h-3.2V6.1h3.5
	c0.7,0,1.4,0.1,2.1,0.2c1.2,0.3,2.2,1.1,2.6,2.3c0.3,0.8,0.4,1.6,0.4,2.4C81.7,11.8,81.6,12.6,81.3,13.4z M78.7,9.9
	c-0.1-0.3-0.2-0.6-0.4-0.8c-0.2-0.2-0.4-0.4-0.7-0.5c-0.3-0.1-0.7-0.2-1.1-0.2h-0.7v5.2h0.6c0.4,0,0.7,0,1.1-0.1
	c0.3-0.1,0.5-0.2,0.7-0.4c0.2-0.2,0.4-0.5,0.4-0.8c0.1-0.4,0.1-0.8,0.1-1.2C78.8,10.6,78.8,10.2,78.7,9.9L78.7,9.9z"/>
<path class="st0" d="M94.8,16v-3.9h-3.1V16h-2.8V6.1h2.8v3.6h3.1V6.1h2.8V16H94.8z"/>
<path class="st0" d="M106.4,16l-0.5-1.7h-3l-0.5,1.7h-3l3.6-9.9h2.8l3.6,9.9H106.4z M105,11.4l-0.2-0.8l-0.2-0.6
	c-0.1-0.2-0.1-0.4-0.1-0.5s-0.1-0.3-0.1-0.5c0,0.2-0.1,0.3-0.1,0.5c0,0.2-0.1,0.3-0.1,0.5l-0.2,0.6c-0.1,0.2-0.1,0.5-0.2,0.8
	l-0.2,0.7h1.6L105,11.4z"/>
<path class="st0" d="M115,8.5V16h-2.7V8.5h-2.8V6.1h8.3v2.4L115,8.5z"/>
<path class="st0" d="M121.5,7.8c-0.1,0.3-0.4,0.6-0.7,0.7c-0.2,0.1-0.3,0.1-0.5,0.1c-0.2,0-0.3,0-0.5-0.1c-0.3-0.1-0.5-0.4-0.7-0.7
	c-0.1-0.3-0.1-0.7,0-1c0.1-0.3,0.4-0.5,0.7-0.7c0.2-0.1,0.3-0.1,0.5-0.1c0.2,0,0.3,0,0.5,0.1c0.3,0.1,0.5,0.4,0.7,0.7
	C121.6,7.1,121.6,7.5,121.5,7.8z M121.3,6.9c-0.2-0.6-0.9-0.8-1.4-0.6c-0.1,0.1-0.2,0.1-0.3,0.2c-0.1,0.1-0.2,0.2-0.2,0.3
	c-0.1,0.1-0.1,0.3-0.1,0.4c0,0.1,0,0.3,0.1,0.4c0.1,0.1,0.1,0.2,0.2,0.3c0.1,0.1,0.2,0.2,0.3,0.2c0.5,0.2,1.2,0,1.4-0.5
	c0.1-0.1,0.1-0.3,0.1-0.4C121.4,7.1,121.3,7,121.3,6.9L121.3,6.9z M120.8,7.3c-0.1,0.1-0.1,0.1-0.2,0.1l0.3,0.6h-0.3l-0.3-0.5H120V8
	h-0.2V6.6h0.6c0.1,0,0.1,0,0.2,0c0.1,0,0.1,0,0.1,0.1c0,0,0.1,0.1,0.1,0.1c0,0.1,0,0.1,0,0.2C120.9,7.1,120.8,7.2,120.8,7.3
	L120.8,7.3z M120.6,6.9c0,0-0.1,0-0.2,0h-0.4v0.4h0.4c0.1,0,0.1,0,0.2,0c0,0,0.1-0.1,0.1-0.2C120.6,6.9,120.6,6.9,120.6,6.9
	L120.6,6.9z"/>
<path class="st0" d="M63.9,29.4c-0.3,0.9-0.7,1.7-1.2,2.4c-0.5,0.7-1.2,1.2-2,1.6c-1.6,0.8-3.5,0.8-5.1,0c-0.8-0.4-1.4-0.9-1.9-1.6
	c-0.6-0.7-1-1.5-1.2-2.4c-0.6-2-0.6-4.2,0-6.2c0.3-0.9,0.7-1.7,1.3-2.4c1.9-2.5,5.5-2.9,8-1c0.4,0.3,0.7,0.6,1,1
	c0.6,0.7,1,1.5,1.3,2.4C64.5,25.2,64.5,27.4,63.9,29.4L63.9,29.4z M62.3,23.8c-0.2-0.7-0.5-1.4-1-2c-0.4-0.5-0.9-0.9-1.4-1.3
	c-0.6-0.3-1.2-0.4-1.8-0.4c-0.6,0-1.2,0.1-1.8,0.4c-0.6,0.3-1,0.7-1.4,1.2c-0.4,0.6-0.7,1.2-0.9,1.9c-0.2,0.8-0.4,1.7-0.3,2.5
	c0,0.9,0.1,1.7,0.4,2.5c0.2,0.7,0.5,1.4,1,1.9c0.4,0.5,0.9,1,1.4,1.3c0.6,0.3,1.2,0.4,1.8,0.4c0.6,0,1.2-0.1,1.8-0.4
	c0.6-0.3,1.1-0.7,1.4-1.2c0.4-0.6,0.7-1.2,0.9-1.9c0.2-0.8,0.3-1.7,0.3-2.5C62.7,25.5,62.6,24.6,62.3,23.8z"/>
<path class="st0" d="M77.6,25.3c-0.2,0.6-0.6,1-1,1.4c-0.5,0.4-1,0.7-1.6,0.9c-0.7,0.2-1.4,0.3-2,0.3h-3.6v5.9h-1.7V18.9h5.6
	c0.6,0,1.3,0.1,1.9,0.3c0.6,0.2,1.1,0.4,1.5,0.8c0.4,0.4,0.8,0.8,1,1.4C78.1,22.6,78.1,24,77.6,25.3L77.6,25.3z M75.5,21.1
	c-0.7-0.6-1.5-0.8-2.4-0.8h-3.9v6h3.6c2.2,0,3.4-1,3.4-3C76.3,22.5,76,21.7,75.5,21.1L75.5,21.1z"/>
<path class="st0" d="M80.8,33.8V18.9h9v1.5h-7.3v4.7h4.3v1.5h-4.3v5.7h7.7v1.5L80.8,33.8z"/>
<path class="st0" d="M102.4,33.8l-6.5-10.2c-0.1-0.1-0.2-0.3-0.3-0.5l-0.3-0.5c-0.1-0.2-0.2-0.3-0.3-0.5c-0.1-0.1-0.1-0.3-0.2-0.4
	v12.1h-1.6V18.9h1.6l6.4,10.4c0.1,0.1,0.2,0.3,0.3,0.5l0.3,0.5l0.3,0.5c0.1,0.1,0.1,0.3,0.2,0.4V18.9h1.6v14.9L102.4,33.8z"/>
<path class="st0" d="M116.7,31.5c-0.2,0.5-0.6,1-1,1.3c-0.5,0.4-1,0.7-1.6,0.9c-0.7,0.2-1.4,0.3-2.1,0.3c-1,0-1.9-0.2-2.8-0.6
	c-0.8-0.3-1.5-0.8-2.2-1.4l1.1-1.2c0.5,0.5,1.2,1,1.8,1.3c0.7,0.3,1.4,0.5,2.1,0.5c0.8,0.1,1.7-0.2,2.4-0.7c0.6-0.4,0.9-1.1,0.9-1.9
	c0-0.3-0.1-0.6-0.2-0.9c-0.1-0.3-0.3-0.6-0.6-0.8c-0.3-0.3-0.7-0.5-1.1-0.7c-0.5-0.3-1.1-0.5-1.7-0.7c-0.7-0.2-1.4-0.5-2-0.9
	c-0.5-0.2-0.9-0.6-1.3-0.9c-0.3-0.3-0.6-0.7-0.7-1.1c-0.2-0.5-0.2-0.9-0.2-1.4c0-0.6,0.1-1.1,0.3-1.6c0.2-0.5,0.6-0.9,0.9-1.2
	c0.4-0.3,0.9-0.6,1.5-0.8c0.6-0.2,1.3-0.3,1.9-0.3c0.9,0,1.7,0.1,2.5,0.4c0.7,0.3,1.4,0.7,2,1.2l-1.1,1.3c-0.5-0.4-1-0.8-1.6-1
	c-0.6-0.2-1.3-0.4-1.9-0.3c-0.4,0-0.9,0.1-1.3,0.2c-0.3,0.1-0.6,0.3-0.9,0.5c-0.2,0.2-0.4,0.4-0.5,0.6c-0.1,0.3-0.2,0.6-0.2,0.8
	c0,0.3,0,0.6,0.1,0.8c0.1,0.3,0.3,0.5,0.5,0.7c0.3,0.3,0.7,0.5,1.1,0.7c0.6,0.3,1.2,0.5,1.8,0.7c0.7,0.3,1.4,0.6,2.1,0.9
	c0.5,0.3,1,0.6,1.3,1c0.3,0.3,0.6,0.7,0.7,1.2c0.1,0.5,0.2,1,0.2,1.5C117,30.4,116.9,31,116.7,31.5z"/>
<path class="st0" d="M129.6,33.8v-7h-7.4v7h-1.7V18.9h1.7v6.4h7.4v-6.4h1.7v14.9L129.6,33.8z"/>
<path class="st0" d="M135.2,33.8V18.9h1.7v14.9L135.2,33.8z"/>
<path class="st0" d="M142.6,20.4v4.9h4.1v1.5h-4.1v6.9h-1.7V18.9h8.7v1.5H142.6z"/>
<path class="st0" d="M157.7,20.4v13.4H156V20.4h-4.4v-1.5h10.4v1.5H157.7z"/>
<path class="st0" d="M165.8,20.6c-0.1,0.2-0.2,0.3-0.3,0.4c-0.1,0.1-0.3,0.2-0.4,0.3c-0.5,0.2-1,0.1-1.4-0.3
	c-0.1-0.1-0.2-0.3-0.3-0.4c-0.1-0.3-0.1-0.7,0-1c0.1-0.1,0.2-0.3,0.3-0.4c0.1-0.1,0.3-0.2,0.4-0.3c0.3-0.1,0.7-0.1,1,0
	c0.2,0.1,0.3,0.2,0.4,0.3c0.1,0.1,0.2,0.3,0.3,0.4C165.9,19.9,165.9,20.3,165.8,20.6z M165.6,19.7c-0.1-0.1-0.1-0.2-0.2-0.3
	c-0.1-0.1-0.2-0.2-0.3-0.2c-0.3-0.1-0.6-0.1-0.8,0c-0.1,0.1-0.2,0.1-0.3,0.2c-0.1,0.1-0.2,0.2-0.2,0.3c-0.1,0.1-0.1,0.3-0.1,0.4
	c0,0.1,0,0.3,0.1,0.4c0.1,0.1,0.1,0.2,0.2,0.3c0.1,0.1,0.2,0.2,0.3,0.2c0.3,0.1,0.6,0.1,0.8,0c0.1-0.1,0.2-0.1,0.3-0.2
	c0.1-0.1,0.2-0.2,0.2-0.3c0.1-0.1,0.1-0.3,0.1-0.4C165.7,20,165.7,19.8,165.6,19.7L165.6,19.7z M165.1,20.1
	c-0.1,0.1-0.1,0.1-0.2,0.1l0.3,0.6h-0.3l-0.3-0.5h-0.3v0.5h-0.2v-1.4h0.6c0.1,0,0.1,0,0.2,0c0.1,0,0.1,0,0.1,0.1
	c0,0,0.1,0.1,0.1,0.1c0,0.1,0,0.1,0,0.2C165.2,19.9,165.2,20,165.1,20.1z M164.9,19.7c0,0-0.1-0.1-0.2,0h-0.4V20h0.4
	c0.1,0,0.1,0,0.2,0c0,0,0.1-0.1,0.1-0.2C165,19.7,164.9,19.7,164.9,19.7L164.9,19.7z"/>
<path class="st1" d="M12.6,17.9l-7,2.5c0.1,1.1,0.3,2.2,0.5,3.3l6.6-2.4C12.6,20.2,12.5,19.1,12.6,17.9"/>
<path class="st1" d="M43.5,10.2c-0.5-1-1.1-2-1.7-2.9l-7,2.5c0.8,0.8,1.5,1.8,2.1,2.8L43.5,10.2z"/>
<path class="st2" d="M28.1,8.2c1.4,0.7,2.7,1.6,3.8,2.7l7-2.5C32.5-0.6,20-2.7,11.1,3.7C5.3,7.8,2.2,14.5,2.7,21.5l7-2.5
	c0.5-7.1,6.7-12.5,13.8-12C25.1,7.2,26.7,7.6,28.1,8.2"/>
<path class="st2" d="M6.6,23.6L0,26c0.6,2.4,1.7,4.7,3.1,6.8l7-2.5C8.3,28.5,7.1,26.1,6.6,23.6"/>
<path class="st2" d="M35.6,21c-0.1,1.6-0.5,3.1-1.2,4.5c-3,6.5-10.7,9.3-17.2,6.3c-1.4-0.7-2.7-1.6-3.8-2.7l-7,2.5
	c2,2.8,4.7,5,7.8,6.5c10,4.7,21.9,0.4,26.6-9.6c0,0,0,0,0,0c1.4-3.1,2.1-6.6,1.8-10L35.6,21z"/>
<path class="st2" d="M37.3,12.5l-6.6,2.4c1.2,2.2,1.8,4.8,1.6,7.3l7-2.5C39.1,17.2,38.4,14.7,37.3,12.5"/>
<path class="st3" d="M12.6,19.3c0-0.5,0-0.9,0-1.4l-7,2.5c0,0.4,0.1,0.9,0.2,1.3L12.6,19.3z"/>
<path class="st3" d="M42.5,8.4C42.3,8,42,7.7,41.8,7.3l-7,2.5c0.3,0.3,0.6,0.6,0.9,1L42.5,8.4z"/>
<path class="st1" d="M6.4,31.6c0.5,0.8,1.1,1.5,1.8,2.2l7.6-2.8c-0.9-0.5-1.7-1.2-2.4-1.9L6.4,31.6z M42.6,18.5l-7,2.5
	c-0.1,1-0.3,2-0.6,3l7.6-2.8C42.6,20.3,42.6,19.4,42.6,18.5"/>
<text
  xml:space="preserve"
  style="font-style:normal;font-weight:normal;font-size:20px;line-height:1.25;font-family:sans-serif;letter-spacing:0px;word-spacing:0px;fill:#f9f9f9;fill-opacity:1;stroke:none"
  x="180"
  y="25"
  id="text3726"><tspan
    sodipodi:role="line"
    id="tspan3724"
    x="180"
    y="25"
    style="font-size:17.33333333px">Virtualization</tspan></text>
</svg>
