<svg xmlns="http://www.w3.org/2000/svg" viewBox="0 0 16.12 16.12"><title>operator-logo-svg</title><g id="Layer_2" data-name="Layer 2"><g id="Layer_1-2" data-name="Layer 1"><g id="Page-1"><g id="Group"><circle id="Oval" cx="8.06" cy="8.06" r="7.46" style="fill:none;stroke:#8abfe6;stroke-width:1.2000000476837158px"/><path id="Shape" d="M3.36,9.19,9.43,1.47c.13.27,0,.42-.05.58-.55,1.51-1.09,3-1.67,4.53-.14.38-.08.47.32.47h3.9c.11,0,.25-.05.31.06s-.07.2-.13.29L7.13,14c-.08.11-.16.27-.3.19s-.05-.24,0-.37C7.21,12.4,7.58,11,8,9.61c.1-.33,0-.4-.3-.39H4Z" style="fill:#8abfe6"/></g></g></g></g></svg>