<?xml version="1.0" encoding="utf-8"?>
<!-- Generator: Adobe Illustrator 22.1.0, SVG Export Plug-In . SVG Version: 6.00 Build 0)  -->
<svg version="1.1" id="Layer_1" xmlns="http://www.w3.org/2000/svg" xmlns:xlink="http://www.w3.org/1999/xlink" x="0px" y="0px"
	 viewBox="0 0 16.1 16.1" style="enable-background:new 0 0 16.1 16.1;" xml:space="preserve">
<style type="text/css">
	.st0{fill:none;stroke:#72767B;stroke-width:1.2;}
	.st1{fill:#72767B;}
</style>
<title>operator-active-svg</title>
<g id="Layer_2_1_">
	<g id="Layer_1-2">
		<g id="Page-1">
			<g id="Group">
				<circle id="Oval" class="st0" cx="8.1" cy="8.1" r="7.5"/>
				<path id="Shape" class="st1" d="M3.4,9.2l6.1-7.7c0.1,0.3,0,0.4-0.1,0.6c-0.6,1.5-1.1,3-1.7,4.5C7.6,7,7.6,7,8,7h3.9
					C12,7,12.2,7,12.2,7.1s-0.1,0.2-0.1,0.3l-5,6.6c-0.1,0.1-0.2,0.3-0.3,0.2s-0.1-0.2,0-0.4C7.2,12.4,7.6,11,8,9.6
					c0.1-0.3,0-0.4-0.3-0.4H4L3.4,9.2z"/>
			</g>
		</g>
	</g>
</g>
</svg>
