<?xml version="1.0" encoding="UTF-8"?>
<svg id="Layer_1" xmlns="http://www.w3.org/2000/svg" version="1.1" viewBox="0 0 39.7 30">
  <!-- Generator: Adobe Illustrator 29.1.0, SVG Export Plug-In . SVG Version: 2.1.0 Build 142)  -->
  <defs>
    <style>
      .st0 {
        fill: #e00;
      }
    </style>
  </defs>
  <path d="M32.7,12.9c0,.2,0,.5,0,.7,0,3.1-3.8,3.6-6.4,3.6-10.1,0-17.7-6.3-17.7-8.2,0-.1,0-.3,0-.4l-.8,1.9c-.2.5-.3,1-.3,1.5,0,3.8,8.5,9.5,18.3,9.5s7.6-1.6,7.6-4.5,0-.4-.4-2.1l-.5-2Z"/>
  <path class="st0" d="M26.4,17.3c2.6,0,6.4-.5,6.4-3.6,0-.2,0-.5,0-.7l-1.6-6.7c-.4-1.5-.7-2.2-3.3-3.5-2-1-6.4-2.7-7.7-2.7s-1.6,1.6-3,1.6-2.4-1.2-3.7-1.2-2.1.9-2.7,2.6c0,0-1.8,4.9-2,5.7,0,.1,0,.3,0,.4,0,1.9,7.6,8.2,17.7,8.2M33.2,14.9c.4,1.7.4,1.9.4,2.1,0,2.9-3.3,4.5-7.6,4.5-9.7,0-18.3-5.7-18.3-9.5,0-.5.1-1,.3-1.5-3.5.2-8,.8-8,4.8,0,6.6,15.5,14.6,27.8,14.6s11.8-4.3,11.8-7.6-2.3-5.7-6.4-7.4"/>
</svg>