<?xml version="1.0" encoding="utf-8"?>
<!-- Generator: Adobe Illustrator 13.0.0, SVG Export Plug-In . SVG Version: 6.00 Build 14948)  -->
<!DOCTYPE svg PUBLIC "-//W3C//DTD SVG 1.0//EN" "http://www.w3.org/TR/2001/REC-SVG-20010904/DTD/svg10.dtd">
<svg version="1.0" xmlns="http://www.w3.org/2000/svg" xmlns:xlink="http://www.w3.org/1999/xlink" x="0px" y="0px"
	 width="90px" height="30px" viewBox="0 0 393.051 126.191" enable-background="new 0 0 393.051 126.191" preserveAspectRatio="xMaxYMax meet"
	 xml:space="preserve">
<g id="background__x28_locked_x29_">
</g>
<g id="logo">
	<g id="logo_1_">
		<g id="white">
			<path fill="#FFFFFF" d="M116.069,97.391c-2.433-0.557-5.012-0.91-7.621-0.91c-4.463,0-8.524,0.773-11.519,2.021
				c-0.33,0.164-0.565,0.51-0.565,0.9c0,0.145,0.036,0.289,0.09,0.412c0.354,1.025-0.227,2.137-3.126,2.775
				c-4.298,0.945-7.011,5.381-8.563,6.852c-1.823,1.732-6.973,2.795-6.198,1.762c0.607-0.805,2.923-3.322,4.333-6.041
				c1.261-2.432,2.383-3.123,3.93-5.443c0.453-0.68,2.212-3.07,2.724-4.961c0.574-1.844,0.38-4.162,0.601-5.115
				c0.316-1.377,1.614-4.359,1.712-6.045c0.057-0.953-3.979,1.361-5.894,1.361s-3.779-1.148-5.49-1.23
				c-2.117-0.098-3.478,1.635-5.394,1.33c-1.093-0.174-2.015-1.139-3.926-1.209c-2.722-0.1-6.047,1.514-12.294,1.312
				c-6.144-0.201-11.82-7.768-12.594-8.971c-0.908-1.41-2.017-1.41-3.224-0.299c-1.21,1.107-2.7,0.236-3.125-0.508
				c-0.806-1.408-2.96-5.53-6.298-6.395c-4.615-1.196-6.952,2.555-6.648,5.54c0.308,3.031,2.266,3.881,3.174,5.49
				c0.906,1.613,1.37,2.65,3.077,3.363c1.209,0.506,1.659,1.25,1.299,2.244c-0.316,0.865-1.575,1.062-2.401,1.104
				c-1.758,0.084-2.991-0.395-3.89-0.967c-1.045-0.67-1.896-1.594-2.808-3.164c-1.056-1.734-2.719-2.49-4.656-2.49
				c-0.923,0-1.787,0.242-2.555,0.639c-3.036,1.582-6.649,2.516-10.54,2.516l-4.388,0.004c8.414,24.955,32.01,42.924,59.805,42.924
				C85.3,126.191,104.823,114.727,116.069,97.391z"/>
		</g>
		<g id="black">
			<g>
				<path fill="#FFFFFF" d="M125.557,94.023h0.569l0.859,1.41h0.553l-0.93-1.438c0.482-0.057,0.847-0.311,0.847-0.891
					c0-0.646-0.381-0.926-1.149-0.926h-1.24v3.254h0.491V94.023z M125.557,93.605v-1.012h0.672c0.342,0,0.71,0.076,0.71,0.479
					c0,0.5-0.37,0.533-0.791,0.533H125.557z"/>
				<path fill="#FFFFFF" d="M129.33,93.811c0,1.756-1.429,3.186-3.189,3.186s-3.19-1.43-3.19-3.186c0-1.762,1.43-3.191,3.19-3.191
					S129.33,92.049,129.33,93.811z M126.141,91.184c-1.45,0-2.626,1.176-2.626,2.629c0,1.445,1.176,2.615,2.626,2.615
					c1.447,0,2.622-1.17,2.622-2.615C128.763,92.359,127.588,91.184,126.141,91.184z"/>
			</g>
			<g>
				<path d="M116.069,97.395c-2.433-0.561-5.012-0.91-7.621-0.91c-4.463,0-8.524,0.775-11.519,2.018
					c-0.33,0.166-0.565,0.51-0.565,0.904c0,0.141,0.036,0.289,0.09,0.408c0.354,1.027-0.227,2.141-3.126,2.777
					c-4.298,0.945-7.011,5.379-8.563,6.854c-1.823,1.729-6.973,2.795-6.198,1.762c0.607-0.807,2.923-3.324,4.333-6.045
					c1.261-2.428,2.383-3.121,3.93-5.439c0.453-0.682,2.212-3.072,2.724-4.963c0.574-1.846,0.38-4.16,0.601-5.115
					c0.316-1.375,1.614-4.359,1.712-6.043c0.057-0.953-3.979,1.357-5.894,1.357s-3.779-1.145-5.49-1.227
					c-2.117-0.102-3.478,1.631-5.394,1.328c-1.093-0.174-2.015-1.137-3.926-1.209c-2.722-0.1-6.047,1.512-12.294,1.311
					c-6.144-0.197-11.82-7.762-12.594-8.965c-0.908-1.414-2.017-1.414-3.224-0.303c-1.21,1.105-2.7,0.236-3.125-0.506
					c-0.806-1.41-2.96-5.534-6.298-6.397c-4.615-1.198-6.952,2.555-6.648,5.54c0.308,3.029,2.266,3.879,3.174,5.488
					c0.906,1.613,1.37,2.656,3.077,3.369c1.209,0.5,1.659,1.248,1.299,2.242c-0.316,0.863-1.575,1.062-2.401,1.102
					c-1.758,0.084-2.991-0.393-3.89-0.969c-1.045-0.664-1.896-1.59-2.808-3.162c-1.056-1.734-2.719-2.49-4.656-2.49
					c-0.923,0-1.787,0.246-2.555,0.639c-3.036,1.58-6.649,2.518-10.54,2.518H3.293C1.157,76.936,0,70.151,0,63.097
					C0,28.248,28.25,0,63.098,0s63.096,28.248,63.096,63.097C126.194,75.744,122.475,87.518,116.069,97.395z"/>
			</g>
			<path fill="#FFFFFF" d="M158.358,67.078c0-5.787-0.12-10.043-0.354-13.893h9.465l0.405,8.211h0.31
				c2.127-6.086,7.168-9.188,11.834-9.188c1.067,0,1.689,0.04,2.563,0.236v10.296c-1.022-0.201-1.979-0.311-3.293-0.311
				c-5.208,0-8.822,3.313-9.798,8.268c-0.185,0.964-0.283,2.121-0.283,3.298v22.418H158.27L158.358,67.078z"/>
			<path fill="#FFFFFF" d="M195.776,77.74c0.289,7.834,6.352,11.26,13.352,11.26c5.027,0,8.625-0.787,11.93-2l1.617,7.52
				c-3.697,1.57-8.832,2.74-15.105,2.74c-14.037,0-22.26-8.668-22.26-21.912c0-11.931,7.236-23.221,21.141-23.221
				c14.057,0,18.631,11.561,18.631,21.024c0,2.031-0.18,3.662-0.389,4.67L195.776,77.74z M214.786,70.126
				c0.051-4.006-1.693-10.533-9.014-10.533c-6.73,0-9.527,6.104-10.018,10.533H214.786z"/>
			<path fill="#FFFFFF" d="M261.249,77.67c0,1.145-0.082,2.213-0.332,3.188c-1.1,4.73-4.969,7.779-9.439,7.779
				c-6.881,0-10.82-5.801-10.82-13.744c0-8.02,3.904-14.227,10.945-14.227c4.914,0,8.434,3.465,9.4,7.675
				c0.186,0.886,0.246,1.978,0.246,2.852V77.67z M272.172,36.539l-10.924-3.082v24.383h-0.18c-1.934-3.193-6.197-5.631-12.113-5.631
				c-10.396,0-19.447,8.602-19.381,23.084c0,13.287,8.176,22.092,18.498,22.092c6.238,0,11.453-2.973,14.037-7.816h0.193l0.49,6.846
				h9.74c-0.201-2.939-0.361-7.699-0.361-12.125V36.539z"/>
			<path fill="#FFFFFF" d="M301.075,52.159c-3.291,0-6.24,0.949-8.719,2.479c-2.572,1.507-4.664,3.832-5.91,6.24h-0.172V40.646
				l-4.281-1.264v57.032h4.281V69.957c0-1.758,0.133-2.977,0.582-4.262c1.848-5.382,6.92-9.798,13.049-9.798
				c8.855,0,11.922,7.103,11.922,14.893v25.625h4.277V70.318C316.104,54.205,305.176,52.159,301.075,52.159z"/>
			<path fill="#FFFFFF" d="M354.502,86.137c0,3.422,0.137,6.963,0.631,10.277h-3.941l-0.629-6.199h-0.203
				c-2.096,3.334-6.916,7.184-13.793,7.184c-8.705,0-12.756-6.123-12.756-11.891c0-9.986,8.814-16.002,26.414-15.817v-1.156
				c0-4.28-0.832-12.816-11.066-12.749c-3.785,0-7.73,1.013-10.859,3.224l-1.363-3.112c3.953-2.679,8.779-3.738,12.693-3.738
				c12.484,0,14.873,9.372,14.873,17.103V86.137z M350.225,73.291c-9.422-0.271-21.859,1.156-21.859,11.543
				c0,6.217,4.104,9.012,8.609,9.012c7.209,0,11.309-4.465,12.803-8.676c0.311-0.922,0.447-1.85,0.447-2.592V73.291z"/>
			<path fill="#FFFFFF" d="M371.542,43.615v9.533h12.332v3.471h-12.332v28.12c0,5.5,1.707,8.947,6.355,8.947
				c2.229,0,3.807-0.293,4.914-0.678l0.52,3.314c-1.398,0.586-3.359,1.039-5.971,1.039c-3.158,0-5.775-0.994-7.467-3.068
				c-1.959-2.271-2.629-5.902-2.629-10.316V56.619h-7.301v-3.471h7.301v-7.955L371.542,43.615z"/>
			<g>
				<path fill="#FFFFFF" d="M389.28,94.109h0.568l0.857,1.408h0.553l-0.928-1.436c0.484-0.059,0.848-0.311,0.848-0.891
					c0-0.648-0.385-0.928-1.15-0.928h-1.242v3.254h0.494V94.109z M389.28,93.689v-1.01h0.67c0.338,0,0.709,0.076,0.709,0.477
					c0,0.502-0.371,0.533-0.791,0.533H389.28z"/>
				<path fill="#FFFFFF" d="M393.051,93.895c0,1.758-1.43,3.186-3.189,3.186c-1.758,0-3.189-1.428-3.189-3.186
					c0-1.762,1.432-3.189,3.189-3.189C391.622,90.705,393.051,92.133,393.051,93.895z M389.862,91.27
					c-1.453,0-2.625,1.174-2.625,2.627c0,1.447,1.172,2.615,2.625,2.615c1.447,0,2.621-1.168,2.621-2.615
					C392.483,92.443,391.309,91.27,389.862,91.27z"/>
			</g>
			<path d="M76.995,91.607c0.324,0.316,0.883,1.383,0.199,2.732c-0.383,0.717-0.796,1.221-1.534,1.809
				c-0.887,0.713-2.623,1.533-5.002,0.025c-1.278-0.811-1.356-1.084-3.123-0.855c-1.262,0.166-1.764-1.107-1.311-2.168
				c0.455-1.055,2.319-1.912,4.636-0.553c1.043,0.611,2.668,1.908,4.092,0.76c0.589-0.473,0.942-0.787,1.761-1.736
				c0.038-0.037,0.09-0.061,0.147-0.061C76.912,91.561,76.959,91.58,76.995,91.607z"/>
		</g>
		<path id="red" fill="#CC0000" d="M58.187,30.044c-7.288,0.527-8.044,1.314-9.41,2.769c-1.925,2.05-4.461-2.659-4.461-2.659
			c-1.521-0.32-3.366-2.775-2.372-5.065c0.981-2.266,2.792-1.587,3.359-0.882c0.69,0.859,2.164,2.266,4.077,2.215
			c1.913-0.051,4.12-0.453,7.198-0.453c3.119,0,5.217,1.166,5.334,2.166C62.015,28.988,61.66,29.793,58.187,30.044z M65.844,18.002
			c-0.011,0-0.022,0.002-0.033,0.002c-0.113,0-0.204-0.087-0.204-0.191c0-0.077,0.047-0.143,0.115-0.174
			c1.414-0.745,3.521-1.34,5.934-1.586c0.724-0.074,1.432-0.112,2.113-0.117c0.12,0,0.239,0,0.36,0.001
			c4.044,0.092,7.281,1.699,7.234,3.589c-0.048,1.893-3.364,3.352-7.409,3.262c-1.309-0.031-2.538-0.221-3.596-0.525
			c-0.125-0.033-0.215-0.139-0.215-0.266c0-0.125,0.091-0.234,0.218-0.266c2.523-0.584,4.226-1.538,4.106-2.439
			c-0.159-1.195-3.458-1.846-7.372-1.453C66.666,17.884,66.249,17.938,65.844,18.002z M98.704,46.309
			c-0.625,2.097-1.51,4.776-5.456,6.802c-0.575,0.295-0.794-0.188-0.529-0.642c1.491-2.536,1.756-3.17,2.189-4.17
			c0.606-1.463,0.924-3.544-0.282-7.883c-2.373-8.54-7.323-19.954-10.922-23.657c-3.472-3.574-9.764-4.578-15.451-3.12
			c-2.095,0.537-6.192,2.668-13.791,0.957c-13.152-2.962-15.101,3.623-15.854,6.491c-0.756,2.87-2.568,11.023-2.568,11.023
			c-0.604,3.322-1.395,9.096,19.026,12.986c9.514,1.811,9.997,4.27,10.417,6.038c0.756,3.169,1.962,4.983,3.322,5.89
			c1.359,0.908,0,1.658-1.508,1.812c-4.052,0.421-19.026-3.874-27.885-8.908c-7.249-4.429-7.369-8.418-5.71-11.802
			c-10.948-1.184-19.166,1.026-20.654,6.21c-2.557,8.895,19.555,24.089,44.735,31.714c26.425,8,53.603,2.414,56.625-14.196
			C115.778,54.309,109.423,48.727,98.704,46.309z"/>
	</g>
</g>
</svg>
