<?xml version="1.0" encoding="UTF-8" standalone="no"?>
<svg width="20px" height="16px" viewBox="0 0 20 16" version="1.1" xmlns="http://www.w3.org/2000/svg" xmlns:xlink="http://www.w3.org/1999/xlink">
    <!-- Generator: Sketch 42 (36781) - http://www.bohemiancoding.com/sketch -->
    <title>Artboard 2</title>
    <desc>Created with Sketch.</desc>
    <defs></defs>
    <g id="Page-1" stroke="none" stroke-width="1" fill="none" fill-rule="evenodd">
        <g id="Artboard-2" fill="#72767b">
            <g id="Group-3">
                <path d="M2.215,10.1175 C1.05065711,10.1174926 0.106389452,9.1743332 0.1050148,8.00999112 C0.103640148,6.84564904 1.04567814,5.90026257 2.21001777,5.89750591 C3.3743574,5.89474926 4.32086134,6.83566446 4.325,8 C4.3263275,8.56070271 4.10469051,9.09893155 3.70891672,9.49611212 C3.31314294,9.89329268 2.77570389,10.116838 2.215,10.1175 L2.215,10.1175 Z M2.215,6.8675 C1.75199569,6.86751774 1.33478004,7.14697334 1.15854471,7.5751253 C0.982309387,8.00327726 1.08190371,8.49546149 1.41073311,8.82141273 C1.73956251,9.14736398 2.23260326,9.24262764 2.65918938,9.06263523 C3.0857755,8.88264281 3.36155255,8.46298657 3.3575,8 C3.35202103,7.37251595 2.84250652,6.86634618 2.215,6.865 L2.215,6.8675 Z" id="Shape"></path>
                <path d="M18.9125,8.5 L3.8425,8.5 C3.58879985,8.4817501 3.39229853,8.2706057 3.39229853,8.01625 C3.39229853,7.7618943 3.58879985,7.5507499 3.8425,7.5325 L18.9125,7.5325 C19.1662001,7.5507499 19.3627015,7.7618943 19.3627015,8.01625 C19.3627015,8.2706057 19.1662001,8.4817501 18.9125,8.5 L18.9125,8.5 Z" id="Shape"></path>
                <path d="M6.75,8.185 C6.55520297,8.18365163 6.38011556,8.06588521 6.30542416,7.88597164 C6.23073277,7.70605806 6.27093332,7.49891451 6.4075,7.36 L13.44,0.3175 C13.557058,0.174473545 13.7452307,0.110409756 13.9252433,0.152297926 C14.1052558,0.194186097 14.2458139,0.334744162 14.2877021,0.514756725 C14.3295902,0.694769288 14.2655265,0.882942002 14.1225,1 L7.0825,8.0425 C6.99434082,8.13132283 6.87511941,8.18241772 6.75,8.185 L6.75,8.185 Z" id="Shape"></path>
                <path d="M13.7825,15.8325 C13.6539055,15.8325389 13.5306158,15.7812432 13.44,15.69 L6.3975,8.65 C6.22445308,8.45831726 6.23195049,8.16465593 6.41455321,7.98205321 C6.59715593,7.79945049 6.89081726,7.79195308 7.0825,7.965 L14.1225,15 C14.2641163,15.1378778 14.307898,15.3478993 14.2331682,15.5308773 C14.1584385,15.7138552 13.9801487,15.8331808 13.7825,15.8325 L13.7825,15.8325 Z" id="Shape"></path>
                <path d="M13.805,5 C13.6735092,5.00076791 13.5474008,4.9478373 13.4558478,4.85345268 C13.3642947,4.75906806 13.3152286,4.63140646 13.32,4.5 L13.32,1.12 L9.935,1.12 C9.68129985,1.1017501 9.48479853,0.890605704 9.48479853,0.63625 C9.48479853,0.381894296 9.68129985,0.170749905 9.935,0.1525 L14.2875,0.1525 L14.2875,4.5 C14.2922534,4.63097134 14.243525,4.75824162 14.1525184,4.852549 C14.0615118,4.94685638 13.9360575,5.00008623 13.805,5 L13.805,5 Z" id="Shape"></path>
                <path d="M16.175,11.2375 C15.980203,11.2361516 15.8051156,11.1183852 15.7304242,10.9384716 C15.6557328,10.7585581 15.6959333,10.5514145 15.8325,10.4125 L18.2275,8.0175 L15.8325,5.6225 C15.699497,5.50242786 15.6435333,5.31880558 15.6869578,5.1449625 C15.7303824,4.97111941 15.8661194,4.83538238 16.0399625,4.79195783 C16.2138056,4.74853328 16.3974279,4.80449702 16.5175,4.9375 L19.595,8.0175 L16.5175,11.095 C16.4268842,11.1862432 16.3035945,11.2375389 16.175,11.2375 L16.175,11.2375 Z" id="Shape"></path>
                <path d="M14.28,15.8475 L9.935,15.8475 C9.75387179,15.8605294 9.58063993,15.7712823 9.48610367,15.6162337 C9.39156741,15.461185 9.39156741,15.266315 9.48610367,15.1112663 C9.58063993,14.9562177 9.75387179,14.8669706 9.935,14.88 L13.3125,14.88 L13.3125,11.5 C13.2994706,11.3188718 13.3887177,11.1456399 13.5437663,11.0511037 C13.698815,10.9565674 13.893685,10.9565674 14.0487337,11.0511037 C14.2037823,11.1456399 14.2930294,11.3188718 14.28,11.5 L14.28,15.8475 L14.28,15.8475 Z" id="Shape"></path>
            </g>
        </g>
    </g>
</svg>
