<?xml version="1.0" encoding="utf-8"?>
<!-- Generator: Adobe Illustrator 19.1.0, SVG Export Plug-In . SVG Version: 6.00 Build 0)  -->
<svg version="1.1" id="Layer_1" xmlns="http://www.w3.org/2000/svg" xmlns:xlink="http://www.w3.org/1999/xlink" x="0px" y="0px"
	 viewBox="-41 326 527.2 142" style="enable-background:new -41 326 527.2 142;" xml:space="preserve">
<style type="text/css">
	.st0{fill:#243A4C;}
	.st1{fill:#FFFFFF;}
	.st2{fill:#68C28D;}
	.st3{opacity:0.5;}
	.st4{fill:#F1F2F2;}
</style>
<g>
	<polygon class="st0" points="27.1,364.5 8.4,356.1 -10.4,364.5 8.4,375.3 8.4,397 25,384.9 	"/>
	<polygon class="st1" points="-10.4,364.5 -10.4,364.5 -10.4,364.5 	"/>
	<g>
		<polygon class="st2" points="-24,356.6 -10.4,364.5 8.4,356.1 27.1,364.5 25,384.9 8.4,397 8.4,412.7 37.1,391.9 40.8,356.6 
			8.4,342.2 		"/>
	</g>
	<g class="st3">
		<polygon class="st1" points="8.4,397 8.4,397 25,384.9 		"/>
	</g>
	<g>
		<g>
			<path class="st1" d="M8.4,328.4l-45.9,20.4l5.3,50l40.7,29.5L49,398.8l5.3-50L8.4,328.4z M37.1,391.9L8.4,412.7l0-37.4L-24,356.6
				l32.4-14.4l32.4,14.4L37.1,391.9z"/>
		</g>
	</g>
</g>
<g class="st3">
	<path class="st1" d="M28.8,396.1L28.8,396.1L28.8,396.1z"/>
</g>
<g>
	<path class="st1" d="M87.4,355.6H68v-13.4h54.8v13.4h-19.4v57.1H87.4V355.6z"/>
	<path class="st1" d="M126.5,342.2h44.3v13.4h-28.2v14.2h24v13.3h-24v16.2h29.3v13.4h-45.3V342.2z"/>
	<path class="st1" d="M204.8,340.9c8.8,0,16.1,4.3,20.9,9.2l-8.8,9.8c-3.6-3.2-6.9-5.3-11.9-5.3c-9.8,0-17.5,8.5-17.5,22.7
		c0,14.5,6.8,22.9,17.1,22.9c5.8,0,10-2.5,13.4-6.3l8.8,9.6c-5.8,6.8-13.6,10.4-22.4,10.4c-18.3,0-33.2-12.4-33.2-36.1
		C171.1,354.5,186.6,340.9,204.8,340.9z"/>
	<path class="st1" d="M246.5,355.6H227v-13.4h54.8v13.4h-19.4v57.1h-15.9V355.6z"/>
	<path class="st1" d="M277.9,377.1c0-23.1,13.1-36.3,32-36.3c19,0,32,13.3,32,36.3c0,23-13,36.9-32,36.9
		C291,414,277.9,400.2,277.9,377.1z M325.7,377.1c0-14.1-6.1-22.5-15.7-22.5c-9.5,0-15.7,8.4-15.7,22.5c0,14.2,6.2,23.2,15.7,23.2
		C319.6,400.3,325.7,391.3,325.7,377.1z"/>
	<path class="st1" d="M406.7,342.2h16v70.6h-16V342.2z"/>
	<path class="st1" d="M460.3,340.9c8.8,0,16.1,4.3,20.9,9.2l-8.8,9.8c-3.6-3.2-6.9-5.3-11.9-5.3c-9.8,0-17.5,8.5-17.5,22.7
		c0,14.5,6.8,22.9,17.1,22.9c5.8,0,10-2.5,13.4-6.3l8.8,9.6c-5.8,6.8-13.6,10.4-22.4,10.4c-18.3,0-33.2-12.4-33.2-36.1
		C426.6,354.5,442.1,340.9,460.3,340.9z"/>
	<polygon class="st1" points="386.3,342.2 386.3,387.5 362.5,342.2 361.4,342.2 346.2,342.2 346.2,412.8 361.4,412.8 361.4,367.6 
		385.1,412.8 401.5,412.8 401.5,342.2 	"/>
</g>
<g>
	<path class="st4" d="M345.4,432.4h1.5v7l-0.1,3.1c1.6-1.4,3.6-2.5,5.6-2.5c4.3,0,6.4,3.2,6.4,8.2c0,5.5-3.3,8.7-7.1,8.7
		c-1.5,0-3.3-0.7-4.8-1.9h-0.1l-0.2,1.5h-1.2L345.4,432.4L345.4,432.4z M351.7,455.6c3.2,0,5.6-3,5.6-7.4c0-4-1.4-6.9-5.1-6.9
		c-1.6,0-3.3,0.9-5.3,2.6v9.5C348.7,455,350.4,455.6,351.7,455.6z"/>
	<path class="st4" d="M363,462.4c2,0,3.3-1.8,4.1-4.3l0.4-1.4l-6.6-16.4h1.6l3.9,10.1c0.5,1.3,1.1,3.1,1.7,4.5h0.1
		c0.5-1.4,1-3.1,1.5-4.5l3.5-10.1h1.5l-6.4,18.1c-0.9,2.7-2.5,5.3-5.4,5.3c-0.6,0-1.2-0.1-1.6-0.3l0.3-1.3
		C362.1,462.3,362.6,462.4,363,462.4z"/>
	<path class="st4" d="M393,434c2.6,0,4.6,1.3,5.7,2.6l-0.9,1c-1.2-1.3-2.8-2.2-4.8-2.2c-4.8,0-7.8,3.9-7.8,10s3,10.1,7.7,10.1
		c2.3,0,4-0.9,5.6-2.7l0.9,1c-1.7,1.9-3.7,3.1-6.6,3.1c-5.4,0-9.2-4.5-9.2-11.5C383.6,438.4,387.4,434,393,434z"/>
	<path class="st4" d="M409.5,440c3.9,0,7.2,3.1,7.2,8.5c0,5.3-3.4,8.4-7.2,8.4c-3.9,0-7.2-3.1-7.2-8.4
		C402.3,443.1,405.6,440,409.5,440z M409.5,455.6c3.2,0,5.7-2.9,5.7-7.1c0-4.3-2.4-7.2-5.7-7.2s-5.7,2.9-5.7,7.2
		C403.8,452.7,406.2,455.6,409.5,455.6z"/>
	<path class="st4" d="M421.5,440.4h1.3l0.1,3h0.1c1.1-2,2.6-3.4,4.6-3.4c0.6,0,1.1,0.1,1.6,0.3l-0.3,1.3c-0.5-0.2-0.8-0.3-1.5-0.3
		c-1.4,0-3.1,1.1-4.4,4.1v11h-1.5L421.5,440.4L421.5,440.4z"/>
	<path class="st4" d="M437.5,440c3.8,0,6.2,2.7,6.2,7.4c0,0.4,0,0.8-0.1,1.2H432c0.1,4.1,2.4,7,6.1,7c1.7,0,3.1-0.6,4.3-1.4l0.6,1.1
		c-1.3,0.8-2.7,1.6-5.1,1.6c-4.1,0-7.4-3.1-7.4-8.4S433.9,440,437.5,440z M442.2,447.5c0-4.1-1.8-6.2-4.7-6.2
		c-2.7,0-5.2,2.4-5.5,6.2H442.2z"/>
	<path class="st4" d="M446.6,445.4c0-7,3.8-11.4,9.1-11.4c5.3,0,9.1,4.4,9.1,11.4c0,7-3.8,11.5-9.1,11.5
		C450.4,456.9,446.6,452.4,446.6,445.4z M463.2,445.4c0-6.1-3-9.9-7.5-9.9c-4.5,0-7.5,3.9-7.5,9.9c0,6.1,3,10.1,7.5,10.1
		C460.2,455.5,463.2,451.5,463.2,445.4z"/>
	<path class="st4" d="M468.9,452.5c1.6,1.8,3.9,3,6.5,3c3.3,0,5.5-1.8,5.5-4.4c0-2.7-1.8-3.6-4-4.6l-3.3-1.5
		c-1.9-0.8-4.5-2.2-4.5-5.5c0-3.2,2.7-5.4,6.4-5.4c2.7,0,4.8,1.2,6.2,2.6l-0.9,1c-1.3-1.4-3-2.3-5.3-2.3c-2.9,0-4.9,1.5-4.9,4
		c0,2.5,2.2,3.5,3.8,4.3l3.3,1.5c2.4,1.1,4.6,2.5,4.6,5.9c0,3.4-2.8,5.9-7.1,5.9c-3.2,0-5.7-1.4-7.4-3.3L468.9,452.5z"/>
</g>
</svg>
