<?xml version="1.0" encoding="UTF-8" standalone="no"?>
<svg width="99px" height="20px" viewBox="0 0 99 20" version="1.1" xmlns="http://www.w3.org/2000/svg" xmlns:xlink="http://www.w3.org/1999/xlink">
    <!-- Generator: Sketch 48.2 (47327) - http://www.bohemiancoding.com/sketch -->
    <title>Tectonic-logo</title>
    <desc>Created with Sketch.</desc>
    <defs></defs>
    <g id="1_cluster-console_Overview__0315_2018@2x-Copy-3" stroke="none" stroke-width="1" fill="none" fill-rule="evenodd" transform="translate(-28.000000, -20.000000)">
        <g id="Tectonic-logo" transform="translate(28.000000, 20.000000)">
            <g id="Group">
                <polygon id="Shape" points="12.1607521 7.13429745 8.66757136 5.49243173 5.15571055 7.13429745 8.66757136 9.24526765 8.66757136 13.4867541 11.7684697 11.1216856"></polygon>
                <polygon id="Shape" fill="#68C28D" points="2.6152155 5.59016184 5.15571055 7.13429745 8.66757136 5.49243173 12.1607521 7.13429745 11.7684697 11.1216856 8.66757136 13.4867541 8.66757136 16.5554793 14.0287631 12.489907 14.7199272 5.59016184 8.66757136 2.7755349"></polygon>
                <g opacity="0.5" transform="translate(8.592851, 10.945771)" fill="#FFFFFF" id="Shape">
                    <polygon points="0.0747204427 2.54098265 0.0747204427 2.54098265 3.17561882 0.175914184"></polygon>
                </g>
                <path d="M8.66757136,0.0781840816 L0.0934005534,4.06557224 L1.08344642,13.8385824 L8.68625147,19.6046585 L16.2516963,13.8385824 L17.2417422,4.06557224 L8.66757136,0.0781840816 L8.66757136,0.0781840816 Z M14.0287631,12.489907 L8.66757136,16.5554793 L8.66757136,9.24526765 L2.6152155,5.59016184 L8.66757136,2.7755349 L14.7199272,5.59016184 L14.0287631,12.489907 L14.0287631,12.489907 Z" id="Shape" fill="#FFFFFF"></path>
            </g>
            <g id="Group" transform="translate(19.741481, 2.368978)" fill="#FFFFFF">
                <polygon id="Shape" points="3.69141903 2.99643662 0 2.99643662 0 0.422574396 10.4273073 0.422574396 10.4273073 2.99643662 6.73588832 2.99643662 6.73588832 13.964163 3.69141903 13.964163"></polygon>
                <polygon id="Shape" points="11.1313409 0.422574396 19.5607152 0.422574396 19.5607152 2.99643662 14.1948381 2.99643662 14.1948381 5.72396227 18.7615421 5.72396227 18.7615421 8.27861657 14.1948381 8.27861657 14.1948381 11.3903008 19.7700225 11.3903008 19.7700225 13.964163 11.1503688 13.964163 11.1503688 0.422574396"></polygon>
                <path d="M26.0302125,0.172871344 C27.7046706,0.172871344 29.0937097,0.998812208 30.0070505,1.94000064 L28.3325924,3.82237749 C27.6475868,3.20772382 27.019665,2.80435735 26.0682684,2.80435735 C24.2035309,2.80435735 22.7383801,4.43703116 22.7383801,7.1645568 C22.7383801,9.94970623 24.0322795,11.5631721 25.9921566,11.5631721 C27.0957768,11.5631721 27.89495,11.0829739 28.5418997,10.3530727 L30.2163578,12.1970337 C29.1127377,13.5031727 27.6285589,14.1946581 25.9541008,14.1946581 C22.471989,14.1946581 19.636827,11.8128752 19.636827,7.26059644 C19.617799,2.78514943 22.5671287,0.172871344 26.0302125,0.172871344 L26.0302125,0.172871344 Z" id="Shape"></path>
                <polygon id="Shape" points="33.9648606 2.99643662 30.2544137 2.99643662 30.2544137 0.422574396 40.681721 0.422574396 40.681721 2.99643662 36.990302 2.99643662 36.990302 13.964163 33.9648606 13.964163 33.9648606 2.99643662"></polygon>
                <path d="M39.9396316,7.12614095 C39.9396316,2.68910979 42.4322909,0.153663417 46.0285702,0.153663417 C49.6438775,0.153663417 52.1175088,2.70831772 52.1175088,7.12614095 C52.1175088,11.5439642 49.6438775,14.213866 46.0285702,14.213866 C42.4322909,14.213866 39.9396316,11.5631721 39.9396316,7.12614095 L39.9396316,7.12614095 Z M49.0349836,7.12614095 C49.0349836,4.41782323 47.8742797,2.80435735 46.0475981,2.80435735 C44.2399445,2.80435735 43.0602126,4.41782323 43.0602126,7.12614095 C43.0602126,9.85366659 44.2399445,11.58238 46.0475981,11.58238 C47.8742797,11.58238 49.0349836,9.85366659 49.0349836,7.12614095 L49.0349836,7.12614095 Z" id="Shape"></path>
                <polygon id="Shape" points="64.4476095 0.422574396 67.4920788 0.422574396 67.4920788 13.9833709 64.4476095 13.9833709"></polygon>
                <path d="M74.6465816,0.172871344 C76.3210397,0.172871344 77.7100789,0.998812208 78.6234196,1.94000064 L76.9489615,3.82237749 C76.2639559,3.20772382 75.6360341,2.80435735 74.6846375,2.80435735 C72.8199,2.80435735 71.3547492,4.43703116 71.3547492,7.1645568 C71.3547492,9.94970623 72.6486486,11.5631721 74.6085258,11.5631721 C75.7121459,11.5631721 76.5113191,11.0829739 77.1582688,10.3530727 L78.8327269,12.1970337 C77.7291068,13.5031727 76.244928,14.1946581 74.5704699,14.1946581 C71.0883581,14.1946581 68.2531961,11.8128752 68.2531961,7.26059644 C68.2341682,2.78514943 71.1834978,0.172871344 74.6465816,0.172871344 L74.6465816,0.172871344 Z" id="Shape"></path>
                <polygon id="Shape" points="60.5659111 0.422574396 60.5659111 9.12376536 56.037263 0.422574396 55.8279558 0.422574396 52.9357099 0.422574396 52.9357099 13.9833709 55.8279558 13.9833709 55.8279558 5.30138787 60.3375759 13.9833709 63.458157 13.9833709 63.458157 0.422574396"></polygon>
            </g>
        </g>
    </g>
</svg>